<svg id="Objects" xmlns="http://www.w3.org/2000/svg" viewBox="0 0 157.5 107.6"><style>.st0{fill:#e03d14}.st1{fill:#ffae00}.st2{fill:#ffebbf}.st3{font-family:&apos;Arial-BoldMT&apos;}.st4{font-size:8.7344px}.st5{fill:#fc6e4b}.st6{fill:#335e59}</style><path class="st0" d="M39.6 53.1c-.5-.4-1.1-.5-1.7-.3v1.5c.4-.2.7-.3.9-.1.3.2.1.9-.4 1.6-.2.2-.4.4-.6.5v2.4c1.9.8 3.9.7 4.9-.2-.4.5 1.4-2.4.8-2-1.4.9-3.3 1.3-4.9 1 .3-.2.6-.4.8-.7 1.1-1.4 1.1-3 .2-3.7zm-1.7-.4c-.6.1-1.2.5-1.7 1.1-.3.4-.5.8-.6 1.2-.6-1.1-1-2.6-.8-4.6-1.5 4.4.7 7.1 3.1 8.1v-2.4c-.4.2-.7.3-.9.1-.3-.2-.1-.9.4-1.6.2-.2.4-.4.6-.5l-.1-1.4z"/><path class="st1" d="M1.9 67h52.5c1 0 1.9.8 1.9 1.9v31.9c0 1-.8 1.9-1.9 1.9H1.9c-1 0-1.9-.8-1.9-1.9V68.9C0 67.8.8 67 1.9 67z"/><path class="st2" d="M0 92h56.2v6.6H0zm4.5-21.7h10.7c.6 0 1 .5 1 1v7.1c0 .6-.5 1-1 1H4.5c-.6 0-1-.5-1-1v-7.1c0-.6.5-1 1-1z"/><path class="st1" d="M77.7 35.7h79.8V72H77.7z"/><path class="st2" d="M79.9 38.2h75.5v31.3H79.9z"/><path class="st1" d="M146.2 35.7h11.2V47c-6.1 0-11.2-5.1-11.2-11.3zM88.9 72H77.7V60.8c6.2 0 11.2 5 11.2 11.2zm28.7-6.3c6.5 0 11.8-5.3 11.8-11.8s-5.3-11.8-11.8-11.8-11.8 5.3-11.8 11.8c0 6.5 5.3 11.8 11.8 11.8z"/><text transform="translate(81.308 47.645)" class="st1 st3 st4">100</text><text transform="translate(139.674 68.722)" class="st1 st3 st4">100</text><path class="st2" d="M119.4 46.6c.6.2 1.2.5 1.6.9.6.6 1 1.3 1.1 2.2l-2.4.3c-.1-.3-.2-.6-.3-.8v-2.6zm0 5.8c1.1.4 1.8.8 2.3 1.3.5.6.8 1.5.8 2.5 0 1.1-.3 2.1-1 2.8-.5.6-1.2 1-2.1 1.3v-2.2l.3-.3c.3-.3.4-.8.4-1.2 0-.4-.1-.8-.4-1.1-.1-.1-.2-.3-.4-.4v-2.7h.1zm-2.1 5.9v-3.9c-.2-.1-.4-.1-.6-.2v-2.8c.2.1.4.3.6.4v-3.2l-.6.3v-2.3c.2 0 .4-.1.6-.1v-.9h1.4v.9c.3 0 .5.1.8.2v2.6c-.2-.3-.5-.5-.8-.6v3.7c.3.1.5.2.8.2v2.7c-.2-.1-.5-.2-.8-.3v3.6c.3-.1.6-.2.8-.3v2.2c-.2.1-.5.1-.8.2v1.7h-1.4v-1.7c-.2 0-.4-.1-.6-.1V58c.2 0 .4.2.6.3zm-.6-4.1c-.9-.3-1.6-.8-2.1-1.4-.6-.7-.9-1.6-.9-2.6s.3-1.9 1-2.6c.5-.6 1.2-.9 2-1.1v2.3l-.3.3c-.2.3-.3.6-.3 1 0 .3.1.6.3.9l.3.3v2.9zm0 6.2c-.8-.2-1.5-.6-2-1.1-.7-.7-1.1-1.6-1.3-2.8l2.4-.3c.1.5.3.9.6 1.3.1.1.2.3.3.4v2.5z"/><path class="st0" d="M63.9 107.6h7.7V94.7h22.3l-1.5 12.9h8.8V87.4h-47l3.6 20z"/><path class="st5" d="M40.3 60.9c-5 23.9 10 42.6 16.7 46.6h6.9l-.1-9.2c5.2 2 12.1 3.1 19.3 2.7v6.5h9.2c7.7-4.4 19.1-23.7 31.3-25.3 3-.2 5.4-3.5 5.9-7.8.2-1.1.2-2.3 0-3.4-.4-2.3-1-4-1.9-5.2-1.1-1.6-2.6-2.6-4.3-2.6-4.7-.1-9.2-8-11.2-11-15.9-24.1-64.5-26.3-71.8 8.7z"/><path class="st0" d="M82.9 50.1c1.1 8.5 10.5 11.9 22.4 3.8 7.7-5.3 9.5-7.9-.4-10.5-7.5-2-23.7-6.4-22 6.7z"/><ellipse class="st0" cx="124.4" cy="72.8" rx="4.5" ry="8.1"/><path class="st5" d="M123.2 74.7c.5 0 .9-1 .9-2.3s-.4-2.3-.9-2.3-.9 1-.9 2.3c-.1 1.2.4 2.3.9 2.3z"/><path class="st6" d="M69.8 38.9c7.6-2 18.1 1.1 20.2 2.1l1.5-2.2c-1.4-1.2-13.2-4.7-21.8-2.4l.1 2.5z"/><path class="st0" d="M90.6 40.2l1-1.4c-1.4-1.2-13.2-4.7-21.8-2.4v1.3c9.6-1.5 16.4.8 20.8 2.5z"/><path class="st6" d="M105.1 60.7c1 0 1.9-.8 1.9-1.9 0-1-.8-1.9-1.9-1.9-1 0-1.9.8-1.9 1.9 0 1.1.8 1.9 1.9 1.9z"/><path class="st5" d="M83.9 50c.9 7.4 9.2 10.4 19.5 3.3 6.7-4.6 8.3-6.9-.3-9.2-6.6-1.7-20.7-5.5-19.2 5.9z"/><path class="st1" d="M78.3 37.1c5.5 0 9.9-4.5 9.9-9.9 0-5.5-4.5-9.9-9.9-9.9-5.5 0-9.9 4.5-9.9 9.9-.1 5.5 4.4 9.9 9.9 9.9z"/><ellipse transform="rotate(-13.286 78.292 27.139)" class="st2" cx="78.3" cy="27.1" rx="8.4" ry="8.4"/><path class="st1" d="M75.4 28.8c.5.5.9.9 1.4 1.2.5.3 1 .4 1.4.4s.7-.1 1-.3c.3-.2.4-.5.4-.9s-.1-.7-.3-.9c-.2-.2-.7-.4-1.5-.6-1.2-.3-2-.7-2.5-1.2s-.7-1.2-.7-2c0-1.1.3-1.9 1-2.6s1.6-1 2.8-1.2v-1.1h1v1.1c.5 0 .9.2 1.4.3.4.2.9.4 1.3.7l-1 2.3c-.4-.3-.7-.5-1.1-.7-.4-.2-.8-.2-1.1-.2-.4 0-.7.1-.9.3-.2.2-.4.4-.4.7 0 .3.1.5.3.7s.6.3 1.2.5h.1c1.3.4 2.2.7 2.6 1.2.3.3.5.6.6 1s.2.8.2 1.3c0 1.1-.3 2-1 2.8-.7.7-1.6 1.2-2.7 1.3v1.9h-1v-1.9c-.8 0-1.4-.2-2.1-.4-.6-.3-1.2-.7-1.8-1.3l1.4-2.4zm-10.4-9c5.5 0 9.9-4.5 9.9-9.9S70.4 0 65 0c-5.5 0-9.9 4.5-9.9 9.9s4.5 9.9 9.9 9.9z"/><ellipse transform="rotate(-89.246 65.078 9.92) scale(.99999)" class="st2" cx="65.1" cy="9.9" rx="8.4" ry="8.4"/><path class="st1" d="M62.2 11.5c.5.5.9.9 1.4 1.2s1 .4 1.4.4.7-.1 1-.3c.3-.2.4-.5.4-.9s-.1-.7-.3-.9c-.2-.2-.7-.4-1.5-.6-1.2-.3-2-.7-2.5-1.2s-.7-1.2-.7-2c0-1.1.3-1.9 1-2.6s1.6-1 2.8-1.2V2.3h1v1.1c.5 0 .9.2 1.4.3.4.2.9.4 1.3.7l-1 2.3c-.4-.3-.7-.5-1.1-.7-.4-.2-.8-.2-1.1-.2-.4 0-.7.1-.9.3-.2.2-.4.4-.4.7 0 .3.1.5.3.7s.6.3 1.2.5h.1c1.3.4 2.2.7 2.6 1.2.3.3.5.6.6 1s.2.8.2 1.3c0 1.1-.3 2-1 2.8-.7.7-1.6 1.2-2.7 1.3v1.9h-1v-1.9c-.8 0-1.4-.2-2.1-.4-.6-.3-1.2-.7-1.8-1.3l1.4-2.4zm33.6 12c5.5 0 9.9-4.5 9.9-9.9 0-5.5-4.5-9.9-9.9-9.9s-9.9 4.5-9.9 9.9 4.4 9.9 9.9 9.9z"/><path class="st2" d="M95.8 21.9c4.6 0 8.4-3.8 8.4-8.4s-3.8-8.4-8.4-8.4c-4.6 0-8.4 3.8-8.4 8.4 0 4.7 3.8 8.4 8.4 8.4z"/><path class="st1" d="M93 15.2c.5.5.9.9 1.4 1.2.5.3 1 .4 1.4.4s.7-.1 1-.3c.3-.2.4-.5.4-.9s-.1-.7-.3-.9c-.2-.2-.7-.4-1.5-.6-1.2-.3-2-.7-2.5-1.2s-.7-1.2-.7-2c0-1.1.3-1.9 1-2.6s1.6-1 2.8-1.2V6h1v1.1c.5 0 .9.2 1.4.3.4.2.9.4 1.3.7l-1 2.3c-.4-.3-.7-.5-1.1-.7-.4-.2-.8-.2-1.1-.2-.4 0-.7.1-.9.3-.2.2-.3.4-.3.7 0 .3.1.5.3.7s.6.3 1.2.5h.1c1.3.4 2.2.7 2.6 1.2.3.3.5.6.6 1s.2.8.2 1.3c0 1.1-.3 2-1 2.8-.7.7-1.6 1.2-2.7 1.3v1.9h-1v-1.9c-.8 0-1.4-.2-2.1-.4-.6-.3-1.2-.7-1.8-1.3l1.3-2.4z"/><path class="st5" d="M126.7 74.7c.5 0 .9-1 .9-2.3s-.4-2.3-.9-2.3-.9 1-.9 2.3c0 1.2.4 2.3.9 2.3z"/><path d="M42.5 80.4c-4.2-12.9-.5-35.2 13.6-39.1C42.8 50.5 42 72.8 42.5 80.4zM85 51.8c-1.2-3.7.5-9.2 5.6-9.1-4.3 2-5.7 6.9-5.6 9.1z" fill="#ff9d85"/></svg>