<svg id="objects" xmlns="http://www.w3.org/2000/svg" viewBox="0 0 184.2 190.2"><style>.st0{fill:#605343}.st1{fill:#c93838}.st2{fill:#f6dcb9}</style><path class="st0" d="M52.5 15.4C54.7 8.1 72 1.7 79 27.6c7.1 25.8 3.5 34.9 7.4 44s-5.3 79.7-27 79.5c-23.2-.2-28.3-67.7-23.7-81.4 4.7-13.8.6-54.3 16.8-54.3zm76.5 0c-2.2-7.3-19.5-13.7-26.5 12.2-7.1 25.8-3.5 34.9-7.4 44-3.9 9.1 5.3 79.7 27 79.5 23.2-.2 28.3-67.7 23.7-81.4-4.7-13.8-.6-54.3-16.8-54.3z"/><path class="st1" d="M109.5 121.4c-.4.6-35.6 1.1-35.9 1.7-11.1 15.8-34.9 18.7-53.9 22.9C.8 150.2.1 174.2 0 190.2h184.2c0-16-.4-39.9-19.7-44.2-19.2-4.3-44.5-8.1-55-24.6z"/><path class="st1" d="M110.6 122.9v8.7l-9 58.6H82.4l-8.9-57.9v-9.2c.4-.6 35.6-1.1 35.9-1.7.5.5.8 1 1.2 1.5z"/><path class="st2" d="M73.7 83.7v45.2c9.2 18.9 25.9 19.4 36.9 0V83.7c0-24.4-36.9-24.4-36.9 0zm67.1-21.1c-3.7-1.7-8.9 2.4-11.6 9.1-2.7 6.7-2 13.5 1.7 15.1 3.7 1.7 8.9-2.4 11.6-9.1 2.8-6.7 2-13.4-1.7-15.1zm-97.3 0c3.7-1.7 8.9 2.4 11.6 9.1s2 13.5-1.7 15.1c-3.7 1.7-8.9-2.4-11.6-9.1-2.8-6.7-2-13.4 1.7-15.1z"/><path d="M73.7 106.2v1.3s11.6 11.6 18.3 11.6 18.6-11.7 18.6-11.7v-1.1l-36.9-.1z" opacity=".2"/><path class="st2" d="M92.2 115C80.7 115 56.5 96.1 49 69 41.4 41.7 55.7 2.5 92.2 2.5s50.7 39.2 43.2 66.5c-7.6 27.1-31.8 46-43.2 46z"/><path class="st0" d="M137.6 35.6C134 21.4 115.9-.1 98.9.3c-2.4-.3-5.2-.4-8.3-.2-3-.2-5.8-.1-8.3.2-17-.4-35.1 21.1-38.7 35.3-2.9 11.4-4.2 22.6 2.8 34.3 1.2 3.5 2.7 6 4.1 7-1.6-9-1.9-15.4-1.3-20.3 1.3-1.9 3.7-2.5 7.9-.8 11.9 5 15.5-.6 24.5-19.4 2.7-5.8 4.9-12.6 9-12.5 4.1 0 6.3 6.8 9 12.5 9 18.8 12.6 24.3 24.5 19.4 4.2-1.7 6.6-1.1 7.9.8.6 4.9.2 11.4-1.3 20.3 1.4-1 2.9-3.5 4.1-7 7-11.7 5.7-22.9 2.8-34.3z"/><path d="M82.6 190.2H66l-16.1-14.6 16.4-10.9-20-9.4 13.2-20.5 5.1-8 8.9-4v9.5l9 57.9zm35.2-26.2l16.4 10.9-16.1 15.3h-16.6.1l9-58.6v-9.4l10.9 4.9 4.8 8.1 11.5 19.5z" fill="#ededed"/></svg>