<svg id="objects" xmlns="http://www.w3.org/2000/svg" viewBox="0 0 194.2 218.3"><style>.st2{fill:#ffdbba}.st5{fill:#c93838}.st6{fill:#ededed}.st8{fill:#755a48}</style><path d="M77.7 130.1c-42.9 18.8-55.8 28.9-60.9 33.4C9 170.4 4.6 196.3 0 218.3h194.2c-4.6-22-9-47.8-16.8-54.8-5.1-4.5-17.5-14.3-60.4-33.1l-39.3-.3z" fill="#ffdecc"/><path d="M77.7 130.1c-42.9 18.8-55.8 28.9-60.9 33.4C9 170.4 4.6 196.3 0 218.3h194.2c-4.6-22-9-47.8-16.8-54.8-5.1-4.5-17.5-14.3-60.4-33.1l-39.3-.3z" fill="#333"/><path class="st2" d="M76.3 92.6v47.6c11.5 13.6 30.2 14 41.7 0V92.6c0-25.7-41.7-25.7-41.7 0zM53.7 62.7c3.7-1.2 8.3 3 10.4 9.3 2.1 6.3.8 12.5-2.9 13.7s-8.3-3-10.4-9.3c-2.1-6.4-.8-12.5 2.9-13.7zm86.7 0c-3.7-1.2-8.3 3-10.4 9.3s-.8 12.5 2.9 13.7c3.7 1.2 8.3-3 10.4-9.3 2.1-6.4.8-12.5-2.9-13.7z"/><path d="M97.2 150.5s-29.1 6.9-29.1 8.7c0 1.8 11.1 59 11.1 59h39.5l4.5-58.8-26-8.9z" fill="#fff"/><path d="M76.3 130.7v9.5l9 78.1H69.8l-17.2-34.8L69 172.6l-20-9.4 18.4-28.5zm41.7.1v9.4l-9.2 78.1h15.6l17.1-34.8-16.3-10.9 20-9.4-16.4-27.6z" fill="#605f5b"/><path class="st5" d="M88.2 160.2l5 7.8h7.8l5.1-7.8-8.9-9.7-9 9.7zm5 7.8L86 218.3h22.2L101 168z"/><path class="st6" d="M76.3 124.5l-1.8 7.1 5.1 36.9 17.7-17.9-21-26.1z"/><path d="M76.3 115.6v1.5s10.6 12.6 20.8 13.1c10.2.5 20.9-12.2 20.9-12.2v-2.3" opacity=".2"/><path class="st8" d="M130.2 10.8c9.5 1.5 14.8 8.1 17.1 16.9 5.9 23.1-6.4 73.2-49 73.8-22 .3-37.8-5.3-43.6-23.1-5.8-17.8-8.1-46.4 4.4-62.5 15.7-20.2 48.8-20.3 71.1-5.1z"/><path class="st2" d="M97.2 7.2c-64.1 0-39.5 87.8-35.4 94.6 4.6 7.4 25 23.8 35.4 23.8s30.7-16.4 35.4-23.8c4.1-6.8 28.7-94.6-35.4-94.6z"/><path class="st8" d="M66.1 34.8c11.4 6.9 20.3-3.4 30.6 1s38.2-16.9 44.3 30c9.8-34-5-58.4-42.2-60C59.1 4.1 43 40.3 54 74.1c-.8-18.3 3.7-30.3 12.1-39.3z"/><path class="st8" d="M65.1 31.7c.3 5.9 10.3 6.8 14.5 7.1 4 .3 7.9-.4 11.7-1.5 4.7-1.3 10.6-3 14.4-6.2.4-.3.2-1-.3-1.1-7.2-1.2-14.7 4.7-21.9 5.4-5.7.5-13.2-.3-17.7-4.1-.2-.1-.7 0-.7.4z"/><path class="st5" d="M117 89c.4 0 .7 0 1.1-.1 10.4-.9 13-5.6 14.2-11.5 1.3-6.5 1.4-8.8 3.1-9.4 1.2-.4 1.5-1.9 1.5-3.6 0-1.7-.1-1.9-2.1-2.6-1.6-.6-10.5-1.4-17.2-.9v1.8c5.3-.3 10.3.3 11.8 1.3 3.3 2.2 2.4 12.6-.5 17.8-2 3.6-7.1 5.4-11.8 5.5L117 89zM97.5 64.4c-2.3.1-11.7-2.7-18.4-3.2-.5 0-1-.1-1.5-.1v1.8c5.4.2 11.1 1.5 13 4.4 3.2 4.8-2.5 16.4-7.7 19-1.6.8-3.6 1.2-5.8 1.2v1.7c9 0 12.4-6.5 13.5-8.7 2.1-4.1 1.7-9.7 6.8-9.7 5.2 0 4.5 5.5 6.3 9.6 1 2.2 3.9 9 13.3 8.7v-1.6c-2.3 0-4.5-.4-6.1-1.2-5-2.6-10-14.2-6.5-19 2.1-2.9 7.7-4.2 13.1-4.4v-1.8c-.4 0-.8.1-1.2.1-6.1.4-13.4 3-18.8 3.2zM77.6 61c-6.6-.4-15.4.5-17 1-2.1.7-2.1.9-2.3 2.6-.1 1.7.1 3.1 1.3 3.6 1.6.6 1.6 2.9 2.5 9.4.8 5.9 3.1 10.6 13.5 11.4.5 0 1 .1 1.5.1v-1.7c-4.8 0-10.1-1.8-11.9-5.5-2.5-5.2-2.9-15.6.6-17.8 1.5-.9 6.5-1.6 11.7-1.4l.1-1.7z"/><path class="st6" d="M118 124.5l1.4 7-4.8 37.4-17.4-18.3 20.8-26.1z"/><path opacity=".05" d="M76.3 124.5l20.9 26 20.8-26v-.7l-20.8 26-20.9-26v.7"/><path opacity=".1" d="M93.2 168h7.8l.1.3h-7.9z"/></svg>