<svg id="Objects" xmlns="http://www.w3.org/2000/svg" viewBox="0 0 151.9 127.9"><style>.st0{fill:#335e59}.st1{fill:#71b8b0}.st3{fill:#ffae00}.st4{fill:#ffebbf}</style><path class="st0" d="M71.5 108.4h23l10.7 19.5H60.8z"/><path class="st0" d="M29 24.4h108.1c3 0 5.5 2.5 5.5 5.5v77.9c0 3-2.5 5.5-5.5 5.5H29c-3 0-5.5-2.5-5.5-5.5V29.9c-.1-3 2.4-5.5 5.5-5.5z"/><path class="st1" d="M135.9 107.7c.4 0 .7.3.7.7s-.3.7-.7.7-.7-.3-.7-.7.3-.7.7-.7zm-2.8 0c.4 0 .7.3.7.7s-.3.7-.7.7-.7-.3-.7-.7.3-.7.7-.7zm-2.8 0c.4 0 .7.3.7.7s-.3.7-.7.7-.7-.3-.7-.7.3-.7.7-.7zM17 122h131.9c1.6 0 2.9 1.3 2.9 2.9 0 1.6-1.3 2.9-2.9 2.9H17c-1.6 0-2.9-1.3-2.9-2.9 0-1.6 1.3-2.9 2.9-2.9z"/><path class="st0" d="M151.9 124.9c0 1.6-1.3 2.9-2.9 2.9H17c-1.6 0-2.9-1.3-2.9-2.9h137.8z"/><path fill="#fffdfa" d="M27.1 27.6h111.8v75.8H27.1z"/><path class="st1" d="M82 38.5c.9 0 1.7 0 2.6.1l1.2-3.8 8.1 2.5-1.2 3.8c2.9 1.5 5.4 3.6 7.4 6.1l3.5-1.9 4 7.4-3.5 1.9c1 3 1.3 6.3.9 9.6l3.8 1.2-2.5 8.1-3.8-1.2c-1.5 2.9-3.6 5.4-6.1 7.4l1.9 3.5-7.4 4-1.9-3.5c-2.2.7-4.6 1.1-7 1.1v-6c7.3 0 14.1-4.7 16.3-12.1 2.7-9-2.3-18.6-11.4-21.3-1.7-.5-3.3-.7-5-.7v-6.2h.1zm-14.5 5.1l-1.9-3.5 7.4-4 1.9 3.5c2.2-.7 4.6-1.1 7-1.1v6c-7.3 0-14.1 4.7-16.3 12.1-2.7 9 2.3 18.6 11.4 21.3 1.7.5 3.3.7 5 .7v6c-.9 0-1.7 0-2.6-.1l-1.2 3.8-8.1-2.3 1.2-3.8c-2.9-1.5-5.4-3.6-7.4-6.1L60.4 78l-4-7.4 3.5-1.9c-1-3-1.3-6.3-.9-9.6l-3.8-1.2 2.5-8.1 3.8 1.2c1.5-2.9 3.5-5.4 6-7.4z"/><path transform="rotate(-55.766 50.034 39.977)" class="st3" d="M42.5 7.2h15.1v65.5H42.5z"/><path transform="rotate(-55.764 49.982 39.907)" class="st4" d="M45.4 10.1h9.2v59.6h-9.2z"/><path class="st3" d="M10.7 1.6C16.3-.9 23-.6 28.5 3.1c8.3 5.7 10.5 17 4.8 25.3S16.3 38.9 8 33.2c-5.4-3.7-8.2-9.8-8-16L8.5 23l4.5 3.1 4.9-2.4 4.9-2.4.4-5.5.4-5.5-4.5-3.1-8.4-5.6zM100 62.4c.3-6.1-2.5-12.3-8-16-8.3-5.7-19.7-3.5-25.3 4.8-5.7 8.3-3.5 19.7 4.8 25.3 5.4 3.7 12.2 4.1 17.8 1.5l-8.5-5.8-4.5-3.1.4-5.5.4-5.5 4.9-2.4 4.9-2.4 4.5 3.1 8.6 6z"/><path class="st4" d="M96.1 56.2c-1.1-2.9-3.1-5.5-5.8-7.4-7-4.8-16.5-2.9-21.2 4-4.8 7-2.9 16.5 4 21.2 2.7 1.8 5.8 2.7 9 2.6l-9-6.1 1.1-14.3L87.1 50l9 6.2zM3.7 23.5c1.1 2.9 3.1 5.5 5.8 7.4 7 4.8 16.5 2.9 21.2-4 4.8-7 2.9-16.5-4-21.2-2.7-1.8-5.8-2.7-9-2.6l9 6.1-1.1 14.3-12.9 6.2-9-6.2z"/><path d="M117.7 67.9l-2.1-5 10.5-4.5 2.1 5c3.4-.8 7-1 10.6-.6v8.3c-10.5-1.7-21.2 4-25.3 14.3-2.4 6.1-2.1 12.5.4 18.1H99.6l-.2-.4 5-2.1c-1-4.2-1-8.6-.2-13l-5-2 4.2-10.6 5 2c2.6-4 5.8-7.1 9.3-9.5zm-90.6 9.5v-4.5l5.6-3 1.9 3.5c3-1 6.3-1.3 9.6-.9l1.2-3.8 8.1 2.5-1.2 3.8c2.9 1.5 5.4 3.6 7.4 6.1l3.5-1.9 4 7.4-3.5 1.9c1 3 1.3 6.3.9 9.6l3.8 1.2-1.3 4.2H56.7c.5-.9.9-2 1.2-3 2.7-9-2.3-18.6-11.4-21.3-7.5-2.3-15.4.9-19.4 7.3v-9.1z" fill="#d6fffa"/><path d="M109.5 61.4c2.4 0 4.8.5 7.2 1.5l1.7-2.6 5.5 3.7-1.7 2.6c1.9 1.8 3.3 3.9 4.2 6.3l3.1-.6 1.3 6.5-3.1.6c0 2.5-.4 5-1.5 7.4l2.6 1.7-3.7 5.5-2.6-1.7c-1.8 1.9-3.9 3.3-6.3 4.2l.6 3.1-6.5 1.3-.6-3.1h-.2V93c4.3 0 8.6-2.1 11.1-6 4.1-6.2 2.5-14.5-3.7-18.6-2.3-1.5-4.9-2.3-7.4-2.3v-4.7zm-6.7 1.3l-.6-3.1 6.5-1.3.6 3.1h.2v4.7c-4.3 0-8.6 2.1-11.1 6-4.1 6.2-2.5 14.5 3.7 18.6 2.3 1.5 4.9 2.3 7.4 2.3v4.7c-2.4 0-4.9-.5-7.2-1.5l-1.7 2.6-5.5-3.7 1.7-2.6c-1.9-1.8-3.3-3.9-4.2-6.3l-3.1.6-1.3-6.5 3.1-.6c0-2.5.4-5 1.5-7.4l-2.6-1.7 3.7-5.5 2.6 1.7c1.8-1.8 3.9-3.2 6.3-4.1z" fill="#fc6e4b"/></svg>