<svg xmlns="http://www.w3.org/2000/svg" viewBox="0 0 184.26 155.57"><defs><style>.cls-2{fill:#2f925c}.cls-3{fill:#4eb880}.cls-4,.cls-6{fill:#fedd01;font-family:Bitter-Regular,Bitter Regular;font-size:6.45px}.cls-10{fill:#f8c3aa}.cls-11{fill:#2d2725}.cls-13{fill:#d83b45}.cls-14{fill:#dfdfdf}.cls-15{fill:#31333a}</style></defs><g id="Шар_2" data-name="Шар 2"><g id="Objects"><path fill="#e34856" d="M184.26 20.9l-6.04 3.47 1.49 1.1-20.88 30.25-23.12-8.71-30.77 29.51-13.2-9.41-36.64 23.5-19.16-9.77L0 111.67l1.77 2.06 34.56-29.64 18.93 9.64 36.4-23.34 13.53 9.65 31.17-29.88 23.5 8.85 22.04-31.93 1.45 1.08.91-7.26z"/><path class="cls-2" transform="rotate(74.3 52.33 97.9)" d="M40.15 91.52h24.14v11.75H40.15z"/><path class="cls-3" d="M56.68 106.84a1.94 1.94 0 0 1 1.5-2.27 3 3 0 0 1 .58-.09L54.15 88a2.27 2.27 0 0 1-.53.22A1.93 1.93 0 0 1 51.16 87a.9.9 0 0 1 0-.16l-3.43 1 .06.16a1.93 1.93 0 0 1-1.5 2.26 2.41 2.41 0 0 1-.58.09l4.61 16.53a2.27 2.27 0 0 1 .53-.22 1.94 1.94 0 0 1 2.46 1.16 1 1 0 0 1 0 .17l3.43-1z"/><path class="cls-2" d="M53.41 100.51a3.32 3.32 0 1 1 2.3-4.09 3.32 3.32 0 0 1-2.3 4.09z"/><text class="cls-4" transform="rotate(74.44 -38.326 81.077)">$</text><path class="cls-2" d="M50.82 92.35a1.6 1.6 0 1 1 1.11-2 1.6 1.6 0 0 1-1.11 2zm3.66 13.18a1.6 1.6 0 1 1 1.12-2 1.6 1.6 0 0 1-1.12 2z"/><path class="cls-2" transform="matrix(-1 .09 -.09 -1 162.92 199.23)" d="M64.98 97.35h24.14v11.75H64.98z"/><path class="cls-3" d="M67 105.89a1.93 1.93 0 0 1 2 1.89 2.24 2.24 0 0 1 0 .58l17-1.52a2 2 0 0 1-.13-.56 2 2 0 0 1 1.6-2.21h.16l-.31-3.54h-.17a1.92 1.92 0 0 1-2-1.88 2.22 2.22 0 0 1 0-.58L68.11 99.6a2.14 2.14 0 0 1 .12.57 1.92 1.92 0 0 1-1.59 2.2h-.16l.31 3.54z"/><path class="cls-2" d="M73.77 103.82a3.32 3.32 0 1 1 3.6 3 3.32 3.32 0 0 1-3.6-3z"/><text class="cls-4" transform="rotate(174.93 37.023 52.378)">$</text><path class="cls-2" d="M82.26 102.76a1.6 1.6 0 1 1 3.19-.28 1.6 1.6 0 0 1-3.19.28zM68.64 104a1.61 1.61 0 0 1 1.46-1.74 1.6 1.6 0 1 1-1.46 1.74z"/><path class="cls-2" transform="rotate(174.94 63.7 112.924)" d="M51.63 107.05h24.14v11.75H51.63z"/><path class="cls-3" d="M53.6 115.59a1.94 1.94 0 0 1 2 1.89 2.22 2.22 0 0 1 0 .58l17.1-1.51a2.15 2.15 0 0 1-.13-.57 1.93 1.93 0 0 1 1.59-2.2h.17l-.33-3.55h-.17a1.93 1.93 0 0 1-2-1.89 2.22 2.22 0 0 1 0-.58l-17.1 1.51a2.14 2.14 0 0 1 .12.57 1.92 1.92 0 0 1-1.59 2.2h-.16l.31 3.54z"/><path class="cls-2" d="M60.42 113.53a3.32 3.32 0 1 1 3.6 3 3.32 3.32 0 0 1-3.6-3z"/><text class="cls-4" transform="rotate(174.93 30.133 56.933)">$</text><path class="cls-2" d="M68.91 112.46a1.6 1.6 0 1 1 1.74 1.46 1.6 1.6 0 0 1-1.74-1.46zm-13.62 1.21a1.6 1.6 0 1 1 1.71 1.46 1.6 1.6 0 0 1-1.71-1.46z"/><path class="cls-2" transform="rotate(106.81 65.38 96.173)" d="M53.31 90.3h24.14v11.75H53.31z"/><path class="cls-3" d="M64.09 106.53a1.94 1.94 0 0 1 2.48-1.11 2.32 2.32 0 0 1 .53.24l5-16.43a2.28 2.28 0 0 1-.57-.1 1.94 1.94 0 0 1-1.53-2.3l.06-.15-3.4-1a.94.94 0 0 1 0 .16 1.93 1.93 0 0 1-2.48 1.11 2.83 2.83 0 0 1-.53-.23l-5 16.43a2.93 2.93 0 0 1 .57.09 1.94 1.94 0 0 1 1.45 2.3l-.06.16 3.4 1a.33.33 0 0 0 .08-.17z"/><path class="cls-2" d="M64.71 99.44a3.32 3.32 0 1 1 4.14-2.22 3.32 3.32 0 0 1-4.14 2.22z"/><text class="cls-4" transform="rotate(106.81 -2.84 70.86)">$</text><path class="cls-2" d="M66.89 91.16a1.6 1.6 0 0 1-1.07-2 1.6 1.6 0 0 1 3.07.93 1.6 1.6 0 0 1-2 1.07zm-3.95 13.09a1.6 1.6 0 1 1 2-1.07 1.6 1.6 0 0 1-2 1.07z"/><path class="cls-2" transform="rotate(-133.06 42.314 108.65)" d="M30.24 102.78h24.14v11.75H30.24z"/><path class="cls-3" d="M34 102.34a2.11 2.11 0 0 1-.76 3L45 117.93a3.16 3.16 0 0 1 .37-.45 1.94 1.94 0 0 1 2.72-.1l.11.13 2.59-2.43-.12-.11a1.94 1.94 0 0 1 .29-2.71 2.25 2.25 0 0 1 .47-.34L39.67 99.38a2.6 2.6 0 0 1-.37.45 1.94 1.94 0 0 1-2.72.1l-.11-.13-2.59 2.43z"/><path class="cls-2" d="M39.82 106.44a3.32 3.32 0 1 1-.16 4.69 3.33 3.33 0 0 1 .16-4.69z"/><text class="cls-4" transform="rotate(-133.06 45.97 44.613)">$</text><path class="cls-2" d="M45.89 112.48a1.6 1.6 0 1 1-.08 2.26 1.6 1.6 0 0 1 .08-2.26zm-9.34-9.99a1.6 1.6 0 1 1-.07 2.26 1.61 1.61 0 0 1 .07-2.26z"/><path class="cls-2" transform="rotate(118.66 122.197 99.712)" d="M110.12 93.85h24.14v11.75h-24.14z"/><path class="cls-3" d="M115.71 107.9a1.92 1.92 0 0 0-.95-2.54 2.27 2.27 0 0 0-.54-.22l8.23-15.06a2.69 2.69 0 0 0 .47.34 1.93 1.93 0 0 0 2.66-.58 1 1 0 0 0 .07-.15l3.12 1.71-.09.14a1.92 1.92 0 0 0 .95 2.54 2.45 2.45 0 0 0 .54.22l-8.23 15.06a2.69 2.69 0 0 0-.47-.34 1.94 1.94 0 0 0-2.66.58l-.07.15-3.12-1.75z"/><path class="cls-2" d="M120.33 102.48A3.32 3.32 0 1 0 119 98a3.32 3.32 0 0 0 1.33 4.48z"/><text transform="matrix(-.48 .88 .88 .48 124.63 99.14)" font-size="6.45" fill="#fedd01" font-family="Bitter-Regular,Bitter Regular">$</text><path class="cls-2" d="M124.71 95.13a1.6 1.6 0 1 0-.64-2.18 1.6 1.6 0 0 0 .64 2.18zm-6.56 12a1.61 1.61 0 1 0-.64-2.18 1.6 1.6 0 0 0 .64 2.18z"/><path class="cls-2" transform="rotate(18.16 96.702 99.763)" d="M84.62 93.89h24.14v11.75H84.62z"/><path class="cls-3" d="M105.92 104.66a1.93 1.93 0 0 0-2.33 1.39 2.3 2.3 0 0 0-.11.57l-16.31-5.35a2.78 2.78 0 0 0 .25-.52 1.94 1.94 0 0 0-1.06-2.51h-.16l1.11-3.38.16.07a1.94 1.94 0 0 0 2.33-1.4 2.87 2.87 0 0 0 .11-.57l16.31 5.35a2.27 2.27 0 0 0-.25.52 1.94 1.94 0 0 0 1 2.51h.16l-1.1 3.38z"/><path class="cls-2" d="M99.75 101.1a3.32 3.32 0 1 0-4.19 2.12 3.32 3.32 0 0 0 4.19-2.12z"/><text class="cls-6" transform="matrix(.95 .31 .31 -.95 95.58 97.55)">$</text><path class="cls-2" d="M91.72 98.14a1.6 1.6 0 1 0-2 1 1.59 1.59 0 0 0 2-1zm12.99 4.26a1.6 1.6 0 1 0-2 1 1.59 1.59 0 0 0 2-1z"/><path class="cls-2" transform="rotate(18.16 107.52 112.248)" d="M95.43 106.37h24.14v11.75H95.43z"/><path class="cls-3" d="M116.73 117.13a2.11 2.11 0 0 0-2.44 2L98 113.75a2 2 0 0 0 .25-.53 1.92 1.92 0 0 0-1-2.5h-.16l1.11-3.37.15.06a2.11 2.11 0 0 0 2.44-2l16.21 5.33a2.32 2.32 0 0 0-.24.53 1.91 1.91 0 0 0 1 2.5h.16l-1.11 3.37z"/><path class="cls-2" d="M110.56 113.57a3.32 3.32 0 1 0-4.19 2.12 3.31 3.31 0 0 0 4.19-2.12z"/><text class="cls-6" transform="matrix(.95 .31 .31 -.95 106.39 110.02)">$</text><path class="cls-2" d="M102.53 110.62a1.6 1.6 0 1 0-3-1 1.6 1.6 0 0 0 1 2 1.62 1.62 0 0 0 2-1zm12.99 4.26a1.6 1.6 0 1 0-2 1 1.62 1.62 0 0 0 2-1z"/><path class="cls-2" transform="rotate(86.28 109.659 95.547)" d="M97.59 89.67h24.14v11.75H97.59z"/><path class="cls-3" d="M108.56 105.93a1.92 1.92 0 0 0-2.16-1.64 2.13 2.13 0 0 0-.57.11l-1.11-17.13a2.14 2.14 0 0 0 .57 0 1.93 1.93 0 0 0 1.94-1.91v-.16l3.54-.23v.16a1.94 1.94 0 0 0 2.17 1.65 2.62 2.62 0 0 0 .57-.11l1.11 17.13a2.21 2.21 0 0 0-.58 0 1.94 1.94 0 0 0-1.93 1.91 1 1 0 0 0 0 .17l-3.54.23a1 1 0 0 0-.01-.18z"/><path class="cls-2" d="M109.57 98.88a3.32 3.32 0 1 0-3.53-3.1 3.31 3.31 0 0 0 3.53 3.1z"/><text transform="matrix(.06 1 1 -.06 111.41 93.86)" font-size="6.45" fill="#fedd01" font-family="Bitter-Regular,Bitter Regular">$</text><path class="cls-2" d="M109.32 90.32a1.6 1.6 0 1 0-1.7-1.49 1.61 1.61 0 0 0 1.7 1.49zm.89 13.68a1.6 1.6 0 1 0-1.71-1.5 1.6 1.6 0 0 0 1.71 1.5z"/><path class="cls-2" transform="rotate(-33.85 129.308 112.936)" d="M117.22 107.05h24.14v11.75h-24.14z"/><path class="cls-3" d="M138.83 108.66a1.93 1.93 0 0 0-.34 2.7 2.32 2.32 0 0 0 .38.44l-14.26 9.56a2 2 0 0 0-.26-.52 1.93 1.93 0 0 0-2.62-.71l-.13.1-2-3 .14-.09a1.92 1.92 0 0 0 .34-2.69 2 2 0 0 0-.38-.44l14.3-9.51a2.73 2.73 0 0 0 .26.51 1.93 1.93 0 0 0 2.63.72l.13-.1 2 3z"/><path class="cls-2" d="M132.22 111.34a3.32 3.32 0 1 0-.9 4.6 3.31 3.31 0 0 0 .9-4.6z"/><text transform="scale(1 -1) rotate(34 246.906 151.228)" font-size="6.45" fill="#fedd01" font-family="Bitter-Regular,Bitter Regular">$</text><path class="cls-2" d="M125 115.84a1.6 1.6 0 1 0-.44 2.23 1.61 1.61 0 0 0 .44-2.23zm11.3-7.61a1.6 1.6 0 1 0-.44 2.22 1.6 1.6 0 0 0 .44-2.22z"/><path d="M89.26 48.64l-8.6-.06-.07 11.47c0 1.29 3.83 2.37 8.58 2.4s8.61-1 8.62-2.29l.07-11.46z" fill="#e9ae97"/><path class="cls-10" d="M87.06 54.84a9.68 9.68 0 0 0 2.16.27 9.82 9.82 0 0 0 2.17-.24c3.23-1 9.77-10.57 9.77-10.54a23.75 23.75 0 0 0 1.08-7c.06-9.86-5.66-17.88-12.78-17.93s-13 7.9-13 17.76a23.55 23.55 0 0 0 1 7s6.38 9.68 9.6 10.68z"/><path class="cls-10" d="M77.56 36.07c.33 1.76 0 3.34-.82 3.53s-1.68-1.1-2-2.86 0-3.34.82-3.53 1.68 1.09 2 2.86zm23.57.15c-.35 1.76 0 3.35.78 3.54s1.69-1.07 2-2.83 0-3.34-.77-3.54-1.66 1.07-2.01 2.83z"/><path class="cls-11" d="M89.46 18.3c-7.56-.05-13.73 6.41-13.78 14.43v.46c.09 0 .95.21 1 2.28v1.72l1.12.67s.2-7.86 5.74-8.08h11.7c5.52.28 5.61 8.14 5.61 8.14l1.13-.65v-1.71c.08-2.07.94-2.25 1-2.27s0-.31 0-.46c.13-7.94-5.98-14.48-13.52-14.53z"/><path class="cls-11" d="M79 28.48s11.28 7.52 21.46 3.81c0 0 .47-5.46-4.78-6.29S79 28.48 79 28.48z"/><path fill="#ededed" d="M78.91 55.04l-.18 27.29 20.63.14.18-27.29-10.35 3.96-10.28-4.1z"/><path class="cls-13" d="M89.19 60.1l-3.16 16.73L89.04 83l3.09-6.13-2.94-16.77z"/><path class="cls-13" d="M89.19 59.14l-3.96 1.68 3.93 4.13 3.61-4.08-3.58-1.73z"/><path class="cls-14" d="M89.19 59.14l-10.28-4.1-3.39 2.33 4.28 8.09 9.39-6.32z"/><path class="cls-14" d="M89.19 59.14l10.35-3.96 3.35 2.37-4.37 7.61-9.33-6.02z"/><path class="cls-15" d="M69 117.5l39.63.28 2.57-32.44v1.51l2.33-27.52a7.13 7.13 0 0 0-.82-.24l-9.85-1.51-13.72 9.74-13.62-9.95L66 58.69z"/><path class="cls-10" d="M57.42 9c0 5-2.24 9-4.94 9s-4.87-4.06-4.83-9 2.24-9 4.94-9 4.87 4.06 4.83 9zm75.17.59c0 5-2.34 9-5.15 9s-5.07-4.06-5-9 2.34-9 5.15-9 5.03 4.02 5 9z"/><path class="cls-15" d="M104.64 58.55l13.66-17.7 4.17-29.78 10.11.07-4.92 34.1-15.5 30.68-7.52-17.37zm-29.69-.19L61.52 40.48l-3.77-29.83-10.11-.07 4.47 34.16 14.76 30.88 8.08-17.26z"/><path d="M39.95 155.57v-38.05H16.52l10.89 19.02-10.89 19.03h23.43zm121.8-38.05h-23.43v38.05h23.43l-10.89-19.03 10.89-19.02z" fill="#ce4253"/><path fill="#df4654" d="M30.38 112.24h117.5v38.05H30.38z"/><path d="M30.38 150.29l9.57 5.28v-5.28h-9.57zm117.51 0l-9.57 5.28v-5.28h9.57z" fill="#af3e56"/><text transform="translate(48.45 136.54)" font-size="15.68" fill="#f2f1f1" font-family="OpenSans-Bold,Open Sans" font-weight="700" letter-spacing=".34em">FINISH</text></g></g></svg>