<svg xmlns="http://www.w3.org/2000/svg" viewBox="0 0 146.6 97.9"><defs><style>.cls-2{fill:#8d8c8c}.cls-3{fill:#34b2e4}.cls-4{fill:#566e6f}.cls-5{fill:#fcaf38}</style></defs><g id="Шар_2" data-name="Шар 2"><g id="Objects"><path transform="rotate(-13.34 43.644 48.921)" fill="#efe3bf" d="M8.75 6.92h69.79v84.07H8.75z"/><path class="cls-2" transform="rotate(-13.34 35.374 14.018)" d="M4.71 12.26h61.33v3.57H4.71z"/><path class="cls-2" transform="rotate(-13.33 36.962 20.714)" d="M6.29 20.18h61.33v1.09H6.29z"/><path class="cls-2" transform="rotate(-13.34 37.745 24.134)" d="M7.11 23.61h61.33v1.09H7.11z"/><path class="cls-2" transform="rotate(-13.33 29.575 29.74)" d="M8.17 29.17H51v1.09H8.17z"/><path class="cls-2" transform="rotate(-13.33 30.388 33.175)" d="M8.98 32.6h42.83v1.09H8.98z"/><path class="cls-2" transform="rotate(-13.33 40.214 34.453)" d="M9.55 33.9h61.33v1.09H9.55z"/><path class="cls-2" transform="rotate(-13.33 29.7 40.554)" d="M10.67 40.01h38.07v1.09H10.67z"/><path class="cls-2" transform="rotate(-13.33 48.211 68.09)" d="M17.51 67.51h61.33v1.09H17.51z"/><path class="cls-2" transform="rotate(-13.34 52.346 85.695)" d="M21.7 85.44h61.33v.58H21.7z"/><path class="cls-2" transform="rotate(-13.34 31.25 47.429)" d="M12.3 46.89h37.89v1.09H12.3z"/><path class="cls-2" transform="rotate(-13.34 32.062 50.86)" d="M13.11 50.32H51v1.09H13.11z"/><path class="cls-2" transform="rotate(-13.33 32.904 54.33)" d="M13.93 53.75h37.89v1.09H13.93z"/><path class="cls-2" d="M52.24 53.88l-36.86 8.74-.26-1.06 36.87-8.74.25 1.06z"/><path class="cls-2" transform="rotate(-13.34 45.871 58.414)" d="M15.24 57.9h61.33v1.09H15.24z"/><path class="cls-2" transform="rotate(-13.34 46.684 61.846)" d="M16.05 61.33h61.33v1.09H16.05z"/><path class="cls-3" d="M30.28 82a4.13 4.13 0 1 0 5 3.06 4.13 4.13 0 0 0-5-3.06zM32 89.4a3.44 3.44 0 1 1 2.56-4.14A3.44 3.44 0 0 1 32 89.4z"/><path class="cls-3" d="M33.8 85.45a2.64 2.64 0 1 1-3.18-2 2.63 2.63 0 0 1 3.18 2z"/><path class="cls-3" d="M38.12 85.65l-1.06-.31a2.51 2.51 0 0 0 0-.27l.93-.61-1.1-.12-.09-.26.81-.76-1.1.07-.13-.25.66-.88-1.08.26-.17-.22.5-1-1 .44c-.07-.06-.14-.13-.21-.18l.32-1.06-.92.61-.28-.11.13-1.09-.8.76-.26-.1-.06-1.11-.65.89-.27-.06L32 79.2l-.49 1h-.28l-.43-1-.31 1.06h-.28l-.6-.92-.12 1.1-.27.08-.75-.8.07 1.1-.25.13-.88-.66.26 1.07-.22.17-1-.5.44 1a1.8 1.8 0 0 0-.19.2l-1.05-.32.61.92-.15.24-1.05-.07.77.8a2.72 2.72 0 0 0-.11.25l-1.1.07.89.65-.06.27-1.07.25 1 .5a2.44 2.44 0 0 0 0 .27l-1 .44 1.06.31v.27l-.92.61 1.09.12.09.26-.8.76 1.1-.07c0 .08.08.16.13.24l-.66.89 1.07-.26.17.21-.5 1 1-.44.2.18-.32 1.06L28 91l.24.14-.13 1.1.8-.76.25.1.06 1.11.66-.89h.27l.25 1.08.49-1h.28l.43 1 .32-1h.27l.61.93.12-1.1.26-.08.76.8-.07-1.1.24-.13.89.66-.26-1.07.21-.17 1 .49-.44-1 .18-.21 1.06.32-.61-.92a1.76 1.76 0 0 0 .16-.3l1.1.13-.76-.8a2 2 0 0 0 .1-.26l1.1-.06-.84-.63a2.56 2.56 0 0 0 0-.27l1.08-.26-1-.49v-.27zm-5.74 5.23a5 5 0 1 1 3.68-6 5 5 0 0 1-3.68 6z"/><path class="cls-3" d="M30.32 81.57a.15.15 0 0 1-.11.18.14.14 0 0 1-.17-.11.15.15 0 0 1 .1-.18.16.16 0 0 1 .18.11zm-.77.23a.14.14 0 0 1-.07.19.14.14 0 0 1-.19-.08.15.15 0 0 1 .07-.19.14.14 0 0 1 .19.08zm-.71.35a.15.15 0 0 1 0 .21.15.15 0 0 1-.2 0 .15.15 0 0 1 0-.21.15.15 0 0 1 .2 0zm-.64.48a.15.15 0 0 1 0 .21.14.14 0 0 1-.2 0 .15.15 0 1 1 .21-.2zm-.55.58a.14.14 0 1 1-.2 0 .13.13 0 0 1 .2 0zm-.44.66a.16.16 0 0 1 .07.2.15.15 0 0 1-.2.06.14.14 0 0 1-.06-.19.15.15 0 0 1 .19-.07zm-.32.73a.15.15 0 0 1 .1.19.14.14 0 0 1-.18.09.14.14 0 0 1-.1-.18.15.15 0 0 1 .18-.1zm-.18.78a.15.15 0 0 1 .13.16.16.16 0 0 1-.17.13.14.14 0 0 1-.12-.16.15.15 0 0 1 .16-.13zm-.05.79a.15.15 0 0 1 .15.14.13.13 0 0 1-.13.15.15.15 0 0 1-.16-.13.16.16 0 0 1 .14-.16zm.09.83a.15.15 0 0 1 .18.1.16.16 0 0 1-.11.18.15.15 0 0 1-.18-.11.14.14 0 0 1 .11-.17zm.25.73a.15.15 0 1 1-.08.19.14.14 0 0 1 .08-.19zm.33.72a.14.14 0 0 1 .2 0 .14.14 0 0 1 0 .2.16.16 0 0 1-.2 0 .14.14 0 0 1 0-.2zm.48.64a.13.13 0 0 1 .2 0 .14.14 0 0 1 0 .21.15.15 0 0 1-.21 0 .14.14 0 0 1 .01-.21zm.58.54a.15.15 0 0 1 .2 0 .16.16 0 0 1 0 .21.14.14 0 0 1-.2 0 .15.15 0 0 1 0-.21zm.66.44a.15.15 0 1 1 .26.14.14.14 0 0 1-.19.06.14.14 0 0 1-.07-.2zm.73.32a.15.15 0 0 1 .18-.1.15.15 0 0 1 .1.19.14.14 0 0 1-.18.09.14.14 0 0 1-.1-.18zm.78.19a.15.15 0 0 1 .29 0 .16.16 0 0 1-.17.13.15.15 0 0 1-.12-.13zm.79.05a.16.16 0 0 1 .14-.16.15.15 0 0 1 .15.14.13.13 0 0 1-.13.15.15.15 0 0 1-.16-.13zm.79-.09a.16.16 0 0 1 .11-.18.15.15 0 0 1 .18.11.13.13 0 0 1-.11.17.15.15 0 0 1-.18-.1zm.77-.23a.14.14 0 0 1 .08-.19.14.14 0 1 1 .11.26.14.14 0 0 1-.19-.07zm.71-.31a.15.15 0 0 1 .05-.2.16.16 0 0 1 .2 0 .15.15 0 0 1 0 .2.14.14 0 0 1-.25 0zm.64-.52a.15.15 0 1 1 .21 0 .15.15 0 0 1-.21 0zm.55-.58a.14.14 0 0 1 0-.2.15.15 0 0 1 .21 0 .15.15 0 0 1 0 .2.15.15 0 0 1-.21 0zm.44-.66a.15.15 0 0 1-.06-.2.14.14 0 0 1 .19-.06.13.13 0 0 1 .07.19.16.16 0 0 1-.2.07zm.32-.74a.14.14 0 0 1-.1-.18.15.15 0 0 1 .18-.09.14.14 0 0 1 .1.18.14.14 0 0 1-.18.09zm.19-.77a.15.15 0 1 1 .16-.13.15.15 0 0 1-.16.13zm.04-.8a.14.14 0 0 1-.15-.13.16.16 0 0 1 .14-.16.15.15 0 0 1 .15.14.13.13 0 0 1-.14.15zm-.09-.79a.14.14 0 0 1-.17-.11.14.14 0 0 1 .11-.17.15.15 0 0 1 .17.1.15.15 0 0 1-.11.18zm-.22-.76a.15.15 0 0 1-.19-.08.14.14 0 0 1 .07-.19.14.14 0 0 1 .19.07.15.15 0 0 1-.07.2zm-.36-.72a.14.14 0 0 1-.2 0 .14.14 0 1 1 .24-.16.14.14 0 0 1-.04.16zm-.47-.66a.14.14 0 0 1-.21 0 .15.15 0 0 1 0-.21.14.14 0 0 1 .2 0 .13.13 0 0 1 .01.21zm-.58-.53a.14.14 0 0 1-.2 0 .15.15 0 0 1 0-.2.16.16 0 0 1 .21 0 .14.14 0 0 1-.01.2zm-.66-.47a.15.15 0 0 1-.2.07.16.16 0 0 1-.07-.2.15.15 0 0 1 .2-.06.15.15 0 0 1 .07.19zm-.74-.29a.14.14 0 0 1-.18.1.14.14 0 0 1-.1-.18.17.17 0 0 1 .19-.1.15.15 0 0 1 .09.18zm-.77-.18a.15.15 0 1 1-.13-.16.15.15 0 0 1 .13.16zm-.8-.05a.14.14 0 0 1-.13.15.14.14 0 0 1-.16-.13.16.16 0 0 1 .14-.16.15.15 0 0 1 .15.14zm44.89-.7a5.79 5.79 0 0 1-5.19-1.11c-.15-.12-.32.09-.25.23l.13.27a21.11 21.11 0 0 1-2.88-2.54 12.82 12.82 0 0 0-2.3-2.57.17.17 0 0 0-.25.24c.7.82 1.4 1.63 2.14 2.41a3.49 3.49 0 0 1 .33 3.92 2.07 2.07 0 0 1-2.59.87 1.59 1.59 0 0 0-1.17-2.44.17.17 0 0 0-.18.12 2.33 2.33 0 0 0 .8 2.42l-.16.12c-.19.12 0 .43.17.31a2.47 2.47 0 0 0 .29-.24 2.38 2.38 0 0 0 2.65-.41 3.3 3.3 0 0 0 .86-3.31 4.5 4.5 0 0 0-.14-.49A18.56 18.56 0 0 0 71 80.85c.15.1.32-.08.25-.24l-.13-.25a6.12 6.12 0 0 0 4.92.76.18.18 0 0 0-.04-.34zM64.52 82.1a2 2 0 0 1-.52-1.44l.44-.06a1.22 1.22 0 0 1 .56.79 1.07 1.07 0 0 1-.21.94 2 2 0 0 1-.27-.23z"/><path class="cls-3" d="M83.82 77.94c-3.34 1.65-6.52-.32-9-2.62a13.79 13.79 0 0 0-1.43-1.43c-.17-.14-.42.08-.26.25.43.45.89.92 1.38 1.37a11.37 11.37 0 0 1 1 1.35 4.14 4.14 0 0 1 .8 1.85c.07.78-.56.88-1.07.83a1 1 0 0 0 0-1.16c-.5-.83-2 .17-1.31.91a1.86 1.86 0 0 0 .41.33c-.13.14-.34.08-.64-.18-.19-.11-.38.19-.18.3a1.47 1.47 0 0 0 1.33.09 1.31 1.31 0 0 0 1.81-1.11 3.8 3.8 0 0 0-.89-2.11c2.38 1.87 5.23 3.1 8.2 1.64.23-.1.03-.41-.15-.31z"/><path class="cls-4" d="M139.31 59.25h1.45a3.47 3.47 0 0 1 3.47 3.47v4.81a3.48 3.48 0 0 1-3.47 3.47h-1.45a3.47 3.47 0 0 1-3.47-3.47v-4.81a3.47 3.47 0 0 1 3.47-3.47z" transform="rotate(-76.81 140.03 65.125)"/><path class="cls-5" d="M71.06 47.34l-2.23 1 6.85.94a2 2 0 0 1 1.53-.28c1 .22 1.59 1 1.42 1.65s-1 1.06-2 .84a2.06 2.06 0 0 1-1.24-.81l-6.61-2.18 1.58 1.82c2.2.52 6.1 3.71 6.1 3.71l6.73-.69.35-1.49.35-1.49-5.72-3.62s-4.91 1.12-7.11.6z"/><path class="cls-4" transform="rotate(-76.76 112.446 58.58)" d="M108.17 29.98h8.54v57.21h-8.54z"/><path transform="rotate(-76.76 112.957 56.365)" fill="#518780" d="M111.1 27.76h3.73v57.21h-3.73z"/><path transform="rotate(-76.77 83.532 51.851)" fill="#5d5c54" d="M79.33 50.77h8.41v2.16h-8.41z"/><path class="cls-5" d="M118.52 55.19l-2.17 9.25-.86-.21 2.18-9.24.85.2z"/><path class="cls-5" transform="rotate(-76.75 140.28 65.184)" d="M135.52 64.74h9.5v.88h-9.5z"/><path class="cls-5" d="M140.86 64.76h7.08a1.16 1.16 0 0 1 1.16 1.16v.48a1.15 1.15 0 0 1-1.15 1.15h-7.08a1.15 1.15 0 0 1-1.15-1.15v-.48a1.16 1.16 0 0 1 1.16-1.16z" transform="rotate(-76.76 144.396 66.153)"/><path class="cls-5" d="M145 63.75l-.05.24a.57.57 0 0 1-.69.42l-19.16-4.49a.58.58 0 0 1-.43-.69v-.24a.59.59 0 0 1 .7-.43l19.12 4.5a.57.57 0 0 1 .51.69z"/></g></g></svg>