<svg xmlns="http://www.w3.org/2000/svg" viewBox="0 0 788.57 386.68"><defs><style>.cls-2{fill:#c6c6c6;stroke:#fff;stroke-miterlimit:10;stroke-width:.25px}</style></defs><g id="Шар_2" data-name="Шар 2"><g opacity=".4" id="Objects"><path class="cls-2" d="M390.53 151.66c.94-.13.81-4 .45-4.08s-.45.61-1.36 1.16.01 3.04.91 2.92zm-182.09 56.91a3.56 3.56 0 0 1 3 .4l.16.08c.78.39 1-.39 2.72-1s4.57.49 4.57-.87-4.66-2.82-5.83-2.43a2.16 2.16 0 0 1-1.19-.07c-1.23-.31-2.76-1.1-3.47-.61-1 .68 1.46 2.14 1.46 3s-3.9-.16-4.27.78c-.16.52 1.41 1.2 2.85.72z"/><path class="cls-2" d="M290.75 260.3c-1 .05-2.82-.19-5.24-2.82a6 6 0 0 0-6.41-2c-1.6.44-3.25-.77-4.32-1s-2.08 1.11-2.86 1.4.39-1.16.44-2.08-2.92-2.24-5.15-3.11-3.2-.44-3.2 1-.87-.43-1.55 1.07-1.95.53-1.12.05a4.91 4.91 0 0 0 1.89-2.53c.29-.92-3.2-1.65-4.41-1.16s-.44 2.23-1.41 1.7-.19-1.85.58-1.8 1.65-1.55 2.19-2.72-.93-1.35-1.8-2.33-.69-3.76-1.57-4.2c-.92-.38-2.33-2.62-3.74-2.91a12.07 12.07 0 0 1-1.84-.62 4.78 4.78 0 0 0-2.19-.49c-1.16.14-2.37.67-2.81 0s-1.07-.53-1.65 0a.3.3 0 0 1-.22.06c-.6-.06-1.5-1.81-2-1.81a1.11 1.11 0 0 1-1.12-1.31c.15-.83-1.36-.92-2.18-1.85a2 2 0 0 0-.81-.5A8.73 8.73 0 0 0 235 230c-.83.05.53-.92.58-1.8s-2.33-1-3.25-1.21-.68-1.16.29-1.21-.53-.73-1.85-.54a15.34 15.34 0 0 0-4.22 1.51c-1.07.58-2.91-1.7-4.12-1.22s-2.91.49-2.87-.48a1.47 1.47 0 0 0-1.69-1.7c-1.22.1-.93-1.21-1.85-1.21s0 1.11-.63 1.4-2.81.83-3 1.7 1.16 2.33.73 3.21-1.89.14-2.33-.78 1.26-2.33 1-2.86a2.17 2.17 0 0 1-.29-1.52.67.67 0 0 1 .53-.43c1-.19 1.46-.82.54-1.35s-1.46 1-2.48 1.16-1.21.78-1.89 1.12-1.94.05-2 .63-.44 0-1-.15-2.09 1.17-2 1.9.29 1.4-.78 2.08a9.94 9.94 0 0 0-2.18 2.53.37.37 0 0 1-.48.11 5.69 5.69 0 0 1-1.36-1.72c-.78-1.16-2.19-1.06-3.06-1.45s-2 .14-3.11 1.16-2.52.44-3.49-.09a5.72 5.72 0 0 1-1.13-1 29.21 29.21 0 0 1-2.16-2.7 4.55 4.55 0 0 1-.3-.47c-.34-.63.24-1.89.53-2.81s-.24-3.16.29-3.74.25-.92.49-2.28a1.61 1.61 0 0 0 0-.22c0-1.07-1.43-.72-2.43-1.72s-3.4-.58-4.66-.1-2.72-.53-4.07.24h-.05c-.76.41-1 0-.88-.52a2 2 0 0 1 .68-1.11c.88-.68-.43-3.4.59-3.64a1.07 1.07 0 0 0 .48-.28 5.2 5.2 0 0 0 1-3c.15-1.31-.29-1.75.39-2.47s1.41-.78 1.21-1.8-1.11 0-1.89-.48-1.46-.15-3.45.14-2.91 1.12-2.81 2.52-.68.78-.63 2-1.55 1.26-1.46 2-1.26 0-1.65-.24-4.56 1-5.14 1.12-1.65-1.22-2.48-1.17-1.16-1.21-1.26-2.23-1.65-1.94-2.33-2.86-.77-3-.82-4.28a15.08 15.08 0 0 1 .73-6.11 3.09 3.09 0 0 0 .19-.91 1.69 1.69 0 0 0-.91-.34 1.69 1.69 0 0 1 .91.34c.1-1.74-1.68-2-.63-2.83 1.21-.92-.05-1.7.53-2.08s1.6-.78 1.6-1.36.54-.58 1.31-.49 2.24-1.26 2.14-1.79.14-.63 1.07-.44.77-1.07 1.36-.87 1.06.53 1.11.09.63-.34 1.07.25 1.7.73 1.8 0 .82 0 1.45.68.92.48 1.85.53.92-.2 1-.78 1 1.26 1.94 1.36.19-.58-.49-1.11.15-.78-.43-1.22.72-1 1.89-1 1.11.34 1.55-.34.87 0 .87.58 1.9-.34 2.92-.34a2.22 2.22 0 0 1 2 1.46c.1.58.78.87 1.51.24s1.36-1.36 2-.68 1.36 1.6 2.18 2.43-.39 1.84 0 2.47 0 1.51.92 2.19.1 2.09.88 2.28 1.4 1.41 1.5 1.89 1.55 1.12 1.65.29.87-1.79 1-2.57a10.43 10.43 0 0 0-1.21-4.42c-.63-.87.14-1.06-.63-2.08a7.34 7.34 0 0 1-1.22-4.27c0-1.46 1.75-3.84 2.58-4.56s1.74-.34 1.94-1.12 1.21-1.75 1.79-1.75 1.22.15 1.31-.48 1.07-1.41 2.33-1.6.54-.88.2-1.46.29-1.17.53-.78a1.14 1.14 0 0 0 1.5.1c.49-.34 1.61-1.26.54-1.31s-1.31-.49-.68-.73.1-1.4-.78-1.5-.58-.54-.05-1.07-.77-1.41-1.4-1.85.38-.67.87-.77.1-2.33.34-2.86 1.07-.54.73 0-.83 1.4-.2 2.13a2.74 2.74 0 0 1 .59 2.62c-.25 1.12.24.83 1-.63s.82-2.72.34-2.86-.44-1.6.09-.92.73.77 1.56-.1 1.69-2.38 1.16-2.72.24-.68 1.21-.63a6.73 6.73 0 0 0 3.21-.87c.47-.95-3.35.43-3.35-.1s2.42-1.07 3.54-1.12.58-1.55 1.07-.92a1.31 1.31 0 0 0 1.84.15c.63-.39.15-1.51-.58-1.7s.53-.68.29-1.12a2.47 2.47 0 0 1 1.41-2.38c.92-.19.48-.77 1.26-.77s.92-.93 1.6-1.6 1.65 1.06 2.72.09a11.85 11.85 0 0 1 1.64-1.22 5 5 0 0 1 2.29-1c.87.05 2.18-1.12 2.57-1.85s.93.68.15.93.63.82 2 .77-.63.49-1.65.44-1.46.1-2.82 1.46-1 1.74-.24 2.42 1.8.39 2.86-.53 1-1.85 2.09-1.8 3.84-1 5.05-1.36.44-.58.44-1.11 2.13-.54 2.91-1.07-.15-1-.83-.87-.14-1 0-1.51-1.45.24-1.5.88-1.12.87-1.12 1.26c0 1.13-.14.53-.92.92s-3.78 0-3.88-.68-2.28-1-2.38-1.94-1.17-1.21-.29-2.23-.15-1.51-1-.73-1.31-.44-.2-.87 3.21-.88 2.14-2.82-7.76.58-9.46 1.55-3.84 4.08-4.76 4.08 1.6-1.65 2-2.28-.1-1.26.44-1 2-2.09 3-2.86 2.14 0 2.29-.68.63-1.07 1.6-1.94 12.57-.73 13.68-.68 3.3-1.46 3.93-2.43 1.46-1 3-.87 2.28-1.31 3.06-1.85.48-.77-.19-.92-1.31-.58-.64-.63 1-.44 1.31-1.31-.24-.49-1.16-1.7-1.41.39-2.33.29.63-1.26-.14-1.75-2.24-.14-3.4.83-1.07 0-2.09.92-1-.48-.53-.87.82 0 1.26-.54.87 0 2-.72 2.09-.39 2.43-.93-.54-1.26-1.61-1-1.79-1.45-2.47-1-.54-.72-1.31-.24-1.21-.14-1.55-1.07-2.43-2.42-3.69-2.81-.44-1.07.24-.58 1.46-.49 1.75-1-.49-.93-.88-1-.38-.69-.29-1.17-1.36-1.12-1.4-1.6-.88-.83-.83-1.26-.83-1.07-.83-1.65-1.46-1.58-1.46-2.26-.82-1.16-1.12-2-.67-.44-1 .73-1.31 1.11-1 1.5c.6.8.15.83-.29 1.31s.29 1.22-.43 1.22-.39 1.5-.78.82-1.31-.48-1.31.19-1.55 1.32-2.18 1.27-.63-1.36-1.17-1-.44-1.12-1.26-1.07-1.41-.05-1.17-.78-1.4-1.07-.87-1.5-.14-1.22-.24-2.48.73-1.36.73-1.84-.59-.49-1.17-.1-.58-.53-1.21-.48-2.53 0-2.62-.93-.73-.43-1-1.26-1.07-.19-1.07-.77-.34-.83-.92-.88-.78-.68-1.55-.77a4.69 4.69 0 0 0-2.19.72c-.43.2-1.55-.68-2-.34s-.53-.24-1.74-.58-2.82-.44-2.92 0-1.06.58-.92 1.6 1.17.83 1.41 1.51-.49.43-.54 1.06-.67.59-.67 1 .43.34.67 1.22.73.82.88 2-.39.92-.88 1.07.05.72-.63 1.5-1.26 1.6-.72 2.09 2.52 1.31 3.3 2.62a7.8 7.8 0 0 1 .48 4.8c-.24 1.46-1.89 1.8-3.1 3.06a3.84 3.84 0 0 1-3.06 1.12c-.58 0-.24 1.21.58 2.13s.15 1.22.58 2.19 0 1.74.63 2.62.25 1.21-.48 1.84.29.29.34 1.12-.34.34-1-.1-1.22.82-1.22 1.36-1.5-.73-1.84-.68.1-.83-.78-1.51-1.55-.82-1.55-1.5-1.5-1.16-1.5-1.94.19-2.77-.15-3.35a1.77 1.77 0 0 1 .24-1.75c.29-.53-.34-1.36-1.21-1.36a30.36 30.36 0 0 0-3.3-.19 3 3 0 0 1-2.28-.44 8.16 8.16 0 0 0-3-1.45 3.24 3.24 0 0 1-2.33-1.6c-.15-.44-1.65-.78-2-1.22a3.53 3.53 0 0 0-2.38-.58c-.58.1-2-1.21-2.91-1.16a23.53 23.53 0 0 0-3.25 1c-.34 0 0-.73.29-1.07s-.73-1.8-1-2.77-.58-2-1.6-1.89a4.19 4.19 0 0 1-2.43-.58c-.29-.2-.34-3-.1-4.13s1.51-2.91 1.51-3.64.82-1.07 1.55-1.26.15-1.6.88-1.7.77-.39.92-1 1-.19.53-.68-.1-.63 1-.63 2.77-.39 2.52-1.5-3.15-.3-3.15-1.22-3.69-1-3.45-1.5 3.69.39 5 .87a4.77 4.77 0 0 0 2.62.39c1 0 .34-1.36.54-1.89s2.13.82 3.25.53 2.18-2.57 3.11-3.2.09-1.22-1.7-1.07a5 5 0 0 1-3.79-1.23c-1-.73-.87-1.31.15-1.22s3.42 2.11 4.42 2.16 2.52-1.8 3.3-2.38-.73-.82-1.27-1.26.93-.73 1.7-.73 1.12.68 1.41 1 1.65-.24 2.33-.24-.1-1.12-1.21-1.55 0-1.27.38-.59 1.12.54 1.51 1.31c.56 1.14.92.39 1.89 0a4.6 4.6 0 0 0 2-1.5c.53-.58.63.1 1.26-.83s-.29-1.79-1.06-2.38 0-1.16-.73-1.55-.92-1.11.05-.92a2 2 0 0 0 2.18-.78c.44-.68-1.46-.82-.58-1.31s.14-1-.73-1-1.6-.43-1.65-1.16-1.55-.24-2.48-.68a8.79 8.79 0 0 0-3.44-.29c-.49 0-.54 2 .19 2.08s1.31.83.68 1.07.1 1-.39 1-1.26-.29-1.4 1-.25 1.75-1.07 2.19-.2-1.41-1-1.36-.87 1.55-.29 1.7.68.63.82 1.36-1.07.19-1.55 1.06-.53-.39-1.21-1-1.51-1.55-1.46-2.28a1 1 0 0 1 .92-1c.54-.1 0-.58 0-1.45s-.68-.59-1.45-1.51-1.6-.92-2-.48-.15 1.26-.83 1.55-.38 1.65-1 1.74-.24-2.37-.72-2.62-.44-.82.29-.92 1.16-.87.53-.87a7.37 7.37 0 0 1-2.18-.87c-.44-.2-1.17.82-1.65.43s.05-1.36.09-1.89.78.24 1.27-.44S167 60 167 59.29s-1.46-.93-1.94-1.17.34-1.46.09-1.94-2-2.09-2.81-1.94-1-1-.54-1 .78-.24 1.61-1.17.92-1.21.33-1.4-.87-.78.15-.73 2.82.73 3.4.29a43 43 0 0 0 3.15-4.32c.73-1-.53-1.12-2.28-1s-2.13-.68-3.59-.78-4.17.29-4.56.73.73.83.58 1.31-1-.34-1.41-.15.15.83 0 2.53A2.41 2.41 0 0 0 160 51a4.06 4.06 0 0 1 .39 2.52c0 1.07-1 1-1.36 1.26s.87.63.68 1.31-1.22-.39-1.8-.19-1.07 1.84-.43 2.37.87.44.38 1.07-1 1.56.15 2.48 3.3.82 4.42 1.55-.49.29-.05 1.12-.73 1.11-.68 1.74.48.3 1.06-.77 1 .29 1 1.21-.87.39-1.5 1.31a1.75 1.75 0 0 1-2.13.87c-.93-.19-.39 1.32 0 2.14s-.1 1.12-1.17.82-1.7-1-1.16-1.79.92-1.8.29-1.7-2.09 0-2.53-.73.3-.39 1.61-.24.19-.87 1.16-.87 1.7.53 2.52-.2-.53-2.13-1.21-1.89-1.75.53-1.75-.15 1.17-.19 1.8-.34-.34-1-1.31-.77a2.11 2.11 0 0 1-2.43-.54c-.77-.82-2.18-1.31-2.52.59s-1.7.87-2.23 1.5.63 1.07 1.94 1.12 2.28 1.26 1.65 1.26-.34.92-1 .58-1.36 0-.88.58-.19.83-.14 1.41-1 0-2 0a17.92 17.92 0 0 0-4.27.54 4.06 4.06 0 0 1-3.45-.83c-.58-.63-1.35-.53-2.33-.53s-.67-.93-1.94-1-1-1.12-1.11-1.75-2.67-.44-3.59.15-2.72.34-3.21 1.4.44.93 1 .93c.75 0 .68-.88 2-.69s2.33-1.4 2.91-.82-2.33 1.7-3.59 1.89-1 1.22.25 3-.54.78-.54 1.65-2.28-.29-1.36-.58.49-1.21-.24-1.8-1.21 0-1.12-.63-.77 0-1.45-.48-1-1-1.94-.49-2 .34-4 .68-5.78.24-6.46-.44 1.67-1.83 2.38-1.66.29-.78-.83-1.65-3.59-1.41-3.54-.88-1.41 0-3.2-.29-2-1-3.21-1a7.73 7.73 0 0 1-4.27-1.45c-1.35-1.07-4.56-.78-5 .19s-1.45.92-2.52.92.48-1.2.1-1.4 0-1.61-.73-1.7-1.5 3.2-3 3.1-2.09-3.49-3.3-4.36S87 58.7 88 60s-.87.39-.78 1.26-1.65 1.9-1.6 1.41-1-1-2.13.34-2 1.17-2.09.68S77.85 65 78 65.55s-.53 1-1.45 1-.2-.83.53-1.22 3.06-2.23 4.22-2.42 3.4-1.12 3.45-1.65-1.12-.1-1.9-.25-2.13.73-3.44 1.31-2.82.39-2.43 1.17-1.21-.1-1.55.44-1 0-.49-.34-1.16-.83-1.16-.49-.29.78-1.46.78-2.33.82-1.55 1.4 1.26.88.87 1.27-1.6-1-3.3-.88-5.09-1.89-5.09-2.37-2.39-.15-4.05-.33a4.27 4.27 0 0 1-1-.21c-1.41-.53-3.49-1.5-4.61-1.26s-3.35.53-4.12.15a5.49 5.49 0 0 0-3.47-.52c-1.6.24-2.62-.87-4.66-1.36a12.6 12.6 0 0 0-5.58.39c-.68.24-.53-.73-1.41-.63s-.19-.39-.68-1.12-2.91 0-3.78.05-1.12-.44-1.07-.87-.78-.29-1.12.29a1.2 1.2 0 0 1-1.69.29c-.39-.39.82-.53.87-1s-1.26-.68-1.75-.83-1.26.49-2.28 1.41a4.39 4.39 0 0 1-3.44.73c-.93-.1-2.09.1-2 .63s1.16.49.48 1.16-.92-.92-1.6-.19-2.72.68-3.2.58-2.09 1.68-2.6 2.17.38.92-.93 2.33-4.8 1.11-5.56 1.11-.19.83-.58 1.36.44 1 2.43 1.56S9.22 72.34 9.47 73s2.71 0 3.68.1-.09 1.5.73 1.89 2.09-.19 2.33.49-1.65 0-2.62.72-1.45 1.07-1.84.54-2-.2-2.82-.1 0-1 0-1.5-1.11-.83-2.71.09-1 .59-1.22 1.31-.87-.43-1.89.2-2.67 1.07-3 1.7 2.18 1.06 3.15 1.26-1.16.82-.38 1.07.43 1 1.65 1.6 3.93 0 4.65 0 1.41.87 2 .24S14 80.2 15.1 81.22s-1.22.87-.63 1.51 1.31 2.13.24 2.91a3.13 3.13 0 0 1-2.67.19c-.58 0-.24 1.07-1.17 1.8s-1.6-.78-2.76-.78-.92 1.51-.88 2.23-1.74-.14-2.18 1.6-2.28.25-1.05 1.95 1 .63 2 1.31-1.1 1.89-.12 2.06 2 1.94 2.71 2.58 1.56-.35 2.58-.39.53-1.46 1.11-.92 1.41 2.08.87 2.47-.09 1.6-.19 2.18 2.23.39 2.38-.29 2-.87 3 .24 1.36 1.32 1.36.44.87-1.84.92-1.11.87.92 2.38.24.82.05 0 1c-1.08 1.34 0 3.3-.78 3.49s-1.41 2.19-2.67 2.33-3.4 2.53-3.69 2.91-3-.77-3.4.34-2 2-1.6 2.38 2.53-.82 2.62-1.41.39-.48.78 0 1.36-.2 1.8-.59 1.16-.24 1.6-.19.63-.53 1.94-.78 1-.63 1.31-1.31 3.4-2.13 4-2.28.24-1.11.87-1.16a6.32 6.32 0 0 0 2.43-1.51c.82-.68 1-.39 1.65-.63s.14-1.5.77-1.6a1.23 1.23 0 0 0 1.12-1.12c0-.53-1.6-.53-1.75-.87s1.27-1.6 1.8-1.55a1.53 1.53 0 0 0 1.45-1.31c.05-.78.83-.93 1.46-1.6s.49-1.27 1.12-1.32 1.21-.92 1.89-1.31 0 .49 1.31.54 1 1.26 0 .82a1.66 1.66 0 0 0-2.28.44c-.88.83-.2 1.07-.88 2s-.72 1.5.15 1.6 0 .73-.78 1-.24.73.88.73 2.76-1.6 4.32-2.38 2.71 0 3.15-.14-.48-.88 0-1.12-.63-.39-1-1.31.53-.34.73-1.07.73-.44 1.21-.1 1.16-.34 1.6.59.92-.25 1.7.38-.15.54-1 .73-.39 1.31.24.78 1.17-.87 1.75-.34.82.29 1.31-.19.48 0 .48.43 1 .54 2.48.78a23.75 23.75 0 0 0 4.76-.15c.68 0 .43 1 1.94 1.31s1.89-1.5 2.67-.87 0 .87-.44 1.36.48.53 1.07.78a8.36 8.36 0 0 1 2.57 1.26 7.59 7.59 0 0 0 2.57 2.08c1.55.78 0-1.94 1.26-1.06s.78 0 1.75.92.63-.39.19-1.85.44-.48.88.2a3.88 3.88 0 0 1 .14 2.86c-.29.87-1.74.15-1.6-.34s-1.45-.29-1.5.39a2.86 2.86 0 0 0 1.79 2.14c.78.14.2 1.36.68 1.5.67.2.63 1.46 1 1.26s.24-1.69-.19-2.37-.25-1.66.34-1.46 0 1.21.29 1.55.63-.34 1.31-.73-.29-1.5-.05-2.08 1 .48 1.31 1.5-.73 1-.73 1.51-.92.29-1.21.58-.15 2.23.24 2.28.63-1.6.88-.78 1.16-1.06 1.4-.29 1.41 1.65 1.85 1.46-.2-1-.88-1.07-.58-1.16.05-1.21 1.75 1.6 1.7 2.18-.58.53-1.12 1.12-1.26-1-1.89-.92 0 1 .29 1.69-.77 1.6.05 2.14.58-.34.73-.73.78.1 1.21.44.49-.78.49-1.22.73-.19 1.11.39.44-.63 1-.53.2 1 .2 1.55 1-.44.92.15a.64.64 0 0 0 0 .24c0 .43.43.7.92 1.12s-1.07.48-.58.92-.1 1.11.39 1.65a1.42 1.42 0 0 0 1.89-.1c.53-.44.92.54.49 1.26a.59.59 0 0 0 .92.73c.43-.53 1.36.87 1.79 1.12s.88 1 .15 1-.63 1.26-.1 1.31.49.73.49 1.16 1.7 1.07 2.33.88 1.21.38 1.5.92 1.46.92 1.89.58.73.63.83 1.31 1.07.29 1.65.24.92.78 1.31.64c.85-.33 1.11 1.17 1.68 2a1.46 1.46 0 0 0 .21.28c.73.78.15 1.36.39 2.29s0 2.23-.68 2.23a.59.59 0 0 1-.29-1.12c.53-.29.24-1.36-.29-1.36-.31 0-.44-.36-.43-.79a2.19 2.19 0 0 1 .23-.91c.34-.63-.72-.19-1.35-.87s-2.29-.53-2.53-1.17-1.75-2.91-2.57-2.86a4 4 0 0 1-2.86-.63c-1-.73-1.61-.78-2.28-.34s.72.54.67 1 .44.78 1 .68.93 1.12 1.51 1.17.77 1 1.45 1 .83.78 1.17 1.22 1.12 0 1.12.48.77.75 1 1.24a.47.47 0 0 1 0 .17 6.13 6.13 0 0 0 1.39 2.85c.78 1 .24 1.65 1 2s.68.83 0 .73-.19.53-.44 2-.19 4.46-.34 5.39-1.21 2.42-.58 3.39a4.56 4.56 0 0 1 .73 3.55 3.24 3.24 0 0 0 .24 2.86c.54.92.1 2.52.68 2.86a5.44 5.44 0 0 1 1.65 1.89c.54.88 1 .35 1.12 1.22s.1 1 .87 1.36.29 1.21.29 1.7 1 1.36 2.28 2.47.2 2 1.12 2a5.37 5.37 0 0 1 2.72 1.12c.92.58 1.21.24 1.84.38a4.35 4.35 0 0 1 2 2.43 8.55 8.55 0 0 0 .49 1.38 9 9 0 0 0 1.16 1.82 11.11 11.11 0 0 1 1.85 4.27c.09.78 1.5 1.41 2.71 2.19A2.87 2.87 0 0 1 119 186c-.15.44-1.65-.29-1.75.14s1.94 2.14 2.72 2 1.17.39 2.38 1.46 1.12 2.33.63 2.72 1 1.21 2.52 2.23a5.46 5.46 0 0 1 2.33 2.81c.15.54.83 0 1.07-.68s-.48-.92-.48-1.74-1.27-.68-1.85-.78.05-1.36-.53-1.94a8.22 8.22 0 0 1-1.41-3.11c-.29-1.06-1.8-2.13-2.43-3.3a7.86 7.86 0 0 0-1.74-2.37c-.44-.29.63-.73.24-1.17s-1-.39-1.7-.73a1.86 1.86 0 0 1-1.21-1.69 14.09 14.09 0 0 0-.73-3.26c-.24-.63.53-.53.78-.24s.43.58.77.39a.88.88 0 0 1 1.17.49c.24.53 1.06 0 1.45.29s-.87.53.39 2.76.39 1 .39 2.48.78.82 1 .58.92.48 1.55 1.26 1.85.83 1.85 1.26a1.45 1.45 0 0 0 1.06 1.46c.83.14 1 1.07 1.51 1.16s.63.68.34 1.31 0 1.17 1.36 1.7.72.63 1.79 1.65a63.5 63.5 0 0 1 4.71 5.24 9.23 9.23 0 0 1 1.07 2.38c.24.68-.49 1-.1 1.6s-.73.34-.68.78.68 2.62 1.75 2.72 2.28 1.4 3.15 2.13 2.19.58 3.5 1.07 2.42 1.65 4.32 2.18a19.93 19.93 0 0 1 4.95 2.14c1.21.78 2.71.44 4.41-.24s3 .19 4 .58a12.4 12.4 0 0 1 2.36 1.83 28 28 0 0 0 2.4 2c.92.58 2.42 0 3.05.54h.07a12.27 12.27 0 0 0 4.25 1.45 1 1 0 0 0 .71-.29c.19-.16.34-.26.65 0s.24.53.2.82a.69.69 0 0 0 .34.83c.77.44 1.84 2.14 2.67 2.57a1.51 1.51 0 0 1 .74.89.75.75 0 0 1-.16.86 1.17 1.17 0 0 0 .58 1.89c1.07.44.73-.24 1.26-.24s.49.82 1 .82 1.6.59 1.56 1.36.38 1.12 1.26 1.12a3.4 3.4 0 0 1 .53 0 4.69 4.69 0 0 1 2.82 1.27c.72.87 1.16.29 1.6 1.07s1.45 0 1.7-.44-.54-.68-.63-1.21 1-.34 1.16-1.07 1.75-1.07 2.43-.78 1.26.78.63 1.51c-.47.54.49 1.51 1.29 2.27.27.27.52.5.7.69.68.72.24 1.31.43 1.7s.39 1 0 1.21 0 2.91.39 3.4 0 .92-.48 1.89-.92 1.41-1.8 1.45-.82 1.41-1.12 1.41-.39.49-.43.92a1.5 1.5 0 0 0 0 .3c0 .43-.68.72-1.51.77s-.72 1-.72 1.6-.68.63-1 1.31.09.83-.59 1.17a1 1 0 0 0-.48 1.5c.39.58 0 1.12-.15 1.46s.58.48 1.26 1.11.78-.24 1.07.25a1 1 0 0 1-1 1.36h-.18c-.72.14-1.45 1.14-1.81 1.91s.68 2.42.83 3-.59 0-.68.58 1.6 1.31 2.37 1.89 1.46 2.23 2.19 3 .77 1.46 1.55 3.35a35.24 35.24 0 0 0 3.4 6.45c1.07 1.36 1.55 2.43 1.31 2.82a1.87 1.87 0 0 0 .82 2 17.34 17.34 0 0 0 3.45 2.43c2 1 5.77 2.95 6.31 3.88a7.82 7.82 0 0 0 2.62 2c.09.05.12.2.12.41a6.2 6.2 0 0 0 0 2 17.68 17.68 0 0 1 .14 5.62 27.86 27.86 0 0 1-.87 3.3c-.29.83.68.88.29 1.27s-.24 1.36-.24 2.91-.93 4.17-1 5-.67 1.35-.58 2.28a2.05 2.05 0 0 1-1 1.89c-.53.44.88 1.85.83 2.62s-1.07 1.12-.83 2.38a24.17 24.17 0 0 1 0 4.8c0 .54-.63.49-.48 1.51s-.63 1.26-.78 2.72a21 21 0 0 1-1.7 4.65c-.44 1.12-.44 1.75-1 1.75s-.73.63-.29 1.6-.29 1.8.29 2.77.39 1.31.1 2.23-.68 1-.68 1.85-.68 1.6-.29 2.57.29 1.31-.2 1.31-.72.77-.92 2.38-.14 1.55 1 1.45.24-3.93 1-3.93.1-.63.83-.82.09.68.58.82.82.53.15 1 .14 1.31-.2 1.85-.82 1.11-.53 1.74-.34.59-.39 1.41.44.87.1 1.07.43.82-.05.92-.2.73.09 1.31-.63.24-1.11.63.48.92.19 1.46-1.06-.29-1.4-.59.53-.87 1-1.45-.44-1.89-1.17-1.6.73 1.11.73 1.74-1.21-.14-1.17.54-.82.44-1.26.92.59.92.1 1.07-1.31.82-1.36 1.31.53.58.53.1.78-.63 1 0 .59 0 1.27.14.58 1.17.19 1.12-.78.63-.68 1.36 1.46 0 2 .19.39 1.21.05.87-1.12-.92-1.46-.34-.87.3-1.31.1-2 .83-1.45 1.22.48 1 .82 1a1.58 1.58 0 0 0 1.07-.68c.19-.39.87-.78.92.09s-.92.44-1.12.92a3.19 3.19 0 0 1-1.16 1.32.52.52 0 0 0 .48.92c.49-.24-.14.58.54.68s.82-.39.68-.88.34-1.55.92-1-.29 1.07-.29 1.56-.34 1.11-.34 1.65-.63.24-.58.82-1.36.2-.73.59-.39.92-.05 1.31.63-.54 1.16-.35.44.35 1.12.05 1.07.54.44.73-1.31.92-1 1 1.11-.48 1.31.15.68.43.73-.25 1.21-.09 1.4.49-1.21.92-1.94.78-1.11.68-.63 1.31 1.07 0 1.6-.54 3.16-.39 3.35.2-1.21.09-1.36.43-1.21.63-1.36.25-1.16.14-1.21.77-.82.63.05.88.63-.93 2-.83 2.09-1.26 2.47-.48-1.11 1.4-1.65.92-1.16.34-1.11 1.06-1.55-.19-2.33-.29-.44.73.24 1.46 1.07-.1 1.89.44.83 1.11 1.41.58 0-.49-.39-.73 0-1.07.88-.63a1.26 1.26 0 0 0 1.7-1.55c-.3-1.17.82-1.7 1.94-2.09s.53.73-.29 1.07-1 .58-.34 1.26 1.45-.44 2 .1-1 .43-1.22 1 .92 1.16.1 1.55-.44-1.6-.92-1.8-.93.25-.44 1.36-.58.15-1.07-.38-1.16.24-.58.82-1.12-.05-1.12.87.73.15 1.61.34.48 1.46 1.11 1.94.1-1.55.78-1.69.05 1.55 1.55 2 .1-.29.78-.77 1.55 1.45 2.28 1.65.24-.88-.29-1.46.53-.24 1.26 0 1.31.34 1.46-.19c0-.2.19-.2.36-.14s.69.33 1 0c.49-.53 1.94-.24 2.72-.72s-.24-.64-1.45-.68-3.6-2.29-4.32-2.87-.2-1.16-1.07-1-.29-.68.19-.92-.17-1-.76-1.19h-.16c-.63 0-2 .14-1.79-.83a.42.42 0 0 1 .25-.32c.56-.25 1.8.55 2.07.27s-1.21-1.6-1.16-2-.24-1.17-.24-1.65-.25-1.56.43-2 .73-1 1.17-.88 1.31-.39 1.36-1.55.58-1.6 1.55-2.43 2.82-1.74 2.57-2.13.39-1.65.39-2.14-1.65-.39-2.18-.58-2.48-1.55-1.51-3.35a4.37 4.37 0 0 1 3.59-2c.59-.05 0-.87.54-1.16s.58-.78.58-1.51 0-2.13.87-2.23 1.12-.58.59-.73-.78-.77.09-.87.59.73 1.22.73 1.69-1.07.87-1.7-1.07.29-1.5.39-.78-.58-1.22-.58-.14-1.22-.34-1.65-.48-1.51-.1-2 2 .82 3.5.92 2.52-.73 2.52-1.26-.68-1.51.2-2.09.14-.77-.1-1.55.39-1.26.78-.87 3.25.14 5.63-.34 4-1.36 4.17-2 1.65-2.28 2-2.87 0-1.31-.92-1.45-.92-1.26-.39-1.89-.29-1.22-1.21-1.31-2.38-.73-1.56-1.51c.4-.37.59-.3.79-.13s.41.47.86.42a5.46 5.46 0 0 1 2.82.73c1.07.49.68-.15 1.7 0a4.71 4.71 0 0 0 3.3-.44 7.3 7.3 0 0 0 1.74-2 4.92 4.92 0 0 1 1-1c1.36-1 1-1.55 1.65-2.71s.1-1.65 1.17-2.67-.2-1.7 1.16-2.33 1.17.58 0 2-1.31 1.79.15.73 2-2.58 2.81-4.27 1.46-2.24 2.19-2.33.72-1.9.63-3.16-.49-2.42 0-3.25 0-1.6.68-1.6 1.7-1 2.77-2.09a3.75 3.75 0 0 1 2.86-1.26c1.12-.1.49-.48 1.22-.68s1.21-.87 1.7-1.31 2.47.05 3.63.05 1.95.1 1.95-.63a1.25 1.25 0 0 1 1.21-1.31c.68 0 1-.2 1-1.17a2.24 2.24 0 0 1 .87-2c.59-.43.68-1.4.88-2s.82-.25.82-1.17.34-1.94.34-2.67.78-.63 1.12-1.16-.29-1.22.24-2.72 0-2.91 0-4.27 0-2.77.49-3.2.24-.68-.15-.88.05-.73.39-.63.73.83 1.36.44 1.21-2 1.74-3.4 1.41-1.31 2.09-1.6 2.14-1.94 3.06-4.32-.05-4.71-.44-6.36-.79-1.52-1.76-1.47zm-92.11-115.6c1.47.18 2.51-.85 3-.22l.08.12c.71 1.27-1.84 2-4.27 2.14a14.55 14.55 0 0 0-1.74.17c-1 .14-1.29.21-1.56-.46-.36-.97 2.94-1.94 4.49-1.75zm-3.4 3.4a.26.26 0 0 1 0 .22c-.37.75-3.35 2.2-5 3.08-1.84 1-4.36.48-4.36-1s1.36-1.17 1.65-.49c.11.26.43.07.88-.25.74-.53 1.8-1.46 2.71-1.4 1.45.1 1.84 1 2.81.29s1.12-.94 1.31-.45zm-7-8.84c1.36.49 3.4-.58 4.08 1.07s2.26 2.9.78 3c-1.27.1-2.92-1.65-2.82-.68s-.68.49-.68 1.94-1 3.5-1.55 3.4h-.06c-.55-.25.31-2.42-.81-2.79s-2.53 1.65-2.33.38 1.94-2.33.87-4-3-1.65-3.4-.38-1.74.67-2.23 1.65a7.9 7.9 0 0 0-.58 4.66c.39 1.55-.1 2.32-1.55 3.2s-2.22-1.34-1.66-4.18c.39-1.94 1.46-3.78.49-3.78s1.26-2.33 3.3-2.82 4.56-.29 4.56-.87c0-.12.1-.2.25-.25a7.21 7.21 0 0 1 3.35.45zm-12.81-7.95c1.26 0 4.47.29 4.66 1.94s2.14.09 2.33 1.65c.16 1.32 1.45 2.36 1.23 3a.6.6 0 0 1-.26.34c-.8.56-.58-.87-2-.87s-2.91 1.36-4.07.78-.59-1.36-1.65-1.36.77-2-.78-1.17-3.88 3-5 2-2 .29-2.82-.48 2.72-2.92 4.37-2.82a1.67 1.67 0 0 0 1.13-.43c1.08-.77 1.92-2.58 2.87-2.58zm-21-14.08c.77 1 1.94 5 2.62 6.21s.68 3.3-.2 3.4c-1.06.12.1-2.81-1.84-3.88a6.29 6.29 0 0 1-3.3-4.85 1.59 1.59 0 0 1 2.77-.88zm-39.56-24.16c.16-.66.77-1.7 1.74-1.7s.88-1.27-.7-2.05 2.28-1.27 3.17 0 2.47 2.13 3.35 1.24 5.95-3.36 5.95-2.2-3.75 1.93-5.25 3.24-1.39 1-2.7 1.2-.27 1.54-1.86 1.66-5.4.27-5.94-.62c-.18-.34 2.09-.12 2.24-.77zM99 79.56c.73-.07.23-.89 1.24-1.27s-.2-1 .11-1.39 2.36.43 2.39-.35-2-1.43-2.74-1a4.29 4.29 0 0 1-4.24.69c-.61-.27 4.86-.85 5.79-1.69s5.09-1.82 5.4-1-2.24 1.28-1 2 3.24.23 3.7-.5 2.47-.62 1.2 1-1.7 1.82-3 1.59-2.12.42-1.47.88.7.85-.65 1.16-2.24 1.32-2.73 1.16 2.31-2.17 1.58-2.71-2.55.93-2.59 1.59-1.23.69-2 .65-1.71-.73-.99-.81zm74.76 135.93a.2.2 0 0 0-.06.07.2.2 0 0 1 .07-.07zm-.21.29zm0-6.61zm-3.63 0zm0 0h1.66zm2.57 0zm-.49 0zm49 35.55l-.14.06zm.62-.28zm-1.24.51h-.1zm-2.86 28.53a1.44 1.44 0 0 0-.33-.09 1.44 1.44 0 0 1 .34.11zm-.36-.1l-.37-.07-.56-.05a6.19 6.19 0 0 1 .94.14zm-3.16-15.2a1.06 1.06 0 0 0-.27.18 1.06 1.06 0 0 1 .27-.18zm.26-.09a1.11 1.11 0 0 0-.22.07 1.11 1.11 0 0 1 .21-.07zm1.24.15c-.39 0-.76-.23-1.21-.16.44-.08.81.18 1.2.16zm.75 15a6 6 0 0 0-1.05 0 5.13 5.13 0 0 1 1.04.04zm.41 15.12a2.12 2.12 0 0 0 .2.28 2.12 2.12 0 0 1-.21-.24zm.62.69a2.38 2.38 0 0 1-.36-.34 2.38 2.38 0 0 0 .35.38zm3.2 11.43zm.76-.25zm-.38.17h-.08zm-1.14-55.3h.14zm31-.84a1.77 1.77 0 0 0 .48 0 1.77 1.77 0 0 1-.48.04zm-8.53 48.43zm.38-.84v.04zm-.85 1.18a.58.58 0 0 1-.18 0 .58.58 0 0 0 .18.04zm7.91 13.42a2.29 2.29 0 0 1 0-.25 2.29 2.29 0 0 0 0 .29zm.06-.52q0-.15.06-.33-.03.22-.06.4zm.11-.59c0-.21.09-.42.13-.64-.04.3-.08.47-.13.68zm.18-.87l.06-.39zm.09-.63a1.88 1.88 0 0 0 0-.33 1.88 1.88 0 0 1 0 .37zm0-.54a1.08 1.08 0 0 0 0-.27 1.08 1.08 0 0 1 .03.31zm-.28-.65a.42.42 0 0 1 .21.24.42.42 0 0 0-.18-.2zm-3.77-57.75zm-.35-.05h.16zm-1.31-.27h.18zm.4.06h.24zm-.75 0zm-7.88-6.1l.07-.09zm.82-1a.7.7 0 0 1 .29 0 .7.7 0 0 0-.24-.02zm-.22.1l.12-.05zm-.11.12zm-.56.9a.41.41 0 0 1-.2.12.41.41 0 0 0 .23-.14zM232 298.35h-.19zm-.27 0h-.24zm-2.39-.13zm.3 0zm13.47 19.61l-.19.22zm.62-.68l-.58.63zm.42-.46l-.29.32zm.47-.56l-.18.21zm6.72-71.77a3.2 3.2 0 0 0 .62-.12 3.2 3.2 0 0 1-.66.1zm-1.33-.5a1.54 1.54 0 0 0 .69.45 1.56 1.56 0 0 1-.9-.73 2.55 2.55 0 0 0 .2.26zm-4.44 1l-.28-.07h.06zm-42.45 4.63l-.13-.15zm.73 1v-.06c0-.06-.05.03-.04.05zm-.09-.18a.3.3 0 0 0 0-.08.3.3 0 0 1-.04.07zm-.14-.21l-.06-.09zm-.19-.25l-.09-.11zm.2 1.21l.15-.15zm.24-.41s-.04-.03-.04-.01zm0 .15a.08.08 0 0 1-.07-.01zm10.89 22.65a1.46 1.46 0 0 1 .4-.1 1.46 1.46 0 0 0-.47.09zm7 26.56zm.82-.6h.05zm20.26 18.79l-.12.18zm-.23.38a1.47 1.47 0 0 0-.06.14 1.47 1.47 0 0 1-.02-.15z"/><path class="cls-2" d="M206 203.81c.38-.48-2.63-2.43-4.08-2.43s-6.21-3.3-10.58-4.27-8.18 2.17-7.77 2.72c.59.78 2.72-1 3.79-1.75s2 .39 2.13.88 1.46.77 3.69.87 2.53 1.94 4.66 2.43 0 1.36 1.07 1.74 6.72.3 7.09-.19zm-9 4.27c.39.68 4.08 1.65 4.46.78s-4.95-1.62-4.46-.78zm24.93.2c.88 1.36 3.38.54 3.59 0 .39-.98-4.46-1.36-3.59 0zm16.79 167.62c.78.39 4-.94 3.6-1.65-.78-1.46-4.32 1.26-3.6 1.65zm-.38-2.72c-1.07-.19-3.63 2-2.53 2.53s3.59-2.33 2.53-2.53zm-69.89-124.43c-1 1.46 1 2.88 1.36 2.23s-.39-3.69-1.36-2.23zm87.13-185.48c.07-1-1.1-.39-1.75-1.62s-4-1.74-4.27-.78c-.13.39-1.16 1-.32 1.88s1.42.52 2.39 1.42 3.89.13 3.95-.9zm30.79 318.61c.19.85 1.05.48 1.9 1.23s1.61 2.18 2.46.86-4.46-2.56-4.36-2.09zM139.33 22.6c1.17-.78 3.3.48 2.92 1.36s-3.75-.18-3.5.58c.1.29.49 1.45 2.82.77a6.07 6.07 0 0 1 5.82 1.07c1.55 1.26 3 1.75 4.08.49s-1.36-1.46-.88-2.43-1.59-1.55-2.59-1.55-1.45-1.94-2.33-1.56-1.45 1.07-1.45-.19-5.05-1.36-6.31-.87.26 3.1 1.42 2.33zm.67 8.15c.78-1-3.1-4.08-3.3-2.62s2.49 3.65 3.3 2.62zm12.63 2.52c-.1 1-2.33-.19-4.07-.87s-.68 1.36.68 2.52-.68.59-2.53-.68-1.65.88-.78 1.56-.19 1.65-1.35.09-1.75-3.2-3.6-3.3-1 1.8-.29 2.72c1 1.26 1.94 1.55 3.5 2.43s4.07-.39 5.24-.1-1.26 1.75-.49 2.72 2.92.29 4.57.19.87-1.06 1.84-1.74-1-.59-.19-2.24-2.43-4.27-2.53-3.3zm0-15.27c.68-1.16-4.09-2.07-2.91-1.06.68.61 2.28 2.26 2.91 1.06zm-29.5 7.6c1 .39 1.94-.87 2.62-.29s3.68 1.07 3.68-.48-3.78-1.75-4.75-1.17-5.44.78-4.17 1.75c.77.59 1.64-.19 2.62.19zm34.74-7.66c1.43.71.59 1.65 2.14 2.33s6-.88 6.4.19-4.56 1.17-3.88 1.85 3.5 1.74 3.11 2.32 4.66 2.24 5.14 1.46 1.85-.58 3.11-.1 1.36-3 2.23-2.42.78-1.26 2.23-1.85 3.56-.59 3.69-1.26c.1-.48-.39-1.16-2.13-1S177 19 177.77 18s-1.94-1.26-1-2-1.84-1.56-1.55-.39-1.75.09-2-1-4.27-1.46-6.89-3.79-5.34-.77-3.79-.48 1.46 1.06.2 1-3.5.09-1.46.87-.19 1.07-1.84 1.07-1.75 2.13.38 2.42.59 1.56-1.16 1.07-2.34.39-.79 1.17zm-1.16 9.61a10.32 10.32 0 0 0 3.88-.68c1.26-.49-.68-.49.19-1.65s-2.13-1.26-2.32-.88-4-2.33-4.57-1.45 1.36 4.66 2.82 4.66zm-41.93 7.37c-1.36.1-1.26 1.46.29 1.46s2 .48-.19.39-3.21 1.84-1.66 1.45 3.4-.39 2.24 0-4.34.66-3.89 1.27c.3.38 1.56.29 2.82.77s2 .78 3-.29 2.23-2.14 1.75-.68 1.55.39 4.17.29-.49 1.56-3.2 1.75-2.24 1.55-.1 2 6.7-1.36 7.76-2.43 2 .58 3.11-.19 3.11.09 5-.29 2.14-3.89.78-4.47-1.36.68-2.43.87-1.65-1.16-2.52-2-.29-2.53-1.56-2.33-4 2.23-2.33 2.42 1.07 1.07.2 1.46 2 1.07 1.65 1.65-4.85.1-5-.87-3.69-2.72-5.14-2.33-.88-1.17-2.33-1.27-1.06 1.28-2.42 1.37zM96 54c1.75.39 1.94 3.5 3.11 3.5.78 0 .2-1 1.46-1s1-.68 2.13-.58 2.14-.3 2.14-1.65.87-1.85 2-2.14.09-1.75 1.74-2.14a35.83 35.83 0 0 0 7-2.91c.78-.58-1-1.36-2.72-2.42s-3.1-1.36-4.46-.49-.29-1-1.36-.48-4-.78-4.37-1.27-5.63 1.07-6.89 1.07.1 1.36 1 2-2.13 2.81-1.55 3.3-.58 1.75-1.94 3.3S94.3 53.66 96 54zm11.69-15.87c1.75.19 3.5-1.36 3.4-2.24s-4.27 2.11-3.4 2.24zm-30.46 78.61c-1.75.93 2.45 5.36 3.33 4.8.6-.38-1-2.24-1-3.38s-.56-2.35-2.33-1.42zm22.41-81.33c.68.29 0 1.65.77 1.26s1-.48 1.56-.29c1 .35 1.26-.58 1.74-1.07s.29 1.75 1.56 1.75c1.06 0 .87-2.33 1.84-1.65s1.26-.29 1.46-1 .19-1.85 1.26-2 .19 1.07.68 1.94c.7 1.27 1.94.1 2-.49s1.84-.19 1.74-.87.49-.87 0-1.65.78-.58 1.36-1.16-.77-.1-1.75-1-1.35.29-1.35.87-1.85.1-2.92-.29-2.42 1.26-4 2-1.65 2.13-3.1 2-3.49 1.36-2.85 1.65zm20.18-7.48c.49-1.16-3.21-1-2.91-.58.68.88 2.43 1.75 2.91.58zm8.06-.48c1.26-.19.68-1.17-1.36-.87s-5.53.28-5.53 1.74c0 1.17.68 1.75 2.91 1.94s4.18-1.94 3.11-1.94-.39-.68.87-.87zm63.77 18.73c-.58 1.26 1.26 1.26 1.36 2.72s1.94 1.94 3.3 1.07 5.24.26 5.24-.88-4.08-3-5.53-2.71-3.79-1.46-4.37-.2zm.87 38.44c.2-1-3.2-1.36-3-2.43s-3.2-1.94-4.27-2.52-2.71-.88-2.71-2-2.33-.29-2.43 1.46-1.07 1.35-.58 3-2.14 2-1.85 2.92 1.56-.1 2.72-.1-.31 1.62 1.17 1.75a5.61 5.61 0 0 0 3.68-2c.49-.78 1.46-1.07 2.82-.1s4.26.99 4.45.02zM185.54 90c1.55 1 3.88-1.65 3.68-2.43s-5.56 1.22-3.68 2.43z"/><path class="cls-2" d="M210.67 57.54c1-.1 2.14-.88 1.85-1.75s-2.82-1-3.3.1-2.53-1.17-2.53-2-3.1-.1-2.71-1.55-3.59-1.85-4.66-1.85-2.62.88-2.43 1.85-1.16.58-1.36-.49-2.81 1.15-3.59 1.15.49-2.82.1-3.69a23.89 23.89 0 0 1-1.55-2.62c-.59-1.46-3.5-.88-4.27 0s-3.31.48-4.66 1.84.09 2.72.68 3.2-2 1.27-1.17 2 2.23.39 2.33 1.65-3.2-.38-3.69-1.38.2-2-.48-2.82-.1-1.74 1.16-3.1 2.23-1.17 2.23-2-5.43-.77-8.63 2.14a7.48 7.48 0 0 0-2 7.57c.19.78 3 .39 4.66.87s.77 1.17-.49 1-3.4-.59-3.3.29 2.72 2.52 4.27 2.13 1.55-.39 2.23.49 2.53.58 4.37.68a43.34 43.34 0 0 1 4.85.87 2.69 2.69 0 0 0 2.24-1c.29-.49 3.88.78 4.95.68s.38-1.07-.29-1.36-.39-1.55.48-1.07 2.33.78 2.62 1.65 1.07.39 1.17 1.07 3.2 1.46 3.3 2.23-3 1.17-2.14 1.85 2.23-.88 3.4-1 1.16 2.52 2 2.13c1.19-.53 2.13.49 3.3 2.14s-.1 3.2 0 3.78 2.33.39 3.59-.29 2.42.78 3.39 1.65-3.59 2.42-3.2 1.59-2.72-3.1-5.53-2-.87 2.71-.58 3.68-2.53 2-5.15 1.07-1.84.58-2.91.58-2.22 1.62-1.22 2.69 3.11.1 4.85.2 1.9.61 2.15-.39 2-.49 3.3-.2 1 2 2.52 2.24.29 1.74 1.26 2.81 4.08.49 5.24 1.65 6.11 3.49 6.8 2.62-4.27-5.43-5.73-5.82 1.46-.87 3.3.58 4.56 2.14 5.92.39-1.21-1.27-1.21-2.53-.88-3-2.23-3-4.86-2.72-3.6-3.3-.38-1.36.59-2.43 1.94 1 3.1 1.07 1.36 1.55 3.21 3.1 2 .49 2.33-.58 2.33-.19 2.23-1.26 1.65-2.33 2.81-2.82-1-1.65-2.52-1.55a1.54 1.54 0 0 1-1.85-1.65c0-.68-2.91-2.33-3.88-2s-2.59-1.32-3.88-1.4-3.11-1.06-2.91-2.42 2.52.39 3-.68-2.43-.49-2.53-1.26.68-.49 1.27-1-.49-1.46-1.17-1.85-.87.78-1.55.78-.1-1.07.39-1.75-2.24-1.46-3.4-1.07-1.55-.29-1.55-1.06-2 0-2.82.58-1.74-.55-.77-.65zm-38.82-28.73c-1.75-.88-3.94 1-2.14 1.65 1.56.54 3.89-.78 2.14-1.65z"/><path class="cls-2" d="M203.78 71.42c1.17-.2.95-2 .29-2.91-.48-.68-1.74-.78-2.81-.68s-2.91 1.74-1.94 3.39 3.3.39 4.46.2zm43.39 53.25c.9-.52-.07-1.1-1-.71s-3.55 4-3.55 4.92-.07 2.14-1 2.07-2 .78-1.23 1.29-1.88 2-.65 2.66c.84.45 2.2-.2 3.36-.07a4 4 0 0 0 3.11-.52c1-.71 1 .65 2 .52s-.59.84-.52 1.55 1.1-.38 1.87-.77 1.75 0 1.36.65 2.14 1.29 2.72.25-.58-2.65-1-1.94-1-.51-.13-1.16-.13-.91-.91-.52-.58-1.75.13-2.13-1.74-1.17-1.74-.46-1.75.26-1.94-.39-1.43-.84-1-1.29-1.48-.71-1.68.07-.77-.52.2-1.56.69-1.94 1.6-2.46zm-52.41-90.23a2.74 2.74 0 0 1 2.42-.78c1.36 0 1.65-.87 1-1.94s-2.42.78-2.62 0c-.24-1-1.84-1.26-4.56-.87s-1.55-1.75.1-1.27a11.39 11.39 0 0 0 5.72-.19c1.85-.48.39-1.36.39-2.13s2.33-.3 4.08-.3 4.27-2.81 4.37-4.46-3.89-1.26-5.83-1.26 1.27-1.46 4.95-1.26 2-1.46 2.72-2 2.43.68 4.27.29.58-1.94 1.85-1.94c.89 0 2.91-1.36 6.89-3.59s7.08-1.85 7.28-3.11-5.54 0-6.51-.39 4-1.45 5.15-1.16 2.72 0 6.7-1.94 2.23-2.43.58-2.14-3.5-.29-3.4-1.36-2.43-.1-2.52-.68-2.43-.29-4.95.68-.2-1 .87-1.36-6.41 0-7.67-.87-2.72 1.46-3.88.29-4.17-.19-3.79.68-.48.87-1.65-.1-3.39.1-5.43-.19-1.17 1.65-3.4.68-4.66-.49-4-.2-.19.88-1.16.59-1.85.09-1.36 1.06-3.59-.29-3.59.78-1.46 1.65-2.62.68-4.86-1.26-3.79-.39-3.3.39-2.13 1.26-1.46 1.56-1.46 1.07-2.43-1.36-3.4-.48-1.27 1.86-1.75 1.31-2.63-.38-4.63.39.29 1.36 1.65.49 2.42-.29 1.26.29-.78 1 .87.87-.68.49-.68 1.46 1.94.39 2 1.36 4.27 1.36 5.53.19.78.29.68 1.07 5.92 1.46 6.22.49 1.16-.59 2.32-.3 6.9-1.06 7-2.23 1.85.58 0 1.85-5.53 1.06-7.18 1.55 1.07 1.65 2.72 2.91-2.14.58-3.69-1.07-5-1.65-6.89-1.55-1.26 3.49.1 3.49 2.71.49 4.07 2.62 4.27 1.67 4.27 2.67-3.78-.78-5.92-1.17-5.53 1-5.63 2.52 3.11 1.36 5.24.1.59.39-.48 1.36 2.54 1.71 2.54 2.87-2.62.78-2.91-.29-1.26-2.13-3.78-1.94-1.85 1.94-.3 2.13 1.65 1.36-.09 1.36-5.69 1.1-4.47 2.24 6.31 0 7.18.77 3.3 1.07 3.89.2 2.52-.49 4.46-.49m40.07 95.12c.19.78 5.82 3.11 6 2s-6.17-2.66-6-2zm-33.97-36.69c.68-.09 2-2.52.29-2.42s-1.37 2.57-.29 2.42zm-43-36.3c2.13 1.46 1.45-1.16 3.88-1.07s2.53-3.88 2.91-5.33-1.94-1.36-1.36-.3-.09 2.14-.29.88-2-.1-2.71-1.07 2.13-1.07 2.81-2.33-2.23-1.07-1.55-2-4.27.1-2.82.68.1 1.36-1.26.39-5.12.65-3.78 1.75c1.06.87 4.27-.59 2.42 1.94s-2.62-.68-4.37-.39-1 2.43 1.65 3.2 2.33 2.2 4.47 3.65zm-9.42-15.72c.68-.78-1.45-2.43-2-1.07s1.34 1.86 2 1.07zm21.84 2.13c1.75-.09.88-2.23-1.06-3.69s-6.31 1.54-5.54 2.14 4.86 1.65 6.6 1.55zm1.07-14.2c-.19-.58-7.55.31-6.41 1.17 1.95 1.48 6.6-.56 6.41-1.17zm-19.99 34c.58-.68 3 1.36 3.1-.09S145 59.77 143.8 59s-1.65-.38-3.5-1.74.49-2-.87-3.11-1.84-4-.87-5 2-2.43.29-3.11-4.56.59-4.27 1 2.72 1.74 2.72 2.33-2.24-1.65-3-1.17-1.65-1-2.33 0 .87 4.37 1.45 5.34-.58 1-1.36 1.16-.87-2.71-1.65-3.78-3.88-2.33-4.07-1.55 1.94.77 1.65 1.84-1.46-.68-2.53.19-.87.29-.67-.58-1.56-1.84-3.5-1.65-.87 1.55-1.46 2-3.49-.29-1.64-.68 1.06-1.46.38-2.52-2.52.19-5.53 1.26-4.37 2.23-4 2.33.49.58-.68 1.55 0 1.84 1.07 1.84.13.86.87 1.07 4.18-1.36 5.15-.68-5.73 1.07-5.73 2.24 3.69 1.84 6.41 1.35 7.47.39 7.47 1.07-3.2.49-5.63.39-6.6.68-6.41 1.46.49.87 3 2 5.15-.58 5 1.07 1.36 2 4.76 2.14 5-1.56 6.6-1.46 2.42-.19 3.2-1.36 1.46-.48 1.65.1 2.33.48 2.82 1c1.23 1.24 5.33.87 6.89.1s-.68-2.91-1.46-1.94-1.46.38-1.65-.1 1.63-.72 2.21-1.4zm22.32-21.74c.68 1.94 1.46.58 2.52 1.36s2.72 1.26 3.59.49 1.27-1.36 1.56-.68c.47 1.1 2.62 1.26 7.28 1.36s3.49-1.95 4.85-1.17 4.47.78 5.82.49 2-2.43 1.95-3.5-10.49-1.94-12.33-.87-4.76-.49-6.21.29-1-1-3.59-1.07.19-1.45.67-2-4-2.13-5.82-1.74-2.91-.59-4.66-1.36-6.49-.59-5.53.77c.68 1 6.31 3 6.89 2s2 1.17 2.91 2.23-.58 1.46.1 3.4zM27.1 204.15c-1.22.14-.55 3.18.1 2.68.47-.36 1.32-.43 1.57-.89.34-.63-.46-1.94-1.67-1.79zm7.26-101.43c0-.53-.73-.49-1.7.63s-1.79 1.7-1.94 2.23-1.26-.09-1.6.59.24 2.18.92 1.7.73 0 1.17 0a7.48 7.48 0 0 0 2.86-2c.44-.68-.78-.88-.82-1.31s1-.44 1.55-.73-.49-.58-.44-1.11zm-13.01 98.57c.46.72 1 .86 1.36.22s-1.9-1.05-1.36-.22zm4.14 1c-.71.11-.25 1.41.21 1.07.79-.57.5-1.17-.21-1.07zm-23.98-83.8c1.16-.48 1.65-1.06 1.16-1.65s-2.06 2.03-1.16 1.65zm16.42 81.34c.64.68 1.1.5 1.28-.1s-1.97-.62-1.28.1zM3.45 97c-.1-.77-2.19 0-1.94.68s2.21 1.21 3.06.93A.88.88 0 0 0 5 97.09c-.53-.48-1.45.68-1.55-.09zm6.31 17.13c-1.07-.39-3.88 1.31-2.91 1.45.68.1 1-.58 1.74-.58s2.24-.49 1.17-.87zm367.83 42.12c-.16-1.1-2.39.33-1.91.65.97.64 2.07.45 1.91-.65zm49.27 11c0-.32-.84.19-1.36-.1s-2.85.2-3.46-.38-1.87.45-1.33.54a17.16 17.16 0 0 0 3.21.85c1.26.03 2.97-.59 2.94-.91zm16.4.81c-.06-.36.43-1.1 1.17-1.39s.45-.84 0-.42a5.63 5.63 0 0 1-3.11.94c-1.45.06-1.91 1-1 1.55 1.13.68 3.01-.32 2.94-.68zM336.79 82.87c1.26-.06 1.23-1.45 1.75-1.39s1.35-1 1.68-1.62a1.44 1.44 0 0 0-1.13-1.81c-.78 0-1.36-.61-1.2-1.07s-.42-1-.39-1.36-1 0-1.49.1-1.61-1.26-2.1-1-.13.94-.26 1.32-1.29-.35-1.29.1-.49.52-.88 0-1.29-.19-1.26.2-.39.06-1.13-.39-1.52.52-1.46 1-.26.62-.87-.45-1.33.1-1 .68.19 1.29-.29 1-1.14.2-1.43.65-1.32-1.33-.58-1.75-2.36-2.2-3.33-2.2-.33.71.32 1.23-.45.39-.81-.06-1-.1-1.42.55-1 1-1.1 1.45 1.1.94 2.1.52a2.73 2.73 0 0 1 2.65 0c.52.49-.93.68-.42 1.07s.1.71-1.13.61-2.72.26-2.49.68 3.17-.32 3.17.07 0 1.13.78.81.26.58.64.74.3.94-.74 1-1.54.28-1.1.72 1.68.16 2.78-.1 2.69 1.07 4 1.58 3.53-.19 3.79-.87 2-.42 2.71-.91a5.84 5.84 0 0 1 2.93-1.1zm12.84 40.9a6.64 6.64 0 0 0 3.79-1.56c1.1-1 1.68 0 2.68-.55s.39-4.3 0-5.08a.44.44 0 0 1 0-.33c.13-.45 1.15-.52 1.68-1.06s-.32-1.58-1.22-2.46-1.88.45-2.74.44a.62.62 0 0 1-.27 0c-.91-.35-2.17-.35-2.2.46s1 .51 1 1-1 .39-1.78.91-1.55-.36-2.33 0 .84.84.26 1.65 0 .78 1 1.55-.58 1-.58 1.85-1.2.84-1.45 1.42 1.03 1.76 2.16 1.76zm5.15-19.25c.87 0 1.87-1.52 1.45-2s-2.1 2.02-1.45 2zm12.52-7.02c.55-.55 1.2-2.66.36-2.43s-.6 2.67-.36 2.43z"/><path class="cls-2" d="M355.68 105.49c-.64.51.75 1.19 1.59 1.29s-.65.71-.81 1.62 1.1.52 1.16 1.16-1.81.75-1.81 1.36 1.07-.29 1.56-.55-.26 1.52.9 1.33.84-1.78 1.26-1.72-.19.84.17 1.52-.85 1.72-.78 2.21 2.39.48 3.14-.3 1.1.07.58.65a.77.77 0 0 0 .36 1.36c.64.23.87.29.58.81s0 1.49-.2 2-2.16.42-2.23.1-.91-.1-.68.35-.71.94-.64 1.36 1.26.33 1.29.85-.88 1.13-2.1 1.48.26 1.33.84.91.45.29 1.29.29 1.36.68 2.3.32.91 0 .19.55-1.78 0-2.42.33-3.28 2.82-2.79 3.43c.3.35.68-.52 1.62-.91s1.1.26 1.62.32.55-1.06 1-1 .81-.35 1.58-.22a2 2 0 0 0 1.72-.49c.39-.32 1.42.65 1.75.42a6.55 6.55 0 0 1 2.46-.45 6.94 6.94 0 0 0 3-1.26c.48-.46-.29-.55-.94-.46s-.52-.64.16-1.29 1.75-1.13 1.81-2.1-2.07-1.65-2.3-1.14-.71.46-1.06-.12.32-1.14 0-1.2a1.37 1.37 0 0 1-.72-1.2c.1-.32-.55-2.39-1.65-2.65s-1.26-1.81-1.45-2.65-.91-.39-1.46-1.1-1.49-.36-2-.33 0-.91.77-1.42 1.69-3.27 1.69-3.82-3.4-.52-4.05-.19-1.29-.49-.74-.72 1.71-1.35 1.65-1.81.81-.87.32-1.29-.55.55-1 .87a3.5 3.5 0 0 1-2.36 0c-1-.2-1.39 1.22-1.36 1.84s-1.16 1-1 1.49-.23.9-.55.61-.61-.93-1.26-.44zm39.67 7.99c-.58-.13-.23.84.58 1s1.68-1.42 1.59-1.81.82-2.17.52-2.36-.46.45-.75.51-.61-1.23-.74-.51-.78-.3-1.43.61.39 1.71.84 2-.03.69-.61.56zm15.65-9.16c-1.23 0-1.8 2.45-1.49 2.85s2.76-2.88 1.49-2.85zm8.74-3.49c.26-.49-1.87-.28-1.39.16a1 1 0 0 0 1.39-.16zm-1.84 2.85a6.41 6.41 0 0 0 2.26-1.49c.36-.36-.22-.75-1.39-.42s-1.33 1.93-.87 1.91zm-23.1-79.19c.58.14 1 1.11 1.55 1.07.24 0-.82-1.22-1.45-1.9s-.59-1.35-1.46-1.11.78 1.79 1.36 1.94zm15.43-7.86c.44.34-.72.35-.24.82 1.45 1.46 7.18-.19 8 .25s-4.81 1-4.56 1.55 4.8 1.07 5.14.68 1.12.77 2.62.87 1.36-.58 2.48-.63 2.76-.58 2.81-1.21 3.3-1.41 3-2.48-3.45-.34-4.32-.78-2.91-1-3.25-.33-.92.87-1.22.58.15-1.85-1.26-1.41-.09 1.94-.38 2.14-1.65-.3-1.75-1-1.6.73-1.8-.09-2-1.41-2.38-1.36.39.58.15 1-1.21-.39-1.6-.44.24.83.05 1.22-1-1.17-1.65-1.17-.44.78-.93.83.65.62 1.09.96zm-13.44 3.93c.92.19-1 1.21-1.26 2.13s1.45 1.75 2.18 2.43a3.24 3.24 0 0 0 3.11.19c.63-.38.43-1.74 1.26-1.69s.39-.73 1.07-1 .77.64.19 1.32 1 .63 1.89-.2 1.07-.05.88.73-2 .34-2.62 1.21-2.58.2-3.45 1.17.78 1 2 .77a15.38 15.38 0 0 1 4.37-.19c.87.19-.54.48-2 .48s-1.94.44-1.89.83-2-.44-2.14.44 1.94 1.21 2.18 1.74 1.6 0 2.14.25-.88.58-1.07.82 1.51.58 1.8 1.07 1.5.24 1.45-.44c-.06-.84 1.07-3.39 2.53-3.93s.63-1 .82-1.84 1.36-.15 1-.83-.14-1 .78-1.84 1.5-.24 2.62-.78 1.65.39.43.49c-1.06.08-.53 1.31.34 1.65s.1.63.78.77.49 1.17-.39 2.09.25 1.12 2.09.44.68.58 1.21 1.11 2-.39 2.77-1.31 1.94-.77 1.89-1.26-.87-.68-1.55-.39-2.38.1-1.8-.43.49-1-.39-.88-2.42-.34-1.69-.63-.54-1.26-1.22-1.21-.48-.73-.43-1.26-1.95-.78-1.56-1-.82-.64-1.11-.25a.47.47 0 0 1-.88-.29c0-.58-1.45-.44-2-.39s-.3-1.26-.88-1.69-1.36.87-1.79.77.34-1 .58-1.55-2-1.36-2.28-.78-.68-.87-1.17-1-.09 1-.53 1.07-1 .53-.29 1 1.45 2.91 1.36 3.3-2.33-1.75-2.43-2.77-1.21-1.84-1.5-1.11-1.12 1-.88 1.74-.58 1-.58.39-1.21-1.26-1.65-1.31 1.12-.34 1.84-.68-.63-.82-1.26-.43-1.45-.25-1.84.29-.87 0-1.55-.15-1.27 1-1.75.78-.78 1 0 2.18 1.35-.34 2.27-.14zM784.44 86c-.46.32-3.32.16-2.72.84s3 .26 4.07.9 2.66.13 2.66-.38-3.56-1.71-4.01-1.36zm-124.89 87.66a1.36 1.36 0 0 1 1.88-.72c.64.33 1.48-1 1.48-1.94s-1.94-1-2.2-.26-1 .39-2.07.59-1.07 2.66-.32 2.91c.58.19 1.04.19 1.23-.58zm16.31-25.95c-.78.13.06.91-.85 1.29s-.84 1-.38 1.3.13 1.1 0 1.68.58.13 1.1-.45 1 .28 1.16-.26-1.36-1-1.29-1.62 1 .19 1.81-.19a3.5 3.5 0 0 1 3.3.77c1 .84 1.23.52 1.42-.52s1.68-1.48 3.17-1.48 1.62-.72 1.17-1 2.46-2.2 2.39-2.72-1.55 1.17-2 .58-1.23.33-2.2.52-4-2.33-4.79-3.49-2.07-.2-1.42.65-.14 1.09-.14 2.26-.77 1.16-.64 1.94-1.04.61-1.81.74z"/><path class="cls-2" d="M664.34 167.12c.06-.58-1.17-.26-2.65.32s-2.4-.64-3.24.2-2.27 2.33-3.37 2.52-.46 1.53 0 1.3c.78-.39 2 0 2.4-.59s3.56-1.29 5.5-1.35.78.9.9 1.94 1.75.84 2.59-.13 1.49-.91.78-1.49.13-1.1.65-.32a1.77 1.77 0 0 0 2.78-.2c.65-1 .84.2 1.62.13s1.23-2 1.29-1.29 1.3.51 2.07-.33.07-2.33.58-3.1 1-2.4.52-3.37 1.17-1.62 2-2.39-1-4.66-1-5.83-2.13.46-2.78.78-1.1 2.33-.39 2.91-1.16 1.68-1.1 2.91-1.16 1.23-1.36 2.14-.9.71-2 1.55-1.69-.13-1.43-.71-1.68.32-1.62 1.75-1.81 1.55-1.35 2.2-1.46 1.03-1.39.45zm-11.58 5.5c-1 .71-1.3.84-.91 1.55s1 .07 1.23-.64.91 1 .32 2.2.08 2.8.84 2.65 1.49-2.46 2.46-3.69-.45-.78-.45-1.42-1.42-.52-1.49-1.1-1.03-.26-2 .45zm-43.49 34.68c.07-.77 1.33-2 1.17-2.58s-1.88-.2-2.72-.2-3 1.23-2.14 3 3.63.56 3.69-.22zm22.73-7.83c.65-.45 3.3-6 2.72-6.79s-3.17.45-3.88 3 .93 3.95 1.16 3.79zM630 213c-.2.58.06 3 .58 3s.91.65.58 1.69 1 1.16 2.2.71.78.84 2 .65 2.91 1.36 2.65 1.94.07 2.46.65 1.94 1.49.13.91 1 .9 1.68 1.09 2.72.85.19.72-.59.13-.71 1-1.29-.07-1.55-.58-2.65-2.46-.71-2.46-1.75-1.43-1.36-1.49-1.94-1.94-1.17-3-.52-.33-1.16-1.1-2 .58-2.08 1.49-3.11-.26-2.78-.13-3.56.06-1-.39-.78-2.33-.77-3.17-.26-.07 4.79-.46 5.12-.97-.76-1.09-.32zm4.7 9.9c-1 .19-.63 3.13.13 3 .33-.06 1.1 0 1.16-.64s.78 1.16.2 1.74-.58 2.21.32 2.4 2.59-2.91 2.33-3.5-1 .39-.84-.38-2.33-2.82-3.3-2.62zm-7.5 4.2c-.91 1.17-3.07 3.1-2.79 3.63.39.71 2.79-2.85 4-3.69a1.55 1.55 0 0 0 .58-2.33c-.44-.78-.89 1.23-1.79 2.39zm4.01-7.5c.19.91.65 2.78 2.07 2.33s-2.21-2.93-2.07-2.33zm11.26 8.86c.58 1-1.1.2-1.23 1.17s-1.36.19-1.3 1-1.29 0-1.94-.45-1.55 1.22-2.52 1.48-1.49 2.32-.84 2.27 1.16-1.1 1.94-1 .52-.77 1.62-.58.32 3.5 1.81 3.75 1.55 1.17 2.26 1.17-.13-2.07-.06-2.78 1.55-.07 2.33-1-.52-3.29-.52-4.85-2.14-1.15-1.55-.18zm-2.14-1.1c-.52-.64-1.81.55-1.62 1 .29.69 2.14-.36 1.62-1zm59.73 32.74c0 .59-1 .91-2.66 1.56s-4.55-.74-4.66.19c-.06.58 1.82 1.62 3.56 1.62s4.53-1.75 4.53-2.26 1.1-1.43.65-1.95-1.42.26-1.42.84zm1.55-2.33c1.29 1.24.6 2.28 1.36 2.08 1.23-.33.32-1.56-.71-2.2s-1.94-1.1-.65.12zm-11.07 6.6c1.17.07 1.36-.58.46-1.42s-4.21-1.16-4.34-2.39-6-4.14-8.6-4.73a16.55 16.55 0 0 1-1.62-.47c-2.8-.94-6.71-2.68-7.51-2.63-1 .06-1.1 1.74-1.94 1.74s-2 1.75-3.56 2.27-1.62-4.46-2.33-5.43-4.59-1.75-5-.65-1.74.52-1.88 1.42.33.58 1.17.58.84.65 1.23 1.49 2.72.26 3.49.2.91 1-.19.64-1.1.52-1.88.33-1.81-.13-1.29.32 1.35.91 1.35 1.94 1.49.84 1.49 0 .78.26 2.27.65.45 1 1.94 1a15.66 15.66 0 0 1 6.2 2.17c1.29 1 .39 1.62 1.23 2.52s1.1 1.94-.07 1.94-2.39 1.17-2.07 1.75 4.14-.26 5.05-.26c.59 0 1.19 1.06 2.33 1.82a4.39 4.39 0 0 0 2.33.77c2.84.13 2.13-1.49 2.65-1.49s.71-.9 1.3-1.62 3.1-.13 4.59 1 3.23 4.6 4.79 4.27 3.17.91 4.59.84.13-1.16-.32-1.36-1.62-1-1.55-1.48-1.3-.46-2.2-1-.59-2.46-1.56-2.91-1.71-1.88-.55-1.82zm-145.2-36.55c-.58.06-.45 1.23-.78 2.07a6.11 6.11 0 0 0-.12 2.91c.12 1.23 0 2.52 1.09 3.23 1.27.82 3.3-1.29 3.37-3.1s-3.07-5.17-3.56-5.11zm-68.78 47.75c-.29-1.06-.52.39-.78.65a2.28 2.28 0 0 0-.32 1.55c.06.52-.78 1-1.3 1s-1.36.26-1.1 1-.38.58-.06 1.16-.71 1.3-1.62 1.36-2.07 1.69-3 1.56-1.94.65-2.78.52-.26 1.74-.91 2.91-.32 2.52.26 3.94 1 2.59-.52 4.47a5 5 0 0 0-.84 5.24c.58 1.29.58 3.24 1.42 4.14s3.18 1.68 3.89 1 1.46.1 2.26-.84 2.07-5.89 3.17-9.19 2.53-7.63 2.4-8.54.77-1.49.38-2.46.13-2.13.59-1.36 1.1.78 1.29-.25-.78-2.66-.84-4.15-1.4-3-1.59-3.71zm9.49-54.05c.73.75 2.15-.12 2.23-.42s-3.04-.42-2.23.42zm34.28 145.02c-.28-.67-2.65 1.61-.76 2.46.86.38 1.24-.48 1.81 0a1.18 1.18 0 0 0 1.89-.85c.19-1.15-2.65-.95-2.94-1.61zm197.49-96.2a1.84 1.84 0 0 0 2.23 1.22c.58-.34-2.43-2.22-2.23-1.22zm2.28-2.18c-.49 1.07 1.46 2.91 1.75 3s-1.38-3.82-1.75-3zm-13.31-6.5c-.13.58 1.94 3.66 2.71 3.17 1.43-.91-2.59-3.75-2.71-3.17zm4.14 2.71c0 .25 1.5 1.75 1.84 1.51s-1.77-1.94-1.84-1.51zm10.87 8.11c.09.24 1.36 1.41 2 1s-2.17-1.42-2-1zm-3.59-4.22c.53-.34-3-2.28-3.06-1.65s2.52 1.99 3.06 1.65zm-52.03 64.11c.54.48 2.33.34 2.62-.34s-3.1-.1-2.62.34zm-13.73-56.78c.48.38 2.91-.1 2.81-.68s-3.55.09-2.81.68zm35.67 70.27c-1.31.14-3.28-1.2-3.74-1.07s1.7 3.49 1 4.37 2 3.25 2.91 3.4.58-.93 1.21-.88.39-.63.49-1.12.73.54 1.26.25-.14-2.38.63-2.38.15-2.52-.09-3.35-2.36.63-3.67.78z"/><path class="cls-2" d="M703.89 312.91c.39-.3-.19-1.85-.53-1.61s-.34-2.42-.1-3.64.1-1.06-.53-.43-1.32-1.21-1.46-1.7-.87-1.84-1.7-1.65-.29-1.17-1.07-1-.92-1.12-.77-2.28-.54-.24-.88-.73-.72-.1-1.26.1-.68-1-.53-1.51-.1-1.06-.83-1.6a1.5 1.5 0 0 1-.73-1.6c0-.63-4.12-2.77-5-3s-.15-1.16-.54-1.5-.53-1.61-.53-2.67-1.36-1.41-1.31-2.28-.39-1.7-.29-2.67-1.41-1.22-1.46-1.75-.87-.05-1.7 0-.77-1.07-.68-2.19-.34-3-1-3.49-.72-2.38-1.06-2.67-1.46 1-1.41 1.6a2.2 2.2 0 0 1-.53 1.75c-.44.39.29 1.89-.3 2.43s0 2.66-.19 3.88-.1 2.52-.68 3.35-.68 2.13-1.84 2.57-2.72-.49-2.67-1.12-1.26-1-1.94-.92-1.07-.87-2.14-1.7-1.89.2-2.23-.77-.68-1.12-1.46-1.65-.53-.54.2-1.07.58-1.22.19-1.85.44-.48 1.41-1 0-1.16.73-1.45.29-.92-.49-1.07-.53.78-.82.87-.59-1.21-.83-1.16-1.16 1.31-1.65.68-3.2-1.17-4.27-1.31-1.41-1.51-2-1.26.1.68.83 1.45-2.43 1.31-3.35 1 .14.68-.63.63-.92 1.31-1.56 2-.19 1.17-.87 1.6-.73.93.1 1.85-.39 1-1.12.24-1.45-.73-1.41.1-.87.44-.72-.49-1-.48-1.22-1a2.56 2.56 0 0 0-1.84-1.36c-.63.05-.63.73-1.26.73s-.78.34-.68 1-1 0-1.7.05 0 .92-.39 1-.39.73-1 .73-.53 1.41-.43 2.13-1-.34-1.61-.14.15.82.34 1.65-.34.78-.68 1.11-.87-.92-.87-1.64-.83-.05-1.7.87.29 2.33-.09 2.57a24.65 24.65 0 0 0-3.16 3.11c-1 1.21-3.2.48-3.88 1.06s-1.41.15-2.09.68-1.94 1.56-2.08.93-1.9-.15-2.63.63a4.82 4.82 0 0 1-2.71 1.5c-.83.05-.83 1.31-1.17 1.6s-.24-1-.24-1.36-.78.59-1.12 1.61.83 1.4.1 2.47-1.41 2.13-.39 3.49 1.6 2.24 1.26 2.92-1.06-1.36-1.31-1.12.92 1.12.63 1.55-1.33-1.65-1.55-1.16 2.18 3.74 2.23 4.95 1.94 2.38 1.85 4.12 1.65 4.57 1.94 5-.68 1.6-.49 2.91-.43 1.8-1.26 1.8-.34 1.36.58 1.46.59.72 1.61 1.4 3.44.44 4.27.44 1.06-1.26 2.18-1.31 1-.39 1.55-1.07 3.06-.48 5.63-.34 3.69-.63 4.08-1.7c.33-.91 2.18-1 2.91-1.65s1.36-.72 3.25-.63 3.64-.92 4.86-1.4 3.44-.3 4.61-.59 1.35 1.46 2.66 1.31 1.9.39 2.58.34.58.49 1.26.63.58.73.15 1.36 1 .59 1.94 1.85 0 1.45.53 2.42.82.73 1.79-.63 2-.48 2.19-1.65 1.16-2.52 1.84-1.94-.48.87-.92 3.11-1.21 1.06-1.36 1.7 2 1 2-.2.39-1.7 1.21-.63-.48 1.94-.29 2.43 1.12-.15 1.6-.1c.87.09 2 2 1.85 3s-.49 2 1.16 2.81 1 1 2.23 1a10.19 10.19 0 0 1 4.42 1.56c.68.58 2.43-.44 2.77-1.6s1.6-.05.92.34.34 1.31.39.68.34-1.17.58-.44 1.12.73 1.46 1.31.72 1 .72.53.2-.92 1-1.21a7.7 7.7 0 0 0 2.08-1.51c.83-.68 4.22-.82 4.56-.82s.54-2.91.73-4.42 1.46-1.74 1.65-3.35 1.89-4.56 2.33-4.7a1.78 1.78 0 0 0 1.31-1.51c0-.92 1.17-1.94 1.17-3s.63-2.43.53-2.77a2.15 2.15 0 0 1 .24-2.18c.63-.82-.39-1.74 0-2.03zm31.21 49.25c.33.1 1.45-.19.82-1s-1.63.77-.82 1zm14.02-16.74c-.68-.48-1 .2-1.75.54s-1.21-1.61-2.13-.88-.1 1-1.12 1.89-.58 1.17-1.8 3.06-5.38 3-6 4-2.72 1.85-2.77 2.62-1.33 1.35-.55 2.35c.58.83 1.36.24 2 .87s1.26.1 1.55.63 2.43.54 4-.92.83-2.13 1.46-2.52.72-1.55 1.11-2.28a2.23 2.23 0 0 1 2.43-1.51c1.75 0 .82-.34.73-1.16s1.45-1 1.45-2 2.14-2 1.7-2.86.37-1.34-.31-1.83zm7.88-7.81c-.44.73-1.31-.2-2.13-.2a1.25 1.25 0 0 1-1.32-1.31c0-.72-.19-1.79-1-1.74s.25.82 0 1.21-.49-.44-.88-.44-.82-.53-.82-1.5-.83-.87-.83-2-1.75-2-2.72-2 .2 1.75.68 2.33 1.56 1.11 1.51 1.55a2.57 2.57 0 0 0 1.31 1.75c.58.19-.34 1.89-.34 3.25s-1.07 1.12-1.8 2 1.85 1.75 2.92 2.62-.92 3-.64 3.49c.15.25.88.59 2 .3s1.65-2.72 2.43-3.4.29-1.75.68-2.28.92-.49 1.46-.49.24-1.31.92-1.31.34-.92.73-1.94-1.69-.62-2.16.11zm2.89-50.18c.54.19 2.28-.39 2.28-1.22s-3.08.92-2.28 1.22zm-3 2.57c.82.78 2.47.73 2.52-.68s-3.26-.01-2.52.68zM496 14.8c.2.52-.32.58-1.61.58s-2 .73-1.3 1.3 4.21.38 4.79-.39 2.07-.13 2.33-.91-4.37-1.1-4.21-.58zm-.29-3.49c1.55 0 1.1-1 2.13-.85s2.4.07 1.88-.58-4.27-.39-3.88.13-3 .32-3 .52c.16.39 1.32.78 2.87.78zm-8.02 4.33c0-1-3.37.11-2.72.32s2.72.72 2.72-.32zm293.06 63.12a4.26 4.26 0 0 0 2.45.52c.56 0 0-.52-.51-.61s.09-.55.48-.2 1.13.52 1.2.13.45-1.23 1.13-1.2.91-.35.26-.58a10.3 10.3 0 0 1-3.23-2.3c-.52-.74-3-1.1-3-.71s-.81-.09-1-.51-2.81-.49-2.84 0 .61.49 1 1-.52.8-.33 1.39-1-.29-1.39-.62-.22-1.58-.09-2.23-.75-.52-.84-1.16-3-2-4.24-2.5-2.82-1-3.24-1.61-2.62-.72-3.46-1.59a14.67 14.67 0 0 0-6.1-2.55c-1.59-.1-1.23-1-2-.84a31.5 31.5 0 0 1-5.14-.2c-1-.16-1.27.62-2 .33s-4.59-1.69-5-1.17-.26 1.26-.71 1.39 0 .78 1.07 1.75.42 1.71-.55 2.13a3 3 0 0 1-3-1.13c-.49-.74-1.81-.42-2.14-1.39s.39-1.13 1-.58a1 1 0 0 0 1.62-.62c.1-.71-1.75-1.19-2.75-1.13s-1.56 1.46-2.59 2-5-.23-5.47-.61-6 0-6.6.38-.16 1.91-.45 2-.58-1.75-.58-2.1-.71-.54-1.71-.54-1.58 0-1.16-.45-.39-.84.39-1.39-1.43-2.27-3.56-3.11-7-.35-8.29 0a26 26 0 0 1-5.11.29c-1.23 0-.22-.49-.58-1.07s-2.46-1.29-2.75-.81-.84 0-.84-.36-2-1.06-2.75-.9-1.13-.71-.23-.71 2.46.19 1.78-.84-6.5-1.36-7.05-1.17 0 .94-1.29 2.14-2.49.39-2.33-.2 1.71-.48 1.71-1.06-2.13-.26-2.46-.75.45-.81 1.23-.58 2.14.35 2.2 0-.81-.42-2.1-.65-4.43-1-6.08-.81-2.4-.61-3.3-.68-.91.49-.49 1-.87.84-1.94.67-2.62.59-2 1.36 1.23-.22 1.75 0-1.36.81-.58 1.16.65 1.1.68 1.49-1.3.58-1.78 0-1.17-.07-2.07-.13-1.59.36-.62.49 1.3.74 0 .87-1-1.2-1.74-1-2.46-.61-3.37-.58-1.33.75-2.52.84a4.49 4.49 0 0 1-3.3-1.26c-.49-.65-.65-.84-1.23-.1s-.62 2.17-1.2 2.27-.81 1.36-1.39 1.68-.62-.49-1.36-.42-3.14-2.26-3.27-2.94-1.61-2-2-2.24.39-.38.87 0a1.38 1.38 0 0 0 1.59.16c.48-.26.42-1.46-.42-1.49s-.52-.74-.1-.87-1-1.4-.45-1.52.29-.68-.42-.78-1.46-.68-1.49-1-3-.48-2.92 0-1 .35-.8-.07-1.07-.29-2.5-.68-1.45-1.39-1.94-1.45-.32 1.39-1 1.06a.82.82 0 0 0-1.1 1.14c.39.84 0 1 0 1.65s-.46.38-1.3.09-.84.71-2.65.26-2.62 0-3-.55-.87-.65-.93-.16-2.85.29-3.08-.42.49-.84.91-1-.45-.48-2-.38-2.5-.78-4.05-.62a51.5 51.5 0 0 0-5.5.71c-.48.23.45 1.1-.29 1.17s-.23-1.43-.36-2.14-1.26-.81-1.1-.26-1.78.75-2.26.33a6.1 6.1 0 0 0-2.52-1.3c-1.27-.32-2.82 1-2.46 1.43s1.29.09 1.32.35c.07.53-2.68.33-2.68.78s-2.56 1.07-3.34 1.16c-2.12.27-2.58.26-3.59 1.1s-.22-.74.55-1.52 1.59-.45 2-1.06 1.17-.56 2.4-.75 1.16-.9 1.74-1.16 2-.81 2.27-1.4 3.17-1.55 3.75-1.52.71-1.16 1-1.16a16.85 16.85 0 0 0 2.65-1 1.68 1.68 0 0 0 1-1.32c0-.42-.87-.36-1-.75s.42-.13 1.1-.39 0-1.16-.55-1 .29-.48-.19-1.07-1.46.36-1.43-.25a2.45 2.45 0 0 0-.45-1.78c-.39-.39-1.1.68-1.91.06s-3.17-1-3.17-.74-1.13-.39-1.36-.13a5.63 5.63 0 0 1-2.68.06c-.59-.16-1.39.23-1.43.81s-2.32.36-2.75.26 1.59-1.75 1.59-2-3.4.07-3.59-.26-1.85-.42-2.59-.38 0-.2.65-.26 1.29-.65 2-.78.58-.39.25-.84-1.1-.23-1.84-.45a11.63 11.63 0 0 0-2.3-.59 21.43 21.43 0 0 0-2.88.62c-1.52.29-1.65 1.45-2.42 1.81s-2.14 1.78-1.49 1.91.32.52.42.94-.49.51-1.23.38-3.37-.09-3.33.46 1.52.81 1.42 1.1-1.13 0-1.65-.32-1.68-.14-1.91.41-1.13.43-1.42.3-.94.25-1.42.09 1-.87.61-1.23-1.91 0-2.07.55-1.1-.42-1.46-.22A14.09 14.09 0 0 1 575 36c-.68.29-1.84-.32-2.1.19s1.29.68 1.32.91-3.52.19-3.62.55-1.3.36-2.75.39-.87.74-2 1-1.68.26-2.07.84a1.13 1.13 0 0 1-1.68.23c-.39-.46-1.46.22-.88.29s0 .64-.32.51-1.39.62-.81.55.88.42.58.78-1.55-.42-1.87-.1.61.75 1.19.68a.86.86 0 0 1 1 .75c.06.42-1.36-.26-1.65.1s.22.51.83.58.17.29.72.77l.1.11c.34.4-.29.54-.23.93s-.62.58-.62.19-1.71-.51-2.07-.1-.61.75-1 .36-1.65.1-3.24.16a37.36 37.36 0 0 0-5.66.49c-.81.29-1.49 1.42-.74 2.17s0 1.06 0 1.55 1.94 1.49 3 1.58 1.87 1.36 1.26 2.14-2.49-.23-3.72-1.2a9.7 9.7 0 0 0-5-1.29c-.94.06-.39-.84-1.58-.81s-2.2 1.1-1.4 1.1 1.33-.06.91.32.23.29 1.2.71-.81 1-1.81.33a1.71 1.71 0 0 0-2.37.48c-.29.52 1.17 2 2.92 2.27s1.16.81 2 1.1.23.61-.32.65-1.65-.85-2.53-1.3-3.23.2-3.72-.32.33-1-.13-1.42-.06-1.27.52-2.17a2.06 2.06 0 0 0-.94-2.72c-.84-.26-.77.61-.58.87a2.7 2.7 0 0 1-.55 2.3c-.65.81-2.62.81-2.62 1.36s-1.33 1-.87 1.36a17.41 17.41 0 0 1 2.49 3c.26.61-1.59 2.55-1.3 3.69s-.26 1.64.1 2.2 1.16.06 1.68.29 1.36-.33 2.56-.55 3.39 1 4.2 1.42.39 1 .81 1.68-1 .65-1 1.62S543 70.9 543 71.19s-1.75.07-2.46-.19-.77-1.2-1-1.39.49-1 .55-1.59-.81-1-1.1-1.39-.81-1-1.39-.91-2.72.33-3.36.91.09 2.23.45 3-1.88 1.94-1.81 2.59-.68.94-1.65 1.46-2 .9-2 1.74-1.29.39-2 0-1.56.23-2.53.2-1-.84-1.74-.55a.76.76 0 0 1-1.07-.94c.22-.58 1.1-.13 1.16.29s.62.23 1.26-.13.33.45 1.27.52.42-.49 1.13-.42.74-.16.52-.52.52-.61 1-.81.26-.94.68-1.16.13-.68.58-.72.65-.71 1.07-.71.64-.68.39-1 .16-1.33.58-1.46.45-.52.06-.81-1.81-1.26-1.71-1.87-.26-1.75-.07-2.24a5.36 5.36 0 0 0 0-2.07 13.75 13.75 0 0 1 .55-2.29c.2-1.07-1.13-2.2-1.78-2.5s-.22-.87.71-1.65 1-3.2.94-3.72-2-1-2.71-.9a30.26 30.26 0 0 1-4.18-.2c-.68-.13-.91.59-1.23 1.23a15.67 15.67 0 0 0-1.46 3.11c-.41 1.45-2.13 1.91-2.91 2.23s-1.26 1.39-.9 1.91.87.1 1.23.29 0 1.56-.26 1.75.42.68-.13 1-1.07 1.11-.75 1.49 1.91.59 2.59 1 .42 1.1.94 1.78 1.07.26 1.33.68-.94 2.11-1.36 2.17-2.14-1.72-2.65-2.1-2.53-1-3.53-1.52-1.81-.46-2.91-1.2a6.09 6.09 0 0 0-4-1.07c-2 0-3.3-.45-4-.35s-.42-.68-1.61-1.2-2-1.23-2.66-.87-.42 1.64.62 1.81.51.71 1.62.64 1.42.33 1.39 1a2.61 2.61 0 0 0 1 1.81c.48.45.19 1.2-.68 1.2s-1.88.12-1.49.74-.26.78-1.13.45-.36-.94 0-1.29-.78-.81-1.33-1-2.75 1.42-3.36 1.68-2.14-.39-3.69 0-1.46 1.62-2 1.49-2.3.16-2.94-.23-.13-.61.55-.58.9-.2.51-.65.52-1.16.49-1.49-2.56.52-3 .88 0 1-.42 1.23-.45-.39-1-.59-4.3.68-5 1.49-2.11.84-2.11 1.3-1.71.42-2.39.74-.23 1.65-.48 2.3-2.92.45-3.73.48-1.1-1.55-1.74-1.65-.26-1-.07-1.39.71-.06 1.52-.58 1.62.26 1.94-.1-1.23-1.29-1.32-2.1-1.81-1-2.79-.78a4.17 4.17 0 0 1-2.71-.29c-.68-.32-.62.58.39.84s.48 1 .64 1.52a3.78 3.78 0 0 1-.84 2.43c-.58.84-.16.81.71.77s.81 1.11.81 2-.68 1.06-.68 1.68-.71-.29-.94 0-.51-.13-.64-.65-1.46-.23-2.2-.42-1 .13-1.39.68a3 3 0 0 1-1.94.84c-.62.07-1.53 1.13-2.11 1.52s-.68 1.13.13 1.91 1 1.29.91 1.71-2.27.3-2.62-.16a3.36 3.36 0 0 0-2.27-.52c-.48.1-1.81-1.45-2.49-1.48s-1.1.8-1.33 1.22.33.56.65 1.27 1.52.74 2.14.74.38.94.19 1.33-1.33.68-1.65.26-1.68 0-1.71-.52a1.83 1.83 0 0 0-2-1.13c-1 .16-1.2-.49-1.13-1.27s-.55-1.22-.52-1.58-.45-1.07.06-1.42.13-.91.17-1.39-.88-1.23-1.69-1.23-.64-.81-1.32-1a4.27 4.27 0 0 1-2.14-1.77c-.1-.49-1.13-.56-.77-.72a1.93 1.93 0 0 1 1.74.65 5.08 5.08 0 0 0 3 1.3c1.53.19 2.14.9 3.82 1.19s2.69.49 5.11.84 5.67-2.1 6.35-2.78-.2-2.07-.2-2.59-1.1-.58-1.26-1a2.12 2.12 0 0 0-1.81-1.1c-.94 0-1.07-1.07-1.81-1s-1.27-.33-3.21-1.62-4.62-2.23-5.11-2-.81.36-1.13-.12-1.07-.42-1.59 0-1-.35-2-.13-1.49-.42-1.23-.71 1.68 0 1.61-.51-.58 0-1.45-.59-1.36-.19-1.55.29-.88.36-1.33-.06c0 0-.1-.07-.15-.11-.52-.32-1.51-.36-1.63.08s-1 .39-1-.1-1.36-.87-1.42-1.1.58-.2 1.1.1.87.09 1.45-.46 1.39-.09 1.49-.58-.94-.81-1.13-1.1a1.87 1.87 0 0 0-1.65-.55c-.71.13-.75-.16-1.17-.55s-1.71.26-1.71 1.17-.81.67-.52.19-.39-1.07.26-1.23.29-1.13-.91-1.23-1.65.91-1.35 1.23-.81 1.71-1.3 1.71.07-1.19 0-1.84-.48-.29-1.39.74-1.58 2-2.1 2.08-.45-.94.39-1.4.87-1.68 1.42-1.68.55-.64-.26-.84-.94.71-1.2 1-1.58-.45-1.55-.19-.71.35-.39.84-.16.9-.48.32-1.13-.13-1.52.52-.91.61-.52.84a.74.74 0 0 1-.23 1.26c-.58.17-.35-1.58-.8-1.42s-.17-.84.45-.84a1.47 1.47 0 0 0 1.16-1.13c-.11-.38-.77-.29-.77.19s-1 .39-1.78.35-.78.94.13 1.46-.16.84-.62.45a1.6 1.6 0 0 0-1.65 0c-.48.22 1.17.81 1.23 1.1s-.84-.36-1-.13-1.1-.16-1.17-.71-1.52.22-.71.42.52.71.52 1.42-.94.16-.75-.45-.58-.49-1.23-.1.1-.71-.16-1.26-.84 0-1.52.13-1 .16-.61.61.35 1.1-.2 1-.77 0-.71.52-.71.55-.78.1-1.16-.32-1.49.19-1.23.91-1.13 1.49.81-.29 1.39-.1 0 .49.3.78.25 1-.2.58-1-.55-1.13.13-.58-.09-1-.58-.78.91-1.2.58.84-1.32.52-1.81-.55.29-1.3 1-1.74.71-1.38 1.06-.75.55-.94 1.17-1.72.84-2.69 1.49.19.68.74.06.75-.26 1.62-.81 1.81-1 2.14-.77a.86.86 0 0 0 1.29-.2.84.84 0 0 1 1.36-.09c.42.35-.71.64-.19 1.16s-.62.81-.62.36-.65-.84-.87-.42-.62.87-1 .9-.87.81-.87 1.59-.75 0-.81.68-1.1 1.87-2 2.75-.06 1.06-.35 1.61-1.36.07-1.72.29.2 1.59-.29 2 0 1 0 1.49-1.26-.29-1.35.19-1.2.36-1.53.49.65.9 1.23 1.36-.55.81-.68.29-.94.32-1.94.78-.57 1.35-1.35 1.35-.55 1.26-1.06 1.65-.39-.91-1.2-.94-.75.55-.26 1.23-.74.16-1.2.74-1.75.29-2.1.78 1 .48 1.16.87-1.16.19-1.87 0-.52.91-1.17.78-1.45.55-1 1-.36.51-.81.22-.84.42-1 1 .87.84.84 1.1-.84.68-.26.81.16.65-.23.81-.38.55 0 1-.67.59-.16 1.33.91-.19 1.13.36.84.06 1.56-.59 1 .72.39.68-1.27.33-1.14.91-.9.48-.87-.23-1.2.13-.75.65-.16.81-.16 1.29.88.39 1.23-.16a.62.62 0 0 1 1.17.13c.22.55-.55.13-.55.87s-.49.1-.91.68 1.65 1.65 2.3 1.82 1.26.87 2.55.68 3.76-2.59 4.08-3 1 .06 1.52-.33.2-1.39.55-1.58.55 1.07.88 1.2.5.34.51 1a1.33 1.33 0 0 1 0 .2 2.65 2.65 0 0 0 1 2.2c.72.58.17 1.46.78 2.27s.42 1.39 1.1 2 .74.91.45 1.65.59.55.62 1-.19 1.39 0 1.85.68 0 1.72 0 .77-.68.8-1.3.56-.32.68-.71 1.07-.49 1.82-.16 1.13-.23 1.26-1 .55.17.77.33.91-1.2 1.23-2.07 0-.71-.77.13-.33-.84 0-1.52a20.09 20.09 0 0 0 .36-3.11 1.51 1.51 0 0 1 1.23-1.33c.94-.19 2.17-1.35 2-1.84s1.3-1.29 1.3-1.78-1.56-2-2.07-2.3-1.65-.06-1.56-.42a10.63 10.63 0 0 0-.26-2.46c-.13-.71.81-1.45.81-2.13s0-1.46.59-1.69.22-.8 1-1 .65-1.36 1.52-1.71.94-.65 2.07-1.2 3-1.84 3.37-2.52-1.17-1.39-.23-2.11.16-1.52.84-1.77a3.53 3.53 0 0 0 1.43-1.14c.48-.51 1.13 0 2.29-.22a2.94 2.94 0 0 1 1.19 0 11 11 0 0 1 1.76.72c.87.39.74 1 .77 1.69s.07 1.06-.38.77-.94 0-1.2 1a3.49 3.49 0 0 1-2.23 2.2c-.75.07-.68.84-1.3 1s-1.19.51-1.16 1.19-.91.75-1.52.75-.49 1.1-1 1.39-.39.68.06 1.26.07 1.1.23 1.52a2.86 2.86 0 0 1 .38 2.46c-.48 1.07-1 2.39-.58 2.26s1.39.88 2 .81.71.91 1.33.71.61.59 2.39.52 5.37-1.55 6.8-1.55a8.49 8.49 0 0 0 2-.22 8.61 8.61 0 0 1 1-1.33 8.75 8.75 0 0 0-1 1.33 4.58 4.58 0 0 0 .91-.33c.52-.26.88 1 1.4 1.42s1.55 0 1.9.42-.29.42-1 .29-.94.33-2.1.72c-.87.29-.79.59-1.08.84a1.2 1.2 0 0 1-.48.22c-.93.26-3-.64-4.14-.42s-3.52.23-4.07.81-2 .75-1.33 1.26 0 .78.45 1.4.68.87 1.3.74 1.1.19.45.87c-.6.66-.17 1.15-.2 2.16s-1.16.84-1.78.84-1.61-1.84-1.94-2.26-1.36.52-2.1 1-.36 1.33-.87 1.75a1.51 1.51 0 0 0-.33 2.07l.06.11a2.14 2.14 0 0 1-.22 2.38c-.35.4-.15.45.11.61a.82.82 0 0 1 .34.33c.29.52-1.16.58-.71 1.19s-1 .65-1 0-1.56-.32-1.49.1a.89.89 0 0 1-.13.52 1.37 1.37 0 0 1-1.2.61c-.94 0-1-.94-1-1.35s-3.79.35-4.79 1.35-3.33.62-3.4 1.17c-.05.4-.4.6-.62.49a.34.34 0 0 1-.19-.27c-.1-.51-.45-.71-1.29-.71s.52-.84.19-1.26-1.16.78-1.94.52-1.78.91-2.46 1.42-1.65-.09-1.13-.84 0-.68-.78-.39-1.71-.06-1.61-.77a.85.85 0 0 0-.13-.51c-.29-.46-.93-.84-.88-1.18s.68-.16 1.14.23 1.45.45 1.55 0c.06-.3-.16-1.68-.78-1.36s-.77.19-1-.13.45-.84.61-1.36 1.23-.32 1.39-.74-.71-.88-1-1a1.22 1.22 0 0 1-.07-1.52 1.82 1.82 0 0 0 .23-1.88c-.32-.32-1.49 0-1.58.88s-1 .48-1.3.68.52.58.1 1-.58-.59-1.26-.65-.75 1-1.1 1.59-.13 1.71 0 2.49 1.07 1.26.84 1.91c-.11.3.11.64.33 1s.54.75.38 1c-.29.55.16 1.07.58 1.88s-.9.35-.94.87-1.23 0-1.61-.22-1.69-.07-1.65.26a1.08 1.08 0 0 1-.07.45c-.08.23-.26.4-.55.22-.48-.29-1.23-.13-2.2.07s-1.26 1.13-.9 1.52-.94.58-1 .06-1.07-.16-1 .52-1.07.94-1 1.78-1 1.62-1.75 2l-.35.2a4.93 4.93 0 0 1-1.46.63 2 2 0 0 1-.49 0c-.78 0-1.46.58-1.33 1.88s-.93 1.42-2.26 1.52-.87 1.13-1.42 1.55-2.5-.22-2.75-.93-2 0-1.27.84.71 2 .29 2.33-1.32-.52-1.9-.1-.62-.39-1.33-.65-1 .32-2.14.23-1.78.55-1.35 1-.07.94.25 1.36 1.82.36 2.92.94 1.35.1 1.9.52.68.16.72 1a2.13 2.13 0 0 0 1.71 1.88c1.07.29.26 1 .58 1.71s-.48 1.75-.32 2.62-.52 3.69-1 4h-.12c-.66.13-2.55-.56-3.79-.41s-5.57-.2-7.22-.06-1.74-.68-2.65-.68-.51 1.09-1.81 1.13-1.42.84-.49 1.58c.54.43.47 1.32.4 2.14a2.9 2.9 0 0 0 .06 1.49c.42.68-.52 4.27-1.36 5.24s0 1.23.84 1.91.29 3.13.29 3.72.78.42 1.68.42a11.05 11.05 0 0 0 1.75-.35 2 2 0 0 1 1.17.09c.9.42 1.43 2.67 2.65 2.52.52-.06.26-.45.52-.71s.74-.06 1.26-.06.78-.75 2-.78 2-.13 2.79-.1 1.39-.22 1.58-.77a2.07 2.07 0 0 1 1.72-1.17c.87-.13.74-1 .8-1.55s1.53-1.3 1.62-1.68-.84-1.88 0-3.21 1.82-1.39 1.82-2.13.9-.94 2-1.07 1.46-.87 2.4-1.26a1.46 1.46 0 0 0 .91-1.83 3.27 3.27 0 0 0-.14-.56c-.38-1.27.75-2 1.82-2.17a9 9 0 0 1 4 .87c.61.39 1.45.29 2.52-.84a2.9 2.9 0 0 1 1.37-.89 5.2 5.2 0 0 0 1.06-.31c.68-.35.39-1 1.52-1.29a3.31 3.31 0 0 1 3.07 1.29c.46.68.58.75.68 1.3a4.23 4.23 0 0 0 2.07 2.65c1.56 1 2.17 2.13 3 2.55s1.62.33 2.1.91a5 5 0 0 0 1.91 1.26c.78.36.81 1.2 1.55 1.3s.26.74.71 1.29a2.13 2.13 0 0 1 .1 2.36c-.48.65-.22 1.75.1 1.75s1-1.17 1.1-1.81.74-.62 1.26-1.3-.78-.84-1-1.71 1-1.65 2.1-.94 1.59 1.2 1.65.1-3.49-2.56-4.33-3.07-.3-1.36-1.62-1.3-2.91-1.58-3.4-3.5-2.55-2-3.07-3.13.48-1.26 0-2.2c-.25-.52.31-1 1-1.25a2.29 2.29 0 0 1 1.39-.18.76.76 0 0 1 .38.66c.07.44 0 .93.4.93.58 0 1.65-.07 1.68.71s1.42 2.49 1.94 3.07 1.68.46 1.75.94.9.94 1.88 1a2.14 2.14 0 0 1 .92.38 12.37 12.37 0 0 1 1.12.83 10.83 10.83 0 0 0 1.55 1.15l.11.06c.85.45 1.18.77.6 1.36s-.75 2.69-.07 3.24.83 1.56 1.46 1.86l.1.05a1.8 1.8 0 0 1 1.16 1.87c-.1.81 1 1.1 1.55.52s2 .32 2 .71-1.49-.42-2.33.2.64 1.19.45 1.84a1.25 1.25 0 0 0 1.13 1.52c.75 0 1.59 1.2 2 1s-.55-1.94-.39-2.2 1.07.45 1.52-.06-.32-.91-1-.88 0-.9.78-.42 1.19-.13 1.58-.19.49-1.46-.71-1.78-1 .87-1.81.06.71-.48.71-1.16-1.2-1.65-1.78-2.46.81-1.2 1.13-.61 1.2.48 1.75.25-.58-1.26.42-1.65 1 .3 1.33.42.61-.81 1.65-.81a2.6 2.6 0 0 1 1.47.71 2.42 2.42 0 0 0 1.28.62c.9 0 1.26-1 2-1.26s2.52.1 2.94-.29-1.1-.87-1.65-1.33a2.21 2.21 0 0 1-.54-1.13c-.08-.28-.15-.49-.3-.52-.36-.06-.91-1.55-.45-1.65s1-1.65 1.74-1.87a.61.61 0 0 0 .46-.47 8.8 8.8 0 0 0 0-1.15c0-.68.42-1.72 1.1-1.78s1.22-.07 1.13-1.2a.31.31 0 0 0 0-.1c-.07-1 .14-1 1-1.64s1-2 1.88-2.21a4.91 4.91 0 0 1 2.43-.35c1.23.19-.62 1 .22 1.42s3.43-.13 3.56.52-3 1.29-2.91 1.62 1.65.65 2.2 1-.16 1.36.1 1.68 1.1.07 1.78-.42 1.23-.32 2.1-.9 2.69-.07 2.91-.42-.52-.72-2.2-.59a1.62 1.62 0 0 1-1.78-1.78 4.85 4.85 0 0 1 2.75-1.74 8.17 8.17 0 0 0 2.78-.84 8.13 8.13 0 0 1 1.78-.5c1.05-.2 2.12-.29 2.24-.05s-2.27 1.42-2.72 1.58.87.84.84 1.23-1.42.49-1.29 1.26-.46.94-1.2.94-.94.45-.58.52.32 1 1.71 1.39a9.78 9.78 0 0 1 4.08 2.94 2.46 2.46 0 0 0 .57.45c1.27.74 3.13.55 3.38 1.88.29 1.56 1.16.94.84 2.27a1.65 1.65 0 0 1-.51.75c-1.05.95-3.35 1.61-4.06 1.35-.87-.32-2.55.1-3.81.1s-1.62-.91-2.59-.84-1-.88-1.94-.88-.23-.48-3.27-.87a9.07 9.07 0 0 0-6.63 2c-1 .84-4.47 0-4.79.26s.06 1.23-1.1 1.68-3.72 0-4.6.39-1.19 1.68-.45 1.62 1.13.29.91.61.61 1.23.19 1.62a1 1 0 0 0 .07 1.52c.51.39.61 1.1 0 1.19s1.06.81 1.1 1.14 1.42.48 1.42.87.42.52 1.1.33.94.74 1.36 1.39 2.81.19 2.81-.52.71-.91 1.78-.81 2.46 1.55 3 1.75 1.58-.39 2.26-.39 1.65-1.07 2-1.3 1.07.75 1.69.42 1.29-.68 1.68-.45-.94 1.23-.59 1.75a.9.9 0 0 1 .06.74c-.1.4-.25.81 0 1.1s-.07.93-.17 1.62a1.43 1.43 0 0 0 0 .29c0 .65-1.05 2-1.62 3.28l1 .44.11.05c0 .21 0 .43-.07.64 0-.21 0-.43.07-.64l-1.1-.47a4 4 0 0 0-.35 1 13.78 13.78 0 0 1-1.73 3.9 3 3 0 0 1-.24.34c-.26.26-1.33-.38-2.33-.13a3.68 3.68 0 0 1-2.75-.58c-1-.48-4.14.13-4.57.75s-1.48.61-2.46.22a12.91 12.91 0 0 0-4-1.13c-1.67-.15-3-.39-3.31-.79 0 0-.05-.05-.06-.08-.16-.46-1-.49-2.94-.78s-1.2-1.59-3.34-1.72-4.85 1.59-4.88 2.5 1 1.91.29 2.84a2.3 2.3 0 0 1-3.37 0 6.22 6.22 0 0 0-4-1.45c-1.33 0-2.27-.84-2.17-1.55s-.32-1-1.42-1.26-2-1.14-4-.81a3.55 3.55 0 0 1-2.52-.53c-.53-.34-.85-.73-.85-.93 0-.42-.58-1.13-.9-.74s-1.55.06-1.72-.75.81-.77 1.72-1.52a1.89 1.89 0 0 0 .06-2.94c-1-.78-.29-1.2.39-1.91s.07-1.1-.29-.78-.94.42-1-.35-2.21-.91-3-.17a1.74 1.74 0 0 1-1.18.34 7.63 7.63 0 0 1-2.06-.4 12.16 12.16 0 0 0-2.23.23c-.71 0-2.46 1.16-3 .61s-6.54.42-8.22.48-2.4 1.82-3.4 1.82a5.64 5.64 0 0 0-3.43 1.78 1.11 1.11 0 0 1-.82.37c-.78 0-1.73-.58-2.54-.6-1.14 0-2.88.55-3.72-.39s-1.43-1.23-2-.94-1.75 3.53-2.4 4.47a4.93 4.93 0 0 1-3.33 1.58c-.87 0-1 1.33-1.65 1.88s-.42 1.42-1.23 2.07-.42 2.62 0 3.33-1.49 3-2.58 3.6-1.46 1.87-3.21 2.16a3 3 0 0 0-1.58.78 5.05 5.05 0 0 0-1.2 2c-.39 1-2.82 2.55-2.91 4s-2.37 3.72-3.85 6.82a6.28 6.28 0 0 0-.65 2.06c-.12 1.41.74 1.91 1.23 2.47.68.78-.52 2.14.48 3.53s-.22 3.53-.71 4.3a5.29 5.29 0 0 0-.37 1.91 4 4 0 0 1-.5 1.75c-.71 1.07.29 2.62.81 3.1a.5.5 0 0 1 .13.42c0 .36-.22.84-.29 1.32a1.26 1.26 0 0 0 .25 1 2.68 2.68 0 0 1 .23.26c.55.69.62 1 1.75 1.35s-.1 1 .94 1.65l.25.19c.75.6.68 1.27 1.56 1.91A7.46 7.46 0 0 1 341 229a4.88 4.88 0 0 1 .32.81 4.3 4.3 0 0 0 1.75 2.75c.34.28 1 .69 1.75 1.17s2 1.25 2.84 1.9a29 29 0 0 0 5.11 3.21 1.8 1.8 0 0 0 .54.08c1.31 0 3.68-.93 6.45-1.41a9.43 9.43 0 0 1 4.25.25c.88.25 1.46.55 1.64.59.39.1 3.14-1.16 4.24-1.71.88-.44 1.86-.72 2.53-1.08a3.16 3.16 0 0 0 .45-.28 2.72 2.72 0 0 1 1.22-.49 8.34 8.34 0 0 1 1.46-.13c.7 0 1.12-.92 1.5-.47.39.52 2.24.61 3.27.84a3.25 3.25 0 0 1 2.07 2.23 2.86 2.86 0 0 0 1.17 1.88c.48.26 1.68-.49 2.23-.49s2.52 0 2.91-.32a.27.27 0 0 1 .35 0 5.34 5.34 0 0 1 .91 1.22c.45.65 1.33.16 1.68.35a3.21 3.21 0 0 1 .62 2.14c-.13.41-.66 1.43-.41 1.94a.19.19 0 0 0 0 .07.93.93 0 0 1-.52 1.42c-.68.23-.64.84-.1.87.34 0 .26.3.09.58a2.59 2.59 0 0 1-.38.46c-.29.29.68.68.85 1.1s-1.23.29-1.2.9a1.8 1.8 0 0 1-.88 1.39c-.38.3 1 1.53 1.07 1.94s.36.81 1.59 2 .61 1.44 2.16 2.7l.23.18a6.32 6.32 0 0 1 1.88 2.31 11.38 11.38 0 0 1 .78 2.41 1.74 1.74 0 0 0 .05.22 32.77 32.77 0 0 0 1.92 4.57c.29.62-.36 1.17-.36 2.3s1.23 3.2 1.36 4.59-.78 2.27-1.55 3.18a8 8 0 0 0-1.59 4.2c0 1.26-1.16 2.49-1.13 3.08a19.11 19.11 0 0 1-.29 2.94v.08a5.23 5.23 0 0 0 1.23 2.86 16.9 16.9 0 0 1 2.13 4.47c.49 1.58 1.88 3.36 2.24 4.56s-.26 2.91.09 3.69a14.23 14.23 0 0 1 .78 3.43c.19 1.33.29 4.14 1.49 5.3a10.54 10.54 0 0 1 1.36 1.75 15.09 15.09 0 0 1 1.65 3.5c.51 1.71 1.78 3.33 2.1 4.33s.68 1.94 0 2-.68.68 0 1.78.1 1.75.71 1.88.42.51.91.55.84.51 1.16.93a.91.91 0 0 0 1.43-.09c.35-.52 1.45-.68 2.59-.68s.9-.49 2-.81a6 6 0 0 1 3.37 0 2.32 2.32 0 0 0 2.1-.26c.45-.29 1.33.45 1.39-.29s1-.62 1.81-.62 2.88-1.33 4.5-2.85a41.11 41.11 0 0 0 5.21-6.37 16.2 16.2 0 0 1 3.14-3.49c.55-.51.88-2.3 1-3.61 0-.44.08-.82.1-1.09.06-1-.65-.19-.87-.84s1.58-1.84 3.43-2.52 2.55-1.07 2.75-1.71 0-2.46.22-3.18-.16-1.13-.38-2.75-.82-1.87-1.07-2.78-.2-1.62.35-1.65.55-.29 1-1.16 1-.52 1.84-1.17.91-1.45 2.3-2.52 2.91-1 4.27-1.85 3.69-4 3.46-4.56a14.72 14.72 0 0 1-.55-4.27c.13-1.07-.19-3.88-.19-5.24v-.08c-.06-1.25-1.49-.69-1.55-2s-.84-1.33-.81-2.23.1-1.72-.22-1.81-.13-.88.38-1.66-.93-.87-1.16-1.84a10.57 10.57 0 0 1 1-3.33 46.57 46.57 0 0 1 2.15-4.76c.48-.74 1-.61 1.39-1.13s.55.26 1.19-.78l.19-.26c.86-1.15 3.16-3.35 4.86-5.14a11.5 11.5 0 0 1 3.82-2.91 26.63 26.63 0 0 0 5.44-5.34c1.12-1.43 2.36-3 2.52-4a9.33 9.33 0 0 1 2-3.4c.78-1 2.07-3.56 2-4.34s.65-2.42.75-3.81-1.07-1.52-1.43-.75-3.14 1.3-4.92 1.33-2.84.19-3.49.81-2.27-.16-2.85.52-2.88 1.26-3.62-.3a2.82 2.82 0 0 0-1.12-1.24l-.08.07.07-.07c-.54-.32-1-.37-1.17-.5s.65-.88 1.26-1 .33-.84-.19-1.29c-.09-.07-.18-.17-.29-.27a24.56 24.56 0 0 1-2.33-2.61c-1.23-1.55-2.69-2.39-3.46-2.39s-.91-1.33-1.39-1.4-1.59-2-1.62-3.2a6.49 6.49 0 0 0-2.59-3.69c-.78-.35-1.3-1.71-1.3-3.43a19.86 19.86 0 0 0-.48-3.62A4.2 4.2 0 0 0 448 198a2.25 2.25 0 0 1-1.22-1.64 2.59 2.59 0 0 1 0-.88c.16-1-.55-1-1-2.42s-2.27-3.63-2.33-4.47-1.07-1.32-1-2.23-.48-1-1.48-2.43-1.3-3.91-1-4 1.13 2.1 1.46 2.81 1.42 2.89 2.2 2.89 1.07-3.27 1.33-3.11l.05.09c.15.46-.08 2.35.37 2.5s.74 1 1.77 2.17 3.14 4.17 3.17 4.91a3.09 3.09 0 0 0 1.69 2.43c1.29.87 1.29 1.94 2 2.46s.52 1.13.55 2.42a4.63 4.63 0 0 0 1.78 3.69 5.57 5.57 0 0 1 2.46 2.81 10.12 10.12 0 0 0 2 3.34c.74.74.32 1.13.74 1.68a5.4 5.4 0 0 1 .72 1.27 2 2 0 0 1 .19 1.35 4.92 4.92 0 0 0 .65 3.49c.68 1 .42 2.85.74 3.21s2.85.29 4-.46a4.59 4.59 0 0 1 2.82-.87 3.89 3.89 0 0 0 2.39-1.17c.29-.39 1.62-.42 2.17-.35s1.1-.55 1.71-1.17 2.56-.87 4.63-1.52 1.62-1.61 2.1-2.2 1-.34 1.87-.7a3.54 3.54 0 0 0 .56-.27c1.23-.71 2.62-.35 3.56-.61s0-1 .84-1.72 2-.16 2.39-.39.71-1.71 1.43-2 1.48-.1 1.39-.71.06-2.82.74-3 1.75-.84 1.78-1.23a24.23 24.23 0 0 1 1.81-2.55c.42-.71.46-1.1-.16-1.2s-1.58-1.81-1.84-2.3-2.14-.16-3.66-1.36a4.15 4.15 0 0 1-1.18-2.32c-.32-1.35-.37-2.7-.6-2.72-.39 0-2 1.68-2.62 2.94a4.17 4.17 0 0 1-4.14 1.94 2.73 2.73 0 0 0-2.59.68c-.11.08-.28 0-.46-.13a2.88 2.88 0 0 1-.91-1.4.8.8 0 0 1 0-.6c.42-.72.68-2.56-.26-2.82s-1.46 1.62-1.46 2.14c0 .09-.06.09-.16 0-.43-.3-1.56-1.91-1.17-2.36s-.26-1.72-1-2.37-2.16-1.84-2.23-2.58a4.51 4.51 0 0 0-.27-.93 22.66 22.66 0 0 1-1.06-2.76.55.55 0 0 1 .2-.37 2.44 2.44 0 0 1 1-.51 1.78 1.78 0 0 1 .53-.09c.58 0 .55-.65 1-.26s1.07 0 1.52-.07 1.68 2.3 2.23 3.43.52 1.52 1.27 2 1.58.23 2.65 1.33 3.81 1.84 5 1.9 2-1.26 3.53-1 1.13 2.2 1.68 2.88 6.6 1.14 7.63 1.43a13.73 13.73 0 0 0 2.3.2c0-.22-.05-.41-.06-.55 0 .14 0 .33.06.55 1.76 0 3.85-.05 4.08-.3a1.47 1.47 0 0 1 1.68-.26 5.33 5.33 0 0 0 3.53 0c1.06-.59 1.71 0 1.74.52s.52.74 1 1.19.13 1 .45 1.49 1 .42 1.91.84a2.07 2.07 0 0 1 .35.22c.65.52.93 1.44 2 1.85 1.26.49 2.39-.8 2.39.13s-3 .75-3 1 3.08 4.08 4.66 3.78 2.75-2 2.3-2.26.26-1.33.68-1.13.06 1.87.55 2.26.32 1.1 0 2 .32 2.68.42 3.69.78 2.45 1 3.94a23.32 23.32 0 0 0 2 5.86c.88 1.65 1.55 4.88 2.14 5.66s2.07 3.14 2.07 4.59 1.58 3.5 2.13 3.89 1.75-.46 2-1.36 1.94-1.26 2-2 .26-1.39.84-1.49.58-.71.58-1.55a4.73 4.73 0 0 1 .65-2.78 4.7 4.7 0 0 0 .32-3.56 3.91 3.91 0 0 1 .16-2.75c.33-.81.2-1.75.81-1.81a3.65 3.65 0 0 0 2.17-1.49 23 23 0 0 1 3.33-2.66 21.56 21.56 0 0 0 3.53-3.55c.65-1.07 2.49-1.43 3.33-2.3s.52-1.33.68-2.27 2.88-1.32 3.92-1.32a2.84 2.84 0 0 0 .54 0c.61-.12.9-.41 1.46-.41.72 0 1.69-.09 1.75-.84s.87-1.29 1.33-1.07a5.3 5.3 0 0 1 1.16 3 3 3 0 0 0 .34 1.11 4.6 4.6 0 0 0 2.06 2.16c1.26.52 2.1 3.07 2.49 4.43a4.77 4.77 0 0 1-.33 3.53c-.45.78.16.81.91 1.2s1.58.51 2.13-.26 1.69-1.33 1.85-2.2.68.42 1.13.87a4 4 0 0 1 .87 2.43c.1 1.1.2 3.85 1.14 4.72a4 4 0 0 1 .84 3.46c-.26.68.48 1.85.29 2.59 0 .15-.08.36-.13.6-.18.94-.41 2.42-.61 3.22-.26 1-.46 1.87.13 1.94s1.74 1.39 2.87 2.81a5.2 5.2 0 0 1 .66 1.09 8.41 8.41 0 0 1 .6 3.35c0 1.29 2 3.36 2.24 4.2s.84 1.1 2.1 2 3.72 2.36 4.21 2.14-.75-2.37-1.46-3.11-.06-2.75 0-4.21-1.36-1.29-1.68-2.29-.88-.43-1.07-1.07a1.07 1.07 0 0 0-.17-.31 4 4 0 0 0-2.52-1.47c-1.1-.1-1.62-1.75-1.52-2.49s-.81-1.39-.81-2-.64-.68-1.39-1 .16-2.55.26-3.49 1.65-3.62 1.2-4.46 1.58-1.49 1.84-.56.36 1.4 1.65 1.33 1.3.94 2.33 1.23l.16.07c.82.36.49 1.39.59 2s.9.26 1.36.22-.3.72.09 1.17 1.52-.39 1.75.16a1.27 1.27 0 0 0 .2.34 3.37 3.37 0 0 0 1 .73c.52.32-.64.87-.61 1.91s.81 1.29 1.1.87a6.47 6.47 0 0 1 2-1.52c.49-.16 0-.87.52-.84s.36-.74.58-1.17.59-.25 1.36-.22 1.88-.71 3-1.43 1.29-.87 1.71-2.91-.48-4.46-.51-5.08-1.53-3.46-2.07-3.42-3.08-2.56-3.53-3-.33-1.13-1-1.69-.71-2-.55-3 1.58-1.23 1.55-1.91.13-1.26.84-1.29a2.44 2.44 0 0 0 1.72-1.14.46.46 0 0 1 .18-.16c.42-.2 1.17.14 1.34-.35s.9-.43 1.19.06.62.58 1.27 0 1 .58.58.91-.13 1.32.48 1.91.72-.36.59-.94 1-1.17 3.07-1.85 4.24-2.17 4.27-2.49 1.46.58 2.14.07 3.13-.59 3.78-.62.62-.58 1.3-1.13.51-.81 1.29-1a1.72 1.72 0 0 0 1.26-1.32c0-.39 1.46-.52 1.49-.94s1.1-.55 1.1-1.07.65-.42.94-.81-.23-1.52.29-1.68-.19-.78-.29-1.07 1-.35 1.52-.71a2.21 2.21 0 0 0 1-1.52c.1-.61 1-1.16 1.42-1.33s.59-1 .46-1.78.74-.55.36-.84.16-1.1.93-1.32-.48-.59-.9-.26-.88-.94-1.27-.46-1.48-.29-.77-.45a22.51 22.51 0 0 0 2.3-1.13c.48-.16-.72-1.23-1.33-1.2s-1.29-1.42-1.94-1.42.48-.45 1.23-.07 1.61.72 1.94.39-1.26-1.61-1.85-2.07 0-1.07-.38-1.33a9.27 9.27 0 0 1-1.4-2.65c-.25-.74-1.61-.87-1.94-1.36s0-1.61 1-2 .58-1.27 1-1.17.84-.1 1.2-.84 1-.29 1.33-.68 1.94-.36 2.49-.74-.52-1.59-1.26-1.4a2 2 0 0 1-2.14-.87c-.52-.78-1.87 1.42-2.91 1.91s-1.71-.87-1.36-1.75-.81-.84-2.26-.77-.91-2.59 0-2.72 2.17.81 2.72-.81 1.33-.36 2.56-1.78 2.65-2.3 3.72-1.46-1.13 2.17-1.49 3 .32 1.07-.32 1.68.25.78 1.52 0a26.16 26.16 0 0 1 4-2.26 2.36 2.36 0 0 1 1.06-.14 3.93 3.93 0 0 1 2.5 1.24c.62.77-.71 1.65-1.29 2.36s.35.74.38 1.32.81 1.07 1.11.55.77-.32 1.68-.32a.55.55 0 0 1 .51.3c.25.41.2 1.11.68 1.16a.47.47 0 1 1-.13.93c-.74-.16-.74 1-.09 2s-1.23 2.14-.71 2.65.09 1.14.32 1.46 3-.13 4.17-1.36 1.52-1.07 2.14-.9 1.23-.46.9-.94a5.7 5.7 0 0 1-.58-3.17c.06-.87-1.12-2.43-2.26-3.68a13.73 13.73 0 0 0-1.94-1.82c-.75-.46-.3-1.72.61-1.94s3.14-1.95 3.82-2.33.23-1.65.77-2.66a12 12 0 0 1 2.44-2.36l.54-.4a4.9 4.9 0 0 1 1.81-1c.81 0 1.62 1.39 2.53 1.42s5-2.72 5-3.17 2.43-2.75 3.56-3.94a18.3 18.3 0 0 0 3.21-4.31 34.74 34.74 0 0 1 2.32-3.1 12.46 12.46 0 0 0 1.37-2.24c.71-1.52.71-5.5.93-5.76s.1-.93.42-1.35.16-1 .81-1.56a1.11 1.11 0 0 0 .36-1.45c-.16-.42 0-1.36-.13-1.65s-.13-.42.26-.65-.26-.81-.81-1.07-1.26-.48-1.33-1.1a1.81 1.81 0 0 0-1.71-1.29c-.71.06-2-.39-1.88.06s-.07.84-.42.75-.52.19-.94.84-1.91.71-1.23.1-.22-.65-.1-1.3.68-1.29-.06-.87-.74 1.42-1.36 1.55-.42-1.75-.26-2.23-1.13 0-2.49-.07-1-1 .1-1.61.9-1.14 1.45-1.36 2-1.17 2.82-1.65a2.48 2.48 0 0 0 1.2-1.59c.19-.55 1.74-1.23 3.13-2.36a8.34 8.34 0 0 0 2.4-2.46c.32-.68 2.39-1.52 2.43-2s2.45-1.81 4.1-2.13 4.27.09 4.76.58a.68.68 0 0 0 1.13 0c.3-.33.94-.17 2 0s1.36-.51 2.1-.29 1.36.36 1.82-.51 2.58-.72 3.07-.36.87.84 1.65.32.78.68 1.52.78.26.74-.39.68-1.45.32-.71.75 1.62-.39 2.2-.33a3.47 3.47 0 0 0 2.3-.39c.81-.52 1 .42 1.55 0a3.85 3.85 0 0 1 2.27-.55c.58 0 .09-.68-.88-.68s-.94-.52-.16-1.84 2.26-2 3.2-2.85 1.62-.42 1.62-.94.45-2 1.17-2 2.49.29 3.59-.33 1 .45 1.45.62 1.07-.94 1.59-.62-.78 1.1-1.07 2 .68.58 1.23.84-.71.65-.58.91 1.23.26 2.65-1.17a4.67 4.67 0 0 1 3.62-1.71c.91.1.39-.81.46-2.14s2.84-1.71 3.75-1.32.84.74 0 .51-1.69.55-1.65 1.65-.78 1.46-.36 1.88-.61.52-.65 1 0 .81-.64 1-2.82.42-2.88 1.26-1.23.94-1.78 2-2.66 1.65-4 3.72-3.59 2.07-3.59 2.46-1.52.35-2 .42.49 1.32-.74 2.65a7.41 7.41 0 0 0-2 5c0 1.84.65 7.15 1.2 8.09s.23 3.23.68 3.72.29 1.29.58 1.58 1.49-1.29 2.3-2 .55-.91 1.1-1.26.32-1.85.49-2.24 1.16-.58 1.48-1 1.17-.16 1.62-.32 0-1.23-.19-1.85 1.32-1.45 2.1-2 1.75.35 2.62-.46-.06-1.74-.39-2.16.88-2.46 1.56-2.66 1 .49 1.68-.1-.58-1.52-1-1.45-.61-1.65.46-2.46.64-1-.07-1.16-.84.06-1.39.09-1.1-1.13-.26-2.26 1.65-1 1.85-1.94a10.36 10.36 0 0 1 1.65-2.75c.29-.49 1.45 0 1.9-.1s.3.87.85.39 1.45-2.1 2.2-2.1.25 1.19.45 1.9.61-.19 2-1.16 4.52-.87 5.46-.42 1.1 1.52 1.62 1.39c.79-.19.13-1.07.91-1.29a13.81 13.81 0 0 0 3.2-2c1-.75.74-.2 1.29-.88s1.1-.38 1.26-.84 1.65-1.19 3.69-1.65 4.69-1.81 4.56-2.23.78-.62.88-.19.87.25 1.94.48 1.55.65 2.39-.19-.09-1.14-.06-1.78-1.46-1.33-1.26-2-1.1-2.49-1.49-2.13-1.3-.3-1.3-.81-.06-1.13-.68-.75-1.65.2-1.84-.38 1.2-1 2.17-.62.68.78 1.16 1.07a3.57 3.57 0 0 0 2.49-.1c.68-.33 2.59-.94 2.92-1.49s0-.81.61-1.13.16-1-.39-1.3a.55.55 0 0 1 .16-1.08c.59 0 .43-.68.81-.71s.46.29 1.17-.06 0 .55-.29 1.16.68 1.13.77 1.49 1.49.49 2.27.06 3.27.52 3.43 1.14a2.77 2.77 0 0 0 1.55 1.87c1 .52 2 .3 2.17.78a.92.92 0 0 0 1.16.61c.59-.12.91.52 1.33.13s.65.23 1.2-.25-1.2-.81-1-1.2.58.29 1.06.26-.13-1 .23-1.07.07-2-.32-2.17-.04-.83.71-.28zM445.46 280.1c-.56.82-2.18-1.75-2.37-3.35s.92-2.38.24-3.88c-.57-1.26-.92-2.47-.52-2.84a.46.46 0 0 1 .32-.12c.74 0 1.62 2.8 1.58 4.43a2.33 2.33 0 0 1-.12.76c-.42 1.1.88 3.58.94 4.63a.57.57 0 0 1-.07.37zm-53.39-100.44a.69.69 0 0 0 .13-.11.69.69 0 0 1-.13.11zm-.84.62a.23.23 0 0 0-.07.07.23.23 0 0 1 .07-.07zm-.12.12a.24.24 0 0 0-.06.11.24.24 0 0 1 .06-.11zm.21-.19l.08-.06zm55.42 58.13l-.16-.08zM438.48 307a.81.81 0 0 0 0 .17.81.81 0 0 1 0-.17zm-1.56-8s-.07-.06-.12-.09.11.09.12.09zM435 266.46c-.5-.81-1-1.9-1.6-2.23-1.07-.58-1.51-7.91-1-8.1.07 0 .13.05.2.2a15.32 15.32 0 0 1 .55 2.27c.33 1.66.73 3.62 1.34 4.17 1.11 1 .92 2.19 1.16 2.87s1.21 1.45.53 1.74c-.37.19-.76-.28-1.18-.92zm-33.76-22.6zm2.29-12.67l.12.31zm-.25-.72c.05.18.12.36.18.54zm.59 1.47c0-.08-.09-.16-.14-.26.08.1.12.18.17.26zm-2.75 12.35zm-.57 0zm.93-.44h.16zm19.05-17.7v.07zm-.21-.29v.07zm-.24-.32zm15.46 28.4h.08zm.27-.08a.6.6 0 0 0 .11-.06.6.6 0 0 1-.08.06zm-.56.13zm-.81-2.53l.15-.05zm1.58 2.28a.39.39 0 0 0 .11-.17.32.32 0 0 1-.08.17zm-1.28-2.38l.21-.06zm.35-.1l.25-.07zm-6.46-14l-.54-1.34.51 1.26zm-23.21 5.54a1.07 1.07 0 0 0-.13.21 1.37 1.37 0 0 1 .16-.26zM404 232.05a1 1 0 0 0 .2.24.79.79 0 0 1-.2-.24zm-2.85-12.34h-.1a.7.7 0 0 0 .23.06zm-.36-.19l.07.07zm-.79 24.33h-1zm.42 0zm18.76 44.44h-.06zm.89-.17zm-.3.05zm1.6-.24zm.37-.05h-.17zm.36 0h-.18zm.39 0zm1 .21a.12.12 0 0 0 0-.08.12.12 0 0 1 .01.04zm-.07-.1h-.08zm-.14-.06h-.12zm-.2 0zm-.24 0zm9.41 10.22c0-.34-.11-.83-1.07-.92 1 .09 1.07.58 1.07.92zm2.49-16.15l.38-.14zm6.71-11.78zm.13.25a.54.54 0 0 1 .05.11.54.54 0 0 0-.05-.11zm.15.3l.06.14zm.27.63l.06.17zm-.13-.31l.07.16zm.28.78v-.16c0-.06-.01.11 0 .16zm-5.68 9.48h-.1zm-.93.35h-.12zm-.05-30.55l1-.27zm1.51-10.61zm.24-.08h.07zm.25-.07h.12zm.23 0h.2zm-38.25-22a.4.4 0 0 1 .21 0 .4.4 0 0 0-.19-.02zm-1-22.15l.26.05zm.51.1l.28.09zm-1-.18h.24zm-.48 0h.19zm1.5 47.74h-.47zm36.25 54.86zm1.42.16h-.11zm-.34-.06zm5.85-26.86a.75.75 0 0 1 0 .2.75.75 0 0 0 0-.2zm-.45-19.05c-.63.29.87 1.22.14 1.36s-2.37-.68-3.54-.19c-.78.32-.62-1.64 0-3.36.4-1.14 1-2.17 1.66-2.37a6 6 0 0 1 2.92.08c.86.21 1.5.54 1.45.79-.1.54-1.55.3-1.55 1.41a1.5 1.5 0 0 1 0 .22 2.3 2.3 0 0 1-1.08 2.03zm5.19-14.5l.36.14zm-42-42.36l-1.92 1.03-1.74.94zm-5.47.41a2.36 2.36 0 0 1 .39.2 2.36 2.36 0 0 0-.37-.23zm-2.78-.41zm.54 0zm-.35 0zm-4.6-16.59a1.12 1.12 0 0 0 .16-.22 1.12 1.12 0 0 1-.14.19zm-.33.29l-.11.08zm-20 44.72a1 1 0 0 0 .36 0 1.09 1.09 0 0 1-.29-.03zm4.74-3.13a.6.6 0 0 0-.22 0 .6.6 0 0 1 .26-.03zm-5.52-20.9l.07.05zm.37.26l.25.17zm.45.32a2.5 2.5 0 0 1 .24.16 2.5 2.5 0 0 0-.21-.22zm-19 25.21zm-.17.08zm-1.07 6.35zm.05-.25zm-6.7-11v-.66c.08.14.08.38.07.58zm-2.1-5.2zm2.11 4.1v-.22c0-.05.06.05.07.14zm0 .33zm0 .94v.26s.05-.2.06-.34zm-2.24-5.63a.21.21 0 0 1 0-.06zm-.2-.27l-.07-.09zm-.27-.26l-.08-.07zm4.87 15a.27.27 0 0 1 0 .09.55.55 0 0 0-.07-.24 1 1 0 0 1 .13.1zm5.12 1.35a1.07 1.07 0 0 1-.14.16 1.07 1.07 0 0 0 .2-.21zm-.73-44.23zm.23.14l.07.05zm.37.24zm.95.62h.06zm.57.36l.09.06zm.61.4l.14.1zm3.62 36.46zm.92.53zm4.91.93a.77.77 0 0 1-.24-.17.77.77 0 0 0 .3.12zm.09 0a.17.17 0 0 0 .1 0zm.24-.08zm6.11-11.48h-.23zm-.4 0l-.28-.06zm-.32-.07a.53.53 0 0 1-.2-.1.53.53 0 0 0 .26.03zm1.45 8.76h-.23zm.7.13h-.27zm4.17-2.49zm.16-.42v.05zm-.1.18s.08-.06.08-.07zm.24-.32h-.07zm.19-.07h-.11zm1.42 1.16zm.45-.23a.72.72 0 0 0 .05-.27.68.68 0 0 1 .01.2zm1.29-16h-.15l.44-.09zm-6.92-4.79a1 1 0 0 1 .14.12 1 1 0 0 0-.08-.18zm-.26-.19l.18.14zm-32.72 20.43a.69.69 0 0 0 .2-.13.69.69 0 0 1-.14.07zm.48-.81v.19zm0 .21a.83.83 0 0 1-.06.21 1.66 1.66 0 0 0 .08-.27zm-.1.27a.55.55 0 0 1-.09.14.55.55 0 0 0 .1-.2zm.14-.5a1 1 0 0 0 0-.19 1 1 0 0 1 .02.13zm7.13 10l-.09.27zm0-.11a.62.62 0 0 0 0-.19.62.62 0 0 1 .04.16zm10.47-5.06zm11.7-1a.14.14 0 0 0 .06.07.14.14 0 0 1-.02-.08zm.07.06s.06-.01.04-.01zm.06 0c.11-.15.23-.65.71-.61a.42.42 0 0 0-.26.05c-.23.08-.33.41-.41.52zm26.27 18.89l-.4.12-.54.15zm38.29 54.63zm.75.33zm-.32-.07h-.07zm26.11-76.35v-.06zm.32-.46l.05-.07zm.27-.42zm-12.67-6.79a.28.28 0 0 1 0 .09.28.28 0 0 0 .04-.13zm-.05.37zm.17 1.5c0-.24-.09-.48-.12-.72.07.25.12.44.16.68zm-.13-.75v-.36c.01.08.03.2.04.32zm174.65-86.82a1.73 1.73 0 0 1 .27.15zm.48.37a.44.44 0 0 0-.17-.19.5.5 0 0 1 .17.19zm-.49-.37a3.06 3.06 0 0 0-.83-.2 3.06 3.06 0 0 1 .83.2zm-.87-.2zm-.41 0a1.22 1.22 0 0 0-.3.06 1.22 1.22 0 0 1 .3-.07zm-19.26 87.68zm0 .47zm0 .67zm-22.94-32.66zm-75.84-2.47l-.17-.18zm-13.34-30.81a1.37 1.37 0 0 0 .28.3 1.37 1.37 0 0 1-.26-.31zm.88.57zm6.65-11.74c.72-1 1.67-.18 2 .06s.13-1.1.91-1-.07 1.29.51 1.29 1.49 1.61 1.17 2.87a1.63 1.63 0 0 1-.65.95c-1.62 1.16-3.17 1-2.65-.46s.58-3.1-.26-3.1-.26 3-.91 3.17-.79-2.16-.31-3.38a1.59 1.59 0 0 1 .21-.41zm45.3-2.66c.45.13-.45 1-2.27 1s-5.82-.91-7.44.84-.45 2.65-1.16 2.78-1.17-2.65-.26-3.56 3.82-1.29 5.63-.84 5.12-.36 5.52-.23zm2.84 43.63l-.06.06zm.15-.15zm-3.53-10.48zm0-.34v-.1c0-.03.03.06.03.09zm-.09-.39v.08zm-.07 1.56a2.19 2.19 0 0 0 0 .31 2.19 2.19 0 0 1 .03-.32zm-10.93-14.38l-.39.05zm-6.95-1.83zm-1 0zm1.3-.06h.15zm.58-.07h.09zm.4-.08h.13zm.34-.1h.09zm-7.22 8.58l-.17-.07zm-.29-.13l-.19-.12zm.79 0a.31.31 0 0 1-.17.17.31.31 0 0 0 .24-.18zm-.24.19zm7.77.81h-.09zm.55 0h-.1zm-.31 0zm.73-.17l-.17.06zm3.18-1.92a4.24 4.24 0 0 0-1.56 1 4.24 4.24 0 0 1 1.63-1zm1.31.64h.12zm.35.06h.17zm12.73-12.92a.39.39 0 0 0 0-.15.36.36 0 0 1 .07.15zm0-.31v-.41c.09.15.11.29.11.41zm1 30.85a.25.25 0 0 0 0-.14.27.27 0 0 1 .09.14zm-22.62-29.29zm-.23-.06zm-.28 0h-.15zm-.76.19a2.83 2.83 0 0 1 .42-.13 2.83 2.83 0 0 0-.3.12zm-19 15.9a.08.08 0 0 1 .12-.01zm-.16.19a.43.43 0 0 0 0 .07.43.43 0 0 1 .13-.08zm-.11.26a.24.24 0 0 0 0 .08.24.24 0 0 1 .13-.09zm.7-.66zm11.43-4.85a2.14 2.14 0 0 1-1.27-.28 2.14 2.14 0 0 0 1.4.27zM504.39 139c-.26.36-2.82-.31-3-.83s3.61.08 3 .83zm13.71 24a.93.93 0 0 0-.23 0 .93.93 0 0 1 .23 0zm.25.12l-.17-.08zm.27.16l-.17-.1zm15 0a1.38 1.38 0 0 1 .39.25l.39-.08-.39.09a1.21 1.21 0 0 0-.41-.25zm1 .14h-.12zm6.36 4.29zm.23.31v-.06zm4.92 13.52l-.05.07zm-.13.19v.06zm.67-.71a.12.12 0 0 1 0-.05.12.12 0 0 0-.06.03zm.2-.22l-.06.07zm13.42-50.46zm2.32 55.45a1.08 1.08 0 0 0 .17-.19 1.08 1.08 0 0 1-.23.2zm.86.94a1.29 1.29 0 0 0 0 .48 1.29 1.29 0 0 1-.06-.47zm.12.95a1.32 1.32 0 0 1-.14-.45 2 2 0 0 0 .08.46zm6.33-1.27h.06zm-.24.11zm.43-.2h.1zm.21-.08h.09zm.2-.07h.07zm-8.57-55.36zm.11 55.34zm-.09.16zm.57-.46h-.09zm1 1.84l.12.21zm.13.22l.12.15zm.15.18a.41.41 0 0 0 .11.07.41.41 0 0 1-.12-.06zm.15.09a.23.23 0 0 0 .14 0 .23.23 0 0 1-.11.01zm15.19-3.7zm19.56 33.4a3.94 3.94 0 0 1-.68-.31 4.32 4.32 0 0 0 .67.32zm-9.26-16.21zm-2.8 1.51l-.17.11zm.34-.18l-.29.14zm.17-.09h.06zm.22-.2a.1.1 0 0 1 0 .05.1.1 0 0 0-.03-.01zm2.75-3.83a.4.4 0 0 0 .25.09.4.4 0 0 1-.28-.05zm.31.1a1.05 1.05 0 0 0 .33-.06 1.05 1.05 0 0 1-.36.08zm.7-.24l-.14.09-.16.06zm.45-.38a1.45 1.45 0 0 1-.34.31 1.45 1.45 0 0 0 .31-.27zm6.4 19.21a1 1 0 0 1-.27-.23 1.14 1.14 0 0 0 .27.23zm.87.42s.03.01.01.01zm.23-96.49c.88-1.94 4.19-2.94 5.83-5.53 1.16-1.85 2.13-4.66 2.81-4.47s-.58 6.12-2.43 7.77-5.53 2-5.53 3.4-4.46 2-4.85 1.45 3.31-.68 4.18-2.62zm-37.92 9.24a3.33 3.33 0 0 0-.38-.05 2 2 0 0 1 .39.05zm-.67-.15zm-.58-.64zm-67.87 22H492zm-.1.06h-.11zm-.15.07h-.15zm-.44 0h-.18zm-.26-.08l-.2-.12zm-35.3 23.33zm-.13 0zm-.11 0h-.8zm5.53-12.76l.82.25zm7-5.1a1 1 0 0 1-.32-.22 1 1 0 0 0 .33.28zm-.39-.3a1.06 1.06 0 0 1-.12-.2 1.06 1.06 0 0 0 .13.26zm-.17-.3a1.66 1.66 0 0 1-.06-.21 1.66 1.66 0 0 0 .07.27zm2.51 1.48a4 4 0 0 0 .5-.06 4 4 0 0 1-.49.12zm-1.29-5a.47.47 0 0 1 0 .26.47.47 0 0 0 .01-.21zm-.12-.29l.09.19zm-.58-1s.02.07.01.06zm-.69 4.23l-.09-.16zm-.13-.21a.46.46 0 0 0-.12-.12.46.46 0 0 1 .13.18zm-.44-.25a.79.79 0 0 1 .26.09.79.79 0 0 0-.26-.09zm-.64 1.07zm-1.77-3a.08.08 0 0 0 .01.1zm4.66 28.7zm-.23 0zm.81.08zm-.31 0zm1.43-24.42a3.82 3.82 0 0 0 .48-.15 3.82 3.82 0 0 1-.47.2zm.66-.22a8.62 8.62 0 0 0 1.39-.82 7.94 7.94 0 0 1-1.38.87zm-.14-7.21h.08zm1.87 6.15l.32-.22zm-3-6.82l-.2-.11zm-.28-.14a.31.31 0 0 0-.2 0 .31.31 0 0 1 .17.05zm-54.11 3.12zm-1.13-3.59l-.47-.32c.34.22.6.41.6.41zm3.89-.37a.3.3 0 0 0 0 .18.3.3 0 0 1 0-.15zM428 111a1.25 1.25 0 0 1 .26-.25 1.25 1.25 0 0 0-.26.25zm-6.87 13v-.09zm0-.19v-.15zm0-.2v-.21zm0-1.42a1.44 1.44 0 0 0-.05.24 1.44 1.44 0 0 1-.08-.25zm-.05.28a2 2 0 0 0 0 .26 2 2 0 0 1-.08-.27zm0 .28zm0 .63a3 3 0 0 1 0-.31zm-1.56 10.42a.23.23 0 0 0 0-.16.23.23 0 0 1-.11.15zm-.83 10.76a.63.63 0 0 0 .12-.1.63.63 0 0 1-.23.09zm.11-.78zm0-.14a1 1 0 0 1 0-.24 1 1 0 0 0-.14.23zm-.57-11.4a.75.75 0 0 0 .08.27.75.75 0 0 1-.22-.28zm.11.33a1.56 1.56 0 0 0 .2.27 2.34 2.34 0 0 1-.34-.28zm.26.33l.2.17-.11-.08zm.6.4a1.2 1.2 0 0 1-.3-.15 1.68 1.68 0 0 0 .3.15.89.89 0 0 1 .24.13.89.89 0 0 0-.38-.14zm.05-2.74v-.12zm0-.14a6.1 6.1 0 0 0-.12-1.13 7.1 7.1 0 0 1 .01 1.12zm-.12-1.29a.41.41 0 0 0 0 .12.41.41 0 0 1-.13-.13zm-3.73 9.52l-.11.07zm-.52.32l-.13.08zm-.3.2c-.06 0-.11.08-.12.13a.46.46 0 0 1 .01-.14zm4.06 9.47a1.4 1.4 0 0 0 0-.29 1.4 1.4 0 0 1-.11.28zm.22-4.27zm.46-10.34a.63.63 0 0 0 .18-.19.63.63 0 0 1-.29.16zm.22-.44a.47.47 0 0 0-.06-.09h.05s-.11.07-.1.08zm7.88-.55l-.11.06zm.75-.3l-.29.1zm-.4.14l-.21.09zm.89-.29l-.41.12zm.79-.2l-.29.06zm-.36.08l-.38.11zm.73-.15l-.27.05zm1.05-24.2a.76.76 0 0 1 .15.25.76.76 0 0 0-.26-.26zm.18.31l.09.29zm-1.1-2.79a1.54 1.54 0 0 1-.23-.29 1.54 1.54 0 0 0 .12.28zm-.37-.56l.07.14a.67.67 0 0 1-.18-.15zm-8.37 11.34a.42.42 0 0 0 0-.22.35.35 0 0 1-.11.21zM421 116a.31.31 0 0 1 .05.1.31.31 0 0 0-.05-.1zm-.11-.11l-.1-.09zm-.37-.27l.12.08zm-.31-.15l.15.07zm-.59-.2h.16zm.28.08l.16.06zm-.5-.13h.15zm0-1.27v-.28c0-.07-.01.14-.02.25zm-12.05 19.24a1.74 1.74 0 0 1 .11.18 1.74 1.74 0 0 0-.13-.21zm-.41-.86v.07zm.28.61zm-1.34 4.9h-.05l-.1.09zm-.16.14l-.17.14zm1-6.22zm-5.93.16a.17.17 0 0 0 0-.1.12.12 0 0 1-.01.07zM403 125a1.24 1.24 0 0 0 0-.16 1.24 1.24 0 0 1 0 .16zm-3.15 7.49zm-.17.12zm-1.72 5zm7.31.73l-.11.09zm-.42.3h-.07zm7 3.8c0 .05 0 .11.05.18s.02-.19 0-.24zm.06.25a1.12 1.12 0 0 1 0 .21 1.12 1.12 0 0 0 .09-.27zm-.4 3.23l-.07.06zm-.22.2l-.11.12zm-.25.3a1 1 0 0 0-.13.16 1 1 0 0 1 .18-.22zm.63-.58s.06 0 .09-.08 0 .02-.04.02zm.32-1.59v-.91c.06.23.06.54.01.85zm-.21 1.48a1.11 1.11 0 0 0 .07-.2 1.11 1.11 0 0 1-.02.14zm.08-.25l.06-.3zm.06-.31v-.39c.08.08.08.22.08.33zm0-.45v-.43c.08.09.08.23.08.37zm0-1.8v.4c.08-.2.08-.32.08-.46zm1.89 6.26h-.07zm-.33-.2h-.08zm-.31-.17l-.09-.05zm-.29-.14h-.07zm5.53.36zm8.75 1.46a.43.43 0 0 1 .08-.06zm0 .19zm0-.29zm5.35-11.39v.06zm-.12.25l-.05.07zm-.19.29a.25.25 0 0 1 0 .07.25.25 0 0 0 0-.11zm-.21.31a.43.43 0 0 1 0 .07.43.43 0 0 0 .01-.11zm-.22.31zm1.54-75.64zm.31-.39zm.22-.2zm.23-.14zm.25-.1h.05zm4.11 57a2.49 2.49 0 0 0 .08.32 2.49 2.49 0 0 1-.08-.38zm-21.25-54.2l-.18-.14zm-1.05-.86zm-.59-.45l.21.16a4.61 4.61 0 0 0-.43-.29zm13.88 39.54v.08c0 .08-.01-.06 0-.08zm-18.6 24.62a1.32 1.32 0 0 0 .3.28 1.16 1.16 0 0 1-.3-.28zm-.13-.19l-.12-.18zm-.31-.51l-.06-.11zm-7.32-3.95a1.48 1.48 0 0 0 0-.21 1.48 1.48 0 0 1 0 .21zm0-.3a.57.57 0 0 0-.13-.27.57.57 0 0 1 .07.27zm-11.44 10.83zm-.09 1.08v-.13c0-.05-.03.1-.03.13zm1.54.53zm-9.27-9a.23.23 0 0 0 0 .18.23.23 0 0 1-.03-.22zm0 0a.73.73 0 0 1 .14-.18 1 1 0 0 0-.14.19zm1 2.14zm-.71-2.48l.06-.07zm-.39-1.85v-.55c-.01.14-.02.32-.04.48zm.06-.65v-.33c-.01.04-.03.14-.04.26zm.07-.49a1.45 1.45 0 0 1 .11-.4 1.45 1.45 0 0 0-.15.33zm-.75 5.19zm.34 0zm2.58 11.22c-.25-.14-.44-.48-.25-1.06-.21.59-.02.92.25 1.06zm.8-5.71zm.31-1.57c0 .1 0 .2-.05.31-.01-.11 0-.21.02-.31zm-.07.47v.13s-.04-.09-.04-.13zm6.23 2.76h.15zm.46.17l-.15-.07a2.37 2.37 0 0 1 .42.22 1.17 1.17 0 0 0-.3-.18zm4 .45zM410.11 148a.71.71 0 0 0 0 .26.71.71 0 0 1 0-.26zm.74-1.28l-.21.3zm-.32.47l-.16.27zm-.25.44a2.35 2.35 0 0 0-.11.24 2.35 2.35 0 0 1 .11-.29zm1.52 2zm.25-.48zm4.23 4.08zm11.17-1.88a2 2 0 0 1 .06.41 2 2 0 0 0-.06-.48zm-.1-.37a3.57 3.57 0 0 1 .1.35c-.03-.19-.06-.33-.1-.42zM439 121.75zm.15 0zm19.62 47.94l-.15.08zm-6.77 3.55h-.09zm-.28.13h-.14zm-.25.1l-.16.05zm-4.37 8.75l-.16-.07zm-.25-7.93a.77.77 0 0 0 0 .15.77.77 0 0 1-.05-.15zm-.36 3.26v.09c0 .03-.05-.06-.05-.09zm-.09.42v.09zm.18 4l-.25-.11zm0-4.86v-.17c0-.06-.07.15-.08.2zm.06-.55a1.94 1.94 0 0 1 0-.24 1.94 1.94 0 0 0-.08.27zm.05-.62a3 3 0 0 1 0-.31 3 3 0 0 0-.08.37zm0-.62v-.31zm0-.41a1.31 1.31 0 0 1 0-.25 1.31 1.31 0 0 0 0 .28zm.12-.72c0-.16.05-.34.07-.53-.02.23-.05.4-.07.56zm-1.16 7.34l.31.17zm35.84 25.25h.15zm-.46.13h.13zm8.72-8.92zm-.29 0h.2c-.25 0-.64 0-1.1-.07zm-.93-.06h-.29zm-.42 0h-.25zm-.45 0h-.21zm-.51-.05zm-1.43-.17zm-.36 0h-.09zm-.32-.05h-.1zm-.27 0h-.08zm-.21-.05zm1.57 7.92l-3.3 1-.21.07c1.04-.44 2.38-.85 3.51-1.24zm3.41-1.21l-.13.06zm-.18.08l-.21.09zm-.27.11l-.37.14zm-.43.16l-.42.15zm-.53.19l-.53.18zm-.56.19l-.61.2zm-.76.25l-.54.18zm-4.74 1.51l.25-.07zm5.29-43.08c-.33.51-2.84 1-4.72 1s-2-2.4-4-2.4a2.8 2.8 0 0 1-2.65-2.58 1.84 1.84 0 0 1 .38-1.3c1.1-1.36 1.94-3.49 1.3-4.66a27.84 27.84 0 0 0-2-2.52c-1.23-1.51-2.55-3.18-2.51-3.82.07-1.1.52-1.81-.84-3s.13-1.94 1.1-3.17 2.71-1.58 3.88-2.36a3 3 0 0 0 .39-.29c1.1-1 3.11-1.88 4.6-1.49s2.71-.26 3.36.65 0 2.59.26 3.23-1.16.72-2.14.59-3 .38-2.71 1 1 1.94-.33 1.23-1.81.71-1.1.71 1.69.84 1.69 1.42.06 1.88.71 1.68.64 1 1.55.91 1.75.26 1 1.1.45 3.17.71 2.65c.16-.32 0-1 .27-1.48.15-.26.44-.44 1-.39 1.55.13.84 1.94 1.68 2s1.82 1.36 1 1.3-1.43.71-2.2.45-1.75-.91-2 0-.58 1.88.46 1.81.84.65.12 1.36 1.11-.13 1.23.52.72.71.46 1.74a13.59 13.59 0 0 0 0 2.93 2.68 2.68 0 0 1 .05 1.01zm15.78 18.06a1.85 1.85 0 0 1 .14.14l.39.37c-.19-.3-.38-.52-.53-.68zm-.27-.4a.15.15 0 0 0 0 .07.15.15 0 0 1 0-.24zm.11.2l.08.1zm1.07 1.11l.1.12zm34.77-13.7v-.05zm.25-.38l.14-.25zm-.12.22v-.09zm.39-.75l.14-.33c0-.12.08-.21.08-.21s-.09.08-.22.37zm-.11.23l.08-.17zm1.52-.6zm-.16-.13zm-.12-.09zm30.69 32.85zm-.44 1.07zm.73-1.4a.28.28 0 0 1 .16-.07.28.28 0 0 0-.16-.1zm7.86-15.21h.05zm.21.12h.05zm.69.22h.09zm-.25-.06zm.17.05zm6.31 18.36a.46.46 0 0 0-.14.17.46.46 0 0 1 .14-.34zm16.37 14.83v.07c0 .02.01-.22 0-.24zm.21.63l.06.15zM507.1 13.57c.45-.58-.84-.58-1-1.16s-3.76-.72-3.56-.07-2.51 1.35-1.68 2c1.58 1.24 5.79-.19 6.24-.77z"/><path class="cls-2" d="M489.69 46.25c1.23.06-.71.26-.58 1.23s-2 .32-1.94 1-.33 1.1-1.55 1.1.58.77.71 1.49-1.23.19-1.3 1.29-2.39 0-2.71 1.42 1.16 1.23 2.2 1.3-.39 1 .38 1.61 1.36.39.84-.71 2.72.39 1.75 1.23 1.55 1.49 2.79 1.56 5.59 1 5.69 0c.06-.65-1.62-1.23-3-2.66s-2.33-3.75-.77-4.72.19-1.42 1.74-2.52.65-2.14 1.94-2.27-.12-1.29 1.17-1.49a1.74 1.74 0 0 0 1.38-2.11c-.2-.52 1.36.06 2.07-.71s2.39-.26 2.91-1.36 8-3.63 12.17-4.6 7.11-2.72 5.63-3.88-5.7.45-6.74 1.29-2.52.26-3.55.84-3.24 1.11-4.34.39-2.39.84-3.23.78-1.82.84-2.72.78-2.72.71-2.85 1.23-1.68.38-1.68 1-1.23 1.23-1.88.65-1.42.65-.52 1.49-1.68.9-1.23 1.42-1 .84-.64 1.42-.91.78-1.88 1-1.49 1.44-.26 1.51zm-11.13-32.74c.91.64-2.52.45-3 1.09s-2.45.42-2.07 1.17 3.62.84 3.62.19 1.68-.06 1.75-.64.77-1.23 2.58-1.36 1.82-.78.13-1.55-3.91.45-3.01 1.1zm-2.78 52.28c1.75 1.62 3.24-.71 4.08-.84s-.52-1-1.95-1.43-3.45 1.05-2.13 2.27zm-3.3-51.7c1.49-1.36 3.43-.07 3.69-.71s-2.78-.84-3.89-.26-3.67.11-3.36.84a2.52 2.52 0 0 0 3.56.13zm207.13 111.1c.52 1.16-.71 7.38-.19 8.41s-.85 5.62-.39 6.15c.77.91.25-1.23 1.42-1.42s1.16 1.29 1.88 1.61.26-2.07-.39-1.94-1.17-1.55-1.49-2.59.65-2.26.65-3.56 1.62-1.23 2.59-.25 1.09.32.71-.39-1.62-5.89-2.33-7.77 1-3.69-.26-4.66-.78-3-1.42-2.58 0 2.13-1 2.26-.07 1.1-.45 2.4.15 3.14.67 4.33zm-66.07-81.92c-.26.52-1.66.55-1.29 1 .65.84 3.88.38 4-.65s-2.45-.87-2.71-.35zm147.34 15.21c1.29.64 2.07-.78 3.11-.07s3.56-.32 4.59-.52.52-1.48-2.39-1.87-6.7 1.76-5.31 2.46zm-83.47-14.04c0-1-3.53.35-2.07.84.77.26 2.07.13 2.07-.84zm-91.82-17.35c.91.52 3.82-.64 5.76-.58s7.37-1.51 7.57-2.51-2-1-2.85-1.88-2.72-.13-3.17.65-1 .06.26-1.17-1.23-2.2-1.29-1.42-2.33.13-2.33.84-.84 1-.78 1.75-1.55-.39-1.62 1.23-2.51 2.55-1.55 3.09zm83.47 13.33a5.82 5.82 0 0 1 1.75 1.43c.52.51 2.46-.26 3.23-.52s.85 1.16 2.07.39 2.46-.39 3.89-.39-.26-1.75-.2-2.52 1.69-.26 1.17.38.77 2.14 2.84 2 .52-1.42 1.56-1.88.9-1-.59-1.87-3.42-.33-4.72-.91-3-.65-3.11.78-2.78-1.56-4.2-2-5.83 4.04-3.69 5.11zM575.56 18c0 .71-2.08 1.42-1.49 1.94s1 .32 1.62.45 1 1.75 2.13 1.49 4.34 1.3 6.22 1.3 2.07-1.56 1.48-1.62-.06-1 1-2.46-3.23-2.59-3.23-1.42-1.23-.26-1.62-1-6.11.58-6.11 1.32zm113.11 22.36c1.55.13 2.33 1.62 5.3 1.81s5.18-.39 5.25-1-2.72-1.62-3.56-1.1-1.49-.85-2.53-.52-2.46.26-3-.65-2.24 1.39-1.46 1.46zm-6.08 8.35c1.16-.26-.85-2.4-2.85-2.72s-3.87 1.33-3.63 1.68c.59.84 5.31 1.33 6.48 1.04zM570.45 11.56c.26-1-4-.54-2.92.39.39.33 2.66.59 2.92-.39zM543.2 50.19c1 .52 1.82.33 1.69-.71s-2.51.3-1.69.71zm-18.89-.97c.84.13 3.11-.32 3.37-.77s-.91-1-2.4-1-1.7 1.66-.97 1.77zm-12.49-35.97c2.46-.26 2.4-1.62 1.1-1.88s-1.49.78-2.13.71-3.1.41-2.59 1 2.39.3 3.62.17zm-15.01-.71c.19-1.36-2.07-.26-3.75-1s-2.68-.65-1.56.33c.52.45-2.88.8-2.33 1.36 1.23 1.25 7.44.66 7.64-.69z"/><path class="cls-2" d="M572.13 16.16c1.23.52.78.84-.52.84s-2.4.44-1.55.78c.65.26.58 1 1.94 1.29s2.72-.78 2.59-1.55 4.72-1.49 6-1.82-.84-1.68.58-1.81.84-.77-.91-1-1-1.75-1.61-2.27-.91.65-3.18 1.1-3.36 1-2.45 1.49 0 1.55-1 1.49-1.12.94.11 1.46zm161.77 283.5c.78-.52-6.48-5.21-6.34-4.4s5.56 4.92 6.34 4.4zM198 192.4c-.45-.76-.81-.24-.81.64s.73 1 .75 1.47.74 1.17.88.88c.24-.5-.52-1-.6-1.34s.25-.88-.22-1.65zm35.81 34.31c.26.25 1.22 0 1.66-.2s.4-.84-.11-1.27-2.09.22-1.6.45-.24.75.05 1.02zM580 246.13c-.13.65.58 2.52 1.36 1.75s-1.27-2.39-1.36-1.75zm47.45 8.87c-1.16 1.88.39 2.14 1.36 2.2s.84 1.49.65 2.33-.59 2.84.26 2.52c1-.38 1.68-1.68 1.1-2.13s-.52-3.3-.26-4 2-.19 1.42.9 1.1 1 1.1 2.21 1 .58 2 .25.84-.9.13-1.68.52-1.87-.45-2.52-1.62-1.62-.72-1.81 3.63-1.75 3.31-2.4-4.15.13-4.47 1.3-3-.13-2.72-2.14 5.7-2.33 7.25-1.62 3.23-1.16 3.82-2.26-1.23.19-2.33.9-4-.06-5.5-.58-1.43.91-2.66 1.1-1 2.91-1.55 3.24-.57 2.31-1.74 4.19zm15.92 1.61c.26 1 2.14 1.62 2.66.71s-2.96-1.91-2.66-.71zm-5.24 15.53c.84.45 2-.74 2.75-1.57.11-.13.21-.26.29-.37a1.5 1.5 0 0 1 .22-.2l.22-.14c1.25-.75 4.44-1.67 4.61-2.12s-1.94.13-3.24.07c-.87-.05-1.22.67-1.87 1.19l-.19.13a2.08 2.08 0 0 1-.71.3l-.29.05a2.38 2.38 0 0 0-.71.17c-1.29.53-1.95 2.03-1.08 2.49zm-.58-3.95c1.16-.06 2.46-.38.71-.64s-2.91 1-4.66.39-4.36 0-4.07.58 1.81.58 3.55.64 3.3-.9 4.47-.97zm10.61-21.87c0-.45-.45-2.26-1.49-.84s.34 4.94 1.17 4.79-.58-1.88.84-1.75.77-.71.77-1.62-1.29-.12-1.29-.58zm-.32 10.16c.26.78 1.61.46 3 .46s2.07 1 2.79 1 .19-1.69-1.49-2.2-4.59-.11-4.3.74zm-48.6 2.4a13.7 13.7 0 0 1 .33-2.27c0-.45.32-.65.9-.52s.52-1.23.07-1.36-.72-1.74-1.82-1.74-.9.9-.25 1 1 .58.84 1-.45-.45-1.36-.38-.33-1.11-1.36-1.17-.84-1.94-1.94-1.94-1.17-.91-.45-1.55-1.11-1.23-1.11-2-1.16-.32-1.16-1-.52-.32-1.1-1.1-.84-.07-1.36-.65a1.72 1.72 0 0 0-1.68-.71c-.45.2-1.49-.84-1.88-1.88-.31-.82-3.3-2.2-3.69-3.3s-1.42-1.55-3.17-1.48-2.43-1.72-2.84-.85c-.52 1.1 1.87 3.56 3 4.21s1.68 3 3 3.11 1.42 4.2 2.39 4.4 3.05 3.36 3.37 5 2.46 2.53 3.17 3.76 3.56 2.91 3.95 3.43.77 1.68 1.1 1.09 1.68 0 2.33.07.79-2.27.72-3.17zm5.05-3.24c0-.58-1.67-.3-1.17.52s1.17.06 1.17-.52zm13.33 12.49c.45-.65 1.29 1 2.59.06s-2.14-.58-2.2-1.36-2.59-.06-3.82-.58 1.36-1 2.2-1.49-.52-.71-2.59-.06-4.46-1.42-4.53-.52-3.75-.39-4.66-1-4.4-1.49-5.11-.26-1.33.12-1 1.29c.19.78 1 .33 1.61.33s.33 1.1 1.17 1.22 3.62.91 3.88.33 2.85 0 4.14 1 4.27 1.1 5.44.91 2.43.78 2.88.13zm-34.49-16.44c-.13.33.58 1.62 1 1.23s-.59-2.25-1-1.23zm46.59 19.87c.45.38 2.07 1.23 2.07.13s-4.44-1.75-4-1.1 1.48.58 1.93.97zm-24.2-23.68c1 .9.71 2.32 1.16 3s1.88.84 1.88 2.2 1.23 3.49 2.07 2.91 1.49.26 1.75.84 2.26-.45 2.91-.32 2.65.51 2.78 1.29 1.94-.07 3.17-.52.52-4.14 1.69-4.85a3.33 3.33 0 0 0 1.29-3.37c-.13-1.29 2.85-1.35 3.3-1.87s-.65-1.36-1.49-1.75-.13-1.23-.71-1.75-1.55-1.87-.71-1.94-.59-1.23.13-1.61a3.1 3.1 0 0 1 .32-.17c.77-.38 1.87-.87 1.36-1.32s1.75-.07 2-.84-.9-1.43-1.48-1.3-1.94.07-1.94-.52-1.23-1.68-2-1.68-1.68 1.55-1.75 2.2-1.29.58-1.16 1.49c0 .36-.18.51-.48.6-.46.15-1.08.15-1.08.5 0 .57-1-.21-1.5-.25-.52 0-1.68 1.81-1.94 3s-1.42.84-3.17 1-1 1.94-1.42 2.79-2.28-.63-3.25-.82H607c-.9.08-2.29 2.3-1.48 3.06zm19.02 19.54c-.26.58-1.36.71-2 .26s-1.45.61-1 1.16a2.79 2.79 0 0 0 3.17.52c1.62-.78 2.72-.07 3.11-.91s-3.02-1.62-3.28-1.03zM402.27 160.29c-1.32.3-1.87.39-2.65 0s-2 .36-1.84.88c.12.35.64.81 2.26 1.23s1.81 1.52 2.49 1.55.75-.62.58-1.49.81-1.87.91-2-.42-.46-1.75-.17zm-14.1-6.95c-.36.61 1.1 1.55.81 2.81s.16 2.85.9 2.11 1.1-.39 1.52-.94.07-2.59.36-3.56-1.3-1.43-2-.81-1.31-.11-1.59.39z"/></g></g></svg>