<svg xmlns="http://www.w3.org/2000/svg" viewBox="0 0 293.59 386.68"><defs><style>.cls-4{fill:#c6c6c6;stroke:#fff;stroke-miterlimit:10;stroke-width:.25px}</style><clipPath id="clip-path" transform="translate(-5.71 -230.71)"><path fill="none" d="M0 0h800v800H0z"/></clipPath></defs><g id="Шар_2" data-name="Шар 2"><g clip-path="url(#clip-path)" opacity=".4" id="Objects"><path class="cls-4" d="M214.16 439.27a3.58 3.58 0 0 1 3 .4l.17.09c.78.39 1-.39 2.72-1s4.56.48 4.56-.87-4.66-2.82-5.83-2.43a2.26 2.26 0 0 1-1.19-.07c-1.23-.32-2.76-1.11-3.46-.61-1 .68 1.45 2.14 1.45 3s-3.89-.17-4.27.77c-.16.53 1.39 1.21 2.85.72z" transform="translate(-5.71 -230.71)"/><path class="cls-4" d="M296.46 491c-1 .05-2.81-.2-5.24-2.82a5.94 5.94 0 0 0-6.4-2c-1.61.44-3.25-.77-4.32-1s-2.09 1.12-2.87 1.41.39-1.16.44-2.09-2.91-2.23-5.14-3.1-3.21-.44-3.21 1-.87-.44-1.55 1.07-1.94.53-1.12.05A5 5 0 0 0 269 481c.29-.92-3.21-1.65-4.42-1.16s-.44 2.23-1.41 1.7-.19-1.85.59-1.8 1.65-1.55 2.18-2.72-.92-1.36-1.8-2.33-.68-3.76-1.57-4.2c-.92-.39-2.33-2.62-3.73-2.91a11.38 11.38 0 0 1-1.84-.62 4.83 4.83 0 0 0-2.19-.5c-1.17.15-2.38.68-2.82.05s-1.06-.53-1.65-.05a.24.24 0 0 1-.21.06c-.61 0-1.5-1.8-2-1.8a1.12 1.12 0 0 1-1.12-1.31c.15-.83-1.35-.93-2.18-1.85a2 2 0 0 0-.8-.5 8.58 8.58 0 0 0-3.18-.32c-.82 0 .53-.93.58-1.8s-2.33-1-3.25-1.21-.68-1.17.29-1.21-.53-.73-1.84-.54a14.9 14.9 0 0 0-4.22 1.5c-1.07.59-2.92-1.69-4.13-1.21s-2.91.49-2.86-.48a1.47 1.47 0 0 0-1.7-1.7c-1.21.09-.92-1.22-1.84-1.22s0 1.12-.64 1.41-2.81.83-3 1.7 1.17 2.33.73 3.2-1.89.15-2.33-.77 1.26-2.33 1-2.87a2.15 2.15 0 0 1-.29-1.51.67.67 0 0 1 .54-.43c1-.19 1.45-.82.53-1.36s-1.46 1-2.48 1.17-1.21.77-1.89 1.11-1.94.05-2 .64-.43 0-1-.15-2.08 1.16-2 1.89.3 1.41-.77 2.09a10 10 0 0 0-2.19 2.52.34.34 0 0 1-.47.11 5.6 5.6 0 0 1-1.37-1.71c-.78-1.16-2.18-1.07-3.06-1.46s-2 .15-3.1 1.17-2.53.44-3.5-.1a5.65 5.65 0 0 1-1.12-1 27.86 27.86 0 0 1-2.17-2.7l-.3-.47c-.34-.63.24-1.89.54-2.82s-.25-3.15.29-3.73.24-.92.48-2.28a.85.85 0 0 0 0-.22c0-1.07-1.44-.73-2.43-1.73s-3.4-.58-4.66-.09-2.72-.54-4.08.24c-.76.42-1 0-.88-.51a2 2 0 0 1 .69-1.11c.87-.68-.44-3.4.58-3.64a1.11 1.11 0 0 0 .48-.28 5.23 5.23 0 0 0 1-3c.14-1.31-.3-1.75.38-2.48s1.41-.77 1.22-1.79-1.12 0-1.9-.49-1.45-.14-3.44.15-2.91 1.11-2.82 2.52-.68.78-.63 2-1.55 1.26-1.45 2-1.26 0-1.65-.24-4.57 1-5.15 1.11-1.65-1.21-2.47-1.16-1.17-1.21-1.26-2.23-1.65-1.94-2.33-2.87-.78-3-.83-4.27a15.24 15.24 0 0 1 .73-6.11 3.68 3.68 0 0 0 .2-.91 1.87 1.87 0 0 0-.91-.35 1.94 1.94 0 0 1 .91.34c.1-1.73-1.69-2-.64-2.82 1.22-.92-.05-1.7.54-2.09s1.6-.77 1.6-1.35.53-.59 1.31-.49 2.23-1.26 2.13-1.79.15-.64 1.07-.44.78-1.07 1.36-.87 1.07.53 1.12.09.63-.34 1.06.24 1.7.73 1.8 0 .82 0 1.46.68.92.49 1.84.54.92-.2 1-.78 1 1.26 1.94 1.36.2-.58-.48-1.12.14-.77-.44-1.21.73-1 1.89-1 1.12.34 1.56-.34.87 0 .87.58 1.89-.34 2.91-.34a2.23 2.23 0 0 1 2 1.46c.1.58.78.87 1.5.24s1.36-1.36 2-.68 1.36 1.6 2.19 2.43-.39 1.84 0 2.47 0 1.51.93 2.19.09 2.08.87 2.28 1.41 1.4 1.5 1.89 1.56 1.12 1.65.29.88-1.8 1-2.57a10.43 10.43 0 0 0-1.21-4.42c-.63-.87.15-1.07-.63-2.08a7.34 7.34 0 0 1-1.21-4.28c0-1.45 1.74-3.83 2.57-4.56s1.75-.34 1.94-1.11 1.21-1.75 1.8-1.75 1.21.15 1.31-.48 1.06-1.41 2.33-1.61.53-.87.19-1.45.29-1.17.53-.78a1.16 1.16 0 0 0 1.51.1c.48-.34 1.6-1.26.53-1.31s-1.31-.49-.68-.73.1-1.41-.77-1.5-.59-.54-.05-1.07-.78-1.41-1.41-1.85.39-.68.87-.77.1-2.33.34-2.87 1.07-.53.73 0-.82 1.41-.19 2.14a2.74 2.74 0 0 1 .58 2.62c-.24 1.12.24.82 1-.63s.83-2.72.34-2.87-.44-1.6.1-.92.73.78 1.55-.09 1.7-2.38 1.16-2.72.25-.68 1.22-.63a6.67 6.67 0 0 0 3.2-.88c.47-.94-3.35.44-3.35-.09s2.43-1.07 3.55-1.12.58-1.55 1.06-.92a1.31 1.31 0 0 0 1.85.14c.63-.38.14-1.5-.59-1.69s.54-.68.3-1.12a2.43 2.43 0 0 1 1.4-2.38c.93-.19.49-.78 1.27-.78s.92-.92 1.6-1.6 1.65 1.07 2.71.1a12.73 12.73 0 0 1 1.64-1.23 5.07 5.07 0 0 1 2.3-.95c.87 0 2.18-1.12 2.57-1.85s.92.68.14.92.63.83 2 .78-.63.49-1.65.44-1.45.09-2.81 1.45-1 1.75-.24 2.43 1.79.39 2.86-.53 1-1.85 2.09-1.8 3.83-1 5-1.36.44-.58.44-1.11 2.13-.54 2.91-1.07-.14-1-.82-.88-.15-1 0-1.5-1.46.24-1.51.87-1.11.88-1.11 1.27c0 1.13-.15.53-.93.92s-3.78 0-3.88-.68-2.28-1-2.38-1.94-1.16-1.22-.29-2.24-.14-1.5-1-.72-1.31-.44-.19-.88 3.2-.87 2.13-2.81-7.76.58-9.46 1.55-3.83 4.08-4.76 4.08 1.61-1.65 2-2.28-.09-1.27.44-1 2-2.09 3.06-2.87 2.13 0 2.28-.68.63-1.06 1.6-1.94 12.57-.72 13.69-.68 3.3-1.45 3.93-2.42 1.45-1 3-.88 2.28-1.31 3-1.84.49-.78-.19-.92-1.31-.58-.63-.63 1-.44 1.31-1.31-.24-.49-1.17-1.7-1.4.39-2.32.29.63-1.26-.15-1.75-2.23-.14-3.4.83-1.07-.05-2.09.92-1-.49-.53-.87.83 0 1.26-.54.88 0 2-.73 2.09-.38 2.43-.92-.53-1.26-1.6-1-1.8-1.45-2.48-1-.53-.73-1.31-.24-1.21-.15-1.55-1.07-2.43-2.43-3.69-2.81-.44-1.07.24-.59 1.46-.48 1.75-1-.48-.92-.87-1-.39-.68-.29-1.16-1.36-1.12-1.41-1.6-.87-.83-.83-1.27-.82-1.06-.82-1.65-1.46-1.74-1.51-2.42-.82-1.17-1.11-2-.68-.44-1 .73-1.31 1.11-1 1.5c.6.8.14.82-.29 1.31s.29 1.21-.44 1.21-.39 1.51-.78.83a.68.68 0 0 0-1.31.19c0 .68-1.55 1.31-2.18 1.26s-.63-1.35-1.17-1-.43-1.11-1.26-1.06-1.4-.05-1.16-.78-1.41-1.07-.87-1.51-.15-1.21-.25-2.47.73-1.36.73-1.84-.58-.49-1.16-.1-.59-.53-1.22-.49-2.52 0-2.62-.92-.73-.43-1-1.26-1.06-.2-1.06-.78-.34-.82-.93-.87-.77-.68-1.55-.78a4.72 4.72 0 0 0-2.18.73c-.44.2-1.56-.68-2-.34s-.54-.24-1.75-.58-2.82-.44-2.91 0-1.07.58-.92 1.6 1.16.82 1.4 1.51-.48.43-.53 1.06-.68.59-.68 1 .44.34.68 1.22.73.82.87 2-.39.93-.87 1.07.05.73-.63 1.51-1.26 1.6-.73 2.08 2.52 1.31 3.3 2.62a7.77 7.77 0 0 1 .49 4.81c-.25 1.46-1.9 1.8-3.11 3.06a3.78 3.78 0 0 1-3.06 1.11c-.58.05-.24 1.22.58 2.14s.15 1.21.59 2.18 0 1.75.63 2.62.24 1.22-.49 1.85.29.29.34 1.11-.34.34-1-.09-1.21.82-1.21 1.36-1.51-.73-1.85-.68.1-.83-.77-1.51-1.56-.82-1.56-1.5-1.5-1.17-1.5-1.94.19-2.77-.15-3.35a1.77 1.77 0 0 1 .25-1.75c.29-.53-.34-1.36-1.22-1.36a30.2 30.2 0 0 0-3.3-.19 3 3 0 0 1-2.28-.44 8.05 8.05 0 0 0-3-1.46 3.18 3.18 0 0 1-2.33-1.6c-.14-.43-1.65-.77-2-1.21a3.55 3.55 0 0 0-2.38-.58c-.59.09-2-1.22-2.91-1.17a26.38 26.38 0 0 0-3.26 1c-.34.05.05-.72.29-1.06s-.72-1.8-1-2.77-.58-2-1.6-1.9a4 4 0 0 1-2.42-.58c-.3-.19-.34-3-.1-4.12s1.5-2.91 1.5-3.64.83-1.07 1.56-1.26.14-1.6.87-1.7.78-.39.92-1 1-.2.54-.68-.1-.63 1-.63 2.77-.39 2.53-1.51-3.16-.29-3.16-1.21-3.68-1-3.44-1.5 3.69.38 5 .87a4.84 4.84 0 0 0 2.62.39c1-.05.34-1.36.53-1.9s2.14.83 3.25.54 2.19-2.57 3.11-3.2.1-1.22-1.7-1.07a5.08 5.08 0 0 1-3.78-1.26c-1-.73-.88-1.31.14-1.22s3.45 2.09 4.37 2.14 2.52-1.8 3.3-2.38-.73-.83-1.26-1.26.92-.73 1.7-.73 1.11.68 1.4 1 1.65-.24 2.33-.24-.09-1.12-1.21-1.56.05-1.26.39-.58 1.11.54 1.5 1.31c.57 1.13.93.39 1.9 0a4.66 4.66 0 0 0 2-1.5c.53-.59.63.09 1.26-.83s-.29-1.8-1.07-2.38.05-1.16-.73-1.55-.92-1.12.05-.92a2 2 0 0 0 2.18-.78c.44-.68-1.45-.82-.58-1.31s.15-1-.73-1-1.6-.44-1.65-1.16-1.55-.25-2.47-.68a8.83 8.83 0 0 0-3.45-.29c-.48 0-.53 2 .2 2.08s1.31.83.68 1.07.09 1-.39 1-1.26-.29-1.41 1-.24 1.75-1.07 2.18-.19-1.4-1-1.35-.87 1.55-.29 1.69.68.63.83 1.36-1.07.2-1.56 1.07-.53-.39-1.21-1-1.5-1.55-1.46-2.28a1 1 0 0 1 .93-1c.53-.1 0-.58 0-1.46s-.68-.58-1.46-1.5-1.6-.92-2-.49-.14 1.26-.82 1.56-.39 1.65-1 1.74-.24-2.38-.73-2.62-.44-.82.29-.92 1.17-.87.53-.87a7.22 7.22 0 0 1-2.18-.88c-.44-.19-1.16.83-1.65.44s0-1.36.1-1.89.77.24 1.26-.44-1.36-.68-1.36-1.41-1.46-.92-1.94-1.16.34-1.46.1-1.94-2-2.09-2.82-1.94-1-1-.53-1 .77-.25 1.6-1.17.92-1.21.34-1.41-.87-.77.15-.73 2.81.73 3.39.3a42.92 42.92 0 0 0 3.16-4.32c.72-1-.54-1.12-2.28-1s-2.14-.68-3.6-.78-4.17.29-4.56.73.73.82.59 1.31-1-.34-1.41-.15.14.83 0 2.53a2.39 2.39 0 0 0 .82 2.42c.49.63.39 1.46.39 2.53s-1 1-1.36 1.26.88.63.68 1.31-1.21-.39-1.79-.2-1.07 1.85-.44 2.38.87.44.39 1.07-1 1.55.14 2.47 3.3.83 4.42 1.56-.49.29-.05 1.11-.73 1.12-.68 1.75.49.29 1.07-.78 1 .3 1 1.22-.87.39-1.51 1.31a1.75 1.75 0 0 1-2.13.87c-.92-.19-.39 1.31 0 2.14s-.1 1.11-1.16.82-1.7-1-1.17-1.79.92-1.8.29-1.7-2.09-.05-2.52-.73.29-.39 1.6-.24.19-.88 1.16-.88 1.7.54 2.53-.19-.54-2.14-1.22-1.89-1.74.53-1.74-.15 1.16-.19 1.79-.34-.34-1-1.31-.77a2.09 2.09 0 0 1-2.42-.54c-.78-.82-2.19-1.31-2.53.58s-1.7.88-2.23 1.51.63 1.07 1.94 1.11 2.28 1.27 1.65 1.27-.34.92-1 .58-1.36 0-.87.58-.2.83-.15 1.41-1 .05-2-.05a17.94 17.94 0 0 0-4.28.53 4 4 0 0 1-3.44-.82c-.58-.63-1.36-.54-2.33-.54s-.68-.92-1.94-1-1-1.11-1.12-1.74-2.67-.44-3.59.14-2.72.34-3.2 1.41.43.92 1 .92c.74 0 .68-.87 2-.68s2.33-1.41 2.91-.82-2.33 1.7-3.59 1.89-1 1.21.24 3-.53.78-.53 1.65-2.29-.29-1.36-.58.48-1.22-.25-1.8-1.21 0-1.11-.63-.78.05-1.46-.48-1-1-1.94-.49-2 .34-4 .68-5.77.24-6.45-.44 1.75-1.89 2.47-1.69.29-.78-.82-1.66-3.59-1.4-3.54-.87-1.41 0-3.21-.29-2-1-3.2-1a7.73 7.73 0 0 1-4.27-1.46c-1.36-1.06-4.56-.77-4.95.2s-1.46.92-2.52.92.48-1.2.09-1.41 0-1.6-.73-1.7-1.5 3.21-3 3.11-2.08-3.49-3.3-4.37-2.33-.92-1.31.39-.87.39-.77 1.26-1.65 1.9-1.6 1.41-1-1-2.14.34-2 1.16-2.09.68-3.54 1.26-3.39 1.84-.54 1-1.46 1-.19-.82.53-1.21 3.06-2.23 4.23-2.43 3.39-1.11 3.44-1.65-1.11-.09-1.89-.24-2.14.73-3.45 1.31-2.81.39-2.42 1.17-1.22-.1-1.56.43-1-.05-.48-.34-1.17-.82-1.17-.48-.29.77-1.45.77-2.33.83-1.55 1.41 1.26.88.87 1.26-1.6-1-3.3-.87S69 294.46 69 294s-2.39-.15-4-.32a4.06 4.06 0 0 1-1-.21c-1.41-.53-3.5-1.51-4.61-1.26s-3.35.53-4.13.14a5.42 5.42 0 0 0-3.45-.48c-1.6.24-2.62-.88-4.66-1.36a12.32 12.32 0 0 0-5.58.39c-.67.24-.53-.73-1.4-.63s-.2-.39-.68-1.12-2.91-.05-3.79.05-1.11-.44-1.07-.88-.77-.29-1.11.3a1.22 1.22 0 0 1-1.7.29c-.39-.39.82-.54.87-1s-1.26-.68-1.74-.83-1.27.49-2.29 1.41a4.42 4.42 0 0 1-3.44.73c-.92-.1-2.09.09-2 .63s1.17.48.49 1.16-.93-.92-1.6-.19-2.72.68-3.21.58-2.08 1.65-2.57 2.14.39.92-.92 2.33S10.47 297 9.75 297s-.2.83-.59 1.36.44 1 2.43 1.55 3.35 3.16 3.59 3.79 2.72-.05 3.69.1-.1 1.5.73 1.89 2.08-.2 2.33.48-1.65 0-2.62.73-1.46 1.07-1.85.54-2-.2-2.81-.1-.05-1 0-1.51-1.12-.82-2.72.1-1 .58-1.21 1.31-.88-.44-1.9.2-2.67 1.06-3 1.69 2.19 1.07 3.16 1.27-1.17.82-.39 1.06.44 1 1.65 1.6 3.93 0 4.66 0 1.41.88 2 .25 2.76-2.38 3.88-1.36-1.21.87-.63 1.5 1.31 2.14.24 2.92-2.08.24-2.67.19-.24 1.07-1.16 1.79-1.6-.77-2.77-.77-.92 1.5-.87 2.23-1.75-.14-2.19 1.6-2.28.25-1.06 1.94 1 .63 2 1.31-1.07 1.9-.1 2.09 2 1.94 2.72 2.57 1.55-.34 2.57-.39.53-1.45 1.12-.92 1.4 2.09.87 2.48-.1 1.6-.19 2.18 2.23.39 2.37-.29 2-.87 3 .24 1.36 1.31 1.36.44.87-1.85.92-1.12.88.92 2.38.24.83 0 .05 1c-1.07 1.35 0 3.3-.78 3.5s-1.4 2.18-2.67 2.33-3.39 2.52-3.68 2.91-3-.77-3.4.34-2 1.95-1.6 2.38 2.52-.83 2.62-1.41.39-.48.77-.05 1.36-.19 1.8-.58 1.16-.24 1.6-.19.63-.54 1.94-.78 1-.63 1.31-1.31 3.4-2.14 4-2.28.24-1.12.88-1.17a6.07 6.07 0 0 0 2.42-1.5c.83-.68 1-.39 1.65-.63s.15-1.51.78-1.6A1.24 1.24 0 0 0 37.5 332c0-.53-1.6-.53-1.74-.87s1.26-1.61 1.79-1.56a1.53 1.53 0 0 0 1.45-1.29c.05-.77.83-.92 1.46-1.6s.48-1.26 1.11-1.31 1.21-.92 1.89-1.31 0 .49 1.31.54 1 1.26 0 .82-1.4-.39-2.28.44-.19 1.06-.87 2-.73 1.5.14 1.6 0 .73-.77 1-.24.73.87.73 2.77-1.61 4.32-2.38 2.72 0 3.16-.15-.49-.87 0-1.11-.63-.39-1-1.31.54-.34.73-1.07.73-.44 1.21-.1 1.17-.34 1.61.58.92-.24 1.69.39-.14.54-1 .73-.39 1.31.25.78 1.16-.88 1.74-.34.83.29 1.31-.2.49 0 .49.44 1 .53 2.47.78a23.75 23.75 0 0 0 4.76-.15c.68-.05.44 1 1.94 1.31s1.89-1.5 2.67-.87 0 .87-.44 1.36.49.53 1.07.77a8.59 8.59 0 0 1 2.57 1.26 7.55 7.55 0 0 0 2.74 2.09c1.55.78 0-1.94 1.26-1.07s.77.05 1.74.92.64-.38.2-1.84.44-.48.87.19a3.86 3.86 0 0 1 .15 2.87c-.29.87-1.75.14-1.6-.34s-1.46-.29-1.51.39a2.82 2.82 0 0 0 1.8 2.13c.77.15.19 1.36.68 1.51.66.2.63 1.45 1 1.26s.24-1.7-.2-2.38-.24-1.65.34-1.45 0 1.21.29 1.55.63-.34 1.31-.73-.29-1.5 0-2.09 1 .49 1.32 1.51-.73 1-.73 1.5-.93.29-1.22.59-.14 2.23.25 2.28.63-1.6.87-.78 1.16-1.07 1.41-.29 1.4 1.65 1.84 1.46-.19-1-.87-1.07-.58-1.17.05-1.22 1.74 1.61 1.69 2.19-.58.53-1.11 1.12-1.26-1-1.89-.93 0 1 .29 1.7-.78 1.6.05 2.14.58-.34.72-.73.78.1 1.22.44.48-.78.48-1.22.73-.19 1.12.39.44-.63 1-.53.19 1 .19 1.55 1-.44.92.14a1 1 0 0 0 0 .25c.05.43.43.7.93 1.11s-1.07.49-.59.93-.09 1.11.39 1.65a1.42 1.42 0 0 0 1.89-.1c.54-.44.93.53.49 1.26a.59.59 0 0 0 .92.73c.44-.54 1.36.87 1.8 1.11s.87 1 .14 1-.63 1.26-.09 1.3.48.73.48 1.17 1.7 1.07 2.33.87 1.21.39 1.51.93 1.45.92 1.89.58.73.63.82 1.31 1.07.29 1.65.24.92.78 1.31.63c.86-.32 1.12 1.17 1.68 2.05a2.09 2.09 0 0 0 .22.28c.72.78.14 1.36.38 2.28s0 2.23-.68 2.23a.58.58 0 0 1-.29-1.11c.54-.29.25-1.36-.29-1.36-.31 0-.43-.37-.42-.79a2.15 2.15 0 0 1 .23-.91c.34-.63-.73-.19-1.36-.87s-2.28-.54-2.52-1.17-1.75-2.91-2.58-2.86a4 4 0 0 1-2.86-.63c-1-.73-1.6-.78-2.28-.34s.73.53.68 1 .44.77 1 .68.92 1.11 1.5 1.16.78 1 1.46 1 .82.78 1.16 1.22 1.12 0 1.12.48.78.75 1 1.24a.84.84 0 0 1 0 .17 6.21 6.21 0 0 0 1.11 2.91c.78 1 .25 1.65 1 2s.67.82 0 .73-.2.53-.44 2-.2 4.46-.34 5.38-1.21 2.43-.58 3.4a4.54 4.54 0 0 1 .72 3.54 3.23 3.23 0 0 0 .25 2.87c.53.92.09 2.52.68 2.86a5.54 5.54 0 0 1 1.65 1.89c.53.88 1 .34 1.11 1.22s.1 1 .88 1.36.29 1.21.29 1.69 1 1.36 2.28 2.48.19 2 1.11 2a5.41 5.41 0 0 1 2.72 1.11c.92.59 1.22.25 1.85.39a4.34 4.34 0 0 1 2 2.43 8.65 8.65 0 0 0 .5 1.38 8.5 8.5 0 0 0 1.15 1.82 11 11 0 0 1 1.85 4.27c.1.78 1.5 1.41 2.72 2.19a2.88 2.88 0 0 1 1.06 2.91c-.14.43-1.65-.29-1.74.14s1.94 2.14 2.71 2 1.17.39 2.38 1.46 1.12 2.33.63 2.71 1 1.22 2.53 2.24a5.57 5.57 0 0 1 2.33 2.81c.14.54.82.05 1.06-.68s-.48-.92-.48-1.74-1.26-.69-1.85-.78.05-1.36-.53-1.94a8.62 8.62 0 0 1-1.41-3.11c-.29-1.07-1.79-2.13-2.42-3.3a7.89 7.89 0 0 0-1.75-2.38c-.44-.29.63-.72.24-1.16s-1-.39-1.7-.73a1.88 1.88 0 0 1-1.21-1.7 13.52 13.52 0 0 0-.73-3.25c-.24-.63.54-.53.78-.24s.44.58.78.39a.86.86 0 0 1 1.16.48c.24.53 1.07 0 1.46.29s-.88.54.38 2.77.39 1 .39 2.47.78.83 1 .59.92.48 1.56 1.26 1.84.82 1.84 1.26a1.45 1.45 0 0 0 1.07 1.46c.82.14 1 1.06 1.5 1.16s.63.68.34 1.31 0 1.17 1.36 1.7.73.63 1.8 1.65a65.15 65.15 0 0 1 4.7 5.24 8.77 8.77 0 0 1 1.07 2.38c.24.68-.48 1-.1 1.6s-.72.34-.68.78.68 2.62 1.75 2.72 2.28 1.4 3.16 2.13 2.18.58 3.49 1.07 2.43 1.65 4.32 2.18a19.76 19.76 0 0 1 5 2.14c1.21.77 2.72.43 4.42-.25s3 .2 4 .59a12.75 12.75 0 0 1 2.35 1.83c1 .86 1.93 1.75 2.4 2.05.92.58 2.43-.05 3.06.53l.07.06a12.2 12.2 0 0 0 4.25 1.45 1 1 0 0 0 .7-.29c.19-.16.34-.27.66 0s.23.53.19.82a.7.7 0 0 0 .34.83c.78.43 1.84 2.13 2.67 2.57a1.53 1.53 0 0 1 .75.89.75.75 0 0 1-.17.86 1.17 1.17 0 0 0 .58 1.89c1.07.43.73-.24 1.27-.24s.48.82 1 .82 1.6.58 1.55 1.36.39 1.12 1.26 1.12a3.4 3.4 0 0 1 .53 0 4.69 4.69 0 0 1 2.82 1.27c.73.87 1.17.29 1.6 1.06s1.46.05 1.7-.43-.53-.68-.63-1.22 1-.34 1.16-1.06 1.75-1.07 2.43-.78 1.26.78.63 1.5c-.47.55.49 1.52 1.29 2.28.27.26.53.5.7.68.68.73.24 1.31.44 1.7s.39 1 0 1.22-.05 2.91.39 3.39 0 .93-.49 1.9-.96 1.51-1.78 1.51-.83 1.41-1.12 1.41-.4.49-.44.91a3 3 0 0 0 0 .3c.05.44-.68.73-1.5.78s-.73 1-.73 1.6-.68.63-1 1.31.1.83-.58 1.17a1 1 0 0 0-.49 1.5c.39.58-.05 1.12-.14 1.46s.58.48 1.26 1.11.77-.24 1.07.24a1 1 0 0 1-1 1.36h-.18c-.72.15-1.46 1.15-1.81 1.92s.67 2.42.82 3-.58.05-.68.59 1.6 1.31 2.38 1.89 1.45 2.23 2.18 3 .78 1.45 1.56 3.35a35.22 35.22 0 0 0 3.39 6.45c1.07 1.36 1.56 2.43 1.31 2.82a1.88 1.88 0 0 0 .83 2 17.26 17.26 0 0 0 3.44 2.42c2 1 5.78 3 6.31 3.88a7.65 7.65 0 0 0 2.62 2c.1.06.12.21.13.41a6.2 6.2 0 0 0 0 2 17.72 17.72 0 0 1 .15 5.63 29.66 29.66 0 0 1-.88 3.3c-.29.83.68.88.29 1.26s-.19 1.37-.19 2.93-.92 4.17-1 5-.68 1.36-.58 2.29a2.09 2.09 0 0 1-1 1.89c-.54.43.87 1.84.82 2.62s-1.07 1.11-.82 2.38a25 25 0 0 1 0 4.8c0 .53-.63.49-.49 1.5s-.63 1.27-.78 2.72-1.26 3.55-1.69 4.66-.44 1.75-1 1.75-.73.63-.29 1.6-.3 1.8.29 2.77.38 1.31.09 2.23-.68 1-.68 1.84-.68 1.61-.29 2.58.29 1.31-.19 1.31-.73.77-.92 2.37-.15 1.56 1 1.46.24-3.93 1-3.93.09-.63.82-.83.1.68.58.83.83.53.15 1 .15 1.31-.19 1.84-.83 1.12-.54 1.75-.34.58-.39 1.41.44.87.1 1.07.44.82 0 .92-.19.72.1 1.31-.63.24-1.12.63.49.92.2 1.46-1.07-.3-1.41-.59.53-.87 1-1.45-.44-1.9-1.16-1.61.72 1.12.72 1.75-1.21-.14-1.16.54-.83.43-1.26.92.58.92.09 1.07-1.31.82-1.36 1.31.54.58.54.09.78-.63 1 0 .58 0 1.26.15.58 1.16.19 1.11-.77.64-.68 1.36 1.46 0 2 .2.39 1.21.05.87-1.11-.92-1.45-.34-.88.29-1.31.1-2 .83-1.46 1.21.48 1 .82 1a1.53 1.53 0 0 0 1.07-.68c.2-.38.88-.77.92.1s-.92.44-1.11.92a3.15 3.15 0 0 1-1.17 1.31.53.53 0 0 0 .49.93c.48-.25-.15.58.53.67s.83-.38.68-.87.34-1.55.92-1-.29 1.07-.29 1.55-.34 1.12-.34 1.65-.63.25-.58.83-1.36.19-.73.58-.39.92 0 1.31.63-.53 1.17-.34.44.34 1.11.05 1.07.54.44.73-1.31.92-1 1 1.12-.49 1.31.14.68.44.73-.24 1.21-.1 1.41.49-1.22.92-1.94.77-1.12.68-.63 1.31 1.06 0 1.6-.53 3.15-.39 3.35.19-1.22.1-1.36.44-1.22.63-1.36.24-1.17.15-1.21.78-.83.63 0 .87.64-.92 2-.82 2.09-1.26 2.48-.49-1.12 1.41-1.65.92-1.17.34-1.12 1.07-1.55-.19-2.33-.29-.43.73.25 1.46 1.06-.1 1.89.43.82 1.12 1.4.59 0-.49-.38-.73 0-1.07.87-.63a1.26 1.26 0 0 0 1.7-1.56c-.29-1.16.82-1.69 1.94-2.08s.53.73-.29 1.06-1 .59-.34 1.27 1.46-.44 2 .09-1 .44-1.21 1 .92 1.16.09 1.55-.43-1.6-.92-1.8-.92.25-.44 1.36-.58.15-1.06-.39-1.17.25-.59.83-1.11 0-1.11.87.73.15 1.6.34.48 1.46 1.12 1.94.09-1.55.77-1.7.05 1.56 1.56 2 .09-.29.77-.77 1.55 1.45 2.28 1.65.25-.88-.29-1.46.54-.24 1.26 0 1.31.34 1.46-.19c.05-.2.19-.2.36-.14s.69.32 1 0c.48-.53 1.94-.24 2.72-.73s-.25-.63-1.46-.68-3.59-2.28-4.32-2.86-.19-1.17-1.07-1-.29-.68.2-.92-.18-1.05-.77-1.19h-.15c-.64 0-2 .15-1.8-.82a.42.42 0 0 1 .25-.32c.57-.25 1.8.55 2.08.27s-1.21-1.6-1.17-2-.24-1.16-.24-1.65-.24-1.55.44-2 .73-1 1.16-.87 1.31-.39 1.36-1.55.58-1.6 1.56-2.43 2.81-1.75 2.57-2.13.39-1.65.39-2.14-1.65-.39-2.19-.58-2.47-1.55-1.5-3.35a4.37 4.37 0 0 1 3.59-2c.58-.05 0-.87.53-1.16s.58-.78.58-1.51 0-2.13.88-2.23 1.11-.58.58-.73-.78-.77.1-.87.58.73 1.21.73 1.7-1.07.87-1.7-1.06.29-1.5.39-.78-.59-1.21-.59-.15-1.21-.34-1.65a2.45 2.45 0 0 1-.1-2c.39-.53 2 .83 3.49.93s2.53-.73 2.53-1.27-.68-1.5.19-2.08.15-.78-.1-1.55.39-1.27.78-.88 3.25.15 5.63-.34 4-1.36 4.17-2 1.65-2.29 2-2.87 0-1.31-.92-1.45-.92-1.27-.39-1.9-.29-1.21-1.21-1.31-2.38-.73-1.55-1.5c.4-.38.59-.3.78-.13s.41.47.87.42a5.45 5.45 0 0 1 2.81.73c1.07.48.68-.15 1.7 0a4.76 4.76 0 0 0 3.3-.44 7.48 7.48 0 0 0 1.75-2 4.69 4.69 0 0 1 1-1c1.36-1 1-1.55 1.65-2.71s.09-1.65 1.16-2.67-.19-1.7 1.17-2.33 1.16.58.05 2-1.32 1.79.14.72 2-2.57 2.82-4.27 1.45-2.23 2.18-2.33.73-1.89.63-3.15-.48-2.43.05-3.25 0-1.6.68-1.6 1.7-1 2.76-2.09a3.75 3.75 0 0 1 2.87-1.26c1.11-.1.48-.49 1.21-.68a4.62 4.62 0 0 0 1.7-1.31c.48-.44 2.47.05 3.64.05s1.94.09 1.94-.63a1.26 1.26 0 0 1 1.21-1.32c.68 0 1-.19 1-1.16a2.24 2.24 0 0 1 .88-2c.58-.44.68-1.41.87-2s.83-.24.83-1.16.34-1.94.34-2.67.77-.63 1.11-1.17-.29-1.21.24-2.71 0-2.92 0-4.27 0-2.77.49-3.21.24-.68-.15-.87.05-.73.39-.63.73.82 1.36.44 1.22-2 1.75-3.4 1.41-1.31 2.09-1.6a9 9 0 0 0 3.05-4.32c.93-2.38-.05-4.71-.43-6.36s-1.01-1.67-1.98-1.67zm-92.11-115.6c1.48.18 2.51-.85 3-.22l.08.12c.7 1.26-1.84 2-4.27 2.14a14.47 14.47 0 0 0-1.74.16c-1 .14-1.29.22-1.56-.46-.36-.95 2.94-1.93 4.49-1.73zm-3.39 3.4a.28.28 0 0 1 0 .21c-.37.76-3.35 2.21-5 3.09-1.85 1-4.37.48-4.37-1s1.36-1.16 1.65-.48c.11.25.44.07.88-.25.74-.54 1.8-1.46 2.71-1.4 1.46.1 1.85 1 2.82.29s1.11-.94 1.35-.45zM194 370c1.36.49 3.39-.58 4.07 1.07s2.26 2.89.78 3c-1.26.1-2.91-1.65-2.81-.68s-.68.48-.68 1.94-1 3.5-1.56 3.4h-.05c-.56-.24.31-2.41-.82-2.79s-2.52 1.65-2.33.39 1.94-2.33.87-4-3-1.65-3.39-.39-1.75.68-2.24 1.65a8 8 0 0 0-.58 4.66c.39 1.56-.1 2.33-1.55 3.21s-2.22-1.34-1.65-4.18c.39-1.94 1.45-3.78.48-3.78s1.27-2.33 3.3-2.82 4.57-.29 4.57-.87c0-.12.09-.2.24-.25a7.13 7.13 0 0 1 3.35.44zm-12.82-8c1.27 0 4.47.29 4.66 1.94s2.14.1 2.33 1.66c.17 1.31 1.45 2.35 1.24 3.05a.65.65 0 0 1-.27.34c-.8.56-.58-.87-2-.87s-2.92 1.36-4.08.78-.58-1.36-1.65-1.36.78-2-.78-1.17-3.88 3-4.95 2-2 .29-2.81-.49 2.72-2.91 4.37-2.81a1.71 1.71 0 0 0 1.12-.43c1-.81 1.84-2.64 2.79-2.64zm-21-14.07c.78 1 1.94 4.95 2.62 6.21s.68 3.3-.19 3.4c-1.06.12.09-2.82-1.85-3.88a6.31 6.31 0 0 1-3.3-4.86 1.59 1.59 0 0 1 2.73-.86zm-39.6-24.16c.15-.66.77-1.7 1.73-1.7s.89-1.28-.69-2.05 2.27-1.27 3.16 0 2.47 2.13 3.36 1.24 5.94-3.36 5.94-2.2-3.74 1.93-5.25 3.24-1.39 1-2.7 1.19-.27 1.55-1.85 1.66-5.4.28-5.94-.61c-.17-.33 2.09-.11 2.25-.76zm-15.87-13.51c.74-.08.24-.89 1.24-1.27s-.19-1 .12-1.39 2.35.42 2.39-.35-2-1.43-2.74-1a4.32 4.32 0 0 1-4.25.69c-.6-.27 4.87-.85 5.79-1.7s5.1-1.81 5.4-1-2.23 1.27-1 2 3.24.23 3.71-.5 2.47-.62 1.19 1-1.7 1.81-3 1.58-2.12.43-1.47.89.7.85-.65 1.16-2.24 1.35-2.78 1.23 2.32-2.16 1.58-2.7-2.54.93-2.58 1.58-1.24.7-2 .66-1.66-.79-.94-.87zm74.76 135.92v.07zm-.21.29zm0-6.6zm-3.64 0zm0 0h1.66zm2.58 0zm-.49 0zm49 35.55l-.14.05zm.62-.28zm-1.24.5H226zm-2.85 28.54l-.33-.1zm-.36-.1l-.37-.07-.51-.01a6.36 6.36 0 0 1 .89.11zm-3.19-15.23a1.93 1.93 0 0 0-.27.19 1.93 1.93 0 0 1 .28-.16zm.26-.09a.9.9 0 0 0-.21.08.9.9 0 0 1 .26-.05zm1.24.15c-.39 0-.76-.23-1.21-.15.46-.05.83.24 1.22.18zM222 504a5.16 5.16 0 0 0-1 0 5.16 5.16 0 0 1 1 0zm.42 15.12a2.79 2.79 0 0 0 .19.28 2 2 0 0 1-.24-.29zm.62.69a2.49 2.49 0 0 1-.37-.34 2.49 2.49 0 0 0 .33.33zm3.2 11.42zm.76-.23zm-.39.18h-.07zm-1.13-55.3h.14zm31-.84a1.46 1.46 0 0 0 .48 0 1.49 1.49 0 0 1-.53-.04zm-8.53 48.43zm.38-.84a.28.28 0 0 1 0 .09.28.28 0 0 0-.05-.12zm-.84 1.18a.63.63 0 0 1-.19 0 .63.63 0 0 0 .14-.03zm7.9 13.41v-.24c-.04.02-.04.14-.05.21zm.06-.51l.06-.33zm.12-.59c0-.21.08-.42.13-.64-.1.19-.14.4-.18.61zm.17-.87l.06-.39zm.1-.63v-.33c-.04.08-.04.18-.05.3zm0-.54a1.1 1.1 0 0 0 0-.27 1.1 1.1 0 0 1-.03.24zm-.28-.66a.44.44 0 0 1 .21.25.44.44 0 0 0-.24-.28zm-3.76-57.75zm-.35 0h.16zm-1.32-.27h.18zm.4.06l.24.05zm-.74 0h.12zm-7.88-6.1l.07-.09zm.81-1a1 1 0 0 1 .3 0 1 1 0 0 0-.33-.13zm-.21.1a.22.22 0 0 1 .11-.05.22.22 0 0 0-.14-.08zm-.12.12zm-.56.9a.47.47 0 0 1-.19.12.47.47 0 0 0 .16-.25zm-4.12 59.71zm-.28 0zm-2.39-.13h-.06zm.3 0zm13.47 19.61c-.07.07-.12.15-.18.22s.08-.3.15-.37zm.62-.69l-.58.64zm.42-.45l-.29.32c.07-.26.17-.36.26-.47zm.47-.57l-.17.22zm6.68-71.91a2.83 2.83 0 0 0 .63-.13 2.83 2.83 0 0 1-.63.13zm-1.33-.5a1.43 1.43 0 0 0 .7.44 1.57 1.57 0 0 1-.91-.72 2.55 2.55 0 0 0 .22.28zm-4.44 1l-.27-.07h.04zm-42.43 4.65l-.14-.16zm.72 1v-.05c0-.05-.01.02 0 .03zm-.08-.18a.16.16 0 0 1 0-.07.16.16 0 0 0 0 .05zm-.14-.21l-.07-.08zm-.2-.24l-.09-.11zm.21 1.2a.62.62 0 0 0 .14-.14.62.62 0 0 1-.14.12zm.24-.41zm0 .16s-.03-.04-.03-.02zm10.88 22.64a3.52 3.52 0 0 1 .41-.1 3.52 3.52 0 0 0-.44.08zm7 26.57zm.83-.6l.05-.05zm20.26 18.79l-.13.18zm-.24.38l-.06.14z" transform="translate(-5.71 -230.71)"/><path class="cls-4" d="M211.73 434.52c.39-.49-2.62-2.43-4.08-2.43s-6.21-3.3-10.58-4.27-8.17 2.17-7.76 2.72c.58.77 2.72-1 3.78-1.75s2 .39 2.14.88 1.46.77 3.69.87 2.52 1.94 4.66 2.42 0 1.36 1.06 1.75 6.7.29 7.09-.19zm-9.03 4.27c.39.68 4.08 1.65 4.47.78s-4.95-1.57-4.47-.78zm24.95.21c.87 1.36 3.37.55 3.59 0 .39-1-4.47-1.38-3.59 0zm16.79 167.61c.78.39 4-1 3.59-1.65-.78-1.46-4.37 1.26-3.59 1.65zm-.39-2.72c-1.07-.19-3.63 2-2.52 2.52s3.59-2.33 2.52-2.52zm-69.88-124.43c-1 1.45 1 2.87 1.36 2.23s-.39-3.69-1.36-2.23zM261.3 294c.06-1-1.1-.39-1.75-1.61s-4-1.74-4.27-.78c-.13.39-1.17 1-.33 1.88s1.43.51 2.4 1.42 3.88.09 3.95-.91zm30.79 318.59c.19.85 1 .47 1.89 1.23s1.61 2.18 2.47.85-4.45-2.55-4.36-2.08zM145.05 253.3c1.16-.77 3.3.49 2.91 1.36s-3.75-.17-3.49.59c.09.29.48 1.45 2.81.77a6.07 6.07 0 0 1 5.82 1.07c1.56 1.26 3 1.75 4.08.48s-1.36-1.45-.87-2.42-1.56-1.56-2.62-1.56-1.46-1.94-2.33-1.55-1.46 1.07-1.46-.19-5.05-1.36-6.31-.88.29 3.11 1.46 2.33zm.68 8.16c.77-1-3.11-4.08-3.3-2.62s2.47 3.65 3.3 2.62zm12.62 2.54c-.1 1-2.33-.19-4.08-.87s-.68 1.36.68 2.52-.68.58-2.52-.68-1.66.88-.78 1.55-.19 1.65-1.36.1-1.75-3.2-3.59-3.3-1 1.79-.29 2.72c1 1.26 1.94 1.55 3.49 2.43s4.08-.39 5.24-.1-1.26 1.75-.48 2.72 2.91.29 4.56.19.87-1.07 1.84-1.75-1-.58-.19-2.23-2.43-4.3-2.52-3.3zm0-15.26c.68-1.16-4.1-2.08-2.92-1.07.68.59 2.24 2.24 2.92 1.07zm-29.51 7.57c1 .39 1.94-.87 2.62-.29s3.69 1.07 3.69-.48-3.79-1.75-4.76-1.17-5.43.78-4.17 1.75c.78.59 1.65-.2 2.62.19zm34.75-7.66c1.43.71.58 1.65 2.13 2.32s6-.87 6.41.2-4.56 1.16-3.88 1.84 3.49 1.75 3.1 2.33 4.66 2.23 5.15 1.46 1.84-.58 3.1-.1 1.36-3 2.23-2.43.78-1.26 2.24-1.84 3.55-.59 3.69-1.26c.09-.49-.39-1.17-2.14-1s-2.91-.49-2.14-1.46-1.94-1.26-1-2-1.84-1.55-1.55-.38-1.75.09-2-1-4.27-1.45-6.89-3.78-5.34-.78-3.78-.49 1.45 1.07.19 1-3.49.09-1.46.87-.19 1.07-1.84 1.07-1.75 2.13.39 2.42.58 1.56-1.17 1.07-2.37.38-.78 1.16zm-1.17 9.6a10.18 10.18 0 0 0 3.89-.68c1.26-.48-.68-.48.19-1.65s-2.14-1.26-2.33-.87-4-2.33-4.56-1.46 1.39 4.66 2.81 4.66zm-41.93 7.38c-1.36.1-1.26 1.46.29 1.46s2 .48-.19.38-3.2 1.85-1.65 1.46 3.4-.39 2.23 0-4.34.66-3.88 1.26c.29.39 1.55.29 2.81.78s2 .78 3-.29 2.24-2.14 1.75-.68 1.55.39 4.17.29-.48 1.55-3.2 1.75-2.23 1.55-.1 2 6.7-1.36 7.77-2.43 2 .58 3.1-.2 3.11.1 5-.29 2.14-3.88.78-4.46-1.36.68-2.43.87-1.65-1.16-2.52-2-.29-2.52-1.55-2.33-4 2.24-2.33 2.43 1.07 1.07.19 1.46 2 1.06 1.65 1.65-4.85.09-5-.88-3.69-2.71-5.15-2.33-.87-1.16-2.33-1.26-1.05 1.26-2.41 1.36zm-18.73 19.12c1.75.39 1.94 3.5 3.1 3.5.78 0 .2-1 1.46-1s1-.68 2.14-.59 2.13-.29 2.13-1.65.88-1.84 2-2.13.1-1.75 1.75-2.14a37.39 37.39 0 0 0 7-2.91c.77-.58-1-1.36-2.72-2.43s-3.11-1.35-4.47-.48-.29-1-1.36-.49-4-.77-4.36-1.26-5.63 1.07-6.89 1.07.09 1.36 1 2-2.14 2.81-1.56 3.3-.58 1.74-1.94 3.3.96 1.52 2.72 1.91zm11.65-15.92c1.74.2 3.49-1.36 3.39-2.23s-4.26 2.14-3.39 2.23zM83 347.45c-1.75.93 2.45 5.36 3.32 4.8.6-.38-1-2.24-1-3.38s-.63-2.35-2.32-1.42zm22.35-81.33c.68.29 0 1.65.78 1.26s1-.49 1.55-.29c1 .35 1.26-.59 1.75-1.07s.29 1.75 1.55 1.75c1.07 0 .87-2.33 1.84-1.65s1.27-.29 1.46-1 .19-1.85 1.26-2 .2 1.06.68 1.94c.71 1.27 1.94.1 2-.49s1.84-.19 1.75-.87.48-.87 0-1.65.77-.58 1.36-1.16-.78-.1-1.75-1-1.36.29-1.36.88-1.84.1-2.91-.29-2.43 1.26-4 2-1.65 2.14-3.11 2-3.53 1.35-2.85 1.64zm20.19-7.48c.48-1.16-3.22-1-2.91-.58.68.87 2.42 1.75 2.91.58zm8.06-.48c1.26-.2.67-1.17-1.36-.88s-5.54.29-5.54 1.75c0 1.16.68 1.75 2.92 1.94s4.17-1.94 3.1-1.94-.39-.68.88-.87zm63.76 18.73c-.58 1.26 1.27 1.26 1.36 2.72s1.94 1.94 3.3 1.06 5.24.26 5.24-.87-4.07-3-5.53-2.72-3.73-1.45-4.37-.19zm.88 38.44c.19-1-3.21-1.36-3-2.43S192 311 191 310.38s-2.72-.88-2.72-2-2.33-.29-2.43 1.45-1.06 1.36-.58 3-2.13 2-1.84 2.91 1.55-.09 2.71-.09-.31 1.62 1.17 1.74c1.17.1 3.2-1.26 3.69-2s1.45-1.07 2.81-.1 4.19 1.01 4.43.04zm-6.99 5.33c1.55 1 3.88-1.65 3.69-2.42s-5.57 1.25-3.69 2.42z" transform="translate(-5.71 -230.71)"/><path class="cls-4" d="M216.39 288.25c1-.1 2.13-.88 1.84-1.75s-2.81-1-3.3.1-2.52-1.17-2.52-2-3.11-.1-2.72-1.56-3.59-1.84-4.66-1.84-2.62.87-2.42 1.84-1.17.59-1.36-.48-2.82 1.16-3.59 1.16.48-2.81.09-3.68a23.89 23.89 0 0 1-1.55-2.62c-.58-1.46-3.49-.88-4.27 0s-3.3.48-4.66 1.84.1 2.72.68 3.2-2 1.26-1.17 2 2.24.39 2.33 1.65-3.2-.39-3.68-1.46.19-2-.49-2.81-.1-1.75 1.16-3.11 2.24-1.16 2.24-1.94-5.44-.77-8.64 2.14a7.53 7.53 0 0 0-2 7.57c.2.78 3 .39 4.66.87s.78 1.17-.49 1-3.39-.58-3.3.29 2.72 2.53 4.28 2.14 1.55-.39 2.23.48 2.52.59 4.37.68a45.82 45.82 0 0 1 4.85.88 2.71 2.71 0 0 0 2.23-1c.29-.49 3.88.77 4.95.68s.39-1.07-.29-1.36-.39-1.56.49-1.07 2.32.78 2.62 1.65 1.06.39 1.16 1.07 3.2 1.45 3.3 2.23-3 1.16-2.13 1.84 2.23-.87 3.39-1 1.17 2.53 2 2.14c1.19-.53 2.14.48 3.3 2.13s-.1 3.21 0 3.79 2.33.39 3.59-.29 2.43.78 3.4 1.65-3.59 2.33-3.2 1.55-2.72-3.1-5.54-2-.87 2.72-.58 3.69-2.52 1.94-5.14 1.07-1.85.58-2.91.58-2.24 1.65-1.27 2.72 3.11.1 4.86.19 1.94.59 2.13-.38 2-.49 3.3-.2 1 2 2.52 2.23.3 1.75 1.27 2.82 4.07.48 5.24 1.65 6.1 3.48 6.79 2.62-4.27-5.44-5.72-5.82 1.45-.88 3.3.58 4.56 2.13 5.92.39-1.17-1.27-1.17-2.53-.87-3-2.23-3-4.85-2.71-3.59-3.3-.39-1.36.58-2.42 1.94 1 3.11 1.06 1.36 1.56 3.2 3.11 2 .49 2.33-.58 2.33-.2 2.23-1.26 1.65-2.33 2.82-2.82-1-1.65-2.53-1.55a1.54 1.54 0 0 1-1.84-1.65c0-.68-2.91-2.33-3.88-2s-2.62-1.26-3.89-1.36-3.1-1.07-2.91-2.43 2.53.39 3-.67-2.43-.49-2.52-1.27.68-.48 1.26-1-.49-1.45-1.17-1.84-.87.78-1.55.78-.1-1.07.39-1.75-2.23-1.46-3.4-1.07-1.55-.29-1.55-1.07-2 0-2.82.58-1.73-.61-.76-.7zm-38.83-28.73c-1.74-.88-3.94 1-2.13 1.65 1.57.58 3.88-.78 2.13-1.65z" transform="translate(-5.71 -230.71)"/><path class="cls-4" d="M209.5 302.13c1.16-.2.95-2 .29-2.92-.49-.68-1.75-.77-2.82-.68s-2.91 1.75-1.94 3.4 3.3.39 4.47.2zm43.38 53.25c.91-.52-.06-1.1-1-.71s-3.56 3.95-3.56 4.92-.07 2.13-1 2.07-1.94.77-1.23 1.29-1.88 2-.65 2.66c.84.45 2.2-.2 3.37-.07a4 4 0 0 0 3.1-.52c1-.71 1 .65 2 .52s-.58.84-.52 1.55 1.1-.39 1.88-.77 1.74 0 1.36.64 2.13 1.3 2.71.26-.58-2.65-1-1.94-1-.52-.13-1.16-.13-.91-.9-.52-.58-1.75.13-2.14-1.75-1.16-1.75-.45-1.75.26-1.94-.39-1.42-.84-1-1.29-1.49-.71-1.68.06-.78-.51.19-1.55.74-1.94 1.62-2.46zm-52.41-90.23a2.77 2.77 0 0 1 2.43-.78c1.36 0 1.65-.87 1-1.94s-2.43.77-2.62 0c-.24-1-1.85-1.26-4.56-.88s-1.56-1.74.09-1.26a11.55 11.55 0 0 0 5.73-.19c1.84-.49.39-1.36.39-2.14s2.33-.29 4.07-.29 4.27-2.81 4.37-4.46-3.88-1.27-5.82-1.27 1.26-1.45 4.95-1.26 2-1.45 2.72-2 2.42.67 4.27.29.51-1.97 1.81-1.97c.89 0 2.91-1.36 6.89-3.6s7.09-1.84 7.28-3.1-5.53 0-6.5-.39 4-1.46 5.14-1.17 2.72 0 6.7-1.94 2.23-2.42.58-2.13-3.49-.29-3.39-1.36-2.43-.1-2.53-.68-2.43-.29-4.95.68-.19-1 .87-1.36-6.4 0-7.66-.87-2.72 1.45-3.89.29-4.17-.2-3.78.68-.49.87-1.65-.1-3.4.1-5.44-.19-1.16 1.65-3.39.68-4.66-.49-4-.2-.2.88-1.17.58-1.84.1-1.36 1.07-3.59-.29-3.59.78-1.45 1.65-2.62.68-4.85-1.26-3.78-.39-3.3.39-2.14 1.26-1.46 1.55-1.46 1.07-2.42-1.36-3.39-.49-1.26 1.94-1.75 1.36-2.62-.39-4.66.39.29 1.36 1.65.49 2.43-.3 1.26.29-.77 1 .88.87-.68.49-.68 1.46 1.94.39 2 1.36 4.27 1.35 5.53.19.77.29.68 1.07 5.92 1.45 6.21.48 1.16-.58 2.33-.29 6.89-1.07 7-2.23 1.84.58 0 1.84-5.54 1.07-7.18 1.56 1.06 1.65 2.71 2.91-2.13.58-3.69-1.07-5-1.65-6.89-1.55-1.26 3.49.1 3.49 2.72.49 4.08 2.62 4.27 1.65 4.27 2.62-3.79-.77-5.92-1.16-5.54 1-5.63 2.52 3.1 1.36 5.24.1.58.39-.49 1.36 2.53 1.74 2.53 2.91-2.62.78-2.92-.29-1.26-2.14-3.78-1.94-1.85 1.94-.29 2.13 1.65 1.36-.1 1.36-5.69 1.1-4.46 2.23 6.31 0 7.18.78 3.3 1.07 3.88.19 2.53-.48 4.47-.48m40.13 95.12c.2.78 5.83 3.11 6 2s-6.16-2.67-6-2zm-33.97-36.69c.68-.1 2-2.52.29-2.43s-1.35 2.63-.29 2.43zm-43-36.3c2.14 1.45 1.46-1.17 3.89-1.07s2.52-3.88 2.91-5.34-1.94-1.36-1.36-.29-.1 2.14-.29.87-2-.09-2.72-1.06 2.13-1.07 2.81-2.33-2.23-1.07-1.55-2-4.27.1-2.81.68.09 1.36-1.26.39-5.13.65-3.79 1.74c1.07.88 4.27-.58 2.43 1.95s-2.62-.68-4.37-.39-1 2.42 1.65 3.2 2.33 2.15 4.46 3.65zm-9.41-15.73c.68-.77-1.46-2.42-2-1.06s1.31 1.85 2 1.06zm21.84 2.14c1.74-.1.87-2.23-1.07-3.69s-6.3 1.54-5.53 2.14 4.85 1.64 6.6 1.55zm1.06-14.17c-.19-.58-7.55.3-6.4 1.16 1.94 1.46 6.6-.58 6.4-1.16zm-19.99 33.97c.58-.68 3 1.36 3.11-.1s-2.72-2.13-3.89-2.91-1.65-.39-3.49-1.75.48-2-.87-3.1-1.85-4-.88-5 2-2.43.29-3.11-4.56.59-4.27 1 2.72 1.75 2.72 2.33-2.23-1.65-3-1.16-1.65-1-2.33 0 .88 4.37 1.46 5.34-.58 1-1.36 1.16-.87-2.72-1.65-3.78-3.88-2.33-4.08-1.56 1.94.78 1.65 1.85-1.45-.68-2.52.19-.87.29-.68-.58-1.55-1.85-3.49-1.65-.88 1.55-1.46 2-3.49-.29-1.65-.68 1.07-1.46.39-2.53-2.53.2-5.53 1.27-4.37 2.23-4 2.33.48.58-.68 1.55 0 1.84 1.06 1.84.13.86.88 1.07 4.17-1.36 5.14-.68-5.73 1.07-5.73 2.23 3.69 1.85 6.41 1.36 7.48.39 7.48 1.07-3.21.48-5.63.39-6.6.68-6.41 1.45.48.88 3 2 5.14-.58 5 1.07 1.35 2 4.75 2.13 5-1.55 6.6-1.45 2.43-.2 3.2-1.36 1.46-.49 1.65.1 2.33.48 2.82 1c1.24 1.24 5.34.87 6.89.09s-.68-2.91-1.46-1.94-1.45.39-1.65-.09 1.63-.71 2.21-1.39zM172.61 271c.68 1.94 1.46.58 2.53 1.36s2.72 1.26 3.59.48 1.26-1.36 1.55-.68c.48 1.11 2.62 1.27 7.28 1.36s3.5-1.94 4.85-1.16 4.47.77 5.83.48 2-2.42 1.94-3.49-10.48-1.94-12.33-.87-4.75-.49-6.21.29-1-1-3.59-1.07.19-1.46.68-2-4-2.13-5.82-1.75-2.92-.58-4.66-1.36-6.49-.59-5.54.78c.68 1 6.31 3 6.9 2s2 1.16 2.91 2.23-.59 1.4.09 3.4zM32.81 434.86c-1.21.14-.54 3.18.11 2.67.46-.35 1.32-.42 1.57-.89s-.49-1.93-1.68-1.78zm7.27-101.43c.05-.54-.73-.49-1.7.63s-1.8 1.7-1.94 2.23-1.26-.1-1.6.58.24 2.19.92 1.7.73 0 1.16 0a7.51 7.51 0 0 0 2.87-2c.43-.68-.78-.87-.83-1.31s1-.43 1.55-.72-.51-.54-.43-1.11zM27.06 432c.47.72 1 .86 1.36.22s-1.9-1.05-1.36-.22zm4.15 1c-.72.11-.26 1.41.21 1.07.78-.57.5-1.17-.21-1.07zM7.22 349.2c1.17-.48 1.65-1.07 1.17-1.65s-2.06 2.02-1.17 1.65zm16.42 81.34c.64.68 1.1.5 1.28-.11s-1.92-.62-1.28.11zM9.16 327.7c-.09-.78-2.18-.05-1.94.68s2.21 1.2 3.06.92a.88.88 0 0 0 .44-1.5c-.54-.49-1.46.68-1.56-.1zm6.31 17.13c-1.07-.38-3.88 1.32-2.91 1.46.68.1 1-.58 1.75-.58s2.23-.49 1.16-.88zm188.27 78.28c-.45-.77-.8-.24-.8.64s.73 1 .74 1.47.74 1.17.88.88c.25-.51-.52-1-.6-1.35s.23-.87-.22-1.64zm35.79 34.31c.26.24 1.21 0 1.66-.2s.39-.84-.11-1.28-2.1.23-1.61.45-.24.76.06 1.03z" transform="translate(-5.71 -230.71)"/></g></g></svg>