<svg xmlns="http://www.w3.org/2000/svg" viewBox="0 0 65.99 54.45"><defs><style>.cls-1{font-size:10.87px;fill:#31333a;font-family:OpenSans, Open Sans;}.cls-2{fill:#34b2e4;}
	g:hover .cls-2{fill: #ffffff;}</style></defs><title>contactus</title><g id="Шар_2" data-name="Шар 2"><g id="Objects"><text class="cls-1" transform="translate(0 51.5)">CONTACT US</text><path class="cls-2" d="M34.87,3.18A10.84,10.84,0,1,0,33.8,19.44l4.91,4.91a2.31,2.31,0,0,0,.43,2.43l10.3,10.3a2.88,2.88,0,0,0,4-4l-10.3-10.3a2.31,2.31,0,0,0-2.43-.43L35.8,17.44A10.84,10.84,0,0,0,34.87,3.18ZM22,16a7.32,7.32,0,1,1,10.34,0A7.32,7.32,0,0,1,22,16Z"/></g></g></svg>