<svg xmlns="http://www.w3.org/2000/svg" viewBox="0 0 222.05 121.03"><defs><style>.cls-1{fill:#3f3a39;}.cls-2{fill:#e9ae97;}.cls-3{fill:#ededed;}.cls-4{fill:#dfdfdf;}.cls-5{fill:#f8c3aa;}.cls-6{fill:#fdca65;}.cls-7{fill:#634c40;}.cls-8{fill:#045382;}.cls-9{fill:#75c4b5;}.cls-10{fill:#2d2725;}.cls-11{fill:#d83b45;}.cls-12{fill:#31333a;}.cls-13{fill:#e34856;}</style></defs><title>people</title><g id="Шар_2" data-name="Шар 2"><g id="Objects"><path class="cls-1" d="M212.4,48.11l-8.78.66-8.78-.66a13.42,13.42,0,0,1,.65,4.92,20.79,20.79,0,0,0-.07,3.35l8.2,1.31,8.65-1.14s-.13-.9-.3-3.63A15.64,15.64,0,0,1,212.4,48.11Z"/><path class="cls-2" d="M203.51,54.62H199v6.69c0,.75,2,1.36,4.5,1.36s4.5-.61,4.5-1.36V54.62Z"/><polygon class="cls-3" points="197.61 58.39 197.61 74.3 209.63 74.3 209.63 58.39 203.62 60.74 197.61 58.39"/><polygon class="cls-4" points="203.62 60.74 197.61 58.39 195.64 59.76 198.17 64.46 203.62 60.74"/><polygon class="cls-4" points="203.62 60.74 209.63 58.39 211.6 59.76 209.08 64.22 203.62 60.74"/><path class="cls-5" d="M222.05,96c0,2.16-1.05,3.92-2.35,3.92s-2.35-1.76-2.35-3.92S218.4,92,219.7,92,222.05,93.79,222.05,96Z"/><path class="cls-5" d="M189.88,96c0,2.16-1,3.92-2.34,3.92s-2.35-1.76-2.35-3.92S186.24,92,187.54,92,189.88,93.79,189.88,96Z"/><path class="cls-6" d="M222.05,94.9s-.56-22.58-.77-28.19c-.19-5.06-3.31-6-3.93-6.09v0l-5.75-.84-8,5.75-8-5.75-5.75.84v0c-.62.13-3.74,1-3.93,6.09-.21,5.61-.77,28.19-.77,28.19H190L190.7,76l1.37,18.87,11.55.07,11.54-.06,1.38-18.91.7,19Z"/><path class="cls-5" d="M202.29,58.45a5.83,5.83,0,0,0,1.33.15,5.9,5.9,0,0,0,1.33-.15c2-.61,5.62-6.05,5.62-6a18.26,18.26,0,0,0,1-4.82c0-6.07-3.56-11-7.95-11s-8,4.93-8,11a19.14,19.14,0,0,0,1.06,4.92S200.3,57.84,202.29,58.45Z"/><path class="cls-5" d="M196.36,46.92c.21,1.08,0,2.06-.5,2.17s-1-.66-1.24-1.75,0-2.06.49-2.18S196.15,45.83,196.36,46.92Z"/><path class="cls-5" d="M210.88,46.92c-.21,1.08,0,2.06.49,2.17s1-.66,1.25-1.75,0-2.06-.49-2.18S211.09,45.83,210.88,46.92Z"/><path class="cls-1" d="M212.3,44.16c-.52-9.53-7.75-8.95-8.74-8.15-.77-.82-8.09-1.55-8.62,8.15,0,0-1,1-.1,4,0,0-.54-3.87,1-2.56a6.49,6.49,0,0,1,.24,2.26,18.55,18.55,0,0,1,.83-3.58A5.61,5.61,0,0,1,199,42.61s7.17,4.24,11,3.58v0a3.69,3.69,0,0,0,.87-.27c.2.95.33,1.89.33,1.89a6.35,6.35,0,0,1,.25-2.26c1.51-1.31,1,2.56,1,2.56C213.27,45.18,212.3,44.16,212.3,44.16Z"/><path class="cls-7" d="M177,38.65l-12.69.94-12.69-.94s1.44,6.71,1.2,10.66a15.18,15.18,0,0,0,.7,6.21h21.57a15.05,15.05,0,0,0,.71-6.21C175.54,45.36,177,38.65,177,38.65Z"/><path class="cls-2" d="M164.13,48.06h-6.5v9.66c0,1.09,2.91,2,6.5,2s6.51-.88,6.51-2V48.06Z"/><polygon class="cls-3" points="155.6 53.51 155.6 76.5 172.98 76.5 172.98 53.51 164.29 56.91 155.6 53.51"/><polygon class="cls-4" points="164.29 56.91 155.6 53.51 152.76 55.49 156.41 62.28 164.29 56.91"/><polygon class="cls-4" points="164.29 56.91 172.98 53.51 175.82 55.49 172.18 61.92 164.29 56.91"/><path class="cls-5" d="M190.93,107.81c0,3.13-1.52,5.67-3.39,5.67s-3.4-2.54-3.4-5.67,1.52-5.67,3.4-5.67S190.93,104.67,190.93,107.81Z"/><path class="cls-5" d="M144.43,107.81c0,3.13-1.52,5.67-3.39,5.67s-3.39-2.54-3.39-5.67,1.52-5.67,3.39-5.67S144.43,104.67,144.43,107.81Z"/><path class="cls-8" d="M190.93,106.28s-.81-32.64-1.12-40.76c-.27-7.3-4.78-8.6-5.68-8.79v0l-8.31-1.21L164.29,63.8l-11.53-8.31-8.31,1.21v0c-.9.19-5.41,1.49-5.69,8.79-.3,8.12-1.11,40.76-1.11,40.76h6.95l1-27.38,2,27.28,16.7.1L181,106.2l2-27.35,1,27.43Z"/><path class="cls-5" d="M162.36,53.59a8.58,8.58,0,0,0,3.86,0c2.87-.88,8.12-8.74,8.12-8.71a26.56,26.56,0,0,0,1.44-7c0-8.78-5.15-15.9-11.49-15.9s-11.49,7.12-11.49,15.9a27.59,27.59,0,0,0,1.53,7.1S159.49,52.71,162.36,53.59Z"/><path class="cls-5" d="M153.79,36.92c.3,1.57,0,3-.71,3.15s-1.51-1-1.81-2.54,0-3,.71-3.14S153.49,35.35,153.79,36.92Z"/><path class="cls-5" d="M174.78,36.92c-.3,1.57,0,3,.72,3.15s1.5-1,1.8-2.54,0-3-.71-3.14S175.09,35.35,174.78,36.92Z"/><path class="cls-7" d="M176.83,32.94c-.75-13.79-11.2-12.95-12.63-11.78-1.12-1.2-11.69-2.24-12.46,11.78,0,0-1.41,1.47-.14,5.71,0,0-.78-5.6,1.4-3.7a9.26,9.26,0,0,1,.35,3.25A26.93,26.93,0,0,1,154.54,33c.64-1.24,4.75-3.73,7.48-3.73h4.54c2.72,0,6.84,2.49,7.47,3.73a27.15,27.15,0,0,1,1.2,5.16,9,9,0,0,1,.35-3.25c2.18-1.9,1.4,3.7,1.4,3.7C178.25,34.41,176.83,32.94,176.83,32.94Z"/><path class="cls-7" d="M175.13,32.3l-.59-1,.13-.07L173,28.63S162.85,25,162.61,25s-2.49,1.44-4.55,2.69h-.43l.16.16L155,29.58a39.78,39.78,0,0,0,10.43,3.27,4.75,4.75,0,0,0,1,.15h0c.73.09,1.47.15,2.21.17a17.33,17.33,0,0,1,3.84.9,6.68,6.68,0,0,0-2.49-.89,18.3,18.3,0,0,0,2.22-.19,3.82,3.82,0,0,1,1.25,2.91,4.63,4.63,0,0,0-.65-3A15.25,15.25,0,0,0,175.13,32.3Z"/><path class="cls-2" d="M60,48.06h-6.5v9.66c0,1.09,2.91,2,6.5,2s6.51-.88,6.51-2V48.06Z"/><polygon class="cls-3" points="51.42 53.51 51.42 76.5 68.8 76.5 68.8 53.51 60.1 56.91 51.42 53.51"/><polygon class="cls-4" points="60.1 56.91 51.42 53.51 48.57 55.49 52.23 62.28 60.1 56.91"/><polygon class="cls-4" points="60.1 56.91 68.8 53.51 71.64 55.49 67.99 61.92 60.1 56.91"/><path class="cls-5" d="M86.75,107.81c0,3.13-1.52,5.67-3.4,5.67S80,110.94,80,107.81s1.52-5.67,3.39-5.67S86.75,104.67,86.75,107.81Z"/><path class="cls-5" d="M40.25,107.81c0,3.13-1.52,5.67-3.39,5.67s-3.39-2.54-3.39-5.67,1.51-5.67,3.39-5.67S40.25,104.67,40.25,107.81Z"/><path class="cls-9" d="M86.75,106.28s-.82-32.64-1.12-40.76c-.27-7.3-4.78-8.6-5.68-8.79v0l-8.31-1.21L60.11,63.8,48.57,55.49,40.26,56.7v0c-.89.19-5.41,1.49-5.68,8.79-.3,8.12-1.11,40.76-1.11,40.76h7l1-27.38,2,27.28,16.7.1,16.68-.08,2-27.35,1,27.43Z"/><path class="cls-5" d="M58.18,53.59a8.53,8.53,0,0,0,3.85,0c2.88-.88,8.13-8.74,8.13-8.71a26.56,26.56,0,0,0,1.44-7c0-8.78-5.15-15.9-11.49-15.9s-11.5,7.12-11.5,15.9A27.59,27.59,0,0,0,50.15,45S55.31,52.71,58.18,53.59Z"/><path class="cls-5" d="M49.61,36.92c.3,1.57,0,3-.71,3.15s-1.51-1-1.81-2.54,0-3,.71-3.14S49.31,35.35,49.61,36.92Z"/><path class="cls-5" d="M70.6,36.92c-.3,1.57,0,3,.71,3.15s1.51-1,1.81-2.54,0-3-.71-3.14S70.9,35.35,70.6,36.92Z"/><path class="cls-1" d="M72.65,32.94C71.9,19.15,61.45,20,60,21.16,58.9,20,48.33,18.92,47.56,32.94c0,0-1.41,1.47-.15,5.71,0,0-.78-5.6,1.4-3.7a9.12,9.12,0,0,1,.36,3.25A26.93,26.93,0,0,1,50.36,33c.63-1.24,4.75-3.73,7.48-3.73h4.53c2.73,0,6.85,2.49,7.48,3.73A26.93,26.93,0,0,1,71,38.2,9.12,9.12,0,0,1,71.4,35c2.18-1.9,1.4,3.7,1.4,3.7C74.06,34.41,72.65,32.94,72.65,32.94Z"/><path class="cls-1" d="M71,32.3l-.59-1,.13-.07-1.7-2.59S58.67,25,58.43,25s-2.5,1.44-4.56,2.69h-.42l.16.16-2.82,1.7a39.78,39.78,0,0,0,10.43,3.27,4.75,4.75,0,0,0,1,.15h0c.72.09,1.46.15,2.21.17a17.33,17.33,0,0,1,3.84.9,6.74,6.74,0,0,0-2.5-.89A18.46,18.46,0,0,0,68.05,33,3.82,3.82,0,0,1,69.3,35.9a4.6,4.6,0,0,0-.66-3A15.07,15.07,0,0,0,71,32.3Z"/><polygon class="cls-7" points="60.1 56.91 56.02 59.69 56.7 61.35 60.1 63.8 63.51 61.35 64.19 59.69 60.1 56.91"/><path class="cls-2" d="M113.16,34h-9.64V46.84c0,1.46,4.32,2.63,9.64,2.63s9.64-1.17,9.64-2.63V34Z"/><path class="cls-5" d="M110.73,41a10.33,10.33,0,0,0,4.86,0c3.61-1.09,10.87-11.92,10.88-11.88a26.76,26.76,0,0,0,1.15-7.84c0-11-6.48-20-14.46-20s-14.46,9-14.46,20a26.43,26.43,0,0,0,1.16,7.84S107.12,39.87,110.73,41Z"/><path class="cls-5" d="M100,20c.38,2,0,3.75-.89,4s-1.9-1.22-2.28-3.19,0-3.75.9-4S99.58,18,100,20Z"/><path class="cls-5" d="M126.37,20c-.38,2,0,3.75.89,4s1.9-1.22,2.28-3.19,0-3.75-.9-4S126.75,18,126.37,20Z"/><path class="cls-10" d="M113.16,0c-8.47,0-15.34,7.28-15.34,16.27,0,.17,0,.35,0,.52.1,0,1.06.22,1.14,2.54,0,1.39,0,1.81,0,1.93l1.27.74s.16-8.82,6.34-9.09h13.12c6.18.27,6.35,9.09,6.35,9.09l1.26-.74c0-.12,0-.54,0-1.93.07-2.32,1-2.53,1.13-2.54,0-.17,0-.35,0-.52C128.5,7.28,121.63,0,113.16,0Z"/><path class="cls-10" d="M101.55,11.48s12.66,8.39,24,4.12c0,0,.49-6.13-5.4-7S101.55,11.48,101.55,11.48Z"/><polygon class="cls-3" points="101.6 41.25 101.6 71.83 124.72 71.83 124.72 41.25 113.16 45.77 101.6 41.25"/><polygon class="cls-11" points="113.16 46.84 109.74 65.61 113.16 72.5 116.58 65.61 113.16 46.84"/><polygon class="cls-11" points="113.16 45.77 108.73 47.68 113.16 52.27 117.18 47.68 113.16 45.77"/><polygon class="cls-4" points="113.16 45.77 101.6 41.25 97.82 43.88 102.68 52.91 113.16 45.77"/><polygon class="cls-4" points="113.16 45.77 124.72 41.25 128.5 43.88 123.65 52.44 113.16 45.77"/><path class="cls-5" d="M148.6,113.48c0,4.17-2,7.55-4.51,7.55s-4.51-3.38-4.51-7.55,2-7.54,4.51-7.54S148.6,109.31,148.6,113.48Z"/><path class="cls-5" d="M86.75,113.48c0,4.17-2,7.55-4.52,7.55s-4.51-3.38-4.51-7.55,2-7.54,4.51-7.54S86.75,109.31,86.75,113.48Z"/><path class="cls-12" d="M148.6,111.45S147.52,68,147.12,57.23c-.37-9.71-6.37-11.45-7.56-11.7v0L128.5,43.88,113.16,54.94,97.82,43.88,86.76,45.5v0c-1.19.25-7.19,2-7.56,11.7-.4,10.79-1.48,54.22-1.48,54.22H87L88.31,75,91,111.32l22.21.13,22.2-.11L138,75l1.35,36.49Z"/><path class="cls-2" d="M18.32,54.62h-4.5v6.69c0,.75,2,1.36,4.5,1.36s4.5-.61,4.5-1.36V54.62Z"/><polygon class="cls-3" points="12.42 58.39 12.42 74.3 24.44 74.3 24.44 58.39 18.43 60.74 12.42 58.39"/><polygon class="cls-4" points="18.43 60.74 12.42 58.39 10.45 59.76 12.98 64.46 18.43 60.74"/><polygon class="cls-4" points="18.43 60.74 24.44 58.39 26.41 59.76 23.89 64.22 18.43 60.74"/><path class="cls-5" d="M36.86,96c0,2.16-1,3.92-2.35,3.92S32.16,98.12,32.16,96,33.22,92,34.51,92,36.86,93.79,36.86,96Z"/><path class="cls-5" d="M4.69,96c0,2.16-1.05,3.92-2.34,3.92S0,98.12,0,96,1.05,92,2.35,92,4.69,93.79,4.69,96Z"/><path class="cls-13" d="M36.86,94.9s-.56-22.58-.77-28.19c-.19-5.06-3.31-6-3.93-6.09v0l-5.75-.84-8,5.75-8-5.75L4.7,60.6v0c-.62.13-3.74,1-3.93,6.09C.56,72.32,0,94.9,0,94.9H4.81L5.51,76,6.88,94.83l11.55.07L30,94.84l1.38-18.91.7,19Z"/><path class="cls-5" d="M17.09,58.45a6,6,0,0,0,1.34.15,5.9,5.9,0,0,0,1.33-.15c2-.61,5.62-6.05,5.62-6a18.26,18.26,0,0,0,1-4.82c0-6.07-3.56-11-7.95-11s-7.95,4.93-7.95,11a19.14,19.14,0,0,0,1.06,4.92S15.11,57.84,17.09,58.45Z"/><path class="cls-5" d="M11.17,46.92c.21,1.08,0,2.06-.5,2.17s-1-.66-1.25-1.75,0-2.06.5-2.18S11,45.83,11.17,46.92Z"/><path class="cls-5" d="M25.69,46.92c-.21,1.08,0,2.06.49,2.17s1-.66,1.25-1.75,0-2.06-.49-2.18S25.9,45.83,25.69,46.92Z"/><path class="cls-10" d="M27.11,44.16c-.3-5.49-2.83-7.62-5.11-8.29l-3.09-1.54a36.55,36.55,0,0,0-5.12,1.45,3.74,3.74,0,0,0-1.35,1.39c-1.37,1.26-2.49,3.41-2.69,7,0,0-1,1-.1,4,0,0-.54-3.87,1-2.56a6.49,6.49,0,0,1,.24,2.26,18.55,18.55,0,0,1,.83-3.58c.35-.69,2.29-1.95,4-2.41l7.56.88a5.3,5.3,0,0,1,1.9,1.53A18.55,18.55,0,0,1,26,47.81a6.22,6.22,0,0,1,.24-2.26c1.51-1.31,1,2.56,1,2.56C28.08,45.18,27.11,44.16,27.11,44.16Z"/></g></g></svg>