<svg xmlns="http://www.w3.org/2000/svg" viewBox="0 0 169.15 135.54"><defs><style>.cls-1{fill:#f4992c;}.cls-2{fill:#fcc83b;}.cls-3{fill:#efeeee;}.cls-4{fill:#bbbbba;}.cls-5{fill:#adadad;}.cls-6{fill:#8d8c8c;}.cls-7{opacity:0.5;}.cls-8{fill:#1a1a1a;}.cls-9{fill:#e9ae97;}.cls-10{fill:#3f3a39;}.cls-11{fill:#f8c3aa;}.cls-12{fill:#d83b45;}.cls-13{fill:#dfdfdf;}.cls-14{fill:#7a7d82;}.cls-15{fill:#157aad;}.cls-16{fill:#045382;}.cls-17{fill:#2d2725;}.cls-18{fill:#31333a;}.cls-19{fill:#404349;}</style></defs><title>deal</title><g id="Шар_2" data-name="Шар 2"><g id="Objects"><path class="cls-1" d="M84.26,41.52h.67v31h-5.1l-.15-4c-.81-3.77-7-9.68-7.16-14.4A12.2,12.2,0,0,1,84.26,41.52Z"/><path class="cls-2" d="M85.6,41.52h-.67v31H90l.15-4c.81-3.78,7-9.69,7.15-14.41A12.19,12.19,0,0,0,85.6,41.52Z"/><path class="cls-3" d="M79.68,73.62H90.2a.56.56,0,0,0,.57-.56h0a.57.57,0,0,0-.57-.57H79.68a.58.58,0,0,0-.57.57h0A.58.58,0,0,0,79.68,73.62Z"/><path class="cls-4" d="M90.12,73.61a3.66,3.66,0,0,1,0,.57v4.41a3,3,0,0,1-3,3H82.74a3,3,0,0,1-3-3V74.19a2.62,2.62,0,0,1,.06-.57Z"/><path class="cls-5" d="M87.05,81.62a3.83,3.83,0,0,1-4.21,0Z"/><path class="cls-6" d="M79.66,76.34,89.88,79a.69.69,0,0,0,.83-.48h0a.69.69,0,0,0-.49-.83L80,75a.66.66,0,0,0-.82.48h0A.68.68,0,0,0,79.66,76.34Z"/><path class="cls-6" d="M79.66,78.86l9.6,2.51a.68.68,0,0,0,.82-.49h0a.66.66,0,0,0-.48-.82L80,77.55a.67.67,0,0,0-.83.48h0A.68.68,0,0,0,79.66,78.86Z"/><path class="cls-6" d="M84.25,73.62l6,1.56a.68.68,0,1,1-.34,1.31L79.66,73.82a.79.79,0,0,1-.33-.2Z"/><g class="cls-7"><polygon class="cls-8" points="82.62 72.53 77.31 53.7 79.07 54.6 79.39 53.62 80.99 54.04 80.98 52.98 82.6 54.13 83.33 53.1 85 54.14 86.11 53.1 88.03 54.33 88.98 53.01 90.07 54.21 92.11 52.83 87.27 72.53 86.83 72.42 91.39 53.87 90 54.8 89.02 53.73 88.15 54.94 86.16 53.67 85.05 54.71 83.45 53.71 82.7 54.76 81.44 53.86 81.45 54.63 79.69 54.17 79.34 55.25 78.03 54.58 83.06 72.41 82.62 72.53"/></g><polygon class="cls-9" points="21.96 35.2 21.89 37.27 34.26 45.2 39.88 35.77 25.94 22.4 21.96 35.2"/><path class="cls-10" d="M43.77,1A43.92,43.92,0,0,0,36,.17,15.11,15.11,0,0,0,30.6.34a18.12,18.12,0,0,0-3.85,1.24l-.13.06h0c-7.07,3.34-8.4,10.52-9,15.49C16.91,22.88,21.32,35.68,22,35.2s6.42-5.7,6.42-5.7l4.67-6.74,1.75,2s.37-6.48.47-7.29,3.78-4.48,4.85-5,2.93.82,2.93.82c3.84,2.05,5.71,2.13,6.61,1.78h0c2.67-.32,4.09-8.74,4.09-8.74C52.55,6.73,43.77,1,43.77,1Z"/><path class="cls-11" d="M27.4,23.11a.08.08,0,0,0,0,0,5.77,5.77,0,0,1,.18-1.6c.67-3.83,2.44-3.33,2.44-3.33h0a3.61,3.61,0,0,1,2.23,1.37,23.53,23.53,0,0,0,.79,3.25c.24.32.45-3.09.45-3.09a21.39,21.39,0,0,0,1.77-2.22c.16-.39,3.09-5.07,5.31-5.07s8.18,2.82,8.18,2.82a48.18,48.18,0,0,1,0,5.9c-.24,1.11,1.35,8.64,1.19,9.19s-1.58.95-1.58.95l-.24.4c-.37,1-1,2.77-1,2.9s-.56.22-.56.22c.13.46.31,1,0,1.24-.55.31-.47,2.29-.63,2.85s-2.38,1.27-4,1.19h0a10.5,10.5,0,0,1-2.94-1.33,29.93,29.93,0,0,1-6.82-4.58L32,34c-2.34-2.56-2.37-7.1-2.37-7.1a4.69,4.69,0,0,1-2.24-3.8Z"/><polygon class="cls-12" points="36.22 44.68 38.87 49.68 38.06 50.98 36.22 44.68"/><polygon class="cls-13" points="20.86 35.57 37.22 44.53 38.06 50.98 20.02 36.77 20.86 35.57"/><path class="cls-14" d="M12.8,57a7.79,7.79,0,1,0,7.79-7.79A7.8,7.8,0,0,0,12.8,57Z"/><path class="cls-15" d="M40.08,88l8.63-7.57A2.45,2.45,0,0,0,48.93,77l-22-25.08a8.19,8.19,0,0,0-11.54-.76h0a8.2,8.2,0,0,0-.76,11.55l22,25.08A2.46,2.46,0,0,0,40.08,88Z"/><path class="cls-15" d="M38,87l4.11-11.17a2.17,2.17,0,0,1,2.76-1.28L79.11,90l-3.92,10.93L39.26,89.77A2.17,2.17,0,0,1,38,87Z"/><path class="cls-15" d="M36.65,87.78A8.17,8.17,0,0,0,48.92,77,8.17,8.17,0,0,0,36.65,87.78Z"/><path class="cls-9" d="M75.41,100.27s13.09,2.85,15.32,2,7.38-2.8,7.47-3.52-3.52-4.62-8.54-5.08c-10.55-1-1.08-1.91-1.08-1.91s1.88-1.15-.08-1.32-9.55,0-9.55,0Z"/><path class="cls-16" d="M20,36.77s-6,2.51-10.87,9.91C2.57,56.77.16,75.12,0,86.11c-.09,8.59.05,27,.05,27.1h38s7-56.68,0-62.23Z"/><path class="cls-14" d="M12.8,57a7.79,7.79,0,1,0,7.79-7.79A7.8,7.8,0,0,0,12.8,57Z"/><path class="cls-11" d="M30.36,125.12c1.14,5.11-.16,9.74-2.9,10.35s-5.88-3-7-8.13.15-9.74,2.89-10.36S29.22,120,30.36,125.12Z"/><path class="cls-15" d="M7.86,90.44,19.1,92.77A2.46,2.46,0,0,0,22,90.87L28.77,58.2a8.21,8.21,0,0,0-6.35-9.68h0a8.21,8.21,0,0,0-9.67,6.35L6,87.54A2.46,2.46,0,0,0,7.86,90.44Z"/><path class="cls-15" d="M7.38,88.17l11.39-3.45a2.16,2.16,0,0,1,2.68,1.44l8.34,36.61-11.08,3.46L6,90.85A2.15,2.15,0,0,1,7.38,88.17Z"/><path class="cls-15" d="M6,87.57a8,8,0,0,0,6.39,9.35,7.86,7.86,0,1,0,3.2-15.38A8,8,0,0,0,6,87.57Z"/><polygon class="cls-9" points="147.19 35.2 147.25 37.27 134.89 45.2 129.27 35.77 143.21 22.4 147.19 35.2"/><path class="cls-17" d="M126.09,13.26s1.87-1.34,2.94-.82,4.75,4.2,4.85,5,.47,7.29.47,7.29l1.75-2,4.67,6.74s5.79,5.23,6.42,5.7,5.05-12.32,4.36-18.06-2.38-14.59-13-16.8C127.55-2,121,8.26,121,8.26s-2.22,5.71-2.38,5.94C118.66,14.2,119.12,17,126.09,13.26Z"/><path class="cls-11" d="M141.74,23.11v0a5.41,5.41,0,0,0-.19-1.6c-.66-3.83-2.43-3.33-2.43-3.33h0a3.61,3.61,0,0,0-2.23,1.37,25.07,25.07,0,0,1-.79,3.25c-.24.32-1.86-.28-1.86-.28s-.2-4.63-.36-5-3.09-5.07-5.31-5.07-8.18,2.82-8.18,2.82a48.18,48.18,0,0,0,0,5.9c.23,1.11-1.35,8.64-1.19,9.19s1.58.95,1.58.95l.24.4c.37,1,1,2.77,1,2.9s.55.22.55.22c-.12.46-.31,1,0,1.24.56.31.48,2.29.64,2.85s2.38,1.27,4,1.19h0a10.63,10.63,0,0,0,2.94-1.33A29.93,29.93,0,0,0,137,34.12l.1-.11c2.34-2.56,2.36-7.1,2.36-7.1a4.68,4.68,0,0,0,2.25-3.8Z"/><polygon class="cls-12" points="132.93 44.68 130.28 49.68 131.09 50.98 132.93 44.68"/><polygon class="cls-13" points="148.29 35.57 131.93 44.53 131.09 50.98 149.13 36.77 148.29 35.57"/><path class="cls-18" d="M149.13,36.77s6,2.51,10.86,9.91c6.59,10.09,9,28.44,9.12,39.43.1,8.59,0,27,0,27.1h-38s-7-56.68,0-62.23Z"/><path class="cls-14" d="M156.35,57a7.8,7.8,0,1,1-7.79-7.79A7.8,7.8,0,0,1,156.35,57Z"/><path class="cls-19" d="M129.06,88l-8.62-7.57a2.46,2.46,0,0,1-.23-3.45l22-25.08a8.2,8.2,0,0,1,11.55-.76h0a8.2,8.2,0,0,1,.76,11.55l-22,25.08A2.47,2.47,0,0,1,129.06,88Z"/><path class="cls-19" d="M131.16,87l-4.1-11.17a2.17,2.17,0,0,0-2.76-1.28L90,90,94,100.88l35.93-11.11A2.15,2.15,0,0,0,131.16,87Z"/><path class="cls-19" d="M132.5,87.78a8.17,8.17,0,1,1-1-11.28A8,8,0,0,1,132.5,87.78Z"/><path class="cls-11" d="M93.74,100.27s-13.09,2.85-15.33,2S71,99.42,71,98.7s3.52-4.62,8.54-5.08c10.55-1,1.07-1.91,1.07-1.91s-1.88-1.15.09-1.32,9.55,0,9.55,0Z"/></g></g></svg>