<svg xmlns="http://www.w3.org/2000/svg" viewBox="0 0 77.92 82.19"><defs><style>.cls-1{fill:#f4992c;}.cls-2{fill:#fcc83b;}.cls-3{fill:#efeeee;}.cls-4{fill:#bbbbba;}.cls-5{fill:#adadad;}.cls-6{fill:#8d8c8c;}.cls-7{opacity:0.5;}.cls-8{fill:#1a1a1a;}.cls-9{font-size:12.99px;fill:#31333a;font-family:OpenSans, Open Sans;}</style></defs><title>great-idea</title><g id="Шар_2" data-name="Шар 2"><g id="Objects"><path class="cls-1" d="M36.7,0l.67,0-1,31-5.09-.17,0-4c-.69-3.8-6.65-9.92-6.66-14.64A12.19,12.19,0,0,1,36.7,0Z"/><path class="cls-2" d="M38,.05c-.22,0-.45,0-.67,0l-1,31,5.1.17.28-4c.94-3.74,7.3-9.44,7.64-14.15A12.19,12.19,0,0,0,38,.05Z"/><path class="cls-3" d="M31,31.92l10.51.36a.57.57,0,0,0,.59-.55h0a.58.58,0,0,0-.55-.59l-10.51-.35a.57.57,0,0,0-.59.55h0A.57.57,0,0,0,31,31.92Z"/><path class="cls-4" d="M41.46,32.28a2.6,2.6,0,0,1,0,.56l-.14,4.41a3,3,0,0,1-3.13,2.92L33.81,40a3,3,0,0,1-2.92-3.12L31,32.49a2.61,2.61,0,0,1,.08-.56Z"/><path class="cls-5" d="M38.12,40.17a3.11,3.11,0,0,1-2.12.56,3.15,3.15,0,0,1-2.09-.7Z"/><path class="cls-6" d="M30.92,34.64l10.12,3a.67.67,0,0,0,.84-.46h0a.68.68,0,0,0-.45-.84l-10.13-3a.68.68,0,0,0-.84.46h0A.68.68,0,0,0,30.92,34.64Z"/><path class="cls-6" d="M30.83,37.16,40.34,40a.67.67,0,0,0,.84-.45h0a.68.68,0,0,0-.46-.85l-9.5-2.83a.67.67,0,0,0-.84.46h0A.67.67,0,0,0,30.83,37.16Z"/><path class="cls-6" d="M35.6,32.08l5.91,1.76a.68.68,0,1,1-.39,1.3L31,32.12a.64.64,0,0,1-.32-.21Z"/><g class="cls-7"><polygon class="cls-8" points="34.01 30.94 29.34 11.93 31.07 12.9 31.42 11.93 33 12.4 33.03 11.34 34.61 12.54 35.37 11.54 37 12.64 38.15 11.64 40.03 12.93 41.02 11.64 42.07 12.88 44.15 11.57 38.65 31.09 38.21 30.97 43.4 12.58 41.98 13.47 41.04 12.36 40.13 13.54 38.19 12.21 37.04 13.21 35.47 12.16 34.69 13.18 33.46 12.24 33.44 13.01 31.7 12.48 31.31 13.55 30.02 12.84 34.45 30.83 34.01 30.94"/></g><text class="cls-9" transform="translate(0 63.09)">YOU HAVE A <tspan x="0" y="15.58">GREAT IDEA!</tspan></text></g></g></svg>