<svg xmlns="http://www.w3.org/2000/svg" viewBox="0 0 146.6 97.9"><defs><style>.cls-1{fill:#efe3bf;}.cls-2{fill:#8d8c8c;}.cls-3{fill:#34b2e4;}.cls-4{fill:#566e6f;}.cls-5{fill:#fcaf38;}.cls-6{fill:#518780;}.cls-7{fill:#5d5c54;}</style></defs><title>list</title><g id="Шар_2" data-name="Шар 2"><g id="Objects"><rect class="cls-1" x="8.75" y="6.92" width="69.79" height="84.07" transform="translate(-10.11 11.39) rotate(-13.34)"/><rect class="cls-2" x="4.71" y="12.26" width="61.33" height="3.57" transform="translate(-2.28 8.54) rotate(-13.34)"/><rect class="cls-2" x="6.29" y="20.18" width="61.33" height="1.09" transform="translate(-3.78 9.08) rotate(-13.33)"/><rect class="cls-2" x="7.11" y="23.61" width="61.33" height="1.09" transform="translate(-4.55 9.36) rotate(-13.34)"/><rect class="cls-2" x="8.17" y="29.17" width="42.83" height="1.09" transform="translate(-6.06 7.62) rotate(-13.33)"/><rect class="cls-2" x="8.98" y="32.6" width="42.83" height="1.09" transform="translate(-6.83 7.9) rotate(-13.33)"/><rect class="cls-2" x="9.55" y="33.9" width="61.33" height="1.09" transform="translate(-6.86 10.2) rotate(-13.33)"/><rect class="cls-2" x="10.67" y="40.01" width="38.07" height="1.09" transform="translate(-8.55 7.94) rotate(-13.33)"/><rect class="cls-2" x="17.51" y="67.51" width="61.33" height="1.09" transform="translate(-14.4 12.95) rotate(-13.33)"/><rect class="cls-2" x="21.7" y="85.44" width="61.33" height="0.58" transform="translate(-18.36 14.39) rotate(-13.34)"/><rect class="cls-2" x="12.3" y="46.89" width="37.89" height="1.09" transform="translate(-10.1 8.49) rotate(-13.34)"/><rect class="cls-2" x="13.11" y="50.32" width="37.89" height="1.09" transform="translate(-10.87 8.77) rotate(-13.34)"/><rect class="cls-2" x="13.93" y="53.75" width="37.89" height="1.09" transform="translate(-11.64 9.05) rotate(-13.33)"/><polygon class="cls-2" points="52.24 53.88 15.38 62.62 15.12 61.56 51.99 52.82 52.24 53.88"/><rect class="cls-2" x="15.24" y="57.9" width="61.33" height="1.09" transform="translate(-12.24 12.16) rotate(-13.34)"/><rect class="cls-2" x="16.05" y="61.33" width="61.33" height="1.09" transform="translate(-13.01 12.44) rotate(-13.34)"/><path class="cls-3" d="M30.28,82a4.13,4.13,0,1,0,5,3.06A4.13,4.13,0,0,0,30.28,82ZM32,89.4a3.44,3.44,0,1,1,2.56-4.14A3.44,3.44,0,0,1,32,89.4Z"/><path class="cls-3" d="M33.8,85.45a2.64,2.64,0,1,1-3.18-2A2.63,2.63,0,0,1,33.8,85.45Z"/><path class="cls-3" d="M38.12,85.65l-1.06-.31a2.51,2.51,0,0,0,0-.27l.93-.61-1.1-.12-.09-.26.81-.76-1.1.07-.13-.25.66-.88-1.08.26-.17-.22.5-1-1,.44c-.07-.06-.14-.13-.21-.18l.32-1.06-.92.61L34.2,81l.13-1.09-.8.76-.26-.1-.06-1.11-.65.89-.27-.06L32,79.2l-.49,1h-.28l-.43-1-.31,1.06-.28,0-.6-.92-.12,1.1-.27.08-.75-.8.07,1.1-.25.13-.88-.66.26,1.07-.22.17-1-.5.44,1a1.8,1.8,0,0,0-.19.2l-1.05-.32.61.92-.15.24L25.06,83l.77.8a2.72,2.72,0,0,0-.11.25l-1.1.07.89.65-.06.27-1.07.25,1,.5a2.44,2.44,0,0,0,0,.27l-1,.44,1.06.31c0,.09,0,.18,0,.27l-.92.61,1.09.12.09.26-.8.76,1.1-.07c0,.08.08.16.13.24l-.66.89,1.07-.26.17.21-.5,1,1-.44.2.18-.32,1.06L28,91l.24.14-.13,1.1.8-.76.25.1.06,1.11.66-.89.27,0,.25,1.08.49-1h.28l.43,1,.32-1,.27,0,.61.93.12-1.1.26-.08.76.8-.07-1.1.24-.13.89.66-.26-1.07.21-.17,1,.49-.44-1,.18-.21,1.06.32-.61-.92A1.76,1.76,0,0,0,36.3,89l1.1.13-.76-.8a2,2,0,0,0,.1-.26l1.1-.06L37,87.38a2.56,2.56,0,0,0,0-.27l1.08-.26-1-.49c0-.09,0-.18,0-.27Zm-5.74,5.23a5,5,0,1,1,3.68-6A5,5,0,0,1,32.38,90.88Z"/><path class="cls-3" d="M30.32,81.57a.15.15,0,0,1-.11.18.14.14,0,0,1-.17-.11.15.15,0,0,1,.1-.18A.16.16,0,0,1,30.32,81.57Z"/><path class="cls-3" d="M29.55,81.8a.14.14,0,0,1-.07.19.14.14,0,0,1-.19-.08.15.15,0,0,1,.07-.19A.14.14,0,0,1,29.55,81.8Z"/><path class="cls-3" d="M28.84,82.15a.15.15,0,0,1,0,.21.15.15,0,0,1-.2,0,.15.15,0,0,1,0-.21A.15.15,0,0,1,28.84,82.15Z"/><path class="cls-3" d="M28.2,82.63a.15.15,0,0,1,0,.21.14.14,0,0,1-.2,0,.15.15,0,1,1,.21-.2Z"/><path class="cls-3" d="M27.65,83.21a.14.14,0,1,1-.2,0A.13.13,0,0,1,27.65,83.21Z"/><path class="cls-3" d="M27.21,83.87a.16.16,0,0,1,.07.2.15.15,0,0,1-.2.06.14.14,0,0,1-.06-.19A.15.15,0,0,1,27.21,83.87Z"/><path class="cls-3" d="M26.89,84.6a.15.15,0,0,1,.1.19.14.14,0,0,1-.18.09.14.14,0,0,1-.1-.18A.15.15,0,0,1,26.89,84.6Z"/><path class="cls-3" d="M26.71,85.38a.15.15,0,0,1,.13.16.16.16,0,0,1-.17.13.14.14,0,0,1-.12-.16A.15.15,0,0,1,26.71,85.38Z"/><path class="cls-3" d="M26.66,86.17a.15.15,0,0,1,.15.14.13.13,0,0,1-.13.15.15.15,0,0,1-.16-.13A.16.16,0,0,1,26.66,86.17Z"/><path class="cls-3" d="M26.75,87a.15.15,0,0,1,.18.1.16.16,0,0,1-.11.18.15.15,0,0,1-.18-.11A.14.14,0,0,1,26.75,87Z"/><path class="cls-3" d="M27,87.73a.15.15,0,1,1-.08.19A.14.14,0,0,1,27,87.73Z"/><path class="cls-3" d="M27.33,88.45a.14.14,0,0,1,.2,0,.14.14,0,0,1,0,.2.16.16,0,0,1-.2,0A.14.14,0,0,1,27.33,88.45Z"/><path class="cls-3" d="M27.81,89.09a.13.13,0,0,1,.2,0,.14.14,0,0,1,0,.21.15.15,0,0,1-.21,0A.14.14,0,0,1,27.81,89.09Z"/><path class="cls-3" d="M28.39,89.63a.15.15,0,0,1,.2,0,.16.16,0,0,1,0,.21.14.14,0,0,1-.2,0A.15.15,0,0,1,28.39,89.63Z"/><path class="cls-3" d="M29.05,90.07a.15.15,0,1,1,.26.14.14.14,0,0,1-.19.06A.14.14,0,0,1,29.05,90.07Z"/><path class="cls-3" d="M29.78,90.39a.15.15,0,0,1,.18-.1.15.15,0,0,1,.1.19.14.14,0,0,1-.18.09A.14.14,0,0,1,29.78,90.39Z"/><path class="cls-3" d="M30.56,90.58a.15.15,0,0,1,.29,0,.16.16,0,0,1-.17.13A.15.15,0,0,1,30.56,90.58Z"/><path class="cls-3" d="M31.35,90.63a.16.16,0,0,1,.14-.16.15.15,0,0,1,.15.14.13.13,0,0,1-.13.15A.15.15,0,0,1,31.35,90.63Z"/><path class="cls-3" d="M32.14,90.54a.16.16,0,0,1,.11-.18.15.15,0,0,1,.18.11.13.13,0,0,1-.11.17A.15.15,0,0,1,32.14,90.54Z"/><path class="cls-3" d="M32.91,90.31a.14.14,0,0,1,.08-.19.14.14,0,1,1,.11.26A.14.14,0,0,1,32.91,90.31Z"/><path class="cls-3" d="M33.62,90a.15.15,0,0,1,.05-.2.16.16,0,0,1,.2,0,.15.15,0,0,1,0,.2A.14.14,0,0,1,33.62,90Z"/><path class="cls-3" d="M34.26,89.48a.15.15,0,1,1,.21,0A.15.15,0,0,1,34.26,89.48Z"/><path class="cls-3" d="M34.81,88.9a.14.14,0,0,1,0-.2.15.15,0,0,1,.21,0,.15.15,0,0,1,0,.2A.15.15,0,0,1,34.81,88.9Z"/><path class="cls-3" d="M35.25,88.24a.15.15,0,0,1-.06-.2.14.14,0,0,1,.19-.06.13.13,0,0,1,.07.19A.16.16,0,0,1,35.25,88.24Z"/><path class="cls-3" d="M35.57,87.5a.14.14,0,0,1-.1-.18.15.15,0,0,1,.18-.09.14.14,0,0,1,.1.18A.14.14,0,0,1,35.57,87.5Z"/><path class="cls-3" d="M35.76,86.73a.15.15,0,1,1,.16-.13A.15.15,0,0,1,35.76,86.73Z"/><path class="cls-3" d="M35.8,85.93a.14.14,0,0,1-.15-.13.16.16,0,0,1,.14-.16.15.15,0,0,1,.15.14A.13.13,0,0,1,35.8,85.93Z"/><path class="cls-3" d="M35.71,85.14a.14.14,0,0,1-.17-.11.14.14,0,0,1,.11-.17.15.15,0,0,1,.17.1A.15.15,0,0,1,35.71,85.14Z"/><path class="cls-3" d="M35.49,84.38a.15.15,0,0,1-.19-.08.14.14,0,0,1,.07-.19.14.14,0,0,1,.19.07A.15.15,0,0,1,35.49,84.38Z"/><path class="cls-3" d="M35.13,83.66a.14.14,0,0,1-.2,0,.14.14,0,1,1,.24-.16A.14.14,0,0,1,35.13,83.66Z"/><path class="cls-3" d="M34.66,83a.14.14,0,0,1-.21,0,.15.15,0,0,1,0-.21.14.14,0,0,1,.2,0A.13.13,0,0,1,34.66,83Z"/><path class="cls-3" d="M34.08,82.47a.14.14,0,0,1-.2,0,.15.15,0,0,1,0-.2.16.16,0,0,1,.21,0A.14.14,0,0,1,34.08,82.47Z"/><path class="cls-3" d="M33.42,82a.15.15,0,0,1-.2.07.16.16,0,0,1-.07-.2.15.15,0,0,1,.2-.06A.15.15,0,0,1,33.42,82Z"/><path class="cls-3" d="M32.68,81.71a.14.14,0,0,1-.18.1.14.14,0,0,1-.1-.18.17.17,0,0,1,.19-.1A.15.15,0,0,1,32.68,81.71Z"/><path class="cls-3" d="M31.91,81.53a.15.15,0,1,1-.13-.16A.15.15,0,0,1,31.91,81.53Z"/><path class="cls-3" d="M31.11,81.48a.14.14,0,0,1-.13.15.14.14,0,0,1-.16-.13.16.16,0,0,1,.14-.16A.15.15,0,0,1,31.11,81.48Z"/><path class="cls-3" d="M76,80.78a5.79,5.79,0,0,1-5.19-1.11c-.15-.12-.32.09-.25.23l.13.27a21.11,21.11,0,0,1-2.88-2.54,12.82,12.82,0,0,0-2.3-2.57.17.17,0,0,0-.25.24c.7.82,1.4,1.63,2.14,2.41a3.49,3.49,0,0,1,.33,3.92,2.07,2.07,0,0,1-2.59.87,1.59,1.59,0,0,0-1.17-2.44.17.17,0,0,0-.18.12,2.33,2.33,0,0,0,.8,2.42l-.16.12c-.19.12,0,.43.17.31a2.47,2.47,0,0,0,.29-.24,2.38,2.38,0,0,0,2.65-.41,3.3,3.3,0,0,0,.86-3.31,4.5,4.5,0,0,0-.14-.49A18.56,18.56,0,0,0,71,80.85c.15.1.32-.08.25-.24l-.13-.25a6.12,6.12,0,0,0,4.92.76A.18.18,0,0,0,76,80.78ZM64.52,82.1A2,2,0,0,1,64,80.66l.44-.06a1.22,1.22,0,0,1,.56.79,1.07,1.07,0,0,1-.21.94A2,2,0,0,1,64.52,82.1Z"/><path class="cls-3" d="M83.82,77.94c-3.34,1.65-6.52-.32-9-2.62a13.79,13.79,0,0,0-1.43-1.43c-.17-.14-.42.08-.26.25.43.45.89.92,1.38,1.37a11.37,11.37,0,0,1,1,1.35,4.14,4.14,0,0,1,.8,1.85c.07.78-.56.88-1.07.83a1,1,0,0,0,0-1.16c-.5-.83-2,.17-1.31.91a1.86,1.86,0,0,0,.41.33c-.13.14-.34.08-.64-.18-.19-.11-.38.19-.18.3a1.47,1.47,0,0,0,1.33.09,1.31,1.31,0,0,0,1.81-1.11,3.8,3.8,0,0,0-.89-2.11c2.38,1.87,5.23,3.1,8.2,1.64C84.2,78.15,84,77.84,83.82,77.94Z"/><path class="cls-4" d="M139.31,59.25h1.45a3.47,3.47,0,0,1,3.47,3.47v4.81A3.48,3.48,0,0,1,140.76,71h-1.45a3.47,3.47,0,0,1-3.47-3.47V62.72a3.47,3.47,0,0,1,3.47-3.47Z" transform="translate(44.67 186.6) rotate(-76.81)"/><path class="cls-5" d="M71.06,47.34v0l-2.23,1,6.85.94A2,2,0,0,1,77.21,49c1,.22,1.59,1,1.42,1.65s-1,1.06-2,.84a2.06,2.06,0,0,1-1.24-.81L68.78,48.5l1.58,1.82c2.2.52,6.1,3.71,6.1,3.71l6.73-.69.35-1.49.35-1.49-5.72-3.62S73.26,47.86,71.06,47.34Z"/><rect class="cls-4" x="108.17" y="29.98" width="8.54" height="57.21" transform="translate(29.67 154.62) rotate(-76.76)"/><rect class="cls-6" x="111.1" y="27.76" width="3.73" height="57.21" transform="translate(32.22 153.41) rotate(-76.76)"/><rect class="cls-7" x="79.33" y="50.77" width="8.41" height="2.16" transform="translate(13.94 121.3) rotate(-76.77)"/><polygon class="cls-5" points="118.52 55.19 116.35 64.44 115.49 64.23 117.67 54.99 118.52 55.19"/><rect class="cls-5" x="135.52" y="64.74" width="9.5" height="0.88" transform="translate(44.68 186.79) rotate(-76.75)"/><path class="cls-5" d="M140.86,64.76h7.08a1.16,1.16,0,0,1,1.16,1.16v.48a1.15,1.15,0,0,1-1.15,1.15h-7.08a1.15,1.15,0,0,1-1.15-1.15v-.48a1.16,1.16,0,0,1,1.16-1.16Z" transform="translate(46.93 191.56) rotate(-76.76)"/><path class="cls-5" d="M145,63.75l-.05.24a.57.57,0,0,1-.69.42L125.1,59.92a.58.58,0,0,1-.43-.69l0-.24a.59.59,0,0,1,.7-.43l19.12,4.5A.57.57,0,0,1,145,63.75Z"/></g></g></svg>