<svg xmlns="http://www.w3.org/2000/svg" xmlns:xlink="http://www.w3.org/1999/xlink" viewBox="0 0 412.78 305.86"><defs><style>.cls-1{fill:none;}.cls-2{opacity:0.4;}.cls-3{clip-path:url(#clip-path);}.cls-4{fill:#c6c6c6;stroke:#fff;stroke-miterlimit:10;stroke-width:0.25px;}</style><clipPath id="clip-path" transform="translate(-381.51 -294.21)"><rect class="cls-1" width="800" height="800"/></clipPath></defs><title>map3</title><g id="Шар_2" data-name="Шар 2"><g id="Objects"><g class="cls-2"><g class="cls-3"><path class="cls-4" d="M396.24,382.36c.94-.13.81-4,.46-4.07s-.46.61-1.36,1.16S395.34,382.49,396.24,382.36Z" transform="translate(-381.51 -294.21)"/><path class="cls-4" d="M790.15,316.68c-.45.33-3.32.17-2.72.85s3,.26,4.08.9,2.65.13,2.65-.39S790.6,316.36,790.15,316.68Z" transform="translate(-381.51 -294.21)"/><path class="cls-4" d="M665.26,404.36a1.36,1.36,0,0,1,1.88-.71c.65.33,1.49-1,1.49-1.94s-1.94-1-2.2-.26-1,.39-2.07.59-1.07,2.66-.33,2.91S665.07,405.14,665.26,404.36Z" transform="translate(-381.51 -294.21)"/><path class="cls-4" d="M681.57,378.41c-.78.14.06.91-.84,1.3s-.84,1-.39,1.29.13,1.1,0,1.69.58.13,1.1-.46,1.06.28,1.17-.26-1.36-1-1.3-1.61,1,.19,1.81-.2a3.51,3.51,0,0,1,3.3.78c1,.84,1.23.52,1.43-.52s1.68-1.49,3.17-1.49,1.61-.71,1.16-1,2.46-2.2,2.4-2.72-1.56,1.17-2,.58-1.23.33-2.2.52-4-2.33-4.79-3.49-2.07-.2-1.42.64-.13,1.1-.13,2.27-.78,1.16-.65,1.94S682.35,378.29,681.57,378.41Z" transform="translate(-381.51 -294.21)"/><path class="cls-4" d="M670.05,397.83c.07-.58-1.16-.26-2.65.32s-2.4-.65-3.24.2-2.26,2.33-3.36,2.52-.47,1.53,0,1.29c.78-.39,2,0,2.39-.58s3.56-1.29,5.5-1.36.78.91.91,1.94,1.75.85,2.59-.12,1.49-.91.77-1.5.13-1.09.65-.32a1.77,1.77,0,0,0,2.78-.19c.65-1,.84.19,1.62.13s1.23-2,1.3-1.3,1.29.52,2.07-.32.06-2.33.58-3.11a3.87,3.87,0,0,0,.52-3.36c-.52-1,1.16-1.62,2-2.4s-1-4.65-1-5.82-2.14.45-2.79.78-1.1,2.33-.38,2.91-1.17,1.68-1.11,2.91-1.16,1.23-1.35,2.14-.91.71-2,1.55-1.68-.13-1.42-.71-1.68.32-1.62,1.75-1.81,1.55-1.36,2.2S670,398.41,670.05,397.83Z" transform="translate(-381.51 -294.21)"/><path class="cls-4" d="M658.47,403.33c-1,.71-1.29.84-.91,1.55s1,.07,1.23-.65.91,1,.33,2.2.07,2.81.84,2.66,1.49-2.46,2.46-3.69-.46-.78-.46-1.42-1.42-.52-1.48-1.1S659.44,402.62,658.47,403.33Z" transform="translate(-381.51 -294.21)"/><path class="cls-4" d="M615,438c.06-.78,1.33-2,1.16-2.59s-1.87-.19-2.72-.19-3,1.23-2.13,3S614.92,438.79,615,438Z" transform="translate(-381.51 -294.21)"/><path class="cls-4" d="M637.7,430.18c.64-.45,3.3-6,2.72-6.79s-3.17.45-3.89,3S637.48,430.33,637.7,430.18Z" transform="translate(-381.51 -294.21)"/><path class="cls-4" d="M635.69,443.71c-.19.58.07,3,.58,3s.91.65.59,1.68,1,1.17,2.2.72.77.84,2,.64,2.92,1.36,2.66,1.95.06,2.45.64,1.94,1.49.12.91,1,.9,1.68,1.1,2.71.84.2.71-.58.13-.71,1-1.29-.06-1.56-.58-2.66S645,452.05,645,451s-1.42-1.36-1.49-1.94-1.94-1.17-3-.52-.32-1.17-1.1-2,.58-2.07,1.49-3.1-.26-2.78-.13-3.56.06-1-.39-.78-2.33-.77-3.17-.26-.06,4.79-.45,5.11S635.84,443.27,635.69,443.71Z" transform="translate(-381.51 -294.21)"/><path class="cls-4" d="M640.42,453.61c-1,.19-.64,3.12.12,3,.33-.06,1.11,0,1.17-.65s.78,1.17.19,1.75-.58,2.2.33,2.4,2.59-2.91,2.33-3.5-1,.39-.84-.38S641.39,453.41,640.42,453.61Z" transform="translate(-381.51 -294.21)"/><path class="cls-4" d="M632.91,457.81c-.9,1.17-3.07,3.1-2.78,3.63.39.71,2.78-2.85,4-3.69a1.55,1.55,0,0,0,.58-2.33C634.27,454.64,633.82,456.65,632.91,457.81Z" transform="translate(-381.51 -294.21)"/><path class="cls-4" d="M636.92,450.31c.2.9.65,2.78,2.07,2.32S636.78,449.66,636.92,450.31Z" transform="translate(-381.51 -294.21)"/><path class="cls-4" d="M648.18,459.17c.58,1-1.1.19-1.23,1.16s-1.36.2-1.29,1-1.3,0-1.94-.45-1.56,1.23-2.53,1.49-1.48,2.32-.84,2.27,1.16-1.11,1.94-1,.52-.78,1.62-.58.32,3.49,1.81,3.75,1.56,1.17,2.27,1.17-.13-2.07-.07-2.79,1.55-.06,2.33-1-.52-3.3-.52-4.85S647.6,458.2,648.18,459.17Z" transform="translate(-381.51 -294.21)"/><path class="cls-4" d="M646,458.07c-.51-.65-1.8.55-1.61,1S646.56,458.72,646,458.07Z" transform="translate(-381.51 -294.21)"/><path class="cls-4" d="M705.77,490.81c0,.58-1,.91-2.65,1.55s-4.56-.74-4.66.2c-.06.58,1.81,1.62,3.56,1.62s4.53-1.75,4.53-2.27,1.1-1.42.64-1.94S705.77,490.23,705.77,490.81Z" transform="translate(-381.51 -294.21)"/><path class="cls-4" d="M707.32,488.48c1.3,1.23.6,2.27,1.36,2.07,1.23-.32.33-1.55-.71-2.2S706,487.25,707.32,488.48Z" transform="translate(-381.51 -294.21)"/><path class="cls-4" d="M696.26,495.08c1.16.07,1.36-.58.45-1.42s-4.2-1.16-4.33-2.39-6-4.15-8.61-4.73c-.46-.1-1-.27-1.62-.47-2.8-.95-6.71-2.69-7.5-2.64-1,.07-1.1,1.75-1.94,1.75s-2,1.75-3.56,2.27-1.62-4.47-2.33-5.44-4.6-1.75-5-.64-1.73.51-1.87,1.42.32.58,1.16.58.84.65,1.23,1.49,2.72.26,3.5.19.9,1-.2.65-1.1.52-1.87.32-1.82-.12-1.3.33,1.36.9,1.36,1.94,1.49.84,1.49,0,.78.26,2.26.65.46,1,1.94,1a15.6,15.6,0,0,1,6.15,2.14c1.3,1,.39,1.61,1.23,2.52s1.1,1.94-.07,1.94-2.39,1.17-2.06,1.75,4.14-.26,5-.26c.6,0,1.19,1.05,2.33,1.82a4.5,4.5,0,0,0,2.33.77c2.85.13,2.14-1.49,2.65-1.49s.72-.91,1.3-1.62,3.11-.13,4.59,1,3.24,4.59,4.79,4.27,3.17.9,4.6.84.12-1.16-.33-1.36-1.62-1-1.55-1.49-1.29-.45-2.2-1-.58-2.46-1.55-2.92S695.09,495,696.26,495.08Z" transform="translate(-381.51 -294.21)"/><path class="cls-4" d="M491.77,452.23c.72.75,2.15-.13,2.22-.43S491,451.38,491.77,452.23Z" transform="translate(-381.51 -294.21)"/><path class="cls-4" d="M526.05,597.24c-.29-.66-2.66,1.62-.76,2.47.85.37,1.23-.48,1.8,0a1.18,1.18,0,0,0,1.89-.86C529.17,597.72,526.33,597.91,526.05,597.24Z" transform="translate(-381.51 -294.21)"/><path class="cls-4" d="M723.53,501.05a1.87,1.87,0,0,0,2.24,1.22C726.35,501.93,723.33,500.05,723.53,501.05Z" transform="translate(-381.51 -294.21)"/><path class="cls-4" d="M725.81,498.87c-.48,1.07,1.46,2.91,1.75,3S726.19,498.05,725.81,498.87Z" transform="translate(-381.51 -294.21)"/><path class="cls-4" d="M712.5,492.36c-.13.59,2,3.67,2.72,3.18C716.64,494.63,712.63,491.78,712.5,492.36Z" transform="translate(-381.51 -294.21)"/><path class="cls-4" d="M716.64,495.08c0,.24,1.51,1.75,1.85,1.51S716.73,494.64,716.64,495.08Z" transform="translate(-381.51 -294.21)"/><path class="cls-4" d="M727.51,503.19c.1.24,1.36,1.4,2,1S727.35,502.77,727.51,503.19Z" transform="translate(-381.51 -294.21)"/><path class="cls-4" d="M723.92,499c.54-.33-3-2.27-3.06-1.65S723.39,499.31,723.92,499Z" transform="translate(-381.51 -294.21)"/><path class="cls-4" d="M671.9,563.07c.53.49,2.32.34,2.62-.34S671.42,562.64,671.9,563.07Z" transform="translate(-381.51 -294.21)"/><path class="cls-4" d="M658.16,506.29c.49.39,2.91-.09,2.82-.68S657.42,505.7,658.16,506.29Z" transform="translate(-381.51 -294.21)"/><path class="cls-4" d="M693.83,576.56c-1.31.15-3.28-1.19-3.74-1.06s1.7,3.49,1,4.37,2,3.25,2.92,3.39.58-.92,1.21-.87.39-.63.48-1.12.73.54,1.27.25-.15-2.38.63-2.38.14-2.52-.1-3.35S695.14,576.42,693.83,576.56Z" transform="translate(-381.51 -294.21)"/><path class="cls-4" d="M709.6,543.61c.39-.29-.19-1.84-.53-1.6s-.34-2.43-.1-3.64.1-1.07-.53-.43-1.31-1.22-1.46-1.7-.87-1.85-1.7-1.65-.29-1.17-1.06-1-.92-1.12-.78-2.28-.53-.25-.87-.73-.73-.1-1.27.1-.68-1-.53-1.51-.1-1.07-.82-1.6a1.5,1.5,0,0,1-.73-1.6c0-.63-4.13-2.77-5.05-3s-.14-1.17-.53-1.51a4.65,4.65,0,0,1-.54-2.67c0-1.06-1.36-1.4-1.31-2.28s-.38-1.7-.29-2.67-1.41-1.21-1.45-1.74-.88,0-1.7,0-.78-1.07-.68-2.19-.34-3-1-3.49-.73-2.38-1.07-2.67-1.46,1-1.41,1.6a2.17,2.17,0,0,1-.53,1.75c-.44.38.29,1.89-.29,2.42s-.05,2.67-.19,3.89-.1,2.52-.68,3.34-.68,2.14-1.85,2.58-2.72-.49-2.67-1.12-1.26-1-1.94-.92-1.07-.88-2.14-1.7-1.89.19-2.23-.78-.68-1.11-1.45-1.65-.54-.53.19-1.06.58-1.22.2-1.85.43-.48,1.4-1,0-1.16.73-1.45.29-.93-.48-1.07-.54.77-.83.87-.58-1.21-.82-1.16-1.17,1.31-1.65.68-3.21-1.17-4.28-1.31-1.4-1.51-2-1.27.09.68.82,1.46-2.43,1.31-3.35,1,.15.68-.63.63-.92,1.31-1.55,2-.2,1.17-.88,1.6-.72.92.1,1.85-.39,1-1.11.24-1.46-.73-1.41.1-.87.43-.73-.49-1-.49-1.21-1a2.57,2.57,0,0,0-1.85-1.36c-.63.05-.63.73-1.26.73s-.78.34-.68,1-1-.05-1.7,0,0,.92-.39,1-.38.73-1,.73-.54,1.4-.44,2.13-1-.34-1.6-.14.14.82.34,1.65-.34.77-.68,1.11-.88-.92-.88-1.65-.82-.05-1.69.88.29,2.33-.1,2.57a25.1,25.1,0,0,0-3.16,3.1c-1,1.22-3.2.49-3.88,1.07s-1.41.15-2.09.68-1.94,1.55-2.08.92-1.89-.14-2.62.63a4.84,4.84,0,0,1-2.72,1.51c-.82,0-.82,1.31-1.16,1.6s-.25-1-.25-1.36-.77.58-1.11,1.6.82,1.41.09,2.48-1.4,2.13-.38,3.49,1.6,2.23,1.26,2.91-1.07-1.35-1.31-1.11.92,1.11.63,1.55-1.34-1.65-1.56-1.16,2.19,3.73,2.24,4.95,1.94,2.37,1.84,4.12,1.65,4.56,1.94,5-.68,1.6-.48,2.91-.44,1.8-1.26,1.8-.34,1.36.58,1.45.58.73,1.6,1.41,3.44.44,4.27.44,1.07-1.26,2.18-1.31,1-.39,1.56-1.07,3-.48,5.63-.34,3.69-.63,4.07-1.7c.33-.91,2.19-1,2.91-1.65s1.36-.73,3.26-.63,3.64-.92,4.85-1.41,3.45-.29,4.61-.58,1.36,1.46,2.67,1.31,1.89.39,2.57.34.58.49,1.26.63.59.73.15,1.36,1,.58,1.94,1.84.05,1.46.53,2.43.83.73,1.8-.63,2-.49,2.18-1.65,1.17-2.52,1.85-1.94-.49.87-.93,3.1-1.21,1.07-1.35,1.7,2,1,2-.19.39-1.7,1.22-.63-.49,1.94-.29,2.42,1.11-.14,1.6-.09c.86.08,2,2,1.84,3s-.48,2,1.17,2.81,1,1,2.23,1a10.23,10.23,0,0,1,4.42,1.55c.67.59,2.42-.43,2.76-1.6s1.6,0,.92.34.34,1.31.39.68.34-1.16.58-.43,1.12.72,1.46,1.31.73,1,.73.53.19-.92,1-1.21a7.73,7.73,0,0,0,2.09-1.51c.82-.68,4.22-.82,4.56-.82s.53-2.91.73-4.42,1.45-1.75,1.64-3.35,1.9-4.56,2.33-4.7a1.8,1.8,0,0,0,1.32-1.51c0-.92,1.16-1.94,1.16-3.06s.63-2.42.53-2.76a2.2,2.2,0,0,1,.25-2.19C710.23,544.83,709.21,543.9,709.6,543.61Z" transform="translate(-381.51 -294.21)"/><path class="cls-4" d="M740.81,592.87c.34.1,1.45-.19.82-1S740,592.64,740.81,592.87Z" transform="translate(-381.51 -294.21)"/><path class="cls-4" d="M754.83,576.13c-.68-.49-1,.19-1.74.53s-1.21-1.6-2.14-.87-.09,1-1.11,1.89-.59,1.17-1.8,3.06-5.39,3-6,4-2.72,1.84-2.77,2.62-1.31,1.33-.58,2.38c.58.82,1.36.24,2,.87s1.27.1,1.56.63,2.42.54,4-.92.83-2.13,1.46-2.52.73-1.56,1.12-2.28a2.21,2.21,0,0,1,2.42-1.51c1.75,0,.83-.34.73-1.16s1.46-1,1.46-2,2.13-2,1.69-2.87S755.51,576.62,754.83,576.13Z" transform="translate(-381.51 -294.21)"/><path class="cls-4" d="M762.75,568.32c-.44.72-1.32-.2-2.14-.2a1.25,1.25,0,0,1-1.31-1.31c0-.73-.2-1.8-1-1.75s.24.83-.05,1.22-.49-.44-.87-.44-.83-.53-.83-1.5-.82-.88-.82-2-1.75-2-2.72-2,.19,1.74.68,2.33,1.55,1.11,1.5,1.55a2.57,2.57,0,0,0,1.31,1.75c.59.19-.34,1.89-.34,3.25s-1.07,1.11-1.79,2,1.84,1.74,2.91,2.62-.92,3-.63,3.49c.14.24.87.58,2,.29s1.65-2.71,2.43-3.39.29-1.75.68-2.28.92-.49,1.45-.49.24-1.31.92-1.31.34-.92.73-1.94S763.18,567.59,762.75,568.32Z" transform="translate(-381.51 -294.21)"/><path class="cls-4" d="M765.61,518.13c.53.2,2.28-.38,2.28-1.21S764.8,517.84,765.61,518.13Z" transform="translate(-381.51 -294.21)"/><path class="cls-4" d="M762.6,520.71c.82.77,2.47.72,2.52-.68S761.86,520,762.6,520.71Z" transform="translate(-381.51 -294.21)"/><path class="cls-4" d="M451.18,510.81c-.57.82-2.18-1.75-2.38-3.35s.92-2.38.24-3.88c-.56-1.26-.92-2.47-.51-2.84a.46.46,0,0,1,.32-.12c.74,0,1.61,2.8,1.57,4.43a2.35,2.35,0,0,1-.11.76c-.42,1.09.87,3.58.93,4.63A.59.59,0,0,1,451.18,510.81ZM397.79,410.37l.12-.12Zm-.85.61-.07.07Zm-.12.13a.3.3,0,0,0-.06.11A.3.3,0,0,1,396.82,411.11Zm.21-.19.08-.06ZM452.46,469l-.16-.07Zm-8.27,68.7a.47.47,0,0,0,0,.17A.92.92,0,0,1,444.19,537.74Zm-1.55-8.06a.36.36,0,0,0-.13-.08h0A.35.35,0,0,1,442.64,529.68Zm-1.9-32.51c-.5-.82-1-1.9-1.6-2.23-1.06-.59-1.5-7.91-1-8.11q.1,0,.21.21a15.29,15.29,0,0,1,.54,2.27c.33,1.65.73,3.62,1.34,4.17,1.12,1,.92,2.19,1.16,2.86s1.22,1.46.54,1.75C441.52,498.28,441.13,497.81,440.74,497.17ZM407,474.57h0Zm2.29-12.67.12.31Zm-.25-.72.18.53Zm.59,1.47-.14-.27Zm-2.75,11.92h0Zm-.57,0h0Zm.93,0,.17,0Zm19-17.69,0,.06Zm-.2-.29.05.07Zm-.24-.33s0,0,0,0S425.84,456.25,425.83,456.24Zm15.45,28.41.08,0Zm.27-.08.11-.06Zm-.55.13h0Zm-.81-2.53.15-.05Zm1.57,2.28a.27.27,0,0,0,.11-.17A.27.27,0,0,1,441.76,484.45Zm-1.27-2.38.2-.06Zm.35-.11.24-.07Zm-6.46-14-.54-1.35.5,1.26Zm-23.21,5.54a1.1,1.1,0,0,0-.14.21h0A1.73,1.73,0,0,1,411.17,473.46Zm-1.5-10.7h0a1,1,0,0,0,.19.24A1.22,1.22,0,0,1,409.67,462.76Zm-2.84-12.34-.1,0a.71.71,0,0,0,.22.06Zm-.37-.2.07.08Zm-.74,24.34-.88,0h-.09Zm.42,0h0ZM424.9,519h0Zm.88-.18h0Zm-.3.06h0Zm1.6-.25-.13,0Zm.37,0-.17,0Zm.37,0-.19,0Zm.38,0h0Zm1,.21a.12.12,0,0,0,0-.09A.12.12,0,0,1,429.21,518.76Zm-.07-.11-.08,0Zm-.14,0-.12,0Zm-.19,0h0Zm-.24,0h0ZM438,528.77c0-.35-.11-.84-1.08-.92,1,.08,1.08.57,1.08.91v0h0Zm2.48-16.07.37-.13Zm6.71-11.77,0,.05Zm.12.25.06.1Zm.15.3.06.13Zm.27.63a1.15,1.15,0,0,1,.06.17Zm-.13-.32.07.16Zm.29.79c0-.05,0-.11-.05-.17S447.85,502.53,447.87,502.58Zm-5.68,9.48-.11,0Zm-.94.35-.12,0Zm-.05-30.55,1-.27Zm1.54-10.61h0Zm.23-.08.08,0Zm.25-.07.12,0Zm.24-.06.2,0Zm-38.25-22a.56.56,0,0,1,.21,0A.56.56,0,0,0,405.21,449.08Zm-1-22.16.27.06Zm.51.11.29.09Zm-1-.18.24,0Zm-.47-.05.19,0Zm1.49,47.73h0ZM441,529.4h0Zm1.41.15-.1,0Zm-.33,0h0Zm5.85-26.83a.88.88,0,0,1,0,.2A.88.88,0,0,0,447.89,502.67Zm-.45-19c-.63.29.88,1.21.15,1.36s-2.38-.68-3.55-.2c-.78.33-.62-1.63,0-3.35.41-1.14,1-2.18,1.66-2.37a6.15,6.15,0,0,1,2.92.07c.86.22,1.5.54,1.45.8-.1.54-1.55.29-1.55,1.41,0,.07,0,.15,0,.22A2.33,2.33,0,0,1,447.44,483.63Zm5.19-14.51.37.15Zm-42-42.36-2,1.06-1.74.94Zm-5.47.42a2,2,0,0,1,.39.2A2,2,0,0,0,405.19,427.18Zm-2.79-.42h0Zm.54,0h0Zm-.34,0h0Zm-4.6-16.6a.8.8,0,0,0,.15-.21A.8.8,0,0,1,398,410.17Zm-.34.3-.11.08Zm-15.23,41.58-.22,0Zm-.8.61h0Zm.17-.42-.05.06Zm-.11.19,0,0Zm.25-.32-.07.05Zm.18-.07-.1,0Zm1.43,1.16h0ZM384,453a.76.76,0,0,0,.06-.27A.57.57,0,0,1,384,453Zm1.3-16-.16,0,.45-.09Zm16.29,37.42h0l-.4.12-.54.15ZM439.88,529h0Zm.74.33h0Zm-.31-.07-.08,0Zm26.1-76.36,0-.05Zm.32-.45,0-.07Zm.28-.42,0,0Zm-12.67-6.79a.28.28,0,0,0,0,.09A.28.28,0,0,1,454.34,445.27Zm0,.37a1.47,1.47,0,0,0,0,.21A1.47,1.47,0,0,1,454.29,445.64Zm.16,1.49-.12-.71Zm-.12-.75c0-.12,0-.23,0-.35C454.3,446.15,454.31,446.26,454.33,446.38Zm174.6-86.77a.87.87,0,0,1,.27.15A1.17,1.17,0,0,0,628.93,359.61Zm.49.36a.5.5,0,0,0-.17-.19A.73.73,0,0,1,629.42,360Zm-.49-.36a3.25,3.25,0,0,0-.83-.2A3.25,3.25,0,0,1,628.93,359.61Zm-.88-.2a1.74,1.74,0,0,0-.32,0A1.74,1.74,0,0,1,628.05,359.41Zm-.41,0a1.22,1.22,0,0,0-.3.06A1.22,1.22,0,0,1,627.64,359.4Zm-19.25,87.67h0Zm0,.48h0Zm0,.66v0Zm-22.95-32.65h0Zm-75.83-2.48-.17-.17Zm-13.35-30.8a2.09,2.09,0,0,0,.28.3A2.09,2.09,0,0,1,496.28,382.28Zm.88.56a.48.48,0,0,0,.17,0A.48.48,0,0,1,497.16,382.84Zm6.66-11.74c.71-1,1.67-.18,2,.07s.13-1.1.91-1-.06,1.3.52,1.3,1.49,1.6,1.16,2.87a1.63,1.63,0,0,1-.65.95c-1.61,1.16-3.16,1-2.65-.46s.58-3.1-.26-3.1-.25,3-.9,3.17-.8-2.16-.32-3.39A3.2,3.2,0,0,1,503.82,371.1Zm45.29-2.65c.46.13-.45,1-2.26,1s-5.83-.91-7.44.84-.46,2.65-1.17,2.78-1.16-2.65-.26-3.56,3.82-1.29,5.63-.84S548.66,368.32,549.11,368.45ZM552,412.08l-.06.06Zm.16-.15h0Zm-3.54-10.48a.22.22,0,0,0,0-.08A.22.22,0,0,1,548.57,401.45Zm0-.34v0Zm-.09-.4,0,.09Zm-.06,1.57a1.4,1.4,0,0,0,0,.31A1.4,1.4,0,0,1,548.43,402.28ZM537.5,387.9h0l-.39.05Zm-7-1.83h0Zm-1,0h0Zm1.31-.06.14,0Zm.58-.08h0Zm.4-.07.12,0Zm.34-.1.09,0ZM525,394.37l-.17-.07Zm-.29-.14-.18-.11Zm.8,0a.35.35,0,0,1-.18.18A.35.35,0,0,0,525.49,394.2Zm-.25.2a.85.85,0,0,1-.16,0A.85.85,0,0,0,525.24,394.4Zm7.77.8h0Zm.56,0-.1,0Zm-.31.05h0Zm.73-.17-.18.06h0Zm3.17-1.92a4.32,4.32,0,0,0-1.56,1A4.32,4.32,0,0,1,537.16,393.13Zm1.32.64.12,0Zm.34.06.17,0Zm12.74-12.93s0-.1,0-.15S551.57,380.86,551.56,380.9Zm0-.3c0-.13,0-.26,0-.41C551.58,380.34,551.59,380.47,551.59,380.6Zm1,30.84h0a.33.33,0,0,0,0-.13A.33.33,0,0,1,552.58,411.44ZM530,382.16h0Zm-.23-.06h0Zm-.28,0-.15,0Zm-.75.19.41-.14Zm-19,15.9,0,0Zm-.15.19,0,.06Zm-.11.26,0,.08Zm.69-.66h0Zm11.43-4.85a2.1,2.1,0,0,1-1.26-.28A2.18,2.18,0,0,0,521.58,393.12Zm-11.47-23.4c-.26.35-2.82-.31-3-.83S510.66,369,510.11,369.72Zm13.7,24a.59.59,0,0,0-.22-.05A.59.59,0,0,1,523.81,393.73Zm.25.12-.16-.08Zm.27.16-.16-.1Zm15,0a1.6,1.6,0,0,1,.4.25l.38-.08-.38.08A1.6,1.6,0,0,0,539.31,394Zm1,.14-.12,0Zm6.36,4.29h0l0,0Zm.23.31,0-.06Zm4.93,13.52-.06.06Zm-.13.19,0,.06Zm.66-.72,0,0Zm.2-.21,0,.06ZM566,361.06v0l0,0Zm2.31,55.45a.79.79,0,0,0,.17-.19A.79.79,0,0,1,568.26,416.51Zm.86.93a1.35,1.35,0,0,0,0,.49A1.35,1.35,0,0,1,569.12,417.44Zm.12,1a1.67,1.67,0,0,1-.13-.45A1.67,1.67,0,0,0,569.24,418.4Zm6.33-1.28,0,0,.06,0Zm-.24.12,0,0Zm.44-.2.09,0ZM576,417l.08,0Zm.19-.07.07,0Zm-8.56-55.35h0Zm.11,55.33Zm-.1.17s0,0,0,0S567.62,417,567.62,417Zm.57-.47-.09.06Zm1.06,1.85a.72.72,0,0,0,.12.21A.72.72,0,0,1,569.25,418.41Zm.12.22a1,1,0,0,0,.13.15A1,1,0,0,1,569.37,418.63Zm.15.17a.42.42,0,0,0,.12.08A.42.42,0,0,1,569.52,418.8Zm.15.1a.23.23,0,0,0,.14,0A.23.23,0,0,1,569.67,418.9Zm15.19-3.7,0,0Zm19.56,33.39a3.46,3.46,0,0,1-.68-.3A3.74,3.74,0,0,0,604.42,448.59Zm-9.26-16.21,0,0Zm-2.79,1.52a1.08,1.08,0,0,0-.18.11A1.08,1.08,0,0,1,592.37,433.9Zm.32-.15-.3.13Zm.16-.09.06,0Zm.23-.2,0,.05Zm2.74-3.83a.4.4,0,0,0,.25.09A.4.4,0,0,1,595.82,429.63Zm.31.09a1.11,1.11,0,0,0,.34-.06A.87.87,0,0,1,596.13,429.72Zm.7-.23-.14.08-.15.07A2,2,0,0,0,596.83,429.49Zm.46-.38a1.59,1.59,0,0,1-.34.3A1.59,1.59,0,0,0,597.29,429.11Zm6.44,19.17a1.49,1.49,0,0,1-.28-.23A1.18,1.18,0,0,0,603.73,448.28Zm.87.42a0,0,0,0,1,0,0A0,0,0,0,0,604.6,448.7Zm.23-96.49c.87-1.94,4.18-2.94,5.82-5.53,1.17-1.85,2.14-4.66,2.81-4.47s-.58,6.12-2.42,7.77-5.53,2-5.53,3.39-4.47,2-4.86,1.46S604,354.15,604.83,352.21Zm-37.92,9.24a2,2,0,0,0-.39-.05A2,2,0,0,1,566.91,361.45Zm-.68-.16h0Zm-.58-.63v0Zm-67.87,22-.06,0Zm-.1.06-.1,0Zm-.15.06-.15,0Zm-.43,0-.19,0Zm-.26-.08a1.13,1.13,0,0,1-.2-.13A1.13,1.13,0,0,0,496.84,382.76Zm-35.31,23.33h0Zm-.13,0h0Zm-.1,0c-.21,0-.44,0-.8,0C460.86,406.12,461.09,406.1,461.3,406.09Zm5.52-12.75.82.25h0Zm7-5.1a1,1,0,0,1-.32-.22A1,1,0,0,0,473.82,388.24Zm-.39-.31a1.22,1.22,0,0,1-.12-.19A1.22,1.22,0,0,0,473.43,387.93Zm-.16-.29a1.87,1.87,0,0,1-.07-.22A1.87,1.87,0,0,0,473.27,387.64Zm2.5,1.47a2.94,2.94,0,0,0,.51-.05A2.94,2.94,0,0,1,475.77,389.11Zm-1.28-5a.59.59,0,0,1,0,.26A.59.59,0,0,0,474.49,384.11Zm-.13-.29c0,.07.06.13.09.19A1.07,1.07,0,0,0,474.36,383.82Zm-.57-1v0Zm-.7,4.23a.89.89,0,0,0-.08-.17A.89.89,0,0,1,473.09,387.06Zm-.12-.22a.69.69,0,0,0-.13-.11A.69.69,0,0,1,473,386.84Zm-.45-.24a1,1,0,0,1,.27.09,1,1,0,0,0-.27-.09.45.45,0,0,0-.2,0h0A.45.45,0,0,1,472.52,386.6Zm-.63,1.07v0Zm-1.77-2.95v0Zm4.66,28.7h0Zm-.24,0h0Zm.82.07h0Zm-.31,0h0ZM476.48,389a4.42,4.42,0,0,0,.48-.15A4.42,4.42,0,0,1,476.48,389Zm.65-.22a8.93,8.93,0,0,0,1.39-.82A8.93,8.93,0,0,1,477.13,388.8Zm-.13-7.21.07,0Zm1.87,6.14.32-.22Zm-3.05-6.81-.2-.11A1.36,1.36,0,0,1,475.82,380.92Zm-.28-.14a.28.28,0,0,0-.19,0A.28.28,0,0,1,475.54,380.78Zm-54.11,3.11h0Zm-1.13-3.58c-.1-.08-.27-.2-.47-.33l.6.42Zm3.89-.37a.31.31,0,0,0,.05.17.21.21,0,0,1,0-.15h0Zm9.48-38.29a2.09,2.09,0,0,1,.26-.25A3.13,3.13,0,0,0,433.67,341.65Zm-6.87,13s0-.05,0-.08A.19.19,0,0,0,426.8,354.69Zm-.05-.18,0-.16Zm0-.21,0-.2Zm0-1.41a1.44,1.44,0,0,0-.05.24A1.25,1.25,0,0,1,426.72,352.89Zm-.05.27c0,.09,0,.17,0,.26C426.66,353.33,426.66,353.25,426.67,353.16Zm0,.29c0,.1,0,.2,0,.3C426.65,353.65,426.65,353.55,426.65,353.45Zm0,.63c0-.1,0-.21,0-.31C426.66,353.87,426.67,354,426.68,354.08Zm-1.55,10.42a.32.32,0,0,0,0-.16A.32.32,0,0,1,425.13,364.5Zm-.84,10.76a.63.63,0,0,0,.12-.1A.63.63,0,0,1,424.29,375.26Zm.12-.78,0-.05Zm0-.14a1,1,0,0,1,0-.24A1,1,0,0,0,424.37,374.34Zm-.56-11.41a.6.6,0,0,0,.08.28A.6.6,0,0,1,423.81,362.93Zm.11.34a1.48,1.48,0,0,0,.19.27A1.48,1.48,0,0,1,423.92,363.27Zm.25.33.2.17-.11-.08Zm.61.4a1.4,1.4,0,0,1-.3-.15,1.4,1.4,0,0,0,.3.15,1.2,1.2,0,0,1,.23.12A.82.82,0,0,0,424.78,364Zm0-2.74a.5.5,0,0,0,0-.13A.5.5,0,0,1,424.82,361.26Zm0-.14a7,7,0,0,0-.13-1.13A7,7,0,0,1,424.86,361.12Zm-.13-1.29a.24.24,0,0,0,0,.12A.24.24,0,0,1,424.73,359.83ZM421,369.35l-.11.07Zm-.52.32-.12.08Zm-.3.2.05,0c-.05,0-.1.08-.11.13A.27.27,0,0,1,420.18,369.87Zm4.06,9.47a.93.93,0,0,0,0-.29A.93.93,0,0,1,424.24,379.34Zm.22-4.27v0h0Zm.46-10.34a.84.84,0,0,0,.19-.19A.84.84,0,0,1,424.92,364.73Zm.22-.44a.21.21,0,0,0-.06-.1l.05.06S425.14,364.27,425.14,364.29Zm7.88-.55-.11.06Zm.76-.3-.29.1Zm-.4.14-.22.09Zm.88-.29-.41.12Zm.79-.2-.28.06Zm-.36.08-.38.1Zm.73-.15-.27,0Zm1.05-24.21a.76.76,0,0,1,.16.26A.76.76,0,0,0,436.47,338.81Zm.19.32a2.45,2.45,0,0,1,.08.29A2.45,2.45,0,0,0,436.66,339.13Zm-1.11-2.79a2.09,2.09,0,0,1-.23-.29A2.09,2.09,0,0,0,435.55,336.34Zm-.37-.56v0a.75.75,0,0,0,.06.13Zm-8.36,11.33a.37.37,0,0,0,0-.21s0,0,0,0A.41.41,0,0,1,426.82,347.11Zm-.11-.43a.47.47,0,0,1,.06.09A.47.47,0,0,0,426.71,346.68Zm-.11-.12-.1-.08Zm-.37-.26.13.08Zm-.31-.15.15.07Zm-.59-.21.16.05Zm.28.09.16.06Zm-.49-.13s0,0-.06,0,0,0,.06,0l.14,0Zm0-1.27c0-.11,0-.21,0-.28S425.11,344.52,425.1,344.63Zm-12.05,19.24a1.74,1.74,0,0,0,.11.18A1.74,1.74,0,0,1,413.05,363.87Zm-.42-.86,0,.07Zm.28.61v0Zm-1.33,4.89-.05.05-.11.09Zm-.16.15-.17.14Zm1-6.22v0Zm-5.93.15a.1.1,0,0,0,0-.09A.1.1,0,0,1,406.49,362.59Zm2.23-6.92a.83.83,0,0,0,0-.15A.83.83,0,0,1,408.72,355.67Zm-3.15,7.49,0,0Zm-.16.13-.05,0Zm-1.73,5h0ZM411,369l-.12.09Zm-.43.3-.07,0Zm7,3.8a.78.78,0,0,1,.05.18A.78.78,0,0,0,417.61,373.09Zm.07.25,0,.21Zm-.41,3.22-.07.07Zm-.22.21-.1.12Zm-.25.29-.13.17Zm.64-.58s.06,0,.09-.07S417.47,376.48,417.44,376.48Zm.31-1.58c0-.31,0-.63,0-.91C417.76,374.27,417.77,374.59,417.75,374.9Zm-.21,1.48a.77.77,0,0,0,.07-.2A.77.77,0,0,1,417.54,376.38Zm.09-.25a2.24,2.24,0,0,0,.05-.31A2.24,2.24,0,0,1,417.63,376.13Zm.05-.31c0-.12,0-.25,0-.39C417.71,375.57,417.7,375.7,417.68,375.82Zm.05-.45c0-.14,0-.28,0-.43C417.75,375.09,417.74,375.23,417.73,375.37Zm0-1.8c0,.12,0,.25,0,.4C417.74,373.82,417.73,373.69,417.71,373.57Zm1.89,6.26-.06,0Zm-.32-.2-.08-.05Zm-.32-.18-.08,0Zm-.28-.13-.07,0Zm5.53.36a.28.28,0,0,0,0,.09v-.09Zm8.75,1.46v0Zm0,.18h0Zm0-.28s0,0,0,0S433,381,433,381Zm5.26-11.37s0,0,0,.06S438.22,369.69,438.22,369.67Zm-.12.25a.43.43,0,0,0,0,.07A.43.43,0,0,1,438.1,369.92Zm-.18.29,0,.06Zm-.21.31,0,.06Zm-.23.31,0,.05ZM439,295.19h0Zm.31-.39h0Zm.23-.2h0Zm.23-.15h0Zm.24-.1.05,0Zm4.11,57c0,.11.05.22.08.31C444.19,351.56,444.17,351.45,444.14,351.34ZM422.9,297.2a1.24,1.24,0,0,1-.18-.14A1.24,1.24,0,0,0,422.9,297.2Zm-1.06-.86,0,0Zm-.59-.45.22.16a3.23,3.23,0,0,0-.43-.29Zm13.88,39.54s0,.05,0,.07S435.13,335.45,435.13,335.43Zm-18.6,24.62v0a.86.86,0,0,0,.3.27A1,1,0,0,1,416.53,360.05Zm-.13-.2a1.63,1.63,0,0,1-.11-.17A1.63,1.63,0,0,0,416.4,359.85Zm-.31-.51-.06-.1Zm-7.32-3.95a.69.69,0,0,0,0-.2A.69.69,0,0,1,408.77,355.39Zm0-.29a.68.68,0,0,0-.13-.27A.68.68,0,0,1,408.75,355.1ZM397.3,365.92v0Zm-.09,1.09a.66.66,0,0,0,0-.13A.66.66,0,0,1,397.21,367Zm1.55.53h0Zm-9.27-9.05a.21.21,0,0,0,0,.19A.21.21,0,0,1,389.49,358.49Zm0,0a1,1,0,0,1,.13-.18,1.15,1.15,0,0,0-.14.19Zm1,2.14h0Zm-.7-2.48.06-.08Zm-.4-1.85c0-.16,0-.34.05-.55C389.41,355.94,389.39,356.12,389.37,356.28Zm.06-.66c0-.11,0-.22.05-.33C389.46,355.4,389.44,355.51,389.43,355.62Zm.07-.49a1.92,1.92,0,0,1,.11-.4A1.92,1.92,0,0,0,389.5,355.13Zm-.74,5.2h0Zm.33,0h0Zm2.59,11.29c-.24-.14-.44-.48-.24-1.07,0,0,0,0,0,0C391.26,371.15,391.44,371.48,391.68,371.62Zm.8-5.71,0,0Zm.32-1.57a2.87,2.87,0,0,0-.05.31A2.87,2.87,0,0,1,392.8,364.34Zm-.07.47,0,.13C392.72,364.89,392.72,364.85,392.73,364.81Zm6.23,2.75.14,0Zm.46.17-.16-.07a4.32,4.32,0,0,1,.43.22Zm4,.46h0Zm12.44,10.47a.58.58,0,0,0-.05.26A.58.58,0,0,1,415.83,378.66Zm.74-1.28a3.21,3.21,0,0,0-.21.3A3.21,3.21,0,0,1,416.57,377.38Zm-.32.47c-.06.09-.11.18-.16.27C416.14,378,416.19,377.94,416.25,377.85Zm-.26.44c0,.09-.08.16-.11.24Zm1.53,2v0Zm.24-.48h0Zm4.24,4.07h0ZM433.16,382a1.64,1.64,0,0,1,.06.42A1.64,1.64,0,0,0,433.16,382Zm-.09-.36.09.35Zm11.64-29.17h0Zm.16,0h0Zm19.62,47.93-.15.08ZM457.67,404l-.09,0Zm-.29.12-.13.06Zm-.25.11-.16.05Zm-4.36,8.75-.17-.07Zm-.26-7.93c0,.05,0,.1,0,.14S452.5,405.05,452.51,405Zm-.35,3.26s0,.06,0,.09S452.15,408.29,452.16,408.26Zm-.09.42,0,.09Zm.17,4c-.08,0-.16-.08-.24-.12C452.08,412.63,452.16,412.68,452.24,412.71Zm0-4.86a1,1,0,0,0,0-.17A1,1,0,0,1,452.21,407.85Zm.06-.55c0-.08,0-.16,0-.24C452.28,407.14,452.28,407.22,452.27,407.3Zm.05-.62c0-.11,0-.21,0-.31C452.33,406.47,452.33,406.57,452.32,406.68Zm0-.62c0-.11,0-.22,0-.31C452.38,405.84,452.37,406,452.36,406.06Zm0-.41c0-.1,0-.19,0-.25S452.41,405.55,452.4,405.65Zm.12-.72c0-.16.05-.34.07-.53C452.57,404.59,452.55,404.77,452.52,404.93Zm-1.15,7.34.31.16Zm35.83,25.25.16,0Zm-.46.13.13,0Zm8.72-8.92h0Zm-.28,0h.2c-.26,0-.65,0-1.11-.07Zm-.94-.07-.28,0Zm-.42,0-.24,0Zm-.45-.05-.2,0Zm-.5-.05-.12,0Zm-1.43-.18h0Zm-.36,0h0Zm-.33-.05h0Zm-.27,0-.07,0Zm-.2-.05h0Zm1.57,7.91c-1.11.37-2.3.75-3.3,1.06l-.22.06C489.37,436.86,490.66,436.45,491.85,436.06Zm3.4-1.21-.12.07Zm-.18.09-.2.08Zm-.27.11-.37.14Zm-.43.16-.41.14Zm-.53.18-.52.18Zm-.55.19-.62.21Zm-.77.26L492,436Zm-4.74,1.51.25-.08Zm5.3-43.08c-.34.51-2.85,1-4.73,1s-2-2.39-4-2.39a2.8,2.8,0,0,1-2.65-2.58,1.85,1.85,0,0,1,.39-1.3c1.1-1.36,1.94-3.5,1.29-4.66a29.2,29.2,0,0,0-1.95-2.52c-1.23-1.51-2.55-3.18-2.51-3.82.06-1.1.51-1.81-.85-3s.14-1.94,1.11-3.17,2.7-1.58,3.87-2.36h0c.14-.1.27-.19.39-.29,1.1-1,3.1-1.88,4.59-1.49s2.72-.26,3.37.65,0,2.58.25,3.23-1.16.71-2.13.58-3,.39-2.72,1,1,1.95-.32,1.23-1.81.71-1.1.71,1.68.85,1.68,1.43.06,1.87.71,1.68.65,1,1.55.91,1.75.26,1,1.1.45,3.17.71,2.65c.16-.32,0-1,.28-1.48.15-.27.44-.44,1-.4,1.55.13.84,1.94,1.68,2s1.81,1.36,1,1.29-1.42.72-2.2.46-1.74-.91-2,0-.59,1.87.45,1.81.84.65.13,1.36,1.1-.13,1.23.52.71.71.45,1.74a13.65,13.65,0,0,0,0,2.93A3.06,3.06,0,0,1,493.08,394.27Zm15.77,18.05.15.15.38.37C509.19,412.66,509,412.49,508.85,412.32Zm-.27-.39,0,.07Zm.11.2.08.1Zm1.07,1.11.1.12Zm34.77-13.7.05-.06Zm.26-.38c0-.08.09-.16.13-.25C544.88,399,544.83,399.08,544.79,399.16Zm-.13.21.06-.08Zm.39-.74a3.54,3.54,0,0,0,.14-.33l.08-.21S545.18,398.33,545.05,398.63Zm-.1.22c0-.05,0-.11.08-.17Zm1.51-.59,0,0Zm-.16-.14h0Zm-.11-.08h0Zm30.69,32.84h0Zm-.45,1.08v0Zm.73-1.41a.29.29,0,0,1,.17-.06A.39.39,0,0,0,577.16,430.55ZM585,415.34l.05,0Zm.2.12,0,0Zm.69.23.1,0h0Zm-.24-.06h0Zm.16,0,.07,0ZM592.15,434a.36.36,0,0,0-.13.17A.36.36,0,0,1,592.15,434Zm16.37,14.83a.19.19,0,0,1,0,.07A.19.19,0,0,0,608.52,448.87Zm.21.63.06.15Z" transform="translate(-381.51 -294.21)"/><path class="cls-4" d="M739.61,530.37c.78-.52-6.47-5.21-6.34-4.4S738.83,530.89,739.61,530.37Z" transform="translate(-381.51 -294.21)"/><path class="cls-4" d="M585.67,476.84c-.13.64.59,2.52,1.36,1.74S585.8,476.2,585.67,476.84Z" transform="translate(-381.51 -294.21)"/><path class="cls-4" d="M633.17,485.7c-1.17,1.88.39,2.14,1.36,2.2s.84,1.49.65,2.33-.59,2.84.25,2.52c1-.39,1.69-1.68,1.1-2.13s-.51-3.3-.26-4,2-.2,1.43.9,1.1,1,1.1,2.2,1,.58,2,.26.85-.9.13-1.68.52-1.88-.45-2.52-1.62-1.62-.71-1.82,3.62-1.74,3.3-2.39-4.14.13-4.47,1.29-3-.13-2.71-2.13,5.69-2.33,7.24-1.62,3.24-1.16,3.82-2.26-1.23.19-2.33.9-4-.06-5.5-.58-1.42.91-2.65,1.1-1,2.91-1.55,3.23S634.33,483.82,633.17,485.7Z" transform="translate(-381.51 -294.21)"/><path class="cls-4" d="M649.09,487.32c.26,1,2.13,1.62,2.65.71S648.79,486.12,649.09,487.32Z" transform="translate(-381.51 -294.21)"/><path class="cls-4" d="M643.84,502.85c.84.44,2.06-.74,2.75-1.57l.3-.37a.73.73,0,0,1,.22-.2.93.93,0,0,1,.22-.14c1.25-.75,4.44-1.68,4.61-2.12s-2,.13-3.24.06c-.88,0-1.23.68-1.88,1.19l-.19.14a2.08,2.08,0,0,1-.71.3l-.29.05h0a2.25,2.25,0,0,0-.7.17C643.64,500.89,643,502.38,643.84,502.85Z" transform="translate(-381.51 -294.21)"/><path class="cls-4" d="M643.26,498.9c1.17-.06,2.46-.39.72-.65s-2.92,1-4.66.39-4.37,0-4.08.58,1.81.59,3.56.65S642.1,499,643.26,498.9Z" transform="translate(-381.51 -294.21)"/><path class="cls-4" d="M653.88,477c0-.45-.46-2.26-1.49-.84s.33,4.94,1.16,4.79-.58-1.88.84-1.75.78-.71.78-1.62S653.88,477.48,653.88,477Z" transform="translate(-381.51 -294.21)"/><path class="cls-4" d="M653.55,487.19c.26.77,1.62.45,3,.45s2.07,1,2.78,1,.2-1.68-1.49-2.2S653.27,486.34,653.55,487.19Z" transform="translate(-381.51 -294.21)"/><path class="cls-4" d="M605,489.58a12.87,12.87,0,0,1,.32-2.26c0-.45.32-.65.9-.52s.52-1.23.07-1.36-.71-1.74-1.81-1.74-.91.9-.26,1,1,.58.84,1-.45-.45-1.36-.39-.32-1.1-1.36-1.16-.84-1.94-1.94-1.94-1.16-.91-.45-1.56-1.1-1.23-1.1-2-1.17-.32-1.17-1-.51-.33-1.1-1.1-.84-.07-1.35-.65-1.23-.91-1.69-.71-1.49-.84-1.87-1.88c-.31-.82-3.3-2.2-3.69-3.3s-1.43-1.55-3.17-1.49-2.44-1.71-2.85-.84c-.52,1.1,1.88,3.56,3,4.21s1.68,3,3,3.1,1.43,4.21,2.4,4.4,3,3.37,3.36,5.05,2.46,2.53,3.17,3.75,3.56,2.92,4,3.43.78,1.69,1.1,1.1,1.68,0,2.33.07S605,490.49,605,489.58Z" transform="translate(-381.51 -294.21)"/><path class="cls-4" d="M610,486.35c0-.58-1.67-.3-1.16.52S610,486.93,610,486.35Z" transform="translate(-381.51 -294.21)"/><path class="cls-4" d="M623.33,498.84c.46-.65,1.3,1,2.59.06s-2.13-.58-2.2-1.36-2.59-.06-3.82-.58,1.36-1,2.2-1.49-.51-.71-2.58-.06-4.47-1.43-4.53-.52-3.76-.39-4.66-1-4.4-1.49-5.12-.25-1.32.12-1,1.29c.19.78,1,.32,1.62.32s.32,1.1,1.16,1.23,3.63.91,3.88.33,2.85,0,4.15,1,4.27,1.1,5.43.91S622.88,499.48,623.33,498.84Z" transform="translate(-381.51 -294.21)"/><path class="cls-4" d="M588.84,482.4c-.12.32.59,1.62,1,1.23S589.25,481.38,588.84,482.4Z" transform="translate(-381.51 -294.21)"/><path class="cls-4" d="M635.43,502.27c.46.38,2.07,1.23,2.07.13s-4.44-1.75-4-1.11S635,501.88,635.43,502.27Z" transform="translate(-381.51 -294.21)"/><path class="cls-4" d="M611.23,478.58c1,.91.71,2.33,1.17,3s1.88.84,1.88,2.2,1.22,3.5,2.07,2.92,1.48.26,1.74.84,2.27-.46,2.91-.33,2.66.52,2.79,1.3,1.94-.07,3.17-.52.52-4.14,1.68-4.85a3.33,3.33,0,0,0,1.29-3.37c-.13-1.29,2.85-1.36,3.3-1.87s-.65-1.36-1.48-1.75-.14-1.23-.72-1.75-1.55-1.88-.71-1.94-.58-1.23.13-1.62l.33-.16c.76-.38,1.86-.88,1.35-1.32s1.75-.07,2-.85-.91-1.42-1.49-1.29-1.94.06-1.94-.52-1.23-1.68-2-1.68-1.68,1.55-1.74,2.2-1.3.58-1.17,1.49c.05.35-.18.51-.47.6-.46.15-1.08.14-1.08.5,0,.57-1-.21-1.51-.25h0c-.52,0-1.69,1.81-1.94,3s-1.43.84-3.17,1-1,1.94-1.43,2.78-2.27-.62-3.24-.81l-.25,0C611.82,475.61,610.42,477.83,611.23,478.58Z" transform="translate(-381.51 -294.21)"/><path class="cls-4" d="M630.26,498.12c-.26.59-1.36.72-2,.26s-1.45.62-1,1.17a2.8,2.8,0,0,0,3.17.52c1.62-.78,2.71-.07,3.1-.91S630.52,497.54,630.26,498.12Z" transform="translate(-381.51 -294.21)"/><path class="cls-4" d="M393.88,384c-.35.62,1.1,1.56.81,2.82s.16,2.85.91,2.1,1.1-.39,1.52-.94.06-2.58.35-3.55-1.29-1.43-2-.81S394.17,383.55,393.88,384Z" transform="translate(-381.51 -294.21)"/></g></g></g></g></svg>