<svg xmlns="http://www.w3.org/2000/svg" xmlns:xlink="http://www.w3.org/1999/xlink" viewBox="0 0 222.26 163.97"><defs><style>.cls-1{fill:none;}.cls-2{font-size:10.87px;font-family:OpenSans, Open Sans;}.cls-15,.cls-2{fill:#31333a;}.cls-3{fill:#d6d6d6;}.cls-4{fill:#bfbfbf;}.cls-5{fill:#6ec6d3;}.cls-6{fill:#3a3b42;}.cls-7{clip-path:url(#clip-path);}.cls-8{fill:#efefef;}.cls-9{fill:#e9ae97;}.cls-10{fill:#f8c3aa;}.cls-11{fill:#2d2725;}.cls-12{fill:#ededed;}.cls-13{fill:#d83b45;}.cls-14{fill:#dfdfdf;}.cls-16{clip-path:url(#clip-path-2);}.cls-17{fill:#634c40;}.cls-18{fill:#e34856;}.cls-19{fill:#f9f9f9;}.cls-20{fill:#d1d1d1;}.cls-21{fill:#f28f32;}</style><clipPath id="clip-path"><path class="cls-1" d="M81.33,59a24.25,24.25,0,1,0,24.25-24.25A24.24,24.24,0,0,0,81.33,59Z"/></clipPath><clipPath id="clip-path-2"><path class="cls-1" d="M152.64,40.4a24.25,24.25,0,1,0,24.25-24.25A24.24,24.24,0,0,0,152.64,40.4Z"/></clipPath></defs><title>tellus_1</title><g id="Шар_2" data-name="Шар 2"><g id="Objects"><text class="cls-2" transform="translate(103.31 161.02)">TELL US ABOUT IT!</text><polygon class="cls-3" points="124.81 126.29 126.36 112.37 141.61 107.71 141.61 107.51 141.94 107.61 142.27 107.51 142.27 107.71 157.51 112.37 159.06 126.29 164.81 127.62 164.81 132.26 142.27 132.26 141.61 132.26 119.07 132.26 119.07 127.62 124.81 126.29"/><polygon class="cls-4" points="125.35 121.45 158.25 119.04 157.86 115.51 125.97 115.51 125.35 121.45"/><polygon class="cls-4" points="164.81 129.22 164.81 132.26 119.07 132.26 119.07 131.47 164.81 127.62 164.81 129.22"/><path class="cls-3" d="M62.05,112.19a4.38,4.38,0,0,0,4.37,4.38H217.71a4.38,4.38,0,0,0,4.37-4.38V5.44a4.38,4.38,0,0,0-4.37-4.38H66.42a4.38,4.38,0,0,0-4.37,4.38Z"/><path class="cls-5" d="M219.93,94.6V4.76a2.27,2.27,0,0,0-2.05-2.43H66.35a2.27,2.27,0,0,0-2,2.43V94.6Z"/><path class="cls-6" d="M66.64,4.66h151a.31.31,0,0,1,0,.1V92.27h-151V4.76a.31.31,0,0,1,0-.1M66.35,0A4.58,4.58,0,0,0,62,4.76V96.93H222.26V4.76A4.58,4.58,0,0,0,217.88,0Z"/><g class="cls-7"><path class="cls-8" d="M81.33,59a24.25,24.25,0,1,0,24.25-24.25A24.24,24.24,0,0,0,81.33,59Z"/><path class="cls-9" d="M105.58,55.66h3.51v4.68c0,.53-1.58,1-3.51,1s-3.52-.43-3.52-1V55.66Z"/><path class="cls-10" d="M106.46,58.19a3.62,3.62,0,0,1-1.77,0c-1.31-.4-4-4.34-4-4.33a9.67,9.67,0,0,1-.42-2.85c0-4,2.36-7.29,5.27-7.29S110.84,47,110.84,51a9.67,9.67,0,0,1-.42,2.85S107.78,57.79,106.46,58.19Z"/><path class="cls-10" d="M110.39,50.55c-.14.72,0,1.37.32,1.45s.69-.44.83-1.16,0-1.37-.32-1.45S110.53,49.84,110.39,50.55Z"/><path class="cls-10" d="M100.76,50.55c.14.72,0,1.37-.32,1.45s-.69-.44-.83-1.16,0-1.37.33-1.45S100.63,49.84,100.76,50.55Z"/><path class="cls-11" d="M105.58,43.27a5.76,5.76,0,0,1,5.58,5.93v.19s-.39.08-.41.92a5.24,5.24,0,0,0,0,.7l-.46.27S110.22,48.07,108,48h-4.78c-2.26.1-2.32,3.31-2.32,3.31l-.46-.27a5.24,5.24,0,0,0,0-.7c0-.84-.38-.92-.41-.92V49.2A5.76,5.76,0,0,1,105.58,43.27Z"/><path class="cls-11" d="M109.81,47.45s-4.62,3.06-8.76,1.5a2.35,2.35,0,0,1,2-2.55C105.16,46.07,109.81,47.45,109.81,47.45Z"/><polygon class="cls-12" points="109.79 58.3 109.79 69.44 101.36 69.44 101.36 58.3 105.58 59.94 109.79 58.3"/><polygon class="cls-13" points="105.58 60.34 106.82 67.17 105.58 69.69 104.33 67.17 105.58 60.34"/><polygon class="cls-13" points="105.58 59.94 107.19 60.64 105.58 62.31 104.11 60.64 105.58 59.94"/><polygon class="cls-14" points="105.58 59.94 109.79 58.3 111.17 59.26 109.39 62.55 105.58 59.94"/><polygon class="cls-14" points="105.58 59.94 101.36 58.3 99.99 59.26 101.75 62.38 105.58 59.94"/><path class="cls-10" d="M92.66,84.62c0,1.52.74,2.75,1.65,2.75S96,86.14,96,84.62s-.73-2.75-1.64-2.75S92.66,83.1,92.66,84.62Z"/><path class="cls-10" d="M115.2,84.62c0,1.52.74,2.75,1.64,2.75s1.65-1.23,1.65-2.75-.74-2.75-1.65-2.75S115.2,83.1,115.2,84.62Z"/><path class="cls-15" d="M92.66,83.88s.4-15.83.54-19.76c.14-3.54,2.32-4.17,2.76-4.26h0l4-.59,5.59,4,5.58-4,4,.59h0c.44.09,2.62.72,2.76,4.26.14,3.93.54,19.76.54,19.76h-3.37l-.49-13.28-1,13.23-8.09,0-8.09,0-1-13.26L96,83.88Z"/></g><g class="cls-16"><path class="cls-8" d="M152.64,40.4a24.25,24.25,0,1,0,24.25-24.25A24.24,24.24,0,0,0,152.64,40.4Z"/><path class="cls-17" d="M171.4,35.37l5.49.4,5.48-.4a22.85,22.85,0,0,0-.52,4.6,6.47,6.47,0,0,1-.3,2.69h-9.33a6.47,6.47,0,0,1-.3-2.69A22.85,22.85,0,0,0,171.4,35.37Z"/><path class="cls-9" d="M177,39.43h2.82v4.18c0,.47-1.26.85-2.82.85s-2.81-.38-2.81-.85V39.43Z"/><polygon class="cls-12" points="180.64 41.79 180.64 51.73 173.13 51.73 173.13 41.79 176.88 43.26 180.64 41.79"/><polygon class="cls-14" points="176.88 43.26 180.64 41.79 181.87 42.65 180.29 45.58 176.88 43.26"/><polygon class="cls-14" points="176.88 43.26 173.13 41.79 171.9 42.65 173.48 45.43 176.88 43.26"/><path class="cls-10" d="M165.37,65.26c0,1.36.65,2.46,1.47,2.46s1.46-1.1,1.46-2.46-.66-2.45-1.46-2.45S165.37,63.91,165.37,65.26Z"/><path class="cls-10" d="M185.47,65.26c0,1.36.66,2.46,1.47,2.46s1.46-1.1,1.46-2.46-.65-2.45-1.46-2.45S185.47,63.91,185.47,65.26Z"/><path class="cls-18" d="M165.37,64.61s.35-14.12.48-17.63c.12-3.15,2.07-3.72,2.46-3.8h0l3.59-.52,5,3.59,5-3.59,3.59.52h0c.39.08,2.34.65,2.46,3.8.13,3.51.48,17.63.48,17.63h-3L185,52.77l-.86,11.79-7.21,0-7.22,0-.86-11.82-.43,11.86Z"/><path class="cls-10" d="M177.72,41.82a3.54,3.54,0,0,1-1.67,0c-1.24-.37-3.51-3.77-3.51-3.76a11.34,11.34,0,0,1-.62-3c0-3.8,2.22-6.88,5-6.88s5,3.08,5,6.88a11.81,11.81,0,0,1-.66,3.07S179,41.45,177.72,41.82Z"/><path class="cls-10" d="M181.42,34.62c-.13.68,0,1.28.31,1.36s.65-.42.78-1.1,0-1.28-.31-1.36S181.55,33.94,181.42,34.62Z"/><path class="cls-10" d="M172.35,34.62c.13.68,0,1.28-.31,1.36s-.65-.42-.78-1.1,0-1.28.31-1.36S172.22,33.94,172.35,34.62Z"/><path class="cls-17" d="M171.46,32.9c.33-6,4.85-5.6,5.46-5.1.49-.51,5.06-1,5.39,5.1,0,0,.61.63.06,2.47,0,0,.34-2.42-.6-1.6a4,4,0,0,0-.16,1.4,11.79,11.79,0,0,0-.51-2.23,5,5,0,0,0-3.23-1.61h-2a5,5,0,0,0-3.23,1.61,11.79,11.79,0,0,0-.51,2.23,4,4,0,0,0-.16-1.4c-.94-.82-.6,1.6-.6,1.6C170.85,33.53,171.46,32.9,171.46,32.9Z"/><path class="cls-17" d="M172.2,32.62l.25-.44,0,0,.73-1.11s4.38-1.59,4.48-1.56,1.08.62,2,1.16h.19l-.08.07,1.22.74a17.52,17.52,0,0,1-4.51,1.41,1.72,1.72,0,0,1-.44.06h0c-.31,0-.63.07-1,.08a7.27,7.27,0,0,0-1.66.39,2.93,2.93,0,0,1,1.08-.39,7.77,7.77,0,0,1-1-.08,1.67,1.67,0,0,0-.54,1.26,2.06,2.06,0,0,1,.28-1.3A6.87,6.87,0,0,1,172.2,32.62Z"/></g><rect class="cls-19" x="1.15" y="68.14" width="76.68" height="49.27" rx="4.16" ry="4.16"/><path class="cls-15" d="M75.72,118.32H3.26c-1.8,0-3.26-1.16-3.26-2.59V69.81c0-1.42,1.46-2.58,3.26-2.58H75.72c1.79,0,3.26,1.16,3.26,2.58v45.92C79,117.16,77.51,118.32,75.72,118.32ZM3.26,69.05a.88.88,0,0,0-1,.76v45.92a.88.88,0,0,0,1,.77H75.72a.88.88,0,0,0,1-.77V69.81a.88.88,0,0,0-1-.76Z"/><line class="cls-19" x1="39.49" y1="117.41" x2="27.1" y2="131.74"/><polygon class="cls-15" points="28.04 132.26 26.15 131.23 38.54 116.89 40.43 117.92 28.04 132.26"/><line class="cls-19" x1="39.49" y1="117.41" x2="51.88" y2="131.74"/><polygon class="cls-15" points="50.93 132.26 38.54 117.92 40.43 116.89 52.83 131.23 50.93 132.26"/><rect class="cls-20" x="6.26" y="73.46" width="66.46" height="0.36"/><rect class="cls-20" x="6.26" y="78.93" width="66.46" height="0.36"/><rect class="cls-20" x="6.26" y="84.39" width="66.46" height="0.36"/><rect class="cls-20" x="6.26" y="89.86" width="66.46" height="0.36"/><rect class="cls-20" x="6.26" y="95.32" width="66.46" height="0.36"/><rect class="cls-20" x="6.26" y="100.79" width="66.46" height="0.36"/><rect class="cls-20" x="6.26" y="106.26" width="66.46" height="0.36"/><rect class="cls-20" x="6.26" y="111.72" width="66.46" height="0.36"/><polygon class="cls-21" points="5.24 113.83 4.1 113.21 12 104.05 26.08 106.03 36.6 94.58 44 98.47 54.73 89.17 61.1 92.06 71.49 80.64 72.61 81.28 61.49 93.49 55.01 90.55 44.22 99.9 36.94 96.07 26.68 107.22 12.64 105.25 5.24 113.83"/><path class="cls-8" d="M113.93,41.88l-1.61-5a8.33,8.33,0,0,0,2.79-6.07c0-5.2-5.28-9.41-11.8-9.41s-11.79,4.21-11.79,9.41,5.28,9.41,11.79,9.41a14,14,0,0,0,6.31-1.46Z"/></g></g></svg>