<svg xmlns="http://www.w3.org/2000/svg" viewBox="0 0 58.7 62.34"><defs><style>.cls-1{font-size:10.87px;fill:#31333a;font-family:OpenSans, Open Sans;}.cls-2{fill:#f28f32;}</style></defs><title>wewill</title><g id="Шар_2" data-name="Шар 2"><g id="Objects"><text class="cls-1" transform="translate(5.52 46.35)">WE WILL <tspan x="0.05" y="13.05">TEAM UP</tspan></text><path class="cls-2" d="M42.25,25.7h0a2.25,2.25,0,0,0-.09-.35c-.28-1.09-.93-3.08-1.23-4a1.76,1.76,0,0,0-.15-.44A4.26,4.26,0,0,0,40,20l-.21-.1c-.71-.34-2.9-1.22-2.9-1.22-1.1-.48-2.23-.88-3.39-1.29-.21.86-2.17,6.58-2.48,7.37l-.25-5.31c.08-.13.14-.27.21-.4l.82-1.62a3.78,3.78,0,0,1-2.41.78A3.83,3.83,0,0,1,27,17.46l.8,1.58c.07.13.13.28.21.4l-.24,5.32c-.32-.79-2.28-6.51-2.49-7.38-1.16.41-2.29.82-3.39,1.29,0,0-2.19.89-2.9,1.22l-.21.11a4,4,0,0,0-.83.92,3.17,3.17,0,0,0-.15.45c-.29.89-.94,2.87-1.23,4a1.37,1.37,0,0,0-.08.35,1.72,1.72,0,0,0,0,.32,2.11,2.11,0,0,0,2.11,2.12H40.18A2.11,2.11,0,0,0,42.3,26a1.44,1.44,0,0,1,0-.31Z"/><path class="cls-2" d="M34.87,7.57c0-.38.08-1.73.08-2A5.49,5.49,0,0,0,29.47.05h-.24a5.48,5.48,0,0,0-5.48,5.48c0,.31.07,1.66.07,2-.13,0-1.35-.29-1.22,1.18.28,3.11,1.47,2.51,1.5,2.51a8,8,0,0,0,2.38,3.84,5.37,5.37,0,0,0,2.76,1.32h.23a5.38,5.38,0,0,0,2.74-1.31,8.07,8.07,0,0,0,2.39-3.85s1.23.61,1.5-2.51c.13-1.47-1.1-1.17-1.23-1.18Z"/><path class="cls-2" d="M16.29,20.3l0,0,0-.05a3.86,3.86,0,0,1,.84-1.11,6,6,0,0,1,.58-.5l0,0,0,0c.15-.09.33-.17.39-.2.49-.24,1.53-.66,2.25-1l-.07,0-.07,0c-.62-.29-2.53-1.06-2.53-1.06-.95-.41-1.95-.77-2.95-1.12-.18.75-1.9,5.73-2.17,6.42l-.21-4.63a3.84,3.84,0,0,0,.18-.35l.71-1.41a3.34,3.34,0,0,1-2.1.68,3.35,3.35,0,0,1-2.06-.65l.7,1.38a2.31,2.31,0,0,0,.18.35l-.22,4.63c-.27-.68-2-5.67-2.16-6.42-1,.35-2,.71-3,1.12,0,0-1.91.77-2.53,1.06,0,0,0,0-.06,0L2,17.41a1.85,1.85,0,0,0-.73.81h0a1.71,1.71,0,0,0-.13.38C.91,19.39.34,21.12.1,22.07a2.81,2.81,0,0,0-.08.31,2.46,2.46,0,0,0,0,.28A1.84,1.84,0,0,0,1.84,24.5H15c.32-1.1.82-2.65,1.13-3.59a3,3,0,0,1,.19-.61Z"/><path class="cls-2" d="M6.67,9.78a7,7,0,0,0,2.08,3.34,4.66,4.66,0,0,0,2.4,1.15h.2a4.63,4.63,0,0,0,2.38-1.14,6.94,6.94,0,0,0,2.09-3.36s1.07.53,1.32-2.19c.11-1.28-1-1-1.07-1,0-.33.07-1.51.07-1.77A4.79,4.79,0,0,0,11.36,0h-.21A4.79,4.79,0,0,0,6.37,4.78c0,.26.07,1.45.07,1.77-.12,0-1.19-.25-1.07,1,.23,2.73,1.27,2.2,1.3,2.2Z"/><path class="cls-2" d="M58.67,20.79l-.06-.51s-.1-.55-.12-.64a3.72,3.72,0,0,0-1.65-2.25l-.47-.28C56.16,17,53,16,52.87,15.92a2.05,2.05,0,0,1,0,.37,3.11,3.11,0,0,1,1.17,3.56,4,4,0,0,0-1.91-1.27,15.57,15.57,0,0,1-3.32,4.15,15.23,15.23,0,0,1-3.33-4.15,4,4,0,0,0-1.91,1.27,3.11,3.11,0,0,1,1.17-3.56,3.7,3.7,0,0,1,0-.37c-.08,0-3.29,1.08-3.5,1.19s-.32.18-.47.28a5.47,5.47,0,0,0-.85.72l.5.22.35.19a4,4,0,0,1,1,.95,3.61,3.61,0,0,1,.54.82,3.33,3.33,0,0,1,.21.63c.31.93.82,2.49,1.12,3.58H56.25a2.47,2.47,0,0,0,1.89-.77,2.29,2.29,0,0,0,.55-1.51c0-.1,0-.52,0-.52s0-.9,0-.91Z"/><path class="cls-2" d="M43,10.72a2.77,2.77,0,0,1,.13.78,2.11,2.11,0,0,1,0,.25,10,10,0,0,1-.65,1.15,5.51,5.51,0,0,0,3.16,1.4c.34.07.68.11,1,.16l.36.06-.57,1.69a5,5,0,0,0,2.37,4h0a5,5,0,0,0,2.37-4l-.58-1.69.36-.06c.37-.05.71-.09,1-.16a5.43,5.43,0,0,0,3.16-1.4,10.05,10.05,0,0,1-.64-1.15,1.06,1.06,0,0,1,0-.25,2.74,2.74,0,0,1,.12-.78l.24-.79a6.84,6.84,0,0,0-6-9.64h0A6.8,6.8,0,0,0,42.2,7.11a7,7,0,0,0,.6,2.82c.06.26.15.53.22.79Z"/></g></g></svg>