<svg id="Layer_1" xmlns="http://www.w3.org/2000/svg" width="512" height="512"><path d="M284.499 356.957c40.734 0 79.03-15.863 107.834-44.666a12.5 12.5 0 0 0 0-17.678l-53.337-53.337V162.46c0-6.904-5.596-12.5-12.5-12.5H247.68l-53.337-53.337c-4.882-4.882-12.796-4.882-17.678 0-59.459 59.459-59.459 156.208 0 215.668 14.325 14.325 31 25.446 49.154 33.01v52.049h-38c-6.903 0-12.5 5.597-12.5 12.5s5.597 12.5 12.5 12.5h101c6.903 0 12.5-5.597 12.5-12.5s-5.597-12.5-12.5-12.5h-38v-44.103a153.792 153.792 0 0 0 33.68 3.71zm29.497-181.997v41.316L272.68 174.96h41.316zm-128.062-51.391l179.458 179.458c-22.749 18.738-51.037 28.93-80.893 28.93-34.057 0-66.075-13.262-90.156-37.344-46.73-46.73-49.531-121.009-8.409-171.044z"/></svg>