<svg id="Layer_1" xmlns="http://www.w3.org/2000/svg" width="512" height="512"><path d="M428.5 226.763c0-95.117-77.383-172.5-172.5-172.5s-172.5 77.383-172.5 172.5c0 56.08 27.084 108.31 72.689 140.699.834 8.94 4.465 17.357 10.541 24.197l38.226 43.036c.385.433.784.852 1.197 1.257 10.26 10.05 29.396 21.786 49.559 21.786h37.635c16.22 0 31.597-5.769 43.3-16.244 12.3-11.01 19.355-26.487 19.355-42.461l-.014-31.703c45.481-32.395 72.512-84.612 72.512-140.567zM293.346 432.737h-37.635c-11.272 0-24.383-7.12-32.064-14.645l-38.225-43.034c-6.425-7.235-5.771-18.309 1.465-24.735a17.458 17.458 0 0 1 11.63-4.422c4.833 0 9.644 1.989 13.105 5.886l6.202 6.981v-79.057c0-9.677 7.844-17.522 17.521-17.522s17.521 7.845 17.521 17.522v40.984a17.415 17.415 0 0 1 8.919-2.459c7.436 0 13.775 4.64 16.318 11.177a17.411 17.411 0 0 1 9.427-2.769c8.56 0 15.676 6.142 17.206 14.257a17.424 17.424 0 0 1 8.726-2.341c9.676 0 17.521 7.845 17.521 17.521l.017 42.951c0 18.616-16.857 33.705-37.654 33.705zm58.86-94.174c-6.196-13.651-19.405-23.474-35.002-24.84-7.724-7.524-18.252-12.079-29.674-12.079l-.371.001a42.47 42.47 0 0 0-9.294-5.259v-16.675c0-23.447-19.075-42.522-42.521-42.522s-42.521 19.075-42.521 42.522v41.572a42.464 42.464 0 0 0-22.538 10.348 42.677 42.677 0 0 0-7.8 9.201C128.447 312.924 108.5 271.26 108.5 226.763c0-81.332 66.168-147.5 147.5-147.5s147.5 66.168 147.5 147.5c0 43.269-18.909 83.925-51.294 111.8z"/></svg>