<svg id="Layer_1" xmlns="http://www.w3.org/2000/svg" width="512" height="512"><path d="M387.993 63.591H196.914a12.501 12.501 0 0 0-8.839 3.661l-72.907 72.909a12.501 12.501 0 0 0-3.661 8.839v286.908c0 6.903 5.597 12.5 12.5 12.5h263.986c6.903 0 12.5-5.597 12.5-12.5V76.091c0-6.903-5.597-12.5-12.5-12.5zM184.414 106.27v30.23h-30.23l30.23-30.23zm191.079 317.139H136.507V161.5h60.407c6.903 0 12.5-5.597 12.5-12.5V88.591h166.079v334.818z"/><path d="M188.5 221.32c-6.903 0-12.5 5.596-12.5 12.5s5.597 12.5 12.5 12.5h37c6.903 0 12.5-5.596 12.5-12.5s-5.597-12.5-12.5-12.5h-37zm68 25h67c6.903 0 12.5-5.596 12.5-12.5s-5.597-12.5-12.5-12.5h-67c-6.903 0-12.5 5.596-12.5 12.5s5.597 12.5 12.5 12.5zm-68 50h77c6.903 0 12.5-5.597 12.5-12.5s-5.597-12.5-12.5-12.5h-77c-6.903 0-12.5 5.597-12.5 12.5s5.597 12.5 12.5 12.5zm135-25h-27c-6.903 0-12.5 5.596-12.5 12.5s5.597 12.5 12.5 12.5h27c6.903 0 12.5-5.596 12.5-12.5s-5.597-12.5-12.5-12.5zm-103 50h-32c-6.903 0-12.5 5.596-12.5 12.5s5.597 12.5 12.5 12.5h32c6.903 0 12.5-5.596 12.5-12.5s-5.597-12.5-12.5-12.5zm103 0h-72c-6.903 0-12.5 5.597-12.5 12.5s5.597 12.5 12.5 12.5h72c6.903 0 12.5-5.597 12.5-12.5s-5.597-12.5-12.5-12.5z"/></svg>