<svg xmlns="http://www.w3.org/2000/svg" width="365" height="50"><path d="M1 49.73L-.01 48c.04-.02 2.45-1.42 7.04-3.74l.9 1.79c-4.5 2.27-6.9 3.66-6.92 3.68H1m10.49-5.44l-.87-1.8c2.11-1.03 4.53-2.17 7.24-3.4l.83 1.83c-2.47 1.12-4.9 2.25-7.2 3.37m10.85-5l-.81-1.83c2.28-1 4.73-2.05 7.35-3.13l.76 1.85c-2.47 1.02-4.92 2.06-7.3 3.11m10.99-4.61l-.75-1.86c2.37-.95 4.86-1.92 7.46-2.91l.71 1.87c-2.49.95-4.99 1.92-7.42 2.9m11.15-4.29l-.69-1.87c2.42-.89 4.93-1.79 7.53-2.7l.66 1.89c-2.51.87-5.04 1.78-7.5 2.68m11.27-3.96l-.64-1.9c2.46-.83 5-1.66 7.62-2.49l.6 1.91c-2.53.8-5.08 1.63-7.58 2.48m11.37-3.66l-.58-1.92c2.49-.76 5.04-1.52 7.66-2.28l.55 1.92c-2.54.74-5.11 1.5-7.63 2.28m11.47-3.36l-.54-1.93c2.52-.7 5.1-1.4 7.72-2.08l.51 1.93a482.6 482.6 0 0 0-7.69 2.08m11.54-3.07l-.48-1.94c2.54-.64 5.14-1.27 7.78-1.88l.45 1.94c-2.58.61-5.18 1.24-7.75 1.88m11.63-2.77l-.44-1.95c2.57-.58 5.18-1.14 7.83-1.69l.4 1.96c-2.59.54-5.21 1.1-7.79 1.68m11.69-2.47l-.39-1.97c2.58-.51 5.2-1.01 7.86-1.49l.36 1.96c-2.65.49-5.26.98-7.83 1.5m11.75-2.19l-.34-1.97c2.59-.45 5.23-.89 7.89-1.3l.31 1.97c-2.65.42-5.27.85-7.86 1.3m11.8-1.9l-.29-1.98c2.61-.38 5.25-.75 7.92-1.1l.26 1.98c-2.66.35-5.29.72-7.89 1.1m11.85-1.6l-.25-1.99c2.62-.32 5.27-.62 7.95-.91l.21 1.99c-2.67.28-5.3.59-7.91.91m11.88-1.31l-.2-2c2.63-.25 5.29-.49 7.97-.71l.16 1.99c-2.67.22-5.31.46-7.93.72m11.9-1.02l-.15-2c2.64-.19 5.3-.37 7.99-.52l.11 2c-2.68.15-5.33.32-7.95.52m11.93-.73l-.1-2c2.64-.13 5.31-.24 7.99-.32l.07 2c-2.68.08-5.33.19-7.96.32m11.95-.44l-.05-2c2.65-.06 5.31-.1 8-.12l.02 2c-2.68.02-5.34.06-7.97.12m11.94-.14v-2c2.65 0 5.31.02 8 .07l-.04 2c-2.67-.05-5.33-.07-7.96-.07m11.96.15l.05-2c2.64.07 5.31.15 7.99.26l-.08 2c-2.67-.11-5.33-.19-7.96-.26m11.93.44l.1-2c2.64.13 5.31.29 7.99.46l-.13 2c-2.67-.18-5.32-.33-7.96-.46m11.94.73l.14-1.99c2.65.19 5.3.41 7.98.65l-.18 1.99c-2.66-.24-5.31-.45-7.94-.65m11.9 1.03l.19-1.99c2.64.25 5.29.53 7.96.84l-.23 1.99c-2.66-.31-5.3-.59-7.92-.84m11.89 1.31l.24-1.99c2.63.32 5.28.67 7.93 1.04l-.27 1.98c-2.65-.37-5.28-.71-7.9-1.03m11.83 1.59l.29-1.98c2.62.39 5.26.79 7.91 1.23l-.32 1.97c-2.64-.43-5.27-.84-7.88-1.22m11.81 1.88l.34-1.97c2.61.44 5.23.91 7.87 1.41l-.37 1.96c-2.62-.49-5.24-.96-7.84-1.4m11.76 2.15l.38-1.96c2.6.51 5.22 1.04 7.84 1.6l-.41 1.96c-2.62-.56-5.22-1.09-7.81-1.6m11.69 2.44l.43-1.96c2.59.57 5.19 1.17 7.8 1.79l-.46 1.94c-2.6-.61-5.19-1.2-7.77-1.77m11.65 2.71l.48-1.95c2.57.63 5.16 1.29 7.75 1.97l-.51 1.93c-2.58-.67-5.15-1.33-7.72-1.95m11.58 2.97l.52-1.93c2.56.69 5.13 1.41 7.71 2.14l-.55 1.93c-2.57-.74-5.13-1.45-7.68-2.14m11.5 3.24l.56-1.92c2.55.75 5.1 1.52 7.66 2.32l-.59 1.91c-2.55-.79-5.1-1.56-7.63-2.31m11.43 3.51l.61-1.91c1.02.33 2.04.66 3.07.99l-.62 1.9c-1.02-.33-2.04-.66-3.06-.98" fill="#393939"/></svg>