<svg id="Layer_1" xmlns="http://www.w3.org/2000/svg" width="512" height="512"><path d="M424.839 174.11l-43.452-43.453c-.008-.007-.014-.016-.02-.023-.008-.007-.018-.014-.023-.021l-43.453-43.454a12.5 12.5 0 0 0-17.678 0l-210.43 210.427a12.503 12.503 0 0 0-3.404 6.312L83.758 413.473a12.5 12.5 0 0 0 14.769 14.769l109.57-22.625a12.506 12.506 0 0 0 6.312-3.403l210.43-210.427c4.882-4.88 4.882-12.795 0-17.677zM126.176 331.659l54.164 54.164-68.256 14.093 14.092-68.257zm79.394 44.039l-69.271-69.272 192.753-192.749 25.796 25.797-116.638 116.64c-4.882 4.882-4.882 12.796 0 17.678 2.44 2.441 5.64 3.661 8.839 3.661s6.398-1.22 8.839-3.661l116.639-116.64 25.796 25.797L205.57 375.698z"/></svg>