<svg id="Layer_1" xmlns="http://www.w3.org/2000/svg" width="512" height="512"><path d="M351 173.929h-15.69c-.112-6.806-5.656-12.292-12.489-12.292h-48.52l-18.482-57.291a12.505 12.505 0 0 0-4.193-6.006l-55.532-43.458c-5.438-4.254-13.295-3.295-17.548 2.141-4.256 5.437-3.297 13.293 2.14 17.548l52.518 41.098 14.829 45.97H189.18c-6.833 0-12.377 5.485-12.489 12.292H161c-6.903 0-12.5 5.597-12.5 12.5s5.597 12.5 12.5 12.5h.791l21.109 249.4a12.499 12.499 0 0 0 12.455 11.446h121.289a12.5 12.5 0 0 0 12.455-11.446l21.108-249.4H351c6.903 0 12.5-5.597 12.5-12.5s-5.597-12.502-12.5-12.502zm-45.842 260.845h-98.316l-7.303-86.275h14.889c4.031 26.827 20.846 46.4 41.572 46.4s37.541-19.573 41.572-46.4h14.888l-7.302 86.275zM238.5 336c0-19.402 9.239-33.9 17.5-33.9 8.26 0 17.5 14.498 17.5 33.9s-9.24 33.9-17.5 33.9c-8.261-.001-17.5-14.498-17.5-33.9zm76.076-12.5h-17.004c-4.031-26.827-20.846-46.4-41.572-46.4s-37.541 19.573-41.572 46.4h-17.004L186.88 198.929h138.239L314.576 323.5z"/></svg>