<svg id="Layer_1" xmlns="http://www.w3.org/2000/svg" width="512" height="512"><path d="M442.498 204.034s1.371-66.827-34.954-104.305c-17.161-17.706-39.612-26.684-66.729-26.684H116.949c-26.167 0-47.454 21.288-47.454 47.454v255.954c0 34.462 28.038 62.5 62.5 62.5h248c34.462 0 62.5-28.038 62.5-62.5l.003-172.419zM116.949 98.046h223.866c20.341 0 36.275 6.22 48.713 19.017 9.067 9.329 15.197 21.132 19.342 32.989-7.102-3.716-15.029-7.097-28.875-7.097H116.949c-12.381 0-22.454-10.073-22.454-22.454s10.073-22.455 22.454-22.455zm300.546 186.746h-22.18c-6.904 0-12.5 5.596-12.5 12.5s5.596 12.5 12.5 12.5h22.18v25.803h-28.492c-20.678 0-37.5-16.822-37.5-37.5v-1.605c0-20.678 16.822-37.5 37.5-37.5h28.492v25.802zm0-50.803h-28.492c-34.462 0-62.5 28.038-62.5 62.5v1.605c0 34.462 28.038 62.5 62.5 62.5h28.492v15.859c0 20.678-16.822 37.5-37.5 37.5h-248c-20.678 0-37.5-16.822-37.5-37.5v-214.16a47.162 47.162 0 0 0 22.454 5.661h263.046c20.678 0 37.5 16.822 37.5 37.5v28.535z"/></svg>