<svg id="Layer_1" xmlns="http://www.w3.org/2000/svg" width="512" height="512"><path d="M423.629 202.611l-55-97.495a12.499 12.499 0 0 0-10.887-6.358H154.258a12.5 12.5 0 0 0-10.887 6.358l-55 97.495a12.502 12.502 0 0 0 1.204 14.047l156.743 191.99a12.5 12.5 0 0 0 19.366 0l156.743-191.99a12.502 12.502 0 0 0 1.202-14.047zm-226.64-78.854h118.022L256 189.966l-59.011-66.209zM243.5 365.666L125.6 221.252h117.9v144.414zm25-144.414h117.9L268.5 365.666V221.252zm122.839-25H283.885l64.614-72.495h1.942l40.898 72.495zm-229.781-72.495h1.942l64.614 72.495H120.661l40.897-72.495z"/></svg>