<svg id="Objects" xmlns="http://www.w3.org/2000/svg" viewBox="0 0 160.9 134.6"><style>.st3{fill:#71b8b0}</style><path d="M53.8 0h45c6 0 10.9 4.9 10.9 10.9v101.3c0 6-4.9 10.9-10.9 10.9h-45c-6 0-10.9-4.9-10.9-10.9V10.9C42.8 4.9 47.8 0 53.8 0z" fill="#fc6e4b"/><path fill="#fffdfa" d="M44.9 10.9h62.8v103.2H44.9z"/><path d="M69.8 7h12.9v1.3H69.8zm6.5-4c.7 0 1.2.5 1.2 1.2s-.5 1.2-1.2 1.2-1.2-.5-1.2-1.2c0-.6.5-1.2 1.2-1.2zm0 112.8c1.5 0 2.8 1.2 2.8 2.8 0 1.5-1.2 2.8-2.8 2.8-1.5 0-2.8-1.2-2.8-2.8 0-1.6 1.2-2.8 2.8-2.8z" fill="#ffb8a6"/><path class="st3" d="M91.8 48h1.3c3.8 0 3.9-4.3 0-4.3h-1.3v.3c1 0 1.8.8 1.8 1.8s-.8 1.8-1.8 1.8v.4zm-31 0h31v-.4c-1 0-1.8-.8-1.8-1.8s.8-1.8 1.8-1.8v-.3h-31v.3c1 0 1.8.8 1.8 1.8s-.8 1.8-1.8 1.8v.4zm-1.4 0h1.3v-.4c-1 0-1.8-.8-1.8-1.8s.8-1.8 1.8-1.8v-.3h-1.3c-3.9.1-3.7 4.3 0 4.3zm19.3-18.8c-1 0-1.8.8-1.8 1.8s.8 1.8 1.8 1.8 1.8-.8 1.8-1.8c-.1-1-.9-1.8-1.8-1.8z"/><path class="st3" d="M92.5 45.4L80.3 31.8c-.3-.3-.8-.3-1.1-.1-.3.3-.3.8-.1 1.1l12.2 13.7c.3.3.8.3 1.1.1.3-.4.4-.9.1-1.2zM73.9 29.2c1 0 1.8.8 1.8 1.8s-.8 1.8-1.8 1.8-1.8-.8-1.8-1.8.8-1.8 1.8-1.8z"/><path class="st3" d="M60.1 45.4l13.3-14.9c.3-.3.8-.3 1.1-.1.3.3.3.8.1 1.1L61.3 46.4c-.3.3-.8.3-1.1.1-.4-.3-.4-.8-.1-1.1zm26.5 3.9h6.3l-1.6 9.4c-.4 2-1.3 3.6-4.5 3.6h-.2v-2.8c.4-.2.8-.7.9-1.2.1-1.1.3-2.2.4-3.2.1-1.1.3-2.2.4-3.2.1-.7-.5-1.3-1.2-1.3-.2 0-.3 0-.5.1v-1.4zm-5.1 0h5.2v1.3c-.6.2-1 .7-1.1 1.2-.1 1.1-.2 2.2-.3 3.2-.1 1.1-.2 2.2-.3 3.2-.1.7.4 1.3 1.1 1.3.2 0 .4-.1.6-.1v2.8h-5.2v-2.6c.6-.1 1-.7 1.1-1.3.1-1.1.2-2.2.2-3.2.1-1.1.2-2.2.2-3.2.1-.7-.5-1.3-1.3-1.3h-.2v-1.3zm-5.2 0h5.2v1.2c-.7.1-1.2.6-1.3 1.3 0 1.1-.1 2.2-.1 3.2 0 1.1-.1 2.2-.1 3.2 0 .7.5 1.3 1.2 1.3h.3v2.7h-5.2v-2.6c.7 0 1.3-.6 1.3-1.3 0-1.1 0-2.2.1-3.2 0-1.1 0-2.2.1-3.2 0-.7-.6-1.3-1.4-1.3v-1.3h-.1zm-5.2 0h5.2v1.2c-.8 0-1.4.6-1.4 1.3 0 1.1 0 2.2.1 3.2v3.2c0 .7.6 1.3 1.3 1.3v2.7h-5.2v-2.6h.3c.7 0 1.3-.6 1.2-1.3 0-1.1-.1-2.2-.1-3.2 0-1.1-.1-2.2-.1-3.2 0-.7-.6-1.2-1.3-1.3v-1.3zm-5.2 0H71v1.2h-.2c-.8 0-1.4.6-1.3 1.3.1 1.1.2 2.2.2 3.2.1 1.1.2 2.2.2 3.2 0 .6.5 1.1 1.1 1.3v2.7h-5.1v-2.8c.2.1.4.1.6.1.7 0 1.2-.6 1.1-1.3-.1-1.1-.2-2.2-.3-3.2-.1-1.1-.2-2.2-.3-3.2-.1-.6-.5-1.1-1.1-1.2v-1.3zm-.1 13c-3.1 0-4.1-1.5-4.5-3.6l-1.6-9.4H66v1.3c-.2-.1-.3-.1-.5-.1-.8 0-1.3.6-1.2 1.3.1 1.1.3 2.2.4 3.2.1 1.1.3 2.2.4 3.2.1.5.4 1 .9 1.2v2.8h-.2v.1z"/><path d="M11.8 80.8h5.6V64.4L11.8 70zm34.9 0h-5.6V64.4l5.6 5.6z" fill="#49807a"/><path d="M11.8 70l5.6-5.6h23.7l5.6 5.6zM0 78.3h58.5v56.3H0z" fill="#335e59"/><path d="M96.8 16.7h61.9c1.2 0 2.2 1 2.2 2.2v37.7c0 1.2-1 2.2-2.2 2.2H96.8c-1.2 0-2.2-1-2.2-2.2V18.9c0-1.2 1-2.2 2.2-2.2z" fill="#ffae00"/><path d="M94.6 46.2h66.3V54H94.6zm5.3-25.6h12.6c.7 0 1.2.5 1.2 1.2v8.4c0 .7-.5 1.2-1.2 1.2H99.9c-.7 0-1.2-.5-1.2-1.2v-8.4c0-.7.6-1.2 1.2-1.2z" fill="#ffebbf"/><path d="M66.7 68h19.2c.4 0 .7.3.7.7v5c0 .4-.3.7-.7.7H66.7c-.4 0-.7-.3-.7-.7v-5c0-.4.3-.7.7-.7z" fill="#45706b"/><path class="st3" d="M72.7 77.4h7.1v18.3h-7.1z"/><path class="st3" d="M76.3 103l8.5-11.2H67.7z"/></svg>