<svg id="Objects" xmlns="http://www.w3.org/2000/svg" viewBox="0 0 132.4 119.9"><style>.st0{fill:#ffebbf}.st1{fill:#335e59}.st2{fill:#88c9c1}.st3{font-family:&apos;Arial-BoldMT&apos;}.st4{font-size:13.5876px}.st5{fill:#ffae00}</style><path transform="rotate(-30.638 34.534 26.559)" class="st0" d="M-3.9 23.7H73v5.7H-3.9z"/><path transform="rotate(-59.363 97.832 26.685)" class="st0" d="M95-11.8h5.7v76.9H95z"/><path class="st0" d="M93.7 0h5.2v25.8h-5.2zm18.7 0h5.2v37.4h-5.2z"/><path class="st0" d="M93.7 0h24v5.2h-24z"/><path class="st1" d="M4.1 63.5h124.1v56.4H4.1z"/><path class="st2" d="M7.5 67.4h117.4v48.7H7.5z"/><path class="st1" d="M110.8 63.5h17.4V81c-9.6 0-17.4-7.8-17.4-17.5zm-89.2 56.4H4.1v-17.5c9.7.1 17.5 7.9 17.5 17.5zm44.6-9.8c10.1 0 18.3-8.2 18.3-18.3 0-10.1-8.2-18.3-18.3-18.3-10.1 0-18.3 8.2-18.3 18.3 0 10 8.2 18.3 18.3 18.3z"/><text transform="translate(9.477 81.526)" class="st1 st3 st4">100</text><text transform="translate(100.267 114.311)" class="st1 st3 st4">100</text><path class="st2" d="M69 80.4c1 .3 1.8.7 2.5 1.3.9.9 1.5 2 1.7 3.5l-3.7.5c-.1-.5-.3-1-.5-1.3v-4zm0 9c1.7.6 2.8 1.3 3.5 2.1.8 1 1.3 2.3 1.3 3.9 0 1.8-.5 3.2-1.6 4.4-.8.9-1.9 1.6-3.2 2v-3.5c.2-.1.4-.3.5-.5.5-.5.7-1.2.7-1.9s-.2-1.2-.6-1.7c-.2-.2-.4-.4-.7-.6v-4.2h.1zm-3.3 9.2v-6.1l-.9-.3v-4.4l.9.6v-5c-.4.1-.7.3-.9.5v-3.5c.3-.1.6-.1.9-.2v-1.4h2.1v1.4c.4.1.8.1 1.2.2v4c-.3-.4-.7-.8-1.2-1v5.7c.4.1.8.2 1.2.4v4.2c-.3-.2-.7-.4-1.2-.5v5.7c.5-.1.9-.3 1.2-.5v3.5l-1.2.3v2.7h-2.1v-2.6c-.3 0-.6-.1-.9-.2v-4c.2.1.6.3.9.5zm-.9-6.4c-1.4-.5-2.5-1.2-3.2-2.2-.9-1.1-1.3-2.4-1.3-4s.5-2.9 1.5-4c.8-.9 1.8-1.4 3.1-1.7v3.5c-.2.1-.3.3-.4.5-.3.5-.5 1-.5 1.5s.2 1 .5 1.4c.1.2.3.4.5.5v4.5h-.2zm0 9.7c-1.3-.3-2.3-.9-3.2-1.7-1-1-1.7-2.5-2-4.4l3.8-.4c.2.8.4 1.4.9 2 .2.2.3.4.5.6v3.9z"/><circle class="st5" cx="71" cy="35.4" r="11.1"/><circle class="st0" cx="71" cy="35.4" r="9.4"/><path class="st5" d="M67.8 37.3c.5.6 1 1 1.6 1.3.5.3 1.1.4 1.6.4.4 0 .8-.1 1.1-.4.3-.3.4-.6.4-1s-.1-.7-.4-1c-.2-.2-.8-.5-1.7-.7-1.3-.4-2.3-.8-2.8-1.4-.5-.5-.8-1.3-.8-2.3 0-1.2.4-2.1 1.1-2.9.7-.7 1.8-1.2 3.1-1.3v-1.2h1.1V28c.5.1 1 .2 1.5.4s1 .4 1.5.8L74 31.7c-.4-.3-.8-.6-1.2-.8-.4-.2-.8-.3-1.3-.3-.4 0-.8.1-1 .3-.3.2-.4.5-.4.8s.1.6.3.8c.2.2.7.4 1.4.6h.1c1.5.4 2.4.8 2.9 1.3.3.3.5.7.7 1.1s.2.9.2 1.5c0 1.2-.4 2.3-1.1 3.1-.7.8-1.7 1.3-3 1.4v2.2h-1.1v-2.1c-.8 0-1.6-.2-2.3-.5-.7-.3-1.4-.8-2-1.4l1.6-2.4zM57.4 59.1c6.1 0 11.1-5 11.1-11.1s-5-11.1-11.1-11.1-11.1 5-11.1 11.1 5 11.1 11.1 11.1z"/><path class="st0" d="M57.4 57.4c5.2 0 9.4-4.2 9.4-9.4s-4.2-9.4-9.4-9.4S48 42.8 48 48s4.2 9.4 9.4 9.4z"/><path class="st5" d="M54.2 49.8c.5.6 1 1 1.6 1.3.5.3 1.1.4 1.6.4.4 0 .8-.1 1.1-.4.3-.3.4-.6.4-1s-.1-.7-.4-1c-.2-.2-.8-.5-1.7-.7-1.3-.4-2.3-.8-2.8-1.4-.5-.5-.8-1.3-.8-2.3 0-1.2.4-2.1 1.1-2.9.7-.7 1.8-1.2 3.1-1.3v-1.2h1.1v1.2c.5.1 1 .2 1.5.4s1 .4 1.5.8l-1.1 2.5c-.4-.3-.8-.6-1.2-.8-.4-.2-.8-.3-1.3-.3-.4 0-.8.1-1 .3-.3.2-.4.5-.4.8s.1.6.3.8c.2.2.7.4 1.4.6h.1c1.5.4 2.4.8 2.9 1.3.3.3.5.7.7 1.1s.2.9.2 1.5c0 1.2-.4 2.3-1.1 3.1-.7.8-1.7 1.3-3 1.4v2.2h-1.2v-2.1c-.8 0-1.6-.2-2.3-.5-.7-.3-1.4-.8-2-1.4l1.7-2.4zm22.2 23.6c6.1 0 11.1-5 11.1-11.1s-5-11.1-11.1-11.1-11.1 5-11.1 11.1 4.9 11.1 11.1 11.1z"/><circle class="st0" cx="76.4" cy="62.3" r="9.4"/><path class="st5" d="M73.2 64.1c.5.6 1 1 1.6 1.3.5.3 1.1.4 1.6.4.4 0 .8-.1 1.1-.4.3-.3.4-.6.4-1s-.1-.7-.4-1c-.2-.2-.8-.5-1.7-.7-1.3-.4-2.3-.8-2.8-1.4-.5-.5-.8-1.3-.8-2.3 0-1.2.4-2.1 1.1-2.9.7-.7 1.8-1.2 3.1-1.3v-1.2h1.1v1.2c.5.1 1 .2 1.5.4s1 .4 1.5.8l-1.1 2.5c-.4-.3-.8-.6-1.2-.8-.4-.2-.8-.3-1.3-.3-.4 0-.8.1-1 .3-.3.2-.4.5-.4.8s.1.6.3.8c.2.2.7.4 1.4.6h.1c1.5.4 2.4.8 2.9 1.3.3.3.5.7.7 1.2.2.4.2.9.2 1.5 0 1.2-.4 2.3-1.1 3.1-.7.8-1.7 1.3-3 1.4v2.2h-1.1v-2.1c-.8 0-1.6-.2-2.3-.5-.7-.3-1.4-.8-2-1.4l1.6-2.5z"/></svg>