<svg id="Objects" xmlns="http://www.w3.org/2000/svg" viewBox="0 0 129.1 90.9"><style>.st0{fill:#fff}.st1{fill:#ffae00}.st2{fill:#71b8b0}.st4{fill:#335e59}.st6{fill:#fc6e4b}</style><path class="st0" d="M13.6 1.3h1.3v89.6h-1.3zm14 0h1.3v89.6h-1.3zm14.1 0H43v89.6h-1.3zm14 0H57v89.6h-1.3zm14 0H71v89.6h-1.3zm14.1 0h1.3v89.6h-1.3zm14 0h1.3v89.6h-1.3zm14 0h1.3v89.6h-1.3zm14.1 0h1.3v89.6h-1.3z"/><path class="st1" d="M0 85.6h127.2v5.3H0z"/><path class="st1" d="M0 1.3h1.3v89.6H0z"/><path class="st2" d="M.5 85.4L14 43.8l.5-1.5.9 1.2 13.1 17.8 13.4-21.6.5-.9.7.8 12.8 14.6 13.5-35.8.9-2.3.6 2.4 14 52.4 12.6-38.6.6-2 .9 1.9 12.6 26.5 14-51.6 1.6.4-14.6 53.7-.6 2.1-.9-2-12.7-26.6L85.6 74l-.8 2.6-.7-2.6L70 21.3 56.9 56l-.5 1.2-.9-1-12.9-14.7-13.4 21.7-.6 1-.7-1L15 45.8 2 85.9z"/><path d="M80.2 58.9c15.4 0 28-12.6 28-28s-12.6-28-28-28-28 12.6-28 28 12.6 28 28 28z" fill="#ffebbf"/><path class="st0" d="M80.3 58V2.9c-1 0-2 .1-3 .2v54.7c.9 0 1.9.1 3 .2z"/><path class="st2" d="M61 51.3l15.5-40.9 2-5.3 1.5 5.5 12.2 45.6-2.1.9c-.5.1-.9.2-1.4.3L77.9 17.1 64.1 53.4c-.8-.4-1.6-.9-2.3-1.4-.2-.2-.5-.5-.8-.7z"/><path class="st4" d="M105.1 11.8C98.8 4 89.4-.1 79.9 0v5.7c7.8 0 15.4 3.3 20.5 9.6 8.7 10.9 6.6 26.5-4.8 34.9-4.7 3.5-10.3 5.2-15.8 5.2v5.7c6.8 0 13.6-2.1 19.4-6.4 14-10.3 16.6-29.5 5.9-42.9zM79.8 0C73 0 66.2 2.1 60.4 6.4c-13.9 10.4-16.6 29.6-5.9 43 6.3 7.8 15.7 11.9 25.2 11.8v-5.7c-7.8 0-15.4-3.3-20.5-9.6C50.5 35 52.6 19.4 64 11c4.7-3.5 10.3-5.2 15.8-5.2V0z"/><path class="st4" d="M35.4 68.9l-5.3-6.5 24.6-18.3 5.2 6.5z"/><path fill="#5896cc" d="M36.3 68.5l-5.5-7 16.6-12.4 5.6 7z"/><path class="st6" d="M25.4 79.9c-3.2 2.4-7.8 1.8-10.3-1.2-2.5-3.1-1.9-7.5 1.4-9.9l24.7-18.4c1.8-1.4 4.1-1.8 6.2-1.3l5.6 7c0 2.1-1 4.1-2.9 5.5L25.4 79.9z"/><path class="st6" d="M25.1 79.7c-3 2.2-7.3 1.7-9.7-1.2-2.3-2.9-1.7-7 1.3-9.3l23.2-17.3c3-2.2 7.3-1.7 9.6 1.2s1.7 7-1.3 9.3L25.1 79.7z"/><path class="st2" d="M127.2 4.4l1.9 6.1-6.8-2z"/></svg>