<svg id="objects" xmlns="http://www.w3.org/2000/svg" viewBox="0 0 194.2 218"><style>.st2{fill:#f6d1af}.st4{fill:#343434}</style><path d="M77.7 129.8c-42.9 18.8-55.8 28.8-60.9 33.4C9 170.1 4.6 196 0 218h194.2c-4.6-22-9-47.8-16.8-54.8-5.1-4.5-17.5-14.3-60.4-33.1l-39.3-.3z" fill="#ffdecc"/><path d="M77.7 129.8c-42.9 18.8-55.8 28.8-60.9 33.4C9 170.1 4.6 196 0 218h194.2c-4.6-22-9-47.8-16.8-54.8-5.1-4.5-17.5-14.3-60.4-33.1l-39.3-.3z" fill="#c93838"/><path class="st2" d="M76.2 92.3v47.6c11.5 13.6 30.2 14 41.7 0V92.3c0-25.7-41.7-25.7-41.7 0zM53.6 62.4c3.7-1.2 8.3 3 10.4 9.3s.8 12.5-2.9 13.7c-3.7 1.2-8.3-3-10.4-9.3-2.1-6.4-.8-12.5 2.9-13.7zm86.8 0c-3.7-1.2-8.3 3-10.4 9.3s-.8 12.5 2.9 13.7c3.7 1.2 8.3-3 10.4-9.3 2-6.4.7-12.5-2.9-13.7z"/><path d="M76.2 115.4v1.5S86.8 129.5 97 130c10.2.5 20.9-12.2 20.9-12.2v-2.3" opacity=".2"/><path class="st2" d="M97.1 6.9c-64.1 0-39.5 87.8-35.4 94.6 4.6 7.4 25 23.8 35.4 23.8s30.7-16.4 35.4-23.8c4.2-6.8 28.7-94.6-35.4-94.6z"/><path class="st4" d="M125.9 8.9c-21.7-17-55.1-6.9-65.2 7.3-12.6 17.8-8.2 44.8-5.2 65v-.1c0 .2.1.4.1.6 0 .2.4.6.5.8s.9 0 1.2-.1c.1 0 .1-.2.1-.3.1-1.8 0-5.3 0-5.4-.2-2.8-.8-5.5-1.3-8.2 2-12.8 8-15.5 11.2-30.9l2.1-3c.9-1.1 1.7-2.2 2.8-3.2.5-.3 1.1-.7 1.6-1.1 11.7-4.3 23.7.9 34.7 5.3 4.2 1.7 4.8-5.8 9.5-6.1 2-.2 6.1 6.6 7.7 6.4 16.5-1.9 9.6 23.1 12.2 34.7-.4 2-.7 4-.9 6.1 0 0-.1 3.6 0 5.4 0 .1 0 .2.1.3.3.1 1 .3 1.2.1.1-.1.4-.6.5-.8.2-.8.2-1.4.3-2.2.1-1 .3-2.1.4-3.2 3.3-12.4 9.4-62-13.6-67.4zM93 25.7c-.4-.1-.7-.2-1.1-.3.5.1 1.1.3 1.6.4-.1 0-.3-.1-.5-.1z"/><path opacity=".1" d="M93.2 167.7h7.8v.3h-7.9z"/><path class="st4" d="M109.5 14.9s-18.7-13-35.3-6c-16.7 7-31.3 9.7-35 5 0 0-10.3 21.7 9 33s41.3 2.3 47.7-4.7c6.3-7 16.7-18.3 22.3-16s-8.7-11.3-8.7-11.3z"/></svg>