<svg id="objects" xmlns="http://www.w3.org/2000/svg" viewBox="0 0 184.2 195.4"><style>.st1{fill:#268085}.st2{fill:#f5d5c1}.st5{fill:#fff}</style><path d="M75.1 7c4.5-7.9 40.8-14.9 55.5 13.2 14.8 28.1 7.3 37.9 15.5 47.8s.5 32.6-5.2 34.6-3.4 9.9-.6 13.2c11.8 14.4-5.3 38.7-50.8 38.5-48.7-.3-58.2-28.5-45.7-37.4 4.1-2.9 5.6-8.4 1.2-13.3-4.5-4.9-14.7-23-5-37.9C49.7 51.1 41.2 7 75.1 7z" fill="#806049"/><path class="st1" d="M109.5 122.6c-.4.6-35.6 1.1-35.9 1.7-11.1 15.8-34.9 22.7-53.9 26.9C.8 155.4.1 179.4 0 195.4h184.2c0-16-.4-39.9-19.7-44.2-19.3-4.3-44.5-12.1-55-28.6z"/><path class="st2" d="M73.6 88.9v45.2c9.2 18.9 25.9 19.4 36.9 0V88.9c0-24.4-36.9-24.4-36.9 0zm67.2-21.1c-3.7-1.7-8.9 2.4-11.6 9.1-2.7 6.7-2 13.5 1.7 15.1 3.7 1.7 8.9-2.4 11.6-9.1 2.7-6.6 1.9-13.4-1.7-15.1zm-97.4 0c3.7-1.7 8.9 2.4 11.6 9.1s2 13.5-1.7 15.1c-3.7 1.7-8.9-2.4-11.6-9.1-2.7-6.6-2-13.4 1.7-15.1z"/><path d="M73.6 111.4v1.3s11.6 11.6 18.3 11.6 18.6-11.7 18.6-11.7v-1.1l-36.9-.1z" opacity=".2"/><path class="st2" d="M92.1 120.2c-11.5 0-35.7-18.9-43.2-46-7.6-27.3 6.7-66.5 43.2-66.5s50.7 39.2 43.2 66.5c-7.5 27.1-31.7 46-43.2 46z"/><path d="M83.5 41.6C74.5 60.4 70.9 65.9 59 61c-11.9-5-9.6 8.9-7.5 18.8-10.5-13.4-9.3-26.1-6-39C49.1 26.6 67.2 5.1 84.2 5.5c9.2-1 23.2.2 38.1 10.9 26 18.7 17.3 60.8 10.3 65.7 6.8-38.9-9.8-31-21.3-51.4-3.7-8.9-18.1-9.5-27.8 10.9z" fill="#80604a"/><path class="st5" d="M89.7 148.7h3.8v46.7h-3.8z"/><path class="st5" d="M73.6 124.3l-13.2 12 16.8 26 14.4-13.7zm36.9-.1l13.2 12.5-17.6 25.6-14.5-13.7z"/><path class="st1" d="M112.1 88.4c.4 0 .7 0 1.1-.1 10.5-.9 13.1-5.6 14.2-11.5 1.3-6.5 1.4-8.8 3.1-9.4 1.2-.4 1.5-1.9 1.5-3.6 0-1.7-.1-1.9-2.1-2.6-1.6-.6-10.6-1.4-17.3-1V62c5.3-.3 10.4.3 11.9 1.3 3.4 2.2 2.4 12.7-.5 17.9-2 3.6-7.2 5.5-11.9 5.5v1.7zM92.5 63.7c-2.3.1-11.8-2.7-18.5-3.3-.5 0-1-.1-1.5-.1v1.8c5.5.2 11.1 1.5 13.1 4.4 3.2 4.8-2.5 16.5-7.7 19.1-1.6.8-3.6 1.2-5.8 1.2v1.7c9.1 0 12.4-6.5 13.5-8.7 2.1-4.1 1.7-9.8 6.9-9.8s4.5 5.5 6.4 9.6c1 2.2 3.9 9 13.3 8.7v-1.7c-2.3 0-4.5-.4-6.1-1.2-5-2.6-10-14.3-6.5-19.1 2.1-2.9 7.7-4.2 13.1-4.5V60c-.4 0-.8.1-1.2.1-6.2.8-13.5 3.4-19 3.6zm-19.9-3.4c-6.6-.4-15.4.5-17.1 1-2.1.7-2.2.9-2.3 2.6-.1 1.7.1 3.2 1.3 3.6 1.7.6 1.6 2.9 2.5 9.4.8 5.9 3.1 10.6 13.5 11.5.5 0 1 .1 1.6.1v-1.7c-4.8 0-10.1-1.8-11.9-5.5-2.5-5.2-2.9-15.7.6-17.9 1.5-.9 6.5-1.6 11.7-1.4l.1-1.7z"/><path opacity=".05" d="M73.6 124.3l18 24.3 18.9-24.4v-.5l-18.9 24.2-18-24.2z"/></svg>