<svg id="objects" xmlns="http://www.w3.org/2000/svg" viewBox="0 0 184.2 195.3"><style>.st0{fill:#bf9741}.st3{fill:#f6dbc2}</style><path class="st0" d="M78.5 6.4c3.9-7.3 35.4-13.7 48.2 12.2 12.8 25.8 6.4 34.9 13.4 44 7.1 9.1-9.6 79.7-49.1 79.5-42.2-.2-51.5-67.7-43.1-81.4 8.5-13.8 1.2-54.4 30.6-54.3z"/><path d="M109.5 126.5c-.4.6-35.6 1.1-35.9 1.7-11.1 15.8-34.9 18.7-53.9 22.9C.8 155.3.1 179.3 0 195.3h184.2c0-16-.4-39.9-19.7-44.2-19.2-4.3-44.5-8.1-55-24.6z" fill="#7491a0"/><path d="M110.6 128v8.7l-9 58.6H82.5l-9-57.9v-9.2c.4-.6 35.6-1.1 35.9-1.7.5.5.8 1 1.2 1.5z" fill="#fff"/><path class="st3" d="M73.7 88.8V134c9.2 18.9 25.9 19.4 36.9 0V88.8c0-24.4-36.9-24.4-36.9 0zm67.1-21.1c-3.7-1.7-8.9 2.4-11.6 9.1-2.7 6.7-2 13.5 1.7 15.1 3.7 1.7 8.9-2.4 11.6-9.1 2.8-6.7 2-13.4-1.7-15.1zm-97.3 0c3.7-1.7 8.9 2.4 11.6 9.1 2.7 6.7 2 13.5-1.7 15.1-3.7 1.7-8.9-2.4-11.6-9.1-2.8-6.7-2-13.4 1.7-15.1z"/><path d="M73.7 111.3v1.3s11.6 11.6 18.3 11.6 18.6-11.7 18.6-11.7v-1.1l-36.9-.1z" opacity=".2"/><path class="st3" d="M92.2 120.1c-11.5 0-35.7-18.9-43.2-46-7.6-27.3 6.7-66.5 43.2-66.5s50.7 39.2 43.2 66.5c-7.6 27.1-31.8 46-43.2 46z"/><path class="st0" d="M99.6 41.5c9 18.8 12.6 24.3 24.5 19.4 11.9-5 9.6 8.9 7.5 18.8 10.5-13.4 9.3-26.1 6-39C134 26.5 115.9 5 98.9 5.4c-9.2-1-23.2.2-38.1 10.9C34.8 35 43.5 77.1 50.5 82c-6.8-38.9 9.8-31 21.3-51.4 3.7-9 18-9.5 27.8 10.9z"/><path d="M82.6 195.3H66l-16.1-14.6 16.4-10.9-20-9.4 13.2-20.5 5.1-8 8.9-4v9.5l9 57.9zm35.2-26.2l16.4 10.9-16.1 15.3h-16.6.1l9-58.6v-9.4l10.9 4.9 4.8 8.1 11.5 19.5z" fill="#ededed"/></svg>