<svg id="Objects" xmlns="http://www.w3.org/2000/svg" viewBox="0 0 168.6 133.2"><style>.st0{fill:#335e59}.st1{fill:#71b8b0}.st2{fill:#d6fffa}.st3{fill:#ffdc8f}.st5{fill:#fff;stroke:#ffdc8f;stroke-width:.5669;stroke-miterlimit:22.9256}.st8{fill:#ffcd60}.st12{fill:#fc6e4b}</style><path class="st0" d="M81.4 113.7h22.9l10.8 19.5H70.6z"/><path class="st0" d="M38.8 29.7h108.1c3 0 5.5 2.5 5.5 5.5v77.9c0 3-2.5 5.5-5.5 5.5H38.8c-3 0-5.5-2.5-5.5-5.5V35.2c0-3 2.5-5.5 5.5-5.5z"/><path class="st1" d="M145.7 113c.4 0 .7.3.7.7 0 .4-.3.7-.7.7s-.7-.3-.7-.7.3-.7.7-.7zm-2.8 0c.4 0 .7.3.7.7 0 .4-.3.7-.7.7s-.7-.3-.7-.7.3-.7.7-.7zm-2.8 0c.4 0 .7.3.7.7 0 .4-.3.7-.7.7s-.7-.3-.7-.7.3-.7.7-.7zM26.9 127.3h131.9c1.6 0 2.9 1.3 2.9 2.9 0 1.6-1.3 2.9-2.9 2.9H26.9c-1.6 0-2.9-1.3-2.9-2.9-.1-1.6 1.3-2.9 2.9-2.9z"/><path class="st0" d="M161.8 130.2c0 1.6-1.3 2.9-2.9 2.9h-132c-1.6 0-2.9-1.3-2.9-2.9h137.8z"/><path class="st2" d="M36.9 32.9h111.8v75.8H36.9z"/><path class="st3" d="M54.4 0h65.9l11 11V0v108.8H54.4z"/><path d="M117.6 77.1v13.6m-16.5-13.6v6.8m-33.4-6.8v21.3" fill="none" stroke="#fff" stroke-width="1.2" stroke-miterlimit="22.926"/><path class="st5" d="M116.1 46.9c4.5 0 8.1 3.6 8.1 8.1s-3.6 8.1-8.1 8.1-8.1-3.6-8.1-8.1 3.6-8.1 8.1-8.1z"/><path class="st5" d="M111.6 61.8c-1.2-.8-2.1-1.8-2.8-3.1l7.3-3.7-4.5 6.8z"/><path class="st5" d="M108.9 58.7c-.6-1.1-.9-2.4-.9-3.7 0-2.6 1.2-4.9 3.1-6.4l5 6.4-7.2 3.7z"/><path class="st5" d="M111.1 48.6c1.4-1.1 3.1-1.7 5-1.7V55l-5-6.4zm5-1.7V55l5.8-5.7c-1.5-1.5-3.5-2.4-5.8-2.4z"/><path fill="#ffae00" stroke="#ffdc8f" stroke-width=".567" stroke-miterlimit="22.926" d="M61.5 64.5h37.4V68H61.5z"/><path class="st5" d="M61.5 44.5h6.6v20h-6.6zm7.6 7.6h6.6v12.5h-6.6zm7.7 4.2h6.6v8.2h-6.6zm7.7-3.9h6.6v12.1h-6.6zm7.7 3.5h6.6v8.7h-6.6z"/><path d="M108.5 64.5h3.4V68h-3.4zm4.9 0h10V68h-10zM74.2 11.6h37.3v2.7H74.2zm-12.7 6.7h62.8V21H61.5zm0 4.6h62.8v2.7H61.5zm0 4.7h62.8v2.7H61.5zm0 4.6h29.4v2.7H61.5zM120.3 11h11l-11-11zM61.5 75.1h13.2v4H61.5zm16.5 0h13.2v4H78zm16.5 0h13.2v4H94.5zm16.5 0h13.2v4H111z" fill="#ffae00"/><path class="st8" d="M61.5 81.9h13.2v4H61.5z"/><path fill="#ffebbf" d="M61.5 88.7h13.2v4H61.5z"/><path fill="#fff" d="M61.5 95.5h13.2v4H61.5z"/><path class="st8" d="M94.5 81.9h13.2v4H94.5zm16.5 0h13.2v4H111z"/><path class="st3" d="M111 88.7h13.2v4H111z"/><path class="st1" d="M129.4 98.5l-6.8 2.4 2.8-6.6 38.8-36.9c.6-.6 1.6-.6 2.2.1l1.8 1.9c.6.6.6 1.6-.1 2.2l-38.7 36.9z"/><path class="st0" d="M129.4 98.5l-6.8 2.4 4.9-4.7 39.8-37.8.9 1c.6.6.6 1.6-.1 2.2l-38.7 36.9z"/><path class="st2" d="M129.4 98.5l-6.8 2.4 2.8-6.6L162.5 59c1.7 1.2 3 2.6 4 4.2l-37.1 35.3z"/><path class="st1" d="M129.4 98.5l-6.8 2.4 4.9-4.7 37.1-35.3c.7.7 1.3 1.5 1.8 2.3l-37 35.3z"/><path d="M129.4 98.5l-6.8 2.4 2.8-6.6 35.8-34c1.7 1.2 3 2.6 4 4.2l-35.8 34z" fill="#ffd5c9"/><path class="st12" d="M129.4 98.5l-6.8 2.4 4.9-4.7 35.8-34c.7.7 1.3 1.5 1.8 2.3l-35.7 34z"/><path class="st2" d="M129.4 98.5l-6.8 2.4 2.8-6.6c.8.5 1.5 1.2 2.2 1.9.6.7 1.2 1.5 1.8 2.3z"/><path class="st1" d="M129.4 98.5l-6.8 2.4 4.9-4.7c.7.7 1.3 1.5 1.9 2.3z"/><path d="M124.8 100.1l-2.2.8.9-2.2c.2.2.5.4.7.6.3.3.5.5.6.8z" fill="#666"/><path class="st12" d="M0 129.1h39.5v4H0zm20.1 0h2V125h-2 .4v4.1h-.4zm-2 0h2-.4V125h.4-2v4.1zm8-26.7l7.2-34.6-3.9-.8-3.2 15.7v7.5l4.7-22.9.9.2-5.7 27.4v7.5zm-7.2 14.9l3.9.8 3.2-15.7v-7.5l-4.7 22.9-.9-.2 5.7-27.4v-7.5l-7.2 34.6zM87 44.1l-1.5-3.7-24.8 10V52l25.4-10.2.4.9L60.8 53v1.6L87 44.1zm-26.3 6.3L34.4 60.9l1.5 3.7 24.8-10V53L35.3 63.2l-.4-.9L60.6 52v-1.6h.1z"/><path class="st12" d="M80.6 29.1c1.3-.8 2.6-1.3 4-1.7l5.2 6.4c5.2-.2 10.9 3 14.3 8.5-3.8 1.9-7.7 4.1-11.6 6.5-3.9 2.4-7.7 4.8-11.1 7.3-3.3-5.7-3.4-12.1-.8-16.7l-3.2-7.6c.9-1 2-1.9 3.2-2.7zM32 59.9c1.1 0 2.1.4 2.9 1.2 1.7 1.6 1.7 4.3.1 6-.8.8-1.9 1.3-3 1.3v-1c.9 0 1.8-.3 2.4-1 1.3-1.3 1.3-3.5 0-4.8-.7-.6-1.5-1-2.4-1v-.7zm-3 1.2c.8-.8 1.9-1.3 3-1.3v.8c-.9 0-1.8.3-2.4 1-1.3 1.3-1.3 3.5 0 4.8.7.6 1.5 1 2.4 1v.8c-1.1 0-2.1-.4-2.9-1.2-1.7-1.6-1.8-4.2-.1-5.9zm-8.9 56c2.3 0 4.2 1.9 4.2 4.2 0 2.3-1.9 4.2-4.2 4.2v-.8c1.9 0 3.4-1.5 3.4-3.4s-1.5-3.4-3.4-3.4v-.8zm0 8.5c-2.3 0-4.2-1.9-4.2-4.2 0-2.3 1.9-4.2 4.2-4.2v.8c-1.9 0-3.4 1.5-3.4 3.4s1.5 3.4 3.4 3.4v.8z"/></svg>