<svg id="Objects" xmlns="http://www.w3.org/2000/svg" viewBox="0 0 150.4 109.8"><style>.st0{fill:#335e59}.st2{fill:#d6fffa}.st4{fill:#ffebbf}.st5{fill:#fff}</style><path class="st0" d="M23.2 16.6h104c2.1 0 3.9 1.7 3.9 3.9v65.6c0 2.1-1.7 3.9-3.9 3.9h-104c-2.1 0-3.9-1.7-3.9-3.9V20.5c.1-2.1 1.8-3.9 3.9-3.9z"/><path fill="#ffae00" d="M25.2 24.3h100.1V78H25.2z"/><path class="st2" d="M75.2 22c.8 0 1.4-.6 1.4-1.4s-.6-1.4-1.4-1.4-1.4.6-1.4 1.4.6 1.4 1.4 1.4zm-2.4 59.4h4.7v4.7h-4.7zM19.4 90H131l19.4 12.7H0z"/><path class="st0" d="M0 102.7h150.4v4.3c0 1.5-1.3 2.8-2.8 2.8H2.8c-1.5 0-2.8-1.3-2.8-2.8v-4.3z"/><path class="st2" d="M60 106.4h30.4v1.9H60zm-60-3.7h150.4v2.2H0z"/><path fill="#71b8b0" d="M22.2 92h106l13 8.6H9.2z"/><path class="st2" d="M74.3 91.2h1.4v10.2h-1.4zm15-.2l2.6 10.2-1.4.4-2.6-10.2z"/><path transform="rotate(-26.581 103.928 96.296)" class="st2" d="M103.2 90.6h1.4V102h-1.4z"/><path class="st2" d="M114.7 90.8l7.9 10.1-1.1.9-8-10.1z"/><path class="st2" d="M15.3 93.5h119.4v1.4H15.3z"/><path class="st2" d="M62.1 91.4l-2.6 10.2-1.4-.4L60.7 91z"/><path transform="rotate(-63.422 46.063 96.247)" class="st2" d="M40.4 95.5h11.4v1.4H40.4z"/><path transform="rotate(-51.888 31.88 96.324)" class="st2" d="M25.4 95.6h12.9V97H25.4z"/><path class="st2" d="M11 97h130v1.4H11z"/><path class="st4" d="M49.8 32.4c11.7 0 10.1 20.3 0 20.3s-11.7-20.3 0-20.3z"/><path class="st4" d="M56.2 52c7.3 2.5 11.1 9.5 11.9 18.2H31.4c.9-8.6 4.6-15.6 11.9-18.2 1.6 1.8 3.8 2.9 6.4 2.9 2.7 0 4.9-1.1 6.5-2.9z"/><path class="st5" d="M74.8 61.8h42c.5 0 .9.4.9.9v6.4c0 .5-.4.9-.9.9h-42c-.5 0-.9-.4-.9-.9v-6.4c-.1-.4.4-.9.9-.9z"/><path class="st4" d="M74.2 56.3h16.2c.2 0 .4.2.4.4v2.5c0 .2-.2.4-.4.4H74.2c-.2 0-.4-.2-.4-.4v-2.5c0-.2.2-.4.4-.4z"/><path class="st5" d="M74.8 43.5h42c.5 0 .9.4.9.9v6.4c0 .5-.4.9-.9.9h-42c-.5 0-.9-.4-.9-.9v-6.3c-.1-.6.4-1 .9-1z"/><path class="st4" d="M74.2 38h16.2c.2 0 .4.2.4.4v2.5c0 .2-.2.4-.4.4H74.2c-.2 0-.4-.2-.4-.4v-2.5c0-.2.2-.4.4-.4z"/><path d="M93.1 0h48.5c.9 0 1.7.8 1.7 1.7v29.5c0 .9-.8 1.7-1.7 1.7H93.1c-.9 0-1.7-.8-1.7-1.7V1.7c0-.9.8-1.7 1.7-1.7z" fill="#fc6e4b"/><path d="M91.4 23.1h51.9v6.1H91.4zM95.6 3h9.9c.5 0 .9.4.9.9v6.5c0 .5-.4.9-.9.9h-9.9c-.5 0-.9-.4-.9-.9V3.9c-.1-.4.3-.9.9-.9z" fill="#ffc1b2"/></svg>