<svg id="Objects" xmlns="http://www.w3.org/2000/svg" viewBox="0 0 102.1 123.3"><style>.st3{fill:#fffdfa}</style><path d="M1 62c-.2.8-.3 1.7-.4 2.5-.1.8-.2 1.7-.3 2.5-.2 1.7-.3 3.4-.3 5.2 0 1.8.1 3.5.3 5.2.1.9.2 1.7.3 2.5s.3 1.7.4 2.5c.2.8.4 1.6.6 2.5.4 1.6.9 3.2 1.5 4.8.3.8.6 1.5.9 2.3.3.8.7 1.5 1 2.3.2.4.4.7.5 1.1.4.7.8 1.5 1.2 2.2 1.2 2.1 2.6 4.2 4.1 6.1.8 1 1.5 1.9 2.4 2.8.5.6 1.1 1.2 1.7 1.8.6.6 1.2 1.1 1.8 1.7 2.7 2.5 5.7 4.6 8.9 6.5.7.4 1.4.8 2.2 1.2 1.5.7 3 1.4 4.5 2 .8.3 1.5.6 2.3.9 5.1 1.7 10.6 2.7 16.3 2.7 3.9 0 7.7-.4 11.3-1.3 1.7-.4 3.4-.9 5-1.4.8-.3 1.6-.6 2.3-.9 1.5-.6 3-1.3 4.5-2 .7-.4 1.5-.8 2.2-1.2 3.2-1.8 6.2-4 8.9-6.5.6-.5 1.2-1.1 1.8-1.7s1.1-1.2 1.7-1.8c.8-.9 1.6-1.8 2.4-2.8 1.2-1.5 2.3-3.1 3.3-4.8.3-.4.5-.9.8-1.3.4-.7.8-1.4 1.2-2.2.2-.4.4-.7.6-1.1.4-.7.7-1.5 1-2.3s.6-1.5.9-2.3c.6-1.6 1.1-3.2 1.5-4.8.2-.8.4-1.6.6-2.5.2-.8.3-1.7.5-2.5.1-.8.2-1.7.3-2.5.2-1.7.3-3.4.3-5.2s-.1-3.5-.3-5.2c-.1-.9-.2-1.7-.3-2.5s-.3-1.7-.5-2.5-.4-1.6-.6-2.5c-.4-1.6-.9-3.2-1.5-4.8-.1-.4-.3-.8-.4-1.2-.5-1.2-.9-2.3-1.5-3.4-.2-.4-.4-.7-.5-1.1-.4-.7-.8-1.5-1.2-2.2-1.2-2.1-2.6-4.2-4.1-6.1-.8-1-1.5-1.9-2.4-2.8-.5-.6-1.1-1.2-1.7-1.8-.6-.6-1.2-1.1-1.8-1.7-1.2-1.1-2.4-2.1-3.6-3-1.7-1.3-3.4-2.4-5.2-3.5-.7-.4-1.4-.8-2.2-1.2-.3-.2-.7-.3-1-.5l-1.2-.6c-.2-.1-.3-.2-.5-.2-.6-.3-1.2-.5-1.8-.7-.6-.2-1.3-.5-1.9-.7-.1 0-.3-.1-.4-.1-1.5-.5-3-.9-4.6-1.3l-1.5-.3c-.4-.1-.7-.1-1.1-.2-2.7-.5-5.4-.8-8.2-.8h-2.5c-5.1.2-10.1 1.1-14.7 2.6-.8.3-1.6.6-2.3.9-.2.1-.5.2-.7.3-.5.2-1.1.4-1.6.7-.8.3-1.5.7-2.2 1.1-.7.4-1.5.8-2.2 1.2-2.9 1.6-5.5 3.6-8 5.7-.3.3-.6.5-.9.8-.6.5-1.2 1.1-1.8 1.7-.6.6-1.1 1.2-1.7 1.8-.8.9-1.6 1.8-2.4 2.8-1.5 1.9-2.9 4-4.1 6.1-.4.7-.8 1.4-1.2 2.2-.2.4-.4.7-.5 1.1-.5 1.1-1 2.2-1.5 3.4-.2.4-.3.8-.4 1.2-.6 1.6-1.1 3.2-1.5 4.8-.5.7-.7 1.5-.8 2.3z" fill="#71b8b0"/><path d="M78.9 113.6V68.3l.6.3c1.3.8 3.1 1.8 3.6.6s2.2-.8 3.6-.5c1.4.3 3.9.8 5.2.6 1.3-.1 2.6-1.3 2.7-2.5.1-1.2-1.7-1.4-3.9-1.4s-3.1-.4-2.7-1.7c.4-1.3 1-2.5 2.2-3s2.2-.8 3.4-.8 2.7.9 4.2.8c1.4-.1.9-1.4-.5-2.2-1.4-.8-1.7-1.9-1-2.6.6-.6.3-1.3-.9-.6-1.2.6-2.9 2.3-3.2 1.3-.4-1-3.2-.1-3.2 1.4 0 1.6.4 1.8-.1 2.9-.5 1-1.7 1.8-2.7 1.7-1-.1.1 1.8-.9 2.3s-1.6-.8-2.2-2.1c-.6-1.3-1.2-2.1-1.8-2.9s-1-1.2-1.9-1.9c-.1-.1-.2-.1-.2-.2V47.3c.3-.1.6-.1 1-.1 1.4 0 2.5 1.2 3.5.3 1-.9-.8-2.5.8-2.5s2.9.1 1.7-1c-1.2-1.2.4-.5 1.7-1.2 1.3-.6 1.2-1.7-.4-1.4-1.6.3-2.9 1.2-3.5-.4s1.3-3.4 2.3-4.5c.2-.3.3-.5.2-.7l.6.6c.6.6 1.1 1.2 1.7 1.8.8.9 1.6 1.8 2.4 2.8 1.5 1.9 2.9 4 4.1 6.1.4.7.8 1.4 1.2 2.2.2.4.4.7.5 1.1.5 1.1 1 2.2 1.5 3.4.2.4.3.8.4 1.2.6 1.6 1.1 3.2 1.5 4.8.2.8.4 1.6.6 2.5.2.8.3 1.7.5 2.5.1.8.2 1.7.3 2.5.2 1.7.3 3.4.3 5.2s-.1 3.5-.3 5.2c-.1.9-.2 1.7-.3 2.5s-.3 1.7-.5 2.5c-.1.3-.1.7-.2 1v-.1c-1.2-2.7-3.8-5.7-4.7-8.2s-1.8-4-2.7-3.9 1.2 4.8 2.1 6.5c.9 1.7 1.9 4.4 3.5 6 .5.5 1 .9 1.5 1.2-.4 1.6-.9 3.2-1.5 4.7-.3.8-.6 1.5-.9 2.3-.3.8-.7 1.5-1 2.3-.2.4-.4.7-.6 1.1-.4.7-.8 1.5-1.2 2.2-.3.4-.5.9-.8 1.3-1 1.7-2.1 3.2-3.3 4.8-.8 1-1.5 1.9-2.4 2.8-.5.6-1.1 1.2-1.7 1.8-.6.6-1.2 1.1-1.8 1.7-1.9 1.7-3.8 3.2-5.9 4.6-.4-.6-.5-.9-.5-1.2zm0-51.8c.2.6.2 1.4.2 2.3 0 1.8 1.4-.6 1.7-1.4s.8-2.6-.3-2.6c-.8 0-1.1-.2-1.7-.8v2.5h.1zm0-16c.2-.2.4-.3.6-.3.9 0 1.3-1.2 2.3-2.2s-.9-2.3-.4-3.8c.5-1.4 2.1-2.1 2.5-3.5.2-.9 1.3-1 1.9-.7-.3-.3-.6-.5-.8-.8-1.2-1.1-2.4-2.1-3.6-3l-.9-.6c-.5.4-1.1 1-1.6 1.6v13.3zm0-13.3v13.3c-.6.5-1.2 1.4-1.4.4-.4-1.3-1.2-2.7-2.1-2.1-.9.6-.8 2.9-1.9 1-1.2-1.8-2.2-4.4-.9-5.8s3.1-2.6 4.2-4c.4-.7 1.2-1.8 2.1-2.8zm0 14.8c-.7.2-1.3.5-2.5.5-1.7 0-1-1.2-2.1-1.2-1 0-.8 1.9-1.7 2.9-.8.8-2.1 1.8-3.4 2.3v10.4c.6-.2.8-1.4.4-2.7-.4-1.4 2.1-.9 4.2-.9s2.3 1.4 3.8 1.9c.7.3 1.1.7 1.3 1.3v-2.5l-.5-.5c-.8-.8-.3-1.3.5-.8V47.3zm0 21v45.2c-.1-.9-.2-1.8-.8-2.7-1.2-1.7-2.3-4.7-1.2-6.2 1.2-1.6 1.7-2.7.6-3.1-1-.4.5-2.2-.9-3.1s-2.3-3.4-1.8-4.5c.5-1.2.6-3.1-1-3.1-1.2 0-3.1-.7-4.6-.9V65.2c.8-.3 1.5-.6 2.8-.6 2.5 0 4.3-.9 4 1-.2 1.6 1.6 2.1 2.9 2.7zm-9.7-17.6v-1.1c.3-.1.6.1.5.4 0 .4-.2.7-.5.7zm0-1.1v1.1c-.1 0-.2-.1-.3-.2-.4-.4-.3-.7.1-.9h.2zm0 2.1v10.4h-.9V51.9c.1 0 .2 0 .3-.1.2.1.4 0 .6-.1zm0 13.4v24.7h-.9V65.4c.4-.1.6-.2.9-.3zm-.8-18.7v-1.1c.3-.1.6.1.5.4-.1.3-.3.7-.5.7zm0-1.1v1.1c-.1 0-.2-.1-.3-.2-.4-.4-.3-.7.1-.9h.2zm0 6.7v10.2c-.6.1-1 .3-.9 1 .1.9-.3.8-.9 1.3-.3.2-.7.5-1.1.7V59c1.1-.3 1.7-1.5.8-2.4-1.2-1-.8-2.5-.1-3.6.4-1.1.8-.7 2.2-1zm0 13.4v24.4c-.2 0-.4.1-.6.1-.9.3-1.6.5-2.3.7V65.7c.3-.1.7-.1 1.1-.1.7.1 1.2 0 1.8-.2zm-3-13.4c.5-.2 1-.4 1.5-.4 1.9 0-.1-3.2.1-4.3.3-1 .2-3.4-1.7-3.4l.1 8.1zm0-8v8c-1.1.5-1.9 1.1-2.2-.2-.3-1.9-.4-1.8 1.3-2.5 1.8-.7-.7-5.4.6-5.3h.3zm0 15v6.2c-.5.2-1 .2-1.6-.2-.5-.3-1.3-.2-1.9-.2v-6c1.2 0 1.5.3 2.9.3.2 0 .4-.1.6-.1zm0 6.8v24.9c-.7.2-1.3.4-1.8.6-.5.2-1-.1-1.7-.6V67.2c.2-.1.5-.2.8-.3 1-.3 1.4-.9 2.7-1.1zm-3.5-14.4c.3-.1.6-.3.8-.8.6-1.3.6-3.7-.6-3.5h-.2v4.3zm0-22.3v-1.5h.3c1 0 1.8 1.8.4 1.8-.2 0-.5-.1-.7-.3zm0-1.5v1.5c-.7-.4-1-1.4 0-1.5zm0 19.5v4.3c-.6.2-1.3-.3-1.1-1.2.2-1.3-.7-3.3 1.1-3.1zm0 11.7v6c-.7 0-1.2 0-1.2-.7 0-1.3-.9-1.8-.3-3s0-2.3 1.3-2.3h.2zm0 8.3v23.5c-1-.7-2.2-2-3.2-3.1-.8-.8-1.8-1.7-2.6-2.6v-9c.6-1.1 1-3.8 2.2-4 1.3-.1 2.2-1.6 2.2-2.7-.1-.8.5-1.6 1.4-2.1zM56 68.7c.2 0 .5-.3.5-.6.1-.4-.2-.6-.5-.4v1zm0-30.6V35c1.3 0 1.9 1.2 1.1 2.2-.3.3-.7.6-1.1.9zm0-3.1v3.1c-.2.2-.5.3-.8.4v-3.4c.3-.1.6-.2.8-.1zm0 32.6v1.1c-.1 0-.2-.1-.3-.2-.4-.4-.3-.7.1-.9.1.1.2 0 .2 0zm0 8.4v9c-.3-.4-.6-.7-.8-1v-1.9c1-1 .6-1.3 0-1.9v-2.9c.2-.4.5-.9.7-1.2 0 0 .1 0 .1-.1zm-.8-4.1v-1.1c.3-.1.5.1.4.5 0 .2-.2.5-.4.6zm0-36.8v3.4c-1 .4-2.2.5-3.4-.5l-.1-.1v-3.5c.2-.1.4-.1.7 0 1.3.7 1.8.5 2.8.7zm0 35.7v1.1c-.1 0-.2 0-.4-.2-.4-.4-.3-.7.1-.9h.3zm0 6.5v2.8c-.1-.1-.2-.2-.2-.3-.4-.6-.2-1.6.2-2.5zm0 4.8V84c-.5-.7-.6-1.4-.1-1.8l.1-.1zm-3.5-59v-1.7h.9c0 .3-.1.7-.5 1.1-.1.2-.3.4-.4.6zm1.9 45.2c.4-.2.7 0 .7.4-.1.4-.4.9-.8.5-.4-.5-.4-.8.1-.9zm-28-17h.3c1.5 0 .4-1-.3-1.9v1.9zm26.1-29.9v1.7c-.7.9-.7 1.5-2.1 1.5-1.7 0 2.1 2.7.1 2.7s-2.6 2.5-.6 2.2c2-.2 1.8.6-.2 1.6-2.1 1-5.4 1-6.4 2.6s-4.7 1.5-4.7 3-.6 6.9-3.4 5.9-3.4-3.8-4.6-5.5c-1.1-1.7.6-3.6-.5-4.2s2.5-3.4 1.2-2.6c-1.2.9-3.2-.4-1.5-.7 1.7-.4 1.1-2.1-.1-1.7-.9.3-1.9 0-1.7-.7l.4-.2c.7-.4 1.5-.7 2.2-1.1.5-.2 1-.5 1.6-.7.2-.1.5-.2.7-.3.8-.3 1.5-.6 2.3-.9 4.7-1.6 9.6-2.5 14.7-2.6h2.6zm0 13.1c-1 .3-1.6 2.2 0 3.5v-3.5zm-26.1 82V88.4c1.4.9 2.6 1.8 3.7 1.8 1.6 0 1.4 1.6 1.4 3.2s2.1 1.6 4.3 2.3c2.2.7 3.2.6 5.4 2s2.7 2.1 1.6 3.7-3.4 4.1-3.6 6.4c-.1 2.3-1.6 4.6-3.2 4.8-1.6.2-3.1 1.5-3.1 2.6s-1.5.6-1.6 2.7c0 .3-.1.7-.2 1-.9-.4-1.8-.8-2.7-1.3-.6-.4-1.3-.7-2-1.1zm0-61v-3.6h.3c1.9-.1 2.2 1.4 2.8 2.6.6 1.2.2 2.4-1.7 1.6-.5-.3-1-.5-1.4-.6zm-4.2-2.6c.3.3.6.4.9-.1.5-.8 1.4-1.4 3.3-1.5v-1.9c-.3-.4-.5-.8-.4-1 .4-.9-1.5-1.2-2.5-2.2-.7-.7-.8-2.5-1.4-3.4l.1 10.1zm4.2-1v3.6c-.9-.4-1.3-.8-.7-2 .6-1.6-.1-1.7.7-1.6zm0 36.5v28.1l-.1-.1c-1.4-.8-2.7-1.7-4.1-2.6V86.4c.8.1 1.6.3 2.5.9.6.3 1.2.7 1.7 1.1zm-4.2-29.9v-1.6c1-.1 1.2 1.6.2 1.6h-.2zm0-23V34c.5.6.5 1.3 0 1.5zM19.8 57c.1-.1.1-.1.1-.2.7-.9.4-1.8-.1-2.4V57zm0-4.8c.4 0 .7 0 .9.1.3.2.5.4.7.6V42.7c-.2-.4-.5-.6-1-.6-.3 0-.5 0-.6.1v10zm1.6-18.3v1.5h-.6c-.4-.1-.7-.2-1-.2v-2.6s.1 0 .1.1c.7.3 1.2.7 1.5 1.2zm0 23v1.6c-.9-.2-1.3-1.4-.2-1.5.1-.1.1-.1.2-.1zm0 29.5v27.4c-.5-.4-1.1-.8-1.6-1.2V86.3c.5 0 1 0 1.6.1zM19.8 81v-.3c.1.1.2.3 0 .3zm0-21.9h.2c.7 0 .6-1.2-.2-1.2v1.2zm0-19.4v-2.3c.7.9.5 1.9 0 2.3zm-2.3 19c.7-.3 1.6-.7 2.4-1.7v-2.6c-.6-.7-1.5-1.1-2.1-1.1-1 0 .8-1 2.1-1.1v-10c-.6.2-.1 1.1-1.1 1.4-.5.2-1 .1-1.3 0v15.1zm2.3-26v2.6c-1.1 0-1.6.6-.3 1.8.1.1.2.2.3.4v2.3c-.3.2-.7.3-1.1.2-.3-.1-.7-.3-1.3-.5v-5.6c.6-.5 1.2-1 1.9-1.5.2 0 .3.2.5.3zm0 25.2v1.2c-.6-.1-.9-1-.2-1.1.1-.1.2-.1.2-.1zm0 22.8v.3c-.1.1-.3.1-.6.1-1.5-.1-2.4-1-.6-.8.5 0 1 .2 1.2.4zm0 5.6v26.3c-.8-.6-1.6-1.3-2.4-1.9V86.4c.5 0 1-.1 1.4-.1.4.1.7.1 1 0zm-4.3-25.7c.2-.4.5-.8.8-1.2.3-.3.7-.5 1.2-.7V43.5c-.4-.2-.6-.7-.6-1.3 0-.5-.6-1.1-1.4-1.7v20.1zm2-26.8v5.6c-.6-.2-1.3-.5-2-.7v-3c.4-.4.7-.7 1.1-1 .3-.4.6-.6.9-.9zm0 52.7v24.3c-.3-.3-.6-.5-.9-.8-.4-.3-.7-.7-1.1-1V86.2c.4.3 1.2.3 2 .3zm-2-5.6v-1.7h.4c1.1-.1 1 1.7-.2 1.7h-.2zm-4.2-14c.3-.3.6-.6.6-.9 0-1.1.7-4.2 2.1-4.2.8 0 1.2-.5 1.5-1.2V40.5c-1-.7-2.2-1.3-3.3-1.4-.3.4-.6.7-.9 1.1v26.7zm4.2-31.3v3c-.8-.3-1.6-.5-2.3-.7.5-.6 1.1-1.2 1.7-1.7l.6-.6zm0 43.6v1.7c-1-.2-2-1.5 0-1.7zm0 6.9v22.8l-.4-.4c-.5-.6-1.2-1.5-1.9-1.9l-.1-.1c-.6-.7-1.3-1.4-1.9-2.1V86.6c.5 0 1 0 1.4-.2 1-.6 2-1.8 2.5-.6.1 0 .3.2.4.3zm-4.2-7.4v-1c1 .2 1.6 1 .5 1-.2.1-.3 0-.5 0zm0-3v-1.4c1.1.6 1.8 2.1 1 1.6-.4-.2-.7-.3-1-.2zm-3.1-2.1c.4.2.6-.1.6-1.1 0-1.7-.5-2.7.1-3.7.4-.7 1.7-1.2 2.4-1.9V40.2c-.2.2-.3.4-.5.6-.4.5-.7 1-1.1 1.5.1.4.1.9.2 1.3.4 1.7 1.2 3 .2 3s-1 1.5-1.1 3.8c-.1 1.2-.5 1-.9.4l.1 22.8zm3.1.7v1.4c-.6.1-1 .5-1.5.2-.7-.4-.5-1.6.6-1.8.4 0 .6.1.9.2zm0 3.4v1c-1-.2-1.6-1-.5-1h.5zm0 8.8v17.8l-.1-.1v-.4c0-1-2.1-2.6-3.1-4v-5.2s.1 0 .1-.1c1.4-.6.7-2.5 2.1-2.8 1.4-.4.5-1.8 0-2.8-.3-.5-1.2-.5-2.2-.5v-1.9c.3.1.6.1.9 0 .6-.2 1.5 0 2.3 0zm-3.1-9v-1.3c1.1.2 1.7 1.5.4 1.4-.1-.1-.3-.1-.4-.1zM1 62c-.2.8-.3 1.7-.4 2.5-.1.8-.2 1.7-.3 2.5L0 71.2c.6 0 1.2.1 1.7-.1 1.2-.5 3.6-1.1 5 .9.7.9 1.1 1.4 1.5 1.6V50.8c-.4-.6-.7-1.6-.7-2.1s-.4-.8-1.1-1.1c-.3.5-.6 1.1-.9 1.6-.2.4-.4.7-.5 1.1-.5 1.1-1 2.2-1.5 3.4-.2.4-.3.8-.4 1.2-.6 1.6-1.1 3.2-1.5 4.8-.3.7-.5 1.5-.6 2.3zm7.2 14.2v1.3c-1.1-.3-1.7-1.5-.4-1.3.1-.1.2 0 .4 0zm0 10.3c-.8-.2-1.6-.9-2.1-1.8-.7-1.2.5-2.6-1.4-2.6-1.8 0-.6-4.1-.6-5.4 0-1.2-2.5.9-3.8 2.2 0 .3.1.7.1 1 .1.8.3 1.7.4 2.5.1.3.1.6.2.9.7.4 1.4.7 2.2.7 2.1 0 2.2 2.8 2.8 3.8.3.5 1.1.5 2 .5v-1.8h.2zm0 8.2v5.2c-.2-.2-.3-.4-.4-.6-.7-1.4-.9-3.9.4-4.6z" fill="#a0ded7"/><path d="M62.9 0C51.6 0 42.4 9.2 42.4 20.5c0 2.4.6 5.7 1.6 7.8l18.9 43.9 19-44.1c.8-1.9 1.5-5.2 1.5-7.6C83.4 9.1 74.2 0 62.9 0z" fill="#ed5c1b"/><path class="st3" d="M62.9 37.2c9.3 0 16.8-7.5 16.8-16.8S72.2 3.6 62.9 3.6s-16.8 7.5-16.8 16.8 7.6 16.8 16.8 16.8z"/><path d="M18.4 50.2c-6.6 0-11.9 5.3-11.9 11.9 0 1.4.4 3.3.9 4.6l11 25.5 11-25.6c.5-1.1.9-3 .9-4.4 0-6.7-5.3-12-11.9-12z" fill="#ffae00"/><path class="st3" d="M18.4 71.8c5.4 0 9.8-4.4 9.8-9.8s-4.4-9.8-9.8-9.8-9.8 4.4-9.8 9.8c.1 5.5 4.4 9.8 9.8 9.8z"/></svg>