<svg id="Objects" xmlns="http://www.w3.org/2000/svg" viewBox="0 0 800 800"><style>.st1{fill:#c6c6c6;stroke:#fff;stroke-width:.25;stroke-miterlimit:10}</style><g opacity=".4"><path class="st1" d="M396.2 382.4c.9-.1.8-4 .5-4.1-.4 0-.5.6-1.4 1.2-.9.5 0 3 .9 2.9zm-182 56.9c1.4-.5 2.3 0 3 .4.1 0 .1.1.2.1.8.4 1-.4 2.7-1 1.7-.6 4.6.5 4.6-.9s-4.7-2.8-5.8-2.4c-.3.1-.7 0-1.2-.1-1.2-.3-2.8-1.1-3.5-.6-1 .7 1.5 2.1 1.5 3 0 .9-3.9-.2-4.3.8-.3.5 1.3 1.2 2.8.7z"/><path class="st1" d="M296.5 491c-1 0-2.8-.2-5.2-2.8-2.4-2.6-4.8-2.4-6.4-2-1.6.4-3.3-.8-4.3-1-1.1-.2-2.1 1.1-2.9 1.4-.8.3.4-1.2.4-2.1 0-.9-2.9-2.2-5.1-3.1-2.2-.9-3.2-.4-3.2 1s-.9-.4-1.6 1.1c-.7 1.5-1.9.5-1.1 0 .8-.5 1.6-1.6 1.9-2.5.3-.9-3.2-1.7-4.4-1.2-1.2.5-.4 2.2-1.4 1.7-1-.5-.2-1.8.6-1.8s1.7-1.6 2.2-2.7c.5-1.2-.9-1.4-1.8-2.3-.9-1-.7-3.8-1.6-4.2-.9-.4-2.3-2.6-3.7-2.9-.6-.1-1.2-.4-1.8-.6-.8-.3-1.5-.6-2.2-.5-1.2.1-2.4.7-2.8 0-.4-.6-1.1-.5-1.7 0-.1.1-.1.1-.2.1-.6-.1-1.5-1.8-2-1.8-.6 0-1.3-.5-1.1-1.3.1-.8-1.4-.9-2.2-1.8-.2-.2-.5-.4-.8-.5-1-.4-2.5-.4-3.2-.3-.8 0 .5-.9.6-1.8 0-.9-2.3-1-3.3-1.2-.9-.2-.7-1.2.3-1.2s-.5-.7-1.8-.5c-1.3.2-3.2.9-4.2 1.5-1.1.6-2.9-1.7-4.1-1.2-1.2.5-2.9.5-2.9-.5s-.5-1.8-1.7-1.7c-1.2.1-.9-1.2-1.8-1.2s0 1.1-.6 1.4c-.6.3-2.8.8-3 1.7-.1.9 1.2 2.3.7 3.2-.4.9-1.9.1-2.3-.8-.4-.9 1.3-2.3 1-2.9-.2-.4-.5-1.1-.3-1.5.1-.2.2-.4.5-.4 1-.2 1.5-.8.5-1.4-.9-.5-1.5 1-2.5 1.2-1 .1-1.2.8-1.9 1.1-.7.3-1.9 0-2 .6-.1.6-.4 0-1-.1s-2.1 1.2-2 1.9c0 .7.3 1.4-.8 2.1-1.1.7-1.7 1.9-2.2 2.5-.1.2-.3.2-.5.1-.4-.2-.8-.9-1.4-1.7-.8-1.2-2.2-1.1-3.1-1.5-.9-.4-2 .1-3.1 1.2-1.1 1-2.5.4-3.5-.1-.3-.2-.7-.5-1.1-1-.8-.9-1.7-2-2.2-2.7-.1-.2-.2-.4-.3-.5-.3-.6.2-1.9.5-2.8.3-.9-.2-3.2.3-3.7.5-.6.2-.9.5-2.3v-.2c0-1.1-1.4-.7-2.4-1.7-1.1-1.1-3.4-.6-4.7-.1-1.3.5-2.7-.5-4.1.2-.8.4-1 0-.9-.5.1-.4.3-.8.7-1.1.9-.7-.4-3.4.6-3.6.2 0 .3-.2.5-.3.6-.6.9-1.9 1-3 .1-1.3-.3-1.7.4-2.5.7-.7 1.4-.8 1.2-1.8-.2-1-1.1 0-1.9-.5-.8-.5-1.5-.1-3.4.1-2 .3-2.9 1.1-2.8 2.5.1 1.4-.7.8-.6 2 0 1.2-1.6 1.3-1.5 2 .1.7-1.3 0-1.6-.2-.4-.2-4.6 1-5.1 1.1-.6.1-1.6-1.2-2.5-1.2-.8 0-1.2-1.2-1.3-2.2-.1-1-1.6-1.9-2.3-2.9-.7-.9-.8-3-.8-4.3 0-1.3-.2-3.5.7-6.1.1-.3.2-.6.2-.9-.3-.2-.7-.4-.9-.3.2 0 .6.1.9.3.1-1.7-1.7-2-.6-2.8 1.2-.9 0-1.7.5-2.1.6-.4 1.6-.8 1.6-1.4 0-.6.5-.6 1.3-.5.8.1 2.2-1.3 2.1-1.8-.1-.5.1-.6 1.1-.4.9.2.8-1.1 1.4-.9.6.2 1.1.5 1.1.1s.6-.3 1.1.2c.4.6 1.7.7 1.8 0 .1-.7.8 0 1.5.7.6.7.9.5 1.8.5s.9-.2 1-.8c0-.6 1 1.3 1.9 1.4.9.1.2-.6-.5-1.1-.7-.5.1-.8-.4-1.2-.6-.4.7-1 1.9-1s1.1.3 1.6-.3c.4-.7.9 0 .9.6s1.9-.3 2.9-.3 1.9.9 2 1.5c.1.6.8.9 1.5.2.7-.6 1.4-1.4 2-.7.7.7 1.4 1.6 2.2 2.4.8.8-.4 1.8 0 2.5.4.6 0 1.5.9 2.2 1 .7.1 2.1.9 2.3.8.2 1.4 1.4 1.5 1.9.1.5 1.6 1.1 1.7.3.1-.8.9-1.8 1-2.6.1-.8-.6-3.5-1.2-4.4-.6-.9.1-1.1-.6-2.1-.8-1-1.3-2.8-1.2-4.3 0-1.5 1.7-3.8 2.6-4.6.8-.7 1.7-.3 1.9-1.1.2-.8 1.2-1.7 1.8-1.7.6 0 1.2.1 1.3-.5.1-.6 1.1-1.4 2.3-1.6 1.3-.2.5-.9.2-1.5s.3-1.2.5-.8c.2.4 1 .4 1.5.1.5-.3 1.6-1.3.5-1.3s-1.3-.5-.7-.7c.6-.2.1-1.4-.8-1.5-.9-.1-.6-.5 0-1.1.5-.5-.8-1.4-1.4-1.8-.6-.4.4-.7.9-.8.5-.1.1-2.3.3-2.9.2-.5 1.1-.5.7 0-.3.5-.8 1.4-.2 2.1.6.7.8 1.5.6 2.6-.2 1.1.2.8 1-.6.7-1.5.8-2.7.3-2.9-.5-.1-.4-1.6.1-.9.5.7.7.8 1.6-.1.8-.9 1.7-2.4 1.2-2.7-.5-.3.2-.7 1.2-.6 1 0 3.1-.6 3.2-.9.5-.9-3.3.4-3.3-.1s2.4-1.1 3.5-1.1.6-1.6 1.1-.9c.5.6 1.2.5 1.8.1.6-.4.1-1.5-.6-1.7-.7-.2.5-.7.3-1.1-.2-.4.5-2.2 1.4-2.4.9-.2.5-.8 1.3-.8s.9-.9 1.6-1.6c.7-.7 1.7 1.1 2.7.1.4-.4 1-.8 1.6-1.2.9-.6 1.8-1 2.3-1 .9 0 2.2-1.1 2.6-1.8.4-.7.9.7.1.9-.8.2.6.8 2 .8s-.6.5-1.6.4c-1 0-1.5.1-2.8 1.5-1.4 1.4-1 1.7-.2 2.4s1.8.4 2.9-.5c1.1-.9 1-1.8 2.1-1.8s3.8-1 5-1.4c1.2-.4.4-.6.4-1.1 0-.5 2.1-.5 2.9-1.1.8-.5-.1-1-.8-.9-.7.1-.1-1 0-1.5s-1.5.2-1.5.9c0 .6-1.1.9-1.1 1.3 0 1.1-.1.5-.9.9s-3.8 0-3.9-.7c-.1-.7-2.3-1-2.4-1.9-.1-.9-1.2-1.2-.3-2.2.9-1-.1-1.5-1-.7-.8.8-1.3-.4-.2-.9 1.1-.4 3.2-.9 2.1-2.8s-7.8.6-9.5 1.6c-1.7 1-3.8 4.1-4.8 4.1-.9 0 1.6-1.7 2-2.3.4-.6-.1-1.3.4-1 .5.2 2-2.1 3.1-2.9 1-.8 2.1 0 2.3-.7.1-.6.6-1.1 1.6-1.9 1-.9 12.6-.7 13.7-.7 1.1 0 3.3-1.5 3.9-2.4.6-1 1.5-1 3-.9 1.6.1 2.3-1.3 3.1-1.8.8-.5.5-.8-.2-.9-.7-.1-1.3-.6-.6-.6.7 0 1-.4 1.3-1.3.3-.9-.2-.5-1.2-1.7-.9-1.2-1.4.4-2.3.3-.9-.1.6-1.3-.1-1.7-.8-.5-2.2-.1-3.4.8-1.2 1-1.1 0-2.1.9-1 1-1-.5-.5-.9s.8 0 1.3-.5c.4-.6.9 0 2-.7s2.1-.4 2.4-.9c.3-.5-.5-1.3-1.6-1-1.1.2-1.8-1.5-2.5-1s-.5-.7-1.3-.2c-.8.5-1.2-.1-1.6-1.1-.3-.9-2.4-2.4-3.7-2.8-1.3-.4-.4-1.1.2-.6.7.5 1.5-.5 1.7-1 .3-.5-.5-.9-.9-1-.4 0-.4-.7-.3-1.2.1-.5-1.4-1.1-1.4-1.6s-.9-.8-.8-1.3c0-.4-.8-1.1-.8-1.6 0-.6-1.5-1.7-1.5-2.4s-.8-1.2-1.1-2c-.3-.8-.7-.4-1 .7-.3 1.2-1.3 1.1-1 1.5.6.8.1.8-.3 1.3s.3 1.2-.4 1.2-.4 1.5-.8.8-1.3-.5-1.3.2-1.6 1.3-2.2 1.3c-.6 0-.6-1.4-1.2-1-.5.4-.4-1.1-1.3-1.1-.8 0-1.4 0-1.2-.8.2-.7-1.4-1.1-.9-1.5.5-.4-.1-1.2-.2-2.5s.7-1.4.7-1.8c0-.5-.6-.5-1.2-.1s-.6-.5-1.2-.5-2.5 0-2.6-.9c-.1-.9-.7-.4-1-1.3-.3-.8-1.1-.2-1.1-.8 0-.6-.3-.8-.9-.9-.6 0-.8-.7-1.6-.8-.8-.1-1.7.5-2.2.7-.4.2-1.6-.7-2-.3-.4.3-.5-.2-1.7-.6-1.2-.3-2.8-.4-2.9 0-.1.4-1.1.6-.9 1.6.1 1 1.2.8 1.4 1.5.2.7-.5.4-.5 1.1 0 .6-.7.6-.7 1s.4.3.7 1.2c.2.9.7.8.9 2 .1 1.2-.4.9-.9 1.1-.5.1 0 .7-.6 1.5-.7.8-1.3 1.6-.7 2.1.5.5 2.5 1.3 3.3 2.6.8 1.3.7 3.3.5 4.8-.2 1.5-1.9 1.8-3.1 3.1-1.2 1.3-2.5 1.1-3.1 1.1-.6 0-.2 1.2.6 2.1.8.9.1 1.2.6 2.2.4 1 0 1.7.6 2.6.6.9.2 1.2-.5 1.8-.7.6.3.3.3 1.1s-.3.3-1-.1c-.6-.4-1.2.8-1.2 1.4 0 .5-1.5-.7-1.8-.7-.3 0 .1-.8-.8-1.5s-1.6-.8-1.6-1.5-1.5-1.2-1.5-1.9c0-.8.2-2.8-.1-3.3-.3-.6 0-1.2.2-1.7.3-.5-.3-1.4-1.2-1.4-.9 0-2.1-.3-3.3-.2-1.2.1-1.9-.1-2.3-.4-.4-.3-1.5-1.1-3-1.5-1.5-.4-2.2-1.2-2.3-1.6-.1-.4-1.6-.8-2-1.2-.3-.4-1.8-.7-2.4-.6-.6.1-2-1.2-2.9-1.2-.9 0-2.9.9-3.3 1-.3 0 0-.7.3-1.1.2-.3-.7-1.8-1-2.8-.2-1-.6-2-1.6-1.9-1 .1-2.1-.4-2.4-.6-.3-.2-.3-3-.1-4.1.2-1.2 1.5-2.9 1.5-3.6 0-.7.8-1.1 1.6-1.3.7-.2.1-1.6.9-1.7.7-.1.8-.4.9-1 .1-.6 1-.2.5-.7-.5-.5-.1-.6 1-.6s2.8-.4 2.5-1.5c-.2-1.1-3.2-.3-3.2-1.2 0-.9-3.7-1-3.4-1.5.2-.5 3.7.4 5 .9 1.3.5 1.6.4 2.6.4s.3-1.4.5-1.9 2.1.8 3.3.5c1.1-.3 2.2-2.6 3.1-3.2.9-.6.1-1.2-1.7-1.1-1.8.1-2.8-.5-3.8-1.3-1-.7-.9-1.3.1-1.2 1 .1 3.4 2.1 4.4 2.1.9 0 2.5-1.8 3.3-2.4.8-.6-.7-.8-1.3-1.3-.5-.4.9-.7 1.7-.7.8 0 1.1.7 1.4 1 .3.3 1.6-.2 2.3-.2.7 0-.1-1.1-1.2-1.6-1.1-.4 0-1.3.4-.6.3.7 1.1.5 1.5 1.3.6 1.1.9.4 1.9 0 1-.3 1.5-.9 2-1.5s.6.1 1.3-.8c.6-.9-.3-1.8-1.1-2.4-.8-.6 0-1.2-.7-1.6-.8-.4-.9-1.1 0-.9 1 .2 1.7-.1 2.2-.8.4-.7-1.5-.8-.6-1.3s.1-1-.7-1c-.9 0-1.6-.4-1.7-1.2 0-.7-1.6-.2-2.5-.7-.9-.4-3-.3-3.4-.3-.5 0-.5 2 .2 2.1.7 0 1.3.8.7 1.1-.6.2.1 1-.4 1s-1.3-.3-1.4 1c-.1 1.3-.2 1.7-1.1 2.2-.8.4-.2-1.4-1-1.4s-.9 1.6-.3 1.7c.6.1.7.6.8 1.4.1.7-1.1.2-1.6 1.1-.5.9-.5-.4-1.2-1s-1.5-1.6-1.5-2.3c0-.6.4-.9.9-1 .5-.1 0-.6 0-1.5s-.7-.6-1.5-1.5-1.6-.9-2-.5c-.4.4-.1 1.3-.8 1.6-.7.3-.4 1.6-1 1.7-.6.1-.2-2.4-.7-2.6-.5-.2-.4-.8.3-.9.7-.1 1.2-.9.5-.9-.6 0-1.7-.7-2.2-.9-.4-.2-1.2.8-1.6.4-.5-.4 0-1.4.1-1.9 0-.5.8.2 1.3-.4.5-.7-1.4-.7-1.4-1.4s-1.5-.9-1.9-1.2c-.5-.2.3-1.5.1-1.9-.2-.5-2-2.1-2.8-1.9-.8.1-1-1-.5-1 .4 0 .8-.2 1.6-1.2.8-.9.9-1.2.3-1.4-.6-.2-.9-.8.1-.7 1 0 2.8.7 3.4.3.6-.4 2.4-3.3 3.2-4.3.7-1-.5-1.1-2.3-1-1.7.1-2.1-.7-3.6-.8-1.5-.1-4.2.3-4.6.7-.4.4.7.8.6 1.3-.1.5-1-.3-1.4-.1-.4.2.1.8 0 2.5s.3 1.8.8 2.4c.5.6.4 1.5.4 2.5 0 1.1-1 1-1.4 1.3-.3.2.9.6.7 1.3-.2.7-1.2-.4-1.8-.2-.6.2-1.1 1.8-.4 2.4.6.5.9.4.4 1.1-.5.6-1 1.6.1 2.5 1.2.9 3.3.8 4.4 1.6 1.1.7-.5.3 0 1.1.4.8-.7 1.1-.7 1.7 0 .6.5.3 1.1-.8.6-1.1 1 .3 1 1.2 0 .9-.9.4-1.5 1.3s-1.2 1.1-2.1.9c-.9-.2-.4 1.3 0 2.1s-.1 1.1-1.2.8c-1.1-.3-1.7-1-1.2-1.8s.9-1.8.3-1.7c-.6.1-2.1 0-2.5-.7-.4-.7.3-.4 1.6-.2 1.3.1.2-.9 1.2-.9s1.7.5 2.5-.2-.5-2.1-1.2-1.9c-.7.2-1.7.5-1.7-.1s1.2-.2 1.8-.3c.6-.1-.3-1-1.3-.8-1 .2-1.7.3-2.4-.5-.8-.8-2.2-1.3-2.5.6-.3 1.9-1.7.9-2.2 1.5-.5.6.6 1.1 1.9 1.1 1.3 0 2.3 1.3 1.6 1.3-.6 0-.3.9-1 .6-.7-.3-1.4 0-.9.6.5.6-.2.8-.1 1.4 0 .6-1 0-2 0-1-.1-2.9.2-4.3.5s-2.9-.2-3.4-.8c-.6-.6-1.4-.5-2.3-.5-1 0-.7-.9-1.9-1-1.3 0-1-1.1-1.1-1.7-.1-.6-2.7-.4-3.6.1-.9.6-2.7.3-3.2 1.4-.5 1.1.4.9 1 .9.7 0 .7-.9 2-.7 1.4.2 2.3-1.4 2.9-.8.6.6-2.3 1.7-3.6 1.9-1.3.2-1 1.2.2 3s-.5.8-.5 1.6c0 .9-2.3-.3-1.4-.6.9-.3.5-1.2-.2-1.8-.7-.6-1.2 0-1.1-.6.1-.6-.8 0-1.5-.5s-1-1-1.9-.5c-.9.5-2 .3-4 .7-2 .3-5.8.2-6.5-.4-.7-.7 1.7-1.9 2.5-1.7.7.2.3-.8-.8-1.7-1.1-.9-3.6-1.4-3.5-.9 0 .5-1.4 0-3.2-.3-1.8-.3-2-1-3.2-1-1.1 0-2.9-.4-4.3-1.5s-4.6-.8-5 .2c-.4 1-1.5.9-2.5.9-1.1 0 .5-1.2.1-1.4-.5-.3 0-1.6-.7-1.7-.8-.1-1.5 3.2-3 3.1-1.5-.1-2.1-3.5-3.3-4.4-1.2-.9-2.3-.9-1.3.4 1 1.3-.9.4-.8 1.3.1.9-1.6 1.9-1.6 1.4s-1-1-2.1.3c-1.2 1.4-2 1.2-2.1.7-.1-.5-3.5 1.3-3.4 1.8.1.6-.5 1-1.5 1-.9 0-.2-.8.5-1.2.8-.4 3.1-2.2 4.2-2.4 1.2-.2 3.4-1.1 3.4-1.6s-1.1-.1-1.9-.2c-.8-.1-2.1.7-3.4 1.3-1.3.6-2.8.4-2.4 1.2.4.8-1.2-.1-1.6.4-.3.5-1 0-.5-.3s-1.2-.8-1.2-.5c0 .3-.3.8-1.5.8s-2.3.8-1.6 1.4c.8.6 1.3.9.9 1.3s-1.6-1-3.3-.9c-1.7.1-5.1-1.9-5.1-2.4 0-.4-2.4-.1-4-.3-.4 0-.7-.1-1-.2-1.4-.5-3.5-1.5-4.6-1.3-1.1.2-3.3.5-4.1.1-.8-.4-1.8-.7-3.4-.5-1.6.2-2.6-.9-4.7-1.4-2-.5-4.9.1-5.6.4-.7.2-.5-.7-1.4-.6-.9.1-.2-.4-.7-1.1-.5-.7-2.9 0-3.8 0-.9.1-1.1-.4-1.1-.9 0-.4-.8-.3-1.1.3-.3.6-1.3.7-1.7.3-.4-.4.8-.5.9-1 0-.4-1.3-.7-1.7-.8-.5-.1-1.3.5-2.3 1.4-1 .9-2.5.8-3.4.7-.9-.1-2.1.1-2 .6 0 .5 1.2.5.5 1.2s-.9-.9-1.6-.2c-.7.7-2.7.7-3.2.6-.5-.1-2.1 1.6-2.6 2.1s.4.9-.9 2.3-4.8 1.1-5.5 1.1c-.7 0-.2.8-.6 1.4-.4.5.4 1 2.4 1.6 2 .5 3.3 3.2 3.6 3.8.2.6 2.7 0 3.7.1s-.1 1.5.7 1.9c.8.4 2.1-.2 2.3.5.2.7-1.7 0-2.6.7-1 .7-1.5 1.1-1.8.5-.4-.5-2-.2-2.8-.1-.8.1 0-1 0-1.5s-1.1-.8-2.7.1-1 .6-1.2 1.3c-.2.7-.9-.4-1.9.2-1 .6-2.7 1.1-3 1.7-.3.6 2.2 1.1 3.2 1.3 1 .2-1.2.8-.4 1.1.8.2.4 1 1.6 1.6 1.2.6 3.9 0 4.7 0 .7 0 1.4.9 2 .2.6-.6 2.8-2.4 3.9-1.4s-1.2.9-.6 1.5 1.3 2.1.2 2.9c-1.1.8-2.1.2-2.7.2-.6 0-.2 1.1-1.2 1.8-.9.7-1.6-.8-2.8-.8-1.2 0-.9 1.5-.9 2.2 0 .7-1.7-.1-2.2 1.6-.4 1.7-2.3.2-1.1 1.9 1.2 1.7 1 .6 2 1.3 1 .7-1.1 1.9-.1 2.1 1 .2 2 1.9 2.7 2.6.7.6 1.6-.3 2.6-.4 1 0 .5-1.5 1.1-.9.6.5 1.4 2.1.9 2.5-.5.4-.1 1.6-.2 2.2-.1.6 2.2.4 2.4-.3.1-.7 2-.9 3 .2s1.4 1.3 1.4.4.9-1.8.9-1.1.9.9 2.4.2.8 0 0 1c-1.1 1.3 0 3.3-.8 3.5-.8.2-1.4 2.2-2.7 2.3-1.3.1-3.4 2.5-3.7 2.9-.3.4-3-.8-3.4.3-.4 1.1-2 1.9-1.6 2.4.3.3 2.5-.8 2.6-1.4.1-.6.4-.5.8 0 .4.4 1.4-.2 1.8-.6.4-.4 1.2-.2 1.6-.2.4 0 .6-.5 1.9-.8 1.3-.2 1-.6 1.3-1.3.3-.7 3.4-2.1 4-2.3.6-.1.2-1.1.9-1.2.6 0 1.6-.8 2.4-1.5.8-.7 1-.4 1.7-.6.6-.2.1-1.5.8-1.6.6-.1 1.1-.6 1.1-1.1 0-.5-1.6-.5-1.7-.9-.1-.3 1.3-1.6 1.8-1.6s1.4-.5 1.5-1.3c0-.8.8-.9 1.5-1.6.6-.7.5-1.3 1.1-1.3.6 0 1.2-.9 1.9-1.3s0 .5 1.3.5 1 1.3 0 .8c-1-.4-1.4-.4-2.3.4-.9.8-.2 1.1-.9 2-.7.9-.7 1.5.1 1.6.9.1 0 .7-.8 1-.8.2-.2.7.9.7s2.8-1.6 4.3-2.4c1.6-.8 2.7 0 3.2-.1.4-.1-.5-.9 0-1.1.5-.2-.6-.4-1-1.3-.3-.9.5-.3.7-1.1.2-.7.7-.4 1.2-.1.5.3 1.2-.3 1.6.6.4.9.9-.2 1.7.4.8.6-.1.5-1 .7-.8.2-.4 1.3.2.8.6-.5 1.2-.9 1.7-.3.6.5.8.3 1.3-.2s.5 0 .5.4 1 .5 2.5.8c1.5.2 4.1-.1 4.8-.1.7 0 .4 1 1.9 1.3 1.5.3 1.9-1.5 2.7-.9.8.6 0 .9-.4 1.4-.4.5.5.5 1.1.8.6.2 1.9.6 2.6 1.3.6.6 1 1.3 2.6 2.1s0-1.9 1.3-1.1c1.2.9.8 0 1.7.9 1 .9.6-.4.2-1.8-.4-1.5.4-.5.9.2.4.7.4 2 .1 2.9-.3.9-1.7.1-1.6-.3.1-.5-1.5-.3-1.5.4s1 2 1.8 2.1c.8.1.2 1.4.7 1.5.7.2.6 1.5 1 1.3.4-.2.2-1.7-.2-2.4s-.2-1.7.3-1.5c.6.2 0 1.2.3 1.6.3.3.6-.3 1.3-.7.7-.4-.3-1.5 0-2.1.2-.6 1 .5 1.3 1.5.3 1-.7 1-.7 1.5s-.9.3-1.2.6c-.3.3-.1 2.2.2 2.3.4 0 .6-1.6.9-.8.2.8 1.2-1.1 1.4-.3.2.8 1.4 1.7 1.8 1.5.4-.2-.2-1-.9-1.1-.7 0-.6-1.2 0-1.2s1.7 1.6 1.7 2.2c0 .6-.6.5-1.1 1.1-.5.6-1.3-1-1.9-.9-.6 0 0 1 .3 1.7s-.8 1.6 0 2.1.6-.3.7-.7c.1-.4.8.1 1.2.4.4.3.5-.8.5-1.2 0-.4.7-.2 1.1.4.4.6.4-.6 1-.5.6.1.2 1 .2 1.6s1-.4.9.1v.2c0 .4.4.7.9 1.1.6.5-1.1.5-.6.9.5.4-.1 1.1.4 1.6s1.4.3 1.9-.1.9.5.5 1.3c-.4.7.5 1.3.9.7.4-.5 1.4.9 1.8 1.1.4.2.9 1 .1 1-.7 0-.6 1.3-.1 1.3s.5.7.5 1.2c0 .4 1.7 1.1 2.3.9.6-.2 1.2.4 1.5.9.3.5 1.5.9 1.9.6.4-.3.7.6.8 1.3.1.7 1.1.3 1.6.2.6 0 .9.8 1.3.6.9-.3 1.1 1.2 1.7 2 .1.1.1.2.2.3.7.8.1 1.4.4 2.3.2.9 0 2.2-.7 2.2s-.8-.8-.3-1.1c.5-.3.2-1.4-.3-1.4-.3 0-.4-.4-.4-.8 0-.3.1-.6.2-.9.3-.6-.7-.2-1.4-.9-.6-.7-2.3-.5-2.5-1.2-.2-.6-1.7-2.9-2.6-2.9-.8 0-1.9.1-2.9-.6s-1.6-.8-2.3-.3c-.7.4.7.5.7 1s.4.8 1 .7c.6-.1.9 1.1 1.5 1.2.6 0 .8 1 1.5 1s.8.8 1.2 1.2c.3.4 1.1 0 1.1.5 0 .4.8.7 1 1.2v.2c0 .6.3 1.9 1.1 2.9s.2 1.7 1 2c.7.4.7.8 0 .7-.7-.1-.2.5-.4 2s-.2 4.5-.3 5.4c-.1.9-1.2 2.4-.6 3.4s1.1 2.3.7 3.5c-.3 1.2-.3 1.9.2 2.9.5.9.1 2.5.7 2.9.6.3 1.1 1 1.7 1.9.5.9 1 .3 1.1 1.2.1.9.1 1 .9 1.4.8.3.3 1.2.3 1.7s1 1.4 2.3 2.5c1.3 1.1.2 2 1.1 2 .9 0 1.8.5 2.7 1.1.9.6 1.2.2 1.8.4.6.1 1.8 1.5 2 2.4.1.4.3.9.5 1.4.3.6.6 1.2 1.2 1.8 1 1.3 1.7 3.5 1.8 4.3.1.8 1.5 1.4 2.7 2.2 1.2.8 1.2 2.5 1.1 2.9-.1.4-1.7-.3-1.7.1-.1.4 1.9 2.1 2.7 2 .8-.1 1.2.4 2.4 1.5s1.1 2.3.6 2.7c-.5.4 1 1.2 2.5 2.2 1.6 1 2.2 2.3 2.3 2.8.1.5.8 0 1.1-.7.2-.7-.5-.9-.5-1.7 0-.8-1.3-.7-1.8-.8-.6-.1 0-1.4-.5-1.9-.6-.6-1.1-2-1.4-3.1-.3-1.1-1.8-2.1-2.4-3.3-.6-1.2-1.3-2.1-1.7-2.4-.4-.3.6-.7.2-1.2-.4-.4-1-.4-1.7-.7-.7-.3-1.2-.9-1.2-1.7 0-.8-.5-2.6-.7-3.3-.2-.6.5-.5.8-.2.2.3.4.6.8.4.3-.2.9 0 1.2.5.2.5 1.1 0 1.5.3.4.2-.9.5.4 2.8 1.3 2.2.4 1 .4 2.5s.8.8 1 .6c.2-.2.9.5 1.6 1.3.6.8 1.8.8 1.8 1.3 0 .4.2 1.3 1.1 1.5.8.1 1 1.1 1.5 1.2.5.1.6.7.3 1.3-.3.6 0 1.2 1.4 1.7s.7.6 1.8 1.7c1.1 1 4.1 4.3 4.7 5.2.6.9.8 1.7 1.1 2.4.2.7-.5 1-.1 1.6.4.6-.7.3-.7.8 0 .4.7 2.6 1.7 2.7 1.1.1 2.3 1.4 3.2 2.1.9.7 2.2.6 3.5 1.1 1.3.5 2.4 1.7 4.3 2.2 1.9.5 3.7 1.4 5 2.1 1.2.8 2.7.4 4.4-.2 1.7-.7 3 .2 4 .6.5.2 1.4 1 2.4 1.8 1 .9 1.9 1.8 2.4 2.1.9.6 2.4 0 3.1.5l.1.1c.7.6 3.5 1.5 4.3 1.5.4 0 .5-.2.7-.3.2-.2.3-.3.7 0 .3.2.2.5.2.8 0 .3-.1.6.3.8.8.4 1.8 2.1 2.7 2.6.4.2.6.6.7.9.1.4.1.7-.2.9-.4.3-.5 1.5.6 1.9 1.1.4.7-.2 1.3-.2.5 0 .5.8 1 .8s1.6.6 1.6 1.4c0 .8.4 1.1 1.3 1.1h.5c1 .1 2.2.5 2.8 1.3.7.9 1.2.3 1.6 1.1.4.8 1.5 0 1.7-.4.2-.5-.5-.7-.6-1.2-.1-.5 1-.3 1.2-1.1.2-.7 1.7-1.1 2.4-.8.7.3 1.3.8.6 1.5-.5.5.5 1.5 1.3 2.3l.7.7c.7.7.2 1.3.4 1.7.2.4.4 1 0 1.2-.4.2 0 2.9.4 3.4s0 .9-.5 1.9c-.5 1-.9 1.4-1.8 1.5-.9 0-.8 1.4-1.1 1.4-.2 0-.4.5-.4.9v.3c0 .4-.7.7-1.5.8-.8 0-.7 1-.7 1.6 0 .6-.7.6-1 1.3-.3.7.1.8-.6 1.2-.7.3-.9.9-.5 1.5s0 1.1-.1 1.5c-.1.3.6.5 1.3 1.1.7.6.8-.2 1.1.2.3.5-.2 1.4-1 1.4h-.2c-.7.1-1.5 1.1-1.8 1.9-.4.8.7 2.4.8 3 .1.6-.6 0-.7.6-.1.5 1.6 1.3 2.4 1.9.8.6 1.5 2.2 2.2 3 .7.8.8 1.5 1.6 3.3.8 1.9 2.3 5.1 3.4 6.5 1.1 1.4 1.6 2.4 1.3 2.8-.2.4 0 1.5.8 2s1.4 1.4 3.4 2.4 5.8 3 6.3 3.9c.5.9 2.3 1.8 2.6 2 .1.1.1.2.1.4 0 .5-.2 1.4 0 2 .3.7.4 4.3.1 5.6-.3 1.4-.6 2.5-.9 3.3-.3.8.7.9.3 1.3-.4.4-.2 1.4-.2 2.9 0 1.6-.9 4.2-1 5 0 .8-.7 1.4-.6 2.3.1.9-.4 1.5-1 1.9-.5.4.9 1.8.8 2.6 0 .8-1.1 1.1-.8 2.4.3 1.6 0 4.3 0 4.8s-.6.5-.5 1.5c.1 1-.6 1.3-.8 2.7-.1 1.5-1.3 3.5-1.7 4.7-.4 1.1-.4 1.7-1 1.7s-.7.6-.3 1.6c.4 1-.3 1.8.3 2.8.6 1 .4 1.3.1 2.2-.3.9-.7 1-.7 1.8 0 .9-.7 1.6-.3 2.6.4 1 .3 1.3-.2 1.3s-.7.8-.9 2.4c-.2 1.6-.1 1.6 1 1.5 1.2-.1.2-3.9 1-3.9.7 0 .1-.6.8-.8.7-.2.1.7.6.8.5.1.8.5.1 1-.7.4.1 1.3-.2 1.8-.3.5-.8 1.1-.5 1.7.3.6-.3.6-.4 1.4 0 .8.4.9.1 1.1-.3.2.4.8 0 .9-.5.1-.2.7.1 1.3.3.6-.6.2-1.1.6-.5.4.5.9.2 1.5-.3.5-1.1-.3-1.4-.6-.3-.3.5-.9 1-1.5.4-.6-.4-1.9-1.2-1.6-.7.3.7 1.1.7 1.7 0 .6-1.2-.1-1.2.5 0 .7-.8.4-1.3.9-.4.5.6.9.1 1.1-.5.1-1.3.8-1.4 1.3 0 .5.5.6.5.1s.8-.6 1 0c.2.6.6 0 1.3.1.7.1.6 1.2.2 1.1-.4 0-.8.6-.7 1.4.1.7 1.5 0 2 .2.6.2.4 1.2 0 .9-.3-.3-1.1-.9-1.5-.3-.3.6-.9.3-1.3.1-.4-.2-2 .8-1.5 1.2.5.4.5 1 .8 1 .3 0 .9-.3 1.1-.7.2-.4.9-.8.9.1s-.9.4-1.1.9c-.2.5-.6.9-1.2 1.3s0 1.2.5.9c.5-.2-.1.6.5.7.6.1.8-.4.7-.9-.1-.5.3-1.6.9-1 .6.5-.3 1.1-.3 1.6s-.3 1.1-.3 1.6-.6.2-.6.8c0 .6-1.4.2-.7.6.6.4-.4.9 0 1.3.3.4.6-.5 1.2-.3.5.2.4.3 1.1 0 .7-.3 1.1.5.4.7-.6.2-1.3.9-1 1 .3.1 1.1-.5 1.3.1.2.6.7.4.7-.2 0-.7 1.2-.1 1.4.5.2.6-1.2.9-1.9.8-.7-.1-1.1.7-.6 1.3.5.6 1.1 0 1.6-.5s3.2-.4 3.3.2c.2.6-1.2.1-1.4.4-.1.3-1.2.6-1.4.2-.1-.4-1.2.1-1.2.8 0 .6-.8.6 0 .9.9.2.6-.9 2-.8 1.4.1 2.1-1.3 2.5-.5.4.8-1.1 1.4-1.6.9-.5-.5-1.2.3-1.1 1.1 0 .7-1.6-.2-2.3-.3-.8-.1-.4.7.2 1.5.7.7 1.1-.1 1.9.4.8.5.8 1.1 1.4.6.6-.5 0-.5-.4-.7-.4-.2 0-1.1.9-.6.9.4 2-.4 1.7-1.6-.3-1.2.8-1.7 1.9-2.1 1.1-.4.5.7-.3 1.1-.8.3-1 .6-.3 1.3.6.7 1.5-.4 2 .1s-1 .4-1.2 1c-.2.5.9 1.2.1 1.6-.8.4-.4-1.6-.9-1.8-.5-.2-.9.2-.4 1.4.5 1.1-.6.1-1.1-.4-.5-.5-1.2.2-.6.8.6.6-1.1 0-1.1.9s.7.1 1.6.3c.9.2.5 1.5 1.1 1.9.6.5.1-1.6.8-1.7.7-.1 0 1.6 1.6 2 1.5.5.1-.3.8-.8.7-.5 1.6 1.5 2.3 1.6.7.2.2-.9-.3-1.5s.5-.2 1.3 0c.7.2 1.3.3 1.5-.2.1-.2.2-.2.4-.1.3.1.7.3 1 0 .5-.5 1.9-.2 2.7-.7.8-.5-.2-.6-1.5-.7-1.2 0-3.6-2.3-4.3-2.9-.7-.6-.2-1.2-1.1-1-.9.1-.3-.7.2-.9.4-.2-.2-1.1-.8-1.2h-.2c-.6 0-2 .1-1.8-.8 0-.2.1-.3.3-.3.6-.2 1.8.6 2.1.3.3-.3-1.2-1.6-1.2-2 0-.4-.2-1.2-.2-1.7s-.2-1.6.4-2c.7-.5.7-1 1.2-.9.4.1 1.3-.4 1.4-1.6 0-1.2.6-1.6 1.6-2.4 1.1-.9 2.8-1.7 2.6-2.1-.2-.4.4-1.6.4-2.1s-1.6-.4-2.2-.6c-.5-.2-2.5-1.6-1.5-3.3 1-1.8 3-2 3.6-2 .6 0 0-.9.5-1.2.5-.3.6-.8.6-1.5 0-.8 0-2.1.9-2.2.9-.1 1.1-.6.6-.7-.5-.1-.8-.8.1-.9.9-.1.6.7 1.2.7s1.7-1.1.9-1.7c-.8-.6-1.1.3-1.5.4-.4.1-.8-.6-1.2-.6-.4 0-.1-1.2-.3-1.6-.2-.4-.5-1.5-.1-2s2 .8 3.5.9c1.5.1 2.5-.7 2.5-1.3 0-.5-.7-1.5.2-2.1.9-.6.1-.8-.1-1.6s.4-1.3.8-.9 3.3.1 5.6-.3c2.4-.5 4-1.4 4.2-2 .1-.7 1.7-2.3 2-2.9.3-.6 0-1.3-.9-1.5-1-.1-.9-1.3-.4-1.9.5-.6-.3-1.2-1.2-1.3-.9-.1-2.4-.7-1.6-1.5.4-.4.6-.3.8-.1.2.2.4.5.9.4.9-.1 1.7.2 2.8.7 1.1.5.7-.1 1.7 0s2.2.2 3.3-.4c.8-.5 1.1-1.3 1.7-2 .3-.4.6-.7 1-1 1.4-1 1-1.6 1.6-2.7.6-1.2.1-1.7 1.2-2.7 1.1-1-.2-1.7 1.2-2.3 1.4-.6 1.2.6 0 2-1.1 1.4-1.3 1.8.1.7 1.5-1.1 2-2.6 2.8-4.3.8-1.7 1.5-2.2 2.2-2.3.7-.1.7-1.9.6-3.2-.1-1.3-.5-2.4 0-3.3.5-.8 0-1.6.7-1.6s1.7-1 2.8-2.1c1.1-1.1 1.7-1.2 2.9-1.3 1.1-.1.5-.5 1.2-.7.7-.2 1.2-.9 1.7-1.3s2.5 0 3.6 0c1.2 0 1.9.1 1.9-.6s.5-1.3 1.2-1.3 1-.2 1-1.2.3-1.6.9-2c.6-.4.7-1.4.9-2 .2-.6.8-.2.8-1.2 0-.9.3-1.9.3-2.7 0-.7.8-.6 1.1-1.2.3-.5-.3-1.2.2-2.7.5-1.5 0-2.9 0-4.3s0-2.8.5-3.2c.5-.4.2-.7-.1-.9-.4-.2 0-.7.4-.6.3.1.7.8 1.4.4.6-.4 1.2-2 1.7-3.4s1.4-1.3 2.1-1.6c.7-.3 2.1-1.9 3.1-4.3.9-2.4 0-4.7-.4-6.4-.3-1.3-.9-.9-1.8-.9zm-92.1-115.6c1.5.2 2.5-.9 3-.2l.1.1c.7 1.3-1.8 2-4.3 2.1-.7 0-1.3.1-1.7.2-1 .1-1.3.2-1.6-.5-.4-.9 2.9-1.9 4.5-1.7zm-3.4 3.4v.2c-.4.8-3.3 2.2-5 3.1-1.8 1-4.4.5-4.4-1s1.4-1.2 1.6-.5c.1.3.4.1.9-.2.7-.5 1.8-1.5 2.7-1.4 1.5.1 1.8 1 2.8.3 1-.7 1.2-1 1.4-.5zm-7-8.8c1.4.5 3.4-.6 4.1 1.1s2.3 2.9.8 3c-1.3.1-2.9-1.6-2.8-.7.1 1-.7.5-.7 1.9 0 1.5-1 3.5-1.6 3.4h-.1c-.6-.2.3-2.4-.8-2.8-1.2-.4-2.5 1.7-2.3.4.2-1.3 1.9-2.3.9-4-1.1-1.6-3-1.6-3.4-.4-.4 1.3-1.7.7-2.2 1.6-.5 1-1 3.1-.6 4.7s-.1 2.3-1.6 3.2c-1.5.9-2.2-1.3-1.7-4.2.4-1.9 1.5-3.8.5-3.8s1.3-2.3 3.3-2.8c2-.5 4.6-.3 4.6-.9 0-.1.1-.2.2-.2.6-.2 2.3.1 3.4.5zm-12.8-8c1.3 0 4.5.3 4.7 1.9.2 1.7 2.1.1 2.3 1.7.2 1.3 1.4 2.4 1.2 3.1 0 .1-.1.2-.3.3-.8.6-.6-.9-2-.9-1.5 0-2.9 1.4-4.1.8-1.2-.6-.6-1.4-1.6-1.4-1.1 0 .8-2-.8-1.2-1.6.9-3.9 3-4.9 2-1.1-1-2 .3-2.8-.5-.8-.8 2.7-2.9 4.4-2.8.4 0 .8-.2 1.1-.4 1-.8 1.8-2.6 2.8-2.6zm-21-14.1c.8 1 1.9 5 2.6 6.2.7 1.3.7 3.3-.2 3.4-1.1.1.1-2.8-1.8-3.9-2.3-1.3-3.3-3.6-3.3-4.9 0-1.1 1.9-1.7 2.7-.8zm-39.6-24.1c.2-.7.8-1.7 1.7-1.7 1 0 .9-1.3-.7-2-1.6-.8 2.3-1.3 3.2 0 .9 1.2 2.5 2.1 3.4 1.2.9-.9 5.9-3.4 5.9-2.2 0 1.2-3.7 1.9-5.2 3.2-1.5 1.3-1.4 1-2.7 1.2-1.3.2-.3 1.5-1.9 1.7-1.6.1-5.4.3-5.9-.6-.2-.4 2-.2 2.2-.8zm-15.9-13.5c.7-.1.2-.9 1.2-1.3s-.2-1 .1-1.4c.3-.4 2.4.4 2.4-.3 0-.8-2-1.4-2.7-1-.7.5-2.3 1.5-4.2.7-.6-.3 4.9-.8 5.8-1.7.9-.8 5.1-1.8 5.4-1 .3.8-2.2 1.3-1 2 1.2.7 3.2.2 3.7-.5s2.5-.6 1.2 1-1.7 1.8-3 1.6c-1.3-.2-2.1.4-1.5.9.7.5.7.8-.7 1.2-1.4.3-2.2 1.4-2.8 1.2-.5-.1 2.3-2.2 1.6-2.7-.7-.5-2.5.9-2.6 1.6 0 .7-1.2.7-2 .7-.6-.3-1.6-1-.9-1zm74.8 135.9s-.1 0 0 0c-.1 0 0 0 0 0zm-.2.3zm0-6.6zm-3.7 0h-.2.2zm0 0h1.7-1.7zm2.6 0zm-.5 0h-.2.2zm49 35.5s-.1 0-.1.1c0 0 .1 0 .1-.1zm.6-.2zm-1.2.5s-.1 0 0 0c-.1 0 0 0 0 0zm-2.9 28.5c-.1 0-.2-.1-.3-.1.1 0 .3.1.3.1zm-.3-.1c-.1 0-.2 0-.4-.1-.2 0-.4 0-.6-.1.4.1.7.1 1 .2zm-3.2-15.2c-.1 0-.2.1-.3.2.1-.1.2-.2.3-.2zm.3-.1c-.1 0-.1 0-.2.1 0-.1.1-.1.2-.1zm1.2.1c-.4 0-.8-.2-1.2-.2.4 0 .8.3 1.2.2zm.8 15.1h-1 1zm.4 15.1c.1.1.1.2.2.3-.1-.1-.2-.2-.2-.3zm.6.7c-.2-.1-.3-.2-.4-.3.1.1.2.2.4.3zm3.2 11.4zm.7-.2zm-.3.1c-.1.1-.1.1 0 0-.1.1-.1.1 0 0zm-1.2-55.3zm31-.8h.5c-.2.1-.3 0-.5 0zm-8.5 48.4zm.4-.8s0 .1 0 0c0 .1 0 0 0 0zm-.9 1.2h-.2.2zm7.9 13.4v-.2c.1 0 0 .1 0 .2zm.1-.5c0-.1 0-.2.1-.3-.1.1-.1.2-.1.3zm.1-.6c0-.2.1-.4.1-.6 0 .2 0 .4-.1.6zm.2-.9c0-.1 0-.3.1-.4-.1.2-.1.3-.1.4zm.1-.6v-.3.3zm0-.5v-.3.3zm-.3-.7zm-3.7-57.8h.1-.1zm-.4 0h.2-.2zm-1.3-.3h.2-.2zm.4.1c.1 0 .2 0 .2.1 0-.1-.1-.1-.2-.1zm-.7 0h.1c-.1-.1-.1-.1-.1 0zm-7.9-6.1c0-.1 0-.1 0 0 0-.1 0-.1 0 0zm.8-1.1h.3-.3zm-.2.1s.1 0 .1-.1c0 .1-.1.1-.1.1zm-.1.1c-.1.1-.1.1 0 0-.1.1-.1.1 0 0zm-.6 1c-.1.1-.1.1-.2.1.1-.1.1-.1.2-.1zm-4.1 59.7h-.2.2zm-.3 0h-.2.2zm-2.4-.2s0 .1 0 0c0 .1 0 0 0 0zm.3 0zm.4 0zm13.1 19.6l-.2.2c.1 0 .1-.1.2-.2zm.6-.7l-.6.6c.2-.1.4-.3.6-.6zm.4-.4l-.3.3.3-.3zm.5-.6l-.2.2c.1 0 .1-.1.2-.2zM257 475c.2 0 .4 0 .6-.1-.2.1-.4.1-.6.1zm-1.3-.5c.2.2.4.4.7.4-.4-.1-.7-.4-.9-.7 0 .2.1.3.2.3zm-4.5 1.1c-.1 0-.2 0-.3-.1h.1c.1 0 .2 0 .2.1zm-42.4 4.6s0-.1-.1-.1l.1.1zm.7 1s0-.1 0 0c0-.1 0 0 0 0zm-.1-.2zm-.1-.2s0-.1 0 0c0-.1 0 0 0 0zm-.2-.3l-.1-.1c0 .1.1.1.1.1zm.2 1.3c.1 0 .1-.1.1-.1l-.1.1zm.2-.5s.1 0 0 0c.1 0 0 0 0 0zm0 .2zm10.9 22.6c.1 0 .3-.1.4-.1-.1.1-.3.1-.4.1zm7 26.6zm.8-.6s.1 0 0 0c.1 0 0 0 0 0zm20.3 18.8c0 .1-.1.1-.1.2 0-.1 0-.1.1-.2zm-.3.4s0 .1-.1.1c.1 0 .1-.1.1-.1z"/><path class="st1" d="M211.7 434.5c.4-.5-2.6-2.4-4.1-2.4-1.5 0-6.2-3.3-10.6-4.3-4.4-1-8.2 2.2-7.8 2.7.6.8 2.7-1 3.8-1.7 1.1-.8 2 .4 2.1.9.1.5 1.5.8 3.7.9 2.2.1 2.5 1.9 4.7 2.4 2.1.5 0 1.4 1.1 1.7 1.1.4 6.7.3 7.1-.2zm-9 4.3c.4.7 4.1 1.7 4.5.8.4-.9-5-1.7-4.5-.8zm24.9.2c.9 1.4 3.4.5 3.6 0 .4-1-4.4-1.4-3.6 0zm16.8 167.6c.8.4 4-.9 3.6-1.7-.7-1.4-4.3 1.3-3.6 1.7zm-.3-2.7c-1.1-.2-3.6 2-2.5 2.5 1.1.6 3.5-2.3 2.5-2.5zm-69.9-124.4c-1 1.5 1 2.9 1.4 2.2.4-.8-.5-3.7-1.4-2.2zM261.3 294c.1-1-1.1-.4-1.7-1.6-.6-1.2-4-1.7-4.3-.8-.1.4-1.2 1-.3 1.9.8.9 1.4.5 2.4 1.4.9.9 3.8.1 3.9-.9zm30.8 318.6c.2.9 1 .5 1.9 1.2.9.8 1.6 2.2 2.5.9.8-1.4-4.5-2.6-4.4-2.1zM145 253.3c1.2-.8 3.3.5 2.9 1.4-.4.9-3.7-.2-3.5.6.1.3.5 1.5 2.8.8s4.3-.2 5.8 1.1c1.6 1.3 3 1.7 4.1.5 1.1-1.3-1.4-1.5-.9-2.4.5-1-1.6-1.6-2.6-1.6s-1.5-1.9-2.3-1.6c-.9.4-1.5 1.1-1.5-.2s-5-1.4-6.3-.9c-1.2.5.4 3.1 1.5 2.3zm.7 8.2c.8-1-3.1-4.1-3.3-2.6-.2 1.4 2.5 3.6 3.3 2.6zm12.6 2.5c-.1 1-2.3-.2-4.1-.9-1.7-.7-.7 1.4.7 2.5 1.4 1.2-.7.6-2.5-.7-1.8-1.3-1.7.9-.8 1.6.9.7-.2 1.6-1.4.1-1.2-1.6-1.7-3.2-3.6-3.3-1.8-.1-1 1.8-.3 2.7 1 1.3 1.9 1.6 3.5 2.4 1.6.9 4.1-.4 5.2-.1 1.2.3-1.3 1.7-.5 2.7.8 1 2.9.3 4.6.2 1.7-.1.9-1.1 1.8-1.7 1-.7-1-.6-.2-2.2.9-1.7-2.3-4.3-2.4-3.3zm0-15.3c.7-1.2-4.1-2.1-2.9-1.1.7.7 2.3 2.3 2.9 1.1zm-29.5 7.6c1 .4 1.9-.9 2.6-.3.7.6 3.7 1.1 3.7-.5s-3.8-1.7-4.8-1.2c-1 .6-5.4.8-4.2 1.7.9.7 1.8-.1 2.7.3zm34.8-7.7c1.4.7.6 1.7 2.1 2.3 1.6.7 6-.9 6.4.2.4 1.1-4.6 1.2-3.9 1.8s3.5 1.7 3.1 2.3c-.4.6 4.7 2.2 5.1 1.5.5-.8 1.8-.6 3.1-.1s1.4-3 2.2-2.4c.9.6.8-1.3 2.2-1.8 1.5-.6 3.6-.6 3.7-1.3.1-.5-.4-1.2-2.1-1-1.7.2-2.9-.5-2.1-1.5.8-1-1.9-1.3-1-2 1-.8-1.8-1.6-1.6-.4.3 1.2-1.7.1-2-1-.3-1.1-4.3-1.5-6.9-3.8-2.6-2.3-5.3-.8-3.8-.5 1.6.3 1.5 1.1.2 1-1.3-.1-3.5.1-1.5.9s-.2 1.1-1.8 1.1c-1.7 0-1.7 2.1.4 2.4 2.1.3.6 1.6-1.2 1.1-1.6-.4-2.2.5-.6 1.2zm-1.2 9.7c1.5 0 2.6-.2 3.9-.7 1.3-.5-.7-.5.2-1.6.9-1.2-2.1-1.3-2.3-.9-.2.4-4-2.3-4.6-1.5-.6.9 1.4 4.7 2.8 4.7zm-41.9 7.3c-1.4.1-1.3 1.5.3 1.5s2 .5-.2.4c-2.2-.1-3.2 1.8-1.7 1.5 1.6-.4 3.4-.4 2.2 0-1.2.4-4.3.7-3.9 1.3.3.4 1.6.3 2.8.8 1.3.5 2 .8 3-.3s2.2-2.1 1.7-.7c-.5 1.5 1.6.4 4.2.3 2.6-.1-.5 1.6-3.2 1.7-2.7.2-2.2 1.6-.1 2 2.1.5 6.7-1.4 7.8-2.4 1.1-1.1 2 .6 3.1-.2s3.1.1 5-.3c1.8-.4 2.1-3.9.8-4.5-1.4-.6-1.4.7-2.4.9-1.1.2-1.6-1.2-2.5-2-.9-.9-.3-2.5-1.6-2.3-1.3.2-4 2.2-2.3 2.4 1.7.2 1.1 1.1.2 1.5-.9.4 2 1.1 1.7 1.6-.4.6-4.9.1-5-.9-.2-1-3.7-2.7-5.1-2.3-1.5.4-.9-1.2-2.3-1.3-1.6-.1-1.1 1.2-2.5 1.3zm-18.7 19.2c1.7.4 1.9 3.5 3.1 3.5.8 0 .2-1 1.5-1s1-.7 2.1-.6c1.2.1 2.1-.3 2.1-1.6 0-1.4.9-1.8 2-2.1 1.2-.3.1-1.7 1.7-2.1 1.6-.4 6.2-2.3 7-2.9.8-.6-1-1.4-2.7-2.4-1.7-1.1-3.1-1.4-4.5-.5-1.4.9-.3-1-1.4-.5-1.1.5-4-.8-4.4-1.3-.4-.5-5.6 1.1-6.9 1.1-1.3 0 .1 1.4 1 2 .9.7-2.1 2.8-1.6 3.3.6.5-.6 1.7-1.9 3.3-1.2 1.5 1.1 1.4 2.9 1.8zm11.6-16c1.7.2 3.5-1.4 3.4-2.2-.1-.9-4.3 2.1-3.4 2.2zm-30.5 78.6c-1.7.9 2.5 5.4 3.3 4.8.6-.4-1-2.2-1-3.4 0-1.1-.5-2.3-2.3-1.4zm22.5-81.3c.7.3 0 1.7.8 1.3.8-.4 1-.5 1.6-.3 1 .4 1.3-.6 1.7-1.1.5-.5.3 1.7 1.6 1.7 1.1 0 .9-2.3 1.8-1.7 1 .7 1.3-.3 1.5-1 .2-.7.2-1.8 1.3-2 1.1-.2.2 1.1.7 1.9.7 1.3 1.9.1 2-.5.1-.6 1.8-.2 1.7-.9-.1-.7.5-.9 0-1.7-.5-.8.8-.6 1.4-1.2.6-.6-.8-.1-1.7-1-1-.9-1.4.3-1.4.9 0 .6-1.8.1-2.9-.3-1.1-.4-2.4 1.3-4 2-1.6.8-1.6 2.1-3.1 2-1.6.3-3.7 1.6-3 1.9zm20.1-7.5c.5-1.2-3.2-1-2.9-.6.7.9 2.5 1.8 2.9.6zm8.1-.4c1.3-.2.7-1.2-1.4-.9-2 .3-5.5.3-5.5 1.7 0 1.2.7 1.7 2.9 1.9 2.2.2 4.2-1.9 3.1-1.9-1 0-.4-.6.9-.8zm63.8 18.7c-.6 1.3 1.3 1.3 1.4 2.7.1 1.5 1.9 1.9 3.3 1.1 1.4-.9 5.2.3 5.2-.9 0-1.1-4.1-3-5.5-2.7-1.5.3-3.9-1.5-4.4-.2zm.8 38.4c.2-1-3.2-1.4-3-2.4.2-1.1-3.2-1.9-4.3-2.5-1.1-.6-2.7-.9-2.7-2 0-1.2-2.3-.3-2.4 1.5-.1 1.7-1.1 1.4-.6 3 .5 1.7-2.1 2-1.8 2.9.3.9 1.6-.1 2.7-.1 1.2 0-.3 1.6 1.2 1.7 1.2.1 3.2-1.3 3.7-2 .5-.8 1.5-1.1 2.8-.1 1.3.9 4.2 1 4.4 0zm-7 5.4c1.6 1 3.9-1.7 3.7-2.4-.2-.8-5.5 1.2-3.7 2.4z"/><path class="st1" d="M216.4 288.2c1-.1 2.1-.9 1.8-1.7-.3-.9-2.8-1-3.3.1s-2.5-1.2-2.5-2c0-.9-3.1-.1-2.7-1.6.4-1.5-3.6-1.8-4.7-1.8s-2.6.9-2.4 1.8c.2 1-1.2.6-1.4-.5-.2-1.1-2.8 1.2-3.6 1.2-.8 0 .5-2.8.1-3.7-.4-.9-1-1.2-1.6-2.6-.6-1.5-3.5-.9-4.3 0-.8.9-3.3.5-4.7 1.8-1.4 1.4.1 2.7.7 3.2s-2 1.3-1.2 2c.9.8 2.2.4 2.3 1.7.1 1.3-3.2-.4-3.7-1.5s.2-2-.5-2.8c-.7-.8-.1-1.7 1.2-3.1 1.3-1.4 2.2-1.2 2.2-1.9 0-.8-5.4-.8-8.6 2.1-3.2 2.9-2.2 6.8-2 7.6.2.8 3 .4 4.7.9 1.7.5.8 1.2-.5 1-1.3-.2-3.4-.6-3.3.3.1.9 2.7 2.5 4.3 2.1 1.6-.4 1.6-.4 2.2.5.7.9 2.5.6 4.4.7 1.8.1 4 .8 4.9.9.9.1 1.9-.5 2.2-1 .3-.5 3.9.8 5 .7 1.1-.1.4-1.1-.3-1.4-.7-.3-.4-1.6.5-1.1s2.3.8 2.6 1.6c.2.7 1.1.4 1.2 1.1.1.7 3.2 1.5 3.3 2.2.1.8-3 1.2-2.1 1.8.9.7 2.2-.9 3.4-1 1.2-.1 1.2 2.5 2 2.1 1.2-.5 2.1.5 3.3 2.1 1.2 1.7-.1 3.2 0 3.8.1.6 2.3.4 3.6-.3s2.4.8 3.4 1.6c1 .9-3.6 2.3-3.2 1.6.4-.8-2.7-3.1-5.5-2s-.9 2.7-.6 3.7c.3 1-2.5 1.9-5.1 1.1-2.6-.9-1.8.6-2.9.6-1.1 0-2.2 1.6-1.3 2.7 1 1.1 3.1.1 4.9.2 1.7.1 1.9.6 2.1-.4.2-1 2-.5 3.3-.2 1.3.3 1 2 2.5 2.2 1.6.2.3 1.7 1.3 2.8 1 1.1 4.1.5 5.2 1.6 1.2 1.2 6.1 3.5 6.8 2.6.8-1-4.3-5.4-5.7-5.8-1.5-.4 1.5-.9 3.3.6 1.8 1.5 4.6 2.1 5.9.4 1.4-1.7-1.2-1.3-1.2-2.5 0-1.3-.9-3-2.2-3s-4.9-2.7-3.6-3.3c1.3-.6-.4-1.4.6-2.4 1-1.1 1.9 1 3.1 1.1 1.2.1 1.4 1.6 3.2 3.1 1.8 1.6 2 .5 2.3-.6.3-1.1 2.3-.2 2.2-1.3-.1-1.1 1.6-2.3 2.8-2.8 1.2-.5-1-1.7-2.5-1.6-1.6.1-1.8-1-1.8-1.6s-2.9-2.3-3.9-2c-1 .3-2.6-1.3-3.9-1.4-1.3-.1-3.1-1.1-2.9-2.4.2-1.4 2.5.4 3-.7s-2.4-.5-2.5-1.3c-.1-.8.7-.5 1.3-1 .6-.5-.5-1.5-1.2-1.8-.7-.4-.9.8-1.6.8-.7 0-.1-1.1.4-1.7.5-.7-2.2-1.5-3.4-1.1-1.2.4-1.6-.3-1.6-1.1s-2 0-2.8.6c-.7.7-1.7-.5-.7-.6zm-38.8-28.7c-1.7-.9-3.9 1-2.1 1.6 1.5.6 3.8-.7 2.1-1.6z"/><path class="st1" d="M209.5 302.1c1.2-.2.9-2 .3-2.9-.5-.7-1.7-.8-2.8-.7-1.1.1-2.9 1.7-1.9 3.4.9 1.7 3.2.4 4.4.2zm43.4 53.3c.9-.5-.1-1.1-1-.7-1 .4-3.6 3.9-3.6 4.9 0 1-.1 2.1-1 2.1-.9-.1-1.9.8-1.2 1.3s-1.9 2-.6 2.7c.8.5 2.2-.2 3.4-.1 1.2.1 2.1.2 3.1-.5s1 .6 2 .5c1-.1-.6.8-.5 1.6.1.7 1.1-.4 1.9-.8.8-.4 1.7 0 1.4.6-.4.6 2.1 1.3 2.7.3.6-1-.6-2.7-1-1.9-.4.7-1-.5-.1-1.2.8-.6-.1-.9-.9-.5s-.6-1.7.1-2.1c.7-.4-1.7-1.2-1.7-.5s-1.7.3-1.9-.4c-.2-.6-1.4-.8-1-1.3.5-.5-1.5-.7-1.7.1-.2.8-.8-.5.2-1.6.8-1.1.5-2 1.4-2.5zm-52.4-90.3c1.1-.8 1.1-.8 2.4-.8 1.4 0 1.7-.9 1-1.9-.7-1.1-2.4.8-2.6 0-.2-1-1.8-1.3-4.6-.9-2.7.4-1.6-1.7.1-1.3 1.6.5 3.9.3 5.7-.2 1.8-.5.4-1.4.4-2.1 0-.8 2.3-.3 4.1-.3 1.7 0 4.3-2.8 4.4-4.5.1-1.7-3.9-1.3-5.8-1.3s1.3-1.5 5-1.3c3.7.2 2-1.5 2.7-2 .7-.6 2.4.7 4.3.3 1.8-.4.6-1.9 1.8-1.9.9 0 2.9-1.4 6.9-3.6s7.1-1.8 7.3-3.1c.2-1.3-5.5 0-6.5-.4s4-1.5 5.1-1.2c1.2.3 2.7 0 6.7-1.9s2.2-2.4.6-2.1c-1.6.3-3.5-.3-3.4-1.4.1-1.1-2.4-.1-2.5-.7-.1-.6-2.4-.3-5 .7-2.5 1-.2-1 .9-1.4 1.1-.4-6.4 0-7.7-.9-1.3-.9-2.7 1.5-3.9.3-1.2-1.2-4.2-.2-3.8.7.4.9-.5.9-1.7-.1s-3.4.1-5.4-.2c-2-.3-1.2 1.6-3.4.7-2.2-1-4.7-.5-4-.2.7.3-.2.9-1.2.6-1-.3-1.8.1-1.4 1.1.5 1-3.6-.3-3.6.8s-1.5 1.6-2.6.7c-1.2-1-4.9-1.3-3.8-.4 1.1.9-3.3.4-2.1 1.3 1.2.9-1.5 1.6-1.5 1.1s-2.4-1.4-3.4-.5c-1 .9-1.3 1.9-1.7 1.4-.5-.6-2.6-.4-4.7.4-2 .8.3 1.4 1.6.5 1.4-.9 2.4-.3 1.3.3-1.2.6-.8 1 .9.9 1.6-.1-.7.5-.7 1.5s1.9.4 2 1.4c.1 1 4.3 1.4 5.5.2 1.3-1.2.8.3.7 1.1-.1.8 5.9 1.5 6.2.5.3-1 1.2-.6 2.3-.3 1.2.3 6.9-1.1 7-2.2.1-1.2 1.8.6 0 1.8-1.8 1.3-5.5 1.1-7.2 1.6-1.6.5 1.1 1.6 2.7 2.9 1.6 1.3-2.1.6-3.7-1.1-1.6-1.6-5-1.6-6.9-1.6-1.8.1-1.3 3.5.1 3.5 1.4 0 2.7.5 4.1 2.6 1.4 2.1 4.3 1.7 4.3 2.6 0 1-3.8-.8-5.9-1.2-2.1-.4-5.5 1-5.6 2.5-.1 1.6 3.1 1.4 5.2.1 2.1-1.3.6.4-.5 1.4-1.1 1 2.5 1.7 2.5 2.9s-2.6.8-2.9-.3c-.3-1.1-1.3-2.1-3.8-1.9-2.5.2-1.8 1.9-.3 2.1 1.6.2 1.6 1.4-.1 1.4-1.7 0-5.7 1.1-4.5 2.2 1.4 1.3 6.3 0 7.2.8.9.8 3.3 1.1 3.9.2.6-.9 2.5-.5 4.5-.5m40.3 95c.2.8 5.8 3.1 6 2 .2-1-6.2-2.7-6-2zm-34-36.7c.7-.1 2-2.5.3-2.4-1.8.1-1.4 2.6-.3 2.4zm-43-36.3c2.1 1.5 1.5-1.2 3.9-1.1 2.4.1 2.5-3.9 2.9-5.3.4-1.5-1.9-1.4-1.4-.3.6 1.1-.1 2.1-.3.9-.2-1.3-2-.1-2.7-1.1-.7-1 2.1-1.1 2.8-2.3.7-1.3-2.2-1.1-1.6-2 .7-1-4.3.1-2.8.7s.1 1.4-1.3.4c-1.4-1-5.1.7-3.8 1.7 1.1.9 4.3-.6 2.4 1.9-1.8 2.5-2.6-.7-4.4-.4-1.7.3-1 2.4 1.6 3.2 2.8.8 2.6 2.2 4.7 3.7zm-9.4-15.7c.7-.8-1.5-2.4-2-1.1-.6 1.4 1.3 1.9 2 1.1zm21.8 2.1c1.7-.1.9-2.2-1.1-3.7-1.9-1.5-6.3 1.5-5.5 2.1.9.7 4.9 1.7 6.6 1.6zm1.1-14.2c-.2-.6-7.6.3-6.4 1.2 1.9 1.5 6.6-.6 6.4-1.2zm-20 34c.6-.7 3 1.4 3.1-.1.1-1.5-2.7-2.1-3.9-2.9-1.2-.8-1.6-.4-3.5-1.7-1.8-1.4.5-2-.9-3.1s-1.8-4-.9-4.9c1-1 2-2.4.3-3.1-1.7-.7-4.6.6-4.3 1 .3.4 2.7 1.7 2.7 2.3 0 .6-2.2-1.6-3-1.2-.8.5-1.6-1-2.3 0-.7 1 .9 4.4 1.5 5.3.6 1-.6 1-1.4 1.2-.8.2-.9-2.7-1.7-3.8-.8-1.1-3.9-2.3-4.1-1.6-.2.8 1.9.8 1.6 1.8-.3 1.1-1.5-.7-2.5.2-1.1.9-.9.3-.7-.6.2-.9-1.6-1.8-3.5-1.6-1.9.2-.9 1.6-1.5 2-.6.5-3.5-.3-1.6-.7 1.8-.4 1.1-1.5.4-2.5-.7-1.1-2.5.2-5.5 1.3s-4.4 2.2-4 2.3c.4.1.5.6-.7 1.6s0 1.8 1.1 1.8.1.9.9 1.1c.7.2 4.2-1.4 5.1-.7 1 .7-5.7 1.1-5.7 2.2 0 1.2 3.7 1.8 6.4 1.4 2.7-.5 7.5.4 7.5 1.1 0 .7-3.2.5-5.6.4-2.4-.1-6.6.7-6.4 1.5.2.9.5.9 3 2 2.5 1.2 5.1-.6 5 1.1-.1 1.6 1.4 2 4.8 2.1 3.4.1 5-1.6 6.6-1.5 1.7.1 2.4-.2 3.2-1.4.8-1.2 1.5-.5 1.6.1.2.6 2.3.5 2.8 1 1.2 1.2 5.3.9 6.9.1 1.6-.8-.7-2.9-1.5-1.9s-1.5.4-1.6-.1c0-.5 1.7-.8 2.3-1.5z"/><path class="st1" d="M172.6 271c.7 1.9 1.5.6 2.5 1.4 1.1.8 2.7 1.3 3.6.5.9-.8 1.3-1.4 1.6-.7.5 1.1 2.6 1.3 7.3 1.4 4.7.1 3.5-1.9 4.9-1.2 1.4.8 4.5.8 5.8.5 1.4-.3 2-2.4 1.9-3.5-.1-1.1-10.5-1.9-12.3-.9-1.8 1.1-4.8-.5-6.2.3-1.5.8-1-1-3.6-1.1-2.6-.1.2-1.5.7-2 .5-.6-4-2.1-5.8-1.7-1.8.4-2.9-.6-4.7-1.4-1.7-.8-6.5-.6-5.5.8.7 1 6.3 3 6.9 2 .6-1 2 1.2 2.9 2.2.8 1-.7 1.4 0 3.4zM32.8 434.9c-1.2.1-.5 3.2.1 2.7.5-.4 1.3-.4 1.6-.9.3-.7-.5-2-1.7-1.8zm7.3-101.5c0-.5-.7-.5-1.7.6s-1.8 1.7-1.9 2.2c-.1.5-1.3-.1-1.6.6-.3.7.2 2.2.9 1.7.7-.5.7 0 1.2 0 .4 0 2.4-1.4 2.9-2 .4-.7-.8-.9-.8-1.3s1-.4 1.6-.7c.3-.3-.7-.5-.6-1.1zm-13 98.6c.5.7 1 .9 1.4.2.3-.6-2-1-1.4-.2zm4.1 1c-.7.1-.3 1.4.2 1.1.8-.6.5-1.2-.2-1.1zm-24-83.8c1.2-.5 1.6-1.1 1.2-1.6-.5-.6-2.1 2-1.2 1.6zm16.4 81.3c.6.7 1.1.5 1.3-.1.2-.6-1.9-.6-1.3.1zM9.2 327.7c-.1-.8-2.2 0-1.9.7.2.7 2.2 1.2 3.1.9.7-.2 1-1 .4-1.5s-1.5.7-1.6-.1zm6.3 17.1c-1.1-.4-3.9 1.3-2.9 1.5.7.1 1-.6 1.7-.6.8 0 2.2-.5 1.2-.9zM383.3 387c-.2-1.1-2.4.3-1.9.6 1 .7 2.1.5 1.9-.6zm49.3 11c0-.3-.8.2-1.4-.1-.5-.3-2.8.2-3.5-.4-.6-.6-1.9.5-1.3.5.8.1 1.9.8 3.2.8 1.3.1 3-.5 3-.8zm16.4.8c-.1-.4.4-1.1 1.2-1.4.7-.3.5-.8 0-.4s-1.7.9-3.1.9c-1.5.1-1.9 1-1 1.6 1.1.6 2.9-.4 2.9-.7zm-106.5-85.2c1.3-.1 1.2-1.5 1.7-1.4.5.1 1.4-1 1.7-1.6.3-.6-.4-1.8-1.1-1.8-.8 0-1.4-.6-1.2-1.1.2-.5-.4-1-.4-1.4 0-.3-1 0-1.5.1s-1.6-1.3-2.1-1c-.5.3-.1.9-.3 1.3-.1.4-1.3-.4-1.3.1s-.5.5-.9 0-1.3-.2-1.3.2-.4.1-1.1-.4c-.7-.5-1.5.5-1.5 1 .1.5-.3.6-.9-.5-.6-1.1-1.3.1-1 .7.3.6.2 1.3-.3 1-.5-.3-1.1.2-1.4.6-.3.5-1.3-1.3-.6-1.7.7-.4-2.4-2.2-3.3-2.2-1 0-.3.7.3 1.2s-.5.4-.8-.1c-.4-.5-1-.1-1.4.6-.4.6-1 1-1.1 1.5-.1.5 1.1.9 2.1.5s2.1-.5 2.7 0c.5.5-.9.7-.4 1.1.5.4.1.7-1.1.6-1.2-.1-2.7.3-2.5.7.2.4 3.1-.4 3.2.1 0 .4 0 1.1.8.8.8-.3.3.6.6.7.4.2.3.9-.7 1-1 .1-1.5.3-1.1.7.6.6 1.7.2 2.8-.1 1.1-.3 2.7 1.1 4 1.6 1.3.5 3.5-.2 3.8-.9.3-.7 2-.4 2.7-.9.7-.4 1.6-1 2.9-1zm12.8 40.9c.8 0 2.7-.5 3.8-1.6 1.1-1 1.7 0 2.7-.5 1-.5.4-4.3 0-5.1-.1-.1-.1-.2 0-.3.1-.4 1.2-.5 1.7-1.1.6-.6-.3-1.6-1.2-2.5-.8-.8-1.9.4-2.7.4h-.3c-.9-.4-2.2-.4-2.2.5 0 .8 1 .5 1 1s-1 .4-1.8.9c-.7.5-1.6-.4-2.3 0-.8.4.8.8.3 1.7-.6.8 0 .8 1 1.6s-.6 1-.6 1.8c0 .9-1.2.8-1.5 1.4-.3.6 1 1.8 2.1 1.8zm5.2-19.3c.9 0 1.9-1.5 1.5-1.9-.5-.4-2.2 1.9-1.5 1.9zm12.5-7c.6-.5 1.2-2.7.4-2.4-.9.2-.6 2.6-.4 2.4z"/><path class="st1" d="M361.4 336.2c-.6.5.7 1.2 1.6 1.3.8.1-.6.7-.8 1.6-.2.9 1.1.5 1.2 1.2.1.6-1.8.7-1.8 1.4 0 .6 1.1-.3 1.6-.5.5-.3-.3 1.5.9 1.3 1.2-.2.8-1.8 1.3-1.7.4.1-.2.8.2 1.5s-.8 1.7-.8 2.2c.1.5 2.4.5 3.1-.3.7-.8 1.1.1.6.6-.5.6-.3 1.1.4 1.4.6.2.9.3.6.8-.3.5 0 1.5-.2 2s-2.2.4-2.2.1c-.1-.3-.9-.1-.7.4.2.5-.7.9-.6 1.4.1.4 1.3.3 1.3.8s-.9 1.1-2.1 1.5c-1.2.4.3 1.3.8.9.6-.4.5.3 1.3.3s1.4.7 2.3.3c.9-.4.9 0 .2.5-.7.6-1.8 0-2.4.3-.6.4-3.3 2.8-2.8 3.4.3.4.7-.5 1.6-.9.9-.4 1.1.3 1.6.3.5.1.5-1.1 1-1 .4.1.8-.4 1.6-.2.8.1 1.3-.2 1.7-.5.4-.3 1.4.6 1.7.4.3-.2 1.7-.5 2.5-.5.7 0 2.6-.8 3-1.3.5-.5-.3-.5-.9-.5-.6.1-.5-.6.2-1.3.7-.6 1.7-1.1 1.8-2.1.1-1-2.1-1.6-2.3-1.1-.2.5-.7.5-1.1-.1-.4-.6.3-1.1 0-1.2-.4-.1-.8-.9-.7-1.2.1-.3-.6-2.4-1.7-2.7-1.1-.3-1.3-1.8-1.5-2.7-.2-.8-.9-.4-1.5-1.1-.6-.7-1.5-.4-2-.3-.5 0 0-.9.8-1.4.8-.5 1.7-3.3 1.7-3.8 0-.6-3.4-.5-4-.2-.6.3-1.3-.5-.7-.7.6-.2 1.7-1.4 1.7-1.8-.1-.5.8-.9.3-1.3s-.6.6-1 .9c-.4.3-1.4.2-2.4 0s-1.4 1.2-1.4 1.8c0 .6-1.2 1-1 1.5.2.5-.2.9-.5.6-.5-.1-.9-.8-1.5-.3zm39.7 8c-.6-.1-.2.8.6 1 .8.1 1.7-1.4 1.6-1.8-.1-.4.8-2.2.5-2.4-.3-.2-.5.5-.7.5-.3.1-.6-1.2-.7-.5-.1.7-.8-.3-1.4.6-.6.9.4 1.7.8 2 .3.3-.2.7-.7.6zm15.7-9.2c-1.2 0-1.8 2.5-1.5 2.8.2.4 2.7-2.8 1.5-2.8zm8.7-3.5c.3-.5-1.9-.3-1.4.2.3.3 1.1.3 1.4-.2zm-1.9 2.9c.6 0 1.9-1.1 2.3-1.5.4-.4-.2-.7-1.4-.4-1.2.3-1.3 1.9-.9 1.9zm-23.1-79.2c.6.1 1 1.1 1.6 1.1.2 0-.8-1.2-1.5-1.9-.6-.7-.6-1.4-1.5-1.1-.8.2.8 1.8 1.4 1.9zm15.4-7.9c.4.3-.7.3-.2.8 1.5 1.5 7.2-.2 8 .2.8.4-4.8 1-4.6 1.6.2.6 4.8 1.1 5.1.7.3-.4 1.1.8 2.6.9 1.5.1 1.4-.6 2.5-.6s2.8-.6 2.8-1.2 3.3-1.4 3-2.5c-.3-1.1-3.4-.3-4.3-.8-.9-.4-2.9-1-3.3-.3-.3.7-.9.9-1.2.6-.3-.3.1-1.8-1.3-1.4-1.4.4-.1 1.9-.4 2.1-.3.2-1.6-.3-1.7-1-.1-.7-1.6.7-1.8-.1-.2-.8-2-1.4-2.4-1.4-.4 0 .4.6.1 1-.2.4-1.2-.4-1.6-.4-.4 0 .2.8 0 1.2-.2.4-1-1.2-1.6-1.2-.7 0-.4.8-.9.8-.4.1.8.7 1.2 1zm-13.4 4c.9.2-1 1.2-1.3 2.1-.3.9 1.5 1.7 2.2 2.4.7.7 2.5.6 3.1.2.6-.4.4-1.7 1.3-1.7.8 0 .4-.7 1.1-1 .7-.2.8.6.2 1.3-.6.7 1 .6 1.9-.2.9-.8 1.1 0 .9.7-.2.8-2 .3-2.6 1.2-.6.9-2.6.2-3.4 1.2-.9 1 .8 1 2 .8 1.2-.2 3.5-.4 4.4-.2.9.2-.5.5-2 .5s-1.9.4-1.9.8-2-.4-2.1.4c-.1.9 1.9 1.2 2.2 1.7.2.5 1.6 0 2.1.2s-.9.6-1.1.8c-.2.2 1.5.6 1.8 1.1.3.5 1.5.2 1.5-.4-.1-.8 1.1-3.4 2.5-3.9 1.5-.5.6-1 .8-1.8.2-.8 1.4-.1 1-.8-.3-.7-.1-1 .8-1.8.9-.9 1.5-.2 2.6-.8 1.1-.5 1.6.4.4.5-1.1.1-.5 1.3.3 1.6.9.3.1.6.8.8.7.1.5 1.2-.4 2.1-.9.9.2 1.1 2.1.4 1.8-.7.7.6 1.2 1.1.5.5 2-.4 2.8-1.3.8-.9 1.9-.8 1.9-1.3s-.9-.7-1.6-.4c-.7.3-2.4.1-1.8-.4.6-.5.5-1-.4-.9-.9.1-2.4-.3-1.7-.6s-.5-1.3-1.2-1.2c-.7 0-.5-.7-.4-1.3 0-.5-1.9-.8-1.6-1 .4-.2-.8-.6-1.1-.2-.3.4-.9.3-.9-.3s-1.5-.4-2-.4c-.6 0-.3-1.3-.9-1.7-.6-.4-1.4.9-1.8.8-.4-.1.3-1 .6-1.6.2-.6-2-1.4-2.3-.8-.2.6-.7-.9-1.2-1-.5-.1-.1 1-.5 1.1-.4.1-1 .5-.3 1s1.5 2.9 1.4 3.3c-.1.4-2.3-1.7-2.4-2.8-.1-1-1.2-1.8-1.5-1.1-.3.7-1.1 1-.9 1.7.2.7-.6 1-.6.4s-1.2-1.3-1.7-1.3c-.4 0 1.1-.3 1.8-.7.7-.3-.6-.8-1.3-.4-.6.4-1.5-.2-1.8.3-.4.5-.9 0-1.6-.1-.7-.1-1.3 1-1.7.8-.5-.2-.8 1 0 2.2.8 1.3 1.4-.3 2.3-.1zm387.6 65.4c-.5.3-3.3.2-2.7.8.5.6 3 .3 4.1.9 1.1.6 2.7.1 2.7-.4s-3.6-1.6-4.1-1.3zm-124.8 87.7c.2-.8 1.2-1 1.9-.7.6.3 1.5-1 1.5-1.9 0-1-1.9-1-2.2-.3-.3.7-1 .4-2.1.6-1 .2-1.1 2.7-.3 2.9.5.1 1 .1 1.2-.6zm16.3-26c-.8.1.1.9-.8 1.3s-.8 1-.4 1.3c.5.3.1 1.1 0 1.7-.1.6.6.1 1.1-.5.5-.6 1.1.3 1.2-.3.1-.6-1.4-1-1.3-1.6.1-.6 1 .2 1.8-.2s2.3-.1 3.3.8c1 .8 1.2.5 1.4-.5.2-1 1.7-1.5 3.2-1.5 1.5 0 1.6-.7 1.2-1-.5-.3 2.5-2.2 2.4-2.7-.1-.5-1.6 1.2-2 .6-.5-.6-1.2.3-2.2.5-1 .2-4-2.3-4.8-3.5-.8-1.2-2.1-.2-1.4.6.6.8-.1 1.1-.1 2.3 0 1.2-.8 1.2-.6 1.9-.1.8-1.3.7-2 .8z"/><path class="st1" d="M670.1 397.8c.1-.6-1.2-.3-2.7.3-1.5.6-2.4-.6-3.2.2-.8.8-2.3 2.3-3.4 2.5-1.1.2-.5 1.5 0 1.3.8-.4 2 0 2.4-.6.4-.6 3.6-1.3 5.5-1.4 1.9-.1.8.9.9 1.9.1 1 1.7.8 2.6-.1.8-1 1.5-.9.8-1.5s.1-1.1.6-.3 2.1.8 2.8-.2c.6-1 .8.2 1.6.1s1.2-2 1.3-1.3c.1.7 1.3.5 2.1-.3s.1-2.3.6-3.1c.5-.8 1-2.4.5-3.4s1.2-1.6 2-2.4c.8-.8-1-4.7-1-5.8-.1-1.2-2.1.5-2.8.8-.6.3-1.1 2.3-.4 2.9.7.6-1.2 1.7-1.1 2.9.1 1.2-1.2 1.2-1.4 2.1-.2.9-.9.7-2 1.6-1.1.8-1.7-.1-1.4-.7.3-.6-1.7.3-1.6 1.7.1 1.4-1.8 1.6-1.4 2.2.5.8-1.4 1.2-1.3.6zm-11.6 5.5c-1 .7-1.3.8-.9 1.6.4.7 1 .1 1.2-.6.3-.7.9 1 .3 2.2-.6 1.2.1 2.8.8 2.7.6-.1 1.5-2.5 2.5-3.7 1-1.2-.5-.8-.5-1.4 0-.6-1.4-.5-1.5-1.1 0-.7-1-.4-1.9.3zM615 438c.1-.8 1.3-2 1.2-2.6-.1-.5-1.9-.2-2.7-.2-.8 0-3 1.2-2.1 3 .7 1.8 3.5.6 3.6-.2zm22.7-7.8c.6-.5 3.3-6 2.7-6.8-.6-.8-3.2.5-3.9 3-.7 2.6 1 3.9 1.2 3.8zm-2 13.5c-.2.6.1 3 .6 3s.9.6.6 1.7c-.3 1 1 1.2 2.2.7 1.2-.5.8.8 2 .6 1.2-.2 2.9 1.4 2.7 1.9-.3.6.1 2.5.6 1.9.6-.5 1.5.1.9 1-.6.8.9 1.7 1.1 2.7.2 1 .8.2.7-.6-.1-.8.1-.7 1-1.3.8-.6-.1-1.6-.6-2.7s-2.5-.7-2.5-1.7-1.4-1.4-1.5-1.9c-.1-.6-1.9-1.2-3-.5-1.1.6-.3-1.2-1.1-2s.6-2.1 1.5-3.1-.3-2.8-.1-3.6c.1-.8.1-1-.4-.8-.5.3-2.3-.8-3.2-.3-.8.5-.1 4.8-.5 5.1-.4.5-.9-.5-1-.1zm4.7 9.9c-1 .2-.6 3.1.1 3 .3-.1 1.1 0 1.2-.6.1-.6.8 1.2.2 1.7-.6.6-.6 2.2.3 2.4.9.2 2.6-2.9 2.3-3.5-.3-.6-1 .4-.8-.4.2-.8-2.3-2.8-3.3-2.6zm-7.5 4.2c-.9 1.2-3.1 3.1-2.8 3.6.4.7 2.8-2.8 3.9-3.7 1.2-.8 1-1.6.6-2.3-.3-.8-.8 1.2-1.7 2.4zm4-7.5c.2.9.6 2.8 2.1 2.3 1.4-.4-2.2-2.9-2.1-2.3zm11.3 8.9c.6 1-1.1.2-1.2 1.2-.1 1-1.4.2-1.3 1 .1.8-1.3 0-1.9-.5-.6-.5-1.6 1.2-2.5 1.5-1 .3-1.5 2.3-.8 2.3.8-.1 1.2-1.1 1.9-1 .8.1.5-.8 1.6-.6 1.1.2.3 3.5 1.8 3.8 1.5.3 1.6 1.2 2.3 1.2.7 0-.1-2.1-.1-2.8.1-.7 1.6-.1 2.3-1 .8-.9-.5-3.3-.5-4.9-.1-1.7-2.2-1.2-1.6-.2zm-2.2-1.1c-.5-.6-1.8.6-1.6 1 .3.7 2.2-.4 1.6-1zm59.8 32.7c0 .6-1 .9-2.7 1.6-1.6.6-4.6-.7-4.7.2-.1.6 1.8 1.6 3.6 1.6 1.7 0 4.5-1.7 4.5-2.3 0-.5 1.1-1.4.6-1.9-.4-.5-1.3.2-1.3.8zm1.5-2.3c1.3 1.2.6 2.3 1.4 2.1 1.2-.3.3-1.6-.7-2.2-1.1-.7-2-1.1-.7.1zm-11 6.6c1.2.1 1.4-.6.5-1.4-.9-.8-4.2-1.2-4.3-2.4-.1-1.2-6-4.1-8.6-4.7-.5-.1-1-.3-1.6-.5-2.8-.9-6.7-2.7-7.5-2.6-1 .1-1.1 1.7-1.9 1.7s-2 1.7-3.6 2.3c-1.6.5-1.6-4.5-2.3-5.4-.7-1-4.6-1.7-5-.6-.4 1.1-1.7.5-1.9 1.4-.1.8.3.6 1.2.6.8 0 .8.6 1.2 1.5.4.8 2.7.3 3.5.2.8-.1.9 1-.2.6s-1.1.5-1.9.3c-.8-.2-1.8-.1-1.3.3.5.5 1.4.9 1.4 1.9 0 1 1.5.8 1.5 0s.8.3 2.3.6c1.5.4.5 1 1.9 1 1.5.1 4.9 1.2 6.1 2.1 1.3 1 .4 1.6 1.2 2.5.8.9 1.1 1.9-.1 1.9-1.2 0-2.4 1.2-2.1 1.7.3.6 4.1-.3 5-.3.6 0 1.2 1.1 2.3 1.8.6.4 1.3.7 2.3.8 2.8.1 2.1-1.5 2.7-1.5.5 0 .7-.9 1.3-1.6.6-.7 3.1-.1 4.6 1 1.5 1.2 3.2 4.6 4.8 4.3 1.6-.3 3.2.9 4.6.8 1.4-.1.1-1.2-.3-1.4-.5-.2-1.6-1-1.6-1.5.1-.5-1.3-.5-2.2-1-.9-.6-.6-2.5-1.6-2.9s-1.6-1.6-.4-1.5zm-145.2-36.6c-.6.1-.5 1.2-.8 2.1-.3.8-.3 1.7-.1 2.9.1 1.2 0 2.5 1.1 3.2 1.3.8 3.3-1.3 3.4-3.1 0-1.8-3.2-5.1-3.6-5.1zm-68.8 47.8c-.3-1.1-.5.4-.8.6-.3.3-.4 1-.3 1.6.1.5-.8 1-1.3 1-.5-.1-1.4.3-1.1 1 .3.7-.4.6-.1 1.2.3.6-.7 1.3-1.6 1.4-.9.1-2.1 1.7-3 1.6-1-.1-1.9.6-2.8.5-.8-.1-.3 1.7-.9 2.9-.6 1.2-.3 2.5.3 3.9s1 2.6-.5 4.5c-1.6 1.9-1.4 3.9-.8 5.2.6 1.3.6 3.2 1.4 4.1.8.9 3.2 1.7 3.9 1 .7-.7 1.5.1 2.3-.8.8-.9 2.1-5.9 3.2-9.2 1.1-3.3 2.5-7.6 2.4-8.5-.1-.9.8-1.5.4-2.5s.1-2.1.6-1.4c.5.8 1.1.8 1.3-.3.2-1-.8-2.7-.8-4.1-.3-1.6-1.6-3-1.8-3.7zm9.5-54.1c.7.8 2.2-.1 2.2-.4.1-.3-3.1-.4-2.2.4zm34.2 145c-.3-.7-2.7 1.6-.8 2.5.9.4 1.2-.5 1.8 0 .6.5 1.7.3 1.9-.9.3-1.1-2.6-.9-2.9-1.6zm197.5-96.1c.2 1 1.6 1.6 2.2 1.2.6-.4-2.4-2.3-2.2-1.2zm2.3-2.2c-.5 1.1 1.5 2.9 1.7 3 .4 0-1.3-3.9-1.7-3zm-13.3-6.5c-.1.6 1.9 3.7 2.7 3.2 1.4-1-2.6-3.8-2.7-3.2zm4.1 2.7c0 .2 1.5 1.7 1.8 1.5.4-.3-1.7-2-1.8-1.5zm10.9 8.1c.1.2 1.4 1.4 2 1 .6-.5-2.2-1.4-2-1zm-3.6-4.2c.5-.3-3-2.3-3.1-1.7 0 .6 2.6 2 3.1 1.7zm-52 64.1c.5.5 2.3.3 2.6-.3.3-.7-3.1-.2-2.6.3zm-13.7-56.8c.5.4 2.9-.1 2.8-.7-.1-.6-3.6.1-2.8.7zm35.6 70.3c-1.3.1-3.3-1.2-3.7-1.1-.5.1 1.7 3.5 1 4.4-.7.9 2 3.3 2.9 3.4.9.1.6-.9 1.2-.9s.4-.6.5-1.1c.1-.5.7.5 1.3.2.5-.3-.1-2.4.6-2.4.8 0 .1-2.5-.1-3.3-.2-.8-2.4.6-3.7.8z"/><path class="st1" d="M709.6 543.6c.4-.3-.2-1.8-.5-1.6-.3.2-.3-2.4-.1-3.6.2-1.2.1-1.1-.5-.4-.6.6-1.3-1.2-1.5-1.7-.1-.5-.9-1.8-1.7-1.7-.8.2-.3-1.2-1.1-1-.8.1-.9-1.1-.8-2.3.1-1.2-.5-.2-.9-.7-.3-.5-.7-.1-1.3.1-.5.2-.7-1-.5-1.5.1-.5-.1-1.1-.8-1.6-.7-.5-.8-1-.7-1.6 0-.6-4.1-2.8-5-3-.9-.2-.1-1.2-.5-1.5-.4-.3-.5-1.6-.5-2.7s-1.4-1.4-1.3-2.3c0-.9-.4-1.7-.3-2.7.1-1-1.4-1.2-1.5-1.7 0-.5-.9 0-1.7 0-.8.1-.8-1.1-.7-2.2.1-1.1-.3-3-1-3.5s-.7-2.4-1.1-2.7c-.3-.3-1.5 1-1.4 1.6 0 .6-.1 1.4-.5 1.7-.4.4.3 1.9-.3 2.4s0 2.7-.2 3.9c-.1 1.2-.1 2.5-.7 3.3-.6.8-.7 2.1-1.8 2.6-1.2.4-2.7-.5-2.7-1.1 0-.6-1.3-1-1.9-.9-.7.1-1.1-.9-2.1-1.7-1.1-.8-1.9.2-2.2-.8-.3-1-.7-1.1-1.5-1.6s-.5-.5.2-1.1c.7-.5.6-1.2.2-1.8-.4-.6.4-.5 1.4-1 1-.5 0-1.2.7-1.5.7-.3.3-.9-.5-1.1-.8-.1-.5.8-.8.9-.3.1-.6-1.2-.8-1.2-.2 0-1.2 1.3-1.7.7-.5-.6-3.2-1.2-4.3-1.3-1.1-.1-1.4-1.5-2-1.3-.6.2.1.7.8 1.5.7.8-2.4 1.3-3.3 1-.9-.3.1.7-.6.6-.8 0-.9 1.3-1.6 2-.6.7-.2 1.2-.9 1.6-.7.4-.7.9.1 1.8.8.9-.4 1-1.1.2-.7-.7-1.5-.7-1.4.1 0 .8-.9.4-.7-.5.1-.9-1-.5-1.2-1-.2-.5-1.2-1.4-1.8-1.4-.6 0-.6.7-1.3.7-.6 0-.8.3-.7 1 .1.7-1 0-1.7 0-.7.1 0 .9-.4 1-.4 0-.4.7-1 .7s-.5 1.4-.4 2.1c.1.7-1-.3-1.6-.1-.6.2.1.8.3 1.6.2.8-.3.8-.7 1.1-.3.3-.9-.9-.9-1.6 0-.7-.8 0-1.7.9-.9.9.3 2.3-.1 2.6-.4.2-2.1 1.9-3.2 3.1-1 1.2-3.2.5-3.9 1.1-.7.6-1.4.1-2.1.7-.7.5-1.9 1.6-2.1.9-.1-.6-1.9-.1-2.6.6-.7.8-1.9 1.5-2.7 1.5-.8 0-.8 1.3-1.2 1.6-.3.3-.2-1-.2-1.4 0-.3-.8.6-1.1 1.6-.3 1 .8 1.4.1 2.5-.7 1.1-1.4 2.1-.4 3.5 1 1.4 1.6 2.2 1.3 2.9-.3.7-1.1-1.4-1.3-1.1-.2.2.9 1.1.6 1.6-.3.4-1.3-1.7-1.6-1.2-.2.4 2.2 3.7 2.2 4.9 0 1.2 1.9 2.4 1.8 4.1-.1 1.7 1.6 4.6 1.9 5 .3.4-.7 1.6-.5 2.9.2 1.3-.4 1.8-1.3 1.8s-.3 1.4.6 1.5c.9.1.6.7 1.6 1.4s3.4.4 4.3.4c.8 0 1.1-1.3 2.2-1.3s1-.4 1.6-1.1c.5-.7 3.1-.5 5.6-.3 2.6.1 3.7-.6 4.1-1.7.3-.9 2.2-1 2.9-1.6.7-.7 1.4-.7 3.3-.6 1.9.1 3.6-.9 4.9-1.4 1.2-.5 3.4-.3 4.6-.6 1.2-.3 1.4 1.5 2.7 1.3 1.3-.1 1.9.4 2.6.3.7 0 .6.5 1.3.6.7.1.6.7.1 1.4-.4.6 1 .6 1.9 1.8.9 1.3 0 1.5.5 2.4.5 1 .8.7 1.8-.6s2-.5 2.2-1.7c.1-1.2 1.2-2.5 1.8-1.9.7.6-.5.9-.9 3.1s-1.2 1.1-1.4 1.7c-.1.6 2 1 2-.2s.4-1.7 1.2-.6c.8 1.1-.5 1.9-.3 2.4s1.1-.1 1.6-.1c.9.1 2 2 1.8 3-.2 1-.5 2 1.2 2.8 1.7.8 1 1 2.2 1 1.2 0 3.7 1 4.4 1.6.7.6 2.4-.4 2.8-1.6.3-1.2 1.6 0 .9.3-.7.4.3 1.3.4.7 0-.6.3-1.2.6-.4.2.7 1.1.7 1.5 1.3.3.6.7 1 .7.5s.2-.9 1-1.2c.8-.3 1.3-.8 2.1-1.5s4.2-.8 4.6-.8c.3 0 .5-2.9.7-4.4.2-1.5 1.5-1.7 1.6-3.3.2-1.6 1.9-4.6 2.3-4.7.4-.1 1.3-.6 1.3-1.5s1.2-1.9 1.2-3.1c0-1.1.6-2.4.5-2.8-.1-.3-.5-1.4.2-2.2.9-.4-.1-1.3.3-1.6zm31.2 49.3c.3.1 1.5-.2.8-1-.6-.8-1.6.7-.8 1zm14-16.8c-.7-.5-1 .2-1.7.5s-1.2-1.6-2.1-.9c-.9.7-.1 1-1.1 1.9-1 .9-.6 1.2-1.8 3.1-1.2 1.9-5.4 3-6 4-.6 1-2.7 1.8-2.8 2.6 0 .8-1.3 1.3-.6 2.4.6.8 1.4.2 2 .9.6.6 1.3.1 1.6.6.3.5 2.4.5 4-.9 1.6-1.5.8-2.1 1.5-2.5.6-.4.7-1.6 1.1-2.3.4-.7.7-1.5 2.4-1.5s.8-.3.7-1.2c-.1-.8 1.5-1 1.5-2 0-1.1 2.1-2 1.7-2.9-.5-.8.3-1.3-.4-1.8zm7.9-7.8c-.4.7-1.3-.2-2.1-.2s-1.3-.6-1.3-1.3c0-.7-.2-1.8-1-1.7-.8 0 .2.8 0 1.2-.3.4-.5-.4-.9-.4s-.8-.5-.8-1.5-.8-.9-.8-2-1.7-2-2.7-2c-1 0 .2 1.7.7 2.3.5.6 1.6 1.1 1.5 1.6 0 .4.7 1.6 1.3 1.7.6.2-.3 1.9-.3 3.3s-1.1 1.1-1.8 2c-.7.9 1.8 1.7 2.9 2.6 1.1.9-.9 3-.6 3.5.1.2.9.6 2 .3s1.6-2.7 2.4-3.4c.8-.7.3-1.7.7-2.3.4-.5.9-.5 1.5-.5.5 0 .2-1.3.9-1.3s.3-.9.7-1.9c.3-1.1-1.8-.7-2.3 0zm2.9-50.2c.5.2 2.3-.4 2.3-1.2 0-.8-3.1.9-2.3 1.2zm-3 2.6c.8.8 2.5.7 2.5-.7.1-1.4-3.2 0-2.5.7zM501.7 245.5c.2.5-.3.6-1.6.6s-2 .7-1.3 1.3c.8.6 4.2.4 4.8-.4.6-.8 2.1-.1 2.3-.9.3-.8-4.3-1.1-4.2-.6zm-.3-3.5c1.6 0 1.1-1 2.1-.8 1 .1 2.4.1 1.9-.6-.5-.6-4.3-.4-3.9.1.4.5-3 .3-3 .5.2.4 1.4.8 2.9.8zm-8 4.3c0-1-3.4.1-2.7.3.6.3 2.7.8 2.7-.3zm293.1 63.2c.7.6 1.9.5 2.5.5.6 0 0-.5-.5-.6-.6-.1.1-.6.5-.2.4.4 1.1.5 1.2.1.1-.4.5-1.2 1.1-1.2.7 0 .9-.4.3-.6-.6-.2-2.7-1.6-3.2-2.3-.5-.7-3-1.1-3-.7 0 .4-.8-.1-1-.5-.2-.4-2.8-.5-2.8 0s.6.5 1 1-.5.8-.3 1.4c.2.6-1-.3-1.4-.6-.4-.3-.2-1.6-.1-2.2.1-.6-.7-.5-.8-1.2-.1-.6-3-2-4.2-2.5-1.2-.5-2.8-1-3.2-1.6-.4-.6-2.6-.7-3.5-1.6-.8-.9-4.5-2.4-6.1-2.5-1.6-.1-1.2-1-2-.8-.8.1-4.1 0-5.1-.2s-1.3.6-2 .3-4.6-1.7-5-1.2c-.5.5-.3 1.3-.7 1.4-.5.1 0 .8 1.1 1.7 1.1 1 .4 1.7-.6 2.1-1 .4-2.5-.4-3-1.1-.5-.7-1.8-.4-2.1-1.4-.3-1 .4-1.1 1-.6.6.5 1.5.1 1.6-.6.1-.7-1.7-1.2-2.8-1.1-1 .1-1.6 1.5-2.6 2-1 .6-5-.2-5.5-.6-.4-.4-6 0-6.6.4-.6.4-.2 1.9-.5 2-.3.1-.6-1.7-.6-2.1 0-.4-.7-.6-1.7-.6s-1.6 0-1.2-.5c.4-.4-.4-.8.4-1.4.8-.6-1.4-2.3-3.6-3.1-2.1-.8-7-.4-8.3 0-1.3.4-3.9.3-5.1.3-1.2 0-.2-.5-.6-1.1-.4-.6-2.5-1.3-2.8-.8-.3.5-.8 0-.8-.4s-2-1.1-2.8-.9c-.8.2-1.1-.7-.2-.7.9 0 2.5.2 1.8-.8s-6.5-1.4-7.1-1.2c-.6.2 0 .9-1.3 2.1-1.3 1.2-2.5.4-2.3-.2.2-.6 1.7-.5 1.7-1.1 0-.6-2.1-.3-2.5-.7-.3-.5.5-.8 1.2-.6.8.2 2.1.4 2.2 0 .1-.4-.8-.4-2.1-.6-1.3-.2-4.4-1-6.1-.8-1.6.2-2.4-.6-3.3-.7-.9-.1-.9.5-.5 1s-.9.8-1.9.7c-1.1-.2-2.6.6-2 1.4.6.8 1.2-.2 1.7 0 .5.3-1.4.8-.6 1.2.8.4.6 1.1.7 1.5 0 .4-1.3.6-1.8 0s-1.2-.1-2.1-.1c-.9-.1-1.6.4-.6.5 1 .1 1.3.7 0 .9-1.3.1-1-1.2-1.7-1-.8.2-2.5-.6-3.4-.6-.9 0-1.3.7-2.5.8-1.2.1-2.8-.6-3.3-1.3-.5-.6-.6-.8-1.2-.1-.6.7-.6 2.2-1.2 2.3-.6.1-.8 1.4-1.4 1.7-.6.3-.6-.5-1.4-.4-.7.1-3.1-2.3-3.3-2.9-.1-.7-1.6-2-2-2.2-.4-.3.4-.4.9 0s1.1.4 1.6.2c.5-.3.4-1.5-.4-1.5s-.5-.7-.1-.9c.4-.1-1-1.4-.5-1.5.5-.1.3-.7-.4-.8-.7-.1-1.5-.7-1.5-1 0-.4-3-.5-2.9 0 .1.5-1 .4-.8-.1.2-.4-1.1-.3-2.5-.7-1.4-.4-1.5-1.4-1.9-1.5-.5-.1-.3 1.4-1 1.1-.7-.3-1.5.3-1.1 1.1.4.8 0 1 0 1.6-.1.7-.5.4-1.3.1-.8-.3-.8.7-2.7.3-1.8-.5-2.6 0-2.9-.6-.3-.6-.9-.6-.9-.2-.1.5-2.8.3-3.1-.4-.2-.7.5-.8.9-1 .4-.2-.5-.5-2-.4-1.5.1-2.5-.8-4-.6-1.6.2-5 .5-5.5.7-.5.2.5 1.1-.3 1.2-.7.1-.2-1.4-.4-2.1-.1-.7-1.3-.8-1.1-.3.2.5-1.8.7-2.3.3-.5-.4-1.3-1-2.5-1.3-1.3-.3-2.8 1-2.5 1.4.4.4 1.3.1 1.3.4.1.5-2.7.3-2.7.8s-2.6 1.1-3.3 1.2c-2.1.3-2.6.3-3.6 1.1s-.2-.7.5-1.5c.8-.8 1.6-.5 2-1.1.5-.6 1.2-.6 2.4-.7 1.2-.2 1.2-.9 1.7-1.2.6-.3 2-.8 2.3-1.4.3-.6 3.2-1.6 3.8-1.5.6 0 .7-1.2 1-1.2.3 0 2-.7 2.7-1 .6-.3 1-.9 1-1.3s-.9-.4-1-.7c-.1-.4.4-.1 1.1-.4.7-.3 0-1.2-.5-1-.6.2.3-.5-.2-1.1-.5-.6-1.5.4-1.4-.3 0-.6-.1-1.4-.5-1.8-.4-.4-1.1.7-1.9.1-.8-.6-3.2-1-3.2-.7 0 .3-1.1-.4-1.4-.1-.2.3-2.1.2-2.7.1-.6-.2-1.4.2-1.4.8 0 .6-2.3.4-2.7.3-.4-.1 1.6-1.7 1.6-2 0-.3-3.4.1-3.6-.3-.2-.3-1.8-.4-2.6-.4-.7 0 0-.2.6-.3.7-.1 1.3-.6 2-.8.7-.1.6-.4.3-.8-.3-.5-1.1-.2-1.8-.5-.7-.2-1.7-.6-2.3-.6-.6 0-1.4.3-2.9.6s-1.6 1.5-2.4 1.8c-.8.4-2.1 1.8-1.5 1.9.6.1.3.5.4.9.1.4-.5.5-1.2.4-.7-.1-3.4-.1-3.3.5 0 .6 1.5.8 1.4 1.1-.1.3-1.1 0-1.6-.3s-1.7-.1-1.9.4c-.2.6-1.1.4-1.4.3-.3-.1-.9.3-1.4.1-.5-.2 1-.9.6-1.2-.4-.4-1.9 0-2.1.6-.2.6-1.1-.4-1.5-.2-.4.2-.7.4-1.4.7-.7.3-1.8-.3-2.1.2-.3.5 1.3.7 1.3.9 0 .2-3.5.2-3.6.6-.1.4-1.3.4-2.8.4-1.5 0-.9.7-2 1-1.2.2-1.7.3-2.1.8-.4.6-1.3.7-1.7.2-.4-.5-1.5.2-.9.3.6.1 0 .6-.3.5-.4-.1-1.4.6-.8.5.6-.1.9.4.6.8-.3.4-1.6-.4-1.9-.1-.3.3.6.7 1.2.7.6-.1.9.3 1 .7.1.4-1.4-.3-1.6.1-.3.4.2.5.8.6.6.1.2.3.7.8l.1.1c.3.4-.3.5-.2.9.1.4-.6.6-.6.2 0-.4-1.7-.5-2.1-.1-.4.4-.6.7-1 .4-.4-.4-1.6.1-3.2.2s-4.9.2-5.7.5c-.8.3-1.5 1.4-.7 2.2.7.7 0 1.1 0 1.6s1.9 1.5 3 1.6c1 .1 1.9 1.4 1.3 2.1-.6.8-2.5-.2-3.7-1.2-1.2-1-4.1-1.4-5-1.3-.9.1-.4-.8-1.6-.8-1.2 0-2.2 1.1-1.4 1.1s1.3-.1.9.3.2.3 1.2.7c1 .4-.8 1-1.8.3s-2.1 0-2.4.5c-.3.5 1.2 2 2.9 2.3 1.7.3 1.2.8 2 1.1.8.3.2.6-.3.6-.6 0-1.7-.8-2.5-1.3-.9-.5-3.2.2-3.7-.3s.3-1-.1-1.4c-.5-.4-.1-1.3.5-2.2.6-.9-.1-2.5-.9-2.7-.8-.3-.8.6-.6.9.2.3.1 1.5-.6 2.3-.6.8-2.6.8-2.6 1.4 0 .5-1.3 1-.9 1.4.5.4 2.2 2.4 2.5 3 .3.6-1.6 2.6-1.3 3.7.3 1.1-.3 1.6.1 2.2.4.6 1.2.1 1.7.3.5.2 1.4-.3 2.6-.6 1.2-.2 3.4 1 4.2 1.4.8.4.4 1 .8 1.7.4.6-1 .6-1 1.6s2.4 1.4 2.5 1.7c.1.3-1.7.1-2.5-.2-.7-.3-.8-1.2-1-1.4-.2-.2.5-1 .5-1.6.1-.6-.8-1-1.1-1.4-.3-.4-.8-1-1.4-.9-.6.1-2.7.3-3.4.9-.6.6.1 2.2.5 3 .4.8-1.9 1.9-1.8 2.6.1.6-.7.9-1.6 1.5-1 .5-2 .9-2 1.7 0 .8-1.3.4-2 0s-1.6.2-2.5.2c-1 0-1-.8-1.7-.6-.8.3-1.3-.4-1.1-.9.2-.6 1.1-.1 1.2.3.1.4.6.2 1.3-.1.6-.4.3.5 1.3.5.9.1.4-.5 1.1-.4.7.1.7-.2.5-.5-.2-.4.5-.6 1-.8.5-.2.3-.9.7-1.2.4-.2.1-.7.6-.7s.6-.7 1.1-.7.6-.7.4-1c-.3-.4.2-1.3.6-1.5.4-.1.5-.5.1-.8-.4-.3-1.8-1.3-1.7-1.9.1-.6-.3-1.7-.1-2.2.2-.5 0-1.5 0-2.1-.1-.6.4-1.2.6-2.3.2-1.1-1.1-2.2-1.8-2.5-.6-.3-.2-.9.7-1.7.9-.8 1-3.2.9-3.7-.1-.5-2-1-2.7-.9-.7.1-3.5-.1-4.2-.2-.7-.1-.9.6-1.2 1.2-.3.6-1 1.6-1.5 3.1-.4 1.5-2.1 1.9-2.9 2.2-.8.3-1.3 1.4-.9 1.9s.9.1 1.2.3c.4.2 0 1.6-.3 1.7-.2.2.4.7-.1 1-.6.4-1.1 1.1-.7 1.5.3.4 1.9.6 2.6 1 .7.4.4 1.1.9 1.8s1.1.3 1.3.7c.3.4-.9 2.1-1.4 2.2-.4.1-2.1-1.7-2.7-2.1-.5-.4-2.5-1-3.5-1.5s-1.8-.5-2.9-1.2c-1.1-.7-2-1.1-4-1.1s-3.3-.5-4-.4c-.7.1-.4-.7-1.6-1.2-1.2-.5-2-1.2-2.7-.9-.7.4-.4 1.6.6 1.8 1 .2.5.7 1.6.6 1.1-.1 1.4.3 1.4 1s.5 1.4 1 1.8c.5.5.2 1.2-.7 1.2-.9 0-1.9.1-1.5.7.4.6-.3.8-1.1.5-.9-.3-.4-.9 0-1.3s-.8-.8-1.3-1c-.5-.2-2.7 1.4-3.4 1.7-.6.3-2.1-.4-3.7 0s-1.5 1.6-2 1.5c-.6-.1-2.3.2-2.9-.2-.6-.4-.1-.6.6-.6s.9-.2.5-.6c-.4-.5.5-1.2.5-1.5 0-.3-2.6.5-3 .9-.4.4 0 1-.4 1.2-.5.2-.5-.4-1-.6-.5-.2-4.3.7-5 1.5-.7.8-2.1.8-2.1 1.3s-1.7.4-2.4.7c-.7.3-.2 1.6-.5 2.3-.3.6-2.9.5-3.7.5-.8 0-1.1-1.6-1.7-1.6-.6-.1-.3-1-.1-1.4.2-.4.7-.1 1.5-.6s1.6.3 1.9-.1c.3-.4-1.2-1.3-1.3-2.1-.1-.8-1.8-1-2.8-.8s-2 0-2.7-.3c-.7-.3-.6.6.4.8 1 .3.5 1 .6 1.5.2.5-.3 1.6-.8 2.4-.6.8-.2.8.7.8.9 0 .8 1.1.8 1.9 0 .8-.7 1.1-.7 1.7 0 .6-.7-.3-.9 0-.2.3-.5-.1-.6-.6-.1-.5-1.5-.2-2.2-.4-.7-.2-1 .1-1.4.7-.4.6-1.4.8-1.9.8-.6.1-1.5 1.1-2.1 1.5-.6.4-.7 1.1.1 1.9.8.8 1 1.3.9 1.7-.1.4-2.3.3-2.6-.2-.4-.5-1.8-.6-2.3-.5-.5.1-1.8-1.5-2.5-1.5s-1.1.8-1.3 1.2c-.2.4.3.6.6 1.3.3.7 1.5.7 2.1.7.6 0 .4.9.2 1.3s-1.3.7-1.6.3c-.3-.4-1.7 0-1.7-.5s-1-1.3-2-1.1c-1 .2-1.2-.5-1.1-1.3.1-.8-.5-1.2-.5-1.6 0-.4-.5-1.1.1-1.4.5-.4.1-.9.2-1.4 0-.5-.9-1.2-1.7-1.2-.8 0-.6-.8-1.3-1-.7-.2-2-1.3-2.1-1.8-.1-.5-1.1-.6-.8-.7.4-.2 1.2.1 1.7.6.6.6 1.5 1.1 3 1.3 1.5.2 2.1.9 3.8 1.2 1.7.3 2.7.5 5.1.8 2.4.4 5.7-2.1 6.3-2.8.7-.7-.2-2.1-.2-2.6s-1.1-.6-1.3-1c-.2-.4-.9-1.1-1.8-1.1s-1.1-1.1-1.8-1c-.7.1-1.3-.3-3.2-1.6-1.9-1.3-4.6-2.2-5.1-2-.5.2-.8.4-1.1-.1-.3-.5-1.1-.4-1.6 0s-1-.4-2-.1c-1 .2-1.5-.4-1.2-.7.3-.3 1.7 0 1.6-.5-.1-.5-.6 0-1.5-.6s-1.4-.2-1.6.3c-.2.5-.9.4-1.3-.1l-.1-.1c-.5-.3-1.5-.4-1.6.1-.1.5-1 .4-1-.1s-1.4-.9-1.4-1.1c-.1-.2.6-.2 1.1.1.5.3.9.1 1.5-.5s1.4-.1 1.5-.6c.1-.5-.9-.8-1.1-1.1-.2-.3-.9-.7-1.6-.5-.7.1-.7-.2-1.2-.6-.4-.4-1.7.3-1.7 1.2 0 .9-.8.7-.5.2.3-.5-.4-1.1.3-1.2.6-.2.3-1.1-.9-1.2-1.2-.1-1.6.9-1.4 1.2.3.3-.8 1.7-1.3 1.7s.1-1.2 0-1.8c0-.6-.5-.3-1.4.7-.9 1-1.6 2-2.1 2.1-.5.1-.5-.9.4-1.4.8-.5.9-1.7 1.4-1.7.6 0 .6-.6-.3-.8-.8-.2-.9.7-1.2 1-.3.3-1.6-.5-1.6-.2s-.7.4-.4.8c.3.5-.2.9-.5.3-.3-.6-1.1-.1-1.5.5-.4.6-.9.6-.5.8.4.2.4 1.1-.2 1.3-.6.2-.4-1.6-.8-1.4-.5.2-.2-.8.5-.8.6 0 1.2-.9 1.2-1.1-.1-.4-.8-.3-.8.2s-1 .4-1.8.4-.8.9.1 1.5c.9.5-.2.8-.6.5-.5-.4-1.2-.2-1.7 0s1.2.8 1.2 1.1c.1.3-.8-.4-1-.1-.2.2-1.1-.2-1.2-.7-.1-.6-1.5.2-.7.4s.5.7.5 1.4-.9.2-.7-.5c.2-.6-.6-.5-1.2-.1s.1-.7-.2-1.3c-.3-.5-.8 0-1.5.1s-1 .2-.6.6c.4.5.4 1.1-.2 1-.5-.1-.8 0-.7.5.1.5-.7.5-.8.1-.1-.5-1.2-.3-1.5.2-.3.5-1.2.9-1.1 1.5.1.6.8-.3 1.4-.1.6.2 0 .5.3.8.3.3.3 1-.2.6s-1-.6-1.1.1c-.1.7-.6-.1-1-.6s-.8.9-1.2.6c-.4-.3.8-1.3.5-1.8-.3-.5-.6.3-1.3 1-.7.7-1.7.7-1.4 1.1.4.4-.7.6-.9 1.2-.2.6-1.7.8-2.7 1.5-1 .6.2.7.7.1.6-.6.7-.3 1.6-.8.9-.5 1.8-1 2.1-.8.3.2.9.4 1.3-.2.4-.6.9-.5 1.4-.1.4.4-.7.6-.2 1.2.5.5-.6.8-.6.4 0-.5-.6-.8-.9-.4-.2.4-.6.9-1 .9s-.9.8-.9 1.6-.7 0-.8.7c-.1.7-1.1 1.9-2 2.7-.9.9-.1 1.1-.4 1.6-.3.5-1.4.1-1.7.3-.4.2.2 1.6-.3 2-.5.4 0 1 0 1.5s-1.3-.3-1.4.2c-.1.5-1.2.4-1.5.5-.3.1.6.9 1.2 1.4.6.5-.6.8-.7.3-.1-.5-.9.3-1.9.8-1 .5-.6 1.4-1.4 1.4-.8 0-.6 1.3-1.1 1.6-.5.4-.4-.9-1.2-.9-.8 0-.7.5-.3 1.2.5.7-.7.2-1.2.7-.5.6-1.7.3-2.1.8-.4.5 1 .5 1.2.9.2.4-1.2.2-1.9 0s-.5.9-1.2.8c-.6-.1-1.5.5-1 1s-.4.5-.8.2c-.5-.3-.8.4-1 1-.2.5.9.8.8 1.1 0 .3-.8.7-.3.8.6.1.2.6-.2.8-.4.2-.4.6 0 1 .4.5-.7.6-.2 1.3.5.7.9-.2 1.1.4.2.6.8.1 1.6-.6.7-.6 1 .7.4.7s-1.3.3-1.1.9c.1.6-.9.5-.9-.2s-1.2.1-.7.6-.2.8-.2 1.3.9.4 1.2-.2c.4-.5.9-.4 1.2.1.2.5-.5.1-.5.9 0 .7-.5.1-.9.7s1.7 1.7 2.3 1.8c.6.2 1.3.9 2.6.7 1.3-.2 3.8-2.6 4.1-3 .3-.4 1 .1 1.5-.3s.2-1.4.6-1.6c.4-.2.5 1.1.9 1.2.3.1.5.3.5 1v.2c0 .8.3 1.6 1 2.2.7.6.2 1.5.8 2.3.6.8.4 1.4 1.1 2 .7.6.7.9.5 1.6-.3.7.6.5.6 1s-.2 1.4 0 1.8c.2.5.7 0 1.7 0s.8-.7.8-1.3c0-.6.6-.3.7-.7.1-.4 1.1-.5 1.8-.2s1.1-.2 1.3-1c.1-.8.5.2.8.3.2.2.9-1.2 1.2-2.1.3-.9 0-.7-.8.1-.7.8-.3-.8 0-1.5s.3-2.7.4-3.1c.1-.5.3-1.1 1.2-1.3.9-.2 2.2-1.4 2-1.8-.2-.5 1.3-1.3 1.3-1.8s-1.6-2-2.1-2.3c-.5-.3-1.6-.1-1.6-.4.1-.4-.1-1.7-.3-2.5-.1-.7.8-1.5.8-2.1 0-.7 0-1.5.6-1.7.6-.2.2-.8 1-1 .8-.2.6-1.4 1.5-1.7.9-.4.9-.6 2.1-1.2 1.1-.6 3-1.8 3.4-2.5.3-.7-1.2-1.4-.2-2.1.9-.7.2-1.5.8-1.8.7-.3.9-.6 1.4-1.1.5-.5 1.1 0 2.3-.2.4-.1.8 0 1.2.1.6.2 1.2.5 1.8.7.9.4.7 1 .8 1.7s.1 1.1-.4.8c-.5-.3-.9 0-1.2 1-.3 1-1.5 2.1-2.2 2.2-.7.1-.7.8-1.3 1-.6.2-1.2.5-1.2 1.2s-.9.7-1.5.7-.5 1.1-1 1.4c-.5.3-.4.7.1 1.3.5.6.1 1.1.2 1.5.2.4.9 1.4.4 2.5s-1 2.4-.6 2.3c.4-.1 1.4.9 2 .8.6-.1.7.9 1.3.7.6-.2.6.6 2.4.5 1.8-.1 5.4-1.6 6.8-1.6.8 0 1.5-.1 2-.2.3-.5.7-1 1-1.3-.4.4-.7.9-1 1.3.4-.1.7-.2.9-.3.5-.3.9 1 1.4 1.4.5.4 1.6 0 1.9.4.4.4-.3.4-1 .3-.7-.1-.9.3-2.1.7-.9.3-.8.6-1.1.8-.1.1-.2.2-.5.2-.9.3-3-.6-4.1-.4-1.2.2-3.5.2-4.1.8-.6.6-1.9.7-1.3 1.3.6.5 0 .8.5 1.4.5.6.7.9 1.3.7.6-.1 1.1.2.5.9-.6.7-.2 1.1-.2 2.2 0 1-1.2.8-1.8.8-.6 0-1.6-1.8-1.9-2.3-.3-.4-1.4.5-2.1 1-.7.5-.4 1.3-.9 1.7-.5.4-.8 1.1-.3 2.1 0 0 0 .1.1.1.4.9.3 1.8-.2 2.4-.4.4-.1.5.1.6l.3.3c.3.5-1.2.6-.7 1.2s-1 .6-1 0-1.6-.3-1.5.1c0 .2 0 .3-.1.5-.2.3-.6.6-1.2.6-.9 0-1-.9-1-1.4 0-.4-3.8.4-4.8 1.4-1 1-3.3.6-3.4 1.2 0 .4-.4.6-.6.5-.1 0-.2-.1-.2-.3-.1-.5-.5-.7-1.3-.7s.5-.8.2-1.3c-.3-.4-1.2.8-1.9.5-.8-.3-1.8.9-2.5 1.4-.7.5-1.7-.1-1.1-.8.5-.7 0-.7-.8-.4-.8.3-1.7-.1-1.6-.8 0-.2 0-.3-.1-.5-.3-.5-.9-.8-.9-1.2.1-.5.7-.2 1.1.2.5.4 1.5.5 1.6 0 .1-.3-.2-1.7-.8-1.4-.6.3-.8.2-1-.1-.2-.3.5-.8.6-1.4.2-.5 1.2-.3 1.4-.7.2-.4-.7-.9-1-1-.3-.2-.5-1.2-.1-1.5.4-.3.6-1.6.2-1.9-.3-.3-1.5 0-1.6.9-.1.9-1 .5-1.3.7-.3.2.5.6.1 1s-.6-.6-1.3-.6c-.7-.1-.7 1-1.1 1.6-.4.6-.1 1.7 0 2.5s1.1 1.3.8 1.9c-.1.3.1.6.3 1 .3.4.5.7.4 1-.3.6.2 1.1.6 1.9.4.8-.9.4-.9.9s-1.2 0-1.6-.2c-.4-.2-1.7-.1-1.6.3 0 .1 0 .3-.1.5s-.3.4-.6.2c-.5-.3-1.2-.1-2.2.1-1 .2-1.3 1.1-.9 1.5.4.4-.9.6-1 .1-.1-.5-1.1-.2-1 .5.1.7-1.1.9-1 1.8.1.8-1 1.6-1.7 2-.1.1-.2.1-.3.2-.5.3-1 .5-1.5.6-.2 0-.3.1-.5 0-.8 0-1.5.6-1.3 1.9.1 1.3-.9 1.4-2.3 1.5-1.3.1-.9 1.1-1.4 1.6-.6.4-2.5-.2-2.8-.9-.3-.7-2 0-1.3.8s.7 2 .3 2.3c-.4.3-1.3-.5-1.9-.1-.6.4-.6-.4-1.3-.6-.7-.3-1 .3-2.1.2-1.1-.1-1.8.5-1.4 1 .4.5-.1.9.3 1.4.3.4 1.8.4 2.9.9 1.1.6 1.4.1 1.9.5.6.4.7.2.7 1s.6 1.6 1.7 1.9c1.1.3.3 1 .6 1.7s-.5 1.7-.3 2.6c.2.9-.5 3.7-1 3.9h-.1c-.7.1-2.5-.6-3.8-.4-1.3.2-5.6-.2-7.2-.1-1.7.1-1.7-.7-2.7-.7-.9 0-.5 1.1-1.8 1.1s-1.4.8-.5 1.6c.5.4.5 1.3.4 2.1-.1.6-.1 1.2.1 1.5.4.7-.5 4.3-1.4 5.2-.8 1 0 1.2.8 1.9.9.7.3 3.1.3 3.7s.8.4 1.7.4c.5 0 1.1-.2 1.7-.3.4-.1.8-.1 1.2.1.9.4 1.4 2.7 2.7 2.5.5-.1.3-.5.5-.7.3-.3.7-.1 1.3-.1.5 0 .8-.7 2-.8 1.2 0 2-.1 2.8-.1.8 0 1.4-.2 1.6-.8.2-.6.8-1 1.7-1.2.9-.1.7-1 .8-1.6.1-.5 1.5-1.3 1.6-1.7.1-.4-.8-1.9 0-3.2.9-1.3 1.8-1.4 1.8-2.1 0-.7.9-.9 2-1.1 1.1-.1 1.5-.9 2.4-1.3.8-.3 1.1-.9.9-1.8 0-.2-.1-.4-.1-.6-.4-1.3.7-2 1.8-2.2 1.1-.2 3.4.5 4 .9.6.4 1.5.3 2.5-.8.5-.6 1-.8 1.4-.9.4-.1.7-.1 1.1-.3.7-.4.4-1 1.5-1.3 1.1-.3 2.6.6 3.1 1.3.5.7.6.7.7 1.3.1.5.5 1.6 2.1 2.7 1.6 1 2.2 2.1 3 2.6.8.4 1.6.3 2.1.9.5.6 1.1.9 1.9 1.3.8.4.8 1.2 1.6 1.3.7.1.3.7.7 1.3.5.5.6 1.7.1 2.4-.5.6-.2 1.7.1 1.7.3 0 1-1.2 1.1-1.8.1-.6.7-.6 1.3-1.3.5-.7-.8-.8-1-1.7-.2-.9 1-1.6 2.1-.9 1.1.7 1.6 1.2 1.6.1.1-1.1-3.5-2.6-4.3-3.1-.8-.5-.3-1.4-1.6-1.3-1.3.1-2.9-1.6-3.4-3.5s-2.6-2-3.1-3.1.5-1.3 0-2.2c-.3-.5.3-1 1-1.2.5-.2 1.1-.3 1.4-.2.3.1.3.4.4.7.1.4 0 .9.4.9.6 0 1.7-.1 1.7.7 0 .8 1.4 2.5 1.9 3.1.5.6 1.7.5 1.7.9.1.5.9.9 1.9 1 .3 0 .6.2.9.4.4.2.7.5 1.1.8.6.5 1.1.9 1.5 1.1 0 0 .1 0 .1.1.8.5 1.2.8.6 1.4-.6.6-.7 2.7-.1 3.2s.8 1.6 1.5 1.9h.1c.7.2 1.3 1.1 1.2 1.9-.1.8 1 1.1 1.6.5.5-.6 2 .3 2 .7 0 .4-1.5-.4-2.3.2-.8.6.6 1.2.5 1.8-.2.6.4 1.6 1.1 1.5.7 0 1.6 1.2 2 1 .5-.2-.5-1.9-.4-2.2.2-.3 1.1.5 1.5-.1.5-.5-.3-.9-1-.9s0-.9.8-.4 1.2-.1 1.6-.2c.4-.1.5-1.5-.7-1.8-1.2-.3-1 .9-1.8.1s.7-.5.7-1.2-1.2-1.6-1.8-2.5c-.6-.8.8-1.2 1.1-.6.3.6 1.2.5 1.7.3.6-.2-.6-1.3.4-1.6 1-.4 1 .3 1.3.4.3.1.6-.8 1.7-.8.5 0 1 .4 1.5.7.4.3.8.6 1.3.6.9 0 1.3-1 2-1.3.8-.3 2.5.1 2.9-.3.4-.4-1.1-.9-1.7-1.3-.3-.3-.4-.8-.5-1.1-.1-.3-.2-.5-.3-.5-.4-.1-.9-1.6-.5-1.7.5-.1 1-1.6 1.7-1.9.3-.1.4-.3.5-.5.1-.3 0-.7 0-1.1 0-.7.4-1.7 1.1-1.8.7-.1 1.2-.1 1.1-1.2v-.1c-.1-1 .1-1 1-1.6.9-.7 1-2 1.9-2.2.8-.2 1.2-.6 2.4-.4 1.2.2-.6 1 .2 1.4.8.5 3.4-.1 3.6.5.1.6-3 1.3-2.9 1.6.1.3 1.7.6 2.2 1 .6.4-.2 1.4.1 1.7.3.3 1.1.1 1.8-.4s1.2-.3 2.1-.9c.9-.6 2.7-.1 2.9-.4.2-.4-.5-.7-2.2-.6-1.7.1-1.8-1.5-1.8-1.8 0-.3 1.7-1.6 2.7-1.7 1-.1 1.8-.4 2.8-.8.4-.2 1.1-.4 1.8-.5 1-.2 2.1-.3 2.2 0 .2.4-2.3 1.4-2.7 1.6-.5.2.9.8.8 1.2 0 .4-1.4.5-1.3 1.3.1.8-.5.9-1.2.9s-.9.5-.6.5c.4.1.3 1 1.7 1.4 1.4.4 2.9 1.7 4.1 2.9.2.2.4.3.6.4 1.3.7 3.1.5 3.4 1.9.3 1.6 1.2.9.8 2.3-.1.3-.2.5-.5.7-1 1-3.4 1.6-4.1 1.4-.9-.3-2.6.1-3.8.1-1.3 0-1.6-.9-2.6-.8-1 .1-1-.9-1.9-.9-1 0-.2-.5-3.3-.9-3-.4-5.7 1.2-6.6 2-1 .8-4.5 0-4.8.3-.3.2.1 1.2-1.1 1.7-1.2.5-3.7 0-4.6.4-.9.4-1.2 1.7-.5 1.6.7-.1 1.1.3.9.6-.2.3.6 1.2.2 1.6-.4.4-.5 1.1.1 1.5.5.4.6 1.1 0 1.2-.6.1 1.1.8 1.1 1.1 0 .3 1.4.5 1.4.9s.4.5 1.1.3c.7-.2.9.7 1.4 1.4.4.6 2.8.2 2.8-.5s.7-.9 1.8-.8c1.1.1 2.5 1.6 3 1.7.5.2 1.6-.4 2.3-.4.7 0 1.6-1.1 2-1.3.4-.2 1.1.7 1.7.4.6-.3 1.3-.7 1.7-.5.4.2-.9 1.2-.6 1.7.1.2.1.5.1.7-.1.4-.2.8 0 1.1.3.4-.1.9-.2 1.6v.3c0 .7-1 2-1.6 3.3l1 .4h.1c0 .2 0 .4-.1.6 0-.2.1-.4.1-.6l-1.1-.5c-.2.4-.3.7-.3 1-.2 1.2-1.2 3.1-1.7 3.9-.1.2-.2.3-.2.3-.3.3-1.3-.4-2.3-.1-1 .3-1.8-.1-2.8-.6-1-.5-4.1.1-4.6.7-.4.6-1.5.6-2.5.2-1-.4-2.2-1-4-1.1-1.7-.1-3-.4-3.3-.8l-.1-.1c-.2-.5-1-.5-2.9-.8-1.9-.3-1.2-1.6-3.3-1.7-2.1-.1-4.9 1.6-4.9 2.5 0 .9 1 1.9.3 2.8-.7.9-2.3 1-3.4 0s-2.7-1.5-4-1.5c-1.3 0-2.3-.8-2.2-1.6.1-.7-.3-1-1.4-1.3-1.1-.2-2-1.1-4-.8-1 .2-1.9-.1-2.5-.5-.5-.3-.8-.7-.8-.9 0-.4-.6-1.1-.9-.7-.3.4-1.6.1-1.7-.7-.2-.8.8-.8 1.7-1.5.9-.7 1-2.2.1-2.9-1-.8-.3-1.2.4-1.9s.1-1.1-.3-.8c-.4.3-.9.4-1-.4-.1-.8-2.2-.9-3-.2-.3.3-.7.3-1.2.3-.9 0-1.8-.3-2.1-.4-.4-.1-1.5.2-2.2.2-.7 0-2.5 1.2-3 .6-.6-.5-6.5.4-8.2.5-1.7.1-2.4 1.8-3.4 1.8s-2.6.8-3.4 1.8c-.2.3-.5.4-.8.4-.8 0-1.7-.6-2.5-.6-1.1 0-2.9.6-3.7-.4-.8-.9-1.4-1.2-2-.9-.6.3-1.7 3.5-2.4 4.5-.6.9-2.5 1.6-3.3 1.6-.9 0-1 1.3-1.6 1.9-.7.5-.4 1.4-1.2 2.1-.8.6-.4 2.6 0 3.3.4.7-1.5 2.9-2.6 3.6-1.1.6-1.5 1.9-3.2 2.2-.7.1-1.2.4-1.6.8-.6.6-1 1.4-1.2 2-.4 1-2.8 2.6-2.9 4-.1 1.5-2.4 3.7-3.9 6.8-.4.9-.6 1.5-.6 2.1-.1 1.4.7 1.9 1.2 2.5.7.8-.5 2.1.5 3.5s-.2 3.5-.7 4.3c-.3.4-.3 1.2-.4 1.9-.1.6-.2 1.3-.5 1.8-.7 1.1.3 2.6.8 3.1.1.1.1.2.1.4 0 .4-.2.8-.3 1.3 0 .4 0 .7.2 1 .1.1.2.2.2.3.6.7.6 1 1.8 1.4 1.3.4-.1 1 .9 1.6.1.1.2.1.3.2.7.6.7 1.3 1.6 1.9.8.6 1.8 1.4 2.5 2.7.1.3.2.5.3.8.5 1.8 1 2.1 1.7 2.7.3.3 1 .7 1.8 1.2.9.6 2 1.2 2.8 1.9 1.6 1.2 4 2.8 5.1 3.2.2.1.3.1.5.1 1.3 0 3.7-.9 6.5-1.4 1.7-.3 3.2-.1 4.2.2.9.3 1.5.5 1.6.6.4.1 3.1-1.2 4.2-1.7.9-.4 1.9-.7 2.5-1.1.2-.1.3-.2.4-.3.3-.2.7-.4 1.2-.5.5-.1 1.1-.1 1.5-.1.7 0 1.1-.9 1.5-.5.4.5 2.2.6 3.3.8 1 .2 2.1 1.7 2.1 2.2 0 .6.7 1.6 1.2 1.9.5.3 1.7-.5 2.2-.5.6 0 2.5 0 2.9-.3.1-.1.2-.1.4 0 .3.2.6.8.9 1.2.5.6 1.3.2 1.7.4.4.2.7 1.7.6 2.1-.1.4-.7 1.4-.4 1.9v.1c.3.5.2 1.2-.5 1.4-.7.2-.6.8-.1.9.3 0 .3.3.1.6-.1.2-.3.3-.4.5-.3.3.7.7.8 1.1.2.4-1.2.3-1.2.9 0 .6-.5 1.1-.9 1.4-.4.3 1 1.5 1.1 1.9 0 .4.4.8 1.6 2 1.2 1.1.6 1.4 2.2 2.7l.2.2c.9.7 1.5 1.5 1.9 2.3.4.8.6 1.7.8 2.4 0 .1 0 .1.1.2.4 1.5 1.6 4 1.9 4.6.3.6-.4 1.2-.4 2.3 0 1.1 1.2 3.2 1.4 4.6.1 1.4-.8 2.3-1.6 3.2-.8.9-1.6 2.9-1.6 4.2 0 1.3-1.2 2.5-1.1 3.1 0 .6-.2 2.3-.3 2.9v.1c-.1.7.5 1.9 1.2 2.9s1.6 2.9 2.1 4.5 1.9 3.4 2.2 4.6c.4 1.2-.3 2.9.1 3.7.4.8.6 2.1.8 3.4.2 1.3.3 4.1 1.5 5.3.5.4.9 1.1 1.4 1.7.7 1.1 1.3 2.4 1.7 3.5.5 1.7 1.8 3.3 2.1 4.3.3 1 .7 1.9 0 2-.7.1-.7.7 0 1.8s.1 1.7.7 1.9c.6.1.4.5.9.6.5 0 .8.5 1.2.9.3.4 1.1.4 1.4-.1.4-.5 1.5-.7 2.6-.7s.9-.5 2-.8c1.1-.3 2.4-.4 3.4 0 .9.3 1.6 0 2.1-.3s1.3.5 1.4-.3c.1-.7 1-.6 1.8-.6s2.9-1.3 4.5-2.8c1.6-1.5 4.3-4.9 5.2-6.4.9-1.5 2.4-2.8 3.1-3.5.6-.5.9-2.3 1-3.6.1-.4.1-.8.1-1.1.1-1-.6-.2-.9-.8-.2-.6 1.6-1.8 3.4-2.5 1.8-.7 2.6-1.1 2.8-1.7.2-.6 0-2.5.2-3.2.3-.7-.2-1.1-.4-2.7s-.8-1.9-1.1-2.8c-.3-.9-.2-1.6.4-1.7.5 0 .5-.3 1-1.2.5-.9 1-.5 1.8-1.2.9-.6.9-1.5 2.3-2.5 1.4-1.1 2.9-1 4.3-1.8s3.7-4 3.5-4.6c-.2-.6-.7-3.2-.5-4.3.1-1.1-.2-3.9-.2-5.2v-.1c-.1-1.2-1.5-.7-1.5-2-.1-1.3-.8-1.3-.8-2.2 0-.9.1-1.7-.2-1.8-.3-.1-.1-.9.4-1.7.5-.8-.9-.9-1.2-1.8-.1-.4.4-1.8 1-3.3.8-2.1 1.9-4.3 2.1-4.8.5-.7 1-.6 1.4-1.1.4-.5.5.3 1.2-.8.1-.1.1-.2.2-.3.9-1.1 3.2-3.3 4.9-5.1 1.8-1.9 2.8-2.4 3.8-2.9s3.7-3.1 5.4-5.3c1.1-1.4 2.4-3 2.5-4 .2-1 1.2-2.4 2-3.4s2.1-3.6 2-4.3c0-.8.6-2.4.7-3.8.1-1.4-1.1-1.5-1.4-.7-.4.8-3.1 1.3-4.9 1.3-1.8 0-2.8.2-3.5.8-.6.6-2.3-.2-2.8.5-.6.7-2.9 1.3-3.6-.3-.3-.7-.7-1-1.1-1.2 0 0 0 .1-.1.1 0 0 0-.1.1-.1-.5-.3-1-.4-1.2-.5-.2-.2.6-.9 1.3-1 .6-.1.3-.8-.2-1.3l-.3-.3c-.5-.5-1.3-1.3-2.3-2.6-1.2-1.6-2.7-2.4-3.5-2.4-.8 0-.9-1.3-1.4-1.4-.5-.1-1.6-2-1.6-3.2 0-.7-.6-1.7-1.2-2.4-.5-.6-1-1.1-1.4-1.3-.8-.4-1.3-1.7-1.3-3.4s-.4-3.1-.5-3.6c-.1-.6-.9-1.7-1.9-2.3-.7-.4-1.1-1-1.2-1.6 0-.3-.1-.6 0-.9.2-1-.6-1-1-2.4-.5-1.5-2.3-3.6-2.3-4.5-.1-.8-1.1-1.3-1-2.2 0-.9-.5-1-1.5-2.4s-1.3-3.9-1-4c.3-.1 1.1 2.1 1.5 2.8.3.7 1.4 2.9 2.2 2.9.8 0 1.1-3.3 1.3-3.1l.1.1c.2.5-.1 2.3.4 2.5.5.2.7 1 1.8 2.2 1 1.1 3.1 4.2 3.2 4.9 0 .7.4 1.6 1.7 2.4 1.3.9 1.3 1.9 2 2.5.7.5.5 1.1.6 2.4 0 1.3.6 3 1.8 3.7 1.2.7 2 1.5 2.5 2.9s1.3 2.6 2 3.3c.7.7.3 1.1.7 1.7.2.3.5.8.7 1.3.2.5.3 1 .2 1.3-.3.7 0 2.5.6 3.5.7 1 .4 2.8.7 3.2.3.4 2.8.3 4-.5 1.1-.7 1.9-.9 2.8-.9.9 0 2.1-.8 2.4-1.2.3-.4 1.6-.4 2.2-.4.5.1 1.1-.6 1.7-1.2.6-.6 2.6-.9 4.6-1.5 2.1-.6 1.6-1.6 2.1-2.2.4-.5 1-.3 1.9-.7l.6-.3c1.2-.7 2.6-.4 3.6-.6.9-.3 0-1 .8-1.7s2-.2 2.4-.4c.4-.2.7-1.7 1.4-2 .7-.3 1.5-.1 1.4-.7-.1-.6.1-2.8.7-2.9.7-.1 1.7-.8 1.8-1.2 0-.4 1.4-1.8 1.8-2.6.4-.7.5-1.1-.2-1.2-.6-.1-1.6-1.8-1.8-2.3-.3-.5-2.1-.2-3.7-1.4-.6-.5-1-1.4-1.2-2.3-.3-1.3-.4-2.7-.6-2.7-.4 0-2 1.7-2.6 2.9-.6 1.3-2.5 2.2-4.1 1.9-1.6-.3-2.2.4-2.6.7-.1.1-.3 0-.5-.1-.4-.3-.8-.9-.9-1.4-.1-.2-.1-.4 0-.6.4-.7.7-2.6-.3-2.8-.9-.3-1.5 1.6-1.5 2.1 0 .1-.1.1-.2 0-.4-.3-1.6-1.9-1.2-2.4.5-.5-.3-1.7-1-2.4-.7-.6-2.2-1.8-2.2-2.6 0-.2-.1-.5-.3-.9-.4-1-1.1-2.4-1.1-2.8 0-.1.1-.2.2-.4.2-.2.6-.4 1-.5.2-.1.4-.1.5-.1.6 0 .6-.6 1-.3.5.4 1.1 0 1.5-.1.5 0 1.7 2.3 2.2 3.4.6 1.1.5 1.5 1.3 2 .7.5 1.6.2 2.7 1.3s3.8 1.8 5 1.9c1.2.1 2-1.3 3.5-1 1.5.3 1.1 2.2 1.7 2.9.6.7 6.6 1.1 7.6 1.4.4.1 1.3.2 2.3.2 0-.2 0-.4-.1-.5 0 .1 0 .3.1.5 1.8 0 3.9 0 4.1-.3.4-.4 1.2-.6 1.7-.3s2.7.5 3.5 0c1.1-.6 1.7 0 1.7.5s.5.7 1 1.2.1 1 .5 1.5c.3.5 1 .4 1.9.8.1.1.2.1.4.2.7.5.9 1.4 2 1.9 1.3.5 2.4-.8 2.4.1s-3 .7-3 1c-.1.3 3.1 4.1 4.7 3.8 1.6-.3 2.8-2 2.3-2.3-.5-.3.3-1.3.7-1.1.4.2.1 1.9.5 2.3.5.4.3 1.1 0 2-.3.9.3 2.7.4 3.7.1 1 .8 2.5 1 3.9.2 1.5 1.2 4.2 2 5.9.9 1.7 1.6 4.9 2.1 5.7.6.8 2.1 3.1 2.1 4.6 0 1.5 1.6 3.5 2.1 3.9.6.4 1.7-.5 2-1.4.3-.9 1.9-1.3 2-2s.3-1.4.8-1.5c.6-.1.6-.7.6-1.6s.1-2 .6-2.8c.6-.7.7-2.8.3-3.6-.4-.8-.2-1.9.2-2.8.3-.8.2-1.7.8-1.8.6-.1 1.5-.6 2.2-1.5.6-.9 2.6-2.1 3.3-2.7.7-.6 2.9-2.5 3.5-3.6.6-1.1 2.5-1.4 3.3-2.3.8-.9.5-1.3.7-2.3.2-.9 2.9-1.3 3.9-1.3.2 0 .4 0 .5-.1.6-.1.9-.4 1.5-.4.7 0 1.7-.1 1.7-.8.1-.7.9-1.3 1.3-1.1.5.2 1.1 2 1.2 3 0 .3.1.7.3 1.1.4.9 1.2 1.8 2.1 2.2 1.3.5 2.1 3.1 2.5 4.4.4 1.4.1 2.8-.3 3.5-.5.8.2.8.9 1.2.7.4 1.6.5 2.1-.3.6-.8 1.7-1.3 1.8-2.2.2-.9.7.4 1.1.9.5.5.8 1.3.9 2.4s.2 3.8 1.1 4.7c.9.9 1.1 2.8.8 3.5-.3.7.5 1.8.3 2.6 0 .1-.1.4-.1.6-.2.9-.4 2.4-.6 3.2-.3 1-.5 1.9.1 1.9.6.1 1.7 1.4 2.9 2.8.3.3.5.7.7 1.1.5 1.2.6 2.4.6 3.3 0 1.3 1.9 3.4 2.2 4.2.3.8.8 1.1 2.1 2 1.3.9 3.7 2.4 4.2 2.1.5-.2-.7-2.4-1.5-3.1-.7-.7-.1-2.8 0-4.2 0-1.5-1.4-1.3-1.7-2.3-.3-1-.9-.4-1.1-1.1 0-.1-.1-.2-.2-.3-.4-.6-1.6-1.4-2.5-1.5-1.1-.1-1.6-1.7-1.5-2.5.1-.7-.8-1.4-.8-2 0-.6-.6-.7-1.4-1-.7-.4.2-2.6.3-3.5.1-.9 1.6-3.6 1.2-4.5-.5-.8 1.6-1.5 1.8-.6.3.9.4 1.4 1.6 1.3 1.3-.1 1.3.9 2.3 1.2.1 0 .1 0 .2.1.8.4.5 1.4.6 2 .1.6.9.3 1.4.2.5 0-.3.7.1 1.2s1.5-.4 1.7.2c.1.1.1.2.2.3.2.3.6.5 1 .7.5.3-.6.9-.6 1.9 0 1 .8 1.3 1.1.9.3-.4 1.5-1.4 2-1.5.5-.2 0-.9.5-.8.5 0 .4-.7.6-1.2.2-.4.6-.3 1.4-.2.8 0 1.9-.7 3-1.4s1.3-.9 1.7-2.9c.4-2-.5-4.5-.5-5.1 0-.6-1.5-3.5-2.1-3.4-.6 0-3.1-2.6-3.5-3-.5-.4-.3-1.1-1-1.7-.6-.5-.7-2-.5-3 .2-1 1.6-1.2 1.6-1.9s.1-1.3.8-1.3c.7 0 1.4-.6 1.7-1.1 0-.1.1-.1.2-.2.4-.2 1.2.1 1.3-.4.2-.6.9-.4 1.2.1.3.5.6.6 1.3 0 .6-.6 1 .6.6.9-.4.3-.1 1.3.5 1.9.6.6.7-.4.6-.9-.1-.6 1-1.2 3.1-1.8 2-.7 4.2-2.2 4.3-2.5 0-.3 1.5.6 2.1.1.7-.5 3.1-.6 3.8-.6.6 0 .6-.6 1.3-1.1.7-.6.5-.8 1.3-1 .8-.2 1.3-.9 1.3-1.3s1.5-.5 1.5-.9 1.1-.5 1.1-1.1c0-.5.6-.4.9-.8.3-.4-.2-1.5.3-1.7.5-.2-.2-.8-.3-1.1-.1-.3 1-.4 1.5-.7.6-.4.9-.9 1-1.5.1-.6 1-1.2 1.4-1.3.4-.2.6-1 .5-1.8-.1-.7.7-.6.4-.8-.4-.3.2-1.1.9-1.3.8-.2-.5-.6-.9-.3s-.9-.9-1.3-.5c-.4.5-1.5-.3-.8-.5s1.8-1 2.3-1.1c.5-.2-.7-1.2-1.3-1.2-.6 0-1.3-1.4-1.9-1.4-.6 0 .5-.5 1.2-.1s1.6.7 1.9.4c.3-.3-1.3-1.6-1.8-2.1-.6-.5 0-1.1-.4-1.3-.4-.3-1.1-1.9-1.4-2.7-.3-.7-1.6-.9-1.9-1.4-.3-.5 0-1.6 1-2 1-.4.6-1.3 1-1.2.5.1.8-.1 1.2-.8.4-.7 1-.3 1.3-.7.4-.4 1.9-.4 2.5-.7.6-.4-.5-1.6-1.3-1.4-.7.2-1.6-.1-2.1-.9s-1.9 1.4-2.9 1.9-1.7-.9-1.4-1.7c.4-.9-.8-.8-2.3-.8-1.5.1-.9-2.6 0-2.7.9-.1 2.2.8 2.7-.8s1.3-.4 2.6-1.8c1.2-1.4 2.7-2.3 3.7-1.5 1.1.8-1.1 2.2-1.5 3-.4.8.3 1.1-.3 1.7-.6.6.3.8 1.5 0 1.3-.8 2.8-1.8 4-2.3.3-.1.7-.2 1.1-.1 1 .1 2.1.7 2.5 1.2.6.8-.7 1.6-1.3 2.4-.6.7.4.7.4 1.3 0 .6.8 1.1 1.1.6.3-.5.8-.3 1.7-.3.3 0 .4.1.5.3.2.4.2 1.1.7 1.2.7.1.6 1.1-.1.9-.7-.2-.7 1-.1 2s-1.2 2.1-.7 2.7c.5.5.1 1.1.3 1.5.2.3 3-.1 4.2-1.4 1.2-1.2 1.5-1.1 2.1-.9.6.2 1.2-.5.9-.9-.3-.5-.7-1.7-.6-3.2.1-.9-1.1-2.4-2.3-3.7-.8-.9-1.6-1.6-1.9-1.8-.7-.5-.3-1.7.6-1.9.9-.2 3.1-1.9 3.8-2.3.7-.4.2-1.6.8-2.7.3-.5 1.4-1.5 2.4-2.4.2-.1.4-.3.5-.4.8-.6 1.5-1 1.8-1 .8 0 1.6 1.4 2.5 1.4.9 0 5-2.7 5-3.2s2.4-2.8 3.6-3.9c1.1-1.2 2.6-2.9 3.2-4.3.4-.8 1.9-2.5 2.3-3.1.4-.6.6-.7 1.4-2.2.7-1.5.7-5.5.9-5.8.2-.3.1-.9.4-1.4.3-.4.2-1 .8-1.6.6-.5.5-1 .4-1.5-.2-.4 0-1.4-.1-1.6-.2-.3-.1-.4.3-.6.4-.2-.3-.8-.8-1.1-.6-.3-1.3-.5-1.3-1.1-.1-.6-1-1.4-1.7-1.3-.7.1-2-.4-1.9.1.2.5-.1.8-.4.7-.4-.1-.5.2-.9.8-.4.6-1.9.7-1.2.1s-.2-.6-.1-1.3c.1-.6.7-1.3-.1-.9-.7.4-.7 1.4-1.4 1.6-.6.1-.4-1.7-.3-2.2.2-.5-1.1 0-2.5-.1s-1-1 .1-1.6c1.1-.6.9-1.1 1.5-1.4.6-.2 2-1.2 2.8-1.7.8-.5 1-1 1.2-1.6.2-.6 1.7-1.2 3.1-2.4 1.4-1.1 2.1-1.8 2.4-2.5.3-.7 2.4-1.5 2.4-2s2.5-1.8 4.1-2.1c1.7-.3 4.3.1 4.8.6s.8.3 1.1 0c.3-.3.9-.2 2 0 1.1.1 1.4-.5 2.1-.3.7.2 1.4.4 1.8-.5.5-.9 2.6-.7 3.1-.4.5.4.9.8 1.7.3.8-.5.8.7 1.5.8.7.1.3.7-.4.7-.6-.1-1.5.3-.7.7.7.4 1.6-.4 2.2-.3.6.1 1.5.1 2.3-.4.8-.5 1 .4 1.6 0 .5-.5 1.7-.6 2.3-.6.6 0 .1-.7-.9-.7s-.9-.5-.2-1.8c.8-1.3 2.3-2 3.2-2.8.9-.8 1.6-.4 1.6-.9s.5-2 1.2-2 2.5.3 3.6-.3 1 .5 1.5.6c.5.2 1.1-.9 1.6-.6.5.3-.8 1.1-1.1 2-.3.9.7.6 1.2.8.5.3-.7.6-.6.9.1.3 1.2.3 2.7-1.2 1.4-1.4 2.7-1.8 3.6-1.7.9.1.4-.8.5-2.1.1-1.3 2.8-1.7 3.8-1.3.9.4.8.7 0 .5-.9-.2-1.7.6-1.6 1.7 0 1.1-.8 1.5-.4 1.9.4.4-.6.5-.6 1s0 .8-.6 1c-.6.2-2.8.4-2.9 1.3-.1.8-1.2.9-1.8 2-.5 1-2.7 1.7-4 3.7-1.4 2.1-3.6 2.1-3.6 2.5 0 .4-1.5.4-2 .4-.5.1.5 1.3-.7 2.7-1.2 1.3-2 3.2-2 5 0 1.8.6 7.2 1.2 8.1.6.9.2 3.2.7 3.7.5.5.3 1.3.6 1.6.3.3 1.5-1.3 2.3-2 .8-.7.6-.9 1.1-1.3.5-.4.3-1.8.5-2.2.2-.4 1.2-.6 1.5-1 .3-.4 1.2-.2 1.6-.3.5-.2 0-1.2-.2-1.8-.2-.6 1.3-1.5 2.1-2s1.7.4 2.6-.5c.9-.8-.1-1.7-.4-2.2-.3-.4.9-2.5 1.6-2.7.7-.2 1 .5 1.7-.1.6-.6-.6-1.5-1-1.5-.5.1-.6-1.7.5-2.5s.6-1-.1-1.2c-.7-.2-.8.1-1.4.1-.5 0-1.1-1.1-.3-2.3.8-1.1 1.6-1 1.8-1.9.2-.9 1.4-2.3 1.6-2.8.3-.5 1.5 0 1.9-.1.5-.1.3.9.8.4s1.5-2.1 2.2-2.1c.7 0 .3 1.2.5 1.9s.6-.2 2-1.2 4.5-.9 5.5-.4c.9.5 1.1 1.5 1.6 1.4.8-.2.1-1.1.9-1.3.8-.2 2.1-1 3.2-1.8 1-.7.7-.2 1.3-.9.6-.7 1.1-.4 1.3-.8.2-.5 1.6-1.2 3.7-1.7 2-.5 4.7-1.8 4.6-2.2-.1-.4.8-.6.9-.2.1.4.9.3 1.9.5 1.1.2 1.6.6 2.4-.2.8-.8-.1-1.1-.1-1.8 0-.6-1.5-1.3-1.3-2 .2-.7-1.1-2.5-1.5-2.1-.4.4-1.3-.3-1.3-.8s-.1-1.1-.7-.7c-.6.4-1.6.2-1.8-.4-.2-.6 1.2-1 2.2-.6 1 .4.7.8 1.2 1.1.5.3 1.8.2 2.5-.2.7-.3 2.6-.9 2.9-1.5.3-.6 0-.8.6-1.1.6-.3.2-1-.4-1.3-.5-.3-.4-1.1.2-1.1.6 0 .4-.7.8-.7s.5.3 1.2-.1 0 .5-.3 1.2c-.3.6.7 1.1.8 1.5.1.4 1.5.5 2.3.1.8-.4 3.3.5 3.4 1.1.2.6.5 1.4 1.6 1.9 1 .5 2 .3 2.2.8.2.5.6.7 1.2.6.6-.1.9.5 1.3.1s.6.2 1.2-.3c.5-.5-1.2-.8-1-1.2.2-.4.6.3 1.1.3.5 0-.1-1 .2-1.1.4-.1.1-2-.3-2.2-1.5 1-1.2.3-.4.9zM451.2 510.8c-.6.8-2.2-1.7-2.4-3.3-.2-1.6.9-2.4.2-3.9-.6-1.3-.9-2.5-.5-2.8.1-.1.2-.1.3-.1.7 0 1.6 2.8 1.6 4.4 0 .3 0 .6-.1.8-.4 1.1.9 3.6.9 4.6.1.1 0 .2 0 .3zm-53.4-100.4l.1-.1s-.1 0-.1.1zm-.9.6zm-.1.1l-.1.1c.1 0 .1-.1.1-.1zm.2-.2c.1 0 .1 0 0 0 .1 0 .1 0 0 0zm55.5 58.1c-.1 0-.1 0-.2-.1 0 .1.1.1.2.1zm-8.3 68.7zm-1.6-8l-.1-.1.1.1c0-.1 0 0 0 0zm-1.9-32.5c-.5-.8-1-1.9-1.6-2.2-1.1-.6-1.5-7.9-1-8.1.1 0 .1.1.2.2.2.4.3 1.3.5 2.3.3 1.7.7 3.6 1.3 4.2 1.1 1 .9 2.2 1.2 2.9.2.7 1.2 1.5.5 1.7-.3.1-.7-.4-1.1-1zM407 474.6h.2-.2zm2.3-12.7c0 .1.1.2.1.3 0-.1-.1-.2-.1-.3zm-.3-.7c.1.2.1.4.2.5-.1-.2-.1-.3-.2-.5zm.6 1.4c0-.1-.1-.2-.1-.3 0 .2.1.3.1.3zm-2.7 12h-.2.2zm-.6 0h.2-.2zm.9 0h.2c-.1-.1-.1-.1-.2 0zm19.1-17.7zm-.2-.3zm-.3-.4c0 .1 0 .1 0 0 0 .1 0 .1 0 0zm15.5 28.5c0-.1 0-.1 0 0 0-.1 0-.1 0 0zm.3-.1s.1 0 .1-.1c-.1 0-.1.1-.1.1zm-.6.1zm-.8-2.5s.1 0 .2-.1c-.1 0-.2.1-.2.1zm1.6 2.3c.1 0 .1-.1.1-.2 0 0-.1.1-.1.2zm-1.3-2.4c.1 0 .1 0 .2-.1-.1 0-.1 0-.2.1zm.3-.1c.1 0 .2 0 .2-.1 0 0-.1 0-.2.1zm-6.4-14.1l-.5-1.3.5 1.3zm-23.2 5.6c0 .1-.1.1-.1.2 0-.1 0-.2.1-.2zm-.3.5zm-1.2-11.2c.1.1.1.2.2.2-.1-.1-.2-.1-.2-.2zm-2.9-12.4h-.1c.1 0 .1.1.2.1 0-.1 0-.1-.1-.1zm-.3-.2s0 .1 0 0c0 .1 0 0 0 0zm-.8 24.4h-1c.4-.1.7 0 1 0zm.4 0h-.3.3zm18.8 44.4zm.9-.2zm-.3.1zm1.6-.3h-.1c0 .1 0 0 .1 0zm.4 0h-.2.2zm.3 0h-.2.2zm.4-.1h-.2c0 .1.1.1.2 0zm1 .3c0-.1 0-.1 0 0 0-.1 0-.1 0 0zm-.1-.1c0-.1 0-.1 0 0 0-.1 0-.1 0 0zm-.1-.1h-.1.1zm-.2 0h-.2.2zm-.2-.1h-.3.3zm9.4 10.3c0-.3-.1-.8-1.1-.9 1 0 1.1.5 1.1.9zm2.5-16.1c.1 0 .2-.1.4-.1-.2 0-.4.1-.4.1zm6.7-11.8s0 .1 0 0c0 .1 0 0 0 0zm.1.3s0 .1.1.1l-.1-.1zm.1.3s0 .1.1.1c0 0 0-.1-.1-.1zm.3.6c0 .1 0 .1.1.2 0-.1-.1-.1-.1-.2zm-.1-.3c0 .1 0 .1.1.2-.1-.1-.1-.2-.1-.2zm.3.8v-.2c-.1.1 0 .1 0 .2zm-5.7 9.5h-.1.1zm-1 .3h-.1.1zm0-30.5c.5-.1 1-.3 1-.3s-.5.1-1 .3zm1.5-10.7zm.3 0zm.2-.1zm.3-.1h.2-.2zm-38-21.9zm-.3 0zm-1-22.2c.1 0 .2 0 .3.1-.1 0-.2-.1-.3-.1zm.5.1c.1 0 .2.1.3.1-.1 0-.2 0-.3-.1zm-1-.2h.2c-.1.1-.1.1-.2 0zm-.5 0h.2-.2zm1.5 47.7h-.5.5zm36.3 54.9c-.1 0-.1 0 0 0-.1 0-.1 0 0 0zm1.4.2h-.1c0-.1 0-.1.1 0zm-.4-.1zm5.9-26.8zm-.5-19.1c-.6.3.9 1.2.1 1.4-.7.1-2.4-.7-3.5-.2-.8.3-.6-1.6 0-3.4.4-1.1 1-2.2 1.7-2.4.9-.3 2-.2 2.9.1.9.2 1.5.5 1.4.8-.1.5-1.6.3-1.6 1.4v.2c0 1.1-.4 1.9-1 2.1zm5.2-14.5c.1 0 .2.1.4.1-.1 0-.2 0-.4-.1zm-41.9-42.3l-2 1.1-1.7.9 3.7-2zm-5.5.4c.1.1.3.1.4.2-.1-.1-.3-.2-.4-.2zm-2.8-.4s-.1 0 0 0c-.1 0 0 0 0 0zm.5 0h-.1.1zm-.3 0h-.1.1zm-4.6-16.6l.2-.2c-.1 0-.1.1-.2.2zm-.3.3l-.1.1c0-.1 0-.1.1-.1zm-20 44.7h.3-.3zm4.7-3.1h-.2c.1-.1.1-.1.2 0zm-5.5-20.9s.1 0 0 0c.1 0 0 0 0 0zm.4.2c.1.1.2.1.3.2-.2-.1-.2-.1-.3-.2zm.4.3c.1.1.2.1.2.2 0-.1-.1-.1-.2-.2zm-18.9 25.2zm-.2.1zm-1.1 6.4zm.1-.3zm-6.7-11v-.7.7zm-2.1-5.2zm2.1 4.1v-.2.2zm0 .3v-.2.2zm0 .9zm-2.3-5.6zm-.2-.3zm-.2-.2c-.1 0-.1-.1 0 0-.1-.1-.1 0 0 0zm4.8 15s0 .1 0 0c0 0 0-.1-.1-.2.1.1.1.2.1.2zm5.1 1.4c0 .1-.1.1-.1.2.1-.1.1-.2.1-.2zm-.7-44.3s0 .1 0 0c0 .1 0 0 0 0zm.2.2c.1 0 .1 0 0 0 .1 0 .1 0 0 0zm.4.2zm1 .6s0 .1 0 0c0 .1 0 0 0 0zm.5.4c.1 0 .1 0 0 0 .1 0 .1 0 0 0zm.6.4l.1.1s0-.1-.1-.1zm3.7 36.5zm.9.5zm4.9.9zm.1 0h.1s0 .1-.1 0c0 .1 0 0 0 0zm.2 0c0-.1.1-.1 0 0 .1-.1 0-.1 0 0zm6.1-11.5h-.2.2zm-.4-.1c-.1 0-.2 0-.3-.1.1.1.2.1.3.1zm-.3 0c-.1 0-.2-.1-.2-.1.1 0 .1 0 .2.1zm1.5 8.7h-.2.2zm.7.2h-.3c.1-.1.2-.1.3 0zm4.1-2.5zm.2-.5c0 .1 0 .1 0 0 0 .1 0 .1 0 0zm-.1.2s0 .1 0 0c0 .1 0 0 0 0zm.2-.3zm.2-.1h-.1.1zm1.4 1.2c.1 0 .1 0 0 0 .1 0 .1 0 0 0zm.3-.1zm.2-.1c0-.1.1-.2.1-.3-.1.1-.1.2-.1.3zm1.3-16h-.2c.2 0 .3-.1.4-.1 0 0-.1.1-.2.1zm-6.9-4.8c.1 0 .1.1.1.1l-.1-.1zm-.3-.2c.1.1.1.1.2.1-.1 0-.1-.1-.2-.1zm-32.7 20.4c.1 0 .1-.1.2-.1-.1 0-.1.1-.2.1zm.5-.8v.2c-.1-.1 0-.1 0-.2zm-.1.2c0 .1 0 .1-.1.2.1 0 .1-.1.1-.2zm-.1.3l-.1.1c.1 0 .1-.1.1-.1zm.2-.5v-.2.2zm7.1 10c0 .1-.1.2-.1.3 0-.1.1-.2.1-.3zm0-.1v-.2.2zm10.5-5zm11.7-1zm.1 0zm0 0c.1-.1.2-.7.7-.6h-.3c-.2.2-.3.5-.4.6zm26.3 18.9h.1-.1l-.4.1-.5.2.9-.3zm38.3 54.6zm.7.4zm-.3-.1zm26.1-76.4zm.3-.4s.1-.1 0 0c.1-.1 0 0 0 0zm.3-.4c0-.1 0-.1 0 0 0-.1 0-.1 0 0zm-12.7-6.8zm0 .3zm.2 1.5c0-.2-.1-.5-.1-.7 0 .3 0 .5.1.7zm-.2-.7v-.4.4zm174.6-86.8c.1 0 .2.1.3.1-.1 0-.2 0-.3-.1zm.5.4c0-.1-.1-.1-.2-.2.1 0 .2.1.2.2zm-.5-.4zm-.8-.2h-.3.3zm-.5 0c-.1 0-.2 0-.3.1.1-.1.2-.1.3-.1zm-19.2 87.7zm0 .4c0 .1 0 .1 0 0 0 .1 0 .1 0 0zm0 .7zm-22.9-32.6zm-75.9-2.5l-.2-.2c.1.1.2.1.2.2zm-13.3-30.8l.3.3-.3-.3zm.9.5h.2-.2zm6.6-11.7c.7-1 1.7-.2 2 .1.3.2.1-1.1.9-1 .8.1-.1 1.3.5 1.3.5 0 1.5 1.6 1.2 2.9-.1.4-.3.7-.6.9-1.6 1.2-3.2 1-2.7-.5.5-1.4.6-3.1-.3-3.1-.8 0-.3 3-.9 3.2-.6.2-.8-2.2-.3-3.4.1-.2.1-.3.2-.4zm45.3-2.6c.5.1-.5 1-2.3 1-1.8 0-5.8-.9-7.4.8-1.6 1.7-.5 2.7-1.2 2.8-.8.1-1.2-2.7-.3-3.6.9-.9 3.8-1.3 5.6-.8 1.9.5 5.2-.4 5.6-.2zm2.9 43.6c-.1 0-.1 0 0 0-.1 0-.1 0 0 0zm.1-.2zm-3.5-10.4c0-.1 0-.1 0 0 0-.1 0-.1 0 0zm0-.4v-.1.1zm-.1-.4s0 .1 0 0c0 .1 0 0 0 0zm-.1 1.6zm-10.9-14.4s-.2 0-.4.1c.2-.1.4-.1.4-.1zm-7-1.8h-.1.1zm-.9 0zm1.3-.1zm.6 0zm.4-.1h.1-.1zm.3-.1s.1 0 0 0c.1 0 0 0 0 0zm-7.2 8.6c-.1 0-.1 0-.2-.1.1 0 .1.1.2.1zm-.3-.2c-.1 0-.1-.1-.2-.1.1.1.1.1.2.1zm.8 0c0 .1-.1.1-.2.2.1 0 .1-.1.2-.2zm-.3.2h-.2.2zm7.8.8zm.6 0h-.1.1zm-.3 0c-.1 0-.1 0 0 0-.1 0-.1 0 0 0zm.7-.1c-.1 0-.1 0-.2.1.1-.1.1-.1.2-.1zm3.2-2c-.4 0-1 .5-1.6 1 .6-.5 1.2-.9 1.6-1zm1.3.7zm.3 0h.2c-.1.1-.1 0-.2 0zm12.8-12.9v-.1.1zm0-.3v-.4.4zm1 30.8v-.1.1zM530 382.2c-.1 0-.1 0 0 0-.1 0-.1 0 0 0-.1 0-.1 0 0 0zm-.3-.1zm-.3 0h-.2.2zm-.7.2c.2-.1.3-.1.4-.1-.1 0-.3 0-.4.1zm-19 15.9zm-.1.2s-.1 0 0 0c-.1 0 0 0 0 0zm-.1.2c-.1.1-.1.1 0 0-.1.1-.1.1 0 0zm.7-.6zm11.4-4.9c-.5.1-.9-.1-1.3-.3.4.2.8.4 1.3.3zm-11.5-23.4c-.3.4-2.8-.3-3-.8-.3-.6 3.6.1 3 .8zm13.7 24h-.2.2zm.3.1c-.1 0-.1-.1-.2-.1.1.1.1.1.2.1zm.2.2c-.1 0-.1-.1-.2-.1.1 0 .2.1.2.1zm15 0c.2.1.3.2.4.3.1 0 .3-.1.4-.1-.1 0-.2 0-.4.1-.1-.2-.2-.2-.4-.3zm1 .1h-.1c0 .1 0 0 .1 0zm6.3 4.3zm.3.3s-.1 0 0 0c-.1 0 0 0 0 0zm4.9 13.6zm-.1.1c-.1.1-.1.1 0 0-.1.1-.1.1 0 0zm.6-.7s.1 0 0 0c.1 0 0 0 0 0zm.2-.2s0 .1 0 0c0 .1 0 0 0 0zm13.4-50.4s0-.1 0 0c0 0 .1 0 0 0 .1 0 .1 0 0 0zm2.4 55.4c.1 0 .1-.1.2-.2l-.2.2zm.8.9zm.1 1c-.1-.1-.1-.3-.1-.5 0 .2.1.4.1.5zm6.4-1.3s.1 0 0 0zm-.3.1c.1 0 0 0 0 0zm.5-.2zm.2 0c0-.1 0-.1 0 0 0-.1 0-.1 0 0zm.2-.1zm-8.6-55.4zm.1 55.4zm-.1.1s0 .1 0 0c0 .1 0 0 0 0zm.6-.4s-.1 0 0 0c-.1 0 0 0 0 0zm1 1.8c0 .1.1.1.1.2 0 0 0-.1-.1-.2zm.2.2c0 .1.1.1.1.1s-.1 0-.1-.1zm.1.2l.1.1s0-.1-.1-.1zm.2.1zm15.2-3.7zm19.5 33.4c-.2-.1-.4-.2-.7-.3.3.1.5.2.7.3zm-9.2-16.2s-.1 0 0 0c-.1 0 0 0 0 0zm-2.8 1.5c-.1 0-.1.1-.2.1 0 0 .1-.1.2-.1zm.3-.2c-.1 0-.2.1-.3.1.1 0 .2 0 .3-.1zm.2 0c0-.1 0-.1 0 0 0-.1 0-.1 0 0zm.2-.2zm2.7-3.9c.1.1.1.1.3.1-.1 0-.2 0-.3-.1zm.3.1c.1 0 .2 0 .3-.1-.1.1-.2.1-.3.1zm.7-.2l-.1.1c-.1 0-.1 0-.2.1.1-.1.2-.2.3-.2zm.5-.4l-.3.3.3-.3zm6.4 19.2c-.1-.1-.2-.1-.3-.2.1 0 .2.1.3.2zm.9.4zm.2-96.5c.9-1.9 4.2-2.9 5.8-5.5 1.2-1.8 2.1-4.7 2.8-4.5.7.2-.6 6.1-2.4 7.8-1.8 1.6-5.5 2-5.5 3.4s-4.5 2-4.9 1.5c-.3-.6 3.4-.7 4.2-2.7zm-37.9 9.3c-.1 0-.3-.1-.4-.1.1 0 .3 0 .4.1zm-.7-.2zm-.5-.6c-.1 0-.1-.1 0 0-.1-.1-.1 0 0 0zm-67.9 22s-.1 0 0 0c-.1 0 0 0 0 0zm-.1 0s-.1 0-.1.1l.1-.1zm-.2.1h-.1.1zm-.4 0c-.1 0-.1 0-.2-.1.1.1.1.1.2.1zm-.3 0c-.1 0-.1-.1-.2-.1.1 0 .2 0 .2.1zm-35.3 23.3zm-.1 0s-.1 0 0 0c-.1 0 0 0 0 0zm-.1 0h-.8.8zm5.5-12.8l.8.2-.8-.2zm7-5.1c-.1-.1-.2-.1-.3-.2.1.1.2.2.3.2zm-.4-.3c0-.1-.1-.1-.1-.2 0 .1.1.2.1.2zm-.1-.3c0-.1 0-.1-.1-.2 0 .1 0 .2.1.2zm2.5 1.5c.2 0 .3 0 .5-.1-.2.1-.4.1-.5.1zm-1.3-5zm-.1-.3c0 .1.1.1.1.2-.1-.1-.1-.1-.1-.2zm-.6-1s0 .1 0 0c0 .1 0 0 0 0zm-.7 4.3c0-.1-.1-.1-.1-.2 0 0 .1.1.1.2zm-.1-.3l-.1-.1c0 .1 0 .1.1.1zm-.5-.2c.1 0 .2.1.3.1-.1 0-.2-.1-.3-.1h-.2.2zm-.6 1.1s0-.1 0 0c0-.1 0 0 0 0zm.1-.2zm-1.9-2.8zm4.7 28.7s-.1 0 0 0c-.1 0 0 0 0 0zm-.3 0zm.9.1c-.1 0-.1 0 0 0-.1 0-.1 0 0 0zm-.4-.1zm1.5-24.4c.2 0 .3-.1.5-.2-.2.1-.4.2-.5.2zm.6-.2zm-.1-7.2zm1.9 6.1c.1-.1.2-.2.3-.2-.1.1-.2.2-.3.2zm-3.1-6.8c-.1 0-.1-.1-.2-.1.1 0 .2.1.2.1zm-.3-.1h-.2c.1-.1.2-.1.2 0zm-54.1 3.1zm-1.1-3.6c-.1-.1-.3-.2-.5-.3l.6.4-.1-.1zm3.9-.4c0 .1 0 .1.1.2-.1 0-.1-.1-.1-.2 0 .1 0 .1 0 0zm9.5-38.2c.1-.1.2-.2.3-.2-.2 0-.3.1-.3.2zm-.3.5zm-6.6 12.5s0-.1 0 0c0-.1 0 0 0 0zm0-.2v-.2c-.1.1-.1.2 0 .2zm-.1-.2v-.2.2zm0-1.4zm0 .3zm0 .3zm0 .6v-.3.3zm-1.6 10.4v-.2c.1.1.1.1 0 .2zm-.8 10.8l.1-.1s-.1 0-.1.1zm.1-.8s0-.1 0 0c0-.1 0 0 0 0zm0-.2v-.2c-.1.1 0 .2 0 .2zm-.6-11.4c0 .1 0 .2.1.3-.1-.1-.1-.2-.1-.3zm.1.4c.1.1.1.2.2.3-.1-.1-.1-.2-.2-.3zm.3.3l.2.2-.2-.2c0 .1 0 0 0 0zm.6.4c-.1 0-.2-.1-.3-.2.1.1.2.2.3.2.1 0 .2.1.2.1s-.1-.1-.2-.1zm0-2.7v-.1.1zm.1-.2c0-.3-.1-.8-.1-1.1 0 .3.1.8.1 1.1zm-.2-1.3zm-3.7 9.5s-.1 0-.1.1c0 0 .1 0 .1-.1zm-.5.4l-.1.1c0-.1 0-.1.1-.1zm-.3.2s0-.1 0 0c0 0-.1 0 0 0-.1 0-.1 0 0 0zm4 9.4v-.3c.1.1.1.2 0 .3zm.3-4.2zm.4-10.4l.2-.2c0 .1-.1.2-.2.2zm.2-.4s0-.1 0 0c0-.1 0-.1 0 0zm7.9-.6s-.1 0-.1.1c0 0 .1 0 .1-.1zm.8-.3c-.1 0-.2.1-.3.1.1 0 .2 0 .3-.1zm-.4.2c-.1 0-.1.1-.2.1 0-.1.1-.1.2-.1zm.9-.3c-.1 0-.3.1-.4.1.1 0 .2-.1.4-.1zm.8-.2c-.1 0-.2 0-.3.1.1-.1.2-.1.3-.1zm-.4.1c-.1 0-.2.1-.4.1.1-.1.3-.1.4-.1zm.7-.2h-.3.3zm1.1-24.2c.1.1.1.2.2.3-.1-.1-.2-.2-.2-.3zm.2.3c0 .1.1.2.1.3-.1-.1-.1-.2-.1-.3zm-1.1-2.8c-.1-.1-.2-.2-.2-.3 0 .2.1.2.2.3zm-.4-.5s0 .1.1.1c-.1 0-.1-.1-.1-.1zm-8.4 11.3v-.2.2zm-.1-.4s.1 0 0 0c.1 0 0 0 0 0zm-.1-.1c0-.1-.1-.1 0 0-.1-.1 0-.1 0 0zm-.4-.3s.1 0 .1.1c0 0 0-.1-.1-.1zm-.3-.2c.1 0 .1 0 .2.1-.1 0-.1 0-.2-.1zm-.6-.2h.2c-.1.1-.1.1-.2 0zm.3.1c.1 0 .1 0 .2.1-.1 0-.1-.1-.2-.1zm-.5-.1zm0-1.3v-.3.3zM413 363.9c0 .1.1.1.1.2 0-.1 0-.2-.1-.2zm-.4-.9s.1.1 0 0c.1.1 0 0 0 0zm.3.6zm-1.3 4.9c-.1.1-.1.1-.2.1.1 0 .2-.1.2-.1zm-.2.2c-.1 0-.1.1-.2.1.1-.1.2-.1.2-.1zm1-6.3s0 .1 0 0c0 .1 0 0 0 0zm-5.9.2s0-.1 0 0c0-.1 0 0 0 0zm2.2-6.9v-.2c.1.1 0 .1 0 .2zm-3.1 7.5s-.1 0 0 0c-.1 0 0 0 0 0zm-.2.1zm-1.7 5s-.1-.1 0 0c-.1-.1 0 0 0 0zm7.3.7l-.1.1.1-.1zm-.4.3c-.1 0-.1 0 0 0-.1 0-.1 0 0 0zm7 3.8s0 .1.1.2c-.1-.1-.1-.2-.1-.2zm.1.2zm-.4 3.3s-.1 0 0 0c-.1 0 0 0 0 0zm-.2.2l-.1.1c0-.1 0-.1.1-.1zm-.3.3c0 .1-.1.1-.1.2 0-.1.1-.2.1-.2zm.6-.6c.1 0 .1 0 0 0 .1 0 .1 0 0 0zm.4-1.6v-.9.9zm-.3 1.5s0-.1.1-.2c0 .1 0 .1-.1.2zm.1-.3c0-.1 0-.2.1-.3 0 .1-.1.2-.1.3zm.1-.3v-.4.4zm0-.4v-.4.4zm0-1.8zm1.9 6.2zm-.3-.2c-.1 0-.1 0 0 0-.1 0-.1 0 0 0zm-.3-.1c-.1-.1-.1-.1 0 0-.1-.1-.1-.1 0 0zm-.3-.2s-.1 0 0 0c-.1 0 0 0 0 0zm5.5.4zm8.8 1.4c0 .1 0 .1 0 0 0 .1 0 .1 0 0zm0 .2zm0-.3zm5.2-11.3zm-.1.2s0 .1 0 0c0 .1 0 0 0 0zm-.2.3s0 .1 0 0c0 .1 0 0 0 0zm-.2.3s0 .1 0 0c0 .1 0 0 0 0zm-.2.3s0 .1 0 0c0 .1 0 0 0 0zm1.5-75.6zm.3-.4zm.3-.2zm.2-.1c0-.1 0-.1 0 0 0-.1 0-.1 0 0zm.2-.1c0-.1.1-.1 0 0 .1-.1 0-.1 0 0zm4.1 56.9c0 .1.1.2.1.3 0 0 0-.1-.1-.3zm-21.2-54.1c-.1 0-.1-.1-.2-.1.1 0 .1.1.2.1zm-1.1-.9zm-.5-.4c.1 0 .1.1.2.2-.1-.1-.3-.2-.4-.3 0 0 .1 0 .2.1zm13.8 39.5c0 .1 0 .1 0 0 0 .1 0 .1 0 0zM416.5 360l.3.3-.3-.3zm-.1-.1c0-.1-.1-.1-.1-.2 0 0 .1.1.1.2zm-.3-.6s0-.1-.1-.1l.1.1zm-7.3-3.9v-.2.2zm-.1-.3c0-.1-.1-.2-.1-.3.1.1.1.2.1.3zm-11.4 10.8zm-.1 1.1v-.1.1zm1.6.5h-.1.1zm-9.3-9zm0 0c0-.1.1-.1.1-.2 0 .1-.1.1-.1.2zm1 2.1zm-.7-2.5zm-.4-1.8c0-.2 0-.3.1-.6-.1.2-.1.4-.1.6zm0-.7v-.3c.1.1 0 .2 0 .3zm.1-.5c0-.2.1-.3.1-.4 0 .1-.1.3-.1.4zm-.7 5.2c-.1 0-.1 0 0 0-.1 0-.1 0 0 0-.1 0-.1 0 0 0zm.3 0zm.4.1c-.1 0-.1 0 0 0-.1 0-.1 0 0 0zm2.2 11.2c-.2-.1-.4-.5-.2-1.1-.2.6-.1 1 .2 1.1zm.8-5.7zm.1-.2zm.2-1.4c0 .1 0 .2-.1.3.1-.1.1-.2.1-.3zm-.1.5zm6.3 2.8zm.4.1c-.1 0-.1 0-.2-.1.2.1.3.1.4.2 0 0-.1 0-.2-.1zm4 .5zm12.4 10.5c0 .1-.1.2 0 .3v-.3zm.8-1.3c-.1.1-.1.2-.2.3 0-.1.1-.2.2-.3zm-.4.4c-.1.1-.1.2-.2.3.1-.1.2-.2.2-.3zm-.2.5c0 .1-.1.2-.1.2s0-.1.1-.2zm1.5 2zm.3-.5zm4.2 4.1zm11.2-1.9c0 .1.1.3.1.4-.1-.1-.1-.3-.1-.4zm-.1-.4c0 .1.1.2.1.3-.1-.1-.1-.2-.1-.3zm11.5-29.2zm.1.1zm.2 0zm19.6 47.9s-.1 0-.1.1l.1-.1zm-6.8 3.5c-.1.1-.1.1 0 0-.1.1-.1.1 0 0zm-.3.2s-.1 0-.1.1c0-.1 0-.1.1-.1zm-.3.1h-.2.2zm-4.3 8.7c-.1 0-.1 0-.2-.1.1.1.1.1.2.1zm-.3-7.9zm-.3 3.3s-.1 0 0 0c-.1 0 0 0 0 0zm-.1.4s-.1 0 0 0c-.1 0 0 0 0 0zm.1 4c-.1 0-.2-.1-.2-.1.1 0 .2.1.2.1zm0-4.8v-.2.2zm.1-.6v-.2.2zm0-.6v-.3.3zm.1-.6v-.3.3zm0-.5v-.2.2zm.1-.7c0-.2 0-.3.1-.5 0 .2-.1.4-.1.5zm-1.1 7.4c.1.1.2.1.3.2-.1-.1-.2-.2-.3-.2zm35.8 25.2h.2-.2zm-.5.2h.1c0-.1 0-.1-.1 0zm8.8-9h.2-.2zm-.3 0h.2c-.3 0-.6 0-1.1-.1.3.1.6.1.9.1zm-1 0h-.3c.2-.1.3-.1.3 0zm-.4-.1h-.2.2zm-.4 0h-.2.2zm-.5-.1h-.1.1zm-1.5-.2zm-.3 0c-.1 0-.1 0 0 0-.1 0-.1 0 0 0zm-.3-.1c-.1 0-.1 0 0 0-.1 0-.1 0 0 0zm-.3 0s-.1 0 0 0c-.1 0 0 0 0 0zm-.2 0c0-.1-.1-.1 0 0-.1-.1 0-.1 0 0zm1.5 7.9c-1.1.4-2.3.7-3.3 1.1-.1 0-.1 0-.2.1 1.1-.4 2.4-.8 3.5-1.2zm3.5-1.2s-.1 0-.1.1c0-.1 0-.1.1-.1zm-.2 0c-.1 0-.1.1-.2.1 0 0 .1 0 .2-.1zm-.3.1c-.1 0-.2.1-.4.1.2 0 .3 0 .4-.1zm-.4.2c-.1 0-.3.1-.4.1.1 0 .2 0 .4-.1zm-.6.2c-.2.1-.3.1-.5.2.2-.1.4-.1.5-.2zm-.5.2c-.2.1-.4.1-.6.2.2-.1.4-.1.6-.2zm-.8.2c-.2.1-.4.1-.5.2.2 0 .3-.1.5-.2zm-4.7 1.6c.1 0 .2 0 .3-.1-.2 0-.2 0-.3.1zm5.3-43.1c-.3.5-2.8 1-4.7 1-1.9.1-2-2.4-4-2.4-1.5 0-2.6-1.3-2.6-2.6 0-.5.1-.9.4-1.3 1.1-1.4 1.9-3.5 1.3-4.7-.3-.5-1.1-1.5-2-2.5-1.2-1.5-2.5-3.2-2.5-3.8.1-1.1.5-1.8-.8-3-1.4-1.2.1-1.9 1.1-3.2.9-1.1 2.7-1.6 3.9-2.4.1-.1.3-.2.4-.3 1.1-1 3.1-1.9 4.6-1.5 1.5.4 2.7-.3 3.4.6.6.9 0 2.6.3 3.2.3.6-1.2.7-2.1.6-1-.1-3 .4-2.7 1 .3.6 1 1.9-.3 1.2s-1.8.7-1.1.7 1.7.8 1.7 1.4c0 .6.1 1.9.7 1.7.6-.2.6 1 1.6.9.9-.1 1.7.3 1 1.1s.5 3.2.7 2.7c.2-.3 0-1 .3-1.5.2-.3.4-.4 1-.4 1.6.1.8 1.9 1.7 2 .8.1 1.8 1.4 1 1.3-.8-.1-1.4.7-2.2.5-.8-.3-1.7-.9-2 0-.3.9-.6 1.9.5 1.8 1-.1.8.6.1 1.4-.7.7 1.1-.1 1.2.5.1.6.7.7.5 1.7-.2.7 0 2 0 2.9-.3.8-.3 1.2-.4 1.4zm15.8 18l.1.1c.1.1.3.2.4.4-.2-.1-.4-.3-.5-.5zm-.3-.4c0 .1 0 .1 0 0 0 .1 0 .1 0 0zm.1.2l.1.1c-.1 0-.1 0-.1-.1zm1.1 1.1l.1.1c-.1 0-.1 0-.1-.1zm34.7-13.7s.1 0 0 0c.1 0 0 0 0 0zm.3-.3c0-.1.1-.2.1-.3 0 .1-.1.2-.1.3zm-.1.2c0-.1 0-.1 0 0 0-.1 0-.1 0 0zm.4-.8c.1-.1.1-.2.1-.3 0-.1.1-.2.1-.2s-.1.2-.2.5zm-.2.3c0-.1.1-.1.1-.2 0 0 0 .1-.1.2zm1.6-.6s-.1-.1 0 0c-.1-.1 0 0 0 0zm-.2-.2zm-.1-.1zm30.7 32.9zm-.4.9zm-.1.2zm.8-1.4c.1 0 .1-.1.2-.1-.1 0-.2 0-.2.1zm7.8-15.3c0 .1.1.1 0 0 .1.1 0 .1 0 0zm.2.2s.1 0 0 0c.1 0 0 0 0 0zm.7.2c.1 0 .1 0 0 0zm-.2-.1zm.1.1c.1 0 .1 0 0 0 .1 0 .1 0 0 0zm6.4 18.3c-.1 0-.1.1-.1.2-.1-.1 0-.1.1-.2zm16.3 14.9zm.2.6c0 .1 0 .1.1.2 0-.1 0-.2-.1-.2zm-95.9-205.2c.5-.6-.8-.6-1-1.2-.1-.6-3.8-.7-3.6-.1.2.6-2.5 1.4-1.7 2 1.7 1.3 5.9-.1 6.3-.7z"/><path class="st1" d="M495.4 277c1.2.1-.7.3-.6 1.2.1 1-2 .3-1.9 1 .1.6-.3 1.1-1.6 1.1-1.2 0 .6.8.7 1.5.1.7-1.2.2-1.3 1.3-.1 1.1-2.4 0-2.7 1.4-.3 1.4 1.2 1.2 2.2 1.3 1 .1-.4 1 .4 1.6.8.6 1.4.4.8-.7-.5-1.1 2.7.4 1.7 1.2-1 .8 1.6 1.5 2.8 1.6 1.2.1 5.6 1 5.7 0 .1-.6-1.6-1.2-3-2.7-1.4-1.4-2.3-3.8-.8-4.7 1.6-1 .2-1.4 1.7-2.5 1.6-1.1.6-2.1 1.9-2.3 1.3-.1-.1-1.3 1.2-1.5 1.3-.2 1.6-1.6 1.4-2.1-.2-.5 1.4.1 2.1-.7.7-.8 2.4-.3 2.9-1.4.5-1.1 8-3.6 12.2-4.6 4.2-1 7.1-2.7 5.6-3.9-1.5-1.2-5.7.5-6.7 1.3s-2.5.3-3.6.8c-1 .6-3.2 1.1-4.3.4-1.1-.7-2.4.8-3.2.8-.8-.1-1.8.8-2.7.8-.9-.1-2.7.7-2.8 1.2-.1.5-1.7.4-1.7 1s-1.2 1.2-1.9.6c-.6-.6-1.4.6-.5 1.5.9.8-1.7.9-1.2 1.4.5.5-1 .8-.6 1.4.3.6-.9.8-1.9 1-1 .3-1.5 1.6-.3 1.7zm-11.1-32.8c.9.6-2.5.5-3 1.1-.5.6-2.4.4-2.1 1.2.4.8 3.6.8 3.6.2 0-.6 1.7-.1 1.7-.6.1-.6.8-1.2 2.6-1.4 1.8-.1 1.8-.8.1-1.6-1.6-.8-3.8.5-2.9 1.1zm-2.8 52.3c1.7 1.6 3.2-.7 4.1-.8.8-.1-.5-1-1.9-1.4-1.5-.5-3.5 1-2.2 2.2zm-3.3-51.7c1.5-1.4 3.4-.1 3.7-.7.3-.6-2.8-.8-3.9-.3-1.1.6-3.7.1-3.4.8.2.5 2.1 1.6 3.6.2zm207.1 111.1c.5 1.2-.7 7.4-.2 8.4.5 1-.8 5.6-.4 6.1.8.9.3-1.2 1.4-1.4 1.2-.2 1.2 1.3 1.9 1.6.7.3.3-2.1-.4-1.9-.6.1-1.2-1.6-1.5-2.6-.3-1 .6-2.3.6-3.6 0-1.3 1.6-1.2 2.6-.3 1 1 1.1.3.7-.4-.4-.7-1.6-5.9-2.3-7.8-.7-1.9 1-3.7-.3-4.7s-.8-3-1.4-2.6c-.6.4 0 2.1-1 2.3-1 .1-.1 1.1-.5 2.4-.3 1.5.3 3.3.8 4.5zm-66-81.9c-.3.5-1.7.6-1.3 1 .6.8 3.9.4 3.9-.6.1-1.1-2.4-.9-2.6-.4zm147.3 15.2c1.3.6 2.1-.8 3.1-.1 1 .7 3.6-.3 4.6-.5 1-.2.5-1.5-2.4-1.9-2.9-.4-6.7 1.8-5.3 2.5zm-83.5-14.1c0-1-3.5.4-2.1.8.8.3 2.1.2 2.1-.8zm-91.8-17.3c.9.5 3.8-.6 5.8-.6 1.9.1 7.4-1.5 7.6-2.5.2-1-2-1-2.8-1.9-.8-.9-2.7-.1-3.2.6-.5.8-1 .1.3-1.2 1.2-1.2-1.2-2.2-1.3-1.4-.1.8-2.3.1-2.3.8 0 .7-.8 1-.8 1.7.1.7-1.6-.4-1.6 1.2-.2 1.8-2.7 2.8-1.7 3.3zm83.5 13.3c.9.5 1.2.9 1.7 1.4.5.5 2.5-.3 3.2-.5.8-.3.8 1.2 2.1.4 1.2-.8 2.5-.4 3.9-.4s-.3-1.7-.2-2.5c.1-.8 1.7-.3 1.2.4-.5.6.8 2.1 2.8 2 2.1-.1.5-1.4 1.6-1.9 1-.5.9-1-.6-1.9-1.5-.9-3.4-.3-4.7-.9-1.4-.6-3-.6-3.1.8-.1 1.4-2.8-1.6-4.2-2-1.5-.4-5.9 4.1-3.7 5.1zm-93.5-22.4c0 .7-2.1 1.4-1.5 1.9.5.5 1 .3 1.6.5.6.1 1 1.7 2.1 1.5 1.2-.3 4.3 1.3 6.2 1.3 1.9 0 2.1-1.6 1.5-1.6-.6-.1-.1-1 1-2.5 1-1.5-3.2-2.6-3.2-1.4 0 1.2-1.2-.3-1.6-1-.4-.7-6.1.6-6.1 1.3zm113.1 22.4c1.6.1 2.3 1.6 5.3 1.8 3 .2 5.2-.4 5.2-1 .1-.6-2.7-1.6-3.6-1.1-.8.5-1.5-.8-2.5-.5-1 .3-2.5.3-3-.6-.4-1-2.2 1.3-1.4 1.4zm-6.1 8.3c1.2-.3-.8-2.4-2.8-2.7-2-.3-3.9 1.3-3.6 1.7.5.8 5.2 1.3 6.4 1zm-112.1-37.1c.3-1-4-.5-2.9.4.3.3 2.6.5 2.9-.4zm-27.3 38.6c1 .5 1.8.3 1.7-.7-.1-1-2.5.3-1.7.7zm-18.9-1c.8.1 3.1-.3 3.4-.8.3-.5-.9-1-2.4-1-1.5.1-1.7 1.7-1 1.8zM517.5 244c2.5-.3 2.4-1.6 1.1-1.9-1.3-.3-1.5.8-2.1.7-.6-.1-3.1.4-2.6 1 .6.6 2.4.3 3.6.2zm-15-.8c.2-1.4-2.1-.3-3.8-1-1.7-.7-2.7-.7-1.6.3.5.5-2.9.8-2.3 1.4 1.3 1.3 7.5.7 7.7-.7z"/><path class="st1" d="M577.8 246.9c1.2.5.8.8-.5.8s-2.4.4-1.6.8c.6.3.6 1 1.9 1.3 1.4.3 2.7-.8 2.6-1.6-.1-.8 4.7-1.5 6-1.8 1.3-.3-.8-1.7.6-1.8 1.4-.1.8-.8-.9-1-1.7-.3-1-1.7-1.6-2.3-.6-.5-.9.6-3.2 1.1-2.3.5-3.4 1-2.5 1.5.9.5 0 1.6-1 1.5-.8-.1-1 .9.2 1.5zm161.8 283.5c.8-.5-6.5-5.2-6.3-4.4.1.7 5.5 4.9 6.3 4.4zM203.7 423.1c-.4-.8-.8-.2-.8.6 0 .9.7 1 .7 1.5s.7 1.2.9.9c.2-.5-.5-1-.6-1.3 0-.4.3-.9-.2-1.7zm35.8 34.3c.3.2 1.2 0 1.7-.2.4-.2.4-.8-.1-1.3-.5-.4-2.1.2-1.6.5.5.2-.3.8 0 1zm346.2 19.4c-.1.6.6 2.5 1.4 1.7.7-.7-1.3-2.3-1.4-1.7zm47.5 8.9c-1.2 1.9.4 2.1 1.4 2.2 1 .1.8 1.5.6 2.3-.2.8-.6 2.8.3 2.5 1-.4 1.7-1.7 1.1-2.1-.6-.5-.5-3.3-.3-4 .3-.7 2-.2 1.4.9-.6 1.1 1.1 1 1.1 2.2 0 1.2 1 .6 2 .3s.8-.9.1-1.7c-.7-.8.5-1.9-.5-2.5-1-.6-1.6-1.6-.7-1.8.9-.2 3.6-1.7 3.3-2.4-.3-.6-4.1.1-4.5 1.3-.3 1.2-3-.1-2.7-2.1.3-2 5.7-2.3 7.2-1.6 1.6.7 3.2-1.2 3.8-2.3.6-1.1-1.2.2-2.3.9-1.1.7-4-.1-5.5-.6s-1.4.9-2.7 1.1c-1.2.2-1 2.9-1.6 3.2-.4.3-.4 2.3-1.5 4.2zm15.9 1.6c.3 1 2.1 1.6 2.7.7.5-.9-3-1.9-2.7-.7zm-5.3 15.5c.8.4 2.1-.7 2.7-1.6.1-.1.2-.3.3-.4 0-.1.1-.1.2-.2.1 0 .1-.1.2-.1 1.3-.7 4.4-1.7 4.6-2.1.2-.5-1.9.1-3.2.1-.9 0-1.2.7-1.9 1.2-.1 0-.1.1-.2.1-.2.1-.4.2-.7.3h-.3c-.2 0-.5.1-.7.2-1.2.6-1.8 2.1-1 2.5zm-.5-3.9c1.2-.1 2.5-.4.7-.6-1.7-.3-2.9 1-4.7.4-1.7-.6-4.4 0-4.1.6.3.5 1.8.6 3.6.6 1.7 0 3.3-.9 4.5-1zm10.6-21.9c0-.5-.5-2.3-1.5-.8-1 1.4.3 4.9 1.2 4.8.7-.1-.6-1.9.8-1.7 1.4.1.8-.7.8-1.6 0-1-1.3-.2-1.3-.7zm-.3 10.2c.3.8 1.6.5 3 .5s2.1 1 2.8 1c.7 0 .2-1.7-1.5-2.2-1.8-.6-4.6-.2-4.3.7zm-48.6 2.4c-.1-.9.3-1.8.3-2.3 0-.5.3-.6.9-.5.6.1.5-1.2.1-1.4-.5-.1-.7-1.7-1.8-1.7s-.9.9-.3 1c.6.1 1 .6.8 1-.2.5-.5-.5-1.4-.4-.9.1-.3-1.1-1.4-1.2-1-.1-.8-1.9-1.9-1.9-1.1 0-1.2-.9-.5-1.6.7-.6-1.1-1.2-1.1-2s-1.2-.3-1.2-1c0-.6-.5-.3-1.1-1.1-.6-.8-.8-.1-1.4-.6-.5-.6-1.2-.9-1.7-.7-.5.2-1.5-.8-1.9-1.9-.3-.8-3.3-2.2-3.7-3.3-.4-1.1-1.4-1.6-3.2-1.5-1.7.1-2.4-1.7-2.8-.8-.5 1.1 1.9 3.6 3 4.2 1.1.6 1.7 3 3 3.1 1.3.1 1.4 4.2 2.4 4.4 1 .2 3 3.4 3.4 5 .3 1.7 2.5 2.5 3.2 3.8.7 1.2 3.6 2.9 3.9 3.4.4.5.8 1.7 1.1 1.1.3-.6 1.7 0 2.3.1.8.1 1-2.3 1-3.2zm5-3.3c0-.6-1.7-.3-1.2.5.6.9 1.2.1 1.2-.5zm13.3 12.5c.5-.6 1.3 1 2.6.1 1.3-1-2.1-.6-2.2-1.4-.1-.8-2.6-.1-3.8-.6-1.2-.5 1.4-1 2.2-1.5.8-.5-.5-.7-2.6-.1s-4.5-1.4-4.5-.5c-.1.9-3.8-.4-4.7-1-.9-.6-4.4-1.5-5.1-.3-.7 1.2-1.3.1-1 1.3.2.8 1 .3 1.6.3.6 0 .3 1.1 1.2 1.2.8.1 3.6.9 3.9.3.3-.6 2.8 0 4.1 1 1.3 1 4.3 1.1 5.4.9 1.2 0 2.5 1 2.9.3zm-34.5-16.4c-.1.3.6 1.6 1 1.2.5-.4-.5-2.2-1-1.2zm46.6 19.9c.5.4 2.1 1.2 2.1.1 0-1.1-4.4-1.7-4-1.1.4.6 1.5.6 1.9 1zm-24.2-23.7c1 .9.7 2.3 1.2 3 .5.7 1.9.8 1.9 2.2 0 1.4 1.2 3.5 2.1 2.9.8-.6 1.5.3 1.7.8.3.6 2.3-.5 2.9-.3.6.1 2.7.5 2.8 1.3.1.8 1.9-.1 3.2-.5 1.2-.5.5-4.1 1.7-4.9 1.2-.7 1.4-2.1 1.3-3.4-.1-1.3 2.8-1.4 3.3-1.9s-.6-1.4-1.5-1.7c-.8-.4-.1-1.2-.7-1.7s-1.6-1.9-.7-1.9c.8-.1-.6-1.2.1-1.6.1-.1.2-.1.3-.2.8-.4 1.9-.9 1.4-1.3-.6-.5 1.7-.1 2-.8.3-.8-.9-1.4-1.5-1.3-.6.1-1.9.1-1.9-.5s-1.2-1.7-2-1.7-1.7 1.6-1.7 2.2c-.1.6-1.3.6-1.2 1.5.1.4-.2.5-.5.6-.5.1-1.1.1-1.1.5 0 .6-1-.2-1.5-.2s-1.7 1.8-1.9 3c-.3 1.2-1.4.8-3.2 1-1.7.1-1 1.9-1.4 2.8-.4.8-2.3-.6-3.2-.8h-.2c-1.1-.1-2.5 2.1-1.7 2.9zm19.1 19.5c-.3.6-1.4.7-2 .3-.6-.5-1.4.6-1 1.2.2.3 1.6 1.3 3.2.5s2.7-.1 3.1-.9c.3-.9-3.1-1.7-3.3-1.1zM408 391c-1.3.3-1.9.4-2.7 0-.8-.4-2 .4-1.8.9.1.4.6.8 2.3 1.2 1.6.4 1.8 1.5 2.5 1.6.7 0 .7-.6.6-1.5-.2-.9.8-1.9.9-2 0-.2-.5-.5-1.8-.2zm-14.1-7c-.4.6 1.1 1.6.8 2.8-.3 1.3.2 2.8.9 2.1.7-.7 1.1-.4 1.5-.9.4-.5.1-2.6.4-3.6.3-1-1.3-1.4-2-.8-.7.7-1.3 0-1.6.4z"/><path fill="none" d="M0 0h800v800H0z"/></g></svg>