<svg id="Layer_1" xmlns="http://www.w3.org/2000/svg" width="512" height="512"><path d="M416.005 439.469L396.411 140.71c-.431-6.572-5.887-11.682-12.473-11.682h-54.69v-8.041c0-34.462-28.038-62.5-62.5-62.5h-21.494c-34.462 0-62.5 28.038-62.5 62.5v8.041h-54.69c-6.586 0-12.042 5.11-12.473 11.682L95.948 440.195a12.498 12.498 0 0 0 12.474 13.318H403.6c6.903 0 12.5-5.597 12.5-12.5a12.891 12.891 0 0 0-.095-1.544zM207.753 120.987c0-20.678 16.822-37.5 37.5-37.5h21.494c20.678 0 37.5 16.822 37.5 37.5v8.041h-96.494v-8.041zm-85.985 307.526l18.002-274.484h42.983v11.154c-8.895 4.56-15 13.818-15 24.482 0 15.164 12.336 27.5 27.5 27.5s27.5-12.336 27.5-27.5c0-10.664-6.105-19.922-15-24.482v-11.154h96.494v11.154c-8.895 4.56-15 13.818-15 24.482 0 15.164 12.336 27.5 27.5 27.5s27.5-12.336 27.5-27.5c0-10.664-6.105-19.922-15-24.482v-11.154h42.983l18.002 274.484H121.768z"/></svg>