<svg id="Layer_1" xmlns="http://www.w3.org/2000/svg" width="512" height="512"><path d="M256 58.5C147.098 58.5 58.5 147.098 58.5 256S147.098 453.5 256 453.5 453.5 364.902 453.5 256 364.902 58.5 256 58.5zm172.044 185h-89.72c-1.199-43.439-8.627-84.031-21.228-115.404-6.881-17.133-15.077-30.779-24.215-40.613 73.506 16.074 129.631 79.146 135.163 156.017zM256 417.795c-12.865 0-27.032-16.152-37.898-43.208-11.462-28.54-18.255-65.831-19.421-106.087H313.32c-1.167 40.256-7.959 77.547-19.422 106.087-10.866 27.056-25.034 43.208-37.898 43.208zM198.681 243.5c1.166-40.256 7.959-77.547 19.421-106.087 10.866-27.056 25.034-43.208 37.898-43.208 12.864 0 27.032 16.152 37.897 43.208 11.463 28.54 18.255 65.831 19.422 106.087H198.681zm20.437-156.018c-9.138 9.834-17.334 23.48-24.215 40.613-12.6 31.374-20.028 71.965-21.227 115.404h-89.72c5.532-76.87 61.657-139.942 135.162-156.017zM83.956 268.5h89.72c1.199 43.439 8.627 84.031 21.227 115.404 6.881 17.133 15.077 30.779 24.215 40.613-73.505-16.074-129.63-79.146-135.162-156.017zm208.926 156.018c9.138-9.834 17.334-23.48 24.215-40.613 12.601-31.374 20.028-71.965 21.228-115.404h89.72c-5.533 76.87-61.658 139.942-135.163 156.017z"/></svg>