<svg id="Layer_1" xmlns="http://www.w3.org/2000/svg" width="512" height="512"><path d="M425.5 110.765h-339c-6.904 0-12.5 5.596-12.5 12.5v217c0 6.904 5.596 12.5 12.5 12.5H208v23.471h-29.748c-6.904 0-12.5 5.597-12.5 12.5s5.596 12.5 12.5 12.5h155.496c6.903 0 12.5-5.597 12.5-12.5s-5.597-12.5-12.5-12.5H304v-23.471h121.5c6.903 0 12.5-5.596 12.5-12.5v-217c0-6.904-5.597-12.5-12.5-12.5zM279 376.235h-46v-23.471h46v23.471zm134-48.47h-14.219v-10.59c0-6.903-5.598-12.5-12.5-12.5-6.903 0-12.5 5.597-12.5 12.5v10.59h-20.5v-10.59c0-6.903-5.597-12.5-12.5-12.5s-12.5 5.597-12.5 12.5v10.59H99v-192h314v192z"/></svg>