<svg id="Layer_1" xmlns="http://www.w3.org/2000/svg" width="512" height="512"><path d="M471 334.226h-19.51V113.237c0-6.903-5.597-12.5-12.5-12.5H73.01c-6.903 0-12.5 5.597-12.5 12.5v220.988H41c-6.904 0-12.5 5.597-12.5 12.5v28.037c0 4.251 2.16 8.21 5.732 10.511 4.135 2.66 45.463 25.989 221.768 25.989s217.633-23.329 221.767-25.989a12.502 12.502 0 0 0 5.733-10.511v-28.037c0-6.903-5.597-12.499-12.5-12.499zM85.51 125.737H243.5v1.577c0 6.903 5.596 12.5 12.5 12.5 6.903 0 12.5-5.597 12.5-12.5v-1.577h157.99v208.488H85.51V125.737zM458.5 366.699c-15.715 5.736-67.635 19.563-202.5 19.563-133.637 0-186.316-13.871-202.5-19.674v-7.363h237.281v3.537c0 6.903 5.597 12.5 12.5 12.5s12.5-5.597 12.5-12.5v-3.537h13v3.537c0 6.903 5.597 12.5 12.5 12.5s12.5-5.597 12.5-12.5v-3.537H458.5v7.474z"/></svg>