<svg xmlns="http://www.w3.org/2000/svg" width="56" height="93"><path d="M.26 1.25L.42.01c.03 0 1.9.25 4.93.83l-.23 1.22C2.14 1.5.29 1.25.27 1.25H.26m7.29 1.3l.25-1.22c1.47.3 3.11.67 4.88 1.11l-.3 1.21c-1.6-.39-3.22-.76-4.83-1.1m7.23 1.71l.32-1.2c1.54.4 3.15.86 4.81 1.37l-.37 1.19a141.6 141.6 0 0 0-4.76-1.36m7.12 2.11l.39-1.19c1.55.51 3.13 1.07 4.72 1.67l-.45 1.17c-1.49-.57-3.06-1.13-4.66-1.65m6.96 2.55l.47-1.16c1.54.63 3.07 1.3 4.57 2.03l-.53 1.12a90.93 90.93 0 0 0-4.51-1.99m6.71 3.09l.57-1.11c1.49.77 2.94 1.6 4.35 2.47l-.66 1.06c-1.33-.83-2.77-1.64-4.26-2.42m6.3 3.76l.71-1.03c1.39.97 2.71 1.98 3.95 3.06l-.82.94a46.762 46.762 0 0 0-3.84-2.97m5.61 4.62l.88-.89c1.2 1.2 2.29 2.47 3.25 3.8l-1.02.73a29.61 29.61 0 0 0-3.11-3.64m4.4 5.63l1.09-.62a22.69 22.69 0 0 1 2.02 4.56l-1.19.37c-.46-1.46-1.11-2.91-1.92-4.31m2.5 6.59l1.23-.23c.3 1.58.43 3.24.38 4.97l-1.25-.04c.05-1.6-.07-3.18-.36-4.7m.15 7.06l1.24.17c-.21 1.57-.58 3.19-1.11 4.87l-1.19-.38c.5-1.58.86-3.15 1.06-4.66m-1.88 6.93l1.16.46c-.58 1.47-1.28 2.97-2.12 4.52l-1.1-.59c.8-1.48 1.49-2.96 2.06-4.39m-3.27 6.51l1.07.64c-.82 1.36-1.74 2.75-2.77 4.17l-1.01-.73c.99-1.38 1.9-2.75 2.71-4.08m-4.18 6.05l.99.76a90.56 90.56 0 0 1-3.17 3.87l-.95-.82c1.11-1.28 2.16-2.56 3.13-3.81m-4.77 5.65l.92.85c-1.08 1.18-2.23 2.39-3.45 3.62l-.88-.88c1.19-1.2 2.34-2.41 3.41-3.59m-5.17 5.32l.87.9c-1.16 1.12-2.38 2.26-3.65 3.42l-.84-.92c1.25-1.14 2.47-2.28 3.62-3.4m-5.47 5.05l.83.94a197.47 197.47 0 0 1-3.8 3.25l-.8-.96c1.31-1.09 2.56-2.17 3.77-3.23m-5.69 4.81l.79.97a206.06 206.06 0 0 1-3.91 3.11l-.77-.98c1.34-1.05 2.64-2.08 3.89-3.1m-5.86 4.62l.76.99c-1.3.99-2.63 1.99-4 3l-.74-1.01c1.36-1.01 2.69-2 3.98-2.98m-6 4.44l.73 1.02c-1.22.88-2.47 1.77-3.76 2.67l-.71-1.03c1.28-.89 2.52-1.78 3.74-2.66"/></svg>