<svg xmlns="http://www.w3.org/2000/svg" viewBox="0 0 65.99 54.45"><defs><style/></defs><g id="Шар_2" data-name="Шар 2"><g id="Objects"><text transform="translate(0 51.5)" font-size="10.87" fill="#31333a" font-family="OpenSans,Open Sans">CONTACT US</text><path d="M34.87 3.18a10.84 10.84 0 1 0-1.07 16.26l4.91 4.91a2.31 2.31 0 0 0 .43 2.43l10.3 10.3a2.88 2.88 0 0 0 4-4l-10.3-10.3a2.31 2.31 0 0 0-2.43-.43l-4.91-4.91a10.84 10.84 0 0 0-.93-14.26zM22 16a7.32 7.32 0 1 1 10.34 0A7.32 7.32 0 0 1 22 16z" fill="#34b2e4"/></g></g></svg>