<svg xmlns="http://www.w3.org/2000/svg" viewBox="0 0 169.15 135.54"><defs><style>.cls-9{fill:#e9ae97}.cls-11{fill:#f8c3aa}.cls-12{fill:#d83b45}.cls-13{fill:#dfdfdf}.cls-14{fill:#7a7d82}.cls-15{fill:#157aad}.cls-19{fill:#404349}</style></defs><g id="Шар_2" data-name="Шар 2"><g id="Objects"><path d="M84.26 41.52h.67v31h-5.1l-.15-4c-.81-3.77-7-9.68-7.16-14.4a12.2 12.2 0 0 1 11.74-12.6z" fill="#f4992c"/><path d="M85.6 41.52h-.67v31H90l.15-4c.81-3.78 7-9.69 7.15-14.41a12.19 12.19 0 0 0-11.7-12.59z" fill="#fcc83b"/><path d="M79.68 73.62H90.2a.56.56 0 0 0 .57-.56.57.57 0 0 0-.57-.57H79.68a.58.58 0 0 0-.57.57.58.58 0 0 0 .57.56z" fill="#efeeee"/><path d="M90.12 73.61a3.66 3.66 0 0 1 0 .57v4.41a3 3 0 0 1-3 3h-4.38a3 3 0 0 1-3-3v-4.4a2.62 2.62 0 0 1 .06-.57z" fill="#bbbbba"/><path d="M87.05 81.62a3.83 3.83 0 0 1-4.21 0z" fill="#adadad"/><path d="M79.66 76.34L89.88 79a.69.69 0 0 0 .83-.48.69.69 0 0 0-.49-.83L80 75a.66.66 0 0 0-.82.48.68.68 0 0 0 .48.86zm0 2.52l9.6 2.51a.68.68 0 0 0 .82-.49.66.66 0 0 0-.48-.82L80 77.55a.67.67 0 0 0-.83.48.68.68 0 0 0 .49.83zm4.59-5.24l6 1.56a.68.68 0 1 1-.34 1.31l-10.25-2.67a.79.79 0 0 1-.33-.2z" fill="#8d8c8c"/><path fill="#1a1a1a" d="M82.62 72.53L77.31 53.7l1.76.9.32-.98 1.6.42-.01-1.06 1.62 1.15.73-1.03L85 54.14l1.11-1.04 1.92 1.23.95-1.32 1.09 1.2 2.04-1.38-4.84 19.7-.44-.11 4.56-18.55-1.39.93-.98-1.07-.87 1.21-1.99-1.27-1.11 1.04-1.6-1-.75 1.05-1.26-.9.01.77-1.76-.46-.35 1.08-1.31-.67 5.03 17.83-.44.12z" opacity=".5"/><path class="cls-9" d="M21.96 35.2l-.07 2.07 12.37 7.93 5.62-9.43L25.94 22.4l-3.98 12.8z"/><path d="M43.77 1A43.92 43.92 0 0 0 36 .17a15.11 15.11 0 0 0-5.4.17 18.12 18.12 0 0 0-3.85 1.24l-.13.06c-7.07 3.34-8.4 10.52-9 15.49-.71 5.75 3.7 18.55 4.38 18.07s6.42-5.7 6.42-5.7l4.67-6.74 1.75 2s.37-6.48.47-7.29 3.78-4.48 4.85-5 2.93.82 2.93.82c3.84 2.05 5.71 2.13 6.61 1.78 2.67-.32 4.09-8.74 4.09-8.74C52.55 6.73 43.77 1 43.77 1z" fill="#3f3a39"/><path class="cls-11" d="M27.4 23.11a5.77 5.77 0 0 1 .18-1.6c.67-3.83 2.44-3.33 2.44-3.33a3.61 3.61 0 0 1 2.23 1.37 23.53 23.53 0 0 0 .79 3.25c.24.32.45-3.09.45-3.09a21.39 21.39 0 0 0 1.77-2.22c.16-.39 3.09-5.07 5.31-5.07s8.18 2.82 8.18 2.82a48.18 48.18 0 0 1 0 5.9c-.24 1.11 1.35 8.64 1.19 9.19s-1.58.95-1.58.95l-.24.4c-.37 1-1 2.77-1 2.9s-.56.22-.56.22c.13.46.31 1 0 1.24-.55.31-.47 2.29-.63 2.85s-2.38 1.27-4 1.19a10.5 10.5 0 0 1-2.94-1.33 29.93 29.93 0 0 1-6.82-4.58L32 34c-2.34-2.56-2.37-7.1-2.37-7.1a4.69 4.69 0 0 1-2.24-3.8z"/><path class="cls-12" d="M36.22 44.68l2.65 5-.81 1.3-1.84-6.3z"/><path class="cls-13" d="M20.86 35.57l16.36 8.96.84 6.45-18.04-14.21.84-1.2z"/><path class="cls-14" d="M12.8 57a7.79 7.79 0 1 0 7.79-7.79A7.8 7.8 0 0 0 12.8 57z"/><path class="cls-15" d="M40.08 88l8.63-7.57a2.45 2.45 0 0 0 .22-3.43l-22-25.08a8.19 8.19 0 0 0-11.54-.76 8.2 8.2 0 0 0-.76 11.55l22 25.08a2.46 2.46 0 0 0 3.45.21z"/><path class="cls-15" d="M38 87l4.11-11.17a2.17 2.17 0 0 1 2.76-1.28L79.11 90l-3.92 10.93-35.93-11.16A2.17 2.17 0 0 1 38 87z"/><path class="cls-15" d="M36.65 87.78A8.17 8.17 0 0 0 48.92 77a8.17 8.17 0 0 0-12.27 10.78z"/><path class="cls-9" d="M75.41 100.27s13.09 2.85 15.32 2 7.38-2.8 7.47-3.52-3.52-4.62-8.54-5.08c-10.55-1-1.08-1.91-1.08-1.91s1.88-1.15-.08-1.32-9.55 0-9.55 0z"/><path d="M20 36.77s-6 2.51-10.87 9.91C2.57 56.77.16 75.12 0 86.11c-.09 8.59.05 27 .05 27.1h38s7-56.68 0-62.23z" fill="#045382"/><path class="cls-14" d="M12.8 57a7.79 7.79 0 1 0 7.79-7.79A7.8 7.8 0 0 0 12.8 57z"/><path class="cls-11" d="M30.36 125.12c1.14 5.11-.16 9.74-2.9 10.35s-5.88-3-7-8.13.15-9.74 2.89-10.36 5.87 3.02 7.01 8.14z"/><path class="cls-15" d="M7.86 90.44l11.24 2.33a2.46 2.46 0 0 0 2.9-1.9l6.77-32.67a8.21 8.21 0 0 0-6.35-9.68 8.21 8.21 0 0 0-9.67 6.35L6 87.54a2.46 2.46 0 0 0 1.86 2.9z"/><path class="cls-15" d="M7.38 88.17l11.39-3.45a2.16 2.16 0 0 1 2.68 1.44l8.34 36.61-11.08 3.46L6 90.85a2.15 2.15 0 0 1 1.38-2.68z"/><path class="cls-15" d="M6 87.57a8 8 0 0 0 6.39 9.35 7.86 7.86 0 1 0 3.2-15.38A8 8 0 0 0 6 87.57z"/><path class="cls-9" d="M147.19 35.2l.06 2.07-12.36 7.93-5.62-9.43 13.94-13.37 3.98 12.8z"/><path d="M126.09 13.26s1.87-1.34 2.94-.82 4.75 4.2 4.85 5 .47 7.29.47 7.29l1.75-2 4.67 6.74s5.79 5.23 6.42 5.7 5.05-12.32 4.36-18.06-2.38-14.59-13-16.8C127.55-2 121 8.26 121 8.26s-2.22 5.71-2.38 5.94c.04 0 .5 2.8 7.47-.94z" fill="#2d2725"/><path class="cls-11" d="M141.74 23.11a5.41 5.41 0 0 0-.19-1.6c-.66-3.83-2.43-3.33-2.43-3.33a3.61 3.61 0 0 0-2.23 1.37 25.07 25.07 0 0 1-.79 3.25c-.24.32-1.86-.28-1.86-.28s-.2-4.63-.36-5-3.09-5.07-5.31-5.07-8.18 2.82-8.18 2.82a48.18 48.18 0 0 0 0 5.9c.23 1.11-1.35 8.64-1.19 9.19s1.58.95 1.58.95l.24.4c.37 1 1 2.77 1 2.9s.55.22.55.22c-.12.46-.31 1 0 1.24.56.31.48 2.29.64 2.85s2.38 1.27 4 1.19a10.63 10.63 0 0 0 2.94-1.33 29.93 29.93 0 0 0 6.85-4.66l.1-.11c2.34-2.56 2.36-7.1 2.36-7.1a4.68 4.68 0 0 0 2.25-3.8z"/><path class="cls-12" d="M132.93 44.68l-2.65 5 .81 1.3 1.84-6.3z"/><path class="cls-13" d="M148.29 35.57l-16.36 8.96-.84 6.45 18.04-14.21-.84-1.2z"/><path d="M149.13 36.77s6 2.51 10.86 9.91c6.59 10.09 9 28.44 9.12 39.43.1 8.59 0 27 0 27.1h-38s-7-56.68 0-62.23z" fill="#31333a"/><path class="cls-14" d="M156.35 57a7.8 7.8 0 1 1-7.79-7.79 7.8 7.8 0 0 1 7.79 7.79z"/><path class="cls-19" d="M129.06 88l-8.62-7.57a2.46 2.46 0 0 1-.23-3.45l22-25.08a8.2 8.2 0 0 1 11.55-.76 8.2 8.2 0 0 1 .76 11.55l-22 25.08a2.47 2.47 0 0 1-3.46.23z"/><path class="cls-19" d="M131.16 87l-4.1-11.17a2.17 2.17 0 0 0-2.76-1.28L90 90l4 10.88 35.93-11.11a2.15 2.15 0 0 0 1.23-2.77z"/><path class="cls-19" d="M132.5 87.78a8.17 8.17 0 1 1-1-11.28 8 8 0 0 1 1 11.28z"/><path class="cls-11" d="M93.74 100.27s-13.09 2.85-15.33 2S71 99.42 71 98.7s3.52-4.62 8.54-5.08c10.55-1 1.07-1.91 1.07-1.91s-1.88-1.15.09-1.32 9.55 0 9.55 0z"/></g></g></svg>