<svg xmlns="http://www.w3.org/2000/svg" viewBox="0 0 77.92 82.19"><g id="Шар_2" data-name="Шар 2"><g id="Objects"><path d="M36.7 0h.67l-1 31-5.09-.17v-4c-.69-3.8-6.65-9.92-6.66-14.64A12.19 12.19 0 0 1 36.7 0z" fill="#f4992c"/><path d="M38 .05h-.67l-1 31 5.1.17.28-4c.94-3.74 7.3-9.44 7.64-14.15A12.19 12.19 0 0 0 38 .05z" fill="#fcc83b"/><path d="M31 31.92l10.51.36a.57.57 0 0 0 .59-.55.58.58 0 0 0-.55-.59l-10.51-.35a.57.57 0 0 0-.59.55.57.57 0 0 0 .55.58z" fill="#efeeee"/><path d="M41.46 32.28a2.6 2.6 0 0 1 0 .56l-.14 4.41a3 3 0 0 1-3.13 2.92L33.81 40a3 3 0 0 1-2.92-3.12l.11-4.39a2.61 2.61 0 0 1 .08-.56z" fill="#bbbbba"/><path d="M38.12 40.17a3.11 3.11 0 0 1-2.12.56 3.15 3.15 0 0 1-2.09-.7z" fill="#adadad"/><path d="M30.92 34.64l10.12 3a.67.67 0 0 0 .84-.46.68.68 0 0 0-.45-.84l-10.13-3a.68.68 0 0 0-.84.46.68.68 0 0 0 .46.84zm-.09 2.52L40.34 40a.67.67 0 0 0 .84-.45.68.68 0 0 0-.46-.85l-9.5-2.83a.67.67 0 0 0-.84.46.67.67 0 0 0 .45.83zm4.77-5.08l5.91 1.76a.68.68 0 1 1-.39 1.3L31 32.12a.64.64 0 0 1-.32-.21z" fill="#8d8c8c"/><path fill="#1a1a1a" d="M34.01 30.94l-4.67-19.01 1.73.97.35-.97 1.58.47.03-1.06 1.58 1.2.76-1 1.63 1.1 1.15-1 1.88 1.29.99-1.29 1.05 1.24 2.08-1.31-5.5 19.52-.44-.12 5.19-18.39-1.42.89-.94-1.11-.91 1.18-1.94-1.33-1.15 1-1.57-1.05-.78 1.02-1.23-.94-.02.77-1.74-.53-.39 1.07-1.29-.71 4.43 17.99-.44.11z" opacity=".5"/><text transform="translate(0 63.09)" font-size="12.99" fill="#31333a" font-family="OpenSans,Open Sans">YOU HAVE A <tspan x="0" y="15.58">GREAT IDEA!</tspan></text></g></g></svg>