<svg xmlns="http://www.w3.org/2000/svg" viewBox="0 0 469.28 319.59"><defs><style>.cls-2{fill:#c6c6c6;stroke:#fff;stroke-miterlimit:10;stroke-width:.25px}</style></defs><g id="Шар_2" data-name="Шар 2"><g opacity=".4" id="Objects"><path class="cls-2" d="M60.6 146.88c-.17-1.1-2.39.33-1.91.64.97.65 2.07.48 1.91-.64zm49.27 11c0-.33-.84.19-1.36-.1s-2.85.19-3.46-.39-1.87.46-1.33.55a16.49 16.49 0 0 0 3.21.84c1.26.04 2.97-.58 2.94-.9zm16.4.81c-.06-.36.42-1.1 1.17-1.4s.45-.84 0-.42a5.55 5.55 0 0 1-3.11.94c-1.46.07-1.91 1-1 1.56 1.13.63 3.01-.37 2.94-.68zM19.8 73.5c1.26-.07 1.23-1.46 1.74-1.39s1.36-1 1.69-1.62a1.43 1.43 0 0 0-1.13-1.81c-.78 0-1.36-.62-1.2-1.07s-.42-1-.39-1.36-1 0-1.49.1-1.62-1.26-2.1-1-.13.93-.26 1.32-1.29-.35-1.29.1-.49.52-.88 0-1.29-.19-1.26.19-.39.07-1.13-.38-1.52.52-1.46 1-.26.61-.87-.45-1.33.09-1 .68.19 1.29-.29 1-1.14.19-1.43.65-1.33-1.33-.58-1.75-2.36-2.2-3.33-2.2-.33.71.32 1.23-.45.39-.81-.07-1-.09-1.42.55-1 1-1.1 1.46 1.1.94 2.1.52 2.14-.49 2.65 0-.93.68-.42 1.07.1.71-1.13.61-2.72.26-2.49.68S4 71.23 4 71.65s0 1.14.78.81.25.59.64.75.29.94-.74 1-1.54.27-1.1.71 1.68.16 2.78-.09 2.69 1.06 4 1.58 3.53-.19 3.79-.87 2-.42 2.71-.91a5.75 5.75 0 0 1 2.94-1.13zm12.84 40.89a6.62 6.62 0 0 0 3.79-1.55c1.1-1 1.68 0 2.68-.55s.39-4.3 0-5.08a.46.46 0 0 1 0-.34c.13-.44 1.15-.52 1.68-1.05s-.32-1.59-1.22-2.46-1.88.45-2.74.44a.76.76 0 0 1-.27 0c-.91-.36-2.17-.36-2.2.45s1 .52 1 1-1 .38-1.78.9-1.55-.35-2.33 0 .84.85.26 1.66 0 .77 1 1.55-.58 1-.58 1.84-1.2.84-1.46 1.43 1.04 1.76 2.17 1.76zm5.15-19.25c.87 0 1.87-1.52 1.45-1.94s-2.1 1.97-1.45 1.94zm12.52-7.02c.55-.55 1.2-2.65.36-2.42s-.6 2.66-.36 2.42z"/><path class="cls-2" d="M38.69 96.11c-.64.52.75 1.2 1.59 1.3s-.65.71-.81 1.61 1.1.52 1.16 1.17-1.81.75-1.81 1.36 1.07-.29 1.55-.55-.25 1.52.91 1.33.84-1.78 1.26-1.72-.19.84.17 1.52-.85 1.72-.78 2.2 2.39.49 3.14-.29 1.1.07.58.65a.77.77 0 0 0 .36 1.36c.64.22.87.29.58.8s0 1.49-.2 2-2.16.42-2.23.1-.91-.1-.68.35-.71.94-.64 1.36 1.26.32 1.29.84-.88 1.13-2.1 1.49.25 1.33.84.91.45.29 1.29.29 1.36.68 2.3.32.9 0 .19.55-1.78 0-2.42.32-3.28 2.83-2.79 3.43c.3.36.68-.51 1.62-.9s1.1.26 1.62.32.55-1.07 1-1 .81-.36 1.58-.22a2.09 2.09 0 0 0 1.72-.49c.39-.32 1.42.64 1.75.42a6.16 6.16 0 0 1 2.45-.45 6.83 6.83 0 0 0 3.05-1.27c.48-.45-.3-.54-.94-.45s-.52-.65.16-1.29 1.75-1.14 1.81-2.11-2.07-1.65-2.3-1.13-.71.46-1.06-.13.32-1.13 0-1.19a1.37 1.37 0 0 1-.72-1.2c.1-.32-.55-2.4-1.65-2.65s-1.26-1.82-1.45-2.66-.91-.39-1.46-1.1-1.49-.35-2-.32 0-.91.77-1.42 1.69-3.27 1.69-3.82-3.4-.52-4-.2-1.29-.48-.74-.71S46 93.49 45.91 93s.81-.87.32-1.29-.55.55-1 .87a3.51 3.51 0 0 1-2.36 0c-1-.19-1.39 1.23-1.36 1.85s-1.17 1-1 1.48-.23.91-.55.62-.62-.93-1.27-.42zm39.67 8c-.58-.13-.23.84.58 1s1.68-1.43 1.59-1.82.82-2.17.52-2.36-.46.45-.75.52-.61-1.23-.74-.52-.78-.29-1.43.62.39 1.71.84 2-.03.68-.61.56zM94.05 95c-1.23 0-1.8 2.45-1.49 2.85s2.72-2.93 1.49-2.85zm8.7-3.55c.26-.48-1.87-.27-1.39.17a1 1 0 0 0 1.39-.17zm-1.84 2.85a6.15 6.15 0 0 0 2.26-1.49c.36-.35-.22-.74-1.39-.42s-1.33 1.94-.87 1.91zm-23.1-79.18c.58.14 1 1.11 1.55 1.06.24 0-.82-1.21-1.45-1.89s-.59-1.36-1.46-1.12.78 1.83 1.36 1.95zm15.43-7.87c.44.34-.72.35-.24.83 1.45 1.46 7.18-.2 8 .24s-4.81 1-4.57 1.55 4.81 1.07 5.15.68 1.12.78 2.62.88 1.36-.58 2.47-.63 2.77-.59 2.82-1.22 3.3-1.4 3-2.47-3.45-.34-4.32-.78-2.91-1-3.25-.34-.92.88-1.22.58.15-1.84-1.26-1.4-.09 1.94-.39 2.13-1.64-.29-1.74-1-1.61.73-1.8-.1-2-1.4-2.38-1.35.39.58.15 1-1.21-.39-1.6-.44.24.82 0 1.21-1-1.16-1.65-1.16-.44.77-.93.82.7.63 1.14.97zM79.8 11.19c.92.19-1 1.21-1.26 2.13s1.45 1.75 2.18 2.43a3.24 3.24 0 0 0 3.11.19c.63-.39.43-1.75 1.26-1.7s.39-.73 1.07-1 .77.63.19 1.31 1 .63 1.89-.19 1.07-.05.88.73-2 .34-2.63 1.21-2.57.19-3.44 1.16.78 1 2 .78a15 15 0 0 1 4.37-.19c.87.19-.54.48-2 .48s-1.94.44-1.9.83-2-.44-2.13.43 1.94 1.22 2.18 1.75 1.6.05 2.14.24-.88.59-1.07.83 1.51.58 1.8 1.07 1.5.24 1.45-.44c-.06-.85 1.07-3.4 2.53-3.93s.63-1 .82-1.85 1.36-.14 1-.82-.15-1 .78-1.84 1.5-.25 2.62-.78 1.65.39.43.48c-1.06.09-.53 1.31.34 1.65s.1.63.78.78.48 1.16-.39 2.09.24 1.11 2.09.43.68.59 1.21 1.12 2-.39 2.77-1.31 1.94-.77 1.89-1.26-.87-.68-1.55-.39-2.38.1-1.8-.44.49-1-.39-.87-2.42-.34-1.69-.63-.54-1.26-1.22-1.21-.48-.73-.44-1.27-1.94-.77-1.55-1-.8-.57-1.12-.19a.47.47 0 0 1-.88-.29c0-.58-1.45-.44-2-.39s-.29-1.26-.87-1.7-1.36.88-1.79.78.33-1 .58-1.55-2-1.36-2.28-.78-.68-.87-1.17-1-.1 1-.53 1.07-1 .53-.29 1 1.45 2.91 1.36 3.3-2.33-1.75-2.43-2.77-1.21-1.84-1.51-1.12-1.11 1-.87 1.75-.58 1-.58.39-1.21-1.26-1.65-1.31 1.12-.34 1.84-.68-.63-.83-1.26-.44-1.45-.24-1.84.29-.88 0-1.56-.14-1.26 1-1.74.77-.78 1 0 2.19 1.35-.37 2.27-.18zm148.55 207.25c-.58.07-.45 1.23-.78 2.07a6.22 6.22 0 0 0-.13 2.91c.13 1.24 0 2.53 1.1 3.24 1.27.82 3.3-1.29 3.37-3.11s-3.07-5.16-3.56-5.11zm-68.78 47.76c-.29-1.06-.52.39-.78.64a2.36 2.36 0 0 0-.33 1.56c.07.52-.77 1-1.29 1s-1.36.26-1.1 1-.39.58-.06 1.16-.71 1.3-1.62 1.36-2.07 1.69-3 1.55-1.94.65-2.78.52-.26 1.75-.91 2.92-.32 2.52.26 3.94 1 2.59-.52 4.47a5 5 0 0 0-.84 5.24c.58 1.29.58 3.23 1.42 4.14s3.17 1.68 3.89 1 1.46.1 2.26-.84 2.07-5.89 3.17-9.19 2.52-7.64 2.4-8.54.77-1.49.38-2.46.13-2.14.59-1.36 1.1.78 1.29-.26-.78-2.65-.84-4.14-1.4-3-1.59-3.71zM179 5.43c.2.51-.32.58-1.62.58s-2 .73-1.29 1.29 4.21.39 4.79-.39 2.07-.12 2.33-.9-4.36-1.1-4.21-.58zm-.28-3.5c1.55 0 1.1-1 2.13-.84s2.4.07 1.88-.58-4.27-.39-3.88.13-3 .32-3 .52c.15.38 1.32.77 2.87.77zm-8.03 4.34c0-1-3.36.1-2.71.32s2.71.71 2.71-.32z"/><path class="cls-2" d="M463.76 69.39a4.26 4.26 0 0 0 2.45.52c.56 0 0-.52-.51-.62s.09-.55.48-.19 1.13.52 1.2.13.45-1.23 1.13-1.2.91-.36.26-.58a10.46 10.46 0 0 1-3.23-2.3c-.52-.74-3-1.1-3-.71s-.81-.1-1-.52-2.81-.48-2.84 0 .61.48 1 1-.52.81-.33 1.39-1-.29-1.39-.61-.22-1.59-.09-2.23-.75-.52-.84-1.17-3-2-4.24-2.49-2.82-1-3.24-1.62-2.62-.71-3.46-1.58a14.68 14.68 0 0 0-6.11-2.56c-1.59-.09-1.23-1-2-.84a31.44 31.44 0 0 1-5.14-.19c-1-.16-1.27.61-2 .32s-4.6-1.68-5.05-1.16-.26 1.26-.71 1.39 0 .78 1.07 1.75.42 1.71-.55 2.13a3 3 0 0 1-3-1.13c-.49-.74-1.81-.42-2.14-1.39s.39-1.14 1-.58a1 1 0 0 0 1.62-.62c.1-.71-1.75-1.2-2.75-1.13s-1.56 1.45-2.59 2-5.05-.23-5.47-.62-6 0-6.6.39-.16 1.91-.45 2-.58-1.75-.58-2.1-.68-.62-1.69-.62-1.58 0-1.16-.45-.39-.84.39-1.39-1.43-2.27-3.56-3.11-7-.36-8.29 0a24.59 24.59 0 0 1-5.11.29c-1.23 0-.22-.48-.58-1.06s-2.46-1.3-2.75-.81-.84 0-.84-.36-2-1.07-2.75-.9-1.13-.72-.23-.72 2.46.2 1.78-.84-6.5-1.36-7.05-1.16 0 .94-1.3 2.13-2.49.39-2.32-.19 1.71-.49 1.71-1.07-2.14-.26-2.46-.74.45-.81 1.23-.59 2.14.36 2.2 0-.81-.41-2.1-.64-4.43-1-6.08-.81-2.4-.61-3.3-.68-.91.49-.49 1-.87.84-1.94.68-2.62.58-2 1.36 1.23-.23 1.75 0-1.36.81-.58 1.17.64 1.1.68 1.49-1.3.58-1.78 0-1.17-.07-2.07-.13-1.59.35-.62.48 1.3.75 0 .88-1-1.2-1.74-1-2.46-.61-3.37-.58-1.33.74-2.52.84a4.53 4.53 0 0 1-3.3-1.26c-.49-.65-.65-.84-1.23-.1s-.62 2.17-1.2 2.26-.81 1.36-1.39 1.69-.62-.49-1.36-.42-3.14-2.27-3.27-2.95-1.61-2-2-2.23.39-.39.87 0a1.38 1.38 0 0 0 1.59.16c.48-.25.42-1.45-.42-1.48s-.52-.75-.1-.88-1-1.39-.46-1.52.3-.68-.42-.77-1.45-.68-1.49-1-3-.48-2.91 0-1 .36-.8-.06-1.07-.29-2.5-.68-1.45-1.39-1.94-1.46-.32 1.39-1 1.07a.82.82 0 0 0-1.1 1.13c.39.84 0 1 0 1.65s-.46.39-1.3.1-.84.71-2.65.26-2.62 0-2.95-.55-.87-.65-.93-.16-2.85.29-3.08-.42.49-.84.91-1-.45-.48-2-.39-2.49-.77-4-.61a49 49 0 0 0-5.5.71c-.48.23.45 1.1-.29 1.16s-.23-1.42-.36-2.13-1.26-.81-1.1-.26-1.78.74-2.26.32a6 6 0 0 0-2.53-1.29c-1.26-.32-2.81 1-2.45 1.42s1.29.1 1.32.36c.07.53-2.68.32-2.68.77s-2.56 1.07-3.34 1.17c-2.12.27-2.58.26-3.59 1.1s-.22-.74.55-1.52 1.59-.45 2-1.07 1.17-.55 2.4-.74 1.16-.91 1.74-1.17 2-.81 2.27-1.39 3.17-1.55 3.75-1.52.71-1.16 1-1.16a17.54 17.54 0 0 0 2.66-1 1.7 1.7 0 0 0 1-1.33c0-.42-.87-.35-1-.74s.42-.13 1.1-.39 0-1.16-.55-1 .29-.49-.19-1.07-1.46.36-1.43-.26a2.47 2.47 0 0 0-.45-1.78c-.39-.39-1.1.68-1.91.07s-3.17-1-3.17-.75-1.13-.38-1.36-.12a5.76 5.76 0 0 1-2.68.06c-.59-.16-1.4.23-1.43.81s-2.33.35-2.75.26 1.59-1.75 1.59-2-3.4.06-3.59-.26-1.85-.42-2.59-.39 0-.19.65-.26 1.29-.65 2-.77.58-.39.25-.85-1.1-.22-1.84-.45a11.57 11.57 0 0 0-2.3-.58 20.9 20.9 0 0 0-2.88.61c-1.52.3-1.65 1.46-2.42 1.82s-2.14 1.78-1.49 1.91.32.51.42.93-.49.52-1.23.39-3.37-.1-3.33.46 1.52.8 1.42 1.09-1.13 0-1.65-.32-1.68-.13-1.91.42-1.13.42-1.42.29-.94.26-1.43.1 1-.87.62-1.23-1.91 0-2.07.55-1.1-.42-1.46-.23a13.72 13.72 0 0 1-1.42.72c-.68.29-1.85-.33-2.1.19s1.29.68 1.32.91-3.52.19-3.62.55-1.3.35-2.75.38-.88.75-2 1-1.68.26-2.07.85a1.12 1.12 0 0 1-1.68.22c-.39-.45-1.46.23-.88.29s0 .65-.32.52-1.39.62-.81.55.87.42.58.78-1.55-.42-1.87-.1.61.74 1.19.68a.83.83 0 0 1 1 .74c.07.42-1.35-.25-1.64.1s.22.52.83.58.17.3.72.78l.1.11c.34.4-.29.54-.23.93s-.62.58-.62.19-1.71-.52-2.07-.1-.61.75-1 .36-1.65.1-3.24.16a34.93 34.93 0 0 0-5.66.49c-.81.29-1.49 1.42-.74 2.16s0 1.07 0 1.56 1.94 1.48 3 1.58 1.88 1.36 1.27 2.14-2.5-.23-3.72-1.2a9.7 9.7 0 0 0-5-1.29c-.94.06-.39-.85-1.58-.81s-2.2 1.1-1.4 1.1 1.33-.07.91.32.23.29 1.2.71-.81 1-1.81.33a1.71 1.71 0 0 0-2.37.48c-.29.52 1.17 2 2.92 2.27s1.16.8 2 1.1.23.61-.32.64-1.65-.84-2.53-1.29-3.23.19-3.72-.33.32-1-.13-1.42-.06-1.26.52-2.17a2.06 2.06 0 0 0-.94-2.71c-.84-.26-.77.61-.58.87a2.7 2.7 0 0 1-.55 2.3c-.65.81-2.62.81-2.62 1.36s-1.33 1-.88 1.35a17.39 17.39 0 0 1 2.5 3c.26.62-1.59 2.56-1.3 3.69s-.26 1.65.1 2.2 1.16.07 1.68.29 1.36-.32 2.56-.55 3.39 1 4.2 1.43.39 1 .81 1.68-1 .65-1 1.62 2.43 1.39 2.52 1.68-1.75.06-2.46-.2-.77-1.19-1-1.39.49-1 .55-1.58-.81-1-1.1-1.39-.81-1-1.39-.91-2.72.32-3.37.91.1 2.23.46 3-1.88 1.94-1.82 2.59-.67.94-1.64 1.45-2 .91-2 1.75-1.29.39-2 0-1.56.23-2.53.19-1-.84-1.75-.55a.75.75 0 0 1-1.11-.91c.22-.59 1.1-.13 1.16.29s.62.22 1.26-.13.33.45 1.27.51.42-.48 1.13-.42.74-.16.52-.51.51-.62 1-.81.26-.94.68-1.17.13-.68.58-.71.65-.71 1.07-.71.64-.68.38-1 .17-1.32.59-1.45.45-.52.06-.81-1.81-1.26-1.71-1.88-.26-1.74-.07-2.23a5.57 5.57 0 0 0 0-2.07 14 14 0 0 1 .55-2.3c.19-1.06-1.13-2.2-1.78-2.49s-.23-.87.71-1.65 1-3.2.94-3.72-2-1-2.72-.91a28.72 28.72 0 0 1-4.17-.19c-.68-.13-.91.58-1.23 1.23a15.67 15.67 0 0 0-1.46 3.11c-.42 1.45-2.13 1.91-2.91 2.23s-1.26 1.39-.91 1.91.88.1 1.24.29 0 1.55-.26 1.75.42.68-.13 1-1.07 1.1-.75 1.49 1.91.58 2.59 1 .42 1.1.94 1.78 1.07.26 1.33.68-.94 2.1-1.36 2.17-2.14-1.72-2.66-2.11-2.52-1-3.52-1.52-1.81-.45-2.91-1.19a6 6 0 0 0-4-1.07c-2 0-3.3-.45-4-.36s-.42-.68-1.61-1.19-2-1.23-2.66-.88-.42 1.65.62 1.81.51.72 1.61.65 1.43.32 1.4 1a2.63 2.63 0 0 0 1 1.82c.48.45.19 1.19-.68 1.19s-1.88.13-1.49.75-.26.77-1.13.45-.36-.94 0-1.3-.78-.8-1.33-1-2.75 1.43-3.36 1.68-2.14-.38-3.69 0-1.46 1.62-2 1.49-2.3.16-3-.22-.12-.62.56-.59.9-.19.51-.64.52-1.17.49-1.49-2.56.52-3 .87 0 1-.42 1.23-.45-.39-1-.58-4.3.68-5 1.49-2.11.84-2.11 1.29-1.71.42-2.39.75-.23 1.65-.49 2.29-2.91.46-3.72.49-1.1-1.55-1.74-1.65-.26-1-.07-1.39.71-.07 1.52-.58 1.62.25 1.94-.1-1.23-1.3-1.32-2.11-1.82-1-2.79-.77a4.17 4.17 0 0 1-2.71-.29c-.68-.33-.62.58.38.84s.49 1 .65 1.52a3.79 3.79 0 0 1-.84 2.43c-.58.84-.16.8.71.77s.81 1.1.81 1.94-.68 1.07-.68 1.69-.71-.29-.94 0-.51-.13-.64-.64-1.46-.23-2.2-.42-1 .12-1.39.67a3 3 0 0 1-1.95.85c-.61.07-1.52 1.13-2.1 1.52s-.68 1.13.13 1.91 1 1.29.91 1.71-2.27.29-2.62-.16a3.3 3.3 0 0 0-2.27-.52c-.48.1-1.81-1.45-2.49-1.49s-1.1.81-1.33 1.23.33.55.65 1.26 1.52.75 2.14.75.38.94.19 1.32-1.33.68-1.65.26-1.68 0-1.72-.51a1.82 1.82 0 0 0-2-1.14c-1 .16-1.2-.48-1.13-1.26s-.55-1.23-.52-1.58-.45-1.07.06-1.43.13-.9.17-1.39-.88-1.23-1.69-1.23-.64-.81-1.32-1a4.24 4.24 0 0 1-2.14-1.78c-.1-.48-1.13-.55-.78-.71a1.94 1.94 0 0 1 1.75.65 5 5 0 0 0 3 1.29c1.52.2 2.14.91 3.82 1.2s2.69.48 5.11.84 5.66-2.1 6.34-2.78-.19-2.07-.19-2.59-1.1-.58-1.26-1a2.12 2.12 0 0 0-1.81-1.1c-.94 0-1.07-1.07-1.81-1s-1.27-.33-3.21-1.62-4.62-2.23-5.11-2-.81.36-1.13-.13a1.12 1.12 0 0 0-1.59 0c-.52.39-1-.36-2-.13s-1.49-.42-1.23-.71 1.68 0 1.61-.52-.58 0-1.45-.58-1.36-.2-1.55.29-.88.35-1.33-.06a.83.83 0 0 0-.15-.11c-.52-.33-1.51-.37-1.63.07s-1 .39-1-.09-1.36-.88-1.42-1.1.58-.2 1.1.09.87.1 1.45-.45 1.39-.1 1.49-.58-.94-.81-1.13-1.1a1.87 1.87 0 0 0-1.65-.55c-.71.13-.75-.16-1.17-.55s-1.71.26-1.71 1.16-.81.68-.52.2-.39-1.07.26-1.23.29-1.13-.91-1.23-1.65.9-1.36 1.23-.8 1.71-1.29 1.71.07-1.19 0-1.84-.48-.29-1.39.74-1.58 2-2.1 2.07-.45-.94.39-1.39.87-1.68 1.42-1.68.55-.65-.26-.84-.94.71-1.2 1-1.58-.46-1.55-.2-.71.36-.39.84-.16.91-.48.33-1.13-.13-1.52.52-.91.61-.52.84a.74.74 0 0 1-.23 1.26c-.58.16-.35-1.59-.81-1.42s-.16-.85.46-.85 1.23-.9 1.16-1.13c-.11-.38-.77-.29-.77.2s-1 .39-1.78.35-.78.94.13 1.46-.17.84-.62.45-1.16-.19-1.65 0 1.17.81 1.23 1.1-.84-.35-1-.13-1.1-.16-1.16-.71-1.52.23-.71.42.52.71.52 1.43-.94.16-.75-.46-.58-.48-1.23-.09.1-.72-.16-1.27-.84 0-1.52.13-1 .17-.61.62.35 1.1-.2 1-.78 0-.71.52-.71.55-.78.1-1.16-.33-1.49.19-1.23.91-1.13 1.49.81-.29 1.39-.1 0 .49.3.78.25 1-.2.58-1-.55-1.13.13-.58-.1-1-.58-.78.9-1.2.58.84-1.33.52-1.81-.55.29-1.3 1-1.74.72-1.39 1.07-.74.55-.93 1.16-1.72.85-2.69 1.5.19.67.74.06.75-.26 1.62-.81 1.81-1 2.14-.78a.86.86 0 0 0 1.29-.19.84.84 0 0 1 1.36-.1c.42.36-.71.65-.2 1.17s-.61.8-.61.35-.65-.84-.87-.42-.62.87-1 .91-.87.81-.87 1.58-.75 0-.81.68-1.1 1.88-2 2.75-.06 1.07-.35 1.62-1.36.07-1.72.29.2 1.59-.29 2 0 1 0 1.49-1.26-.29-1.36.19-1.19.36-1.52.49.65.9 1.23 1.35-.55.81-.68.3-.94.32-1.94.77-.58 1.36-1.36 1.39-.55 1.26-1.06 1.65-.39-.9-1.2-.93-.75.54-.26 1.22-.75.17-1.2.75-1.75.29-2.1.78 1 .48 1.16.87-1.16.19-1.87 0-.52.91-1.17.78-1.45.55-1 1-.36.52-.81.23-.84.42-1 1 .87.84.84 1.1-.84.68-.26.81.16.64-.23.8-.39.56 0 1-.68.58-.16 1.33.91-.2 1.13.35.84.07 1.56-.58 1 .71.39.68-1.27.32-1.14.91-.9.48-.87-.23-1.2.13-.75.65-.16.8-.16 1.29.88.39 1.23-.16a.62.62 0 0 1 1.17.13c.22.55-.55.13-.55.87s-.49.1-.91.68 1.65 1.65 2.3 1.81 1.26.88 2.55.68 3.76-2.59 4.08-3 1 .07 1.52-.32.2-1.39.55-1.58.55 1.06.88 1.19.5.35.51 1a1.47 1.47 0 0 1 0 .21 2.65 2.65 0 0 0 1 2.2c.71.58.16 1.45.78 2.26s.42 1.4 1.1 2 .74.9.45 1.65.58.55.62 1-.2 1.39 0 1.84.68 0 1.72 0 .77-.68.8-1.29.56-.32.68-.71 1.07-.49 1.81-.17 1.14-.22 1.27-1 .55.16.77.32.91-1.19 1.23-2.07 0-.71-.77.13-.33-.84 0-1.52a20 20 0 0 0 .36-3.1A1.49 1.49 0 0 1 91 91.81c.94-.19 2.17-1.36 2-1.84s1.3-1.3 1.3-1.78-1.56-2-2.07-2.3-1.65-.07-1.56-.42a10.53 10.53 0 0 0-.28-2.47c-.13-.71.81-1.45.81-2.13s0-1.46.58-1.69.23-.8 1-1 .65-1.36 1.52-1.71.94-.65 2.07-1.2a10.14 10.14 0 0 0 3.37-2.53c.32-.67-1.17-1.39-.23-2.1s.16-1.52.84-1.78a3.5 3.5 0 0 0 1.43-1.13c.48-.52 1.13 0 2.29-.23a2.93 2.93 0 0 1 1.19.06 10.15 10.15 0 0 1 1.76.72c.87.39.74 1 .77 1.68s.07 1.07-.39.78-.93 0-1.19 1a3.51 3.51 0 0 1-2.24 2.2c-.74.06-.67.84-1.29 1s-1.2.52-1.16 1.2-.91.74-1.52.74-.49 1.1-1 1.39-.39.68.07 1.27.06 1.1.22 1.52a2.82 2.82 0 0 1 .39 2.46c-.48 1.06-1 2.39-.58 2.26s1.39.87 2 .81.71.9 1.33.71.61.58 2.39.52 5.37-1.55 6.8-1.55a7.91 7.91 0 0 0 2-.23 8.61 8.61 0 0 1 1-1.33 9.27 9.27 0 0 0-1 1.33 4.91 4.91 0 0 0 .91-.32c.52-.26.88 1 1.4 1.42s1.55 0 1.9.42-.29.42-1 .29-.94.32-2.1.71c-.87.29-.79.6-1.08.85a1.35 1.35 0 0 1-.48.22c-.94.26-3-.65-4.14-.42s-3.52.23-4.07.81-1.95.74-1.33 1.26 0 .78.45 1.39.68.88 1.3.75 1.1.19.45.87c-.6.66-.17 1.14-.2 2.16s-1.16.84-1.78.84-1.61-1.84-1.94-2.27-1.36.52-2.1 1-.36 1.32-.88 1.74a1.53 1.53 0 0 0-.32 2.07l.06.12a2.14 2.14 0 0 1-.22 2.38c-.35.39-.15.45.11.6a1 1 0 0 1 .34.33c.29.52-1.16.59-.71 1.2s-1 .65-1 0-1.56-.32-1.49.1a.89.89 0 0 1-.13.52 1.37 1.37 0 0 1-1.2.61c-.94 0-1-.94-1-1.36s-3.79.36-4.79 1.36-3.34.61-3.4 1.16-.4.61-.62.5a.36.36 0 0 1-.19-.27c-.1-.52-.45-.71-1.29-.71s.51-.84.19-1.26-1.16.77-1.94.51-1.78.91-2.46 1.43-1.65-.1-1.13-.84 0-.68-.78-.39-1.71-.06-1.61-.78a.82.82 0 0 0-.13-.5c-.29-.46-.93-.84-.88-1.18s.68-.16 1.14.23 1.45.45 1.55 0c.06-.3-.16-1.69-.78-1.36s-.77.19-1-.13.45-.84.61-1.36 1.23-.33 1.39-.75-.71-.87-1-1a1.22 1.22 0 0 1-.07-1.52 1.83 1.83 0 0 0 .23-1.88c-.32-.32-1.49 0-1.59.87s-1 .49-1.29.68.52.59.1 1-.58-.58-1.26-.64-.75 1-1.1 1.58-.13 1.72 0 2.5 1.06 1.26.84 1.9c-.11.3.1.64.33 1s.54.75.38 1c-.29.55.16 1.07.58 1.88s-.9.35-.94.87-1.23 0-1.61-.23-1.69-.06-1.65.26a1.1 1.1 0 0 1-.07.46c-.08.23-.26.4-.55.22-.48-.29-1.23-.13-2.2.07s-1.26 1.13-.91 1.52-.93.58-1 .06-1.07-.16-1 .52-1.07.94-1 1.78-1 1.62-1.74 2l-.35.2a4.9 4.9 0 0 1-1.46.62 1.63 1.63 0 0 1-.49 0c-.78 0-1.46.58-1.33 1.88s-1.1 1.41-2.39 1.53-.87 1.13-1.42 1.55-2.5-.23-2.76-.94-2 0-1.26.84.71 2 .29 2.33-1.32-.51-1.91-.09-.61-.39-1.32-.65-1 .32-2.14.23-1.78.54-1.35 1-.07.94.25 1.36 1.81.35 2.91.94 1.36.09 1.91.52.68.16.71 1a2.14 2.14 0 0 0 1.72 1.87c1.07.29.26 1 .58 1.72s-.48 1.74-.32 2.62-.52 3.69-1 3.94a.42.42 0 0 1-.13 0c-.65.13-2.54-.57-3.78-.41s-5.57-.2-7.22-.07-1.74-.68-2.65-.68-.52 1.1-1.81 1.13-1.42.85-.49 1.59c.54.43.47 1.32.4 2.14a2.86 2.86 0 0 0 .06 1.48c.42.68-.52 4.27-1.36 5.24s0 1.23.84 1.91.29 3.14.29 3.72.78.43 1.68.43a11.05 11.05 0 0 0 1.75-.35 1.91 1.91 0 0 1 1.16.09c.91.42 1.43 2.67 2.66 2.52.52-.07.26-.45.52-.71s.74-.07 1.26-.07.77-.74 2-.77 2-.13 2.79-.1 1.39-.23 1.58-.78a2.07 2.07 0 0 1 1.72-1.16c.87-.13.74-1 .8-1.55s1.52-1.3 1.62-1.69-.84-1.87 0-3.2 1.82-1.39 1.82-2.14.9-.93 2-1.06 1.46-.88 2.4-1.26a1.47 1.47 0 0 0 .91-1.84 3.52 3.52 0 0 0-.14-.56c-.38-1.26.75-2 1.82-2.17a9 9 0 0 1 4 .88c.61.38 1.45.29 2.52-.84a2.94 2.94 0 0 1 1.37-.9 5.91 5.91 0 0 0 1.06-.3c.68-.36.39-1 1.52-1.3a3.34 3.34 0 0 1 3.07 1.3c.45.68.58.74.68 1.29a4.24 4.24 0 0 0 2.07 2.66c1.55 1 2.17 2.13 3 2.55s1.62.33 2.1.91a5.14 5.14 0 0 0 1.91 1.26c.78.36.81 1.2 1.55 1.29s.26.75.71 1.3a2.13 2.13 0 0 1 .1 2.36c-.48.65-.23 1.75.1 1.75s1-1.17 1.1-1.82.74-.61 1.26-1.29-.78-.84-1-1.71 1-1.65 2.1-.94 1.59 1.19 1.65.09-3.49-2.55-4.34-3.07-.29-1.36-1.61-1.29-2.91-1.59-3.4-3.5-2.55-2-3.07-3.14.48-1.26 0-2.2c-.25-.52.31-1 1-1.24a2.32 2.32 0 0 1 1.4-.18.74.74 0 0 1 .38.65c.07.45 0 .94.4.94.58 0 1.65-.07 1.68.71s1.42 2.49 1.94 3.07 1.68.46 1.75.94.9.94 1.87 1a2.21 2.21 0 0 1 .93.39 10.72 10.72 0 0 1 1.12.83 10.87 10.87 0 0 0 1.55 1.14l.11.07c.85.45 1.18.77.6 1.36s-.75 2.68-.07 3.23.83 1.57 1.46 1.86h.09a1.82 1.82 0 0 1 1.17 1.88c-.1.81 1 1.1 1.55.52s2 .32 2 .71-1.49-.42-2.34.19.65 1.2.46 1.85a1.25 1.25 0 0 0 1.13 1.52c.75 0 1.59 1.2 2 1s-.55-1.94-.39-2.2 1.07.45 1.52-.07-.32-.9-1-.87 0-.91.78-.42 1.19-.13 1.58-.2.49-1.45-.71-1.77-1 .87-1.81.06.71-.49.71-1.17-1.2-1.64-1.78-2.45.81-1.2 1.13-.62 1.2.49 1.75.26-.58-1.26.42-1.65 1 .29 1.33.42.61-.81 1.65-.81a2.65 2.65 0 0 1 1.47.7 2.37 2.37 0 0 0 1.28.63c.9 0 1.26-1 2-1.26s2.53.09 2.95-.29-1.1-.88-1.65-1.33a2.28 2.28 0 0 1-.54-1.14c-.08-.27-.15-.48-.3-.51-.36-.06-.91-1.55-.46-1.65s1-1.65 1.75-1.88a.62.62 0 0 0 .46-.47 7.43 7.43 0 0 0 0-1.15c0-.68.42-1.71 1.1-1.78s1.23-.06 1.14-1.19a.41.41 0 0 0 0-.11c-.07-1 .14-.95 1-1.64s1-2 1.88-2.2a4.91 4.91 0 0 1 2.43-.35c1.23.19-.62 1 .22 1.42s3.43-.13 3.56.52-3 1.29-2.91 1.61 1.65.65 2.2 1-.16 1.36.1 1.68 1.1.06 1.78-.42 1.23-.33 2.1-.91 2.68-.06 2.91-.42-.52-.71-2.2-.58a1.62 1.62 0 0 1-1.78-1.78 4.91 4.91 0 0 1 2.75-1.75 7.81 7.81 0 0 0 2.78-.84 9.21 9.21 0 0 1 1.78-.5c1.05-.2 2.12-.28 2.24 0 .19.39-2.27 1.43-2.72 1.59s.87.84.84 1.23-1.43.48-1.3 1.26-.45.94-1.19.94-.94.45-.58.51.32 1 1.71 1.4a9.78 9.78 0 0 1 4.08 2.94 2.46 2.46 0 0 0 .57.45c1.27.74 3.12.55 3.37 1.88.3 1.55 1.17.94.84 2.26a1.47 1.47 0 0 1-.5.75c-1.05 1-3.35 1.62-4.06 1.36-.87-.32-2.55.1-3.81.1s-1.62-.91-2.59-.85-1-.87-1.94-.87-.23-.49-3.27-.87a9.07 9.07 0 0 0-6.63 2c-1 .85-4.47 0-4.79.26s.06 1.23-1.1 1.69-3.72 0-4.6.38-1.19 1.69-.45 1.62 1.13.29.91.62.61 1.23.19 1.61a1 1 0 0 0 .07 1.52c.51.39.61 1.11 0 1.2s1.06.81 1.1 1.13 1.42.49 1.42.88.42.52 1.1.32.94.75 1.36 1.39 2.81.2 2.81-.51.71-.91 1.78-.81 2.46 1.55 3 1.74 1.58-.38 2.26-.38 1.65-1.07 2-1.3 1.07.75 1.69.42 1.29-.68 1.68-.45-.94 1.23-.59 1.75a.86.86 0 0 1 .05.74c-.09.4-.24.81 0 1.1s-.07.93-.17 1.62a1.36 1.36 0 0 0 0 .29c0 .65-1 2-1.62 3.28l1 .44h.11c0 .21-.05.43-.07.64 0-.21.05-.43.07-.64l-1.1-.47a3.86 3.86 0 0 0-.35 1 13.78 13.78 0 0 1-1.73 3.9c-.11.17-.2.29-.24.34-.26.26-1.33-.39-2.33-.13a3.73 3.73 0 0 1-2.75-.58c-1-.49-4.15.13-4.57.74s-1.49.62-2.46.23a12.9 12.9 0 0 0-4-1.13c-1.66-.15-3-.39-3.3-.79a.47.47 0 0 1-.06-.09c-.16-.45-1-.48-3-.77s-1.19-1.59-3.33-1.72-4.85 1.59-4.88 2.49 1 1.91.29 2.85a2.3 2.3 0 0 1-3.37 0 6.23 6.23 0 0 0-4-1.45c-1.33 0-2.27-.85-2.17-1.56s-.32-1-1.42-1.26-2-1.13-4-.81a3.54 3.54 0 0 1-2.53-.52c-.52-.34-.84-.74-.84-.93 0-.42-.58-1.14-.9-.75s-1.55.07-1.72-.74.81-.78 1.72-1.52a1.9 1.9 0 0 0 .06-2.95c-1-.77-.29-1.19.39-1.9s.07-1.1-.29-.78-.94.42-1-.36-2.2-.9-3-.16a1.74 1.74 0 0 1-1.18.34 7.63 7.63 0 0 1-2.06-.4 13 13 0 0 0-2.23.22c-.71 0-2.46 1.17-3 .62s-6.54.42-8.22.48-2.4 1.82-3.4 1.82a5.67 5.67 0 0 0-3.43 1.77 1 1 0 0 1-.82.37c-.79 0-1.73-.57-2.54-.59-1.14 0-2.88.55-3.72-.39s-1.43-1.23-2-.94-1.75 3.53-2.4 4.47a5 5 0 0 1-3.42 1.68c-.87 0-1 1.33-1.65 1.88s-.42 1.42-1.23 2.07-.42 2.62 0 3.33-1.49 2.95-2.59 3.59-1.45 1.88-3.2 2.17a2.85 2.85 0 0 0-1.58.78 5.09 5.09 0 0 0-1.2 2c-.39 1-2.82 2.56-2.91 4s-2.37 3.72-3.85 6.83a6.21 6.21 0 0 0-.65 2.06c-.12 1.41.74 1.91 1.23 2.47.68.78-.52 2.14.48 3.53s-.22 3.52-.71 4.3a5.19 5.19 0 0 0-.37 1.9 4 4 0 0 1-.5 1.75c-.71 1.07.29 2.63.81 3.11a.52.52 0 0 1 .13.41c0 .36-.22.85-.29 1.32a1.25 1.25 0 0 0 .25 1l.22.26c.56.7.63 1 1.76 1.36s-.1 1 .94 1.65l.23.23c.75.61.68 1.28 1.56 1.92a7.38 7.38 0 0 1 2.44 2.69 4.88 4.88 0 0 1 .32.81 4.36 4.36 0 0 0 1.75 2.75c.33.27 1 .69 1.75 1.17.91.58 2 1.25 2.84 1.9a28.85 28.85 0 0 0 5.11 3.2 1.69 1.69 0 0 0 .54.09c1.31 0 3.67-.94 6.45-1.41a9.29 9.29 0 0 1 4.25.25c.88.25 1.46.54 1.64.59.39.1 3.14-1.17 4.24-1.72.88-.44 1.86-.71 2.53-1.07a2.1 2.1 0 0 0 .44-.29 2.81 2.81 0 0 1 1.23-.48 8.26 8.26 0 0 1 1.46-.13c.7 0 1.12-.92 1.5-.48.39.51 2.23.61 3.27.84a3.25 3.25 0 0 1 2.07 2.23 2.88 2.88 0 0 0 1.16 1.88c.49.26 1.69-.49 2.24-.49s2.52 0 2.91-.32a.26.26 0 0 1 .35 0 5.48 5.48 0 0 1 .91 1.21c.45.65 1.33.17 1.68.36a3.19 3.19 0 0 1 .62 2.14c-.13.4-.66 1.43-.42 1.94v.06a.94.94 0 0 1-.52 1.43c-.68.22-.65.84-.1.87.34 0 .26.3.09.57a2.27 2.27 0 0 1-.31.49c-.29.29.68.68.85 1.1s-1.24.3-1.2.91a1.81 1.81 0 0 1-.88 1.39c-.39.29 1 1.52 1.07 1.94s.36.81 1.59 2 .61 1.43 2.16 2.69l.23.19a6.32 6.32 0 0 1 1.88 2.31 10.62 10.62 0 0 1 .77 2.41l.06.22a32.77 32.77 0 0 0 1.92 4.57c.29.62-.36 1.16-.36 2.3s1.23 3.2 1.36 4.59-.78 2.27-1.55 3.17a8.07 8.07 0 0 0-1.57 4.21c0 1.26-1.16 2.49-1.13 3.07a19.24 19.24 0 0 1-.29 2.95v.08a5.23 5.23 0 0 0 1.23 2.9 16.75 16.75 0 0 1 2.13 4.47c.49 1.58 1.88 3.36 2.24 4.56s-.26 2.91.09 3.69a14.6 14.6 0 0 1 .78 3.43c.19 1.32.29 4.14 1.49 5.3a10.14 10.14 0 0 1 1.36 1.75 15.66 15.66 0 0 1 1.65 3.49c.51 1.72 1.78 3.33 2.1 4.34s.68 1.94 0 2-.68.67 0 1.78.1 1.74.71 1.87.42.52.91.55.84.52 1.16.94a.91.91 0 0 0 1.43-.1c.35-.52 1.45-.68 2.58-.68s.91-.48 2-.81a6 6 0 0 1 3.37 0 2.3 2.3 0 0 0 2.1-.26c.45-.29 1.33.46 1.39-.29s1-.61 1.81-.61 2.88-1.33 4.5-2.85a41.11 41.11 0 0 0 5.21-6.37 16.27 16.27 0 0 1 3.14-3.5c.55-.51.88-2.3 1-3.6 0-.44.08-.83.1-1.09.06-1-.65-.19-.87-.84s1.58-1.84 3.42-2.52 2.56-1.07 2.75-1.72 0-2.46.23-3.17-.16-1.13-.39-2.75-.81-1.88-1.06-2.78-.2-1.62.35-1.65.55-.29 1-1.17 1-.51 1.85-1.16.9-1.46 2.3-2.52 2.91-1 4.27-1.85 3.68-4 3.46-4.56a14.72 14.72 0 0 1-.55-4.27c.13-1.07-.2-3.88-.2-5.24v-.08c-.06-1.25-1.49-.7-1.55-2s-.84-1.33-.81-2.24.1-1.71-.22-1.81-.13-.87.38-1.65-.93-.87-1.16-1.84a10.5 10.5 0 0 1 1-3.33 49.74 49.74 0 0 1 2.14-4.76c.49-.74 1-.61 1.4-1.13s.55.26 1.19-.78c.05-.08.12-.17.19-.26.86-1.15 3.16-3.35 4.86-5.14a11.36 11.36 0 0 1 3.82-2.91 26.63 26.63 0 0 0 5.44-5.34c1.12-1.43 2.36-3 2.52-4a9.37 9.37 0 0 1 2-3.39c.78-1 2.07-3.56 2-4.34s.65-2.43.74-3.82-1.06-1.52-1.42-.74-3.14 1.29-4.92 1.32-2.84.2-3.49.81-2.27-.16-2.85.52-2.88 1.27-3.62-.29a2.85 2.85 0 0 0-1.12-1.25l-.08.08.07-.08c-.54-.31-1-.36-1.17-.5s.65-.87 1.26-1 .33-.84-.19-1.29l-.29-.27a24.46 24.46 0 0 1-2.33-2.61c-1.23-1.56-2.69-2.4-3.46-2.4s-.91-1.32-1.4-1.39-1.58-2-1.61-3.2a6.49 6.49 0 0 0-2.59-3.69c-.78-.35-1.3-1.71-1.3-3.43a19.86 19.86 0 0 0-.48-3.62 4.17 4.17 0 0 0-1.91-2.27 2.29 2.29 0 0 1-1.22-1.64 2.59 2.59 0 0 1 0-.88c.16-1-.55-1-1-2.43s-2.27-3.62-2.33-4.46-1.07-1.33-1-2.23-.48-1-1.49-2.43-1.29-3.92-1-4 1.13 2.1 1.46 2.81 1.42 2.88 2.2 2.88 1.07-3.27 1.32-3.1l.06.09c.15.46-.08 2.35.37 2.49s.74 1 1.77 2.17 3.14 4.18 3.17 4.92a3.12 3.12 0 0 0 1.69 2.43c1.29.87 1.29 1.94 2 2.46s.52 1.13.55 2.42a4.63 4.63 0 0 0 1.78 3.69 5.51 5.51 0 0 1 2.52 2.88 10.13 10.13 0 0 0 2 3.33c.74.75.32 1.13.74 1.68a5.85 5.85 0 0 1 .72 1.27 2 2 0 0 1 .19 1.35 4.94 4.94 0 0 0 .65 3.5c.68 1 .42 2.85.74 3.2s2.85.29 4-.45a4.61 4.61 0 0 1 2.82-.88 3.89 3.89 0 0 0 2.39-1.16c.29-.39 1.62-.42 2.17-.35s1.1-.56 1.71-1.17 2.56-.87 4.63-1.52 1.62-1.62 2.1-2.2 1-.35 1.87-.7a4.71 4.71 0 0 0 .56-.27c1.23-.71 2.62-.36 3.56-.62s0-1 .84-1.71 2-.16 2.39-.39.71-1.71 1.43-2 1.48-.1 1.39-.72.06-2.81.74-2.94 1.75-.84 1.78-1.23a25.28 25.28 0 0 1 1.81-2.56c.42-.71.46-1.1-.16-1.19s-1.58-1.82-1.84-2.3-2.14-.16-3.66-1.36a4.15 4.15 0 0 1-1.18-2.32c-.32-1.35-.37-2.71-.6-2.73-.39 0-2 1.69-2.62 3a4.17 4.17 0 0 1-4.14 1.94 2.73 2.73 0 0 0-2.59.68c-.11.07-.28 0-.46-.13a2.79 2.79 0 0 1-.91-1.4.83.83 0 0 1 0-.61c.42-.71.68-2.55-.26-2.81s-1.46 1.62-1.46 2.13c0 .1-.06.1-.16 0-.43-.29-1.56-1.91-1.17-2.36s-.26-1.71-1-2.36-2.17-1.84-2.23-2.59a4.89 4.89 0 0 0-.27-.93 22.68 22.68 0 0 1-1.06-2.75.55.55 0 0 1 .2-.37 2.35 2.35 0 0 1 .95-.51 1.94 1.94 0 0 1 .54-.1c.58 0 .55-.64 1-.25s1.07 0 1.52-.07 1.68 2.3 2.23 3.43.52 1.52 1.26 2 1.59.22 2.66 1.32 3.81 1.85 5 1.91 2-1.26 3.53-1 1.13 2.2 1.68 2.88 6.6 1.13 7.63 1.43a12.93 12.93 0 0 0 2.29.19c0-.21 0-.41-.05-.54 0 .13 0 .32.05.54 1.77 0 3.86 0 4.09-.29a1.47 1.47 0 0 1 1.68-.26 5.33 5.33 0 0 0 3.53 0c1.06-.59 1.71 0 1.74.51s.52.75 1 1.2.14 1 .46 1.49 1 .42 1.91.84a1.59 1.59 0 0 1 .35.22c.65.51.92 1.43 2 1.85 1.26.49 2.39-.81 2.39.13s-3 .75-3 1 3.08 4.07 4.66 3.78 2.75-2 2.3-2.26.26-1.33.68-1.14.06 1.88.55 2.27.32 1.1 0 2 .32 2.68.42 3.68.77 2.46 1 3.95a23.32 23.32 0 0 0 2 5.86c.87 1.65 1.55 4.88 2.13 5.66s2.08 3.14 2.08 4.59a6.62 6.62 0 0 0 2.13 3.88c.55.39 1.75-.45 2-1.35s1.94-1.27 2-2 .26-1.39.84-1.49.58-.71.58-1.55a4.77 4.77 0 0 1 .65-2.79 4.67 4.67 0 0 0 .32-3.55 3.94 3.94 0 0 1 .16-2.76c.33-.8.2-1.74.81-1.81a3.57 3.57 0 0 0 2.17-1.49 22.88 22.88 0 0 1 3.33-2.65 21.64 21.64 0 0 0 3.53-3.56c.65-1.07 2.49-1.42 3.33-2.29s.52-1.33.68-2.27 2.88-1.32 3.92-1.32a2.78 2.78 0 0 0 .54-.06c.61-.11.9-.4 1.46-.4.71 0 1.68-.09 1.75-.84s.87-1.29 1.32-1.07 1.14 2 1.17 3a3 3 0 0 0 .34 1.1 4.56 4.56 0 0 0 2.05 2.17c1.27.51 2.11 3.07 2.5 4.43a4.87 4.87 0 0 1-.33 3.53c-.45.77.16.81.91 1.19s1.58.52 2.13-.26 1.69-1.32 1.85-2.2.68.42 1.13.88a4 4 0 0 1 .87 2.42c.1 1.1.2 3.85 1.13 4.73A3.92 3.92 0 0 1 266 213c-.26.68.48 1.84.29 2.59 0 .15-.08.36-.13.59-.18.95-.41 2.42-.62 3.23-.25 1-.45 1.87.13 1.94s1.75 1.39 2.88 2.81a5.14 5.14 0 0 1 .66 1.08 8.47 8.47 0 0 1 .6 3.35c0 1.3 1.95 3.37 2.24 4.21s.84 1.1 2.1 2 3.72 2.36 4.21 2.13-.75-2.36-1.46-3.1-.06-2.76 0-4.21-1.36-1.29-1.68-2.3-.88-.42-1.07-1.06a1.11 1.11 0 0 0-.17-.32 4.12 4.12 0 0 0-2.52-1.47c-1.1-.09-1.62-1.74-1.52-2.49s-.81-1.39-.81-2-.64-.68-1.39-1 .16-2.56.26-3.49 1.65-3.63 1.2-4.47 1.58-1.49 1.84-.55.36 1.39 1.65 1.33 1.3.94 2.33 1.23a.56.56 0 0 1 .16.07c.82.36.49 1.39.59 2s.9.25 1.35.22-.29.71.1 1.17 1.52-.39 1.75.16a1.3 1.3 0 0 0 .19.33 3.4 3.4 0 0 0 1 .74c.52.32-.64.87-.61 1.9s.81 1.3 1.1.88a6.47 6.47 0 0 1 2-1.52c.49-.16 0-.87.52-.84s.36-.75.58-1.17.58-.26 1.36-.22 1.88-.72 3-1.43 1.29-.87 1.71-2.91-.48-4.46-.52-5.08-1.52-3.46-2.07-3.43-3.07-2.55-3.52-3-.33-1.14-1-1.69-.71-2-.55-3 1.58-1.23 1.55-1.91.13-1.26.84-1.3a2.4 2.4 0 0 0 1.72-1.13.4.4 0 0 1 .18-.16c.42-.2 1.17.14 1.34-.36s.9-.42 1.19.07.62.58 1.27 0 1 .58.58.9-.13 1.33.48 1.91.71-.35.59-.93 1-1.17 3.07-1.85 4.24-2.17 4.27-2.49 1.46.58 2.14.06 3.13-.58 3.78-.61.61-.58 1.3-1.13.51-.81 1.29-1a1.76 1.76 0 0 0 1.26-1.33c0-.38 1.46-.51 1.49-.93s1.1-.55 1.1-1.07.65-.42.94-.81-.23-1.52.29-1.68-.2-.78-.29-1.07 1-.36 1.52-.71a2.25 2.25 0 0 0 1-1.52c.1-.62 1-1.17 1.42-1.33s.59-1 .46-1.78.74-.55.35-.84.16-1.1.94-1.33-.48-.58-.9-.25-.88-.94-1.27-.46-1.48-.29-.77-.45a22.51 22.51 0 0 0 2.3-1.13c.48-.17-.72-1.23-1.33-1.2s-1.3-1.42-1.94-1.42.48-.46 1.23-.07 1.61.71 1.94.39-1.26-1.62-1.85-2.07 0-1.07-.38-1.33a9.55 9.55 0 0 1-1.4-2.65c-.25-.75-1.61-.87-1.94-1.36s0-1.62 1-2 .58-1.26 1-1.16.84-.1 1.2-.84 1-.29 1.33-.68 1.94-.36 2.49-.75-.52-1.58-1.26-1.39a2 2 0 0 1-2.14-.87c-.52-.78-1.88 1.42-2.91 1.91s-1.72-.88-1.36-1.75-.81-.84-2.26-.78-.91-2.59 0-2.71 2.17.8 2.72-.81 1.33-.36 2.56-1.78 2.65-2.3 3.72-1.46-1.14 2.17-1.49 3 .32 1.07-.32 1.68.25.78 1.52 0a27.11 27.11 0 0 1 4-2.27 2.35 2.35 0 0 1 1.06-.13 3.88 3.88 0 0 1 2.5 1.23c.61.78-.71 1.65-1.3 2.36s.36.75.39 1.33.81 1.07 1.11.55.77-.32 1.68-.32a.55.55 0 0 1 .51.29c.25.42.2 1.12.68 1.16a.48.48 0 1 1-.13.94c-.74-.16-.74 1-.09 2s-1.23 2.13-.71 2.65.09 1.13.32 1.46 3-.13 4.17-1.36 1.52-1.07 2.14-.91 1.23-.45.9-.94a5.68 5.68 0 0 1-.58-3.17c.06-.86-1.12-2.43-2.27-3.67a12.93 12.93 0 0 0-1.94-1.83c-.74-.45-.29-1.71.62-1.94s3.14-1.94 3.82-2.33.23-1.65.77-2.65a12 12 0 0 1 2.44-2.36c.18-.14.36-.28.54-.4a4.9 4.9 0 0 1 1.81-1c.81 0 1.62 1.39 2.53 1.42s5-2.72 5-3.17 2.43-2.75 3.56-4a18 18 0 0 0 3.21-4.3 36.46 36.46 0 0 1 2.32-3.11 11.48 11.48 0 0 0 1.36-2.23c.71-1.52.71-5.5.94-5.76s.1-.94.42-1.36.16-1 .81-1.55a1.12 1.12 0 0 0 .36-1.46c-.16-.42 0-1.36-.13-1.65s-.13-.42.26-.64-.26-.81-.81-1.07-1.26-.49-1.33-1.1a1.82 1.82 0 0 0-1.71-1.3c-.72.07-2-.38-1.88.07s-.07.84-.42.74-.52.2-.94.85-1.91.71-1.23.09-.23-.65-.1-1.29.68-1.3-.06-.88-.74 1.43-1.36 1.56-.42-1.75-.26-2.23-1.13 0-2.49-.07-1-1 .1-1.62.9-1.13 1.45-1.36 2-1.16 2.82-1.65a2.45 2.45 0 0 0 1.2-1.58c.19-.55 1.74-1.23 3.13-2.36a8.6 8.6 0 0 0 2.4-2.46c.32-.68 2.39-1.52 2.42-2s2.46-1.81 4.11-2.14 4.27.1 4.76.59a.67.67 0 0 0 1.13 0c.29-.32.94-.16 2 0s1.36-.52 2.1-.29 1.36.36 1.81-.52 2.59-.71 3.08-.35.87.84 1.65.32.78.68 1.52.78.26.74-.39.68-1.46.32-.71.74S384.46 92 385 92a3.47 3.47 0 0 0 2.3-.39c.81-.52 1 .42 1.55 0a3.7 3.7 0 0 1 2.26-.55c.59 0 .1-.68-.87-.68s-.94-.52-.16-1.85 2.26-2 3.2-2.84 1.62-.42 1.62-.94.45-2 1.17-2 2.48.29 3.59-.32 1 .45 1.45.61 1.07-.94 1.59-.61-.78 1.1-1.07 2 .68.58 1.23.84-.71.65-.58.9 1.23.26 2.65-1.16a4.72 4.72 0 0 1 3.62-1.72c.91.1.39-.8.46-2.13s2.84-1.72 3.75-1.33.84.75 0 .52-1.68.55-1.64 1.65-.78 1.46-.36 1.88-.62.51-.65 1 0 .81-.64 1-2.82.42-2.88 1.26-1.23.94-1.78 2-2.66 1.65-4.05 3.73-3.59 2.07-3.59 2.45-1.52.36-2 .43.49 1.32-.74 2.65a7.38 7.38 0 0 0-2 5c0 1.85.65 7.15 1.2 8.09s.23 3.24.68 3.72.29 1.3.58 1.59 1.49-1.3 2.3-2 .55-.9 1.1-1.26.32-1.84.49-2.23 1.16-.58 1.48-1 1.17-.16 1.62-.33 0-1.23-.19-1.84 1.32-1.46 2.1-2 1.75.36 2.62-.45-.06-1.75-.39-2.17.88-2.46 1.55-2.65 1 .48 1.69-.1-.58-1.52-1-1.45-.61-1.65.46-2.46.64-1-.07-1.17-.84.07-1.39.1-1.1-1.13-.26-2.26 1.65-1 1.85-2a11 11 0 0 1 1.64-2.75c.3-.48 1.46 0 1.91-.09s.3.87.84.38 1.46-2.1 2.2-2.1.26 1.2.46 1.91.61-.19 2-1.16a7.41 7.41 0 0 1 5.46-.42c.94.45 1.1 1.52 1.62 1.39.79-.2.13-1.07.91-1.3a13.28 13.28 0 0 0 3.11-1.73c1-.74.74-.19 1.29-.87s1.1-.39 1.26-.84 1.65-1.2 3.69-1.65 4.69-1.81 4.56-2.23.78-.62.88-.2.87.26 1.94.49 1.55.65 2.39-.2-.09-1.13-.06-1.77-1.46-1.33-1.26-2-1.1-2.49-1.49-2.14-1.3-.29-1.3-.81-.06-1.13-.68-.74-1.65.19-1.84-.39 1.2-1 2.17-.61.68.77 1.16 1.06a3.47 3.47 0 0 0 2.49-.16c.68-.32 2.59-.94 2.92-1.49s0-.8.61-1.13.16-1-.39-1.29a.55.55 0 0 1 .16-1.07c.59 0 .42-.68.81-.71s.45.29 1.17-.07 0 .55-.29 1.17.68 1.13.77 1.49 1.49.48 2.27.06 3.27.52 3.43 1.13a2.78 2.78 0 0 0 1.55 1.88c1 .52 2 .29 2.17.78a.93.93 0 0 0 1.16.61c.59-.13.91.52 1.33.13s.65.23 1.2-.26-1.2-.81-1-1.19.58.29 1.06.25-.13-1 .23-1.06.06-2-.32-2.17-.04-.82.72-.27zM190.11 4.2c.45-.59-.85-.59-1-1.17s-3.76-.71-3.56-.06-2.51 1.35-1.68 2c1.58 1.23 5.78-.19 6.24-.77z"/><path class="cls-2" d="M172.7 36.87c1.23.07-.71.26-.58 1.23s-2 .33-1.94 1-.33 1.1-1.55 1.1.58.78.71 1.49-1.23.2-1.3 1.3-2.39 0-2.71 1.42 1.16 1.23 2.19 1.3-.38 1 .39 1.61 1.36.39.84-.71 2.72.39 1.75 1.23 1.55 1.49 2.79 1.55 5.59 1 5.69 0c.06-.64-1.62-1.23-3-2.65s-2.31-3.74-.75-4.74.19-1.43 1.74-2.53.65-2.13 1.94-2.26-.13-1.3 1.17-1.49a1.75 1.75 0 0 0 1.36-2.14c-.2-.51 1.36.07 2.07-.71s2.39-.26 2.91-1.36 8-3.62 12.17-4.59 7.11-2.72 5.62-3.88-5.69.45-6.73 1.29-2.52.26-3.55.84-3.24 1.1-4.34.39-2.39.84-3.24.78-1.81.84-2.71.77-2.72.72-2.85 1.23-1.68.39-1.68 1-1.23 1.23-1.88.64-1.42.65-.52 1.49-1.68.91-1.23 1.43-1 .84-.64 1.42-.91.78-1.88 1-1.49 1.49-.26 1.55zM161.57 4.13c.91.65-2.52.45-3 1.1s-2.44.41-2.07 1.17 3.63.84 3.63.19 1.68-.06 1.74-.65.78-1.22 2.59-1.36 1.82-.77.13-1.55-3.92.46-3.02 1.1zm-2.78 52.29c1.75 1.61 3.24-.72 4.07-.84s-.51-1-1.94-1.43-3.45 1.04-2.13 2.27zm-3.3-51.7c1.49-1.36 3.43-.07 3.69-.72s-2.78-.84-3.89-.25-3.67.11-3.36.83a2.52 2.52 0 0 0 3.56.14zm207.13 111.1c.52 1.16-.71 7.37-.2 8.41s-.84 5.61-.38 6.15c.77.9.25-1.23 1.42-1.43s1.16 1.3 1.88 1.62.25-2.07-.39-1.94-1.17-1.55-1.49-2.59.65-2.26.65-3.56 1.61-1.23 2.58-.26 1.1.33.72-.39-1.62-5.88-2.33-7.76 1-3.69-.26-4.66-.78-3-1.42-2.59 0 2.14-1 2.27-.07 1.1-.45 2.39a7.19 7.19 0 0 0 .67 4.34zM296.55 33.9c-.26.52-1.67.55-1.29 1 .65.84 3.88.39 3.95-.64s-2.4-.88-2.66-.36zm147.34 15.2c1.29.65 2.07-.77 3.11-.06s3.56-.32 4.59-.52.52-1.49-2.39-1.87-6.7 1.76-5.31 2.45zm-83.47-14.04c0-1-3.53.36-2.07.84.77.26 2.07.1 2.07-.84zM268.6 17.72c.91.52 3.82-.65 5.76-.58s7.37-1.49 7.57-2.52-2-1-2.85-1.88-2.72-.13-3.17.65-1 .06.26-1.17-1.23-2.2-1.29-1.42-2.33.13-2.33.84-.85 1-.78 1.75-1.55-.39-1.62 1.23-2.51 2.56-1.55 3.1zm83.47 13.33a5.8 5.8 0 0 1 1.75 1.42c.52.52 2.46-.25 3.23-.51s.84 1.16 2.07.38S361.58 32 363 32s-.26-1.75-.2-2.53 1.68-.26 1.17.39.77 2.14 2.84 2 .52-1.43 1.56-1.88.9-1-.59-1.88-3.42-.32-4.72-.9-3-.65-3.11.77-2.78-1.55-4.2-2-5.82 4.03-3.68 5.08zM258.57 8.6c0 .71-2.08 1.42-1.49 1.94s1 .32 1.62.45 1 1.75 2.13 1.49 4.34 1.29 6.22 1.29 2.07-1.55 1.48-1.61-.06-1 1-2.46-3.23-2.59-3.23-1.43-1.3-.27-1.65-.97-6.08.58-6.08 1.3zM371.68 31c1.55.13 2.33 1.61 5.3 1.81s5.18-.39 5.24-1-2.71-1.61-3.55-1.1-1.49-.84-2.53-.51-2.46.25-3-.65-2.24 1.37-1.46 1.45zm-6.09 8.33c1.17-.26-.84-2.39-2.84-2.71s-3.87 1.32-3.63 1.68c.59.84 5.31 1.29 6.47 1.03zM253.46 2.19c.26-1-4-.55-2.92.39.39.32 2.66.58 2.92-.39zm-27.25 38.63c1 .52 1.82.33 1.69-.71s-2.51.3-1.69.71zm-18.89-.97c.84.13 3.1-.32 3.36-.78s-.9-1-2.39-1-1.7 1.67-.97 1.78zM194.83 3.87c2.46-.25 2.39-1.61 1.1-1.87s-1.49.77-2.13.71-3.1.41-2.59 1 2.39.29 3.62.16zm-15.01-.71c.19-1.36-2.07-.26-3.75-1s-2.68-.66-1.56.32c.52.46-2.88.81-2.33 1.36 1.23 1.26 7.44.68 7.64-.68z"/><path class="cls-2" d="M255.14 6.79c1.23.51.78.84-.52.84s-2.41.43-1.55.77c.65.26.58 1 1.94 1.3s2.72-.78 2.59-1.56 4.72-1.48 6-1.81-.85-1.68.58-1.81.84-.77-.91-1-1-1.75-1.61-2.27-.91.65-3.18 1.1-3.36 1-2.45 1.49 0 1.55-1 1.49-1.12.94.11 1.46zM85.28 150.92c-1.33.29-1.87.39-2.65 0s-2 .35-1.84.87c.12.36.64.81 2.26 1.23s1.81 1.52 2.49 1.56.75-.62.58-1.49.81-1.88.91-2-.42-.46-1.75-.17z"/></g></g></svg>