<svg xmlns="http://www.w3.org/2000/svg" viewBox="0 0 412.78 305.86"><defs><style>.cls-4{fill:#c6c6c6;stroke:#fff;stroke-miterlimit:10;stroke-width:.25px}</style><clipPath id="clip-path" transform="translate(-381.51 -294.21)"><path fill="none" d="M0 0h800v800H0z"/></clipPath></defs><g id="Шар_2" data-name="Шар 2"><g clip-path="url(#clip-path)" opacity=".4" id="Objects"><path class="cls-4" d="M396.24 382.36c.94-.13.81-4 .46-4.07s-.46.61-1.36 1.16 0 3.04.9 2.91zm393.91-65.68c-.45.33-3.32.17-2.72.85s3 .26 4.08.9 2.65.13 2.65-.39-3.56-1.68-4.01-1.36zm-124.89 87.68a1.36 1.36 0 0 1 1.88-.71c.65.33 1.49-1 1.49-1.94s-1.94-1-2.2-.26-1 .39-2.07.59-1.07 2.66-.33 2.91 1.04.19 1.23-.59zm16.31-25.95c-.78.14.06.91-.84 1.3s-.84 1-.39 1.29.13 1.1 0 1.69.58.13 1.1-.46 1.06.28 1.17-.26-1.36-1-1.3-1.61 1 .19 1.81-.2a3.51 3.51 0 0 1 3.3.78c1 .84 1.23.52 1.43-.52s1.68-1.49 3.17-1.49 1.61-.71 1.16-1 2.46-2.2 2.4-2.72-1.56 1.17-2 .58-1.23.33-2.2.52-4-2.33-4.79-3.49-2.07-.2-1.42.64-.13 1.1-.13 2.27-.78 1.16-.65 1.94-1.04.62-1.82.74z" transform="translate(-381.51 -294.21)"/><path class="cls-4" d="M670.05 397.83c.07-.58-1.16-.26-2.65.32s-2.4-.65-3.24.2-2.26 2.33-3.36 2.52-.47 1.53 0 1.29c.78-.39 2 0 2.39-.58s3.56-1.29 5.5-1.36.78.91.91 1.94 1.75.85 2.59-.12 1.49-.91.77-1.5.13-1.09.65-.32a1.77 1.77 0 0 0 2.78-.19c.65-1 .84.19 1.62.13s1.23-2 1.3-1.3 1.29.52 2.07-.32.06-2.33.58-3.11a3.87 3.87 0 0 0 .52-3.36c-.52-1 1.16-1.62 2-2.4s-1-4.65-1-5.82-2.14.45-2.79.78-1.1 2.33-.38 2.91-1.17 1.68-1.11 2.91-1.16 1.23-1.35 2.14-.91.71-2 1.55-1.68-.13-1.42-.71-1.68.32-1.62 1.75-1.81 1.55-1.36 2.2-1.45 1.03-1.4.45zm-11.58 5.5c-1 .71-1.29.84-.91 1.55s1 .07 1.23-.65.91 1 .33 2.2.07 2.81.84 2.66 1.49-2.46 2.46-3.69-.46-.78-.46-1.42-1.42-.52-1.48-1.1-1.04-.26-2.01.45zM615 438c.06-.78 1.33-2 1.16-2.59s-1.87-.19-2.72-.19-3 1.23-2.13 3 3.61.57 3.69-.22zm22.7-7.82c.64-.45 3.3-6 2.72-6.79s-3.17.45-3.89 3 .95 3.94 1.17 3.79zm-2.01 13.53c-.19.58.07 3 .58 3s.91.65.59 1.68 1 1.17 2.2.72.77.84 2 .64 2.92 1.36 2.66 1.95.06 2.45.64 1.94 1.49.12.91 1 .9 1.68 1.1 2.71.84.2.71-.58.13-.71 1-1.29-.06-1.56-.58-2.66-2.5-.77-2.5-1.82-1.42-1.36-1.49-1.94-1.94-1.17-3-.52-.32-1.17-1.1-2 .58-2.07 1.49-3.1-.26-2.78-.13-3.56.06-1-.39-.78-2.33-.77-3.17-.26-.06 4.79-.45 5.11-.92-.68-1.07-.24zm4.73 9.9c-1 .19-.64 3.12.12 3 .33-.06 1.11 0 1.17-.65s.78 1.17.19 1.75-.58 2.2.33 2.4 2.59-2.91 2.33-3.5-1 .39-.84-.38-2.33-2.82-3.3-2.62zm-7.51 4.2c-.9 1.17-3.07 3.1-2.78 3.63.39.71 2.78-2.85 4-3.69a1.55 1.55 0 0 0 .58-2.33c-.44-.78-.89 1.23-1.8 2.39zm4.01-7.5c.2.9.65 2.78 2.07 2.32s-2.21-2.97-2.07-2.32zm11.26 8.86c.58 1-1.1.19-1.23 1.16s-1.36.2-1.29 1-1.3 0-1.94-.45-1.56 1.23-2.53 1.49-1.48 2.32-.84 2.27 1.16-1.11 1.94-1 .52-.78 1.62-.58.32 3.49 1.81 3.75 1.56 1.17 2.27 1.17-.13-2.07-.07-2.79 1.55-.06 2.33-1-.52-3.3-.52-4.85-2.13-1.14-1.55-.17zm-2.18-1.1c-.51-.65-1.8.55-1.61 1s2.17-.35 1.61-1zm59.77 32.74c0 .58-1 .91-2.65 1.55s-4.56-.74-4.66.2c-.06.58 1.81 1.62 3.56 1.62s4.53-1.75 4.53-2.27 1.1-1.42.64-1.94-1.42.26-1.42.84zm1.55-2.33c1.3 1.23.6 2.27 1.36 2.07 1.23-.32.33-1.55-.71-2.2s-1.97-1.1-.65.13zm-11.06 6.6c1.16.07 1.36-.58.45-1.42s-4.2-1.16-4.33-2.39-6-4.15-8.61-4.73c-.46-.1-1-.27-1.62-.47-2.8-.95-6.71-2.69-7.5-2.64-1 .07-1.1 1.75-1.94 1.75s-2 1.75-3.56 2.27-1.62-4.47-2.33-5.44-4.6-1.75-5-.64-1.73.51-1.87 1.42.32.58 1.16.58.84.65 1.23 1.49 2.72.26 3.5.19.9 1-.2.65-1.1.52-1.87.32-1.82-.12-1.3.33 1.36.9 1.36 1.94 1.49.84 1.49 0 .78.26 2.26.65.46 1 1.94 1a15.6 15.6 0 0 1 6.15 2.14c1.3 1 .39 1.61 1.23 2.52s1.1 1.94-.07 1.94-2.39 1.17-2.06 1.75 4.14-.26 5-.26c.6 0 1.19 1.05 2.33 1.82a4.5 4.5 0 0 0 2.33.77c2.85.13 2.14-1.49 2.65-1.49s.72-.91 1.3-1.62 3.11-.13 4.59 1 3.24 4.59 4.79 4.27 3.17.9 4.6.84.12-1.16-.33-1.36-1.62-1-1.55-1.49-1.29-.45-2.2-1-.58-2.46-1.55-2.92-1.64-1.85-.47-1.77zm-204.49-42.85c.72.75 2.15-.13 2.22-.43s-2.99-.42-2.22.43zm34.28 145.01c-.29-.66-2.66 1.62-.76 2.47.85.37 1.23-.48 1.8 0a1.18 1.18 0 0 0 1.89-.86c.19-1.13-2.65-.94-2.93-1.61zm197.48-96.19a1.87 1.87 0 0 0 2.24 1.22c.58-.34-2.44-2.22-2.24-1.22zm2.28-2.18c-.48 1.07 1.46 2.91 1.75 3s-1.37-3.82-1.75-3zm-13.31-6.51c-.13.59 2 3.67 2.72 3.18 1.42-.91-2.59-3.76-2.72-3.18zm4.14 2.72c0 .24 1.51 1.75 1.85 1.51s-1.76-1.95-1.85-1.51zm10.87 8.11c.1.24 1.36 1.4 2 1s-2.16-1.42-2-1zm-3.59-4.19c.54-.33-3-2.27-3.06-1.65s2.53 1.96 3.06 1.65zm-52.02 64.07c.53.49 2.32.34 2.62-.34s-3.1-.09-2.62.34zm-13.74-56.78c.49.39 2.91-.09 2.82-.68s-3.56.09-2.82.68zm35.67 70.27c-1.31.15-3.28-1.19-3.74-1.06s1.7 3.49 1 4.37 2 3.25 2.92 3.39.58-.92 1.21-.87.39-.63.48-1.12.73.54 1.27.25-.15-2.38.63-2.38.14-2.52-.1-3.35-2.36.63-3.67.77z" transform="translate(-381.51 -294.21)"/><path class="cls-4" d="M709.6 543.61c.39-.29-.19-1.84-.53-1.6s-.34-2.43-.1-3.64.1-1.07-.53-.43-1.31-1.22-1.46-1.7-.87-1.85-1.7-1.65-.29-1.17-1.06-1-.92-1.12-.78-2.28-.53-.25-.87-.73-.73-.1-1.27.1-.68-1-.53-1.51-.1-1.07-.82-1.6a1.5 1.5 0 0 1-.73-1.6c0-.63-4.13-2.77-5.05-3s-.14-1.17-.53-1.51a4.65 4.65 0 0 1-.54-2.67c0-1.06-1.36-1.4-1.31-2.28s-.38-1.7-.29-2.67-1.41-1.21-1.45-1.74-.88 0-1.7 0-.78-1.07-.68-2.19-.34-3-1-3.49-.73-2.38-1.07-2.67-1.46 1-1.41 1.6a2.17 2.17 0 0 1-.53 1.75c-.44.38.29 1.89-.29 2.42s-.05 2.67-.19 3.89-.1 2.52-.68 3.34-.68 2.14-1.85 2.58-2.72-.49-2.67-1.12-1.26-1-1.94-.92-1.07-.88-2.14-1.7-1.89.19-2.23-.78-.68-1.11-1.45-1.65-.54-.53.19-1.06.58-1.22.2-1.85.43-.48 1.4-1 0-1.16.73-1.45.29-.93-.48-1.07-.54.77-.83.87-.58-1.21-.82-1.16-1.17 1.31-1.65.68-3.21-1.17-4.28-1.31-1.4-1.51-2-1.27.09.68.82 1.46-2.43 1.31-3.35 1 .15.68-.63.63-.92 1.31-1.55 2-.2 1.17-.88 1.6-.72.92.1 1.85-.39 1-1.11.24-1.46-.73-1.41.1-.87.43-.73-.49-1-.49-1.21-1a2.57 2.57 0 0 0-1.85-1.36c-.63.05-.63.73-1.26.73s-.78.34-.68 1-1-.05-1.7 0 0 .92-.39 1-.38.73-1 .73-.54 1.4-.44 2.13-1-.34-1.6-.14.14.82.34 1.65-.34.77-.68 1.11-.88-.92-.88-1.65-.82-.05-1.69.88.29 2.33-.1 2.57a25.1 25.1 0 0 0-3.16 3.1c-1 1.22-3.2.49-3.88 1.07s-1.41.15-2.09.68-1.94 1.55-2.08.92-1.89-.14-2.62.63a4.84 4.84 0 0 1-2.72 1.51c-.82 0-.82 1.31-1.16 1.6s-.25-1-.25-1.36-.77.58-1.11 1.6.82 1.41.09 2.48-1.4 2.13-.38 3.49 1.6 2.23 1.26 2.91-1.07-1.35-1.31-1.11.92 1.11.63 1.55-1.34-1.65-1.56-1.16 2.19 3.73 2.24 4.95 1.94 2.37 1.84 4.12 1.65 4.56 1.94 5-.68 1.6-.48 2.91-.44 1.8-1.26 1.8-.34 1.36.58 1.45.58.73 1.6 1.41 3.44.44 4.27.44 1.07-1.26 2.18-1.31 1-.39 1.56-1.07 3-.48 5.63-.34 3.69-.63 4.07-1.7c.33-.91 2.19-1 2.91-1.65s1.36-.73 3.26-.63 3.64-.92 4.85-1.41 3.45-.29 4.61-.58 1.36 1.46 2.67 1.31 1.89.39 2.57.34.58.49 1.26.63.59.73.15 1.36 1 .58 1.94 1.84.05 1.46.53 2.43.83.73 1.8-.63 2-.49 2.18-1.65 1.17-2.52 1.85-1.94-.49.87-.93 3.1-1.21 1.07-1.35 1.7 2 1 2-.19.39-1.7 1.22-.63-.49 1.94-.29 2.42 1.11-.14 1.6-.09c.86.08 2 2 1.84 3s-.48 2 1.17 2.81 1 1 2.23 1a10.23 10.23 0 0 1 4.42 1.55c.67.59 2.42-.43 2.76-1.6s1.6 0 .92.34.34 1.31.39.68.34-1.16.58-.43 1.12.72 1.46 1.31.73 1 .73.53.19-.92 1-1.21a7.73 7.73 0 0 0 2.09-1.51c.82-.68 4.22-.82 4.56-.82s.53-2.91.73-4.42 1.45-1.75 1.64-3.35 1.9-4.56 2.33-4.7a1.8 1.8 0 0 0 1.32-1.51c0-.92 1.16-1.94 1.16-3.06s.63-2.42.53-2.76a2.2 2.2 0 0 1 .25-2.19c.66-.71-.36-1.64.03-1.93zm31.21 49.26c.34.1 1.45-.19.82-1s-1.63.77-.82 1zm14.02-16.74c-.68-.49-1 .19-1.74.53s-1.21-1.6-2.14-.87-.09 1-1.11 1.89-.59 1.17-1.8 3.06-5.39 3-6 4-2.72 1.84-2.77 2.62-1.31 1.33-.58 2.38c.58.82 1.36.24 2 .87s1.27.1 1.56.63 2.42.54 4-.92.83-2.13 1.46-2.52.73-1.56 1.12-2.28a2.21 2.21 0 0 1 2.42-1.51c1.75 0 .83-.34.73-1.16s1.46-1 1.46-2 2.13-2 1.69-2.87.38-1.36-.3-1.85zm7.92-7.81c-.44.72-1.32-.2-2.14-.2a1.25 1.25 0 0 1-1.31-1.31c0-.73-.2-1.8-1-1.75s.24.83-.05 1.22-.49-.44-.87-.44-.83-.53-.83-1.5-.82-.88-.82-2-1.75-2-2.72-2 .19 1.74.68 2.33 1.55 1.11 1.5 1.55a2.57 2.57 0 0 0 1.31 1.75c.59.19-.34 1.89-.34 3.25s-1.07 1.11-1.79 2 1.84 1.74 2.91 2.62-.92 3-.63 3.49c.14.24.87.58 2 .29s1.65-2.71 2.43-3.39.29-1.75.68-2.28.92-.49 1.45-.49.24-1.31.92-1.31.34-.92.73-1.94-1.68-.62-2.11.11zm2.86-50.19c.53.2 2.28-.38 2.28-1.21s-3.09.92-2.28 1.21zm-3.01 2.58c.82.77 2.47.72 2.52-.68s-3.26-.03-2.52.68zm-311.42-9.9c-.57.82-2.18-1.75-2.38-3.35s.92-2.38.24-3.88c-.56-1.26-.92-2.47-.51-2.84a.46.46 0 0 1 .32-.12c.74 0 1.61 2.8 1.57 4.43a2.35 2.35 0 0 1-.11.76c-.42 1.09.87 3.58.93 4.63a.59.59 0 0 1-.06.37zm-53.39-100.44l.12-.12zm-.85.61l-.07.07zm-.12.13a.3.3 0 0 0-.06.11.3.3 0 0 1 .06-.11zm.21-.19l.08-.06zM452.46 469l-.16-.07zm-8.27 68.7a.47.47 0 0 0 0 .17.92.92 0 0 1 0-.13zm-1.55-8.06a.36.36 0 0 0-.13-.08.35.35 0 0 1 .13.12zm-1.9-32.51c-.5-.82-1-1.9-1.6-2.23-1.06-.59-1.5-7.91-1-8.11q.1 0 .21.21a15.29 15.29 0 0 1 .54 2.27c.33 1.65.73 3.62 1.34 4.17 1.12 1 .92 2.19 1.16 2.86s1.22 1.46.54 1.75c-.41.23-.8-.24-1.19-.88zM407 474.57zm2.29-12.67l.12.31zm-.25-.72l.18.53zm.59 1.47l-.14-.27zm-2.75 11.92zm-.57 0zm.93 0h.17zm19-17.69v.06zm-.2-.29l.05.07zm-.24-.33s.04-.01.03-.02zm15.45 28.41h.08zm.27-.08l.11-.06zm-.55.13zm-.81-2.53l.15-.05zm1.57 2.28a.27.27 0 0 0 .11-.17.27.27 0 0 1-.08.15zm-1.27-2.38l.2-.06zm.35-.11l.24-.07zm-6.46-14l-.54-1.35.5 1.26zm-23.21 5.54a1.1 1.1 0 0 0-.14.21 1.73 1.73 0 0 1 .17-.27zm-1.5-10.7a1 1 0 0 0 .19.24 1.22 1.22 0 0 1-.16-.3zm-2.84-12.34h-.1a.71.71 0 0 0 .22.06zm-.37-.2l.07.08zm-.74 24.34h-.97zm.42 0zM424.9 519zm.88-.18zm-.3.06zm1.6-.25h-.13zm.37 0h-.17zm.37 0h-.19zm.38 0zm1 .21a.12.12 0 0 0 0-.09.12.12 0 0 1 .01.01zm-.07-.11h-.08zm-.14 0h-.12zm-.19 0zm-.24 0zm9.44 10.04c0-.35-.11-.84-1.08-.92 1 .08 1.08.57 1.08.91zm2.48-16.07l.37-.13zm6.71-11.77v.05zm.12.25l.06.1zm.15.3l.06.13zm.27.63a1.15 1.15 0 0 1 .06.17zm-.13-.32l.07.16zm.29.79c0-.05 0-.11-.05-.17s.01.12.03.17zm-5.68 9.48h-.11zm-.94.35h-.12zm-.05-30.55l1-.27zm1.54-10.61zm.23-.08h.08zm.25-.07h.12zm.24-.06h.2zm-38.25-22a.56.56 0 0 1 .21 0 .56.56 0 0 0-.23.04zm-1-22.16l.27.06zm.51.11l.29.09zm-1-.18h.24zm-.47-.05h.19zm1.49 47.73zM441 529.4zm1.41.15h-.1zm-.33 0zm5.85-26.83a.88.88 0 0 1 0 .2.88.88 0 0 0-.04-.25zm-.45-19c-.63.29.88 1.21.15 1.36s-2.38-.68-3.55-.2c-.78.33-.62-1.63 0-3.35.41-1.14 1-2.18 1.66-2.37a6.15 6.15 0 0 1 2.92.07c.86.22 1.5.54 1.45.8-.1.54-1.55.29-1.55 1.41v.22a2.33 2.33 0 0 1-1.12 1.97zm5.19-14.51l.37.15zm-42-42.36l-2 1.06-1.74.94zm-5.47.42a2 2 0 0 1 .39.2 2 2 0 0 0-.4-.29zm-2.79-.42zm.54 0zm-.34 0zm-4.6-16.6a.8.8 0 0 0 .15-.21.8.8 0 0 1-.16.13zm-.34.3l-.11.08zm-15.23 41.58h-.22zm-.8.61zm.17-.42l-.05.06zm-.11.19zm.25-.32l-.07.05zm.18-.07h-.1zm1.43 1.16zm.44-.28a.76.76 0 0 0 .06-.27.57.57 0 0 1-.06.27zm1.3-16h-.16l.45-.09zm16.29 37.42l-.4.12-.54.15zM439.88 529zm.74.33zm-.31-.07h-.08zm26.1-76.36v-.05zm.32-.45v-.07zm.28-.42zm-12.67-6.79a.28.28 0 0 0 0 .09.28.28 0 0 1 0-.06zm0 .37a1.47 1.47 0 0 0 0 .21 1.47 1.47 0 0 1-.05-.18zm.16 1.49l-.12-.71zm-.12-.75V446c-.08.15-.07.26-.05.38zm174.6-86.77a.87.87 0 0 1 .27.15 1.17 1.17 0 0 0-.32-.12zm.49.36a.5.5 0 0 0-.17-.19.73.73 0 0 1 .12.25zm-.49-.36a3.25 3.25 0 0 0-.83-.2 3.25 3.25 0 0 1 .78.23zm-.88-.2a1.74 1.74 0 0 0-.32 0 1.74 1.74 0 0 1 .27.03zm-.41 0a1.22 1.22 0 0 0-.3.06 1.22 1.22 0 0 1 .25-.04zm-19.25 87.67zm0 .48zm0 .66zm-22.95-32.65zm-75.83-2.48l-.17-.17zm-13.35-30.8a2.09 2.09 0 0 0 .28.3 2.09 2.09 0 0 1-.31-.28zm.88.56a.48.48 0 0 0 .17 0 .48.48 0 0 1-.2.02zm6.66-11.74c.71-1 1.67-.18 2 .07s.13-1.1.91-1-.06 1.3.52 1.3 1.49 1.6 1.16 2.87a1.63 1.63 0 0 1-.65.95c-1.61 1.16-3.16 1-2.65-.46s.58-3.1-.26-3.1-.25 3-.9 3.17-.8-2.16-.32-3.39a3.2 3.2 0 0 1 .16-.39zm45.29-2.65c.46.13-.45 1-2.26 1s-5.83-.91-7.44.84-.46 2.65-1.17 2.78-1.16-2.65-.26-3.56 3.82-1.29 5.63-.84 5.02-.33 5.47-.2zm2.86 43.65l-.06.06zm.16-.15zm-3.54-10.48a.22.22 0 0 0 0-.08.22.22 0 0 1-.05.08zm0-.34zm-.09-.4v.09zm-.06 1.57a1.4 1.4 0 0 0 0 .31 1.4 1.4 0 0 1-.04-.31zM537.5 387.9l-.39.05zm-7-1.83zm-1 0zm1.31-.06h.14zm.58-.08zm.4-.07h.12zm.34-.1h.09zm-7.13 8.61l-.17-.07zm-.29-.14l-.18-.11zm.8 0a.35.35 0 0 1-.18.18.35.35 0 0 0 .16-.21zm-.25.2a.85.85 0 0 1-.16 0 .85.85 0 0 0 .14-.03zm7.77.8zm.56 0h-.1zm-.31.05zm.73-.17l-.18.06zm3.17-1.92a4.32 4.32 0 0 0-1.56 1 4.32 4.32 0 0 1 1.54-1.06zm1.32.64h.12zm.34.06h.17zm12.74-12.93v-.15c0-.05-.01.05-.02.09zm0-.3v-.41c0 .09.01.22.01.35zm1 30.84a.33.33 0 0 0 0-.13.33.33 0 0 1 0 .07zM530 382.16zm-.23-.06zm-.28 0h-.15zm-.75.19l.41-.14zm-19 15.9zm-.15.19v.06zm-.11.26v.08zm.69-.66zm11.43-4.85a2.1 2.1 0 0 1-1.26-.28 2.18 2.18 0 0 0 1.24.27zm-11.47-23.4c-.26.35-2.82-.31-3-.83s3.53.1 2.98.82zm13.7 24a.59.59 0 0 0-.22-.05.59.59 0 0 1 .2.05zm.25.12l-.16-.08zm.27.16l-.16-.1zm15 0a1.6 1.6 0 0 1 .4.25l.38-.08-.38.08a1.6 1.6 0 0 0-.44-.26zm1 .14h-.12zm6.36 4.29zm.23.31v-.06zm4.93 13.52l-.06.06zm-.13.19v.06zm.66-.72zm.2-.21v.06zm13.4-50.47zm2.31 55.45a.79.79 0 0 0 .17-.19.79.79 0 0 1-.22.19zm.86.93a1.35 1.35 0 0 0 0 .49 1.35 1.35 0 0 1-.05-.49zm.12 1a1.67 1.67 0 0 1-.13-.45 1.67 1.67 0 0 0 .08.41zm6.33-1.28h.06zm-.24.12zm.44-.2h.09zm.18-.08h.08zm.19-.07h.07zm-8.56-55.35zm.11 55.33zm-.1.17l-.02-.08zm.57-.47l-.09.06zm1.06 1.85a.72.72 0 0 0 .12.21.72.72 0 0 1-.14-.26zm.12.22a1 1 0 0 0 .13.15 1 1 0 0 1-.15-.2zm.15.17a.42.42 0 0 0 .12.08.42.42 0 0 1-.14-.13zm.15.1a.23.23 0 0 0 .14 0 .23.23 0 0 1-.16-.05zm15.19-3.7zm19.56 33.39a3.46 3.46 0 0 1-.68-.3 3.74 3.74 0 0 0 .66.25zm-9.26-16.21zm-2.79 1.52a1.08 1.08 0 0 0-.18.11 1.08 1.08 0 0 1 .16-.16zm.32-.15l-.3.13zm.16-.09h.06zm.23-.2v.05zm2.74-3.83a.4.4 0 0 0 .25.09.4.4 0 0 1-.27-.14zm.31.09a1.11 1.11 0 0 0 .34-.06.87.87 0 0 1-.36.01zm.7-.23l-.14.08-.15.07a2 2 0 0 0 .27-.2zm.46-.38a1.59 1.59 0 0 1-.34.3 1.59 1.59 0 0 0 .32-.35zm6.44 19.17a1.49 1.49 0 0 1-.28-.23 1.18 1.18 0 0 0 .26.18zm.87.42l-.02-.05zm.23-96.49c.87-1.94 4.18-2.94 5.82-5.53 1.17-1.85 2.14-4.66 2.81-4.47s-.58 6.12-2.42 7.77-5.53 2-5.53 3.39-4.47 2-4.86 1.46 3.33-.73 4.16-2.67zm-37.92 9.24a2 2 0 0 0-.39-.05 2 2 0 0 1 .37 0zm-.68-.16zm-.58-.63zm-67.87 22h-.06zm-.1.06h-.1zm-.15.06h-.15zm-.43 0h-.19zm-.26-.08a1.13 1.13 0 0 1-.2-.13 1.13 1.13 0 0 0 .18.14zm-35.31 23.33zm-.13 0zm-.1 0h-.8c.34.04.57.02.78.01zm5.52-12.75l.82.25zm7-5.1a1 1 0 0 1-.32-.22 1 1 0 0 0 .3.23zm-.39-.31a1.22 1.22 0 0 1-.12-.19 1.22 1.22 0 0 0 .1.2zm-.16-.29a1.87 1.87 0 0 1-.07-.22 1.87 1.87 0 0 0 .05.23zm2.5 1.47a2.94 2.94 0 0 0 .51-.05 2.94 2.94 0 0 1-.53.06zm-1.28-5a.59.59 0 0 1 0 .26.59.59 0 0 0-.02-.25zm-.13-.29c0 .07.06.13.09.19a1.07 1.07 0 0 0-.11-.18zm-.57-1zm-.7 4.23a.89.89 0 0 0-.08-.17.89.89 0 0 1 .06.19zm-.12-.22a.69.69 0 0 0-.13-.11.69.69 0 0 1 .14.13zm-.45-.24a1 1 0 0 1 .27.09 1 1 0 0 0-.27-.09.45.45 0 0 0-.2 0 .45.45 0 0 1 .18.02zm-.63 1.07zm-1.77-2.95zm4.66 28.7zm-.24 0zm.82.07zm-.31 0zm1.41-24.47a4.42 4.42 0 0 0 .48-.15 4.42 4.42 0 0 1-.48.15zm.65-.22a8.93 8.93 0 0 0 1.39-.82 8.93 8.93 0 0 1-1.39.84zm-.13-7.21h.07zm1.87 6.14l.32-.22zm-3.05-6.81l-.2-.11a1.36 1.36 0 0 1 .2.13zm-.28-.14a.28.28 0 0 0-.19 0 .28.28 0 0 1 .19.02zm-54.11 3.11zm-1.13-3.58c-.1-.08-.27-.2-.47-.33l.6.42zm3.89-.37a.31.31 0 0 0 .05.17.21.21 0 0 1 0-.15zm9.48-38.29a2.09 2.09 0 0 1 .26-.25 3.13 3.13 0 0 0-.26.27zm-6.87 13v-.08a.19.19 0 0 0 0 .14zm-.05-.18v-.16zm0-.21v-.2zm0-1.41a1.44 1.44 0 0 0-.05.24 1.25 1.25 0 0 1 .02-.18zm-.05.27v.26c-.04-.03-.04-.11-.03-.2zm0 .29v.3c-.05-.04-.05-.14-.05-.24zm0 .63v-.31c-.04.16-.03.29-.02.37zm-1.55 10.42a.32.32 0 0 0 0-.16.32.32 0 0 1-.02.22zm-.84 10.76a.63.63 0 0 0 .12-.1.63.63 0 0 1-.14.16zm.12-.78v-.05zm0-.14a1 1 0 0 1 0-.24 1 1 0 0 0-.06.3zm-.56-11.41a.6.6 0 0 0 .08.28.6.6 0 0 1-.14-.22zm.11.34a1.48 1.48 0 0 0 .19.27 1.48 1.48 0 0 1-.25-.21zm.25.33l.2.17-.11-.08zm.61.4a1.4 1.4 0 0 1-.3-.15 1.4 1.4 0 0 0 .3.15 1.2 1.2 0 0 1 .23.12.82.82 0 0 0-.29-.06zm0-2.74a.5.5 0 0 0 0-.13.5.5 0 0 1-.02.19zm0-.14a7 7 0 0 0-.13-1.13 7 7 0 0 1 .15 1.19zm-.13-1.29a.24.24 0 0 0 0 .12.24.24 0 0 1 .02-.06zm-3.71 9.58l-.11.07zm-.52.32l-.12.08zm-.3.2h.05c-.05 0-.1.08-.11.13a.27.27 0 0 1 .06-.13zm4.06 9.47a.93.93 0 0 0 0-.29.93.93 0 0 1 0 .29zm.22-4.27zm.46-10.34a.84.84 0 0 0 .19-.19.84.84 0 0 1-.19.19zm.22-.44a.21.21 0 0 0-.06-.1l.05.06s.01.02.01.04zm7.88-.55l-.11.06zm.76-.3l-.29.1zm-.4.14l-.22.09zm.88-.29l-.41.12zm.79-.2l-.28.06zm-.36.08l-.38.1zm.73-.15h-.27zm1.05-24.21a.76.76 0 0 1 .16.26.76.76 0 0 0-.16-.26zm.19.32a2.45 2.45 0 0 1 .08.29 2.45 2.45 0 0 0-.08-.29zm-1.11-2.79a2.09 2.09 0 0 1-.23-.29 2.09 2.09 0 0 0 .23.29zm-.37-.56a.75.75 0 0 0 .06.13zm-8.36 11.33a.37.37 0 0 0 0-.21.41.41 0 0 1 0 .21zm-.11-.43a.47.47 0 0 1 .06.09.47.47 0 0 0-.06-.09zm-.11-.12l-.1-.08zm-.37-.26l.13.08zm-.31-.15l.15.07zm-.59-.21l.16.05zm.28.09l.16.06zm-.49-.13h.14zm0-1.27v-.28c0-.07-.01.17-.02.28zm-12.05 19.24a1.74 1.74 0 0 0 .11.18 1.74 1.74 0 0 1-.13-.18zm-.42-.86v.07zm.28.61zm-1.33 4.89l-.05.05-.11.09zm-.16.15l-.17.14zm1-6.22zm-5.93.15a.1.1 0 0 0 0-.09.1.1 0 0 1-.02.09zm2.23-6.92a.83.83 0 0 0 0-.15.83.83 0 0 1-.02.15zm-3.15 7.49zm-.16.13h-.05zm-1.73 5zm7.3.71l-.12.09zm-.43.3h-.07zm7 3.8a.78.78 0 0 1 .05.18.78.78 0 0 0-.01-.19zm.07.25v.21zm-.41 3.22l-.07.07zm-.22.21l-.1.12zm-.25.29l-.13.17zm.64-.58s.06 0 .09-.07-.02.06-.05.06zm.31-1.58V374c.05.27.06.59.04.9zm-.21 1.48a.77.77 0 0 0 .07-.2.77.77 0 0 1-.03.19zm.09-.25a2.24 2.24 0 0 0 .05-.31 2.24 2.24 0 0 1-.01.3zm.05-.31v-.39c.07.13.06.26.04.38zm.05-.45v-.43c.06.14.05.28.04.42zm0-1.8v.4c.05-.16.04-.29.02-.41zm1.89 6.26h-.06zm-.32-.2l-.08-.05zm-.32-.18h-.08zm-.28-.13h-.07zm5.53.36a.28.28 0 0 0 0 .09v-.09zm8.75 1.46zm0 .18zm0-.28l.06-.05zm5.26-11.37v.06c0 .06.02-.05.02-.07zm-.12.25a.43.43 0 0 0 0 .07.43.43 0 0 1 .02-.08zm-.18.29v.06zm-.21.31v.06zm-.23.31v.05zm1.54-75.65zm.31-.39zm.23-.2zm.23-.15zm.24-.1h.05zm4.11 57c0 .11.05.22.08.31-.01-.1-.03-.21-.06-.32zM422.9 297.2a1.24 1.24 0 0 1-.18-.14 1.24 1.24 0 0 0 .18.14zm-1.06-.86zm-.59-.45l.22.16a3.23 3.23 0 0 0-.43-.29zm13.88 39.54zm-18.6 24.62a.86.86 0 0 0 .3.27 1 1 0 0 1-.3-.27zm-.13-.2a1.63 1.63 0 0 1-.11-.17 1.63 1.63 0 0 0 .11.17zm-.31-.51l-.06-.1zm-7.32-3.95a.69.69 0 0 0 0-.2.69.69 0 0 1 0 .2zm0-.29a.68.68 0 0 0-.13-.27.68.68 0 0 1 .11.27zm-11.47 10.82zm-.09 1.09a.66.66 0 0 0 0-.13.66.66 0 0 1 0 .12zm1.55.53zm-9.27-9.05a.21.21 0 0 0 0 .19.21.21 0 0 1 0-.19zm0 0a1 1 0 0 1 .13-.18 1.15 1.15 0 0 0-.14.19zm1 2.14zm-.7-2.48l.06-.08zm-.4-1.85c0-.16 0-.34.05-.55-.03.19-.05.37-.07.53zm.06-.66c0-.11 0-.22.05-.33-.04.09-.06.2-.07.31zm.07-.49a1.92 1.92 0 0 1 .11-.4 1.92 1.92 0 0 0-.13.38zm-.74 5.2zm.33 0zm2.59 11.29c-.24-.14-.44-.48-.24-1.07-.2.58-.02.91.22 1.05zm.8-5.71zm.32-1.57a2.87 2.87 0 0 0-.05.31 2.87 2.87 0 0 1 .03-.33zm-.07.47v.13c-.03-.07-.03-.11-.02-.15zm6.23 2.75h.14zm.46.17l-.16-.07a4.32 4.32 0 0 1 .43.22zm4 .46zm12.44 10.47a.58.58 0 0 0-.05.26.58.58 0 0 1 0-.28zm.74-1.28a3.21 3.21 0 0 0-.21.3 3.21 3.21 0 0 1 .16-.32zm-.32.47c-.06.09-.11.18-.16.27 0-.14.05-.2.11-.29zm-.26.44c0 .09-.08.16-.11.24zm1.53 2zm.24-.48zm4.24 4.07zm11.11-1.9a1.64 1.64 0 0 1 .06.42 1.64 1.64 0 0 0-.06-.42zm-.09-.36l.09.35zm11.64-29.17zm.16 0zm19.62 47.93l-.15.08zm-6.82 3.6h-.09zm-.29.12l-.13.06zm-.25.11l-.16.05zm-4.36 8.75l-.17-.07zm-.26-7.93v.14c0 .04-.01-.14 0-.19zm-.35 3.26v.09c0 .03-.01-.11 0-.14zm-.09.42v.09zm.17 4c-.08 0-.16-.08-.24-.12.08.02.16.07.24.1zm0-4.86a1 1 0 0 0 0-.17 1 1 0 0 1-.03.15zm.06-.55v-.24c-.02.06-.02.14-.03.22zm.05-.62v-.31c-.02.08-.02.18-.03.29zm0-.62v-.31c.03.07.02.23.01.29zm0-.41v-.25c0-.06.06.13.05.23zm.12-.72c0-.16.05-.34.07-.53.03.17.01.35-.02.51zm-1.15 7.34l.31.16zm35.83 25.25h.16zm-.46.13h.13zm8.72-8.92zm-.28 0h.2c-.26 0-.65 0-1.11-.07zm-.94-.07h-.28zm-.42 0h-.24zm-.45-.05h-.2zm-.5-.05h-.12zm-1.43-.18zm-.36 0zm-.33-.05zm-.27 0h-.07zm-.2-.05zm1.57 7.91c-1.11.37-2.3.75-3.3 1.06l-.22.06c1.09-.47 2.38-.88 3.57-1.27zm3.4-1.21l-.12.07zm-.18.09l-.2.08zm-.27.11l-.37.14zm-.43.16l-.41.14zm-.53.18l-.52.18zm-.55.19l-.62.21zm-.77.26l-.47.01zm-4.74 1.51l.25-.08zm5.3-43.08c-.34.51-2.85 1-4.73 1s-2-2.39-4-2.39a2.8 2.8 0 0 1-2.65-2.58 1.85 1.85 0 0 1 .39-1.3c1.1-1.36 1.94-3.5 1.29-4.66a29.2 29.2 0 0 0-1.95-2.52c-1.23-1.51-2.55-3.18-2.51-3.82.06-1.1.51-1.81-.85-3s.14-1.94 1.11-3.17 2.7-1.58 3.87-2.36c.14-.1.27-.19.39-.29 1.1-1 3.1-1.88 4.59-1.49s2.72-.26 3.37.65 0 2.58.25 3.23-1.16.71-2.13.58-3 .39-2.72 1 1 1.95-.32 1.23-1.81.71-1.1.71 1.68.85 1.68 1.43.06 1.87.71 1.68.65 1 1.55.91 1.75.26 1 1.1.45 3.17.71 2.65c.16-.32 0-1 .28-1.48.15-.27.44-.44 1-.4 1.55.13.84 1.94 1.68 2s1.81 1.36 1 1.29-1.42.72-2.2.46-1.74-.91-2 0-.59 1.87.45 1.81.84.65.13 1.36 1.1-.13 1.23.52.71.71.45 1.74a13.65 13.65 0 0 0 0 2.93 3.06 3.06 0 0 1 .08 1.03zm15.77 18.05l.15.15.38.37c-.14-.33-.33-.5-.48-.67zm-.27-.39v.07zm.11.2l.08.1zm1.07 1.11l.1.12zm34.77-13.7l.05-.06zm.26-.38c0-.08.09-.16.13-.25.01-.06-.04.02-.08.1zm-.13.21l.06-.08zm.39-.74a3.54 3.54 0 0 0 .14-.33l.08-.21-.17.39zm-.1.22c0-.05 0-.11.08-.17zm1.51-.59zm-.16-.14zm-.11-.08zm30.69 32.84zm-.45 1.08zm.73-1.41a.29.29 0 0 1 .17-.06.39.39 0 0 0-.12-.09zm7.89-15.36h.05zm.2.12zm.69.23h.1zm-.24-.06zm.16 0h.07zm6.34 18.37a.36.36 0 0 0-.13.17.36.36 0 0 1 .13-.17zm16.37 14.83a.19.19 0 0 1 0 .07.19.19 0 0 0 0-.03zm.21.63l.06.15zm130.88 80.91c.78-.52-6.47-5.21-6.34-4.4s5.56 4.92 6.34 4.4zm-153.94-53.53c-.13.64.59 2.52 1.36 1.74s-1.23-2.38-1.36-1.74zm47.5 8.86c-1.17 1.88.39 2.14 1.36 2.2s.84 1.49.65 2.33-.59 2.84.25 2.52c1-.39 1.69-1.68 1.1-2.13s-.51-3.3-.26-4 2-.2 1.43.9 1.1 1 1.1 2.2 1 .58 2 .26.85-.9.13-1.68.52-1.88-.45-2.52-1.62-1.62-.71-1.82 3.62-1.74 3.3-2.39-4.14.13-4.47 1.29-3-.13-2.71-2.13 5.69-2.33 7.24-1.62 3.24-1.16 3.82-2.26-1.23.19-2.33.9-4-.06-5.5-.58-1.42.91-2.65 1.1-1 2.91-1.55 3.23-.59 2.32-1.75 4.2zm15.92 1.62c.26 1 2.13 1.62 2.65.71s-2.95-1.91-2.65-.71zm-5.25 15.53c.84.44 2.06-.74 2.75-1.57l.3-.37a.73.73 0 0 1 .22-.2.93.93 0 0 1 .22-.14c1.25-.75 4.44-1.68 4.61-2.12s-2 .13-3.24.06c-.88 0-1.23.68-1.88 1.19l-.19.14a2.08 2.08 0 0 1-.71.3l-.29.05a2.25 2.25 0 0 0-.7.17c-1.29.53-1.93 2.02-1.09 2.49zm-.58-3.95c1.17-.06 2.46-.39.72-.65s-2.92 1-4.66.39-4.37 0-4.08.58 1.81.59 3.56.65 3.3-.87 4.46-.97zm10.62-21.9c0-.45-.46-2.26-1.49-.84s.33 4.94 1.16 4.79-.58-1.88.84-1.75.78-.71.78-1.62-1.29-.1-1.29-.58zm-.33 10.19c.26.77 1.62.45 3 .45s2.07 1 2.78 1 .2-1.68-1.49-2.2-4.57-.1-4.29.75zM605 489.58a12.87 12.87 0 0 1 .32-2.26c0-.45.32-.65.9-.52s.52-1.23.07-1.36-.71-1.74-1.81-1.74-.91.9-.26 1 1 .58.84 1-.45-.45-1.36-.39-.32-1.1-1.36-1.16-.84-1.94-1.94-1.94-1.16-.91-.45-1.56-1.1-1.23-1.1-2-1.17-.32-1.17-1-.51-.33-1.1-1.1-.84-.07-1.35-.65-1.23-.91-1.69-.71-1.49-.84-1.87-1.88c-.31-.82-3.3-2.2-3.69-3.3s-1.43-1.55-3.17-1.49-2.44-1.71-2.85-.84c-.52 1.1 1.88 3.56 3 4.21s1.68 3 3 3.1 1.43 4.21 2.4 4.4 3 3.37 3.36 5.05 2.46 2.53 3.17 3.75 3.56 2.92 4 3.43.78 1.69 1.1 1.1 1.68 0 2.33.07.68-2.3.68-3.21zm5-3.23c0-.58-1.67-.3-1.16.52s1.16.06 1.16-.52zm13.33 12.49c.46-.65 1.3 1 2.59.06s-2.13-.58-2.2-1.36-2.59-.06-3.82-.58 1.36-1 2.2-1.49-.51-.71-2.58-.06-4.47-1.43-4.53-.52-3.76-.39-4.66-1-4.4-1.49-5.12-.25-1.32.12-1 1.29c.19.78 1 .32 1.62.32s.32 1.1 1.16 1.23 3.63.91 3.88.33 2.85 0 4.15 1 4.27 1.1 5.43.91 2.43.76 2.88.12zm-34.49-16.44c-.12.32.59 1.62 1 1.23s-.59-2.25-1-1.23zm46.59 19.87c.46.38 2.07 1.23 2.07.13s-4.44-1.75-4-1.11 1.5.59 1.93.98zm-24.2-23.69c1 .91.71 2.33 1.17 3s1.88.84 1.88 2.2 1.22 3.5 2.07 2.92 1.48.26 1.74.84 2.27-.46 2.91-.33 2.66.52 2.79 1.3 1.94-.07 3.17-.52.52-4.14 1.68-4.85a3.33 3.33 0 0 0 1.29-3.37c-.13-1.29 2.85-1.36 3.3-1.87s-.65-1.36-1.48-1.75-.14-1.23-.72-1.75-1.55-1.88-.71-1.94-.58-1.23.13-1.62l.33-.16c.76-.38 1.86-.88 1.35-1.32s1.75-.07 2-.85-.91-1.42-1.49-1.29-1.94.06-1.94-.52-1.23-1.68-2-1.68-1.68 1.55-1.74 2.2-1.3.58-1.17 1.49c.05.35-.18.51-.47.6-.46.15-1.08.14-1.08.5 0 .57-1-.21-1.51-.25-.52 0-1.69 1.81-1.94 3s-1.43.84-3.17 1-1 1.94-1.43 2.78-2.27-.62-3.24-.81h-.25c-.88.08-2.28 2.3-1.47 3.05zm19.03 19.54c-.26.59-1.36.72-2 .26s-1.45.62-1 1.17a2.8 2.8 0 0 0 3.17.52c1.62-.78 2.71-.07 3.1-.91s-3.01-1.62-3.27-1.04zM393.88 384c-.35.62 1.1 1.56.81 2.82s.16 2.85.91 2.1 1.1-.39 1.52-.94.06-2.58.35-3.55-1.29-1.43-2-.81-1.3-.07-1.59.38z" transform="translate(-381.51 -294.21)"/></g></g></svg>