<svg xmlns="http://www.w3.org/2000/svg" viewBox="0 0 149.89 83.18"><g id="Шар_2" data-name="Шар 2"><g id="Objects"><text transform="translate(18.29 67.19)" font-size="10.87" fill="#31333a" font-family="OpenSans,Open Sans">PRESENT THE PROJECT</text><path d="M85.33 35.23c-9.86 3.41-20.2-7.56-29.64-1.43-1.17.76-4.3 4.1-5.72.6a32.8 32.8 0 0 1-1-4c-.36-1.45-.73-2.89-1.1-4.34.7-6.87-3.43-14.39-5.29-20.89l-.48-1.89c-.19-.72-1.34-.41-1.18.31s.37 1.56.59 2.33Q43.78 15 46.1 24.18c.12.45.23.9.34 1.35a11 11 0 0 1-5.28 9.23 9.32 9.32 0 0 1-8.21.49 109.06 109.06 0 0 1-2.28-15.6 31.34 31.34 0 0 0 0-15.6.62.62 0 0 0-1.2.15 109.93 109.93 0 0 0 0 15.4c-1.42 6-4.21 11.93-7.13 17.45-.35.66.71 1.24 1.06.58a87 87 0 0 0 6.38-14.58 109.52 109.52 0 0 0 1.77 11.32 6.42 6.42 0 0 1-1-1 .63.63 0 0 0-1.14.29c-.22 2 1.13 3.28 3.18 3.36a.57.57 0 0 0 .58-.44c4.43 1.57 10-.73 12.59-4.64a12.57 12.57 0 0 0 1.51-3.17c.44 1.72.87 3.44 1.31 5.15.31 1.23 1.13 3.37 2.91 3.27 2.31-.12 3.74-1.72 5.55-2.89 3.1-2 7.47-1.23 10.83-.38 5.94 1.49 11.56 4.55 17.79 2.4.73-.24.41-1.32-.33-1.09zm42.98-4.76a11.2 11.2 0 0 1-8.93 4.16c-3.46.07-5.25-2.05-8.17-3.16-4.22-1.6-6.95 1.45-8.67 4.68a90.75 90.75 0 0 1-5.84-15.27A122.77 122.77 0 0 0 93.33.41c-.16-.63-1.24-.5-1.2.15a91.37 91.37 0 0 0 3.57 21.23c.61 5.09.87 11.73-4.08 13.08A.57.57 0 1 0 92 36c4.82-1.31 5.19-6 5-10.11a94.07 94.07 0 0 0 5 12 .64.64 0 0 0 1.06 0c1.56-3.31 4-7.19 8.48-4.88 2.12 1.11 3.77 2.45 6.29 2.73a12.58 12.58 0 0 0 11.55-4.61c.46-.68-.61-1.25-1.07-.66z" fill="#045382"/><path fill="none" stroke="#8d8c8c" stroke-miterlimit="10" d="M0 38.21h149.89"/></g></g></svg>