<svg xmlns="http://www.w3.org/2000/svg" viewBox="0 0 132.87 166.84"><defs><style>.cls-2{fill:#f8c3aa}.cls-3{fill:#2d2725}.cls-5{fill:#d83b45}</style></defs><g id="start-svg" data-name="Шар 2"><g id="Objects"><path d="M66.44 40.71H54.9v15.38c0 1.74 5.16 3.15 11.54 3.15S78 57.83 78 56.09V40.71z" fill="#e9ae97"/><path class="cls-2" d="M63.53 49.05a12.86 12.86 0 0 0 2.91.34 12.71 12.71 0 0 0 2.9-.34c4.33-1.31 13-14.27 13-14.23a32.16 32.16 0 0 0 1.38-9.38c0-13.23-7.75-24-17.31-24s-17.31 10.73-17.31 24a31.83 31.83 0 0 0 1.38 9.38s8.73 12.92 13.05 14.23z"/><path class="cls-2" d="M50.62 23.94c.46 2.37 0 4.49-1.07 4.74s-2.27-1.45-2.72-3.81 0-4.49 1.07-4.74 2.27 1.45 2.72 3.81zm31.63 0c-.46 2.37 0 4.49 1.07 4.74s2.27-1.45 2.72-3.81 0-4.49-1.07-4.74-2.27 1.45-2.72 3.81z"/><path class="cls-3" d="M66.44 0C56.29 0 48.07 8.72 48.07 19.48v.62c.11 0 1.27.27 1.36 3 .05 1.66.05 2.17 0 2.3l1.51.89s.2-10.56 7.6-10.88h15.75c7.4.32 7.6 10.88 7.6 10.88l1.51-.89v-2.3c.09-2.78 1.25-3 1.36-3v-.62C84.8 8.72 76.58 0 66.44 0z"/><path class="cls-3" d="M52.53 13.75s15.16 10 28.78 4.92c0 0 .58-7.34-6.47-8.4s-22.31 3.48-22.31 3.48z"/><path fill="#ededed" d="M52.59 49.39v36.62h27.69V49.39L66.44 54.8l-13.85-5.41z"/><path class="cls-5" d="M66.44 56.09l-4.1 22.47 4.1 8.26 4.09-8.26-4.09-22.47z"/><path class="cls-5" d="M66.44 54.8l-5.31 2.29 5.31 5.5 4.81-5.5-4.81-2.29z"/><path d="M66.44 54.8l-13.85-5.41-4.52 3.15 5.82 10.82 12.55-8.56zm0 0l13.84-5.41 4.53 3.15L79 62.79 66.44 54.8z" fill="#dfdfdf"/><path class="cls-2" d="M108.87 135.88c0 5-2.42 9-5.4 9s-5.41-4-5.41-9 2.42-9 5.41-9 5.4 4.01 5.4 9zm-74.06 0c0 5-2.42 9-5.41 9s-5.4-4-5.4-9 2.42-9 5.4-9 5.41 4.01 5.41 9z"/><path d="M108.87 133.45s-1.29-52-1.78-64.92c-.43-11.63-7.62-13.71-9-14L84.8 52.54 66.44 65.78 48.07 52.54l-13.24 1.94c-1.43.3-8.62 2.38-9 14-.54 12.97-1.83 64.97-1.83 64.97h11.08l1.61-43.62 3.15 43.46 26.6.16 26.56-.13 3.16-43.56 1.61 43.69z" fill="#31333a"/><path d="M21.44 166.84v-34.81H0l9.96 17.4L0 166.84h21.44zm111.43-34.81h-21.44v34.81h21.44l-9.96-17.41 9.96-17.4z" fill="#ce4253"/><path fill="#df4654" d="M12.68 127.19h107.51V162H12.68z"/><path d="M12.68 162.01l8.76 4.83v-4.83h-8.76zm107.51 0l-8.76 4.83v-4.83h8.76z" fill="#af3e56"/><text transform="translate(32.86 149.55)" font-size="14.51" fill="#f2f1f1" font-family="OpenSans-Bold,Open Sans" font-weight="700" letter-spacing=".34em">START</text></g></g></svg>