<svg xmlns="http://www.w3.org/2000/svg" viewBox="0 0 222.26 163.97"><defs><style>.cls-1{fill:none}.cls-15{fill:#31333a}.cls-3{fill:#d6d6d6}.cls-8{fill:#efefef}.cls-9{fill:#e9ae97}.cls-10{fill:#f8c3aa}.cls-11{fill:#2d2725}.cls-12{fill:#ededed}.cls-13{fill:#d83b45}.cls-14{fill:#dfdfdf}.cls-17{fill:#634c40}.cls-19{fill:#f9f9f9}</style><clipPath id="clip-path"><path class="cls-1" d="M81.33 59a24.25 24.25 0 1 0 24.25-24.25A24.24 24.24 0 0 0 81.33 59z"/></clipPath><clipPath id="clip-path-2"><path class="cls-1" d="M152.64 40.4a24.25 24.25 0 1 0 24.25-24.25 24.24 24.24 0 0 0-24.25 24.25z"/></clipPath></defs><g id="Шар_2" data-name="Шар 2"><g id="Objects"><text transform="translate(103.31 161.02)" fill="#31333a" font-size="10.87" font-family="OpenSans,Open Sans">TELL US ABOUT IT!</text><path class="cls-3" d="M124.81 126.29l1.55-13.92 15.25-4.66v-.2l.33.1.33-.1v.2l15.24 4.66 1.55 13.92 5.75 1.33v4.64h-45.74v-4.64l5.74-1.33z"/><path d="M125.35 121.45l32.9-2.41-.39-3.53h-31.89l-.62 5.94zm39.46 7.77v3.04h-45.74v-.79l45.74-3.85v1.6z" fill="#bfbfbf"/><path class="cls-3" d="M62.05 112.19a4.38 4.38 0 0 0 4.37 4.38h151.29a4.38 4.38 0 0 0 4.37-4.38V5.44a4.38 4.38 0 0 0-4.37-4.38H66.42a4.38 4.38 0 0 0-4.37 4.38z"/><path d="M219.93 94.6V4.76a2.27 2.27 0 0 0-2.05-2.43H66.35a2.27 2.27 0 0 0-2 2.43V94.6z" fill="#6ec6d3"/><path d="M66.64 4.66h151a.31.31 0 0 1 0 .1v87.51h-151V4.76a.31.31 0 0 1 0-.1M66.35 0A4.58 4.58 0 0 0 62 4.76v92.17h160.26V4.76A4.58 4.58 0 0 0 217.88 0z" fill="#3a3b42"/><g clip-path="url(#clip-path)"><path class="cls-8" d="M81.33 59a24.25 24.25 0 1 0 24.25-24.25A24.24 24.24 0 0 0 81.33 59z"/><path class="cls-9" d="M105.58 55.66h3.51v4.68c0 .53-1.58 1-3.51 1s-3.52-.43-3.52-1v-4.68z"/><path class="cls-10" d="M106.46 58.19a3.62 3.62 0 0 1-1.77 0c-1.31-.4-4-4.34-4-4.33a9.67 9.67 0 0 1-.42-2.85c0-4 2.36-7.29 5.27-7.29s5.3 3.28 5.3 7.28a9.67 9.67 0 0 1-.42 2.85s-2.64 3.94-3.96 4.34z"/><path class="cls-10" d="M110.39 50.55c-.14.72 0 1.37.32 1.45s.69-.44.83-1.16 0-1.37-.32-1.45-.69.45-.83 1.16zm-9.63 0c.14.72 0 1.37-.32 1.45s-.69-.44-.83-1.16 0-1.37.33-1.45.69.45.82 1.16z"/><path class="cls-11" d="M105.58 43.27a5.76 5.76 0 0 1 5.58 5.93v.19s-.39.08-.41.92a5.24 5.24 0 0 0 0 .7l-.46.27s-.07-3.21-2.29-3.28h-4.78c-2.26.1-2.32 3.31-2.32 3.31l-.46-.27a5.24 5.24 0 0 0 0-.7c0-.84-.38-.92-.41-.92v-.22a5.76 5.76 0 0 1 5.55-5.93z"/><path class="cls-11" d="M109.81 47.45s-4.62 3.06-8.76 1.5a2.35 2.35 0 0 1 2-2.55c2.11-.33 6.76 1.05 6.76 1.05z"/><path class="cls-12" d="M109.79 58.3v11.14h-8.43V58.3l4.22 1.64 4.21-1.64z"/><path class="cls-13" d="M105.58 60.34l1.24 6.83-1.24 2.52-1.25-2.52 1.25-6.83z"/><path class="cls-13" d="M105.58 59.94l1.61.7-1.61 1.67-1.47-1.67 1.47-.7z"/><path class="cls-14" d="M105.58 59.94l4.21-1.64 1.38.96-1.78 3.29-3.81-2.61z"/><path class="cls-14" d="M105.58 59.94l-4.22-1.64-1.37.96 1.76 3.12 3.83-2.44z"/><path class="cls-10" d="M92.66 84.62c0 1.52.74 2.75 1.65 2.75S96 86.14 96 84.62s-.73-2.75-1.64-2.75-1.7 1.23-1.7 2.75zm22.54 0c0 1.52.74 2.75 1.64 2.75s1.65-1.23 1.65-2.75-.74-2.75-1.65-2.75-1.64 1.23-1.64 2.75z"/><path class="cls-15" d="M92.66 83.88s.4-15.83.54-19.76c.14-3.54 2.32-4.17 2.76-4.26l4-.59 5.59 4 5.58-4 4 .59c.44.09 2.62.72 2.76 4.26.14 3.93.54 19.76.54 19.76h-3.37l-.49-13.28-1 13.23H97.39l-1-13.26L96 83.88z"/></g><g clip-path="url(#clip-path-2)"><path class="cls-8" d="M152.64 40.4a24.25 24.25 0 1 0 24.25-24.25 24.24 24.24 0 0 0-24.25 24.25z"/><path class="cls-17" d="M171.4 35.37l5.49.4 5.48-.4a22.85 22.85 0 0 0-.52 4.6 6.47 6.47 0 0 1-.3 2.69h-9.33a6.47 6.47 0 0 1-.3-2.69 22.85 22.85 0 0 0-.52-4.6z"/><path class="cls-9" d="M177 39.43h2.82v4.18c0 .47-1.26.85-2.82.85s-2.81-.38-2.81-.85v-4.18z"/><path class="cls-12" d="M180.64 41.79v9.94h-7.51v-9.94l3.75 1.47 3.76-1.47z"/><path class="cls-14" d="M176.88 43.26l3.76-1.47 1.23.86-1.58 2.93-3.41-2.32z"/><path class="cls-14" d="M176.88 43.26l-3.75-1.47-1.23.86 1.58 2.78 3.4-2.17z"/><path class="cls-10" d="M165.37 65.26c0 1.36.65 2.46 1.47 2.46s1.46-1.1 1.46-2.46-.66-2.45-1.46-2.45-1.47 1.1-1.47 2.45zm20.1 0c0 1.36.66 2.46 1.47 2.46s1.46-1.1 1.46-2.46-.65-2.45-1.46-2.45-1.47 1.1-1.47 2.45z"/><path d="M165.37 64.61s.35-14.12.48-17.63c.12-3.15 2.07-3.72 2.46-3.8l3.59-.52 5 3.59 5-3.59 3.59.52c.39.08 2.34.65 2.46 3.8.13 3.51.48 17.63.48 17.63h-3L185 52.77l-.86 11.79h-14.43l-.86-11.82-.43 11.86z" fill="#e34856"/><path class="cls-10" d="M177.72 41.82a3.54 3.54 0 0 1-1.67 0c-1.24-.37-3.51-3.77-3.51-3.76a11.34 11.34 0 0 1-.62-3c0-3.8 2.22-6.88 5-6.88s5 3.08 5 6.88a11.81 11.81 0 0 1-.66 3.07s-2.26 3.32-3.54 3.69z"/><path class="cls-10" d="M181.42 34.62c-.13.68 0 1.28.31 1.36s.65-.42.78-1.1 0-1.28-.31-1.36-.65.42-.78 1.1zm-9.07 0c.13.68 0 1.28-.31 1.36s-.65-.42-.78-1.1 0-1.28.31-1.36.65.42.78 1.1z"/><path class="cls-17" d="M171.46 32.9c.33-6 4.85-5.6 5.46-5.1.49-.51 5.06-1 5.39 5.1 0 0 .61.63.06 2.47 0 0 .34-2.42-.6-1.6a4 4 0 0 0-.16 1.4 11.79 11.79 0 0 0-.51-2.23 5 5 0 0 0-3.23-1.61h-2a5 5 0 0 0-3.23 1.61 11.79 11.79 0 0 0-.51 2.23 4 4 0 0 0-.16-1.4c-.94-.82-.6 1.6-.6 1.6-.52-1.84.09-2.47.09-2.47z"/><path class="cls-17" d="M172.2 32.62l.25-.44.73-1.11s4.38-1.59 4.48-1.56 1.08.62 2 1.16h.19l-.08.07 1.22.74a17.52 17.52 0 0 1-4.51 1.41 1.72 1.72 0 0 1-.44.06c-.31 0-.63.07-1 .08a7.27 7.27 0 0 0-1.66.39 2.93 2.93 0 0 1 1.08-.39 7.77 7.77 0 0 1-1-.08 1.67 1.67 0 0 0-.54 1.26 2.06 2.06 0 0 1 .28-1.3 6.87 6.87 0 0 1-1-.29z"/></g><rect class="cls-19" x="1.15" y="68.14" width="76.68" height="49.27" rx="4.16" ry="4.16"/><path class="cls-15" d="M75.72 118.32H3.26c-1.8 0-3.26-1.16-3.26-2.59V69.81c0-1.42 1.46-2.58 3.26-2.58h72.46c1.79 0 3.26 1.16 3.26 2.58v45.92c.02 1.43-1.47 2.59-3.26 2.59zM3.26 69.05a.88.88 0 0 0-1 .76v45.92a.88.88 0 0 0 1 .77h72.46a.88.88 0 0 0 1-.77V69.81a.88.88 0 0 0-1-.76z"/><path class="cls-19" d="M39.49 117.41L27.1 131.74"/><path class="cls-15" d="M28.04 132.26l-1.89-1.03 12.39-14.34 1.89 1.03-12.39 14.34z"/><path class="cls-19" d="M39.49 117.41l12.39 14.33"/><path class="cls-15" d="M50.93 132.26l-12.39-14.34 1.89-1.03 12.4 14.34-1.9 1.03z"/><path d="M6.26 73.46h66.46v.36H6.26zm0 5.47h66.46v.36H6.26zm0 5.46h66.46v.36H6.26zm0 5.47h66.46v.36H6.26zm0 5.46h66.46v.36H6.26zm0 5.47h66.46v.36H6.26zm0 5.47h66.46v.36H6.26zm0 5.46h66.46v.36H6.26z" fill="#d1d1d1"/><path fill="#f28f32" d="M5.24 113.83l-1.14-.62 7.9-9.16 14.08 1.98L36.6 94.58l7.4 3.89 10.73-9.3 6.37 2.89 10.39-11.42 1.12.64-11.12 12.21-6.48-2.94-10.79 9.35-7.28-3.83-10.26 11.15-14.04-1.97-7.4 8.58z"/><path class="cls-8" d="M113.93 41.88l-1.61-5a8.33 8.33 0 0 0 2.79-6.07c0-5.2-5.28-9.41-11.8-9.41s-11.79 4.21-11.79 9.41 5.28 9.41 11.79 9.41a14 14 0 0 0 6.31-1.46z"/></g></g></svg>