<svg xmlns="http://www.w3.org/2000/svg" viewBox="0 0 64.96 125.19"><defs><style>.cls-4{fill:#8d8c8c}</style></defs><g id="Шар_2" data-name="Шар 2"><g id="Objects"><text transform="translate(14.52 109.2)" font-size="10.87" fill="#31333a" font-family="OpenSans,Open Sans">WORK<tspan x="-11.66" y="13.05">TOGHETER</tspan></text><path d="M31.05.79A7.48 7.48 0 0 0 20.7 4.86a8 8 0 0 0 .49 1.58c.7 1.68 2.11 3.73 4 4.05a2.26 2.26 0 0 1 .34-.78 2.7 2.7 0 0 1 2.77-1.32c.5.07.29.84-.21.77A1.94 1.94 0 0 0 26 10.68a3.57 3.57 0 0 0 .47 2.49c.25.45-.44.85-.68.4a5 5 0 0 1-.67-2.31h-.09c-2.11-.32-3.68-2.48-4.5-4.3a8.84 8.84 0 0 1-.66-2.12 5.82 5.82 0 0 0-8.27 5.27v.1a7.1 7.1 0 0 0-6.54 7.07 6 6 0 0 0 .09 1 12.24 12.24 0 0 0 6.13 2.89 9.64 9.64 0 0 0 2.46 0 4.67 4.67 0 0 1-2.43-4.31 4.17 4.17 0 0 1-1.41-2.33.4.4 0 0 1 .77-.21 3.67 3.67 0 0 0 1 1.79.45.45 0 0 1 .49.31 1.49 1.49 0 0 0 1.8-.36c.33-.39.89.18.56.57a2.25 2.25 0 0 1-2.39.63 3.88 3.88 0 0 0 3.13 3.59h.06a8.07 8.07 0 0 0 4.19-2.81 10.9 10.9 0 0 1-.17-1.72c0-.51.77-.51.79 0 .07 1.55.59 4.7 2.91 3.93.49-.16.7.6.21.76a2.65 2.65 0 0 1-2.87-.91 4.47 4.47 0 0 1-.64-1.1 9.53 9.53 0 0 1-8.07 3 13.17 13.17 0 0 1-6.57-2.71 6.91 6.91 0 0 0-2.56 9.86 8.45 8.45 0 0 0 4.2 2.34c2.38.54 5.09 0 6.34-2.17a13.58 13.58 0 0 1-1.45-2.08c-.27-.44.42-.84.69-.4a14.57 14.57 0 0 0 1.24 1.85.46.46 0 0 1 .45.48 4 4 0 0 0 .61.47 2.56 2.56 0 0 0 3.08 0c.38-.35.95.21.57.56a3.19 3.19 0 0 1-3.47.47 4.11 4.11 0 0 1-1.13-.72 5.47 5.47 0 0 1-3.26 2.35 5.11 5.11 0 0 0 5.77 3.89 13.83 13.83 0 0 1 .46-1.42c.18-.48.95-.27.77.21a5.06 5.06 0 0 0-.55 3 1.58 1.58 0 0 0 1.91 1.31c.49-.15.69.61.21.77a2.25 2.25 0 0 1-2.61-1.16A3.34 3.34 0 0 1 16 37a5.9 5.9 0 0 1-6.41-4.53 7.44 7.44 0 0 1-2.82-.1 9.78 9.78 0 0 1-4.84-2.67 6.68 6.68 0 0 0 .38 9.75c1.73-.63 3.58-.86 5.15.41a.36.36 0 0 1 .13.18 4.42 4.42 0 0 1 1.61-1.35c.46-.22.87.46.41.69a3.66 3.66 0 0 0-2 2.76c-.09.51-.85.29-.77-.21a4.27 4.27 0 0 1 .51-1.44.42.42 0 0 1-.4-.07c-1.48-1.2-3.37-.67-5 0a6 6 0 0 0 3.93 7.71c1.73-2.91 5.25-5.1 8.3-3.18a3 3 0 0 1 2.35-.61c.5.08.29.85-.22.77A2.07 2.07 0 0 0 14 47.8a.4.4 0 0 1-.77.21 2.85 2.85 0 0 1 .39-2.44c-2.52-1.45-5.43.36-7 2.76h.11a7.5 7.5 0 0 0-.23 1.85 7.32 7.32 0 0 0 6.93 7.31A5.93 5.93 0 0 1 15.68 55a10.12 10.12 0 0 1 0-3.25 3.19 3.19 0 0 1-.75-1.28c-.15-.49.61-.7.77-.21a2.33 2.33 0 0 0 1.59 1.56l.34-.22c.44-.28.83.41.41.69s-.6.44-1.05.28a3.51 3.51 0 0 1-.59-.26 8.86 8.86 0 0 0 0 2.3 6.14 6.14 0 0 1 1.15-.35.4.4 0 0 1 .22 0 5 5 0 0 1 .94-1c.4-.32 1 .24.57.56-.89.71-2 2.12-.86 3.13.39.34-.17.9-.56.57a2 2 0 0 1-.55-2.41 5 5 0 0 0-3.14 2.75 10 10 0 0 0 16.86 0zM18.68 9.16a2.88 2.88 0 0 0-3.14 2.1.39.39 0 0 1-.76-.21 3.68 3.68 0 0 1 4.11-2.66c.51.07.29.84-.21.77zM7.19 24.24a3.45 3.45 0 0 0-.4 3.34c.19.48-.58.69-.77.22a4.18 4.18 0 0 1 .48-4c.3-.37.99.03.69.44zm17.31 3.43c.23-.46.92-.06.69.4a4.51 4.51 0 0 0 .33 4.68c.29.42-.4.82-.69.4a5.32 5.32 0 0 1-.33-5.48zm3.36 23.94a4.54 4.54 0 0 1-6-3.09.4.4 0 0 1 .77-.21 3.74 3.74 0 0 0 5 2.53c.5-.18.7.59.23.77z" fill="#f4992c"/><path d="M33.92 57.81a10 10 0 0 0 16.85 0 4.93 4.93 0 0 0-3.13-2.75 2 2 0 0 1-.55 2.41c-.39.33-1-.23-.57-.57 1.19-1 0-2.42-.85-3.13-.4-.32.16-.88.56-.56a4.74 4.74 0 0 1 .94 1 .43.43 0 0 1 .23 0 6 6 0 0 1 1.14.35 8.86 8.86 0 0 0 0-2.3 3.4 3.4 0 0 1-.58.26c-.46.16-.67 0-1.05-.28s0-1 .4-.69l.34.22a2.34 2.34 0 0 0 1.6-1.56c.15-.49.92-.28.76.21a3.29 3.29 0 0 1-.74 1.28 10.12 10.12 0 0 1 0 3.25 5.93 5.93 0 0 1 2.22 2.56 7.33 7.33 0 0 0 6.94-7.31 7.5 7.5 0 0 0-.24-1.85h.11c-1.52-2.4-4.43-4.21-7-2.76a2.85 2.85 0 0 1 .44 2.41.39.39 0 0 1-.74-.2 2.08 2.08 0 0 0-2.31-2.67c-.5.08-.72-.69-.21-.77a3 3 0 0 1 2.32.64c3-1.92 6.57.27 8.3 3.18a6 6 0 0 0 4.26-5.75 5.76 5.76 0 0 0-.33-2c-1.61-.69-3.49-1.22-5 0a.43.43 0 0 1-.4.07 4.5 4.5 0 0 1 .51 1.44c.08.5-.69.72-.77.21a3.66 3.66 0 0 0-2-2.76c-.46-.23-.06-.91.4-.69a4.53 4.53 0 0 1 1.61 1.3.29.29 0 0 1 .12-.18c1.58-1.27 3.42-1 5.15-.41A6.68 6.68 0 0 0 63 29.7a9.78 9.78 0 0 1-4.87 2.63 7.42 7.42 0 0 1-2.82.1A5.89 5.89 0 0 1 48.93 37a3.25 3.25 0 0 1-.33 1.87A2.24 2.24 0 0 1 46 40c-.49-.16-.28-.92.21-.77a1.59 1.59 0 0 0 1.91-1.31 5.22 5.22 0 0 0-.55-3c-.19-.48.58-.69.76-.21a10.22 10.22 0 0 1 .46 1.42 5.1 5.1 0 0 0 5.77-3.89 5.42 5.42 0 0 1-3.25-2.35 4.43 4.43 0 0 1-1.13.72 3.19 3.19 0 0 1-3.47-.47c-.38-.35.18-.91.56-.56a2.56 2.56 0 0 0 3.08 0 4 4 0 0 0 .61-.47.46.46 0 0 1 .46-.48 14.57 14.57 0 0 0 1.24-1.85.39.39 0 0 1 .68.4 13.58 13.58 0 0 1-1.45 2.08c1.25 2.21 4 2.71 6.34 2.17a8.43 8.43 0 0 0 4.21-2.34 6.91 6.91 0 0 0-2.56-9.86A13.09 13.09 0 0 1 53.31 22a9.54 9.54 0 0 1-8.07-3 3.93 3.93 0 0 1-.62 1.13 2.65 2.65 0 0 1-2.87.91c-.48-.16-.28-.92.21-.76 2.32.77 2.84-2.38 2.91-3.93 0-.51.82-.51.8 0a13.91 13.91 0 0 1-.17 1.72 8 8 0 0 0 4.18 2.81h.06a3.87 3.87 0 0 0 3.13-3.59 2.25 2.25 0 0 1-2.39-.63c-.33-.39.23-1 .57-.57a1.47 1.47 0 0 0 1.79.36.46.46 0 0 1 .5-.31 3.58 3.58 0 0 0 .94-1.79.4.4 0 0 1 .77.21 4.16 4.16 0 0 1-1.4 2.33 4.69 4.69 0 0 1-2.43 4.31 9.57 9.57 0 0 0 2.45 0 12.32 12.32 0 0 0 6.14-2.89 7.2 7.2 0 0 0 .08-1 7.1 7.1 0 0 0-6.53-7.07v-.1a5.81 5.81 0 0 0-5.83-5.84 5.71 5.71 0 0 0-2.45.54A9.33 9.33 0 0 1 44.41 7c-.82 1.82-2.38 4-4.5 4.3h-.09a5 5 0 0 1-.66 2.31.4.4 0 0 1-.69-.4 3.57 3.57 0 0 0 .47-2.49 1.93 1.93 0 0 0-2.06-1.52c-.5.07-.72-.7-.21-.77a2.7 2.7 0 0 1 2.73 1.28 2.47 2.47 0 0 1 .34.78c1.92-.32 3.33-2.37 4-4a8.76 8.76 0 0 0 .49-1.58A7.48 7.48 0 0 0 33.92.79zM46.07 8.39a3.69 3.69 0 0 1 4.12 2.66.4.4 0 0 1-.77.21 2.87 2.87 0 0 0-3.14-2.1c-.5.07-.72-.7-.21-.77zm12.39 15.45a4.18 4.18 0 0 1 .48 4c-.18.47-.95.26-.76-.22a3.43 3.43 0 0 0-.41-3.34c-.29-.45.4-.85.69-.44zm-18.33 9.31c-.29.42-1 0-.69-.4a4.51 4.51 0 0 0 .34-4.68c-.24-.46.45-.86.68-.4a5.3 5.3 0 0 1-.33 5.48zm-2.81 17.69a3.74 3.74 0 0 0 5-2.53.4.4 0 0 1 .77.21 4.53 4.53 0 0 1-6 3.09c-.46-.18-.25-.95.23-.77z" fill="#fcc83b"/><rect class="cls-4" x="20.16" y="66.23" width="24.77" height="2.41" rx=".57" ry=".57" transform="rotate(179.99 32.55 67.438)"/><path d="M43.54 68.64a6 6 0 0 1 .12 1.2v9.38a6.44 6.44 0 0 1-6.42 6.42h-9.37a6.44 6.44 0 0 1-6.43-6.43v-9.36a6.78 6.78 0 0 1 .12-1.2z" fill="#bbbbba"/><path d="M37 85.64A6.62 6.62 0 0 1 32.55 87a6.6 6.6 0 0 1-4.47-1.34z" fill="#adadad"/><path class="cls-4" d="M20.59 74.23l23.19 6.06a.68.68 0 0 0 .83-.48l.39-1.47a.67.67 0 0 0-.48-.83l-23.2-6.06a.68.68 0 0 0-.83.48l-.38 1.47a.67.67 0 0 0 .48.83zm-.39 5.25l22.65 5.93a.27.27 0 0 0 .33-.2l.59-2.21a.27.27 0 0 0-.19-.33L20.93 76.7a.26.26 0 0 0-.33.19l-.6 2.26a.26.26 0 0 0 .2.33zm10.88-10.84L43.77 72a1.44 1.44 0 1 1-.77 2.75l-21.67-5.68a1.47 1.47 0 0 1-.7-.42z"/></g></g></svg>